<?xml version="1.0" encoding="UTF-8"?>
<svg id="_Слой_2" data-name="Слой 2" xmlns="http://www.w3.org/2000/svg" viewBox="0 0 1735 594.49">
  <defs>
    <style>
      .cls-1 {
        fill: #0169a8;
      }

      .cls-1, .cls-2 {
        stroke-width: 0px;
      }

      .cls-2 {
        fill: #fff;
      }
    </style>
  </defs>
  <g id="Calque_1" data-name="Calque 1">
    <g>
      <g>
        <rect class="cls-1" width="839.15" height="594.49" rx="44.38" ry="44.38"/>
        <rect class="cls-1" x="894.22" width="840.77" height="594.49" rx="44.38" ry="44.38"/>
        <g>
          <path class="cls-2" d="M1097.91,261.01c7.7,0,12.4,4.55,12.4,11.25s-4.7,11.3-12.4,11.3h-8.8v10.95h-6.8v-33.5h15.6ZM1097.91,277.41c3.65,0,5.65-2.05,5.65-5.15s-2-5.1-5.65-5.1h-8.8v10.25h8.8Z"/>
          <path class="cls-2" d="M1132.86,269.41l-.35,6.35h-1.45c-6.1,0-8.9,3.75-8.9,10.7v8.05h-6.6v-24.95h6.6v4.55c2-2.9,4.9-4.9,8.95-4.9.65,0,1.15,0,1.75.2Z"/>
          <path class="cls-2" d="M1161.81,282.06c0,7.85-6.15,13.1-13.45,13.1s-13.6-5.25-13.6-13.1,6.15-13.1,13.6-13.1,13.45,5.25,13.45,13.1ZM1155.41,282.06c0-4.65-3.6-7.45-7.05-7.45s-7.2,2.8-7.2,7.45,3.6,7.45,7.2,7.45,7.05-2.8,7.05-7.45Z"/>
          <path class="cls-2" d="M1184.95,293.41c-2.6,1.4-4.4,1.85-6.5,1.85-5.9,0-9.8-3.1-9.8-9.95v-10.35h-5.35v-5.4h5.35v-7.55h6.6v7.55h8.15v5.4h-8.15v9.85c0,3,1.45,4.3,3.65,4.3,1.15,0,2.85-.5,4.15-1.2l1.9,5.5Z"/>
          <path class="cls-2" d="M1211.56,283.81h-19c.65,3.6,3.2,5.8,6.25,5.8,1.95,0,4.4-.25,6.2-3.3l5.9,1.25c-2.2,5.2-6.65,7.7-12.1,7.7-7.05,0-12.8-5.35-12.8-13.2s5.75-13.25,12.9-13.25c6.65,0,12.4,5.15,12.65,12.75v2.25ZM1192.75,279.16h12.05c-.85-3.2-3.25-4.6-5.9-4.6-2.5,0-5.35,1.5-6.15,4.6ZM1196.4,266.16l3.3-7.2h7.75l-5.45,7.2h-5.6Z"/>
          <path class="cls-2" d="M1224.2,262.11c0,2.2-1.7,3.85-4,3.85s-4-1.65-4-3.85,1.65-3.95,4-3.95,4,1.85,4,3.95ZM1216.9,294.51v-24.95h6.6v24.95h-6.6Z"/>
          <path class="cls-2" d="M1255.3,279.31v15.2h-6.6v-13.8c0-3.5-2-5.85-5.05-5.85-3.75,0-6.2,2.5-6.2,8.6v11.05h-6.6v-24.95h6.6v2.25c1.95-1.95,4.55-3,7.85-3,6,0,10,4.3,10,10.5Z"/>
          <path class="cls-2" d="M1285.2,283.81h-19c.65,3.6,3.2,5.8,6.25,5.8,1.95,0,4.4-.25,6.2-3.3l5.9,1.25c-2.2,5.2-6.65,7.7-12.1,7.7-7.05,0-12.8-5.35-12.8-13.2s5.75-13.25,12.9-13.25c6.65,0,12.4,5.15,12.65,12.75v2.25ZM1266.4,279.16h12.05c-.85-3.2-3.25-4.6-5.9-4.6-2.5,0-5.35,1.5-6.15,4.6Z"/>
          <path class="cls-2" d="M1294.75,286.56c.35,2.55,2.55,3.4,5.15,3.4,2.45,0,3.9-1.1,3.9-2.5,0-.9-.6-1.8-2.75-2.25l-5.1-1.05c-4.5-.95-7.05-3.5-7.05-7.1,0-4.8,3.9-8.25,10.2-8.25,5.9,0,10,3.05,10.85,7.4l-6.3,1.25c-.25-2-2-3.45-4.75-3.45s-3.4,1.3-3.4,2.45c0,.8.3,1.65,2.25,2.1l5.95,1.3c4.4.95,6.55,3.7,6.55,7.05,0,5.5-4.45,8.35-10.95,8.35-5.5,0-10.55-2.15-11.2-7.35l6.65-1.35Z"/>
          <path class="cls-2" d="M1352.6,294.51h-6.6v-1.95c-2.1,1.7-4.85,2.7-8.25,2.7-6.35,0-12.25-5.35-12.25-13.2s5.9-13.25,12.25-13.25c3.4,0,6.15,1,8.25,2.75v-2h6.6v24.95ZM1346,282.06c0-4.6-3.55-7.5-7.1-7.5-4,0-7,2.9-7,7.5s3,7.45,7,7.45c3.55,0,7.1-2.85,7.1-7.45Z"/>
          <path class="cls-2" d="M1384.05,279.31v15.2h-6.6v-13.8c0-3.5-2-5.85-5.05-5.85-3.75,0-6.2,2.5-6.2,8.6v11.05h-6.6v-24.95h6.6v2.25c1.95-1.95,4.55-3,7.85-3,6,0,10,4.3,10,10.5Z"/>
          <path class="cls-2" d="M1398.05,262.11c0,2.2-1.7,3.85-4,3.85s-4-1.65-4-3.85,1.65-3.95,4-3.95,4,1.85,4,3.95ZM1390.75,294.51v-24.95h6.6v24.95h-6.6Z"/>
          <path class="cls-2" d="M1445.75,278.91v15.6h-6.55v-14.25c0-3.35-2.15-5.4-4.9-5.4-3.5,0-5.8,2.4-5.8,7.65v12h-6.6v-14.25c0-3.35-2.15-5.4-4.9-5.4-3.5,0-5.7,2.4-5.7,7.65v12h-6.6v-24.95h6.6v2.05c1.75-1.75,4.2-2.8,7.45-2.8s6.4,1.45,8.2,4.1c2.05-2.55,5.1-4.1,9.1-4.1,5.2,0,9.7,4,9.7,10.1Z"/>
          <path class="cls-2" d="M1477.25,294.51h-6.6v-1.95c-2.1,1.7-4.85,2.7-8.25,2.7-6.35,0-12.25-5.35-12.25-13.2s5.9-13.25,12.25-13.25c3.4,0,6.15,1,8.25,2.75v-2h6.6v24.95ZM1470.65,282.06c0-4.6-3.55-7.5-7.1-7.5-4,0-7,2.9-7,7.5s3,7.45,7,7.45c3.55,0,7.1-2.85,7.1-7.45Z"/>
          <path class="cls-2" d="M1484.25,294.51v-36h6.6v36h-6.6Z"/>
          <path class="cls-2" d="M1521.4,283.81h-19c.65,3.6,3.2,5.8,6.25,5.8,1.95,0,4.4-.25,6.2-3.3l5.9,1.25c-2.2,5.2-6.65,7.7-12.1,7.7-7.05,0-12.8-5.35-12.8-13.2s5.75-13.25,12.9-13.25c6.65,0,12.4,5.15,12.65,12.75v2.25ZM1502.6,279.16h12.05c-.85-3.2-3.25-4.6-5.9-4.6-2.5,0-5.35,1.5-6.15,4.6Z"/>
          <path class="cls-2" d="M1530.95,286.56c.35,2.55,2.55,3.4,5.15,3.4,2.45,0,3.9-1.1,3.9-2.5,0-.9-.6-1.8-2.75-2.25l-5.1-1.05c-4.5-.95-7.05-3.5-7.05-7.1,0-4.8,3.9-8.25,10.2-8.25,5.9,0,10,3.05,10.85,7.4l-6.3,1.25c-.25-2-2-3.45-4.75-3.45s-3.4,1.3-3.4,2.45c0,.8.3,1.65,2.25,2.1l5.95,1.3c4.4.95,6.55,3.7,6.55,7.05,0,5.5-4.45,8.35-10.95,8.35-5.5,0-10.55-2.15-11.2-7.35l6.65-1.35Z"/>
          <path class="cls-2" d="M1099.31,347.41c-2.6,1.4-4.4,1.85-6.5,1.85-5.9,0-9.8-3.1-9.8-9.95v-10.35h-5.35v-5.4h5.35v-7.55h6.6v7.55h8.15v5.4h-8.15v9.85c0,3,1.45,4.3,3.65,4.3,1.15,0,2.85-.5,4.15-1.2l1.9,5.5Z"/>
          <path class="cls-2" d="M1120.16,323.41l-.35,6.35h-1.45c-6.1,0-8.9,3.75-8.9,10.7v8.05h-6.6v-24.95h6.6v4.55c2-2.9,4.9-4.9,8.95-4.9.65,0,1.15,0,1.75.2Z"/>
          <path class="cls-2" d="M1149.16,348.51h-6.6v-1.95c-2.1,1.7-4.85,2.7-8.25,2.7-6.35,0-12.25-5.35-12.25-13.2s5.9-13.25,12.25-13.25c3.4,0,6.15,1,8.25,2.75v-2h6.6v24.95ZM1142.56,336.06c0-4.6-3.55-7.5-7.1-7.5-4,0-7,2.9-7,7.5s3,7.45,7,7.45c3.55,0,7.1-2.85,7.1-7.45Z"/>
          <path class="cls-2" d="M1180.61,333.31v15.2h-6.6v-13.8c0-3.5-2-5.85-5.05-5.85-3.75,0-6.2,2.5-6.2,8.6v11.05h-6.6v-24.95h6.6v2.25c1.95-1.95,4.55-3,7.85-3,6,0,10,4.3,10,10.5Z"/>
          <path class="cls-2" d="M1191.5,340.56c.35,2.55,2.55,3.4,5.15,3.4,2.45,0,3.9-1.1,3.9-2.5,0-.9-.6-1.8-2.75-2.25l-5.1-1.05c-4.5-.95-7.05-3.5-7.05-7.1,0-4.8,3.9-8.25,10.2-8.25,5.9,0,10,3.05,10.85,7.4l-6.3,1.25c-.25-2-2-3.45-4.75-3.45s-3.4,1.3-3.4,2.45c0,.8.3,1.65,2.25,2.1l5.95,1.3c4.4.95,6.55,3.7,6.55,7.05,0,5.5-4.45,8.35-10.95,8.35-5.5,0-10.55-2.15-11.2-7.35l6.65-1.35Z"/>
          <path class="cls-2" d="M1227.05,323.56v5.4h-7.55v19.55h-6.6v-19.55h-3.8v-5.4h3.8v-2.25c0-5.85,4-9.45,9.85-9.45,1.6,0,3.05.3,4.45.95l-1.5,5.35c-.9-.3-1.8-.45-2.5-.45-2.15,0-3.7,1.25-3.7,3.6v2.25h7.55Z"/>
          <path class="cls-2" d="M1255.11,336.06c0,7.85-6.15,13.1-13.45,13.1s-13.6-5.25-13.6-13.1,6.15-13.1,13.6-13.1,13.45,5.25,13.45,13.1ZM1248.7,336.06c0-4.65-3.6-7.45-7.05-7.45s-7.2,2.8-7.2,7.45,3.6,7.45,7.2,7.45,7.05-2.8,7.05-7.45Z"/>
          <path class="cls-2" d="M1277.4,323.41l-.35,6.35h-1.45c-6.1,0-8.9,3.75-8.9,10.7v8.05h-6.6v-24.95h6.6v4.55c2-2.9,4.9-4.9,8.95-4.9.65,0,1.15,0,1.75.2Z"/>
          <path class="cls-2" d="M1322.61,332.91v15.6h-6.55v-14.25c0-3.35-2.15-5.4-4.9-5.4-3.5,0-5.8,2.4-5.8,7.65v12h-6.6v-14.25c0-3.35-2.15-5.4-4.9-5.4-3.5,0-5.7,2.4-5.7,7.65v12h-6.6v-24.95h6.6v2.05c1.75-1.75,4.2-2.8,7.45-2.8s6.4,1.45,8.2,4.1c2.05-2.55,5.1-4.1,9.1-4.1,5.2,0,9.7,4,9.7,10.1Z"/>
          <path class="cls-2" d="M1352.55,337.81h-19c.65,3.6,3.2,5.8,6.25,5.8,1.95,0,4.4-.25,6.2-3.3l5.9,1.25c-2.2,5.2-6.65,7.7-12.1,7.7-7.05,0-12.8-5.35-12.8-13.2s5.75-13.25,12.9-13.25c6.65,0,12.4,5.15,12.65,12.75v2.25ZM1333.75,333.16h12.05c-.85-3.2-3.25-4.6-5.9-4.6-2.5,0-5.35,1.5-6.15,4.6ZM1337.4,320.16l3.3-7.2h7.75l-5.45,7.2h-5.6Z"/>
          <path class="cls-2" d="M1381.1,337.81h-19c.65,3.6,3.2,5.8,6.25,5.8,1.95,0,4.4-.25,6.2-3.3l5.9,1.25c-2.2,5.2-6.65,7.7-12.1,7.7-7.05,0-12.8-5.35-12.8-13.2s5.75-13.25,12.9-13.25c6.65,0,12.4,5.15,12.65,12.75v2.25ZM1362.3,333.16h12.05c-.85-3.2-3.25-4.6-5.9-4.6-2.5,0-5.35,1.5-6.15,4.6Z"/>
          <path class="cls-2" d="M1390.65,340.56c.35,2.55,2.55,3.4,5.15,3.4,2.45,0,3.9-1.1,3.9-2.5,0-.9-.6-1.8-2.75-2.25l-5.1-1.05c-4.5-.95-7.05-3.5-7.05-7.1,0-4.8,3.9-8.25,10.2-8.25,5.9,0,10,3.05,10.85,7.4l-6.3,1.25c-.25-2-2-3.45-4.75-3.45s-3.4,1.3-3.4,2.45c0,.8.3,1.65,2.25,2.1l5.95,1.3c4.4.95,6.55,3.7,6.55,7.05,0,5.5-4.45,8.35-10.95,8.35-5.5,0-10.55-2.15-11.2-7.35l6.65-1.35Z"/>
          <path class="cls-2" d="M1436.2,314.91c-5.5,5.8-7.2,10.6-7.2,16.85s1.7,11,7.2,16.8l-4.65,4.05c-6.75-6.1-9.65-13.15-9.65-20.85s2.9-14.8,9.65-20.95l4.65,4.1Z"/>
          <path class="cls-2" d="M1457.3,315.01c7.7,0,12.4,4.55,12.4,11.25s-4.7,11.3-12.4,11.3h-8.8v10.95h-6.8v-33.5h15.6ZM1457.3,331.41c3.65,0,5.65-2.05,5.65-5.15s-2-5.1-5.65-5.1h-8.8v10.25h8.8Z"/>
          <path class="cls-2" d="M1495.45,348.51l-2.9-7.15h-14.8l-2.95,7.15h-7.35l14.5-33.5h6.35l14.5,33.5h-7.35ZM1485.15,323.26l-4.9,11.95h9.75l-4.85-11.95Z"/>
          <path class="cls-2" d="M1518.75,321.16v27.35h-6.8v-27.35h-11.15v-6.15h29.1v6.15h-11.15Z"/>
          <path class="cls-2" d="M1537.55,310.81c6.75,6.15,9.65,13.2,9.65,20.95s-2.9,14.75-9.65,20.85l-4.65-4.05c5.5-5.8,7.2-10.6,7.2-16.8s-1.7-11.05-7.2-16.85l4.65-4.1Z"/>
        </g>
      </g>
      <g>
        <g>
          <path class="cls-2" d="M221.43,259h16.25v6.15h-16.25v13h-6.8v-33.5h25v6.15h-18.2v8.2Z"/>
          <path class="cls-2" d="M268.73,278.15h-6.6v-1.95c-2.1,1.7-4.85,2.7-8.25,2.7-6.35,0-12.25-5.35-12.25-13.2s5.9-13.25,12.25-13.25c3.4,0,6.15,1,8.25,2.75v-2h6.6v24.95ZM262.13,265.7c0-4.6-3.55-7.5-7.1-7.5-4,0-7,2.9-7,7.5s3,7.45,7,7.45c3.55,0,7.1-2.85,7.1-7.45Z"/>
          <path class="cls-2" d="M293.03,253.05l-.35,6.35h-1.45c-6.1,0-8.9,3.75-8.9,10.7v8.05h-6.6v-24.95h6.6v4.55c2-2.9,4.9-4.9,8.95-4.9.65,0,1.15,0,1.75.2Z"/>
          <path class="cls-2" d="M304.83,245.75c0,2.2-1.7,3.85-4,3.85s-4-1.65-4-3.85,1.65-3.95,4-3.95,4,1.85,4,3.95ZM297.53,278.15v-24.95h6.6v24.95h-6.6Z"/>
          <path class="cls-2" d="M335.93,262.95v15.2h-6.6v-13.8c0-3.5-2-5.85-5.05-5.85-3.75,0-6.2,2.5-6.2,8.6v11.05h-6.6v-24.95h6.6v2.25c1.95-1.95,4.55-3,7.85-3,6,0,10,4.3,10,10.5Z"/>
          <path class="cls-2" d="M365.83,267.45h-19c.65,3.6,3.2,5.8,6.25,5.8,1.95,0,4.4-.25,6.2-3.3l5.9,1.25c-2.2,5.2-6.65,7.7-12.1,7.7-7.05,0-12.8-5.35-12.8-13.2s5.75-13.25,12.9-13.25c6.65,0,12.4,5.15,12.65,12.75v2.25ZM347.03,262.8h12.05c-.85-3.2-3.25-4.6-5.9-4.6-2.5,0-5.35,1.5-6.15,4.6Z"/>
          <path class="cls-2" d="M375.38,270.2c.35,2.55,2.55,3.4,5.15,3.4,2.45,0,3.9-1.1,3.9-2.5,0-.9-.6-1.8-2.75-2.25l-5.1-1.05c-4.5-.95-7.05-3.5-7.05-7.1,0-4.8,3.9-8.25,10.2-8.25,5.9,0,10,3.05,10.85,7.4l-6.3,1.25c-.25-2-2-3.45-4.75-3.45s-3.4,1.3-3.4,2.45c0,.8.3,1.65,2.25,2.1l5.95,1.3c4.4.95,6.55,3.7,6.55,7.05,0,5.5-4.45,8.35-10.95,8.35-5.5,0-10.55-2.15-11.2-7.35l6.65-1.35Z"/>
          <path class="cls-2" d="M433.23,278.15h-6.6v-1.95c-2.1,1.7-4.85,2.7-8.25,2.7-6.35,0-12.25-5.35-12.25-13.2s5.9-13.25,12.25-13.25c3.4,0,6.15,1,8.25,2.75v-2h6.6v24.95ZM426.63,265.7c0-4.6-3.55-7.5-7.1-7.5-4,0-7,2.9-7,7.5s3,7.45,7,7.45c3.55,0,7.1-2.85,7.1-7.45Z"/>
          <path class="cls-2" d="M464.68,262.95v15.2h-6.6v-13.8c0-3.5-2-5.85-5.05-5.85-3.75,0-6.2,2.5-6.2,8.6v11.05h-6.6v-24.95h6.6v2.25c1.95-1.95,4.55-3,7.85-3,6,0,10,4.3,10,10.5Z"/>
          <path class="cls-2" d="M478.68,245.75c0,2.2-1.7,3.85-4,3.85s-4-1.65-4-3.85,1.65-3.95,4-3.95,4,1.85,4,3.95ZM471.38,278.15v-24.95h6.6v24.95h-6.6Z"/>
          <path class="cls-2" d="M526.38,262.55v15.6h-6.55v-14.25c0-3.35-2.15-5.4-4.9-5.4-3.5,0-5.8,2.4-5.8,7.65v12h-6.6v-14.25c0-3.35-2.15-5.4-4.9-5.4-3.5,0-5.7,2.4-5.7,7.65v12h-6.6v-24.95h6.6v2.05c1.75-1.75,4.2-2.8,7.45-2.8s6.4,1.45,8.2,4.1c2.05-2.55,5.1-4.1,9.1-4.1,5.2,0,9.7,4,9.7,10.1Z"/>
          <path class="cls-2" d="M557.88,278.15h-6.6v-1.95c-2.1,1.7-4.85,2.7-8.25,2.7-6.35,0-12.25-5.35-12.25-13.2s5.9-13.25,12.25-13.25c3.4,0,6.15,1,8.25,2.75v-2h6.6v24.95ZM551.28,265.7c0-4.6-3.55-7.5-7.1-7.5-4,0-7,2.9-7,7.5s3,7.45,7,7.45c3.55,0,7.1-2.85,7.1-7.45Z"/>
          <path class="cls-2" d="M564.88,278.15v-36h6.6v36h-6.6Z"/>
          <path class="cls-2" d="M602.03,267.45h-19c.65,3.6,3.2,5.8,6.25,5.8,1.95,0,4.4-.25,6.2-3.3l5.9,1.25c-2.2,5.2-6.65,7.7-12.1,7.7-7.05,0-12.8-5.35-12.8-13.2s5.75-13.25,12.9-13.25c6.65,0,12.4,5.15,12.65,12.75v2.25ZM583.23,262.8h12.05c-.85-3.2-3.25-4.6-5.9-4.6-2.5,0-5.35,1.5-6.15,4.6Z"/>
          <path class="cls-2" d="M611.58,270.2c.35,2.55,2.55,3.4,5.15,3.4,2.45,0,3.9-1.1,3.9-2.5,0-.9-.6-1.8-2.75-2.25l-5.1-1.05c-4.5-.95-7.05-3.5-7.05-7.1,0-4.8,3.9-8.25,10.2-8.25,5.9,0,10,3.05,10.85,7.4l-6.3,1.25c-.25-2-2-3.45-4.75-3.45s-3.4,1.3-3.4,2.45c0,.8.3,1.65,2.25,2.1l5.95,1.3c4.4.95,6.55,3.7,6.55,7.05,0,5.5-4.45,8.35-10.95,8.35-5.5,0-10.55-2.15-11.2-7.35l6.65-1.35Z"/>
        </g>
        <g>
          <path class="cls-2" d="M264.47,327.51c0,6.6-5.24,11.83-11.9,11.83s-11.86-5.23-11.86-11.83,5.2-11.9,11.86-11.9,11.9,5.27,11.9,11.9ZM260.8,327.51c0-4.83-3.6-8.46-8.23-8.46s-8.19,3.64-8.19,8.46,3.6,8.4,8.19,8.4,8.23-3.6,8.23-8.4Z"/>
          <path class="cls-2" d="M270.49,333.6c.24,2.01,2.01,2.86,4.22,2.86,2.04,0,3.33-.92,3.33-2.24,0-1.02-.71-1.67-2.28-2.01l-3.67-.75c-2.92-.65-4.59-2.21-4.59-4.59,0-3.13,2.62-5.34,6.66-5.34s6.49,2.04,7.11,4.86l-3.37.71c-.27-1.63-1.67-2.75-3.84-2.75s-2.99,1.02-2.99,2.21c0,.95.54,1.56,2.04,1.9l4.01.88c2.72.58,4.39,2.18,4.39,4.55,0,3.54-2.89,5.44-7.11,5.44-3.77,0-7-1.6-7.45-5l3.54-.75Z"/>
          <path class="cls-2" d="M282.97,343.35l2.14-9.04h4.11v.1l-3.57,8.94h-2.69Z"/>
          <path class="cls-2" d="M313.87,332.54l3.26.85c-.92,3.64-4.32,5.95-8.23,5.95-4.83,0-8.91-3.57-8.91-8.91s4.08-8.91,8.91-8.91c3.81,0,7.17,2.31,8.23,5.91l-3.4.99c-.65-2.48-2.58-3.64-4.83-3.64-3.13,0-5.44,2.31-5.44,5.64s2.31,5.64,5.44,5.64c2.24,0,4.15-1.09,4.96-3.54Z"/>
          <path class="cls-2" d="M337.71,330.43c0,5.24-4.05,8.84-9.01,8.84s-9.08-3.6-9.08-8.84,4.08-8.8,9.08-8.8,9.01,3.57,9.01,8.8ZM334.28,330.43c0-3.5-2.69-5.78-5.58-5.78s-5.61,2.28-5.61,5.78,2.65,5.78,5.61,5.78,5.58-2.28,5.58-5.78Z"/>
          <path class="cls-2" d="M352.8,321.93l-.24,3.4c-.27-.03-.68-.03-.99-.03-4.28,0-6.39,2.99-6.39,7.62v5.95h-3.54v-16.86h3.54v3.6c1.36-2.24,3.5-3.81,6.43-3.81.41,0,.75,0,1.19.13Z"/>
          <path class="cls-2" d="M372.08,328.67v10.2h-3.57v-9.49c0-2.75-1.6-4.59-4.01-4.59-3.03,0-5.03,2.04-5.03,6.29v7.79h-3.54v-16.86h3.54v2.07c1.36-1.63,3.33-2.55,5.85-2.55,4.05,0,6.77,2.92,6.77,7.14Z"/>
          <path class="cls-2" d="M392.72,331.28h-13.67c.34,3.13,2.62,5,5.1,5,1.87,0,3.77-.54,4.96-2.92l3.16.68c-1.39,3.54-4.39,5.3-8.12,5.3-4.59,0-8.6-3.54-8.6-8.87s3.98-8.94,8.74-8.94,8.26,3.47,8.43,8.53v1.22ZM379.16,328.77h9.93c-.54-2.75-2.48-4.11-4.79-4.11s-4.59,1.39-5.13,4.11Z"/>
          <path class="cls-2" d="M398.74,333.6c.24,2.01,2.01,2.86,4.22,2.86,2.04,0,3.33-.92,3.33-2.24,0-1.02-.71-1.67-2.28-2.01l-3.67-.75c-2.92-.65-4.59-2.21-4.59-4.59,0-3.13,2.62-5.34,6.66-5.34s6.49,2.04,7.1,4.86l-3.37.71c-.27-1.63-1.67-2.75-3.84-2.75s-2.99,1.02-2.99,2.21c0,.95.54,1.56,2.04,1.9l4.01.88c2.72.58,4.38,2.18,4.38,4.55,0,3.54-2.89,5.44-7.11,5.44-3.77,0-7-1.6-7.45-5l3.54-.75Z"/>
          <path class="cls-2" d="M437.87,331.28h-13.67c.34,3.13,2.62,5,5.1,5,1.87,0,3.77-.54,4.96-2.92l3.16.68c-1.39,3.54-4.39,5.3-8.12,5.3-4.59,0-8.6-3.54-8.6-8.87s3.98-8.94,8.74-8.94,8.26,3.47,8.43,8.53v1.22ZM424.31,328.77h9.93c-.54-2.75-2.48-4.11-4.79-4.11s-4.59,1.39-5.13,4.11Z"/>
          <path class="cls-2" d="M453,338.05c-1.6.95-2.75,1.29-4.18,1.29-3.64,0-6.08-2.04-6.08-6.22v-8.19h-3.64v-2.92h3.64v-5.23h3.54v5.23h5.78v2.92h-5.78v7.96c0,2.11,1.12,3.13,2.79,3.13.88,0,1.97-.34,2.86-.92l1.09,2.96Z"/>
          <path class="cls-2" d="M480.88,330.43c0,5.24-4.04,8.84-9.01,8.84s-9.08-3.6-9.08-8.84,4.08-8.8,9.08-8.8,9.01,3.57,9.01,8.8ZM477.45,330.43c0-3.5-2.69-5.78-5.58-5.78s-5.61,2.28-5.61,5.78,2.65,5.78,5.61,5.78,5.58-2.28,5.58-5.78Z"/>
          <path class="cls-2" d="M500.97,328.67v10.2h-3.57v-9.49c0-2.75-1.6-4.59-4.01-4.59-3.03,0-5.03,2.04-5.03,6.29v7.79h-3.54v-16.86h3.54v2.07c1.36-1.63,3.33-2.55,5.85-2.55,4.05,0,6.77,2.92,6.77,7.14Z"/>
          <path class="cls-2" d="M521.95,337.37c0,5.03-3.47,7.96-8.74,7.96-4.05,0-6.87-1.53-8.23-4.04l2.89-2.14c1.26,1.97,2.65,2.99,5.34,2.99,3.2,0,5.3-2.01,5.3-5.27v-1.09c-1.29,1.36-3.23,2.11-5.81,2.11-4.32,0-8.26-3.5-8.26-8.19s3.94-8.12,8.26-8.12c2.58,0,4.52.75,5.81,2.11v-1.67h3.43v15.37ZM518.52,329.69c0-3.13-2.48-5.13-5.24-5.13-3.03,0-5.4,2.01-5.4,5.13s2.38,5.13,5.4,5.13c2.75,0,5.24-2.04,5.24-5.13Z"/>
          <path class="cls-2" d="M527.33,338.87v-24.48h3.54v24.48h-3.54Z"/>
          <path class="cls-2" d="M552.86,330.43c0,5.24-4.04,8.84-9.01,8.84s-9.08-3.6-9.08-8.84,4.08-8.8,9.08-8.8,9.01,3.57,9.01,8.8ZM549.42,330.43c0-3.5-2.69-5.78-5.58-5.78s-5.61,2.28-5.61,5.78,2.65,5.78,5.61,5.78,5.58-2.28,5.58-5.78Z"/>
          <path class="cls-2" d="M572.95,328.67v10.2h-3.57v-9.49c0-2.75-1.6-4.59-4.01-4.59-3.03,0-5.03,2.04-5.03,6.29v7.79h-3.54v-16.86h3.54v2.07c1.36-1.63,3.33-2.55,5.85-2.55,4.05,0,6.76,2.92,6.76,7.14Z"/>
          <path class="cls-2" d="M579.99,333.6c.24,2.01,2.01,2.86,4.22,2.86,2.04,0,3.33-.92,3.33-2.24,0-1.02-.71-1.67-2.28-2.01l-3.67-.75c-2.92-.65-4.59-2.21-4.59-4.59,0-3.13,2.62-5.34,6.66-5.34s6.49,2.04,7.1,4.86l-3.37.71c-.27-1.63-1.67-2.75-3.84-2.75s-2.99,1.02-2.99,2.21c0,.95.54,1.56,2.04,1.9l4.01.88c2.72.58,4.38,2.18,4.38,4.55,0,3.54-2.89,5.44-7.11,5.44-3.77,0-7-1.6-7.45-5l3.54-.75Z"/>
          <path class="cls-2" d="M226.97,372.08h-13.67c.34,3.13,2.62,5,5.1,5,1.87,0,3.77-.54,4.96-2.92l3.16.68c-1.39,3.54-4.39,5.3-8.12,5.3-4.59,0-8.6-3.54-8.6-8.87s3.98-8.94,8.74-8.94,8.26,3.47,8.43,8.53v1.22ZM213.41,369.57h9.93c-.54-2.75-2.48-4.12-4.79-4.12s-4.59,1.39-5.13,4.12Z"/>
          <path class="cls-2" d="M242.1,378.85c-1.6.95-2.75,1.29-4.18,1.29-3.64,0-6.09-2.04-6.09-6.22v-8.19h-3.64v-2.92h3.64v-5.24h3.54v5.24h5.78v2.92h-5.78v7.96c0,2.11,1.12,3.13,2.79,3.13.88,0,1.97-.34,2.86-.92l1.09,2.96Z"/>
          <path class="cls-2" d="M269.84,379.66h-3.54v-1.94c-1.46,1.53-3.57,2.41-6.12,2.41-4.42,0-8.36-3.57-8.36-8.91s3.94-8.91,8.36-8.91c2.55,0,4.66.88,6.12,2.41v-1.94h3.54v16.86ZM266.31,371.23c0-3.54-2.75-5.78-5.54-5.78-3.09,0-5.51,2.24-5.51,5.78s2.41,5.78,5.51,5.78c2.79,0,5.54-2.21,5.54-5.78Z"/>
          <path class="cls-2" d="M290.92,379.66h-3.54v-2.07c-1.36,1.63-3.33,2.55-5.81,2.55-4.08,0-6.77-2.92-6.77-7.17v-10.16h3.54v9.45c0,2.75,1.6,4.62,4.05,4.62,3.03,0,5-2.04,5-6.29v-7.79h3.54v16.86Z"/>
          <path class="cls-2" d="M307.52,378.85c-1.6.95-2.75,1.29-4.18,1.29-3.64,0-6.08-2.04-6.08-6.22v-8.19h-3.64v-2.92h3.64v-5.24h3.54v5.24h5.78v2.92h-5.78v7.96c0,2.11,1.12,3.13,2.79,3.13.88,0,1.97-.34,2.86-.92l1.09,2.96Z"/>
          <path class="cls-2" d="M321.52,362.73l-.24,3.4c-.27-.04-.68-.04-.99-.04-4.28,0-6.39,2.99-6.39,7.62v5.95h-3.54v-16.86h3.54v3.6c1.36-2.24,3.5-3.81,6.43-3.81.41,0,.75,0,1.19.14Z"/>
          <path class="cls-2" d="M340.05,372.08h-13.67c.34,3.13,2.62,5,5.1,5,1.87,0,3.77-.54,4.96-2.92l3.16.68c-1.39,3.54-4.39,5.3-8.12,5.3-4.59,0-8.6-3.54-8.6-8.87s3.98-8.94,8.74-8.94,8.26,3.47,8.43,8.53v1.22ZM326.49,369.57h9.93c-.54-2.75-2.48-4.12-4.79-4.12s-4.59,1.39-5.13,4.12Z"/>
          <path class="cls-2" d="M346.07,374.4c.24,2.01,2.01,2.86,4.22,2.86,2.04,0,3.33-.92,3.33-2.24,0-1.02-.71-1.67-2.28-2.01l-3.67-.75c-2.92-.65-4.59-2.21-4.59-4.59,0-3.13,2.62-5.34,6.66-5.34s6.49,2.04,7.11,4.86l-3.37.71c-.27-1.63-1.67-2.75-3.84-2.75s-2.99,1.02-2.99,2.21c0,.95.54,1.56,2.04,1.9l4.01.88c2.72.58,4.39,2.18,4.39,4.55,0,3.54-2.89,5.44-7.11,5.44-3.77,0-7-1.6-7.45-5l3.54-.75Z"/>
          <path class="cls-2" d="M380.65,362.73l-.24,3.4c-.27-.04-.68-.04-.99-.04-4.28,0-6.39,2.99-6.39,7.62v5.95h-3.54v-16.86h3.54v3.6c1.36-2.24,3.5-3.81,6.43-3.81.41,0,.75,0,1.19.14Z"/>
          <path class="cls-2" d="M399.18,372.08h-13.67c.34,3.13,2.62,5,5.1,5,1.87,0,3.77-.54,4.96-2.92l3.16.68c-1.39,3.54-4.39,5.3-8.12,5.3-4.59,0-8.6-3.54-8.6-8.87s3.98-8.94,8.74-8.94,8.26,3.47,8.43,8.53v1.22ZM385.62,369.57h9.93c-.54-2.75-2.48-4.12-4.79-4.12s-4.59,1.39-5.13,4.12Z"/>
          <path class="cls-2" d="M405.2,374.4c.24,2.01,2.01,2.86,4.22,2.86,2.04,0,3.33-.92,3.33-2.24,0-1.02-.71-1.67-2.28-2.01l-3.67-.75c-2.92-.65-4.59-2.21-4.59-4.59,0-3.13,2.62-5.34,6.66-5.34s6.49,2.04,7.1,4.86l-3.37.71c-.27-1.63-1.67-2.75-3.84-2.75s-2.99,1.02-2.99,2.21c0,.95.54,1.56,2.04,1.9l4.01.88c2.72.58,4.38,2.18,4.38,4.55,0,3.54-2.89,5.44-7.11,5.44-3.77,0-7-1.6-7.45-5l3.54-.75Z"/>
          <path class="cls-2" d="M431.45,378.85c-1.6.95-2.75,1.29-4.18,1.29-3.64,0-6.08-2.04-6.08-6.22v-8.19h-3.64v-2.92h3.64v-5.24h3.54v5.24h5.78v2.92h-5.78v7.96c0,2.11,1.12,3.13,2.79,3.13.88,0,1.97-.34,2.86-.92l1.09,2.96Z"/>
          <path class="cls-2" d="M449.57,372.08h-13.67c.34,3.13,2.62,5,5.1,5,1.87,0,3.77-.54,4.96-2.92l3.16.68c-1.39,3.54-4.39,5.3-8.12,5.3-4.59,0-8.6-3.54-8.6-8.87s3.98-8.94,8.74-8.94,8.26,3.47,8.43,8.53v1.22ZM436,369.57h9.93c-.54-2.75-2.48-4.12-4.79-4.12s-4.59,1.39-5.13,4.12Z"/>
          <path class="cls-2" d="M455.59,374.4c.24,2.01,2.01,2.86,4.22,2.86,2.04,0,3.33-.92,3.33-2.24,0-1.02-.71-1.67-2.28-2.01l-3.67-.75c-2.92-.65-4.59-2.21-4.59-4.59,0-3.13,2.62-5.34,6.66-5.34s6.49,2.04,7.11,4.86l-3.37.71c-.27-1.63-1.67-2.75-3.84-2.75s-2.99,1.02-2.99,2.21c0,.95.54,1.56,2.04,1.9l4.01.88c2.72.58,4.39,2.18,4.39,4.55,0,3.54-2.89,5.44-7.11,5.44-3.77,0-7-1.6-7.45-5l3.54-.75Z"/>
          <path class="cls-2" d="M495.5,379.66h-3.54v-1.94c-1.46,1.53-3.57,2.41-6.12,2.41-4.42,0-8.36-3.57-8.36-8.91s3.94-8.91,8.36-8.91c2.55,0,4.66.88,6.12,2.41v-1.94h3.54v16.86ZM491.96,371.23c0-3.54-2.75-5.78-5.54-5.78-3.09,0-5.51,2.24-5.51,5.78s2.41,5.78,5.51,5.78c2.79,0,5.54-2.21,5.54-5.78Z"/>
          <path class="cls-2" d="M517.02,369.47v10.2h-3.57v-9.48c0-2.75-1.6-4.59-4.01-4.59-3.03,0-5.03,2.04-5.03,6.29v7.79h-3.54v-16.86h3.54v2.07c1.36-1.63,3.33-2.55,5.85-2.55,4.05,0,6.76,2.92,6.76,7.14Z"/>
          <path class="cls-2" d="M526.24,357.74c0,1.26-.95,2.18-2.24,2.18s-2.28-.92-2.28-2.18c0-1.19.95-2.21,2.28-2.21s2.24,1.02,2.24,2.21ZM522.23,379.66v-16.86h3.54v16.86h-3.54Z"/>
          <path class="cls-2" d="M558.6,368.92v10.74h-3.5v-10.03c0-2.48-1.63-4.04-3.81-4.04-2.75,0-4.55,1.94-4.55,5.71v8.36h-3.54v-10.03c0-2.48-1.63-4.04-3.81-4.04-2.72,0-4.49,1.94-4.49,5.71v8.36h-3.54v-16.86h3.54v1.9c1.22-1.5,2.99-2.38,5.41-2.38s4.52,1.12,5.61,3.09c1.36-1.9,3.5-3.09,6.29-3.09,3.5,0,6.39,2.62,6.39,6.6Z"/>
          <path class="cls-2" d="M580.09,379.66h-3.54v-1.94c-1.46,1.53-3.57,2.41-6.12,2.41-4.42,0-8.36-3.57-8.36-8.91s3.94-8.91,8.36-8.91c2.55,0,4.66.88,6.12,2.41v-1.94h3.54v16.86ZM576.56,371.23c0-3.54-2.75-5.78-5.54-5.78-3.09,0-5.51,2.24-5.51,5.78s2.41,5.78,5.51,5.78c2.79,0,5.54-2.21,5.54-5.78Z"/>
          <path class="cls-2" d="M601.17,379.66h-3.54v-2.07c-1.36,1.63-3.33,2.55-5.81,2.55-4.08,0-6.77-2.92-6.77-7.17v-10.16h3.54v9.45c0,2.75,1.6,4.62,4.05,4.62,3.03,0,5-2.04,5-6.29v-7.79h3.54v16.86Z"/>
          <path class="cls-2" d="M622.45,379.66h-4.25l-4.42-6.08-4.42,6.08h-4.22l6.05-8.26-6.05-8.64h4.22l4.42,6.39,4.42-6.39h4.25l-6.05,8.64,6.05,8.26Z"/>
          <path class="cls-2" d="M629.7,377.63c0,1.22-.92,2.18-2.21,2.18s-2.24-.95-2.24-2.18c0-1.16.95-2.14,2.24-2.14s2.21.99,2.21,2.14Z"/>
        </g>
      </g>
    </g>
  </g>
</svg>