<?xml version="1.0" encoding="UTF-8"?>
<svg id="_Слой_2" data-name="Слой 2" xmlns="http://www.w3.org/2000/svg" viewBox="0 0 1285.4 594.49">
  <defs>
    <style>
      .cls-1 {
        fill: #fff;
      }

      .cls-1, .cls-2 {
        stroke-width: 0px;
      }

      .cls-2 {
        fill: rgba(252, 215, 184, .95);
      }
    </style>
  </defs>
  <g id="Calque_1" data-name="Calque 1">
    <g>
      <rect class="cls-2" width="1285.4" height="594.49" rx="44.38" ry="44.38"/>
      <g>
        <path class="cls-1" d="M468.38,293.9c2.75.35,5.85,3.05,5.85,7.8,0,5.45-3.35,9.3-10.8,9.3h-16.55v-33.5h16.5c6.05,0,9.9,3.7,9.9,9.3,0,4.25-2.9,6.55-4.9,6.9v.2ZM453.68,291.5h8.5c2.7,0,4.5-1.7,4.5-4.3,0-2.35-1.85-3.9-4.05-3.9h-8.95v8.2ZM462.68,305.2c3.05,0,4.6-1.65,4.6-4.15s-1.8-4.15-4.35-4.15h-9.25v8.3h9Z"/>
        <path class="cls-1" d="M504.88,298.55c0,7.85-6.15,13.1-13.45,13.1s-13.6-5.25-13.6-13.1,6.15-13.1,13.6-13.1,13.45,5.25,13.45,13.1ZM498.48,298.55c0-4.65-3.6-7.45-7.05-7.45s-7.2,2.8-7.2,7.45,3.6,7.45,7.2,7.45,7.05-2.8,7.05-7.45Z"/>
        <path class="cls-1" d="M519.83,319.5h-7.35l4-9.3-10.35-24.2h7.35l6.6,15.95,6.9-15.95h7.35l-14.5,33.5Z"/>
        <path class="cls-1" d="M562.68,311h-6.6v-1.95c-2.1,1.7-4.85,2.7-8.25,2.7-6.35,0-12.25-5.35-12.25-13.2s5.9-13.25,12.25-13.25c3.4,0,6.15,1,8.25,2.75v-2h6.6v24.95ZM556.08,298.55c0-4.6-3.55-7.5-7.1-7.5-4,0-7,2.9-7,7.5s3,7.45,7,7.45c3.55,0,7.1-2.85,7.1-7.45Z"/>
        <path class="cls-1" d="M593.48,311h-6.6v-2.25c-1.95,1.95-4.55,3-7.85,3-6,0-10-4.3-10-10.5v-15.2h6.6v13.8c0,3.5,2,5.85,5.05,5.85,3.75,0,6.2-2.5,6.2-8.6v-11.05h6.6v24.95Z"/>
        <path class="cls-1" d="M625.03,311h-7.85l-5.45-7.9-5.4,7.9h-7.85l8.4-12.15-8.4-12.85h7.85l5.4,8.4,5.45-8.4h7.85l-8.4,12.85,8.4,12.15Z"/>
        <path class="cls-1" d="M667.28,311h-6.6v-1.95c-2.1,1.7-4.85,2.7-8.25,2.7-6.35,0-12.25-5.35-12.25-13.2s5.9-13.25,12.25-13.25c3.4,0,6.15,1,8.25,2.75v-13.05h6.6v36ZM660.68,298.55c0-4.6-3.55-7.5-7.1-7.5-4,0-7,2.9-7,7.5s3,7.45,7,7.45c3.55,0,7.1-2.85,7.1-7.45Z"/>
        <path class="cls-1" d="M697.83,300.3h-19c.65,3.6,3.2,5.8,6.25,5.8,1.95,0,4.4-.25,6.2-3.3l5.9,1.25c-2.2,5.2-6.65,7.7-12.1,7.7-7.05,0-12.8-5.35-12.8-13.2s5.75-13.25,12.9-13.25c6.65,0,12.4,5.15,12.65,12.75v2.25ZM679.03,295.65h12.05c-.85-3.2-3.25-4.6-5.9-4.6-2.5,0-5.35,1.5-6.15,4.6Z"/>
        <path class="cls-1" d="M742.08,298.55c0,7.85-5.9,13.2-12.25,13.2-3.4,0-6.15-1-8.25-2.7v1.95h-6.6v-36h6.6v13.05c2.1-1.75,4.85-2.75,8.25-2.75,6.35,0,12.25,5.4,12.25,13.25ZM735.68,298.55c0-4.6-3-7.5-7-7.5-3.55,0-7.1,2.9-7.1,7.5s3.55,7.45,7.1,7.45c4,0,7-2.85,7-7.45Z"/>
        <path class="cls-1" d="M791.28,300.3h-19c.65,3.6,3.2,5.8,6.25,5.8,1.95,0,4.4-.25,6.2-3.3l5.9,1.25c-2.2,5.2-6.65,7.7-12.1,7.7-3.9,0-7.35-1.6-9.7-4.4-2.5,2.75-6.15,4.3-10.15,4.3-7.45,0-13.6-5.25-13.6-13.1s6.15-13.1,13.6-13.1c4,0,7.65,1.55,10.15,4.3,2.35-2.8,5.85-4.45,9.8-4.45,6.65,0,12.4,5.15,12.65,12.75v2.25ZM765.73,298.55c0-4.65-3.6-7.45-7.05-7.45s-7.2,2.8-7.2,7.45,3.6,7.45,7.2,7.45,7.05-2.8,7.05-7.45ZM772.48,295.65h12.05c-.85-3.2-3.25-4.6-5.9-4.6-2.5,0-5.35,1.5-6.15,4.6Z"/>
        <path class="cls-1" d="M820.08,311h-6.6v-2.25c-1.95,1.95-4.55,3-7.85,3-6,0-10-4.3-10-10.5v-15.2h6.6v13.8c0,3.5,2,5.85,5.05,5.85,3.75,0,6.2-2.5,6.2-8.6v-11.05h6.6v24.95Z"/>
        <path class="cls-1" d="M842.53,286.05v5.4h-7.55v19.55h-6.6v-19.55h-3.8v-5.4h3.8v-2.25c0-5.85,4-9.45,9.85-9.45,1.6,0,3.05.3,4.45.95l-1.5,5.35c-.9-.3-1.8-.45-2.5-.45-2.15,0-3.7,1.25-3.7,3.6v2.25h7.55Z"/>
      </g>
    </g>
  </g>
</svg>