<?xml version="1.0" encoding="UTF-8"?>
<svg id="_Слой_2" data-name="Слой 2" xmlns="http://www.w3.org/2000/svg" viewBox="0 0 1284.67 594.49">
  <defs>
    <style>
      .cls-1 {
        fill: rgba(38, 71, 145, .95);
      }

      .cls-1, .cls-2 {
        stroke-width: 0px;
      }

      .cls-2 {
        fill: #fff;
      }
    </style>
  </defs>
  <g id="Calque_1" data-name="Calque 1">
    <g>
      <rect class="cls-1" width="1284.67" height="594.49" rx="44.38" ry="44.38"/>
      <g>
        <path class="cls-2" d="M612.71,284.07l-6.8,1.4c-.5-3.15-3.25-5.2-6.6-5.2s-5.45,1.9-5.45,4.15c0,1.7.75,2.9,3.35,3.4l7.2,1.45c5.45,1.15,8.8,4.4,8.8,9.6,0,6.5-5.35,10.55-13.3,10.55-7,0-13.15-3.25-14-9.95l7.15-1.45c.9,3.8,3.7,5.45,7.5,5.45s5.95-1.85,5.95-4.25c0-1.9-.9-3.05-3.9-3.65l-7.1-1.35c-4-.85-8.8-3.05-8.8-9.6,0-6,4.9-10.2,12.75-10.2,6.8,0,11.95,3.7,13.25,9.65Z"/>
        <path class="cls-2" d="M642.51,308.67h-6.6v-2.25c-1.95,1.95-4.55,3-7.85,3-6,0-10-4.3-10-10.5v-15.2h6.6v13.8c0,3.5,2,5.85,5.05,5.85,3.75,0,6.2-2.5,6.2-8.6v-11.05h6.6v24.95Z"/>
        <path class="cls-2" d="M657.16,276.27c0,2.2-1.7,3.85-4,3.85s-4-1.65-4-3.85,1.65-3.95,4-3.95,4,1.85,4,3.95ZM649.86,308.67v-24.95h6.6v24.95h-6.6Z"/>
        <path class="cls-2" d="M679.26,283.72v5.4h-7.55v19.55h-6.6v-19.55h-3.8v-5.4h3.8v-2.25c0-5.85,4-9.45,9.85-9.45,1.6,0,3.05.3,4.45.95l-1.5,5.35c-.9-.3-1.8-.45-2.5-.45-2.15,0-3.7,1.25-3.7,3.6v2.25h7.55Z"/>
        <path class="cls-2" d="M686.81,300.72c.35,2.55,2.55,3.4,5.15,3.4,2.45,0,3.9-1.1,3.9-2.5,0-.9-.6-1.8-2.75-2.25l-5.1-1.05c-4.5-.95-7.05-3.5-7.05-7.1,0-4.8,3.9-8.25,10.2-8.25,5.9,0,10,3.05,10.85,7.4l-6.3,1.25c-.25-2-2-3.45-4.75-3.45s-3.4,1.3-3.4,2.45c0,.8.3,1.65,2.25,2.1l5.95,1.3c4.4.95,6.55,3.7,6.55,7.05,0,5.5-4.45,8.35-10.95,8.35-5.5,0-10.55-2.15-11.2-7.35l6.65-1.35Z"/>
      </g>
      <g>
        <path class="cls-2" d="M499.71,366.01v-22.78h2.69v22.78h-2.69Z"/>
        <path class="cls-2" d="M509.5,360.91c.24,2.21,2.28,3.4,4.93,3.4,2.41,0,4.01-1.12,4.01-2.86,0-1.39-1.05-2.04-2.75-2.41l-3.84-.85c-2.79-.58-4.35-1.97-4.35-4.28,0-3.03,2.52-5.07,6.36-5.07s6.22,1.94,6.83,4.66l-2.48.54c-.34-1.84-1.94-3.09-4.42-3.09s-3.71,1.16-3.71,2.75c0,1.33.92,1.94,2.55,2.31l4.05.88c2.45.54,4.32,1.84,4.32,4.39,0,3.3-2.75,5.17-6.77,5.17s-6.9-1.7-7.31-4.96l2.58-.58Z"/>
        <path class="cls-2" d="M526.36,360.91c.24,2.21,2.28,3.4,4.93,3.4,2.41,0,4.01-1.12,4.01-2.86,0-1.39-1.05-2.04-2.75-2.41l-3.84-.85c-2.79-.58-4.35-1.97-4.35-4.28,0-3.03,2.52-5.07,6.36-5.07s6.22,1.94,6.83,4.66l-2.48.54c-.34-1.84-1.94-3.09-4.42-3.09s-3.71,1.16-3.71,2.75c0,1.33.92,1.94,2.55,2.31l4.04.88c2.45.54,4.32,1.84,4.32,4.39,0,3.3-2.75,5.17-6.76,5.17s-6.9-1.7-7.31-4.96l2.58-.58Z"/>
        <path class="cls-2" d="M557.51,365.97h-2.62v-2.72c-1.36,2.01-3.54,3.16-6.32,3.16-4.05,0-6.73-2.89-6.73-7.14v-10.03h2.62v9.55c0,3.13,1.83,5.2,4.62,5.2,3.5,0,5.81-2.35,5.81-6.7v-8.06h2.62v16.73Z"/>
        <path class="cls-2" d="M564.34,360.91c.24,2.21,2.28,3.4,4.93,3.4,2.41,0,4.01-1.12,4.01-2.86,0-1.39-1.05-2.04-2.75-2.41l-3.84-.85c-2.79-.58-4.35-1.97-4.35-4.28,0-3.03,2.52-5.07,6.36-5.07s6.22,1.94,6.83,4.66l-2.48.54c-.34-1.84-1.94-3.09-4.42-3.09s-3.71,1.16-3.71,2.75c0,1.33.92,1.94,2.55,2.31l4.04.88c2.45.54,4.32,1.84,4.32,4.39,0,3.3-2.75,5.17-6.76,5.17s-6.9-1.7-7.31-4.96l2.58-.58Z"/>
        <path class="cls-2" d="M605.04,366.01h-2.58v-2.65c-1.5,1.97-3.88,3.09-6.66,3.09-4.45,0-8.36-3.5-8.36-8.81s3.91-8.8,8.36-8.8c2.79,0,5.17,1.12,6.66,3.09v-10.4h2.58v24.48ZM602.45,357.65c0-4.01-3.09-6.53-6.26-6.53-3.47,0-6.25,2.52-6.25,6.53s2.79,6.49,6.25,6.49c3.16,0,6.26-2.52,6.26-6.49Z"/>
        <path class="cls-2" d="M626.39,358.16h-14.38c.24,3.77,3.09,6.02,5.98,6.02,2.38,0,4.52-.92,5.71-3.6l2.31.54c-1.33,3.5-4.25,5.34-8.02,5.34-4.45,0-8.5-3.43-8.5-8.77s4.04-8.84,8.67-8.84,8.06,3.37,8.23,8.36v.95ZM612.11,356.22h11.66c-.48-3.3-2.82-5.1-5.61-5.1s-5.54,1.8-6.05,5.1Z"/>
        <path class="cls-2" d="M632,360.91c.24,2.21,2.28,3.4,4.93,3.4,2.41,0,4.01-1.12,4.01-2.86,0-1.39-1.05-2.04-2.75-2.41l-3.84-.85c-2.79-.58-4.35-1.97-4.35-4.28,0-3.03,2.52-5.07,6.36-5.07s6.22,1.94,6.83,4.66l-2.48.54c-.34-1.84-1.94-3.09-4.42-3.09s-3.71,1.16-3.71,2.75c0,1.33.92,1.94,2.55,2.31l4.05.88c2.45.54,4.32,1.84,4.32,4.39,0,3.3-2.75,5.17-6.77,5.17s-6.9-1.7-7.31-4.96l2.58-.58Z"/>
        <path class="cls-2" d="M672.19,364.65c-.03,4.89-3.37,7.82-8.43,7.82-4.15,0-6.9-1.63-8.19-4.35l2.18-1.5c1.19,2.24,2.89,3.5,6.02,3.5,3.54,0,5.88-2.24,5.88-5.81v-2.04c-1.36,1.77-3.5,2.75-6.29,2.75-4.42,0-8.26-3.37-8.26-8.12s3.84-8.06,8.26-8.06c2.79,0,4.93.99,6.29,2.72v-2.31h2.52l.03,15.4ZM669.64,356.9c0-3.57-2.79-5.81-5.92-5.81-3.4,0-6.12,2.24-6.12,5.81s2.72,5.88,6.12,5.88c3.13,0,5.92-2.31,5.92-5.88Z"/>
        <path class="cls-2" d="M688.68,349.21l-.2,2.48c-.31-.03-.68-.03-.99-.03-4.45,0-6.73,3.37-6.73,7.89v6.46h-2.62v-16.76h2.62v4.11c1.36-2.48,3.64-4.28,6.73-4.28.41,0,.71,0,1.19.14Z"/>
        <path class="cls-2" d="M707.62,366.01h-2.58v-2.65c-1.5,1.97-3.88,3.09-6.66,3.09-4.45,0-8.36-3.5-8.36-8.81s3.91-8.8,8.36-8.8c2.79,0,5.17,1.12,6.66,3.09v-2.69h2.58v16.76ZM705.03,357.65c0-4.01-3.09-6.53-6.25-6.53-3.47,0-6.26,2.52-6.26,6.53s2.79,6.49,6.26,6.49c3.16,0,6.25-2.52,6.25-6.49Z"/>
        <path class="cls-2" d="M716.97,344.18c0,.99-.78,1.73-1.8,1.73s-1.77-.75-1.77-1.73c0-.92.75-1.73,1.77-1.73s1.8.82,1.8,1.73ZM713.87,366.01v-16.76h2.62v16.76h-2.62Z"/>
        <path class="cls-2" d="M723.9,360.91c.24,2.21,2.28,3.4,4.93,3.4,2.41,0,4.01-1.12,4.01-2.86,0-1.39-1.05-2.04-2.75-2.41l-3.84-.85c-2.79-.58-4.35-1.97-4.35-4.28,0-3.03,2.52-5.07,6.36-5.07s6.22,1.94,6.83,4.66l-2.48.54c-.34-1.84-1.94-3.09-4.42-3.09s-3.71,1.16-3.71,2.75c0,1.33.92,1.94,2.55,2.31l4.04.88c2.45.54,4.32,1.84,4.32,4.39,0,3.3-2.75,5.17-6.77,5.17s-6.9-1.7-7.31-4.96l2.58-.58Z"/>
        <path class="cls-2" d="M740.77,360.91c.24,2.21,2.28,3.4,4.93,3.4,2.41,0,4.01-1.12,4.01-2.86,0-1.39-1.05-2.04-2.75-2.41l-3.84-.85c-2.79-.58-4.35-1.97-4.35-4.28,0-3.03,2.52-5.07,6.36-5.07s6.22,1.94,6.83,4.66l-2.48.54c-.34-1.84-1.94-3.09-4.42-3.09s-3.71,1.16-3.71,2.75c0,1.33.92,1.94,2.55,2.31l4.05.88c2.45.54,4.32,1.84,4.32,4.39,0,3.3-2.75,5.17-6.77,5.17s-6.9-1.7-7.31-4.96l2.58-.58Z"/>
        <path class="cls-2" d="M772.18,358.16h-14.38c.24,3.77,3.09,6.02,5.98,6.02,2.38,0,4.52-.92,5.71-3.6l2.31.54c-1.33,3.5-4.25,5.34-8.02,5.34-4.45,0-8.5-3.43-8.5-8.77s4.05-8.84,8.67-8.84,8.06,3.37,8.23,8.36v.95ZM757.9,356.22h11.66c-.48-3.3-2.82-5.1-5.61-5.1s-5.54,1.8-6.05,5.1Z"/>
        <path class="cls-2" d="M777.79,360.91c.24,2.21,2.28,3.4,4.93,3.4,2.41,0,4.01-1.12,4.01-2.86,0-1.39-1.05-2.04-2.75-2.41l-3.84-.85c-2.79-.58-4.35-1.97-4.35-4.28,0-3.03,2.52-5.07,6.36-5.07s6.22,1.94,6.83,4.66l-2.48.54c-.34-1.84-1.94-3.09-4.42-3.09s-3.71,1.16-3.71,2.75c0,1.33.92,1.94,2.55,2.31l4.04.88c2.45.54,4.32,1.84,4.32,4.39,0,3.3-2.75,5.17-6.76,5.17s-6.9-1.7-7.31-4.96l2.58-.58Z"/>
      </g>
    </g>
  </g>
</svg>