<?xml version="1.0" encoding="UTF-8"?>
<svg id="_Слой_2" data-name="Слой 2" xmlns="http://www.w3.org/2000/svg" viewBox="0 0 1285.4 594.49">
  <defs>
    <style>
      .cls-1 {
        fill: rgba(244, 152, 23, .95);
      }

      .cls-1, .cls-2 {
        stroke-width: 0px;
      }

      .cls-2 {
        fill: #fff;
      }
    </style>
  </defs>
  <g id="Calque_1" data-name="Calque 1">
    <g>
      <rect class="cls-1" width="1285.4" height="594.49" rx="44.38" ry="44.38"/>
      <g>
        <path class="cls-2" d="M443.02,291.09h16.25v6.15h-16.25v13h-6.8v-33.5h25v6.15h-18.2v8.2Z"/>
        <path class="cls-2" d="M490.32,310.24h-6.6v-1.95c-2.1,1.7-4.85,2.7-8.25,2.7-6.35,0-12.25-5.35-12.25-13.2s5.9-13.25,12.25-13.25c3.4,0,6.15,1,8.25,2.75v-2h6.6v24.95ZM483.72,297.79c0-4.6-3.55-7.5-7.1-7.5-4,0-7,2.9-7,7.5s3,7.45,7,7.45c3.55,0,7.1-2.85,7.1-7.45Z"/>
        <path class="cls-2" d="M514.62,285.14l-.35,6.35h-1.45c-6.1,0-8.9,3.75-8.9,10.7v8.05h-6.6v-24.95h6.6v4.55c2-2.9,4.9-4.9,8.95-4.9.65,0,1.15,0,1.75.2Z"/>
        <path class="cls-2" d="M526.42,277.84c0,2.2-1.7,3.85-4,3.85s-4-1.65-4-3.85,1.65-3.95,4-3.95,4,1.85,4,3.95ZM519.12,310.24v-24.95h6.6v24.95h-6.6Z"/>
        <path class="cls-2" d="M557.52,295.04v15.2h-6.6v-13.8c0-3.5-2-5.85-5.05-5.85-3.75,0-6.2,2.5-6.2,8.6v11.05h-6.6v-24.95h6.6v2.25c1.95-1.95,4.55-3,7.85-3,6,0,10,4.3,10,10.5Z"/>
        <path class="cls-2" d="M587.42,299.54h-19c.65,3.6,3.2,5.8,6.25,5.8,1.95,0,4.4-.25,6.2-3.3l5.9,1.25c-2.2,5.2-6.65,7.7-12.1,7.7-7.05,0-12.8-5.35-12.8-13.2s5.75-13.25,12.9-13.25c6.65,0,12.4,5.15,12.65,12.75v2.25ZM568.62,294.89h12.05c-.85-3.2-3.25-4.6-5.9-4.6-2.5,0-5.35,1.5-6.15,4.6Z"/>
        <path class="cls-2" d="M596.97,302.29c.35,2.55,2.55,3.4,5.15,3.4,2.45,0,3.9-1.1,3.9-2.5,0-.9-.6-1.8-2.75-2.25l-5.1-1.05c-4.5-.95-7.05-3.5-7.05-7.1,0-4.8,3.9-8.25,10.2-8.25,5.9,0,10,3.05,10.85,7.4l-6.3,1.25c-.25-2-2-3.45-4.75-3.45s-3.4,1.3-3.4,2.45c0,.8.3,1.65,2.25,2.1l5.95,1.3c4.4.95,6.55,3.7,6.55,7.05,0,5.5-4.45,8.35-10.95,8.35-5.5,0-10.55-2.15-11.2-7.35l6.65-1.35Z"/>
        <path class="cls-2" d="M654.82,310.24h-6.6v-1.95c-2.1,1.7-4.85,2.7-8.25,2.7-6.35,0-12.25-5.35-12.25-13.2s5.9-13.25,12.25-13.25c3.4,0,6.15,1,8.25,2.75v-2h6.6v24.95ZM648.22,297.79c0-4.6-3.55-7.5-7.1-7.5-4,0-7,2.9-7,7.5s3,7.45,7,7.45c3.55,0,7.1-2.85,7.1-7.45Z"/>
        <path class="cls-2" d="M686.27,295.04v15.2h-6.6v-13.8c0-3.5-2-5.85-5.05-5.85-3.75,0-6.2,2.5-6.2,8.6v11.05h-6.6v-24.95h6.6v2.25c1.95-1.95,4.55-3,7.85-3,6,0,10,4.3,10,10.5Z"/>
        <path class="cls-2" d="M700.27,277.84c0,2.2-1.7,3.85-4,3.85s-4-1.65-4-3.85,1.65-3.95,4-3.95,4,1.85,4,3.95ZM692.97,310.24v-24.95h6.6v24.95h-6.6Z"/>
        <path class="cls-2" d="M747.97,294.64v15.6h-6.55v-14.25c0-3.35-2.15-5.4-4.9-5.4-3.5,0-5.8,2.4-5.8,7.65v12h-6.6v-14.25c0-3.35-2.15-5.4-4.9-5.4-3.5,0-5.7,2.4-5.7,7.65v12h-6.6v-24.95h6.6v2.05c1.75-1.75,4.2-2.8,7.45-2.8s6.4,1.45,8.2,4.1c2.05-2.55,5.1-4.1,9.1-4.1,5.2,0,9.7,4,9.7,10.1Z"/>
        <path class="cls-2" d="M779.47,310.24h-6.6v-1.95c-2.1,1.7-4.85,2.7-8.25,2.7-6.35,0-12.25-5.35-12.25-13.2s5.9-13.25,12.25-13.25c3.4,0,6.15,1,8.25,2.75v-2h6.6v24.95ZM772.87,297.79c0-4.6-3.55-7.5-7.1-7.5-4,0-7,2.9-7,7.5s3,7.45,7,7.45c3.55,0,7.1-2.85,7.1-7.45Z"/>
        <path class="cls-2" d="M786.47,310.24v-36h6.6v36h-6.6Z"/>
        <path class="cls-2" d="M823.62,299.54h-19c.65,3.6,3.2,5.8,6.25,5.8,1.95,0,4.4-.25,6.2-3.3l5.9,1.25c-2.2,5.2-6.65,7.7-12.1,7.7-7.05,0-12.8-5.35-12.8-13.2s5.75-13.25,12.9-13.25c6.65,0,12.4,5.15,12.65,12.75v2.25ZM804.82,294.89h12.05c-.85-3.2-3.25-4.6-5.9-4.6-2.5,0-5.35,1.5-6.15,4.6Z"/>
        <path class="cls-2" d="M833.17,302.29c.35,2.55,2.55,3.4,5.15,3.4,2.45,0,3.9-1.1,3.9-2.5,0-.9-.6-1.8-2.75-2.25l-5.1-1.05c-4.5-.95-7.05-3.5-7.05-7.1,0-4.8,3.9-8.25,10.2-8.25,5.9,0,10,3.05,10.85,7.4l-6.3,1.25c-.25-2-2-3.45-4.75-3.45s-3.4,1.3-3.4,2.45c0,.8.3,1.65,2.25,2.1l5.95,1.3c4.4.95,6.55,3.7,6.55,7.05,0,5.5-4.45,8.35-10.95,8.35-5.5,0-10.55-2.15-11.2-7.35l6.65-1.35Z"/>
      </g>
      <g>
        <path class="cls-2" d="M431.02,366.12c0,6.59-5.24,11.83-11.9,11.83s-11.86-5.24-11.86-11.83,5.2-11.9,11.86-11.9,11.9,5.27,11.9,11.9ZM427.35,366.12c0-4.83-3.6-8.47-8.23-8.47s-8.19,3.64-8.19,8.47,3.6,8.4,8.19,8.4,8.23-3.6,8.23-8.4Z"/>
        <path class="cls-2" d="M437.04,372.2c.24,2.01,2.01,2.86,4.22,2.86,2.04,0,3.33-.92,3.33-2.24,0-1.02-.71-1.67-2.28-2.01l-3.67-.75c-2.92-.65-4.59-2.21-4.59-4.59,0-3.13,2.62-5.34,6.66-5.34s6.49,2.04,7.1,4.86l-3.37.71c-.27-1.63-1.67-2.75-3.84-2.75s-2.99,1.02-2.99,2.21c0,.95.54,1.56,2.04,1.9l4.01.88c2.72.58,4.39,2.18,4.39,4.56,0,3.54-2.89,5.44-7.11,5.44-3.77,0-7-1.6-7.45-5l3.54-.75Z"/>
        <path class="cls-2" d="M476.17,369.89h-13.67c.34,3.13,2.62,5,5.1,5,1.87,0,3.77-.54,4.96-2.92l3.16.68c-1.39,3.54-4.39,5.3-8.12,5.3-4.59,0-8.6-3.54-8.6-8.87s3.98-8.94,8.74-8.94,8.26,3.47,8.43,8.53v1.22ZM462.61,367.37h9.93c-.54-2.75-2.48-4.11-4.79-4.11s-4.59,1.39-5.13,4.11Z"/>
        <path class="cls-2" d="M491.3,376.65c-1.6.95-2.75,1.29-4.18,1.29-3.64,0-6.09-2.04-6.09-6.22v-8.19h-3.64v-2.92h3.64v-5.24h3.54v5.24h5.78v2.92h-5.78v7.96c0,2.11,1.12,3.13,2.79,3.13.88,0,1.97-.34,2.86-.92l1.09,2.96Z"/>
        <path class="cls-2" d="M519.04,377.47h-3.54v-1.94c-1.46,1.53-3.57,2.41-6.12,2.41-4.42,0-8.36-3.57-8.36-8.91s3.94-8.91,8.36-8.91c2.55,0,4.66.88,6.12,2.41v-1.94h3.54v16.86ZM515.51,369.04c0-3.54-2.75-5.78-5.54-5.78-3.09,0-5.51,2.24-5.51,5.78s2.41,5.78,5.51,5.78c2.79,0,5.54-2.21,5.54-5.78Z"/>
        <path class="cls-2" d="M540.12,377.47h-3.54v-2.07c-1.36,1.63-3.33,2.55-5.81,2.55-4.08,0-6.77-2.92-6.77-7.17v-10.17h3.54v9.45c0,2.75,1.6,4.62,4.05,4.62,3.03,0,5-2.04,5-6.29v-7.79h3.54v16.86Z"/>
        <path class="cls-2" d="M556.72,376.65c-1.6.95-2.75,1.29-4.18,1.29-3.64,0-6.09-2.04-6.09-6.22v-8.19h-3.64v-2.92h3.64v-5.24h3.54v5.24h5.78v2.92h-5.78v7.96c0,2.11,1.12,3.13,2.79,3.13.88,0,1.97-.34,2.86-.92l1.09,2.96Z"/>
        <path class="cls-2" d="M570.72,360.54l-.24,3.4c-.27-.03-.68-.03-.99-.03-4.28,0-6.39,2.99-6.39,7.62v5.95h-3.54v-16.86h3.54v3.6c1.36-2.24,3.5-3.81,6.43-3.81.41,0,.75,0,1.19.14Z"/>
        <path class="cls-2" d="M589.25,369.89h-13.67c.34,3.13,2.62,5,5.1,5,1.87,0,3.77-.54,4.96-2.92l3.16.68c-1.39,3.54-4.39,5.3-8.12,5.3-4.59,0-8.6-3.54-8.6-8.87s3.98-8.94,8.74-8.94,8.26,3.47,8.43,8.53v1.22ZM575.69,367.37h9.93c-.54-2.75-2.48-4.11-4.79-4.11s-4.59,1.39-5.13,4.11Z"/>
        <path class="cls-2" d="M595.27,372.2c.24,2.01,2.01,2.86,4.22,2.86,2.04,0,3.33-.92,3.33-2.24,0-1.02-.71-1.67-2.28-2.01l-3.67-.75c-2.92-.65-4.59-2.21-4.59-4.59,0-3.13,2.62-5.34,6.66-5.34s6.49,2.04,7.1,4.86l-3.37.71c-.27-1.63-1.67-2.75-3.84-2.75s-2.99,1.02-2.99,2.21c0,.95.54,1.56,2.04,1.9l4.01.88c2.72.58,4.39,2.18,4.39,4.56,0,3.54-2.89,5.44-7.11,5.44-3.77,0-7-1.6-7.45-5l3.54-.75Z"/>
        <path class="cls-2" d="M629.85,360.54l-.24,3.4c-.27-.03-.68-.03-.99-.03-4.28,0-6.39,2.99-6.39,7.62v5.95h-3.54v-16.86h3.54v3.6c1.36-2.24,3.5-3.81,6.43-3.81.41,0,.75,0,1.19.14Z"/>
        <path class="cls-2" d="M648.38,369.89h-13.67c.34,3.13,2.62,5,5.1,5,1.87,0,3.77-.54,4.96-2.92l3.16.68c-1.39,3.54-4.39,5.3-8.12,5.3-4.59,0-8.6-3.54-8.6-8.87s3.98-8.94,8.74-8.94,8.26,3.47,8.43,8.53v1.22ZM634.82,367.37h9.93c-.54-2.75-2.48-4.11-4.79-4.11s-4.59,1.39-5.13,4.11Z"/>
        <path class="cls-2" d="M654.4,372.2c.24,2.01,2.01,2.86,4.22,2.86,2.04,0,3.33-.92,3.33-2.24,0-1.02-.71-1.67-2.28-2.01l-3.67-.75c-2.92-.65-4.59-2.21-4.59-4.59,0-3.13,2.62-5.34,6.66-5.34s6.49,2.04,7.1,4.86l-3.37.71c-.27-1.63-1.67-2.75-3.84-2.75s-2.99,1.02-2.99,2.21c0,.95.54,1.56,2.04,1.9l4.01.88c2.72.58,4.39,2.18,4.39,4.56,0,3.54-2.89,5.44-7.11,5.44-3.77,0-7-1.6-7.45-5l3.54-.75Z"/>
        <path class="cls-2" d="M680.65,376.65c-1.6.95-2.75,1.29-4.18,1.29-3.64,0-6.09-2.04-6.09-6.22v-8.19h-3.64v-2.92h3.64v-5.24h3.54v5.24h5.78v2.92h-5.78v7.96c0,2.11,1.12,3.13,2.79,3.13.88,0,1.97-.34,2.86-.92l1.09,2.96Z"/>
        <path class="cls-2" d="M698.77,369.89h-13.67c.34,3.13,2.62,5,5.1,5,1.87,0,3.77-.54,4.96-2.92l3.16.68c-1.39,3.54-4.39,5.3-8.12,5.3-4.59,0-8.6-3.54-8.6-8.87s3.98-8.94,8.74-8.94,8.26,3.47,8.43,8.53v1.22ZM685.2,367.37h9.93c-.54-2.75-2.48-4.11-4.79-4.11s-4.59,1.39-5.13,4.11Z"/>
        <path class="cls-2" d="M704.79,372.2c.24,2.01,2.01,2.86,4.22,2.86,2.04,0,3.33-.92,3.33-2.24,0-1.02-.71-1.67-2.28-2.01l-3.67-.75c-2.92-.65-4.59-2.21-4.59-4.59,0-3.13,2.62-5.34,6.66-5.34s6.49,2.04,7.1,4.86l-3.37.71c-.27-1.63-1.67-2.75-3.84-2.75s-2.99,1.02-2.99,2.21c0,.95.54,1.56,2.04,1.9l4.01.88c2.72.58,4.39,2.18,4.39,4.56,0,3.54-2.89,5.44-7.11,5.44-3.77,0-7-1.6-7.45-5l3.54-.75Z"/>
        <path class="cls-2" d="M744.7,377.47h-3.54v-1.94c-1.46,1.53-3.57,2.41-6.12,2.41-4.42,0-8.36-3.57-8.36-8.91s3.94-8.91,8.36-8.91c2.55,0,4.66.88,6.12,2.41v-1.94h3.54v16.86ZM741.17,369.04c0-3.54-2.75-5.78-5.54-5.78-3.09,0-5.51,2.24-5.51,5.78s2.41,5.78,5.51,5.78c2.79,0,5.54-2.21,5.54-5.78Z"/>
        <path class="cls-2" d="M766.22,367.27v10.2h-3.57v-9.49c0-2.75-1.6-4.59-4.01-4.59-3.03,0-5.03,2.04-5.03,6.29v7.79h-3.54v-16.86h3.54v2.07c1.36-1.63,3.33-2.55,5.85-2.55,4.05,0,6.77,2.92,6.77,7.14Z"/>
        <path class="cls-2" d="M775.44,355.54c0,1.26-.95,2.18-2.24,2.18s-2.28-.92-2.28-2.18c0-1.19.95-2.21,2.28-2.21s2.24,1.02,2.24,2.21ZM771.43,377.47v-16.86h3.54v16.86h-3.54Z"/>
        <path class="cls-2" d="M807.8,366.73v10.74h-3.5v-10.03c0-2.48-1.63-4.04-3.81-4.04-2.75,0-4.56,1.94-4.56,5.71v8.36h-3.54v-10.03c0-2.48-1.63-4.04-3.81-4.04-2.72,0-4.49,1.94-4.49,5.71v8.36h-3.54v-16.86h3.54v1.9c1.22-1.5,2.99-2.38,5.41-2.38s4.52,1.12,5.61,3.09c1.36-1.9,3.5-3.09,6.29-3.09,3.5,0,6.39,2.62,6.39,6.59Z"/>
        <path class="cls-2" d="M829.29,377.47h-3.54v-1.94c-1.46,1.53-3.57,2.41-6.12,2.41-4.42,0-8.36-3.57-8.36-8.91s3.94-8.91,8.36-8.91c2.55,0,4.66.88,6.12,2.41v-1.94h3.54v16.86ZM825.76,369.04c0-3.54-2.75-5.78-5.54-5.78-3.09,0-5.51,2.24-5.51,5.78s2.41,5.78,5.51,5.78c2.79,0,5.54-2.21,5.54-5.78Z"/>
        <path class="cls-2" d="M850.37,377.47h-3.54v-2.07c-1.36,1.63-3.33,2.55-5.81,2.55-4.08,0-6.77-2.92-6.77-7.17v-10.17h3.54v9.45c0,2.75,1.6,4.62,4.05,4.62,3.03,0,5-2.04,5-6.29v-7.79h3.54v16.86Z"/>
        <path class="cls-2" d="M871.66,377.47h-4.25l-4.42-6.08-4.42,6.08h-4.22l6.05-8.26-6.05-8.64h4.22l4.42,6.39,4.42-6.39h4.25l-6.05,8.64,6.05,8.26Z"/>
        <path class="cls-2" d="M878.9,375.43c0,1.22-.92,2.18-2.21,2.18s-2.24-.95-2.24-2.18c0-1.16.95-2.14,2.24-2.14s2.21.99,2.21,2.14Z"/>
      </g>
    </g>
  </g>
</svg>