<?xml version="1.0" encoding="UTF-8"?>
<svg id="_Слой_2" data-name="Слой 2" xmlns="http://www.w3.org/2000/svg" viewBox="0 0 1734.72 595.73">
  <defs>
    <style>
      .cls-1 {
        fill: #fff;
      }

      .cls-1, .cls-2 {
        stroke-width: 0px;
      }

      .cls-2 {
        fill: #ddc3a1;
      }
    </style>
  </defs>
  <g id="Calque_1" data-name="Calque 1">
    <g>
      <rect class="cls-2" width="390" height="594.49" rx="44.38" ry="44.38"/>
      <rect class="cls-2" x="447.97" y="1.24" width="390" height="594.49" rx="44.38" ry="44.38"/>
      <rect class="cls-2" x="1344.72" width="390" height="594.49" rx="44.38" ry="44.38"/>
      <rect class="cls-2" x="898.72" width="390" height="594.49" rx="44.38" ry="44.38"/>
      <g>
        <path class="cls-1" d="M545.55,192.19c7.7,0,12.4,4.55,12.4,11.25s-4.7,11.3-12.4,11.3h-8.8v10.95h-6.8v-33.5h15.6ZM545.55,208.59c3.65,0,5.65-2.05,5.65-5.15s-2-5.1-5.65-5.1h-8.8v10.25h8.8Z"/>
        <path class="cls-1" d="M580.5,200.59l-.35,6.35h-1.45c-6.1,0-8.9,3.75-8.9,10.7v8.05h-6.6v-24.95h6.6v4.55c2-2.9,4.9-4.9,8.95-4.9.65,0,1.15,0,1.75.2Z"/>
        <path class="cls-1" d="M609.45,213.24c0,7.85-6.15,13.1-13.45,13.1s-13.6-5.25-13.6-13.1,6.15-13.1,13.6-13.1,13.45,5.25,13.45,13.1ZM603.05,213.24c0-4.65-3.6-7.45-7.05-7.45s-7.2,2.8-7.2,7.45,3.6,7.45,7.2,7.45,7.05-2.8,7.05-7.45Z"/>
        <path class="cls-1" d="M632.6,224.59c-2.6,1.4-4.4,1.85-6.5,1.85-5.9,0-9.8-3.1-9.8-9.95v-10.35h-5.35v-5.4h5.35v-7.55h6.6v7.55h8.15v5.4h-8.15v9.85c0,3,1.45,4.3,3.65,4.3,1.15,0,2.85-.5,4.15-1.2l1.9,5.5Z"/>
        <path class="cls-1" d="M659.2,214.99h-19c.65,3.6,3.2,5.8,6.25,5.8,1.95,0,4.4-.25,6.2-3.3l5.9,1.25c-2.2,5.2-6.65,7.7-12.1,7.7-7.05,0-12.8-5.35-12.8-13.2s5.75-13.25,12.9-13.25c6.65,0,12.4,5.15,12.65,12.75v2.25ZM640.4,210.34h12.05c-.85-3.2-3.25-4.6-5.9-4.6-2.5,0-5.35,1.5-6.15,4.6ZM644.05,197.34l3.3-7.2h7.75l-5.45,7.2h-5.6Z"/>
        <path class="cls-1" d="M671.85,193.29c0,2.2-1.7,3.85-4,3.85s-4-1.65-4-3.85,1.65-3.95,4-3.95,4,1.85,4,3.95ZM664.55,225.69v-24.95h6.6v24.95h-6.6Z"/>
        <path class="cls-1" d="M702.95,210.49v15.2h-6.6v-13.8c0-3.5-2-5.85-5.05-5.85-3.75,0-6.2,2.5-6.2,8.6v11.05h-6.6v-24.95h6.6v2.25c1.95-1.95,4.55-3,7.85-3,6,0,10,4.3,10,10.5Z"/>
        <path class="cls-1" d="M732.85,214.99h-19c.65,3.6,3.2,5.8,6.25,5.8,1.95,0,4.4-.25,6.2-3.3l5.9,1.25c-2.2,5.2-6.65,7.7-12.1,7.7-7.05,0-12.8-5.35-12.8-13.2s5.75-13.25,12.9-13.25c6.65,0,12.4,5.15,12.65,12.75v2.25ZM714.05,210.34h12.05c-.85-3.2-3.25-4.6-5.9-4.6-2.5,0-5.35,1.5-6.15,4.6Z"/>
        <path class="cls-1" d="M742.39,217.74c.35,2.55,2.55,3.4,5.15,3.4,2.45,0,3.9-1.1,3.9-2.5,0-.9-.6-1.8-2.75-2.25l-5.1-1.05c-4.5-.95-7.05-3.5-7.05-7.1,0-4.8,3.9-8.25,10.2-8.25,5.9,0,10,3.05,10.85,7.4l-6.3,1.25c-.25-2-2-3.45-4.75-3.45s-3.4,1.3-3.4,2.45c0,.8.3,1.65,2.25,2.1l5.95,1.3c4.4.95,6.55,3.7,6.55,7.05,0,5.5-4.45,8.35-10.95,8.35-5.5,0-10.55-2.15-11.2-7.35l6.65-1.35Z"/>
        <path class="cls-1" d="M559.55,279.69h-6.6v-1.95c-2.1,1.7-4.85,2.7-8.25,2.7-6.35,0-12.25-5.35-12.25-13.2s5.9-13.25,12.25-13.25c3.4,0,6.15,1,8.25,2.75v-2h6.6v24.95ZM552.95,267.24c0-4.6-3.55-7.5-7.1-7.5-4,0-7,2.9-7,7.5s3,7.45,7,7.45c3.55,0,7.1-2.85,7.1-7.45Z"/>
        <path class="cls-1" d="M591,264.49v15.2h-6.6v-13.8c0-3.5-2-5.85-5.05-5.85-3.75,0-6.2,2.5-6.2,8.6v11.05h-6.6v-24.95h6.6v2.25c1.95-1.95,4.55-3,7.85-3,6,0,10,4.3,10,10.5Z"/>
        <path class="cls-1" d="M605,247.29c0,2.2-1.7,3.85-4,3.85s-4-1.65-4-3.85,1.65-3.95,4-3.95,4,1.85,4,3.95ZM597.7,279.69v-24.95h6.6v24.95h-6.6Z"/>
        <path class="cls-1" d="M652.7,264.09v15.6h-6.55v-14.25c0-3.35-2.15-5.4-4.9-5.4-3.5,0-5.8,2.4-5.8,7.65v12h-6.6v-14.25c0-3.35-2.15-5.4-4.9-5.4-3.5,0-5.7,2.4-5.7,7.65v12h-6.6v-24.95h6.6v2.05c1.75-1.75,4.2-2.8,7.45-2.8s6.4,1.45,8.2,4.1c2.05-2.55,5.1-4.1,9.1-4.1,5.2,0,9.7,4,9.7,10.1Z"/>
        <path class="cls-1" d="M684.2,279.69h-6.6v-1.95c-2.1,1.7-4.85,2.7-8.25,2.7-6.35,0-12.25-5.35-12.25-13.2s5.9-13.25,12.25-13.25c3.4,0,6.15,1,8.25,2.75v-2h6.6v24.95ZM677.6,267.24c0-4.6-3.55-7.5-7.1-7.5-4,0-7,2.9-7,7.5s3,7.45,7,7.45c3.55,0,7.1-2.85,7.1-7.45Z"/>
        <path class="cls-1" d="M691.2,279.69v-36h6.6v36h-6.6Z"/>
        <path class="cls-1" d="M728.35,268.99h-19c.65,3.6,3.2,5.8,6.25,5.8,1.95,0,4.4-.25,6.2-3.3l5.9,1.25c-2.2,5.2-6.65,7.7-12.1,7.7-7.05,0-12.8-5.35-12.8-13.2s5.75-13.25,12.9-13.25c6.65,0,12.4,5.15,12.65,12.75v2.25ZM709.55,264.34h12.05c-.85-3.2-3.25-4.6-5.9-4.6-2.5,0-5.35,1.5-6.15,4.6Z"/>
        <path class="cls-1" d="M737.9,271.74c.35,2.55,2.55,3.4,5.15,3.4,2.45,0,3.9-1.1,3.9-2.5,0-.9-.6-1.8-2.75-2.25l-5.1-1.05c-4.5-.95-7.05-3.5-7.05-7.1,0-4.8,3.9-8.25,10.2-8.25,5.9,0,10,3.05,10.85,7.4l-6.3,1.25c-.25-2-2-3.45-4.75-3.45s-3.4,1.3-3.4,2.45c0,.8.3,1.65,2.25,2.1l5.95,1.3c4.4.95,6.55,3.7,6.55,7.05,0,5.5-4.45,8.35-10.95,8.35-5.5,0-10.55-2.15-11.2-7.35l6.65-1.35Z"/>
        <path class="cls-1" d="M499.57,332.59c-2.6,1.4-4.4,1.85-6.5,1.85-5.9,0-9.8-3.1-9.8-9.95v-10.35h-5.35v-5.4h5.35v-7.55h6.6v7.55h8.15v5.4h-8.15v9.85c0,3,1.45,4.3,3.65,4.3,1.15,0,2.85-.5,4.15-1.2l1.9,5.5Z"/>
        <path class="cls-1" d="M520.42,308.59l-.35,6.35h-1.45c-6.1,0-8.9,3.75-8.9,10.7v8.05h-6.6v-24.95h6.6v4.55c2-2.9,4.9-4.9,8.95-4.9.65,0,1.15,0,1.75.2Z"/>
        <path class="cls-1" d="M549.42,333.69h-6.6v-1.95c-2.1,1.7-4.85,2.7-8.25,2.7-6.35,0-12.25-5.35-12.25-13.2s5.9-13.25,12.25-13.25c3.4,0,6.15,1,8.25,2.75v-2h6.6v24.95ZM542.82,321.24c0-4.6-3.55-7.5-7.1-7.5-4,0-7,2.9-7,7.5s3,7.45,7,7.45c3.55,0,7.1-2.85,7.1-7.45Z"/>
        <path class="cls-1" d="M580.87,318.49v15.2h-6.6v-13.8c0-3.5-2-5.85-5.05-5.85-3.75,0-6.2,2.5-6.2,8.6v11.05h-6.6v-24.95h6.6v2.25c1.95-1.95,4.55-3,7.85-3,6,0,10,4.3,10,10.5Z"/>
        <path class="cls-1" d="M591.77,325.74c.35,2.55,2.55,3.4,5.15,3.4,2.45,0,3.9-1.1,3.9-2.5,0-.9-.6-1.8-2.75-2.25l-5.1-1.05c-4.5-.95-7.05-3.5-7.05-7.1,0-4.8,3.9-8.25,10.2-8.25,5.9,0,10,3.05,10.85,7.4l-6.3,1.25c-.25-2-2-3.45-4.75-3.45s-3.4,1.3-3.4,2.45c0,.8.3,1.65,2.25,2.1l5.95,1.3c4.4.95,6.55,3.7,6.55,7.05,0,5.5-4.45,8.35-10.95,8.35-5.5,0-10.55-2.15-11.2-7.35l6.65-1.35Z"/>
        <path class="cls-1" d="M627.32,308.74v5.4h-7.55v19.55h-6.6v-19.55h-3.8v-5.4h3.8v-2.25c0-5.85,4-9.45,9.85-9.45,1.6,0,3.05.3,4.45.95l-1.5,5.35c-.9-.3-1.8-.45-2.5-.45-2.15,0-3.7,1.25-3.7,3.6v2.25h7.55Z"/>
        <path class="cls-1" d="M655.37,321.24c0,7.85-6.15,13.1-13.45,13.1s-13.6-5.25-13.6-13.1,6.15-13.1,13.6-13.1,13.45,5.25,13.45,13.1ZM648.97,321.24c0-4.65-3.6-7.45-7.05-7.45s-7.2,2.8-7.2,7.45,3.6,7.45,7.2,7.45,7.05-2.8,7.05-7.45Z"/>
        <path class="cls-1" d="M677.67,308.59l-.35,6.35h-1.45c-6.1,0-8.9,3.75-8.9,10.7v8.05h-6.6v-24.95h6.6v4.55c2-2.9,4.9-4.9,8.95-4.9.65,0,1.15,0,1.75.2Z"/>
        <path class="cls-1" d="M722.87,318.09v15.6h-6.55v-14.25c0-3.35-2.15-5.4-4.9-5.4-3.5,0-5.8,2.4-5.8,7.65v12h-6.6v-14.25c0-3.35-2.15-5.4-4.9-5.4-3.5,0-5.7,2.4-5.7,7.65v12h-6.6v-24.95h6.6v2.05c1.75-1.75,4.2-2.8,7.45-2.8s6.4,1.45,8.2,4.1c2.05-2.55,5.1-4.1,9.1-4.1,5.2,0,9.7,4,9.7,10.1Z"/>
        <path class="cls-1" d="M752.82,322.99h-19c.65,3.6,3.2,5.8,6.25,5.8,1.95,0,4.4-.25,6.2-3.3l5.9,1.25c-2.2,5.2-6.65,7.7-12.1,7.7-7.05,0-12.8-5.35-12.8-13.2s5.75-13.25,12.9-13.25c6.65,0,12.4,5.15,12.65,12.75v2.25ZM734.02,318.34h12.05c-.85-3.2-3.25-4.6-5.9-4.6-2.5,0-5.35,1.5-6.15,4.6ZM737.67,305.34l3.3-7.2h7.75l-5.45,7.2h-5.6Z"/>
        <path class="cls-1" d="M781.37,322.99h-19c.65,3.6,3.2,5.8,6.25,5.8,1.95,0,4.4-.25,6.2-3.3l5.9,1.25c-2.2,5.2-6.65,7.7-12.1,7.7-7.05,0-12.8-5.35-12.8-13.2s5.75-13.25,12.9-13.25c6.65,0,12.4,5.15,12.65,12.75v2.25ZM762.57,318.34h12.05c-.85-3.2-3.25-4.6-5.9-4.6-2.5,0-5.35,1.5-6.15,4.6Z"/>
        <path class="cls-1" d="M790.92,325.74c.35,2.55,2.55,3.4,5.15,3.4,2.45,0,3.9-1.1,3.9-2.5,0-.9-.6-1.8-2.75-2.25l-5.1-1.05c-4.5-.95-7.05-3.5-7.05-7.1,0-4.8,3.9-8.25,10.2-8.25,5.9,0,10,3.05,10.85,7.4l-6.3,1.25c-.25-2-2-3.45-4.75-3.45s-3.4,1.3-3.4,2.45c0,.8.3,1.65,2.25,2.1l5.95,1.3c4.4.95,6.55,3.7,6.55,7.05,0,5.5-4.45,8.35-10.95,8.35-5.5,0-10.55-2.15-11.2-7.35l6.65-1.35Z"/>
        <path class="cls-1" d="M594.62,354.09c-5.5,5.8-7.2,10.6-7.2,16.85s1.7,11,7.2,16.8l-4.65,4.05c-6.75-6.1-9.65-13.15-9.65-20.85s2.9-14.8,9.65-20.95l4.65,4.1Z"/>
        <path class="cls-1" d="M615.72,354.19c7.7,0,12.4,4.55,12.4,11.25s-4.7,11.3-12.4,11.3h-8.8v10.95h-6.8v-33.5h15.6ZM615.72,370.59c3.65,0,5.65-2.05,5.65-5.15s-2-5.1-5.65-5.1h-8.8v10.25h8.8Z"/>
        <path class="cls-1" d="M653.87,387.69l-2.9-7.15h-14.8l-2.95,7.15h-7.35l14.5-33.5h6.35l14.5,33.5h-7.35ZM643.57,362.44l-4.9,11.95h9.75l-4.85-11.95Z"/>
        <path class="cls-1" d="M677.17,360.34v27.35h-6.8v-27.35h-11.15v-6.15h29.1v6.15h-11.15Z"/>
        <path class="cls-1" d="M695.97,349.99c6.75,6.15,9.65,13.2,9.65,20.95s-2.9,14.75-9.65,20.85l-4.65-4.05c5.5-5.8,7.2-10.6,7.2-16.8s-1.7-11.05-7.2-16.85l4.65-4.1Z"/>
      </g>
      <g>
        <path class="cls-1" d="M126.64,277.53c.1,1.15.15,2.1.15,2.9,0,9.95-7.1,17.4-17,17.4s-17.8-7.65-17.8-17.5,7.75-17.5,17.6-17.5c7.05,0,13.7,3.3,16.1,10.1l-6.1,2.15c-2.45-4.7-6.35-5.85-10-5.85-6,0-10.7,4.8-10.7,11.1s4.85,11.15,11.1,11.15c5.1,0,8.9-3,10.05-7.75h-11.75v-6.2h18.35Z"/>
        <path class="cls-1" d="M149.59,271.98l-.35,6.35h-1.45c-6.1,0-8.9,3.75-8.9,10.7v8.05h-6.6v-24.95h6.6v4.55c2-2.9,4.9-4.9,8.95-4.9.65,0,1.15,0,1.75.2Z"/>
        <path class="cls-1" d="M178.59,297.08h-6.6v-1.95c-2.1,1.7-4.85,2.7-8.25,2.7-6.35,0-12.25-5.35-12.25-13.2s5.9-13.25,12.25-13.25c3.4,0,6.15,1,8.25,2.75v-2h6.6v24.95ZM171.99,284.63c0-4.6-3.55-7.5-7.1-7.5-4,0-7,2.9-7,7.5s3,7.45,7,7.45c3.55,0,7.1-2.85,7.1-7.45Z"/>
        <path class="cls-1" d="M193.24,264.68c0,2.2-1.7,3.85-4,3.85s-4-1.65-4-3.85,1.65-3.95,4-3.95,4,1.85,4,3.95ZM185.93,297.08v-24.95h6.6v24.95h-6.6Z"/>
        <path class="cls-1" d="M204.43,289.13c.35,2.55,2.55,3.4,5.15,3.4,2.45,0,3.9-1.1,3.9-2.5,0-.9-.6-1.8-2.75-2.25l-5.1-1.05c-4.5-.95-7.05-3.5-7.05-7.1,0-4.8,3.9-8.25,10.2-8.25,5.9,0,10,3.05,10.85,7.4l-6.3,1.25c-.25-2-2-3.45-4.75-3.45s-3.4,1.3-3.4,2.45c0,.8.3,1.65,2.25,2.1l5.95,1.3c4.4.95,6.55,3.7,6.55,7.05,0,5.5-4.45,8.35-10.95,8.35-5.5,0-10.55-2.15-11.2-7.35l6.65-1.35Z"/>
        <path class="cls-1" d="M229.08,289.13c.35,2.55,2.55,3.4,5.15,3.4,2.45,0,3.9-1.1,3.9-2.5,0-.9-.6-1.8-2.75-2.25l-5.1-1.05c-4.5-.95-7.05-3.5-7.05-7.1,0-4.8,3.9-8.25,10.2-8.25,5.9,0,10,3.05,10.85,7.4l-6.3,1.25c-.25-2-2-3.45-4.75-3.45s-3.4,1.3-3.4,2.45c0,.8.3,1.65,2.25,2.1l5.95,1.3c4.4.95,6.55,3.7,6.55,7.05,0,5.5-4.45,8.35-10.95,8.35-5.5,0-10.55-2.15-11.2-7.35l6.65-1.35Z"/>
        <path class="cls-1" d="M273.24,286.38h-19c.65,3.6,3.2,5.8,6.25,5.8,1.95,0,4.4-.25,6.2-3.3l5.9,1.25c-2.2,5.2-6.65,7.7-12.1,7.7-7.05,0-12.8-5.35-12.8-13.2s5.75-13.25,12.9-13.25c6.65,0,12.4,5.15,12.65,12.75v2.25ZM254.43,281.73h12.05c-.85-3.2-3.25-4.6-5.9-4.6-2.5,0-5.35,1.5-6.15,4.6Z"/>
        <path class="cls-1" d="M282.78,289.13c.35,2.55,2.55,3.4,5.15,3.4,2.45,0,3.9-1.1,3.9-2.5,0-.9-.6-1.8-2.75-2.25l-5.1-1.05c-4.5-.95-7.05-3.5-7.05-7.1,0-4.8,3.9-8.25,10.2-8.25,5.9,0,10,3.05,10.85,7.4l-6.3,1.25c-.25-2-2-3.45-4.75-3.45s-3.4,1.3-3.4,2.45c0,.8.3,1.65,2.25,2.1l5.95,1.3c4.4.95,6.55,3.7,6.55,7.05,0,5.5-4.45,8.35-10.95,8.35-5.5,0-10.55-2.15-11.2-7.35l6.65-1.35Z"/>
      </g>
      <g>
        <path class="cls-1" d="M1008.55,240.26c7.7,0,12.4,4.55,12.4,11.25s-4.7,11.3-12.4,11.3h-8.8v10.95h-6.8v-33.5h15.6ZM1008.55,256.66c3.65,0,5.65-2.05,5.65-5.15s-2-5.1-5.65-5.1h-8.8v10.25h8.8Z"/>
        <path class="cls-1" d="M1043.5,248.66l-.35,6.35h-1.45c-6.1,0-8.9,3.75-8.9,10.7v8.05h-6.6v-24.95h6.6v4.55c2-2.9,4.9-4.9,8.95-4.9.65,0,1.15,0,1.75.2Z"/>
        <path class="cls-1" d="M1072.45,261.31c0,7.85-6.15,13.1-13.45,13.1s-13.6-5.25-13.6-13.1,6.15-13.1,13.6-13.1,13.45,5.25,13.45,13.1ZM1066.05,261.31c0-4.65-3.6-7.45-7.05-7.45s-7.2,2.8-7.2,7.45,3.6,7.45,7.2,7.45,7.05-2.8,7.05-7.45Z"/>
        <path class="cls-1" d="M1102.55,273.76h-6.6v-1.95c-2.1,1.7-4.85,2.7-8.25,2.7-6.35,0-12.25-5.35-12.25-13.2s5.9-13.25,12.25-13.25c3.4,0,6.15,1,8.25,2.75v-13.05h6.6v36ZM1095.95,261.31c0-4.6-3.55-7.5-7.1-7.5-4,0-7,2.9-7,7.5s3,7.45,7,7.45c3.55,0,7.1-2.85,7.1-7.45Z"/>
        <path class="cls-1" d="M1133.35,273.76h-6.6v-2.25c-1.95,1.95-4.55,3-7.85,3-6,0-10-4.3-10-10.5v-15.2h6.6v13.8c0,3.5,2,5.85,5.05,5.85,3.75,0,6.2-2.5,6.2-8.6v-11.05h6.6v24.95Z"/>
        <path class="cls-1" d="M1148,241.36c0,2.2-1.7,3.85-4,3.85s-4-1.65-4-3.85,1.65-3.95,4-3.95,4,1.85,4,3.95ZM1140.7,273.76v-24.95h6.6v24.95h-6.6Z"/>
        <path class="cls-1" d="M1172.8,272.66c-2.6,1.4-4.4,1.85-6.5,1.85-5.9,0-9.8-3.1-9.8-9.95v-10.35h-5.35v-5.4h5.35v-7.55h6.6v7.55h8.15v5.4h-8.15v9.85c0,3,1.45,4.3,3.65,4.3,1.15,0,2.85-.5,4.15-1.2l1.9,5.5Z"/>
        <path class="cls-1" d="M1180.9,265.81c.35,2.55,2.55,3.4,5.15,3.4,2.45,0,3.9-1.1,3.9-2.5,0-.9-.6-1.8-2.75-2.25l-5.1-1.05c-4.5-.95-7.05-3.5-7.05-7.1,0-4.8,3.9-8.25,10.2-8.25,5.9,0,10,3.05,10.85,7.4l-6.3,1.25c-.25-2-2-3.45-4.75-3.45s-3.4,1.3-3.4,2.45c0,.8.3,1.65,2.25,2.1l5.95,1.3c4.4.95,6.55,3.7,6.55,7.05,0,5.5-4.45,8.35-10.95,8.35-5.5,0-10.55-2.15-11.2-7.35l6.65-1.35Z"/>
        <path class="cls-1" d="M991.55,319.81c.35,2.55,2.55,3.4,5.15,3.4,2.45,0,3.9-1.1,3.9-2.5,0-.9-.6-1.8-2.75-2.25l-5.1-1.05c-4.5-.95-7.05-3.5-7.05-7.1,0-4.8,3.9-8.25,10.2-8.25,5.9,0,10,3.05,10.85,7.4l-6.3,1.25c-.25-2-2-3.45-4.75-3.45s-3.4,1.3-3.4,2.45c0,.8.3,1.65,2.25,2.1l5.95,1.3c4.4.95,6.55,3.7,6.55,7.05,0,5.5-4.45,8.35-10.95,8.35-5.5,0-10.55-2.15-11.2-7.35l6.65-1.35Z"/>
        <path class="cls-1" d="M1037.25,327.76h-6.6v-1.95c-2.1,1.7-4.85,2.7-8.25,2.7-6.35,0-12.25-5.35-12.25-13.2s5.9-13.25,12.25-13.25c3.4,0,6.15,1,8.25,2.75v-2h6.6v24.95ZM1030.65,315.31c0-4.6-3.55-7.5-7.1-7.5-4,0-7,2.9-7,7.5s3,7.45,7,7.45c3.55,0,7.1-2.85,7.1-7.45Z"/>
        <path class="cls-1" d="M1068.7,312.56v15.2h-6.6v-13.8c0-3.5-2-5.85-5.05-5.85-3.75,0-6.2,2.5-6.2,8.6v11.05h-6.6v-24.95h6.6v2.25c1.95-1.95,4.55-3,7.85-3,6,0,10,4.3,10,10.5Z"/>
        <path class="cls-1" d="M1099.4,325.36c0,7.65-5.3,11.9-13.35,11.9-5.8,0-10-2.05-12.15-5.5l5.35-4.05c1.95,2.45,3.55,3.6,6.8,3.6,4.2,0,6.95-2.6,6.95-6.95v-.4c-1.85,1.5-4.4,2.3-7.85,2.3-6.25,0-12.1-5.3-12.1-12.15s5.85-12.05,12.1-12.05c3.45,0,6,.85,7.85,2.3v-1.55h6.35l.05,22.55ZM1093,314.11c0-3.9-3.2-6.5-6.7-6.5-3.95,0-6.9,2.6-6.9,6.5s2.95,6.5,6.9,6.5c3.5,0,6.7-2.6,6.7-6.5Z"/>
        <path class="cls-1" d="M1130.2,327.76h-6.6v-2.25c-1.95,1.95-4.55,3-7.85,3-6,0-10-4.3-10-10.5v-15.2h6.6v13.8c0,3.5,2,5.85,5.05,5.85,3.75,0,6.2-2.5,6.2-8.6v-11.05h6.6v24.95Z"/>
        <path class="cls-1" d="M1144.85,295.36c0,2.2-1.7,3.85-4,3.85s-4-1.65-4-3.85,1.65-3.95,4-3.95,4,1.85,4,3.95ZM1137.55,327.76v-24.95h6.6v24.95h-6.6Z"/>
        <path class="cls-1" d="M1175.95,312.56v15.2h-6.6v-13.8c0-3.5-2-5.85-5.05-5.85-3.75,0-6.2,2.5-6.2,8.6v11.05h-6.6v-24.95h6.6v2.25c1.95-1.95,4.55-3,7.85-3,6,0,10,4.3,10,10.5Z"/>
        <path class="cls-1" d="M1186.85,319.81c.35,2.55,2.55,3.4,5.15,3.4,2.45,0,3.9-1.1,3.9-2.5,0-.9-.6-1.8-2.75-2.25l-5.1-1.05c-4.5-.95-7.05-3.5-7.05-7.1,0-4.8,3.9-8.25,10.2-8.25,5.9,0,10,3.05,10.85,7.4l-6.3,1.25c-.25-2-2-3.45-4.75-3.45s-3.4,1.3-3.4,2.45c0,.8.3,1.65,2.25,2.1l5.95,1.3c4.4.95,6.55,3.7,6.55,7.05,0,5.5-4.45,8.35-10.95,8.35-5.5,0-10.55-2.15-11.2-7.35l6.65-1.35Z"/>
      </g>
      <g>
        <path class="cls-1" d="M1400.73,153.02l-2.9-7.15h-14.8l-2.95,7.15h-7.35l14.5-33.5h6.35l14.5,33.5h-7.35ZM1390.43,127.77l-4.9,11.95h9.75l-4.85-11.95Z"/>
        <path class="cls-1" d="M1433.63,153.02h-6.6v-2.25c-1.95,1.95-4.55,3-7.85,3-6,0-10-4.3-10-10.5v-15.2h6.6v13.8c0,3.5,2,5.85,5.05,5.85,3.75,0,6.2-2.5,6.2-8.6v-11.05h6.6v24.95Z"/>
        <path class="cls-1" d="M1457.53,151.92c-2.6,1.4-4.4,1.85-6.5,1.85-5.9,0-9.8-3.1-9.8-9.95v-10.35h-5.35v-5.4h5.35v-7.55h6.6v7.55h8.15v5.4h-8.15v9.85c0,3,1.45,4.3,3.65,4.3,1.15,0,2.85-.5,4.15-1.2l1.9,5.5Z"/>
        <path class="cls-1" d="M1477.13,127.92l-.35,6.35h-1.45c-6.1,0-8.9,3.75-8.9,10.7v8.05h-6.6v-24.95h6.6v4.55c2-2.9,4.9-4.9,8.95-4.9.65,0,1.15,0,1.75.2Z"/>
        <path class="cls-1" d="M1503.33,142.32h-19c.65,3.6,3.2,5.8,6.25,5.8,1.95,0,4.4-.25,6.2-3.3l5.9,1.25c-2.2,5.2-6.65,7.7-12.1,7.7-7.05,0-12.8-5.35-12.8-13.2s5.75-13.25,12.9-13.25c6.65,0,12.4,5.15,12.65,12.75v2.25ZM1484.52,137.67h12.05c-.85-3.2-3.25-4.6-5.9-4.6-2.5,0-5.35,1.5-6.15,4.6Z"/>
        <path class="cls-1" d="M1511.62,145.07c.35,2.55,2.55,3.4,5.15,3.4,2.45,0,3.9-1.1,3.9-2.5,0-.9-.6-1.8-2.75-2.25l-5.1-1.05c-4.5-.95-7.05-3.5-7.05-7.1,0-4.8,3.9-8.25,10.2-8.25,5.9,0,10,3.05,10.85,7.4l-6.3,1.25c-.25-2-2-3.45-4.75-3.45s-3.4,1.3-3.4,2.45c0,.8.3,1.65,2.25,2.1l5.95,1.3c4.4.95,6.55,3.7,6.55,7.05,0,5.5-4.45,8.35-10.95,8.35-5.5,0-10.55-2.15-11.2-7.35l6.65-1.35Z"/>
        <path class="cls-1" d="M1568.98,140.57c0,7.85-5.9,13.2-12.25,13.2-3.4,0-6.15-1-8.25-2.7v10.45h-6.6v-33.45h6.6v2c2.1-1.75,4.85-2.75,8.25-2.75,6.35,0,12.25,5.4,12.25,13.25ZM1562.57,140.57c0-4.6-3-7.5-7-7.5-3.55,0-7.1,2.9-7.1,7.5s3.55,7.45,7.1,7.45c4,0,7-2.85,7-7.45Z"/>
        <path class="cls-1" d="M1597.82,153.02h-6.6v-1.95c-2.1,1.7-4.85,2.7-8.25,2.7-6.35,0-12.25-5.35-12.25-13.2s5.9-13.25,12.25-13.25c3.4,0,6.15,1,8.25,2.75v-2h6.6v24.95ZM1591.22,140.57c0-4.6-3.55-7.5-7.1-7.5-4,0-7,2.9-7,7.5s3,7.45,7,7.45c3.55,0,7.1-2.85,7.1-7.45Z"/>
        <path class="cls-1" d="M1620.87,127.92l-.35,6.35h-1.45c-6.1,0-8.9,3.75-8.9,10.7v8.05h-6.6v-24.95h6.6v4.55c2-2.9,4.9-4.9,8.95-4.9.65,0,1.15,0,1.75.2Z"/>
        <path class="cls-1" d="M1642.42,151.92c-2.6,1.4-4.4,1.85-6.5,1.85-5.9,0-9.8-3.1-9.8-9.95v-10.35h-5.35v-5.4h5.35v-7.55h6.6v7.55h8.15v5.4h-8.15v9.85c0,3,1.45,4.3,3.65,4.3,1.15,0,2.85-.5,4.15-1.2l1.9,5.5Z"/>
        <path class="cls-1" d="M1652.37,120.62c0,2.2-1.7,3.85-4,3.85s-4-1.65-4-3.85,1.65-3.95,4-3.95,4,1.85,4,3.95ZM1645.07,153.02v-24.95h6.6v24.95h-6.6Z"/>
        <path class="cls-1" d="M1681.32,142.32h-19c.65,3.6,3.2,5.8,6.25,5.8,1.95,0,4.4-.25,6.2-3.3l5.9,1.25c-2.2,5.2-6.65,7.7-12.1,7.7-7.05,0-12.8-5.35-12.8-13.2s5.75-13.25,12.9-13.25c6.65,0,12.4,5.15,12.65,12.75v2.25ZM1662.52,137.67h12.05c-.85-3.2-3.25-4.6-5.9-4.6-2.5,0-5.35,1.5-6.15,4.6Z"/>
        <path class="cls-1" d="M1689.62,145.07c.35,2.55,2.55,3.4,5.15,3.4,2.45,0,3.9-1.1,3.9-2.5,0-.9-.6-1.8-2.75-2.25l-5.1-1.05c-4.5-.95-7.05-3.5-7.05-7.1,0-4.8,3.9-8.25,10.2-8.25,5.9,0,10,3.05,10.85,7.4l-6.3,1.25c-.25-2-2-3.45-4.75-3.45s-3.4,1.3-3.4,2.45c0,.8.3,1.65,2.25,2.1l5.95,1.3c4.4.95,6.55,3.7,6.55,7.05,0,5.5-4.45,8.35-10.95,8.35-5.5,0-10.55-2.15-11.2-7.35l6.65-1.35Z"/>
        <path class="cls-1" d="M1411.28,207.02h-6.6v-1.95c-2.1,1.7-4.85,2.7-8.25,2.7-6.35,0-12.25-5.35-12.25-13.2s5.9-13.25,12.25-13.25c3.4,0,6.15,1,8.25,2.75v-2h6.6v24.95ZM1404.68,194.57c0-4.6-3.55-7.5-7.1-7.5-4,0-7,2.9-7,7.5s3,7.45,7,7.45c3.55,0,7.1-2.85,7.1-7.45Z"/>
        <path class="cls-1" d="M1441.48,191.82v15.2h-6.6v-13.8c0-3.5-2-5.85-5.05-5.85-3.75,0-6.2,2.5-6.2,8.6v11.05h-6.6v-24.95h6.6v2.25c1.95-1.95,4.55-3,7.85-3,6,0,10,4.3,10,10.5Z"/>
        <path class="cls-1" d="M1454.23,174.62c0,2.2-1.7,3.85-4,3.85s-4-1.65-4-3.85,1.65-3.95,4-3.95,4,1.85,4,3.95ZM1446.92,207.02v-24.95h6.6v24.95h-6.6Z"/>
        <path class="cls-1" d="M1500.68,191.42v15.6h-6.55v-14.25c0-3.35-2.15-5.4-4.9-5.4-3.5,0-5.8,2.4-5.8,7.65v12h-6.6v-14.25c0-3.35-2.15-5.4-4.9-5.4-3.5,0-5.7,2.4-5.7,7.65v12h-6.6v-24.95h6.6v2.05c1.75-1.75,4.2-2.8,7.45-2.8s6.4,1.45,8.2,4.1c2.05-2.55,5.1-4.1,9.1-4.1,5.2,0,9.7,4,9.7,10.1Z"/>
        <path class="cls-1" d="M1530.93,207.02h-6.6v-1.95c-2.1,1.7-4.85,2.7-8.25,2.7-6.35,0-12.25-5.35-12.25-13.2s5.9-13.25,12.25-13.25c3.4,0,6.15,1,8.25,2.75v-2h6.6v24.95ZM1524.32,194.57c0-4.6-3.55-7.5-7.1-7.5-4,0-7,2.9-7,7.5s3,7.45,7,7.45c3.55,0,7.1-2.85,7.1-7.45Z"/>
        <path class="cls-1" d="M1536.67,207.02v-36h6.6v36h-6.6Z"/>
        <path class="cls-1" d="M1572.57,196.32h-19c.65,3.6,3.2,5.8,6.25,5.8,1.95,0,4.4-.25,6.2-3.3l5.9,1.25c-2.2,5.2-6.65,7.7-12.1,7.7-7.05,0-12.8-5.35-12.8-13.2s5.75-13.25,12.9-13.25c6.65,0,12.4,5.15,12.65,12.75v2.25ZM1553.77,191.67h12.05c-.85-3.2-3.25-4.6-5.9-4.6-2.5,0-5.35,1.5-6.15,4.6Z"/>
        <path class="cls-1" d="M1580.87,199.07c.35,2.55,2.55,3.4,5.15,3.4,2.45,0,3.9-1.1,3.9-2.5,0-.9-.6-1.8-2.75-2.25l-5.1-1.05c-4.5-.95-7.05-3.5-7.05-7.1,0-4.8,3.9-8.25,10.2-8.25,5.9,0,10,3.05,10.85,7.4l-6.3,1.25c-.25-2-2-3.45-4.75-3.45s-3.4,1.3-3.4,2.45c0,.8.3,1.65,2.25,2.1l5.95,1.3c4.4.95,6.55,3.7,6.55,7.05,0,5.5-4.45,8.35-10.95,8.35-5.5,0-10.55-2.15-11.2-7.35l6.65-1.35Z"/>
        <path class="cls-1" d="M1635.57,191.82v15.2h-6.6v-13.8c0-3.5-2-5.85-5.05-5.85-3.75,0-6.2,2.5-6.2,8.6v11.05h-6.6v-24.95h6.6v2.25c1.95-1.95,4.55-3,7.85-3,6,0,10,4.3,10,10.5Z"/>
        <path class="cls-1" d="M1665.72,194.57c0,7.85-6.15,13.1-13.45,13.1s-13.6-5.25-13.6-13.1,6.15-13.1,13.6-13.1,13.45,5.25,13.45,13.1ZM1659.32,194.57c0-4.65-3.6-7.45-7.05-7.45s-7.2,2.8-7.2,7.45,3.6,7.45,7.2,7.45,7.05-2.8,7.05-7.45Z"/>
        <path class="cls-1" d="M1693.92,191.82v15.2h-6.6v-13.8c0-3.5-2-5.85-5.05-5.85-3.75,0-6.2,2.5-6.2,8.6v11.05h-6.6v-24.95h6.6v2.25c1.95-1.95,4.55-3,7.85-3,6,0,10,4.3,10,10.5Z"/>
        <path class="cls-1" d="M1407.98,261.02h-6.6v-1.95c-2.1,1.7-4.85,2.7-8.25,2.7-6.35,0-12.25-5.35-12.25-13.2s5.9-13.25,12.25-13.25c3.4,0,6.15,1,8.25,2.75v-13.05h6.6v36ZM1401.38,248.57c0-4.6-3.55-7.5-7.1-7.5-4,0-7,2.9-7,7.5s3,7.45,7,7.45c3.55,0,7.1-2.85,7.1-7.45Z"/>
        <path class="cls-1" d="M1437.28,250.32h-19c.65,3.6,3.2,5.8,6.25,5.8,1.95,0,4.4-.25,6.2-3.3l5.9,1.25c-2.2,5.2-6.65,7.7-12.1,7.7-7.05,0-12.8-5.35-12.8-13.2s5.75-13.25,12.9-13.25c6.65,0,12.4,5.15,12.65,12.75v2.25ZM1418.48,245.67h12.05c-.85-3.2-3.25-4.6-5.9-4.6-2.5,0-5.35,1.5-6.15,4.6Z"/>
        <path class="cls-1" d="M1445.57,253.07c.35,2.55,2.55,3.4,5.15,3.4,2.45,0,3.9-1.1,3.9-2.5,0-.9-.6-1.8-2.75-2.25l-5.1-1.05c-4.5-.95-7.05-3.5-7.05-7.1,0-4.8,3.9-8.25,10.2-8.25,5.9,0,10,3.05,10.85,7.4l-6.3,1.25c-.25-2-2-3.45-4.75-3.45s-3.4,1.3-3.4,2.45c0,.8.3,1.65,2.25,2.1l5.95,1.3c4.4.95,6.55,3.7,6.55,7.05,0,5.5-4.45,8.35-10.95,8.35-5.5,0-10.55-2.15-11.2-7.35l6.65-1.35Z"/>
        <path class="cls-1" d="M1483.07,259.92c-2.6,1.4-4.4,1.85-6.5,1.85-5.9,0-9.8-3.1-9.8-9.95v-10.35h-5.35v-5.4h5.35v-7.55h6.6v7.55h8.15v5.4h-8.15v9.85c0,3,1.45,4.3,3.65,4.3,1.15,0,2.85-.5,4.15-1.2l1.9,5.5Z"/>
        <path class="cls-1" d="M1493.02,228.62c0,2.2-1.7,3.85-4,3.85s-4-1.65-4-3.85,1.65-3.95,4-3.95,4,1.85,4,3.95ZM1485.72,261.02v-24.95h6.6v24.95h-6.6Z"/>
        <path class="cls-1" d="M1522.87,245.82v15.2h-6.6v-13.8c0-3.5-2-5.85-5.05-5.85-3.75,0-6.2,2.5-6.2,8.6v11.05h-6.6v-24.95h6.6v2.25c1.95-1.95,4.55-3,7.85-3,6,0,10,4.3,10,10.5Z"/>
        <path class="cls-1" d="M1551.53,250.32h-19c.65,3.6,3.2,5.8,6.25,5.8,1.95,0,4.4-.25,6.2-3.3l5.9,1.25c-2.2,5.2-6.65,7.7-12.1,7.7-7.05,0-12.8-5.35-12.8-13.2s5.75-13.25,12.9-13.25c6.65,0,12.4,5.15,12.65,12.75v2.25ZM1532.72,245.67h12.05c-.85-3.2-3.25-4.6-5.9-4.6-2.5,0-5.35,1.5-6.15,4.6ZM1536.37,232.67l3.3-7.2h7.75l-5.45,7.2h-5.6Z"/>
        <path class="cls-1" d="M1578.82,250.32h-19c.65,3.6,3.2,5.8,6.25,5.8,1.95,0,4.4-.25,6.2-3.3l5.9,1.25c-2.2,5.2-6.65,7.7-12.1,7.7-7.05,0-12.8-5.35-12.8-13.2s5.75-13.25,12.9-13.25c6.65,0,12.4,5.15,12.65,12.75v2.25ZM1560.02,245.67h12.05c-.85-3.2-3.25-4.6-5.9-4.6-2.5,0-5.35,1.5-6.15,4.6Z"/>
        <path class="cls-1" d="M1587.12,253.07c.35,2.55,2.55,3.4,5.15,3.4,2.45,0,3.9-1.1,3.9-2.5,0-.9-.6-1.8-2.75-2.25l-5.1-1.05c-4.5-.95-7.05-3.5-7.05-7.1,0-4.8,3.9-8.25,10.2-8.25,5.9,0,10,3.05,10.85,7.4l-6.3,1.25c-.25-2-2-3.45-4.75-3.45s-3.4,1.3-3.4,2.45c0,.8.3,1.65,2.25,2.1l5.95,1.3c4.4.95,6.55,3.7,6.55,7.05,0,5.5-4.45,8.35-10.95,8.35-5.5,0-10.55-2.15-11.2-7.35l6.65-1.35Z"/>
        <path class="cls-1" d="M1642.47,261.02h-6.6v-1.95c-2.1,1.7-4.85,2.7-8.25,2.7-6.35,0-12.25-5.35-12.25-13.2s5.9-13.25,12.25-13.25c3.4,0,6.15,1,8.25,2.75v-2h6.6v24.95ZM1621.07,225.47h7.75l3.3,7.2h-5.6l-5.45-7.2ZM1635.87,248.57c0-4.6-3.55-7.5-7.1-7.5-4,0-7,2.9-7,7.5s3,7.45,7,7.45c3.55,0,7.1-2.85,7.1-7.45Z"/>
        <path class="cls-1" d="M1659.12,261.02v-36h6.6v36h-6.6Z"/>
        <path class="cls-1" d="M1696.57,261.02h-6.6v-1.95c-2.1,1.7-4.85,2.7-8.25,2.7-6.35,0-12.25-5.35-12.25-13.2s5.9-13.25,12.25-13.25c3.4,0,6.15,1,8.25,2.75v-2h6.6v24.95ZM1689.97,248.57c0-4.6-3.55-7.5-7.1-7.5-4,0-7,2.9-7,7.5s3,7.45,7,7.45c3.55,0,7.1-2.85,7.1-7.45Z"/>
        <path class="cls-1" d="M1386.48,304.87l6.1,1.55c-1.4,5.7-6.55,9.35-12.5,9.35-7.3,0-13.35-5.35-13.35-13.2s6.05-13.25,13.35-13.25c5.8,0,10.85,3.6,12.5,9.2l-6.35,1.8c-.9-3.5-3.25-4.95-6.15-4.95-4.15,0-6.95,2.95-6.95,7.2s2.8,7.15,6.95,7.15c2.9,0,5.25-1.4,6.4-4.85Z"/>
        <path class="cls-1" d="M1420.88,302.57c0,7.85-6.15,13.1-13.45,13.1s-13.6-5.25-13.6-13.1,6.15-13.1,13.6-13.1,13.45,5.25,13.45,13.1ZM1414.48,302.57c0-4.65-3.6-7.45-7.05-7.45s-7.2,2.8-7.2,7.45,3.6,7.45,7.2,7.45,7.05-2.8,7.05-7.45Z"/>
        <path class="cls-1" d="M1448.58,299.82v15.2h-6.6v-13.8c0-3.5-2-5.85-5.05-5.85-3.75,0-6.2,2.5-6.2,8.6v11.05h-6.6v-24.95h6.6v2.25c1.95-1.95,4.55-3,7.85-3,6,0,10,4.3,10,10.5Z"/>
        <path class="cls-1" d="M1457.72,307.07c.35,2.55,2.55,3.4,5.15,3.4,2.45,0,3.9-1.1,3.9-2.5,0-.9-.6-1.8-2.75-2.25l-5.1-1.05c-4.5-.95-7.05-3.5-7.05-7.1,0-4.8,3.9-8.25,10.2-8.25,5.9,0,10,3.05,10.85,7.4l-6.3,1.25c-.25-2-2-3.45-4.75-3.45s-3.4,1.3-3.4,2.45c0,.8.3,1.65,2.25,2.1l5.95,1.3c4.4.95,6.55,3.7,6.55,7.05,0,5.5-4.45,8.35-10.95,8.35-5.5,0-10.55-2.15-11.2-7.35l6.65-1.35Z"/>
        <path class="cls-1" d="M1501.62,302.57c0,7.85-6.15,13.1-13.45,13.1s-13.6-5.25-13.6-13.1,6.15-13.1,13.6-13.1,13.45,5.25,13.45,13.1ZM1495.22,302.57c0-4.65-3.6-7.45-7.05-7.45s-7.2,2.8-7.2,7.45,3.6,7.45,7.2,7.45,7.05-2.8,7.05-7.45Z"/>
        <path class="cls-1" d="M1545.93,299.42v15.6h-6.55v-14.25c0-3.35-2.15-5.4-4.9-5.4-3.5,0-5.8,2.4-5.8,7.65v12h-6.6v-14.25c0-3.35-2.15-5.4-4.9-5.4-3.5,0-5.7,2.4-5.7,7.65v12h-6.6v-24.95h6.6v2.05c1.75-1.75,4.2-2.8,7.45-2.8s6.4,1.45,8.2,4.1c2.05-2.55,5.1-4.1,9.1-4.1,5.2,0,9.7,4,9.7,10.1Z"/>
        <path class="cls-1" d="M1591.63,299.42v15.6h-6.55v-14.25c0-3.35-2.15-5.4-4.9-5.4-3.5,0-5.8,2.4-5.8,7.65v12h-6.6v-14.25c0-3.35-2.15-5.4-4.9-5.4-3.5,0-5.7,2.4-5.7,7.65v12h-6.6v-24.95h6.6v2.05c1.75-1.75,4.2-2.8,7.45-2.8s6.4,1.45,8.2,4.1c2.05-2.55,5.1-4.1,9.1-4.1,5.2,0,9.7,4,9.7,10.1Z"/>
        <path class="cls-1" d="M1621.37,315.02h-6.6v-1.95c-2.1,1.7-4.85,2.7-8.25,2.7-6.35,0-12.25-5.35-12.25-13.2s5.9-13.25,12.25-13.25c3.4,0,6.15,1,8.25,2.75v-2h6.6v24.95ZM1614.77,302.57c0-4.6-3.55-7.5-7.1-7.5-4,0-7,2.9-7,7.5s3,7.45,7,7.45c3.55,0,7.1-2.85,7.1-7.45Z"/>
        <path class="cls-1" d="M1644.77,313.92c-2.6,1.4-4.4,1.85-6.5,1.85-5.9,0-9.8-3.1-9.8-9.95v-10.35h-5.35v-5.4h5.35v-7.55h6.6v7.55h8.15v5.4h-8.15v9.85c0,3,1.45,4.3,3.65,4.3,1.15,0,2.85-.5,4.15-1.2l1.9,5.5Z"/>
        <path class="cls-1" d="M1654.22,282.62c0,2.2-1.7,3.85-4,3.85s-4-1.65-4-3.85,1.65-3.95,4-3.95,4,1.85,4,3.95ZM1646.92,315.02v-24.95h6.6v24.95h-6.6Z"/>
        <path class="cls-1" d="M1684.17,302.57c0,7.85-6.15,13.1-13.45,13.1s-13.6-5.25-13.6-13.1,6.15-13.1,13.6-13.1,13.45,5.25,13.45,13.1ZM1677.77,302.57c0-4.65-3.6-7.45-7.05-7.45s-7.2,2.8-7.2,7.45,3.6,7.45,7.2,7.45,7.05-2.8,7.05-7.45Z"/>
        <path class="cls-1" d="M1711.87,299.82v15.2h-6.6v-13.8c0-3.5-2-5.85-5.05-5.85-3.75,0-6.2,2.5-6.2,8.6v11.05h-6.6v-24.95h6.6v2.25c1.95-1.95,4.55-3,7.85-3,6,0,10,4.3,10,10.5Z"/>
        <path class="cls-1" d="M1464.07,353.82v15.2h-6.6v-13.8c0-3.5-2-5.85-5.05-5.85-3.75,0-6.2,2.5-6.2,8.6v11.05h-6.6v-36h6.6v13.3c1.95-1.95,4.55-3,7.85-3,6,0,10,4.3,10,10.5Z"/>
        <path class="cls-1" d="M1492.88,369.02h-6.6v-2.25c-1.95,1.95-4.55,3-7.85,3-6,0-10-4.3-10-10.5v-15.2h6.6v13.8c0,3.5,2,5.85,5.05,5.85,3.75,0,6.2-2.5,6.2-8.6v-11.05h6.6v24.95Z"/>
        <path class="cls-1" d="M1539.68,353.42v15.6h-6.55v-14.25c0-3.35-2.15-5.4-4.9-5.4-3.5,0-5.8,2.4-5.8,7.65v12h-6.6v-14.25c0-3.35-2.15-5.4-4.9-5.4-3.5,0-5.7,2.4-5.7,7.65v12h-6.6v-24.95h6.6v2.05c1.75-1.75,4.2-2.8,7.45-2.8s6.4,1.45,8.2,4.1c2.05-2.55,5.1-4.1,9.1-4.1,5.2,0,9.7,4,9.7,10.1Z"/>
        <path class="cls-1" d="M1569.92,369.02h-6.6v-1.95c-2.1,1.7-4.85,2.7-8.25,2.7-6.35,0-12.25-5.35-12.25-13.2s5.9-13.25,12.25-13.25c3.4,0,6.15,1,8.25,2.75v-2h6.6v24.95ZM1563.32,356.57c0-4.6-3.55-7.5-7.1-7.5-4,0-7,2.9-7,7.5s3,7.45,7,7.45c3.55,0,7.1-2.85,7.1-7.45Z"/>
        <path class="cls-1" d="M1583.32,336.62c0,2.2-1.7,3.85-4,3.85s-4-1.65-4-3.85,1.65-3.95,4-3.95,4,1.85,4,3.95ZM1576.02,369.02v-24.95h6.6v24.95h-6.6Z"/>
        <path class="cls-1" d="M1613.17,353.82v15.2h-6.6v-13.8c0-3.5-2-5.85-5.05-5.85-3.75,0-6.2,2.5-6.2,8.6v11.05h-6.6v-24.95h6.6v2.25c1.95-1.95,4.55-3,7.85-3,6,0,10,4.3,10,10.5Z"/>
        <path class="cls-1" d="M1641.82,358.32h-19c.65,3.6,3.2,5.8,6.25,5.8,1.95,0,4.4-.25,6.2-3.3l5.9,1.25c-2.2,5.2-6.65,7.7-12.1,7.7-7.05,0-12.8-5.35-12.8-13.2s5.75-13.25,12.9-13.25c6.65,0,12.4,5.15,12.65,12.75v2.25ZM1623.02,353.67h12.05c-.85-3.2-3.25-4.6-5.9-4.6-2.5,0-5.35,1.5-6.15,4.6Z"/>
      </g>
      <g>
        <path class="cls-1" d="M1411.15,415.17c5.03,0,8.19,2.99,8.19,7.34s-3.16,7.41-8.19,7.41h-6.63v8.02h-3.64v-22.78h10.27ZM1411.15,426.59c2.86,0,4.56-1.63,4.56-4.08s-1.7-4.05-4.56-4.05h-6.63v8.13h6.63Z"/>
        <path class="cls-1" d="M1439.75,437.95h-3.54v-1.94c-1.46,1.53-3.57,2.41-6.12,2.41-4.42,0-8.36-3.57-8.36-8.91s3.94-8.91,8.36-8.91c2.55,0,4.66.88,6.12,2.41v-1.94h3.54v16.86ZM1436.21,429.52c0-3.54-2.75-5.78-5.54-5.78-3.09,0-5.51,2.24-5.51,5.78s2.41,5.78,5.51,5.78c2.79,0,5.54-2.21,5.54-5.78Z"/>
        <path class="cls-1" d="M1447.23,432.68c.24,2.01,2.01,2.86,4.22,2.86,2.04,0,3.33-.92,3.33-2.24,0-1.02-.71-1.67-2.28-2.01l-3.67-.75c-2.92-.65-4.59-2.21-4.59-4.59,0-3.13,2.62-5.34,6.66-5.34s6.49,2.04,7.1,4.86l-3.37.71c-.27-1.63-1.67-2.75-3.84-2.75s-2.99,1.02-2.99,2.21c0,.95.54,1.56,2.04,1.9l4.01.88c2.72.58,4.39,2.18,4.39,4.55,0,3.54-2.89,5.44-7.11,5.44-3.77,0-7-1.6-7.45-5l3.54-.75Z"/>
        <path class="cls-1" d="M1487.24,437.95h-3.57v-1.9c-1.5,1.5-3.57,2.38-6.12,2.38-4.39,0-8.36-3.57-8.36-8.91s3.98-8.91,8.36-8.91c2.55,0,4.62.88,6.12,2.41v-9.55h3.57v24.48ZM1483.67,429.52c0-3.54-2.72-5.78-5.54-5.78-3.06,0-5.47,2.24-5.47,5.78s2.41,5.78,5.47,5.78c2.82,0,5.54-2.21,5.54-5.78Z"/>
        <path class="cls-1" d="M1508.29,430.36h-13.67c.34,3.13,2.62,5,5.1,5,1.87,0,3.77-.54,4.96-2.92l3.16.68c-1.39,3.54-4.39,5.3-8.12,5.3-4.59,0-8.6-3.54-8.6-8.87s3.98-8.94,8.74-8.94,8.26,3.47,8.43,8.53v1.22ZM1494.72,427.85h9.93c-.54-2.75-2.48-4.11-4.79-4.11s-4.59,1.39-5.13,4.11Z"/>
        <path class="cls-1" d="M1531.75,421.02l-.24,3.4c-.27-.03-.68-.03-.99-.03-4.28,0-6.39,2.99-6.39,7.62v5.95h-3.54v-16.86h3.54v3.6c1.36-2.24,3.5-3.81,6.43-3.81.41,0,.75,0,1.19.14Z"/>
        <path class="cls-1" d="M1550.28,430.36h-13.67c.34,3.13,2.62,5,5.1,5,1.87,0,3.77-.54,4.96-2.92l3.16.68c-1.39,3.54-4.39,5.3-8.12,5.3-4.59,0-8.6-3.54-8.6-8.87s3.98-8.94,8.74-8.94,8.26,3.47,8.43,8.53v1.22ZM1536.71,427.85h9.93c-.54-2.75-2.48-4.11-4.79-4.11s-4.59,1.39-5.13,4.11Z"/>
        <path class="cls-1" d="M1566.6,431.62l3.26.85c-.92,3.64-4.32,5.95-8.23,5.95-4.83,0-8.91-3.57-8.91-8.91s4.08-8.91,8.91-8.91c3.81,0,7.17,2.31,8.23,5.92l-3.4.99c-.65-2.48-2.58-3.64-4.83-3.64-3.13,0-5.44,2.31-5.44,5.64s2.31,5.64,5.44,5.64c2.24,0,4.15-1.09,4.96-3.54Z"/>
        <path class="cls-1" d="M1579.79,443.73h-3.94l2.75-6.19-7.28-16.49h3.94l5.27,12.17,5.41-12.17h3.94l-10.1,22.68Z"/>
        <path class="cls-1" d="M1604.92,431.62l3.26.85c-.92,3.64-4.32,5.95-8.23,5.95-4.83,0-8.91-3.57-8.91-8.91s4.08-8.91,8.91-8.91c3.81,0,7.17,2.31,8.23,5.92l-3.4.99c-.65-2.48-2.58-3.64-4.83-3.64-3.13,0-5.44,2.31-5.44,5.64s2.31,5.64,5.44,5.64c2.24,0,4.15-1.09,4.96-3.54Z"/>
        <path class="cls-1" d="M1612.13,437.95v-24.48h3.54v24.48h-3.54Z"/>
        <path class="cls-1" d="M1637.52,437.95h-3.54v-1.94c-1.46,1.53-3.57,2.41-6.12,2.41-4.42,0-8.36-3.57-8.36-8.91s3.94-8.91,8.36-8.91c2.55,0,4.66.88,6.12,2.41v-1.94h3.54v16.86ZM1633.99,429.52c0-3.54-2.75-5.78-5.54-5.78-3.09,0-5.51,2.24-5.51,5.78s2.41,5.78,5.51,5.78c2.79,0,5.54-2.21,5.54-5.78Z"/>
        <path class="cls-1" d="M1658.94,436.45c0,5.03-3.47,7.96-8.74,7.96-4.05,0-6.87-1.53-8.23-4.04l2.89-2.14c1.26,1.97,2.65,2.99,5.34,2.99,3.2,0,5.3-2.01,5.3-5.27v-1.09c-1.29,1.36-3.23,2.11-5.81,2.11-4.32,0-8.26-3.5-8.26-8.19s3.94-8.13,8.26-8.13c2.58,0,4.52.75,5.81,2.11v-1.67h3.43v15.37ZM1655.51,428.77c0-3.13-2.48-5.13-5.24-5.13-3.03,0-5.41,2.01-5.41,5.13s2.38,5.13,5.41,5.13c2.75,0,5.24-2.04,5.24-5.13Z"/>
        <path class="cls-1" d="M1680.02,430.36h-13.67c.34,3.13,2.62,5,5.1,5,1.87,0,3.77-.54,4.96-2.92l3.16.68c-1.39,3.54-4.39,5.3-8.12,5.3-4.59,0-8.6-3.54-8.6-8.87s3.98-8.94,8.74-8.94,8.26,3.47,8.43,8.53v1.22ZM1666.46,427.85h9.93c-.54-2.75-2.48-4.11-4.79-4.11s-4.59,1.39-5.13,4.11Z"/>
        <path class="cls-1" d="M1436.26,456.82c0,1.26-.95,2.18-2.24,2.18s-2.28-.92-2.28-2.18c0-1.19.95-2.21,2.28-2.21s2.24,1.02,2.24,2.21ZM1432.25,478.75v-16.86h3.54v16.86h-3.54Z"/>
        <path class="cls-1" d="M1457.54,468.55v10.2h-3.57v-9.49c0-2.75-1.6-4.59-4.01-4.59-3.03,0-5.03,2.04-5.03,6.29v7.79h-3.54v-16.86h3.54v2.07c1.36-1.63,3.33-2.55,5.85-2.55,4.05,0,6.77,2.92,6.77,7.14Z"/>
        <path class="cls-1" d="M1473.69,477.93c-1.6.95-2.75,1.29-4.18,1.29-3.64,0-6.09-2.04-6.09-6.22v-8.19h-3.64v-2.92h3.64v-5.24h3.54v5.24h5.78v2.92h-5.78v7.96c0,2.11,1.12,3.13,2.79,3.13.88,0,1.97-.34,2.86-.92l1.09,2.96Z"/>
        <path class="cls-1" d="M1487.7,461.81l-.24,3.4c-.27-.03-.68-.03-.99-.03-4.28,0-6.39,2.99-6.39,7.62v5.95h-3.54v-16.86h3.54v3.6c1.36-2.24,3.5-3.81,6.43-3.81.41,0,.75,0,1.19.14Z"/>
        <path class="cls-1" d="M1507.01,478.75h-3.54v-1.94c-1.46,1.53-3.57,2.41-6.12,2.41-4.42,0-8.36-3.57-8.36-8.91s3.94-8.91,8.36-8.91c2.55,0,4.66.88,6.12,2.41v-1.94h3.54v16.86ZM1503.48,470.31c0-3.54-2.75-5.78-5.54-5.78-3.09,0-5.51,2.24-5.51,5.78s2.41,5.78,5.51,5.78c2.79,0,5.54-2.21,5.54-5.78Z"/>
        <path class="cls-1" d="M1511.74,471.61v-3.06h11.08v3.06h-11.08Z"/>
        <path class="cls-1" d="M1543.94,471.16h-13.67c.34,3.13,2.62,5,5.1,5,1.87,0,3.77-.54,4.96-2.92l3.16.68c-1.39,3.54-4.39,5.3-8.12,5.3-4.59,0-8.6-3.54-8.6-8.87s3.98-8.94,8.74-8.94,8.26,3.47,8.43,8.53v1.22ZM1530.37,468.65h9.93c-.54-2.75-2.48-4.11-4.79-4.11s-4.59,1.39-5.13,4.11Z"/>
        <path class="cls-1" d="M1549.96,473.48c.24,2.01,2.01,2.86,4.22,2.86,2.04,0,3.33-.92,3.33-2.24,0-1.02-.71-1.67-2.28-2.01l-3.67-.75c-2.92-.65-4.59-2.21-4.59-4.59,0-3.13,2.62-5.34,6.66-5.34s6.49,2.04,7.1,4.86l-3.37.71c-.27-1.63-1.67-2.75-3.84-2.75s-2.99,1.02-2.99,2.21c0,.95.54,1.56,2.04,1.9l4.01.88c2.72.58,4.39,2.18,4.39,4.56,0,3.54-2.89,5.44-7.11,5.44-3.77,0-7-1.6-7.45-5l3.54-.75Z"/>
        <path class="cls-1" d="M1583,470.31c0,5.34-3.94,8.91-8.36,8.91-2.55,0-4.66-.88-6.12-2.41v7.72h-3.54v-22.64h3.54v1.94c1.46-1.53,3.57-2.41,6.12-2.41,4.42,0,8.36,3.6,8.36,8.91ZM1579.57,470.31c0-3.54-2.41-5.78-5.51-5.78-2.79,0-5.54,2.24-5.54,5.78s2.75,5.78,5.54,5.78c3.09,0,5.51-2.21,5.51-5.78Z"/>
        <path class="cls-1" d="M1602.62,471.16h-13.67c.34,3.13,2.62,5,5.1,5,1.87,0,3.77-.54,4.96-2.92l3.16.68c-1.39,3.54-4.39,5.3-8.12,5.3-4.59,0-8.6-3.54-8.6-8.87s3.98-8.94,8.74-8.94,8.26,3.47,8.43,8.53v1.22ZM1589.06,454.64h4.15l2.48,4.83h-3.03l-3.6-4.83ZM1589.06,468.65h9.93c-.54-2.75-2.48-4.11-4.79-4.11s-4.59,1.39-5.13,4.11Z"/>
        <path class="cls-1" d="M1618.94,472.42l3.26.85c-.92,3.64-4.32,5.95-8.23,5.95-4.83,0-8.91-3.57-8.91-8.91s4.08-8.91,8.91-8.91c3.81,0,7.17,2.31,8.23,5.92l-3.4.99c-.65-2.48-2.58-3.64-4.83-3.64-3.13,0-5.44,2.31-5.44,5.64s2.31,5.64,5.44,5.64c2.24,0,4.15-1.09,4.96-3.54Z"/>
        <path class="cls-1" d="M1641.86,471.16h-13.67c.34,3.13,2.62,5,5.1,5,1.87,0,3.77-.54,4.96-2.92l3.16.68c-1.39,3.54-4.39,5.3-8.12,5.3-4.59,0-8.6-3.54-8.6-8.87s3.98-8.94,8.74-8.94,8.26,3.47,8.43,8.53v1.22ZM1628.29,468.65h9.93c-.54-2.75-2.48-4.11-4.79-4.11s-4.59,1.39-5.13,4.11Z"/>
        <path class="cls-1" d="M1648.62,476.71c0,1.22-.92,2.18-2.21,2.18s-2.24-.95-2.24-2.18c0-1.16.95-2.14,2.24-2.14s2.21.99,2.21,2.14Z"/>
      </g>
    </g>
  </g>
</svg>