<?xml version="1.0" encoding="UTF-8"?>
<svg id="_Слой_2" data-name="Слой 2" xmlns="http://www.w3.org/2000/svg" viewBox="0 0 1283.8 594.49">
  <defs>
    <style>
      .cls-1 {
        fill: rgba(231, 51, 83, .95);
      }

      .cls-1, .cls-2 {
        stroke-width: 0px;
      }

      .cls-2 {
        fill: #fff;
      }
    </style>
  </defs>
  <g id="Calque_1" data-name="Calque 1">
    <g>
      <rect class="cls-1" width="1283.8" height="594.49" rx="44.38" ry="44.38"/>
      <g>
        <path class="cls-2" d="M574.35,284.08c.1,1.15.15,2.1.15,2.9,0,9.95-7.1,17.4-17,17.4s-17.8-7.65-17.8-17.5,7.75-17.5,17.6-17.5c7.05,0,13.7,3.3,16.1,10.1l-6.1,2.15c-2.45-4.7-6.35-5.85-10-5.85-6,0-10.7,4.8-10.7,11.1s4.85,11.15,11.1,11.15c5.1,0,8.9-3,10.05-7.75h-11.75v-6.2h18.35Z"/>
        <path class="cls-2" d="M603.55,292.93h-19c.65,3.6,3.2,5.8,6.25,5.8,1.95,0,4.4-.25,6.2-3.3l5.9,1.25c-2.2,5.2-6.65,7.7-12.1,7.7-7.05,0-12.8-5.35-12.8-13.2s5.75-13.25,12.9-13.25c6.65,0,12.4,5.15,12.65,12.75v2.25ZM584.75,288.28h12.05c-.85-3.2-3.25-4.6-5.9-4.6-2.5,0-5.35,1.5-6.15,4.6ZM588.4,275.28l3.3-7.2h7.75l-5.45,7.2h-5.6Z"/>
        <path class="cls-2" d="M608.55,303.63v-36h6.6v36h-6.6Z"/>
        <path class="cls-2" d="M647.25,303.63h-6.6v-1.95c-2.1,1.7-4.85,2.7-8.25,2.7-6.35,0-12.25-5.35-12.25-13.2s5.9-13.25,12.25-13.25c3.4,0,6.15,1,8.25,2.75v-2h6.6v24.95ZM640.65,291.18c0-4.6-3.55-7.5-7.1-7.5-4,0-7,2.9-7,7.5s3,7.45,7,7.45c3.55,0,7.1-2.85,7.1-7.45Z"/>
        <path class="cls-2" d="M672.4,302.53c-2.6,1.4-4.4,1.85-6.5,1.85-5.9,0-9.8-3.1-9.8-9.95v-10.35h-5.35v-5.4h5.35v-7.55h6.6v7.55h8.15v5.4h-8.15v9.85c0,3,1.45,4.3,3.65,4.3,1.15,0,2.85-.5,4.15-1.2l1.9,5.5Z"/>
        <path class="cls-2" d="M683.6,271.23c0,2.2-1.7,3.85-4,3.85s-4-1.65-4-3.85,1.65-3.95,4-3.95,4,1.85,4,3.95ZM676.3,303.63v-24.95h6.6v24.95h-6.6Z"/>
        <path class="cls-2" d="M714.7,288.43v15.2h-6.6v-13.8c0-3.5-2-5.85-5.05-5.85-3.75,0-6.2,2.5-6.2,8.6v11.05h-6.6v-24.95h6.6v2.25c1.95-1.95,4.55-3,7.85-3,6,0,10,4.3,10,10.5Z"/>
        <path class="cls-2" d="M744.6,292.93h-19c.65,3.6,3.2,5.8,6.25,5.8,1.95,0,4.4-.25,6.2-3.3l5.9,1.25c-2.2,5.2-6.65,7.7-12.1,7.7-7.05,0-12.8-5.35-12.8-13.2s5.75-13.25,12.9-13.25c6.65,0,12.4,5.15,12.65,12.75v2.25ZM725.8,288.28h12.05c-.85-3.2-3.25-4.6-5.9-4.6-2.5,0-5.35,1.5-6.15,4.6Z"/>
      </g>
      <g>
        <path class="cls-2" d="M595.81,349.26c0,6.59-5.24,11.83-11.9,11.83s-11.86-5.24-11.86-11.83,5.2-11.9,11.86-11.9,11.9,5.27,11.9,11.9ZM592.14,349.26c0-4.83-3.6-8.47-8.23-8.47s-8.19,3.64-8.19,8.47,3.6,8.4,8.19,8.4,8.23-3.6,8.23-8.4Z"/>
        <path class="cls-2" d="M601.83,355.34c.24,2.01,2.01,2.86,4.22,2.86,2.04,0,3.33-.92,3.33-2.24,0-1.02-.71-1.67-2.28-2.01l-3.67-.75c-2.92-.65-4.59-2.21-4.59-4.59,0-3.13,2.62-5.34,6.66-5.34s6.49,2.04,7.1,4.86l-3.37.71c-.27-1.63-1.67-2.75-3.84-2.75s-2.99,1.02-2.99,2.21c0,.95.54,1.56,2.04,1.9l4.01.88c2.72.58,4.39,2.18,4.39,4.55,0,3.54-2.89,5.44-7.11,5.44-3.77,0-7-1.6-7.45-5l3.54-.75Z"/>
        <path class="cls-2" d="M614.31,365.1l2.14-9.04h4.11v.1l-3.57,8.94h-2.69Z"/>
        <path class="cls-2" d="M650.82,352.18c0,5.34-3.94,8.91-8.36,8.91-2.55,0-4.66-.88-6.12-2.41v7.72h-3.54v-22.64h3.54v1.94c1.46-1.53,3.57-2.41,6.12-2.41,4.42,0,8.36,3.6,8.36,8.91ZM647.39,352.18c0-3.54-2.41-5.78-5.51-5.78-2.79,0-5.54,2.24-5.54,5.78s2.75,5.78,5.54,5.78c3.09,0,5.51-2.21,5.51-5.78Z"/>
        <path class="cls-2" d="M670.44,353.03h-13.67c.34,3.13,2.62,5,5.1,5,1.87,0,3.77-.54,4.96-2.92l3.16.68c-1.39,3.54-4.39,5.3-8.12,5.3-4.59,0-8.6-3.54-8.6-8.87s3.98-8.94,8.74-8.94,8.26,3.47,8.43,8.53v1.22ZM656.87,350.51h9.93c-.54-2.75-2.48-4.11-4.79-4.11s-4.59,1.39-5.13,4.11Z"/>
        <path class="cls-2" d="M690.84,360.61h-3.54v-1.94c-1.46,1.53-3.57,2.41-6.12,2.41-4.42,0-8.36-3.57-8.36-8.91s3.94-8.91,8.36-8.91c2.55,0,4.66.88,6.12,2.41v-1.94h3.54v16.86ZM687.3,352.18c0-3.54-2.75-5.78-5.54-5.78-3.09,0-5.51,2.24-5.51,5.78s2.41,5.78,5.51,5.78c2.79,0,5.54-2.21,5.54-5.78Z"/>
        <path class="cls-2" d="M711.92,360.61h-3.54v-2.07c-1.36,1.63-3.33,2.55-5.81,2.55-4.08,0-6.77-2.92-6.77-7.17v-10.17h3.54v9.45c0,2.75,1.6,4.62,4.05,4.62,3.03,0,5-2.04,5-6.29v-7.79h3.54v16.86Z"/>
        <path class="cls-2" d="M720.59,358.57c0,1.22-.92,2.18-2.21,2.18s-2.24-.95-2.24-2.18c0-1.16.95-2.14,2.24-2.14s2.21.99,2.21,2.14Z"/>
      </g>
    </g>
  </g>
</svg>