<?xml version="1.0" encoding="UTF-8"?>
<svg id="_Слой_2" data-name="Слой 2" xmlns="http://www.w3.org/2000/svg" viewBox="0 0 1734.72 594.49">
  <defs>
    <style>
      .cls-1 {
        fill: #fff;
      }

      .cls-1, .cls-2 {
        stroke-width: 0px;
      }

      .cls-2 {
        fill: #ec665a;
      }
    </style>
  </defs>
  <g id="Calque_1" data-name="Calque 1">
    <g>
      <rect class="cls-2" width="540" height="594.49" rx="44.38" ry="44.38"/>
      <rect class="cls-2" x="596.98" width="540" height="594.49" rx="44.38" ry="44.38"/>
      <rect class="cls-2" x="1194.72" width="540" height="594.49" rx="44.38" ry="44.38"/>
      <g>
        <path class="cls-1" d="M201.7,284.08c.1,1.15.15,2.1.15,2.9,0,9.95-7.1,17.4-17,17.4s-17.8-7.65-17.8-17.5,7.75-17.5,17.6-17.5c7.05,0,13.7,3.3,16.1,10.1l-6.1,2.15c-2.45-4.7-6.35-5.85-10-5.85-6,0-10.7,4.8-10.7,11.1s4.85,11.15,11.1,11.15c5.1,0,8.9-3,10.05-7.75h-11.75v-6.2h18.35Z"/>
        <path class="cls-1" d="M224.65,278.53l-.35,6.35h-1.45c-6.1,0-8.9,3.75-8.9,10.7v8.05h-6.6v-24.95h6.6v4.55c2-2.9,4.9-4.9,8.95-4.9.65,0,1.15,0,1.75.2Z"/>
        <path class="cls-1" d="M253.65,303.63h-6.6v-1.95c-2.1,1.7-4.85,2.7-8.25,2.7-6.35,0-12.25-5.35-12.25-13.2s5.9-13.25,12.25-13.25c3.4,0,6.15,1,8.25,2.75v-2h6.6v24.95ZM247.05,291.18c0-4.6-3.55-7.5-7.1-7.5-4,0-7,2.9-7,7.5s3,7.45,7,7.45c3.55,0,7.1-2.85,7.1-7.45Z"/>
        <path class="cls-1" d="M268.3,271.23c0,2.2-1.7,3.85-4,3.85s-4-1.65-4-3.85,1.65-3.95,4-3.95,4,1.85,4,3.95ZM261,303.63v-24.95h6.6v24.95h-6.6Z"/>
        <path class="cls-1" d="M279.5,295.68c.35,2.55,2.55,3.4,5.15,3.4,2.45,0,3.9-1.1,3.9-2.5,0-.9-.6-1.8-2.75-2.25l-5.1-1.05c-4.5-.95-7.05-3.5-7.05-7.1,0-4.8,3.9-8.25,10.2-8.25,5.9,0,10,3.05,10.85,7.4l-6.3,1.25c-.25-2-2-3.45-4.75-3.45s-3.4,1.3-3.4,2.45c0,.8.3,1.65,2.25,2.1l5.95,1.3c4.4.95,6.55,3.7,6.55,7.05,0,5.5-4.45,8.35-10.95,8.35-5.5,0-10.55-2.15-11.2-7.35l6.65-1.35Z"/>
        <path class="cls-1" d="M304.15,295.68c.35,2.55,2.55,3.4,5.15,3.4,2.45,0,3.9-1.1,3.9-2.5,0-.9-.6-1.8-2.75-2.25l-5.1-1.05c-4.5-.95-7.05-3.5-7.05-7.1,0-4.8,3.9-8.25,10.2-8.25,5.9,0,10,3.05,10.85,7.4l-6.3,1.25c-.25-2-2-3.45-4.75-3.45s-3.4,1.3-3.4,2.45c0,.8.3,1.65,2.25,2.1l5.95,1.3c4.4.95,6.55,3.7,6.55,7.05,0,5.5-4.45,8.35-10.95,8.35-5.5,0-10.55-2.15-11.2-7.35l6.65-1.35Z"/>
        <path class="cls-1" d="M348.3,292.93h-19c.65,3.6,3.2,5.8,6.25,5.8,1.95,0,4.4-.25,6.2-3.3l5.9,1.25c-2.2,5.2-6.65,7.7-12.1,7.7-7.05,0-12.8-5.35-12.8-13.2s5.75-13.25,12.9-13.25c6.65,0,12.4,5.15,12.65,12.75v2.25ZM329.5,288.28h12.05c-.85-3.2-3.25-4.6-5.9-4.6-2.5,0-5.35,1.5-6.15,4.6Z"/>
        <path class="cls-1" d="M357.85,295.68c.35,2.55,2.55,3.4,5.15,3.4,2.45,0,3.9-1.1,3.9-2.5,0-.9-.6-1.8-2.75-2.25l-5.1-1.05c-4.5-.95-7.05-3.5-7.05-7.1,0-4.8,3.9-8.25,10.2-8.25,5.9,0,10,3.05,10.85,7.4l-6.3,1.25c-.25-2-2-3.45-4.75-3.45s-3.4,1.3-3.4,2.45c0,.8.3,1.65,2.25,2.1l5.95,1.3c4.4.95,6.55,3.7,6.55,7.05,0,5.5-4.45,8.35-10.95,8.35-5.5,0-10.55-2.15-11.2-7.35l6.65-1.35Z"/>
      </g>
      <g>
        <path class="cls-1" d="M799.43,284.08c.1,1.15.15,2.1.15,2.9,0,9.95-7.1,17.4-17,17.4s-17.8-7.65-17.8-17.5,7.75-17.5,17.6-17.5c7.05,0,13.7,3.3,16.1,10.1l-6.1,2.15c-2.45-4.7-6.35-5.85-10-5.85-6,0-10.7,4.8-10.7,11.1s4.85,11.15,11.1,11.15c5.1,0,8.9-3,10.05-7.75h-11.75v-6.2h18.35Z"/>
        <path class="cls-1" d="M828.63,292.93h-19c.65,3.6,3.2,5.8,6.25,5.8,1.95,0,4.4-.25,6.2-3.3l5.9,1.25c-2.2,5.2-6.65,7.7-12.1,7.7-7.05,0-12.8-5.35-12.8-13.2s5.75-13.25,12.9-13.25c6.65,0,12.4,5.15,12.65,12.75v2.25ZM809.83,288.28h12.05c-.85-3.2-3.25-4.6-5.9-4.6-2.5,0-5.35,1.5-6.15,4.6ZM813.48,275.28l3.3-7.2h7.75l-5.45,7.2h-5.6Z"/>
        <path class="cls-1" d="M833.63,303.63v-36h6.6v36h-6.6Z"/>
        <path class="cls-1" d="M872.33,303.63h-6.6v-1.95c-2.1,1.7-4.85,2.7-8.25,2.7-6.35,0-12.25-5.35-12.25-13.2s5.9-13.25,12.25-13.25c3.4,0,6.15,1,8.25,2.75v-2h6.6v24.95ZM865.73,291.18c0-4.6-3.55-7.5-7.1-7.5-4,0-7,2.9-7,7.5s3,7.45,7,7.45c3.55,0,7.1-2.85,7.1-7.45Z"/>
        <path class="cls-1" d="M897.48,302.53c-2.6,1.4-4.4,1.85-6.5,1.85-5.9,0-9.8-3.1-9.8-9.95v-10.35h-5.35v-5.4h5.35v-7.55h6.6v7.55h8.15v5.4h-8.15v9.85c0,3,1.45,4.3,3.65,4.3,1.15,0,2.85-.5,4.15-1.2l1.9,5.5Z"/>
        <path class="cls-1" d="M908.68,271.23c0,2.2-1.7,3.85-4,3.85s-4-1.65-4-3.85,1.65-3.95,4-3.95,4,1.85,4,3.95ZM901.38,303.63v-24.95h6.6v24.95h-6.6Z"/>
        <path class="cls-1" d="M939.78,288.43v15.2h-6.6v-13.8c0-3.5-2-5.85-5.05-5.85-3.75,0-6.2,2.5-6.2,8.6v11.05h-6.6v-24.95h6.6v2.25c1.95-1.95,4.55-3,7.85-3,6,0,10,4.3,10,10.5Z"/>
        <path class="cls-1" d="M969.68,292.93h-19c.65,3.6,3.2,5.8,6.25,5.8,1.95,0,4.4-.25,6.2-3.3l5.9,1.25c-2.2,5.2-6.65,7.7-12.1,7.7-7.05,0-12.8-5.35-12.8-13.2s5.75-13.25,12.9-13.25c6.65,0,12.4,5.15,12.65,12.75v2.25ZM950.88,288.28h12.05c-.85-3.2-3.25-4.6-5.9-4.6-2.5,0-5.35,1.5-6.15,4.6Z"/>
      </g>
      <g>
        <path class="cls-1" d="M1349.05,286.53c2.75.35,5.85,3.05,5.85,7.8,0,5.45-3.35,9.3-10.8,9.3h-16.55v-33.5h16.5c6.05,0,9.9,3.7,9.9,9.3,0,4.25-2.9,6.55-4.9,6.9v.2ZM1334.35,284.13h8.5c2.7,0,4.5-1.7,4.5-4.3,0-2.35-1.85-3.9-4.05-3.9h-8.95v8.2ZM1343.35,297.83c3.05,0,4.6-1.65,4.6-4.15s-1.8-4.15-4.35-4.15h-9.25v8.3h9Z"/>
        <path class="cls-1" d="M1385.55,291.18c0,7.85-6.15,13.1-13.45,13.1s-13.6-5.25-13.6-13.1,6.15-13.1,13.6-13.1,13.45,5.25,13.45,13.1ZM1379.15,291.18c0-4.65-3.6-7.45-7.05-7.45s-7.2,2.8-7.2,7.45,3.6,7.45,7.2,7.45,7.05-2.8,7.05-7.45Z"/>
        <path class="cls-1" d="M1400.5,312.13h-7.35l4-9.3-10.35-24.2h7.35l6.6,15.95,6.9-15.95h7.35l-14.5,33.5Z"/>
        <path class="cls-1" d="M1443.35,303.63h-6.6v-1.95c-2.1,1.7-4.85,2.7-8.25,2.7-6.35,0-12.25-5.35-12.25-13.2s5.9-13.25,12.25-13.25c3.4,0,6.15,1,8.25,2.75v-2h6.6v24.95ZM1436.75,291.18c0-4.6-3.55-7.5-7.1-7.5-4,0-7,2.9-7,7.5s3,7.45,7,7.45c3.55,0,7.1-2.85,7.1-7.45Z"/>
        <path class="cls-1" d="M1474.15,303.63h-6.6v-2.25c-1.95,1.95-4.55,3-7.85,3-6,0-10-4.3-10-10.5v-15.2h6.6v13.8c0,3.5,2,5.85,5.05,5.85,3.75,0,6.2-2.5,6.2-8.6v-11.05h6.6v24.95Z"/>
        <path class="cls-1" d="M1506.25,303.63h-6.6v-1.95c-2.1,1.7-4.85,2.7-8.25,2.7-6.35,0-12.25-5.35-12.25-13.2s5.9-13.25,12.25-13.25c3.4,0,6.15,1,8.25,2.75v-13.05h6.6v36ZM1499.65,291.18c0-4.6-3.55-7.5-7.1-7.5-4,0-7,2.9-7,7.5s3,7.45,7,7.45c3.55,0,7.1-2.85,7.1-7.45Z"/>
        <path class="cls-1" d="M1536.8,292.93h-19c.65,3.6,3.2,5.8,6.25,5.8,1.95,0,4.4-.25,6.2-3.3l5.9,1.25c-2.2,5.2-6.65,7.7-12.1,7.7-7.05,0-12.8-5.35-12.8-13.2s5.75-13.25,12.9-13.25c6.65,0,12.4,5.15,12.65,12.75v2.25ZM1518,288.28h12.05c-.85-3.2-3.25-4.6-5.9-4.6-2.5,0-5.35,1.5-6.15,4.6Z"/>
        <path class="cls-1" d="M1559.1,278.53l-.35,6.35h-1.45c-6.1,0-8.9,3.75-8.9,10.7v8.05h-6.6v-24.95h6.6v4.55c2-2.9,4.9-4.9,8.95-4.9.65,0,1.15,0,1.75.2Z"/>
        <path class="cls-1" d="M1570.9,271.23c0,2.2-1.7,3.85-4,3.85s-4-1.65-4-3.85,1.65-3.95,4-3.95,4,1.85,4,3.95ZM1563.6,303.63v-24.95h6.6v24.95h-6.6Z"/>
        <path class="cls-1" d="M1601.1,292.93h-19c.65,3.6,3.2,5.8,6.25,5.8,1.95,0,4.4-.25,6.2-3.3l5.9,1.25c-2.2,5.2-6.65,7.7-12.1,7.7-7.05,0-12.8-5.35-12.8-13.2s5.75-13.25,12.9-13.25c6.65,0,12.4,5.15,12.65,12.75v2.25ZM1582.3,288.28h12.05c-.85-3.2-3.25-4.6-5.9-4.6-2.5,0-5.35,1.5-6.15,4.6Z"/>
      </g>
    </g>
  </g>
</svg>