<?xml version="1.0" encoding="UTF-8"?>
<svg id="_Слой_2" data-name="Слой 2" xmlns="http://www.w3.org/2000/svg" viewBox="0 0 1723.13 668.55">
  <defs>
    <style>
      .cls-1 {
        fill: #75acbe;
      }

      .cls-1, .cls-2, .cls-3, .cls-4, .cls-5, .cls-6, .cls-7, .cls-8, .cls-9, .cls-10, .cls-11, .cls-12, .cls-13, .cls-14, .cls-15, .cls-16, .cls-17, .cls-18, .cls-19, .cls-20, .cls-21, .cls-22, .cls-23, .cls-24, .cls-25, .cls-26, .cls-27 {
        stroke-width: 0px;
      }

      .cls-2 {
        fill: #00983a;
      }

      .cls-3 {
        fill: #7c1819;
      }

      .cls-4 {
        fill: #c75548;
      }

      .cls-5 {
        fill: #ee9960;
      }

      .cls-6 {
        fill: #ee7d2c;
      }

      .cls-7 {
        fill: #99332b;
      }

      .cls-8 {
        fill: #c0d7f1;
      }

      .cls-9 {
        fill: #5f97a5;
      }

      .cls-10 {
        fill: #9dadd9;
      }

      .cls-11 {
        fill: #fff;
      }

      .cls-12 {
        fill: #ef9a4b;
      }

      .cls-13 {
        fill: #4b392d;
      }

      .cls-14 {
        fill: #596aa8;
      }

      .cls-15 {
        fill: #2c488c;
      }

      .cls-16 {
        fill: #f7b17f;
      }

      .cls-17 {
        fill: #f49649;
      }

      .cls-18 {
        fill: #2d3a64;
      }

      .cls-19 {
        fill: #a0bfe5;
      }

      .cls-20 {
        fill: #dfeffb;
      }

      .cls-21 {
        fill: #c5463b;
      }

      .cls-22 {
        fill: #243862;
      }

      .cls-28 {
        fill: none;
        stroke: #9dadd9;
        stroke-linecap: round;
        stroke-miterlimit: 10;
        stroke-width: 1.96px;
      }

      .cls-23 {
        fill: #fee9d6;
      }

      .cls-24 {
        fill: #e57a71;
      }

      .cls-25 {
        fill: #004e29;
      }

      .cls-26 {
        fill: #d76716;
      }

      .cls-27 {
        fill: #ab423f;
      }
    </style>
  </defs>
  <g id="Calque_1" data-name="Calque 1">
    <g>
      <line class="cls-28" x1="566.72" y1="57.41" x2="566.72" y2="667.57"/>
      <g>
        <path class="cls-14" d="M31.24,397.53c0,3.87-3.15,7.04-7.04,7.04H7.04c-3.89,0-7.04-3.17-7.04-7.04v-17.16c0-3.89,3.15-7.04,7.04-7.04h17.16c3.89,0,7.04,3.15,7.04,7.04v17.16ZM5.59,389.04h18.28l-5.94,5.92c-.15.15-.22.33-.22.53,0,.4.33.75.75.75.2,0,.37-.07.53-.22l7.17-7.2c.13-.13.22-.33.22-.53s-.07-.37-.22-.53l-7.17-7.17c-.15-.15-.33-.22-.53-.22-.37,0-.75.33-.75.75,0,.2.07.37.22.53l5.94,5.92H5.59c-.42,0-.75.33-.75.73,0,.42.33.75.75.75Z"/>
        <path class="cls-14" d="M61.04,387.31l3.54.75c-1.26,5.34-5.68,8.43-11.05,8.43-6.63,0-11.86-5.2-11.86-11.86s5.24-11.87,11.86-11.87c5.37,0,9.76,3.13,11.05,8.16l-3.54,1.02c-1.02-3.84-3.94-5.75-7.51-5.75-4.59,0-8.19,3.64-8.19,8.43s3.6,8.43,8.19,8.43c3.57,0,6.49-1.9,7.51-5.75Z"/>
        <path class="cls-14" d="M85.52,387.58c0,5.24-4.05,8.84-9.01,8.84s-9.08-3.6-9.08-8.84,4.08-8.81,9.08-8.81,9.01,3.57,9.01,8.81ZM82.09,387.58c0-3.5-2.69-5.78-5.58-5.78s-5.61,2.28-5.61,5.78,2.65,5.78,5.61,5.78,5.58-2.28,5.58-5.78Z"/>
        <path class="cls-14" d="M89.46,396.01v-24.48h3.54v24.48h-3.54Z"/>
        <path class="cls-14" d="M98.37,396.01v-24.48h3.54v24.48h-3.54Z"/>
        <path class="cls-14" d="M122.99,388.43h-13.67c.34,3.13,2.62,5,5.1,5,1.87,0,3.77-.54,4.96-2.92l3.16.68c-1.39,3.54-4.39,5.3-8.12,5.3-4.59,0-8.6-3.54-8.6-8.87s3.98-8.94,8.74-8.94,8.26,3.47,8.43,8.53v1.22ZM109.42,385.92h9.93c-.54-2.75-2.48-4.11-4.79-4.11s-4.59,1.39-5.13,4.11Z"/>
        <path class="cls-14" d="M139.31,389.69l3.26.85c-.92,3.64-4.32,5.95-8.23,5.95-4.83,0-8.91-3.57-8.91-8.91s4.08-8.91,8.91-8.91c3.81,0,7.17,2.31,8.23,5.92l-3.4.99c-.65-2.48-2.58-3.64-4.83-3.64-3.13,0-5.44,2.31-5.44,5.64s2.31,5.64,5.44,5.64c2.24,0,4.15-1.09,4.96-3.54Z"/>
        <path class="cls-14" d="M157.73,395.2c-1.6.95-2.75,1.29-4.18,1.29-3.64,0-6.09-2.04-6.09-6.22v-8.19h-3.64v-2.92h3.64v-5.24h3.54v5.24h5.78v2.92h-5.78v7.96c0,2.11,1.12,3.13,2.79,3.13.88,0,1.97-.34,2.86-.92l1.09,2.96Z"/>
        <path class="cls-14" d="M175.86,388.43h-13.67c.34,3.13,2.62,5,5.1,5,1.87,0,3.77-.54,4.96-2.92l3.16.68c-1.39,3.54-4.39,5.3-8.12,5.3-4.59,0-8.6-3.54-8.6-8.87s3.98-8.94,8.74-8.94,8.26,3.47,8.43,8.53v1.22ZM162.29,385.92h9.93c-.54-2.75-2.48-4.11-4.79-4.11s-4.59,1.39-5.13,4.11Z"/>
        <path class="cls-14" d="M204.76,396.01h-3.57v-1.9c-1.5,1.5-3.57,2.38-6.12,2.38-4.39,0-8.36-3.57-8.36-8.91s3.98-8.91,8.36-8.91c2.55,0,4.62.88,6.12,2.41v-9.55h3.57v24.48ZM201.19,387.58c0-3.54-2.72-5.78-5.54-5.78-3.06,0-5.47,2.24-5.47,5.78s2.41,5.78,5.47,5.78c2.82,0,5.54-2.21,5.54-5.78Z"/>
        <path class="cls-14" d="M225.8,388.43h-13.67c.34,3.13,2.62,5,5.1,5,1.87,0,3.77-.54,4.96-2.92l3.16.68c-1.39,3.54-4.39,5.3-8.12,5.3-4.59,0-8.6-3.54-8.6-8.87s3.98-8.94,8.74-8.94,8.26,3.47,8.43,8.53v1.22ZM212.24,385.92h9.93c-.54-2.75-2.48-4.11-4.79-4.11s-4.59,1.39-5.13,4.11Z"/>
        <path class="cls-14" d="M256.13,387.58c0,5.34-3.94,8.91-8.36,8.91-2.55,0-4.66-.88-6.12-2.41v7.72h-3.54v-22.64h3.54v1.94c1.46-1.53,3.57-2.41,6.12-2.41,4.42,0,8.36,3.6,8.36,8.91ZM252.7,387.58c0-3.54-2.41-5.78-5.51-5.78-2.79,0-5.54,2.24-5.54,5.78s2.75,5.78,5.54,5.78c3.09,0,5.51-2.21,5.51-5.78Z"/>
        <path class="cls-14" d="M275.75,388.43h-13.67c.34,3.13,2.62,5,5.1,5,1.87,0,3.77-.54,4.96-2.92l3.16.68c-1.39,3.54-4.39,5.3-8.12,5.3-4.59,0-8.6-3.54-8.6-8.87s3.98-8.94,8.74-8.94,8.26,3.47,8.43,8.53v1.22ZM262.18,385.92h9.93c-.54-2.75-2.48-4.11-4.79-4.11s-4.59,1.39-5.13,4.11Z"/>
        <path class="cls-14" d="M296.15,396.01h-3.54v-1.94c-1.46,1.53-3.57,2.41-6.12,2.41-4.42,0-8.36-3.57-8.36-8.91s3.94-8.91,8.36-8.91c2.55,0,4.66.88,6.12,2.41v-1.94h3.54v16.86ZM292.61,387.58c0-3.54-2.75-5.78-5.54-5.78-3.09,0-5.51,2.24-5.51,5.78s2.41,5.78,5.51,5.78c2.79,0,5.54-2.21,5.54-5.78Z"/>
        <path class="cls-14" d="M317.23,396.01h-3.54v-2.07c-1.36,1.63-3.33,2.55-5.81,2.55-4.08,0-6.77-2.92-6.77-7.17v-10.17h3.54v9.45c0,2.75,1.6,4.62,4.05,4.62,3.03,0,5-2.04,5-6.29v-7.79h3.54v16.86Z"/>
        <path class="cls-14" d="M338.51,396.01h-4.25l-4.42-6.08-4.42,6.08h-4.22l6.05-8.26-6.05-8.64h4.22l4.42,6.39,4.42-6.39h4.25l-6.05,8.64,6.05,8.26Z"/>
        <path class="cls-14" d="M31.24,449.53c0,3.87-3.15,7.04-7.04,7.04H7.04c-3.89,0-7.04-3.17-7.04-7.04v-17.16c0-3.89,3.15-7.04,7.04-7.04h17.16c3.89,0,7.04,3.15,7.04,7.04v17.16ZM5.59,441.04h18.28l-5.94,5.92c-.15.15-.22.33-.22.53,0,.4.33.75.75.75.2,0,.37-.07.53-.22l7.17-7.2c.13-.13.22-.33.22-.53s-.07-.37-.22-.53l-7.17-7.17c-.15-.15-.33-.22-.53-.22-.37,0-.75.33-.75.75,0,.2.07.37.22.53l5.94,5.92H5.59c-.42,0-.75.33-.75.73,0,.42.33.75.75.75Z"/>
        <path class="cls-14" d="M59.44,431.19l-3.64.75c-.41-2.41-2.48-4.01-5.2-4.01s-4.45,1.46-4.45,3.47c0,1.6.92,2.45,2.89,2.86l4.93,1.05c3.4.75,5.85,2.65,5.85,6.22,0,4.28-3.5,6.97-8.74,6.97-4.83,0-8.84-2.35-9.42-6.76l3.88-.82c.54,2.92,2.82,4.35,5.88,4.35s4.79-1.46,4.79-3.54c0-1.73-.92-2.55-3.2-3.03l-4.96-1.02c-2.82-.65-5.75-2.14-5.75-6.19s3.3-6.73,8.36-6.73c4.62,0,7.96,2.52,8.77,6.43Z"/>
        <path class="cls-14" d="M80.76,448.01h-3.54v-1.94c-1.46,1.53-3.57,2.41-6.12,2.41-4.42,0-8.36-3.57-8.36-8.91s3.94-8.91,8.36-8.91c2.55,0,4.66.88,6.12,2.41v-1.94h3.54v16.86ZM77.22,439.58c0-3.54-2.75-5.78-5.54-5.78-3.09,0-5.51,2.24-5.51,5.78s2.41,5.78,5.51,5.78c2.79,0,5.54-2.21,5.54-5.78Z"/>
        <path class="cls-14" d="M86.13,448.01v-24.48h3.54v24.48h-3.54Z"/>
        <path class="cls-14" d="M111.53,448.01h-3.54v-1.94c-1.46,1.53-3.57,2.41-6.12,2.41-4.42,0-8.36-3.57-8.36-8.91s3.94-8.91,8.36-8.91c2.55,0,4.66.88,6.12,2.41v-1.94h3.54v16.86ZM107.99,439.58c0-3.54-2.75-5.78-5.54-5.78-3.09,0-5.51,2.24-5.51,5.78s2.41,5.78,5.51,5.78c2.79,0,5.54-2.21,5.54-5.78Z"/>
        <path class="cls-14" d="M132.95,446.52c0,5.03-3.47,7.96-8.74,7.96-4.05,0-6.87-1.53-8.23-4.04l2.89-2.14c1.26,1.97,2.65,2.99,5.34,2.99,3.2,0,5.3-2.01,5.3-5.27v-1.09c-1.29,1.36-3.23,2.11-5.81,2.11-4.32,0-8.26-3.5-8.26-8.19s3.94-8.13,8.26-8.13c2.58,0,4.52.75,5.81,2.11v-1.67h3.43v15.37ZM129.52,438.84c0-3.13-2.48-5.13-5.24-5.13-3.03,0-5.41,2.01-5.41,5.13s2.38,5.13,5.41,5.13c2.75,0,5.24-2.04,5.24-5.13Z"/>
        <path class="cls-14" d="M154.03,440.43h-13.67c.34,3.13,2.62,5,5.1,5,1.87,0,3.77-.54,4.96-2.92l3.16.68c-1.39,3.54-4.39,5.3-8.12,5.3-4.59,0-8.6-3.54-8.6-8.87s3.98-8.94,8.74-8.94,8.26,3.47,8.43,8.53v1.22ZM140.46,437.92h9.93c-.54-2.75-2.48-4.11-4.79-4.11s-4.59,1.39-5.13,4.11Z"/>
        <path class="cls-14" d="M31.24,501.53c0,3.87-3.15,7.04-7.04,7.04H7.04c-3.89,0-7.04-3.17-7.04-7.04v-17.16c0-3.89,3.15-7.04,7.04-7.04h17.16c3.89,0,7.04,3.15,7.04,7.04v17.16ZM5.59,493.04h18.28l-5.94,5.92c-.15.15-.22.33-.22.53,0,.4.33.75.75.75.2,0,.37-.07.53-.22l7.17-7.2c.13-.13.22-.33.22-.53s-.07-.37-.22-.53l-7.17-7.17c-.15-.15-.33-.22-.53-.22-.37,0-.75.33-.75.75,0,.2.07.37.22.53l5.94,5.92H5.59c-.42,0-.75.33-.75.73,0,.42.33.75.75.75Z"/>
        <path class="cls-14" d="M61.04,491.31l3.54.75c-1.26,5.34-5.68,8.43-11.05,8.43-6.63,0-11.86-5.2-11.86-11.86s5.24-11.87,11.86-11.87c5.37,0,9.76,3.13,11.05,8.16l-3.54,1.02c-1.02-3.84-3.94-5.75-7.51-5.75-4.59,0-8.19,3.64-8.19,8.43s3.6,8.43,8.19,8.43c3.57,0,6.49-1.9,7.51-5.75Z"/>
        <path class="cls-14" d="M68.9,500.01v-24.48h3.54v24.48h-3.54Z"/>
        <path class="cls-14" d="M94.29,500.01h-3.54v-1.94c-1.46,1.53-3.57,2.41-6.12,2.41-4.42,0-8.36-3.57-8.36-8.91s3.94-8.91,8.36-8.91c2.55,0,4.66.88,6.12,2.41v-1.94h3.54v16.86ZM90.76,491.58c0-3.54-2.75-5.78-5.54-5.78-3.09,0-5.51,2.24-5.51,5.78s2.41,5.78,5.51,5.78c2.79,0,5.54-2.21,5.54-5.78Z"/>
        <path class="cls-14" d="M101.77,494.74c.24,2.01,2.01,2.86,4.22,2.86,2.04,0,3.33-.92,3.33-2.24,0-1.02-.71-1.67-2.28-2.01l-3.67-.75c-2.92-.65-4.59-2.21-4.59-4.59,0-3.13,2.62-5.34,6.66-5.34s6.49,2.04,7.1,4.86l-3.37.71c-.27-1.63-1.67-2.75-3.84-2.75s-2.99,1.02-2.99,2.21c0,.95.54,1.56,2.04,1.9l4.01.88c2.72.58,4.39,2.18,4.39,4.55,0,3.54-2.89,5.44-7.11,5.44-3.77,0-7-1.6-7.45-5l3.54-.75Z"/>
        <path class="cls-14" d="M118.53,494.74c.24,2.01,2.01,2.86,4.22,2.86,2.04,0,3.33-.92,3.33-2.24,0-1.02-.71-1.67-2.28-2.01l-3.67-.75c-2.92-.65-4.59-2.21-4.59-4.59,0-3.13,2.62-5.34,6.66-5.34s6.49,2.04,7.1,4.86l-3.37.71c-.27-1.63-1.67-2.75-3.84-2.75s-2.99,1.02-2.99,2.21c0,.95.54,1.56,2.04,1.9l4.01.88c2.72.58,4.39,2.18,4.39,4.55,0,3.54-2.89,5.44-7.11,5.44-3.77,0-7-1.6-7.45-5l3.54-.75Z"/>
        <path class="cls-14" d="M149.27,492.43h-13.67c.34,3.13,2.62,5,5.1,5,1.87,0,3.77-.54,4.96-2.92l3.16.68c-1.39,3.54-4.39,5.3-8.12,5.3-4.59,0-8.6-3.54-8.6-8.87s3.98-8.94,8.74-8.94,8.26,3.47,8.43,8.53v1.22ZM135.7,489.92h9.93c-.54-2.75-2.48-4.11-4.79-4.11s-4.59,1.39-5.13,4.11Z"/>
        <path class="cls-14" d="M180.41,489.27v10.74h-3.5v-10.03c0-2.48-1.63-4.04-3.81-4.04-2.75,0-4.56,1.94-4.56,5.71v8.36h-3.54v-10.03c0-2.48-1.63-4.04-3.81-4.04-2.72,0-4.49,1.94-4.49,5.71v8.36h-3.54v-16.86h3.54v1.9c1.22-1.5,2.99-2.38,5.41-2.38s4.52,1.12,5.61,3.09c1.36-1.9,3.5-3.09,6.29-3.09,3.5,0,6.39,2.62,6.39,6.59Z"/>
        <path class="cls-14" d="M201.12,492.43h-13.67c.34,3.13,2.62,5,5.1,5,1.87,0,3.77-.54,4.96-2.92l3.16.68c-1.39,3.54-4.39,5.3-8.12,5.3-4.59,0-8.6-3.54-8.6-8.87s3.98-8.94,8.74-8.94,8.26,3.47,8.43,8.53v1.22ZM187.55,489.92h9.93c-.54-2.75-2.48-4.11-4.79-4.11s-4.59,1.39-5.13,4.11Z"/>
        <path class="cls-14" d="M221.18,489.81v10.2h-3.57v-9.49c0-2.75-1.6-4.59-4.01-4.59-3.03,0-5.03,2.04-5.03,6.29v7.79h-3.54v-16.86h3.54v2.07c1.36-1.63,3.33-2.55,5.85-2.55,4.05,0,6.77,2.92,6.77,7.14Z"/>
        <path class="cls-14" d="M237.33,499.2c-1.6.95-2.75,1.29-4.18,1.29-3.64,0-6.09-2.04-6.09-6.22v-8.19h-3.64v-2.92h3.64v-5.24h3.54v5.24h5.78v2.92h-5.78v7.96c0,2.11,1.12,3.13,2.79,3.13.88,0,1.97-.34,2.86-.92l1.09,2.96Z"/>
        <path class="cls-14" d="M265.17,500.01h-3.57v-1.9c-1.5,1.5-3.57,2.38-6.12,2.38-4.39,0-8.36-3.57-8.36-8.91s3.98-8.91,8.36-8.91c2.55,0,4.62.88,6.12,2.41v-9.55h3.57v24.48ZM261.6,491.58c0-3.54-2.72-5.78-5.54-5.78-3.06,0-5.47,2.24-5.47,5.78s2.41,5.78,5.47,5.78c2.82,0,5.54-2.21,5.54-5.78Z"/>
        <path class="cls-14" d="M286.22,492.43h-13.67c.34,3.13,2.62,5,5.1,5,1.87,0,3.77-.54,4.96-2.92l3.16.68c-1.39,3.54-4.39,5.3-8.12,5.3-4.59,0-8.6-3.54-8.6-8.87s3.98-8.94,8.74-8.94,8.26,3.47,8.43,8.53v1.22ZM272.66,489.92h9.93c-.54-2.75-2.48-4.11-4.79-4.11s-4.59,1.39-5.13,4.11Z"/>
        <path class="cls-14" d="M292.24,494.74c.24,2.01,2.01,2.86,4.22,2.86,2.04,0,3.33-.92,3.33-2.24,0-1.02-.71-1.67-2.28-2.01l-3.67-.75c-2.92-.65-4.59-2.21-4.59-4.59,0-3.13,2.62-5.34,6.66-5.34s6.49,2.04,7.1,4.86l-3.37.71c-.27-1.63-1.67-2.75-3.84-2.75s-2.99,1.02-2.99,2.21c0,.95.54,1.56,2.04,1.9l4.01.88c2.72.58,4.39,2.18,4.39,4.55,0,3.54-2.89,5.44-7.11,5.44-3.77,0-7-1.6-7.45-5l3.54-.75Z"/>
        <path class="cls-14" d="M333.68,491.58c0,5.34-3.94,8.91-8.36,8.91-2.55,0-4.66-.88-6.12-2.41v7.72h-3.54v-22.64h3.54v1.94c1.46-1.53,3.57-2.41,6.12-2.41,4.42,0,8.36,3.6,8.36,8.91ZM330.25,491.58c0-3.54-2.41-5.78-5.51-5.78-2.79,0-5.54,2.24-5.54,5.78s2.75,5.78,5.54,5.78c3.09,0,5.51-2.21,5.51-5.78Z"/>
        <path class="cls-14" d="M353.3,492.43h-13.67c.34,3.13,2.62,5,5.1,5,1.87,0,3.77-.54,4.96-2.92l3.16.68c-1.39,3.54-4.39,5.3-8.12,5.3-4.59,0-8.6-3.54-8.6-8.87s3.98-8.94,8.74-8.94,8.26,3.47,8.43,8.53v1.22ZM339.74,489.92h9.93c-.54-2.75-2.48-4.11-4.79-4.11s-4.59,1.39-5.13,4.11Z"/>
        <path class="cls-14" d="M373.7,500.01h-3.54v-1.94c-1.46,1.53-3.57,2.41-6.12,2.41-4.42,0-8.36-3.57-8.36-8.91s3.94-8.91,8.36-8.91c2.55,0,4.66.88,6.12,2.41v-1.94h3.54v16.86ZM370.17,491.58c0-3.54-2.75-5.78-5.54-5.78-3.09,0-5.51,2.24-5.51,5.78s2.41,5.78,5.51,5.78c2.79,0,5.54-2.21,5.54-5.78Z"/>
        <path class="cls-14" d="M394.78,500.01h-3.54v-2.07c-1.36,1.63-3.33,2.55-5.81,2.55-4.08,0-6.77-2.92-6.77-7.17v-10.17h3.54v9.45c0,2.75,1.6,4.62,4.05,4.62,3.03,0,5-2.04,5-6.29v-7.79h3.54v16.86Z"/>
        <path class="cls-14" d="M416.06,500.01h-4.25l-4.42-6.08-4.42,6.08h-4.22l6.05-8.26-6.05-8.64h4.22l4.42,6.39,4.42-6.39h4.25l-6.05,8.64,6.05,8.26Z"/>
        <path class="cls-14" d="M31.24,553.53c0,3.87-3.15,7.04-7.04,7.04H7.04c-3.89,0-7.04-3.17-7.04-7.04v-17.16c0-3.89,3.15-7.04,7.04-7.04h17.16c3.89,0,7.04,3.15,7.04,7.04v17.16ZM5.59,545.04h18.28l-5.94,5.92c-.15.15-.22.33-.22.53,0,.4.33.75.75.75.2,0,.37-.07.53-.22l7.17-7.2c.13-.13.22-.33.22-.53s-.07-.37-.22-.53l-7.17-7.17c-.15-.15-.33-.22-.53-.22-.37,0-.75.33-.75.75,0,.2.07.37.22.53l5.94,5.92H5.59c-.42,0-.75.33-.75.73,0,.42.33.75.75.75Z"/>
        <path class="cls-14" d="M57.78,552.01l-8.12-9.08h-3.3v9.08h-3.64v-22.78h10.71c4.69,0,7.82,2.75,7.82,6.87s-2.86,6.56-7.17,6.8l8.23,9.11h-4.52ZM53.42,539.64c2.52,0,4.18-1.43,4.18-3.54s-1.67-3.57-4.18-3.57h-7.07v7.11h7.07Z"/>
        <path class="cls-14" d="M69.85,530.09c0,1.26-.95,2.18-2.24,2.18s-2.28-.92-2.28-2.18c0-1.19.95-2.21,2.28-2.21s2.24,1.02,2.24,2.21ZM65.84,552.01v-16.86h3.54v16.86h-3.54Z"/>
        <path class="cls-14" d="M83.79,552.01h-3.77l-7.24-16.9h3.84l5.3,12.68,5.3-12.68h3.84l-7.28,16.9Z"/>
        <path class="cls-14" d="M98.47,530.09c0,1.26-.95,2.18-2.24,2.18s-2.28-.92-2.28-2.18c0-1.19.95-2.21,2.28-2.21s2.24,1.02,2.24,2.21ZM94.46,552.01v-16.86h3.54v16.86h-3.54Z"/>
        <path class="cls-14" d="M119.32,544.43h-13.67c.34,3.13,2.62,5,5.1,5,1.87,0,3.77-.54,4.96-2.92l3.16.68c-1.39,3.54-4.39,5.3-8.12,5.3-4.59,0-8.6-3.54-8.6-8.87s3.98-8.94,8.74-8.94,8.26,3.47,8.43,8.53v1.22ZM105.75,527.91h4.15l2.48,4.83h-3.03l-3.6-4.83ZM105.75,541.92h9.93c-.54-2.75-2.48-4.11-4.79-4.11s-4.59,1.39-5.13,4.11Z"/>
        <path class="cls-14" d="M134.38,535.08l-.24,3.4c-.27-.03-.68-.03-.99-.03-4.28,0-6.39,2.99-6.39,7.62v5.95h-3.54v-16.86h3.54v3.6c1.36-2.24,3.5-3.81,6.43-3.81.41,0,.75,0,1.19.14Z"/>
        <path class="cls-14" d="M152.91,544.43h-13.67c.34,3.13,2.62,5,5.1,5,1.87,0,3.77-.54,4.96-2.92l3.16.68c-1.39,3.54-4.39,5.3-8.12,5.3-4.59,0-8.6-3.54-8.6-8.87s3.98-8.94,8.74-8.94,8.26,3.47,8.43,8.53v1.22ZM139.34,541.92h9.93c-.54-2.75-2.48-4.11-4.79-4.11s-4.59,1.39-5.13,4.11Z"/>
        <path class="cls-14" d="M31.24,605.53c0,3.87-3.15,7.04-7.04,7.04H7.04c-3.89,0-7.04-3.17-7.04-7.04v-17.16c0-3.89,3.15-7.04,7.04-7.04h17.16c3.89,0,7.04,3.15,7.04,7.04v17.16ZM5.59,597.04h18.28l-5.94,5.92c-.15.15-.22.33-.22.53,0,.4.33.75.75.75.2,0,.37-.07.53-.22l7.17-7.2c.13-.13.22-.33.22-.53s-.07-.37-.22-.53l-7.17-7.17c-.15-.15-.33-.22-.53-.22-.37,0-.75.33-.75.75,0,.2.07.37.22.53l5.94,5.92H5.59c-.42,0-.75.33-.75.73,0,.42.33.75.75.75Z"/>
        <path class="cls-14" d="M52.47,584.53v19.48h-3.67v-19.48h-7.99v-3.3h19.68v3.3h-8.02Z"/>
        <path class="cls-14" d="M77.36,604.01h-3.54v-1.94c-1.46,1.53-3.57,2.41-6.12,2.41-4.42,0-8.36-3.57-8.36-8.91s3.94-8.91,8.36-8.91c2.55,0,4.66.88,6.12,2.41v-1.94h3.54v16.86ZM73.82,595.58c0-3.54-2.75-5.78-5.54-5.78-3.09,0-5.51,2.24-5.51,5.78s2.41,5.78,5.51,5.78c2.79,0,5.54-2.21,5.54-5.78Z"/>
        <path class="cls-14" d="M98.88,593.81v10.2h-3.57v-9.49c0-2.75-1.6-4.59-4.01-4.59-3.03,0-5.03,2.04-5.03,6.29v7.79h-3.54v-16.86h3.54v2.07c1.36-1.63,3.33-2.55,5.85-2.55,4.05,0,6.77,2.92,6.77,7.14Z"/>
        <path class="cls-14" d="M119.96,593.81v10.2h-3.57v-9.49c0-2.75-1.6-4.59-4.01-4.59-3.03,0-5.03,2.04-5.03,6.29v7.79h-3.54v-16.86h3.54v2.07c1.36-1.63,3.33-2.55,5.85-2.55,4.05,0,6.77,2.92,6.77,7.14Z"/>
        <path class="cls-14" d="M141.38,604.01h-3.54v-1.94c-1.46,1.53-3.57,2.41-6.12,2.41-4.42,0-8.36-3.57-8.36-8.91s3.94-8.91,8.36-8.91c2.55,0,4.66.88,6.12,2.41v-1.94h3.54v16.86ZM137.85,595.58c0-3.54-2.75-5.78-5.54-5.78-3.09,0-5.51,2.24-5.51,5.78s2.41,5.78,5.51,5.78c2.79,0,5.54-2.21,5.54-5.78Z"/>
        <path class="cls-14" d="M162.8,602.52c0,5.03-3.47,7.96-8.74,7.96-4.05,0-6.87-1.53-8.23-4.04l2.89-2.14c1.26,1.97,2.65,2.99,5.34,2.99,3.2,0,5.3-2.01,5.3-5.27v-1.09c-1.29,1.36-3.23,2.11-5.81,2.11-4.32,0-8.26-3.5-8.26-8.19s3.94-8.13,8.26-8.13c2.58,0,4.52.75,5.81,2.11v-1.67h3.43v15.37ZM159.37,594.84c0-3.13-2.48-5.13-5.24-5.13-3.03,0-5.41,2.01-5.41,5.13s2.38,5.13,5.41,5.13c2.75,0,5.24-2.04,5.24-5.13Z"/>
        <path class="cls-14" d="M183.88,596.43h-13.67c.34,3.13,2.62,5,5.1,5,1.87,0,3.77-.54,4.96-2.92l3.16.68c-1.39,3.54-4.39,5.3-8.12,5.3-4.59,0-8.6-3.54-8.6-8.87s3.98-8.94,8.74-8.94,8.26,3.47,8.43,8.53v1.22ZM170.32,593.92h9.93c-.54-2.75-2.48-4.11-4.79-4.11s-4.59,1.39-5.13,4.11Z"/>
        <path class="cls-14" d="M31.24,657.53c0,3.87-3.15,7.04-7.04,7.04H7.04c-3.89,0-7.04-3.17-7.04-7.04v-17.16c0-3.89,3.15-7.04,7.04-7.04h17.16c3.89,0,7.04,3.15,7.04,7.04v17.16ZM5.59,649.04h18.28l-5.94,5.92c-.15.15-.22.33-.22.53,0,.4.33.75.75.75.2,0,.37-.07.53-.22l7.17-7.2c.13-.13.22-.33.22-.53s-.07-.37-.22-.53l-7.17-7.17c-.15-.15-.33-.22-.53-.22-.37,0-.75.33-.75.75,0,.2.07.37.22.53l5.94,5.92H5.59c-.42,0-.75.33-.75.73,0,.42.33.75.75.75Z"/>
        <path class="cls-14" d="M46.35,643.3h11.76v3.3h-11.76v9.42h-3.64v-22.78h16.66v3.3h-13.02v6.77Z"/>
        <path class="cls-14" d="M67.16,634.09c0,1.26-.95,2.18-2.24,2.18s-2.28-.92-2.28-2.18c0-1.19.95-2.21,2.28-2.21s2.24,1.02,2.24,2.21ZM63.15,656.01v-16.86h3.54v16.86h-3.54Z"/>
        <path class="cls-14" d="M88.44,645.81v10.2h-3.57v-9.49c0-2.75-1.6-4.59-4.01-4.59-3.03,0-5.03,2.04-5.03,6.29v7.79h-3.54v-16.86h3.54v2.07c1.36-1.63,3.33-2.55,5.85-2.55,4.05,0,6.77,2.92,6.77,7.14Z"/>
        <path class="cls-14" d="M97.66,634.09c0,1.26-.95,2.18-2.24,2.18s-2.28-.92-2.28-2.18c0-1.19.95-2.21,2.28-2.21s2.24,1.02,2.24,2.21ZM93.65,656.01v-16.86h3.54v16.86h-3.54Z"/>
        <path class="cls-14" d="M104.9,650.74c.24,2.01,2.01,2.86,4.22,2.86,2.04,0,3.33-.92,3.33-2.24,0-1.02-.71-1.67-2.28-2.01l-3.67-.75c-2.92-.65-4.59-2.21-4.59-4.59,0-3.13,2.62-5.34,6.66-5.34s6.49,2.04,7.1,4.86l-3.37.71c-.27-1.63-1.67-2.75-3.84-2.75s-2.99,1.02-2.99,2.21c0,.95.54,1.56,2.04,1.9l4.01.88c2.72.58,4.39,2.18,4.39,4.55,0,3.54-2.89,5.44-7.11,5.44-3.77,0-7-1.6-7.45-5l3.54-.75Z"/>
        <path class="cls-14" d="M121.66,650.74c.24,2.01,2.01,2.86,4.22,2.86,2.04,0,3.33-.92,3.33-2.24,0-1.02-.71-1.67-2.28-2.01l-3.67-.75c-2.92-.65-4.59-2.21-4.59-4.59,0-3.13,2.62-5.34,6.66-5.34s6.49,2.04,7.1,4.86l-3.37.71c-.27-1.63-1.67-2.75-3.84-2.75s-2.99,1.02-2.99,2.21c0,.95.54,1.56,2.04,1.9l4.01.88c2.72.58,4.39,2.18,4.39,4.55,0,3.54-2.89,5.44-7.11,5.44-3.77,0-7-1.6-7.45-5l3.54-.75Z"/>
        <path class="cls-14" d="M153.18,656.01h-3.54v-1.94c-1.46,1.53-3.57,2.41-6.12,2.41-4.42,0-8.36-3.57-8.36-8.91s3.94-8.91,8.36-8.91c2.55,0,4.66.88,6.12,2.41v-1.94h3.54v16.86ZM149.64,647.58c0-3.54-2.75-5.78-5.54-5.78-3.09,0-5.51,2.24-5.51,5.78s2.41,5.78,5.51,5.78c2.79,0,5.54-2.21,5.54-5.78Z"/>
        <path class="cls-14" d="M174.6,654.52c0,5.03-3.47,7.96-8.74,7.96-4.05,0-6.87-1.53-8.23-4.04l2.89-2.14c1.26,1.97,2.65,2.99,5.34,2.99,3.2,0,5.3-2.01,5.3-5.27v-1.09c-1.29,1.36-3.23,2.11-5.81,2.11-4.32,0-8.26-3.5-8.26-8.19s3.94-8.13,8.26-8.13c2.58,0,4.52.75,5.81,2.11v-1.67h3.43v15.37ZM171.17,646.84c0-3.13-2.48-5.13-5.24-5.13-3.03,0-5.41,2.01-5.41,5.13s2.38,5.13,5.41,5.13c2.75,0,5.24-2.04,5.24-5.13Z"/>
        <path class="cls-14" d="M195.68,648.43h-13.67c.34,3.13,2.62,5,5.1,5,1.87,0,3.77-.54,4.96-2.92l3.16.68c-1.39,3.54-4.39,5.3-8.12,5.3-4.59,0-8.6-3.54-8.6-8.87s3.98-8.94,8.74-8.94,8.26,3.47,8.43,8.53v1.22ZM182.11,645.92h9.93c-.54-2.75-2.48-4.11-4.79-4.11s-4.59,1.39-5.13,4.11Z"/>
      </g>
      <path class="cls-14" d="M638.31,397.53c0,3.87-3.15,7.04-7.04,7.04h-17.16c-3.9,0-7.04-3.17-7.04-7.04v-17.16c0-3.89,3.15-7.04,7.04-7.04h17.16c3.89,0,7.04,3.15,7.04,7.04v17.16ZM612.66,389.04h18.28l-5.94,5.92c-.15.15-.22.33-.22.53,0,.4.33.75.75.75.2,0,.37-.07.53-.22l7.17-7.2c.13-.13.22-.33.22-.53s-.07-.38-.22-.53l-7.17-7.17c-.15-.15-.33-.22-.53-.22-.37,0-.75.33-.75.75,0,.2.07.37.22.53l5.94,5.92h-18.28c-.42,0-.75.33-.75.73,0,.42.33.75.75.75Z"/>
      <path class="cls-14" d="M674.74,396.01h-3.54v-15.06l-8.06,15.06h-1.73l-8.09-15.06v15.06h-3.54v-22.78h3.2l9.28,17.24,9.31-17.24h3.16v22.78Z"/>
      <path class="cls-14" d="M696.6,396.01h-3.54v-1.94c-1.46,1.53-3.57,2.41-6.12,2.41-4.42,0-8.36-3.57-8.36-8.91s3.94-8.91,8.36-8.91c2.55,0,4.66.88,6.12,2.41v-1.94h3.54v16.86ZM693.07,387.58c0-3.54-2.75-5.78-5.54-5.78-3.09,0-5.51,2.24-5.51,5.78s2.41,5.78,5.51,5.78c2.79,0,5.54-2.21,5.54-5.78Z"/>
      <path class="cls-14" d="M713.13,379.08l-.24,3.4c-.27-.03-.68-.03-.99-.03-4.28,0-6.39,2.99-6.39,7.62v5.95h-3.54v-16.86h3.54v3.6c1.36-2.24,3.5-3.81,6.43-3.81.41,0,.75,0,1.19.14Z"/>
      <path class="cls-14" d="M732.57,387.58c0,5.24-4.05,8.84-9.01,8.84s-9.08-3.6-9.08-8.84,4.08-8.8,9.08-8.8,9.01,3.57,9.01,8.8ZM729.14,387.58c0-3.5-2.69-5.78-5.58-5.78s-5.61,2.28-5.61,5.78,2.65,5.78,5.61,5.78,5.58-2.28,5.58-5.78Z"/>
      <path class="cls-14" d="M753.11,401.79h-3.57v-7.68c-1.5,1.5-3.57,2.38-6.12,2.38-4.39,0-8.36-3.57-8.36-8.91s3.98-8.91,8.36-8.91c2.55,0,4.62.88,6.12,2.41v-1.94h3.57v22.64ZM749.54,387.58c0-3.54-2.72-5.78-5.54-5.78-3.06,0-5.47,2.24-5.47,5.78s2.41,5.78,5.47,5.78c2.82,0,5.54-2.21,5.54-5.78Z"/>
      <path class="cls-14" d="M773.92,396.01h-3.54v-2.07c-1.36,1.63-3.33,2.55-5.81,2.55-4.08,0-6.77-2.92-6.77-7.17v-10.17h3.54v9.45c0,2.75,1.6,4.62,4.05,4.62,3.03,0,5-2.04,5-6.29v-7.79h3.54v16.86Z"/>
      <path class="cls-14" d="M783.57,374.09c0,1.26-.95,2.18-2.24,2.18s-2.28-.92-2.28-2.18c0-1.19.95-2.21,2.28-2.21s2.24,1.02,2.24,2.21ZM779.56,396.01v-16.86h3.54v16.86h-3.54Z"/>
      <path class="cls-14" d="M804.86,385.82v10.2h-3.57v-9.49c0-2.75-1.6-4.59-4.01-4.59-3.03,0-5.03,2.04-5.03,6.29v7.79h-3.54v-16.86h3.54v2.07c1.36-1.63,3.33-2.55,5.85-2.55,4.05,0,6.77,2.92,6.77,7.14Z"/>
      <path class="cls-14" d="M825.5,388.43h-13.67c.34,3.13,2.62,5,5.1,5,1.87,0,3.77-.54,4.96-2.92l3.16.68c-1.39,3.54-4.39,5.3-8.12,5.3-4.59,0-8.6-3.54-8.6-8.87s3.98-8.94,8.74-8.94,8.26,3.47,8.43,8.53v1.22ZM811.93,385.92h9.93c-.54-2.75-2.48-4.11-4.79-4.11s-4.59,1.39-5.13,4.11Z"/>
      <path class="cls-14" d="M840.56,379.08l-.24,3.4c-.27-.03-.68-.03-.99-.03-4.28,0-6.39,2.99-6.39,7.62v5.95h-3.54v-16.86h3.54v3.6c1.36-2.24,3.5-3.81,6.43-3.81.41,0,.75,0,1.19.14Z"/>
      <path class="cls-14" d="M847.97,374.09c0,1.26-.95,2.18-2.24,2.18s-2.28-.92-2.28-2.18c0-1.19.95-2.21,2.28-2.21s2.24,1.02,2.24,2.21ZM843.96,396.01v-16.86h3.54v16.86h-3.54Z"/>
      <path class="cls-14" d="M868.81,388.43h-13.67c.34,3.13,2.62,5,5.1,5,1.87,0,3.77-.54,4.96-2.92l3.16.68c-1.39,3.54-4.39,5.3-8.12,5.3-4.59,0-8.6-3.54-8.6-8.87s3.98-8.94,8.74-8.94,8.26,3.47,8.43,8.53v1.22ZM855.25,385.92h9.93c-.54-2.75-2.48-4.11-4.79-4.11s-4.59,1.39-5.13,4.11Z"/>
      <path class="cls-14" d="M638.31,449.53c0,3.87-3.15,7.04-7.04,7.04h-17.16c-3.9,0-7.04-3.17-7.04-7.04v-17.16c0-3.89,3.15-7.04,7.04-7.04h17.16c3.89,0,7.04,3.15,7.04,7.04v17.16ZM612.66,441.04h18.28l-5.94,5.92c-.15.15-.22.33-.22.53,0,.4.33.75.75.75.2,0,.37-.07.53-.22l7.17-7.2c.13-.13.22-.33.22-.53s-.07-.38-.22-.53l-7.17-7.17c-.15-.15-.33-.22-.53-.22-.37,0-.75.33-.75.75,0,.2.07.37.22.53l5.94,5.92h-18.28c-.42,0-.75.33-.75.73,0,.42.33.75.75.75Z"/>
      <path class="cls-14" d="M668.11,439.31l3.54.75c-1.26,5.34-5.68,8.43-11.05,8.43-6.63,0-11.86-5.2-11.86-11.86s5.24-11.87,11.86-11.87c5.37,0,9.76,3.13,11.05,8.16l-3.54,1.02c-1.02-3.84-3.94-5.75-7.51-5.75-4.59,0-8.19,3.64-8.19,8.43s3.6,8.43,8.19,8.43c3.57,0,6.49-1.9,7.51-5.75Z"/>
      <path class="cls-14" d="M692.11,437.82v10.2h-3.57v-9.49c0-2.75-1.6-4.59-4.01-4.59-3.03,0-5.03,2.04-5.03,6.29v7.79h-3.54v-24.48h3.54v9.69c1.36-1.63,3.33-2.55,5.85-2.55,4.05,0,6.77,2.92,6.77,7.14Z"/>
      <path class="cls-14" d="M713.57,448.01h-3.54v-1.94c-1.46,1.53-3.57,2.41-6.12,2.41-4.42,0-8.36-3.57-8.36-8.91s3.94-8.91,8.36-8.91c2.55,0,4.66.88,6.12,2.41v-1.94h3.54v16.86ZM710.03,439.58c0-3.54-2.75-5.78-5.54-5.78-3.09,0-5.51,2.24-5.51,5.78s2.41,5.78,5.51,5.78c2.79,0,5.54-2.21,5.54-5.78Z"/>
      <path class="cls-14" d="M734.65,448.01h-3.54v-2.07c-1.36,1.63-3.33,2.55-5.81,2.55-4.08,0-6.77-2.92-6.77-7.17v-10.17h3.54v9.45c0,2.75,1.6,4.62,4.05,4.62,3.03,0,5-2.04,5-6.29v-7.79h3.54v16.86Z"/>
      <path class="cls-14" d="M741.89,442.75c.24,2.01,2.01,2.86,4.22,2.86,2.04,0,3.33-.92,3.33-2.24,0-1.02-.71-1.67-2.28-2.01l-3.67-.75c-2.92-.65-4.59-2.21-4.59-4.59,0-3.13,2.62-5.34,6.66-5.34s6.49,2.04,7.1,4.86l-3.37.71c-.27-1.63-1.67-2.75-3.84-2.75s-2.99,1.02-2.99,2.21c0,.95.54,1.56,2.04,1.9l4.01.88c2.72.58,4.39,2.18,4.39,4.56,0,3.54-2.89,5.44-7.11,5.44-3.77,0-7-1.6-7.45-5l3.54-.75Z"/>
      <path class="cls-14" d="M758.65,442.75c.24,2.01,2.01,2.86,4.22,2.86,2.04,0,3.33-.92,3.33-2.24,0-1.02-.71-1.67-2.28-2.01l-3.67-.75c-2.92-.65-4.59-2.21-4.59-4.59,0-3.13,2.62-5.34,6.66-5.34s6.49,2.04,7.1,4.86l-3.37.71c-.27-1.63-1.67-2.75-3.84-2.75s-2.99,1.02-2.99,2.21c0,.95.54,1.56,2.04,1.9l4.01.88c2.72.58,4.39,2.18,4.39,4.56,0,3.54-2.89,5.44-7.11,5.44-3.77,0-7-1.6-7.45-5l3.54-.75Z"/>
      <path class="cls-14" d="M789.29,448.01h-3.54v-2.07c-1.36,1.63-3.33,2.55-5.81,2.55-4.08,0-6.77-2.92-6.77-7.17v-10.17h3.54v9.45c0,2.75,1.6,4.62,4.05,4.62,3.03,0,5-2.04,5-6.29v-7.79h3.54v16.86Z"/>
      <path class="cls-14" d="M805.81,431.08l-.24,3.4c-.27-.03-.68-.03-.99-.03-4.28,0-6.39,2.99-6.39,7.62v5.95h-3.54v-16.86h3.54v3.6c1.36-2.24,3.5-3.81,6.43-3.81.41,0,.75,0,1.19.14Z"/>
      <path class="cls-14" d="M824.34,440.43h-13.67c.34,3.13,2.62,5,5.1,5,1.87,0,3.77-.54,4.96-2.92l3.16.68c-1.39,3.54-4.39,5.3-8.12,5.3-4.59,0-8.6-3.54-8.6-8.87s3.98-8.94,8.74-8.94,8.26,3.47,8.43,8.53v1.22ZM810.78,437.92h9.93c-.54-2.75-2.48-4.11-4.79-4.11s-4.59,1.39-5.13,4.11Z"/>
      <path class="cls-14" d="M638.31,501.53c0,3.87-3.15,7.04-7.04,7.04h-17.16c-3.9,0-7.04-3.17-7.04-7.04v-17.16c0-3.89,3.15-7.04,7.04-7.04h17.16c3.89,0,7.04,3.15,7.04,7.04v17.16ZM612.66,493.04h18.28l-5.94,5.92c-.15.15-.22.33-.22.53,0,.4.33.75.75.75.2,0,.37-.07.53-.22l7.17-7.2c.13-.13.22-.33.22-.53s-.07-.38-.22-.53l-7.17-7.17c-.15-.15-.33-.22-.53-.22-.37,0-.75.33-.75.75,0,.2.07.37.22.53l5.94,5.92h-18.28c-.42,0-.75.33-.75.73,0,.42.33.75.75.75Z"/>
      <path class="cls-14" d="M672.12,487.1c.03.61.07,1.16.07,1.56,0,6.7-4.73,11.83-11.49,11.83s-11.97-5.2-11.97-11.86,5.2-11.87,11.86-11.87c4.86,0,9.21,2.35,10.85,6.73l-3.3,1.16c-1.6-3.26-4.49-4.45-7.55-4.45-4.59,0-8.16,3.67-8.16,8.43s3.64,8.43,8.36,8.43c4.18,0,7.14-2.69,7.82-6.63h-9.04v-3.33h12.54Z"/>
      <path class="cls-14" d="M693,500.01h-3.54v-1.94c-1.46,1.53-3.57,2.41-6.12,2.41-4.42,0-8.36-3.57-8.36-8.91s3.94-8.91,8.36-8.91c2.55,0,4.66.88,6.12,2.41v-1.94h3.54v16.86ZM689.46,491.58c0-3.54-2.75-5.78-5.54-5.78-3.09,0-5.51,2.24-5.51,5.78s2.41,5.78,5.51,5.78c2.79,0,5.54-2.21,5.54-5.78Z"/>
      <path class="cls-14" d="M714.52,489.82v10.2h-3.57v-9.49c0-2.75-1.6-4.59-4.01-4.59-3.03,0-5.03,2.04-5.03,6.29v7.79h-3.54v-16.86h3.54v2.07c1.36-1.63,3.33-2.55,5.85-2.55,4.05,0,6.77,2.92,6.77,7.14Z"/>
      <path class="cls-14" d="M730.67,499.2c-1.6.95-2.75,1.29-4.18,1.29-3.64,0-6.09-2.04-6.09-6.22v-8.19h-3.64v-2.92h3.64v-5.24h3.54v5.24h5.78v2.92h-5.78v7.96c0,2.11,1.12,3.13,2.79,3.13.88,0,1.97-.34,2.86-.92l1.09,2.96Z"/>
      <path class="cls-14" d="M748.79,492.43h-13.67c.34,3.13,2.62,5,5.1,5,1.87,0,3.77-.54,4.96-2.92l3.16.68c-1.39,3.54-4.39,5.3-8.12,5.3-4.59,0-8.6-3.54-8.6-8.87s3.98-8.94,8.74-8.94,8.26,3.47,8.43,8.53v1.22ZM735.23,489.92h9.93c-.54-2.75-2.48-4.11-4.79-4.11s-4.59,1.39-5.13,4.11Z"/>
      <path class="cls-14" d="M763.85,483.08l-.24,3.4c-.27-.03-.68-.03-.99-.03-4.28,0-6.39,2.99-6.39,7.62v5.95h-3.54v-16.86h3.54v3.6c1.36-2.24,3.5-3.81,6.43-3.81.41,0,.75,0,1.19.14Z"/>
      <path class="cls-14" d="M771.27,478.09c0,1.26-.95,2.18-2.24,2.18s-2.28-.92-2.28-2.18c0-1.19.95-2.21,2.28-2.21s2.24,1.02,2.24,2.21ZM767.25,500.01v-16.86h3.54v16.86h-3.54Z"/>
      <path class="cls-14" d="M792.11,492.43h-13.67c.34,3.13,2.62,5,5.1,5,1.87,0,3.77-.54,4.96-2.92l3.16.68c-1.39,3.54-4.39,5.3-8.12,5.3-4.59,0-8.6-3.54-8.6-8.87s3.98-8.94,8.74-8.94,8.26,3.47,8.43,8.53v1.22ZM778.54,489.92h9.93c-.54-2.75-2.48-4.11-4.79-4.11s-4.59,1.39-5.13,4.11Z"/>
      <path class="cls-14" d="M638.31,553.53c0,3.87-3.15,7.04-7.04,7.04h-17.16c-3.9,0-7.04-3.17-7.04-7.04v-17.16c0-3.89,3.15-7.04,7.04-7.04h17.16c3.89,0,7.04,3.15,7.04,7.04v17.16ZM612.66,545.04h18.28l-5.94,5.92c-.15.15-.22.33-.22.53,0,.4.33.75.75.75.2,0,.37-.07.53-.22l7.17-7.2c.13-.13.22-.33.22-.53s-.07-.38-.22-.53l-7.17-7.17c-.15-.15-.33-.22-.53-.22-.37,0-.75.33-.75.75,0,.2.07.37.22.53l5.94,5.92h-18.28c-.42,0-.75.33-.75.73,0,.42.33.75.75.75Z"/>
      <path class="cls-14" d="M666.51,535.19l-3.64.75c-.41-2.41-2.48-4.01-5.2-4.01s-4.45,1.46-4.45,3.47c0,1.6.92,2.45,2.89,2.86l4.93,1.05c3.4.75,5.85,2.65,5.85,6.22,0,4.28-3.5,6.97-8.74,6.97-4.83,0-8.84-2.35-9.42-6.76l3.88-.82c.54,2.92,2.82,4.35,5.88,4.35s4.79-1.46,4.79-3.54c0-1.73-.92-2.55-3.2-3.03l-4.96-1.02c-2.82-.65-5.75-2.14-5.75-6.19s3.3-6.73,8.36-6.73c4.62,0,7.96,2.52,8.77,6.43Z"/>
      <path class="cls-14" d="M687.05,544.43h-13.67c.34,3.13,2.62,5,5.1,5,1.87,0,3.77-.54,4.96-2.92l3.16.68c-1.39,3.54-4.39,5.3-8.12,5.3-4.59,0-8.6-3.54-8.6-8.87s3.98-8.94,8.74-8.94,8.26,3.47,8.43,8.53v1.22ZM673.48,541.92h9.93c-.54-2.75-2.48-4.11-4.79-4.11s-4.59,1.39-5.13,4.11Z"/>
      <path class="cls-14" d="M690.96,552.01v-24.48h3.54v24.48h-3.54Z"/>
      <path class="cls-14" d="M699.87,552.01v-24.48h3.54v24.48h-3.54Z"/>
      <path class="cls-14" d="M724.48,544.43h-13.67c.34,3.13,2.62,5,5.1,5,1.87,0,3.77-.54,4.96-2.92l3.16.68c-1.39,3.54-4.39,5.3-8.12,5.3-4.59,0-8.6-3.54-8.6-8.87s3.98-8.94,8.74-8.94,8.26,3.47,8.43,8.53v1.22ZM710.92,541.92h9.93c-.54-2.75-2.48-4.11-4.79-4.11s-4.59,1.39-5.13,4.11Z"/>
      <path class="cls-14" d="M739.54,535.08l-.24,3.4c-.27-.03-.68-.03-.99-.03-4.28,0-6.39,2.99-6.39,7.62v5.95h-3.54v-16.86h3.54v3.6c1.36-2.24,3.5-3.81,6.43-3.81.41,0,.75,0,1.19.14Z"/>
      <path class="cls-14" d="M746.96,530.09c0,1.26-.95,2.18-2.24,2.18s-2.28-.92-2.28-2.18c0-1.19.95-2.21,2.28-2.21s2.24,1.02,2.24,2.21ZM742.94,552.01v-16.86h3.54v16.86h-3.54Z"/>
      <path class="cls-14" d="M767.8,544.43h-13.67c.34,3.13,2.62,5,5.1,5,1.87,0,3.77-.54,4.96-2.92l3.16.68c-1.39,3.54-4.39,5.3-8.12,5.3-4.59,0-8.6-3.54-8.6-8.87s3.98-8.94,8.74-8.94,8.26,3.47,8.43,8.53v1.22ZM754.23,541.92h9.93c-.54-2.75-2.48-4.11-4.79-4.11s-4.59,1.39-5.13,4.11Z"/>
      <path class="cls-14" d="M796.25,541.82v10.2h-3.57v-9.49c0-2.75-1.6-4.59-4.01-4.59-3.03,0-5.03,2.04-5.03,6.29v7.79h-3.54v-24.48h3.54v9.69c1.36-1.63,3.33-2.55,5.85-2.55,4.05,0,6.77,2.92,6.77,7.14Z"/>
      <path class="cls-14" d="M817.71,552.01h-3.54v-1.94c-1.46,1.53-3.57,2.41-6.12,2.41-4.42,0-8.36-3.57-8.36-8.91s3.94-8.91,8.36-8.91c2.55,0,4.66.88,6.12,2.41v-1.94h3.54v16.86ZM814.17,543.58c0-3.54-2.75-5.78-5.54-5.78-3.09,0-5.51,2.24-5.51,5.78s2.41,5.78,5.51,5.78c2.79,0,5.54-2.21,5.54-5.78Z"/>
      <path class="cls-14" d="M834.23,535.08l-.24,3.4c-.27-.03-.68-.03-.99-.03-4.28,0-6.39,2.99-6.39,7.62v5.95h-3.54v-16.86h3.54v3.6c1.36-2.24,3.5-3.81,6.43-3.81.41,0,.75,0,1.19.14Z"/>
      <path class="cls-14" d="M853.51,541.82v10.2h-3.57v-9.49c0-2.75-1.6-4.59-4.01-4.59-3.03,0-5.03,2.04-5.03,6.29v7.79h-3.54v-16.86h3.54v2.07c1.36-1.63,3.33-2.55,5.85-2.55,4.05,0,6.77,2.92,6.77,7.14Z"/>
      <path class="cls-14" d="M874.93,552.01h-3.54v-1.94c-1.46,1.53-3.57,2.41-6.12,2.41-4.42,0-8.36-3.57-8.36-8.91s3.94-8.91,8.36-8.91c2.55,0,4.66.88,6.12,2.41v-1.94h3.54v16.86ZM871.39,543.58c0-3.54-2.75-5.78-5.54-5.78-3.09,0-5.51,2.24-5.51,5.78s2.41,5.78,5.51,5.78c2.79,0,5.54-2.21,5.54-5.78Z"/>
      <path class="cls-14" d="M892.71,545.69l3.26.85c-.92,3.64-4.32,5.95-8.23,5.95-4.83,0-8.91-3.57-8.91-8.91s4.08-8.91,8.91-8.91c3.81,0,7.17,2.31,8.23,5.92l-3.4.99c-.65-2.48-2.58-3.64-4.83-3.64-3.13,0-5.44,2.31-5.44,5.64s2.31,5.64,5.44,5.64c2.24,0,4.15-1.09,4.96-3.54Z"/>
      <path class="cls-14" d="M916.07,541.82v10.2h-3.57v-9.49c0-2.75-1.6-4.59-4.01-4.59-3.03,0-5.03,2.04-5.03,6.29v7.79h-3.54v-24.48h3.54v9.69c1.36-1.63,3.33-2.55,5.85-2.55,4.05,0,6.77,2.92,6.77,7.14Z"/>
      <path class="cls-14" d="M936.74,544.43h-13.67c.34,3.13,2.62,5,5.1,5,1.87,0,3.77-.54,4.96-2.92l3.16.68c-1.39,3.54-4.39,5.3-8.12,5.3-4.59,0-8.6-3.54-8.6-8.87s3.98-8.94,8.74-8.94,8.26,3.47,8.43,8.53v1.22ZM923.18,541.92h9.93c-.54-2.75-2.48-4.11-4.79-4.11s-4.59,1.39-5.13,4.11Z"/>
      <path class="cls-14" d="M967.88,541.27v10.74h-3.5v-10.03c0-2.48-1.63-4.04-3.81-4.04-2.75,0-4.56,1.94-4.56,5.71v8.36h-3.54v-10.03c0-2.48-1.63-4.04-3.81-4.04-2.72,0-4.49,1.94-4.49,5.71v8.36h-3.54v-16.86h3.54v1.9c1.22-1.5,2.99-2.38,5.41-2.38s4.52,1.12,5.61,3.09c1.36-1.9,3.5-3.09,6.29-3.09,3.5,0,6.39,2.62,6.39,6.59Z"/>
      <path class="cls-14" d="M988.59,544.43h-13.67c.34,3.13,2.62,5,5.1,5,1.87,0,3.77-.54,4.96-2.92l3.16.68c-1.39,3.54-4.39,5.3-8.12,5.3-4.59,0-8.6-3.54-8.6-8.87s3.98-8.94,8.74-8.94,8.26,3.47,8.43,8.53v1.22ZM975.03,541.92h9.93c-.54-2.75-2.48-4.11-4.79-4.11s-4.59,1.39-5.13,4.11Z"/>
      <path class="cls-14" d="M1008.65,541.82v10.2h-3.57v-9.49c0-2.75-1.6-4.59-4.01-4.59-3.03,0-5.03,2.04-5.03,6.29v7.79h-3.54v-16.86h3.54v2.07c1.36-1.63,3.33-2.55,5.85-2.55,4.05,0,6.77,2.92,6.77,7.14Z"/>
      <path class="cls-14" d="M1024.8,551.2c-1.6.95-2.75,1.29-4.18,1.29-3.64,0-6.09-2.04-6.09-6.22v-8.19h-3.64v-2.92h3.64v-5.24h3.54v5.24h5.78v2.92h-5.78v7.96c0,2.11,1.12,3.13,2.79,3.13.88,0,1.97-.34,2.86-.92l1.09,2.96Z"/>
      <path class="cls-14" d="M1026.47,556.5l2.14-9.04h4.11v.1l-3.57,8.94h-2.69Z"/>
      <path class="cls-14" d="M650.73,598.75c.24,2.01,2.01,2.86,4.22,2.86,2.04,0,3.33-.92,3.33-2.24,0-1.02-.71-1.67-2.28-2.01l-3.67-.75c-2.92-.65-4.59-2.21-4.59-4.59,0-3.13,2.62-5.34,6.66-5.34s6.49,2.04,7.1,4.86l-3.37.71c-.27-1.63-1.67-2.75-3.84-2.75s-2.99,1.02-2.99,2.21c0,.95.54,1.56,2.04,1.9l4.01.88c2.72.58,4.39,2.18,4.39,4.56,0,3.54-2.89,5.44-7.11,5.44-3.77,0-7-1.6-7.45-5l3.54-.75Z"/>
      <path class="cls-14" d="M681.46,596.43h-13.67c.34,3.13,2.62,5,5.1,5,1.87,0,3.77-.54,4.96-2.92l3.16.68c-1.39,3.54-4.39,5.3-8.12,5.3-4.59,0-8.6-3.54-8.6-8.87s3.98-8.94,8.74-8.94,8.26,3.47,8.43,8.53v1.22ZM667.9,593.92h9.93c-.54-2.75-2.48-4.11-4.79-4.11s-4.59,1.39-5.13,4.11Z"/>
      <path class="cls-14" d="M685.37,604.01v-24.48h3.54v24.48h-3.54Z"/>
      <path class="cls-14" d="M694.28,604.01v-24.48h3.54v24.48h-3.54Z"/>
      <path class="cls-14" d="M718.89,596.43h-13.67c.34,3.13,2.62,5,5.1,5,1.87,0,3.77-.54,4.96-2.92l3.16.68c-1.39,3.54-4.39,5.3-8.12,5.3-4.59,0-8.6-3.54-8.6-8.87s3.98-8.94,8.74-8.94,8.26,3.47,8.43,8.53v1.22ZM705.33,593.92h9.93c-.54-2.75-2.48-4.11-4.79-4.11s-4.59,1.39-5.13,4.11Z"/>
      <path class="cls-14" d="M733.96,587.08l-.24,3.4c-.27-.03-.68-.03-.99-.03-4.28,0-6.39,2.99-6.39,7.62v5.95h-3.54v-16.86h3.54v3.6c1.36-2.24,3.5-3.81,6.43-3.81.41,0,.75,0,1.19.14Z"/>
      <path class="cls-14" d="M741.37,582.09c0,1.26-.95,2.18-2.24,2.18s-2.28-.92-2.28-2.18c0-1.19.95-2.21,2.28-2.21s2.24,1.02,2.24,2.21ZM737.36,604.01v-16.86h3.54v16.86h-3.54Z"/>
      <path class="cls-14" d="M762.21,596.43h-13.67c.34,3.13,2.62,5,5.1,5,1.87,0,3.77-.54,4.96-2.92l3.16.68c-1.39,3.54-4.39,5.3-8.13,5.3-4.59,0-8.6-3.54-8.6-8.87s3.98-8.94,8.74-8.94,8.26,3.47,8.43,8.53v1.22ZM748.64,593.92h9.93c-.54-2.75-2.48-4.11-4.79-4.11s-4.59,1.39-5.13,4.11Z"/>
      <path class="cls-14" d="M791.01,604.01h-3.54v-1.94c-1.46,1.53-3.57,2.41-6.12,2.41-4.42,0-8.36-3.57-8.36-8.91s3.94-8.91,8.36-8.91c2.55,0,4.66.88,6.12,2.41v-1.94h3.54v16.86ZM787.47,595.58c0-3.54-2.75-5.78-5.54-5.78-3.09,0-5.51,2.24-5.51,5.78s2.41,5.78,5.51,5.78c2.79,0,5.54-2.21,5.54-5.78Z"/>
      <path class="cls-14" d="M812.09,604.01h-3.54v-2.07c-1.36,1.63-3.33,2.55-5.81,2.55-4.08,0-6.77-2.92-6.77-7.17v-10.17h3.54v9.45c0,2.75,1.6,4.62,4.05,4.62,3.03,0,5-2.04,5-6.29v-7.79h3.54v16.86Z"/>
      <path class="cls-14" d="M828.68,603.2c-1.6.95-2.75,1.29-4.18,1.29-3.64,0-6.09-2.04-6.09-6.22v-8.19h-3.64v-2.92h3.64v-5.24h3.54v5.24h5.78v2.92h-5.78v7.96c0,2.11,1.12,3.13,2.79,3.13.88,0,1.97-.34,2.86-.92l1.09,2.96Z"/>
      <path class="cls-14" d="M847.72,595.58c0,5.24-4.05,8.84-9.01,8.84s-9.08-3.6-9.08-8.84,4.08-8.8,9.08-8.8,9.01,3.57,9.01,8.8ZM844.28,595.58c0-3.5-2.69-5.78-5.58-5.78s-5.61,2.28-5.61,5.78,2.65,5.78,5.61,5.78,5.58-2.28,5.58-5.78Z"/>
      <path class="cls-14" d="M878.89,593.27v10.74h-3.5v-10.03c0-2.48-1.63-4.04-3.81-4.04-2.75,0-4.56,1.94-4.56,5.71v8.36h-3.54v-10.03c0-2.48-1.63-4.04-3.81-4.04-2.72,0-4.49,1.94-4.49,5.71v8.36h-3.54v-16.86h3.54v1.9c1.22-1.5,2.99-2.38,5.41-2.38s4.52,1.12,5.61,3.09c1.36-1.9,3.5-3.09,6.29-3.09,3.5,0,6.39,2.62,6.39,6.59Z"/>
      <path class="cls-14" d="M900.52,595.58c0,5.24-4.05,8.84-9.01,8.84s-9.08-3.6-9.08-8.84,4.08-8.8,9.08-8.8,9.01,3.57,9.01,8.8ZM897.09,595.58c0-3.5-2.69-5.78-5.58-5.78s-5.61,2.28-5.61,5.78,2.65,5.78,5.61,5.78,5.58-2.28,5.58-5.78Z"/>
      <path class="cls-14" d="M922.48,595.58c0,5.34-3.94,8.91-8.36,8.91-2.55,0-4.66-.88-6.12-2.41v1.94h-3.54v-24.48h3.54v9.55c1.46-1.53,3.57-2.41,6.12-2.41,4.42,0,8.36,3.6,8.36,8.91ZM919.05,595.58c0-3.54-2.41-5.78-5.51-5.78-2.79,0-5.54,2.24-5.54,5.78s2.75,5.78,5.54,5.78c3.09,0,5.51-2.21,5.51-5.78Z"/>
      <path class="cls-14" d="M930.68,582.09c0,1.26-.95,2.18-2.24,2.18s-2.28-.92-2.28-2.18c0-1.19.95-2.21,2.28-2.21s2.24,1.02,2.24,2.21ZM926.67,604.01v-16.86h3.54v16.86h-3.54Z"/>
      <path class="cls-14" d="M935.81,604.01v-24.48h3.54v24.48h-3.54Z"/>
      <path class="cls-14" d="M960.43,596.43h-13.67c.34,3.13,2.62,5,5.1,5,1.87,0,3.77-.54,4.96-2.92l3.16.68c-1.39,3.54-4.39,5.3-8.12,5.3-4.59,0-8.6-3.54-8.6-8.87s3.98-8.94,8.74-8.94,8.26,3.47,8.43,8.53v1.22ZM946.86,593.92h9.93c-.54-2.75-2.48-4.11-4.79-4.11s-4.59,1.39-5.13,4.11Z"/>
      <path class="cls-14" d="M638.31,660.53c0,3.87-3.15,7.04-7.04,7.04h-17.16c-3.9,0-7.04-3.17-7.04-7.04v-17.16c0-3.89,3.15-7.04,7.04-7.04h17.16c3.89,0,7.04,3.15,7.04,7.04v17.16ZM612.66,652.04h18.28l-5.94,5.92c-.15.15-.22.33-.22.53,0,.4.33.75.75.75.2,0,.37-.07.53-.22l7.17-7.2c.13-.13.22-.33.22-.53s-.07-.38-.22-.53l-7.17-7.17c-.15-.15-.33-.22-.53-.22-.37,0-.75.33-.75.75,0,.2.07.37.22.53l5.94,5.92h-18.28c-.42,0-.75.33-.75.73,0,.42.33.75.75.75Z"/>
      <path class="cls-14" d="M666.78,659.01l-2.24-5.3h-11.08l-2.24,5.3h-3.94l10.03-22.78h3.4l10.03,22.78h-3.94ZM659,640.69l-4.11,9.69h8.23l-4.11-9.69Z"/>
      <path class="cls-14" d="M700.82,648.27v10.74h-3.5v-10.03c0-2.48-1.63-4.04-3.81-4.04-2.75,0-4.56,1.94-4.56,5.71v8.36h-3.54v-10.03c0-2.48-1.63-4.04-3.81-4.04-2.72,0-4.49,1.94-4.49,5.71v8.36h-3.54v-16.86h3.54v1.9c1.22-1.5,2.99-2.38,5.41-2.38s4.52,1.12,5.61,3.09c1.36-1.9,3.5-3.09,6.29-3.09,3.5,0,6.39,2.62,6.39,6.59Z"/>
      <path class="cls-14" d="M721.52,651.43h-13.67c.34,3.13,2.62,5,5.1,5,1.87,0,3.77-.54,4.96-2.92l3.16.68c-1.39,3.54-4.39,5.3-8.12,5.3-4.59,0-8.6-3.54-8.6-8.87s3.98-8.94,8.74-8.94,8.26,3.47,8.43,8.53v1.22ZM707.96,648.92h9.93c-.54-2.75-2.48-4.11-4.79-4.11s-4.59,1.39-5.13,4.11Z"/>
      <path class="cls-14" d="M741.14,659.01h-3.54v-2.07c-1.36,1.63-3.33,2.55-5.81,2.55-4.08,0-6.77-2.92-6.77-7.17v-10.17h3.54v9.45c0,2.75,1.6,4.62,4.05,4.62,3.03,0,5-2.04,5-6.29v-7.79h3.54v16.86Z"/>
      <path class="cls-14" d="M764.53,650.58c0,5.34-3.94,8.91-8.36,8.91-2.55,0-4.66-.88-6.12-2.41v1.94h-3.54v-24.48h3.54v9.55c1.46-1.53,3.57-2.41,6.12-2.41,4.42,0,8.36,3.6,8.36,8.91ZM761.1,650.58c0-3.54-2.41-5.78-5.51-5.78-2.79,0-5.54,2.24-5.54,5.78s2.75,5.78,5.54,5.78c3.09,0,5.51-2.21,5.51-5.78Z"/>
      <path class="cls-14" d="M768.44,659.01v-24.48h3.54v24.48h-3.54Z"/>
      <path class="cls-14" d="M793.06,651.43h-13.67c.34,3.13,2.62,5,5.1,5,1.87,0,3.77-.54,4.96-2.92l3.16.68c-1.39,3.54-4.39,5.3-8.12,5.3-4.59,0-8.6-3.54-8.6-8.87s3.98-8.94,8.74-8.94,8.26,3.47,8.43,8.53v1.22ZM779.49,648.92h9.93c-.54-2.75-2.48-4.11-4.79-4.11s-4.59,1.39-5.13,4.11Z"/>
      <path class="cls-14" d="M824.2,648.27v10.74h-3.5v-10.03c0-2.48-1.63-4.04-3.81-4.04-2.75,0-4.56,1.94-4.56,5.71v8.36h-3.54v-10.03c0-2.48-1.63-4.04-3.81-4.04-2.72,0-4.49,1.94-4.49,5.71v8.36h-3.54v-16.86h3.54v1.9c1.22-1.5,2.99-2.38,5.41-2.38s4.52,1.12,5.61,3.09c1.36-1.9,3.5-3.09,6.29-3.09,3.5,0,6.39,2.62,6.39,6.59Z"/>
      <path class="cls-14" d="M844.91,651.43h-13.67c.34,3.13,2.62,5,5.1,5,1.87,0,3.77-.54,4.96-2.92l3.16.68c-1.39,3.54-4.39,5.3-8.12,5.3-4.59,0-8.6-3.54-8.6-8.87s3.98-8.94,8.74-8.94,8.26,3.47,8.43,8.53v1.22ZM831.34,648.92h9.93c-.54-2.75-2.48-4.11-4.79-4.11s-4.59,1.39-5.13,4.11Z"/>
      <path class="cls-14" d="M864.97,648.82v10.2h-3.57v-9.49c0-2.75-1.6-4.59-4.01-4.59-3.03,0-5.03,2.04-5.03,6.29v7.79h-3.54v-16.86h3.54v2.07c1.36-1.63,3.33-2.55,5.85-2.55,4.05,0,6.77,2.92,6.77,7.14Z"/>
      <path class="cls-14" d="M881.12,658.2c-1.6.95-2.75,1.29-4.18,1.29-3.64,0-6.09-2.04-6.09-6.22v-8.19h-3.64v-2.92h3.64v-5.24h3.54v5.24h5.78v2.92h-5.78v7.96c0,2.11,1.12,3.13,2.79,3.13.88,0,1.97-.34,2.86-.92l1.09,2.96Z"/>
      <g>
        <path class="cls-20" d="M1045.79,252.03s-80.93.31-80.93.31l-43.66-.14-29.5-.1-20.78-.07h-.77s-7.66-.03-7.66-.03h-.28s-37.58-.12-37.58-.12h-1.67s-30.45-.11-30.45-.11l-10.27-.03-14.37-.05-10.02-.03-24.44-.08-7.05-.02-9.62-.03-17.07-.06-26.35-.09s-.91-1.6-2.26-4.49c-1-2.14-2.24-4.98-3.52-8.39h0c-.24-.64-.48-1.29-.72-1.97-.34-.95-.68-1.93-1.01-2.95-.13-.38-.25-.76-.37-1.15-.74-2.32-1.47-4.82-2.14-7.46-.05-.18-.09-.37-.14-.55-.25-1.01-.49-2.04-.72-3.09-.13-.58-.25-1.17-.37-1.77l-.02-.12c-.04-.22-.09-.44-.13-.66-.84-4.24-1.48-8.76-1.82-13.48-.06-.83-.11-1.67-.14-2.51-.04-.85-.07-1.71-.08-2.57-.1-5.36.23-10.92,1.18-16.56.37-2.21.83-4.44,1.4-6.67.41-1.63.88-3.26,1.41-4.9.1-.3.2-.61.3-.91,1.22-3.64,2.75-7.29,4.61-10.9.17-.32.34-.65.51-.98,1.4-2.62,2.98-5.23,4.75-7.8.18-.26.37-.53.55-.79,1.04-1.47,2.14-2.92,3.31-4.37,1.7-2.11,3.56-4.19,5.56-6.25,2.77-2.85,5.53-5.43,8.25-7.76,1.12-.97,2.24-1.89,3.35-2.77.95-.76,1.91-1.48,2.85-2.18.05-.04.11-.08.16-.12,2.19-1.61,4.37-3.07,6.52-4.39.44-.27.88-.53,1.32-.79,2.11-1.25,4.21-2.36,6.28-3.35.45-.22.9-.43,1.35-.63,11.05-5.03,21.48-6.65,31.05-6.61.45,0,.91,0,1.35.02,2.24.04,4.42.18,6.56.37,8.99.83,17.08,2.8,24.03,4.2.46.09.91.18,1.35.27,4.53.88,8.55,1.46,12,1.23,5.51-.36,10-3.71,14.82-8.64.35-.36.71-.73,1.06-1.1,2.81-2.97,5.77-6.44,9.13-10.13.61-.67,1.24-1.35,1.88-2.04,1.27-1.36,2.6-2.74,3.99-4.13.22-.22.43-.43.65-.65.47-.46.95-.93,1.44-1.39.21-.21.43-.41.65-.62,1.59-1.49,3.26-2.98,5.04-4.46,7.68-6.38,17.29-12.53,30-17.24,0,0,.01,0,.02,0,5.37-1.99,11.3-3.71,17.87-5.09,7.22-1.51,14.97-2.64,22.92-3.3,1.92-.16,3.85-.29,5.78-.4,2.08-.11,4.17-.19,6.25-.23,1.25-.03,2.51-.04,3.77-.04,3.1,0,6.21.07,9.3.23,1.1.05,2.19.12,3.28.2,13.36.94,26.23,3.46,37.09,7.98,7.62,3.17,36.31,17.34,44.73,41.32,2.66,7.57,3.3,16.11.62,25.59-9.49,33.55,4.96,37.73,23.04,53.72,24.13,21.34,31.9,50.14,12.54,64.9Z"/>
        <path class="cls-8" d="M899.06,152.88h-165.13c-1.57,0-2.86,1.29-2.86,2.86l-67.63,70.19c2.45,6.52,4.81,11.94,6.72,16.02,2.57,5.51,4.31,8.56,4.31,8.56l50.27.16,50.92.17,13.45.04,46.63.15,19.12.06,27.43.09,19.59.06c.02-.12.03-.24.03-.36v-95.15c0-1.57-1.29-2.86-2.86-2.86Z"/>
        <g>
          <path class="cls-16" d="M948.39,64.5c-.28-2.1-.83-3.85-1.54-5.33-.93-1.95-2.15-3.41-3.33-4.46-.17-.18-.34-.35-.56-.48-.34-.28-.66-.52-.98-.74-1.49-1.03-2.65-1.38-2.65-1.38-.86-.19-1.64.36-2.37,1.49,0,0-1.17,2.23-1.67,3.82-.03.04-.05.08-.05.11-.11.33-.22.69-.35,1.09-.05.08-.07.18-.09.26-.1.35-.19.71-.29,1.07-.13.49-.26,1-.38,1.51-2.48,9.61-4.39,23.84-7.28,28.5-1.25,2-7.76,6.66-12.97,10.2-1.81,1.22-3.47,2.3-4.7,3.09-1.49.5-6.14,2-8.53,1.75-2.9-.32-7.23,3.63-7.23,3.63,0,0-.38,1.14,1.53,1.67,1.91.55,4.8,2.93,8.71.82,2.8-1.49,5.81-2.65,7.28-3.2.18-.06.34-.11.47-.15,1.73-.44,4.06-1.04,6.56-1.78,5.92-1.68,12.88-4.03,15.42-6.3,3.86-3.43,9.52-12.83,12.69-21.78.1-.22.16-.44.22-.66,1.64-4.74,2.56-9.32,2.08-12.75Z"/>
          <path class="cls-18" d="M958.5,6.03c.11-.6,1.51-6.99,11.4-5.9,0,0-4.92-.13-6.07,1.88,0,0,3.68-2.15,6.24-.92,2.56,1.24,3.46,6.17,3.25,7.72-.21,1.55-2.42,6.32-4.19,6.5-.67.07-1.41-.08-2.06-.3.35.77.68,1.62.98,2.55,2.76,8.63-2.44,15.93-5.64,14.57-2.05-.87-3.18,2.68-3.18,2.68l-18.29-19.78s9.9-14.64,17.56-9.01Z"/>
          <path class="cls-15" d="M934.68,244.28l4.45,1.66s19.32-26.79,21.7-50.36c.42-4.21.28-8.29-.64-12.05,0,0,.19-1.08.52-2.98.15-.89.34-1.96.56-3.19.63-3.6,1.49-8.52,2.48-14.13,2.27-12.9,5.22-29.39,7.5-41.52l-1.2-.38-12.97-4.18-2.68-8.51-9.65-2.54s-2.16,4.22-4.08,24.15c-.36,2.61-.68,5.5-.92,8.62-.75,9.54-.81,21.38.92,34.91.44,3.46,1,7.04,1.7,10.71.51,2.69.58,6.36.37,10.58-.97,19.27-8.05,49.22-8.05,49.22Z"/>
          <path class="cls-22" d="M939.74,138.86l20.96,41.68c.15-.89.34-1.96.56-3.19.63-3.6,1.49-8.52,2.48-14.13,2.27-12.9,5.22-29.39,7.5-41.52l-1.2-.38-12.97-4.18-2.68-8.51-9.65-2.54s-2.16,4.22-4.08,24.15c-.36,2.61-.68,5.5-.92,8.62Z"/>
          <path class="cls-15" d="M948.97,111.44l.48-4.16c8.13,2.16,29.86-6.03,29.86-6.03,0,0,7.88,6.92,6.84,23.52-.5,8.1-1.43,42.52-2.39,52.71-.35,3.69-.65,6.32-.78,7.37,0,0,0,0,0,.01-.04.32.07.62.24.9,1.42,2.41,2.59,4.91,3.55,7.48,9.45,25.19-1.46,56.21-1.46,56.21l-2.83-1.14s-6.21-34.52-11.25-49.77c-.86-2.59-1.68-4.62-2.43-5.83-2.19-3.54-4.23-9.32-6.08-16.2-3.49-13-6.3-29.92-8.17-42.98-.26.01-5.59-22.07-5.59-22.07Z"/>
          <path class="cls-16" d="M941.91,60.92c2.36,1.54,5.29,2.78,8.95,3.52,13.72,2.77,18.62-8.91,20.36-16.87-1.89-1.01-3.65-1.2-4.66-1.29-.99-.09-2.03-.14-2.89-.15-1.56-1.13-3.98-5.86-4.7-13.3l-.64.19-10.66,3.24s.59,3.4.92,6.62c.26,2.52.36,4.93-.11,5.54-.83.21-1.33.34-1.33.34,0,0,0,0,0,.01-.14.24-3.11,5.46-5.25,12.16Z"/>
          <path class="cls-5" d="M947.68,36.26s.59,3.4.92,6.62c6.07-.78,8.73-6.66,9.74-9.87l-10.66,3.24Z"/>
          <path class="cls-16" d="M945.95,39.52s14.43-1.2,13.54-10.18c-.89-8.97.38-15.17-8.87-14.78-9.25.39-10.7,3.99-11.13,7.06-.43,3.07,2.69,17.99,6.46,17.9Z"/>
          <path class="cls-17" d="M978.36,90.69c-.41-.62-.76-1.27-1.05-1.95-.74-1.7-1.09-3.55-1.02-5.42.29-7.36,1.56-14.12,2.1-18.26h0c-.68-.68-1.34-1.3-1.96-1.9-.94-.92-1.76-1.77-2.34-2.59-.64-.9-.99-1.78-.91-2.7.06-.7.18-1.4.36-2.1.08-.33.17-.66.27-.98,1.05-3.43,2.98-6.4,2.98-6.4-3.49-2.04-10.22-2.1-10.22-2.1,0,0-.05.37-.13.97-.33,2.41-1.25,8.6-2.19,9.66-1.18,1.32-19.79,5.14-20.44,3.03-.64-2.08,3.21-10.84,3.35-11.17,0,0,0-.01,0-.01-5.62,1.32-8.13,2.78-8.58,3.06-.58.26-1.1.98-1.63,1.79,0,0-1.17,2.23-1.67,3.82-.03.04-.05.08-.05.11-.11.33-.22.69-.35,1.09-.05.08-.07.18-.09.26-.1.35-.19.71-.29,1.07.87.14,2.12.41,3.28.89-.75,2.64-1.33,5.6-.66,8.66.06.29.14.58.23.87,2.41,8.05,4.36,40.25,4.36,40.25-1.74,5.49,42.39,5.03,43.25-.07,2.31-5.21-3.34-14.93-6.6-19.86Z"/>
          <path class="cls-18" d="M939.42,16.58c1.96-2.92,3.7-2.5,4.72-1.78,7.44-5.12,13.15.78,13.15.78,1.61,6.34,6.62,9.56,6.62,9.56,0,0-2.46,1.88-8.67.93-1.9-.29-3.68-1.44-5.24-2.89,2.86,3.86,6.49,6.49,6.49,6.49-7.56-2.62-11.47-12.38-11.87-13.42-.8.88-2.36,2.77-2.72,4.5-.49,2.36-.34,7.09-1.73,7.07,0,0-3.69-6.86-.75-11.24Z"/>
          <path class="cls-6" d="M954.86,101.81c8.53,1.15,17.02-6.65,22.45-13.07-.74-1.7-1.09-3.55-1.02-5.42.29-7.36,1.56-14.12,2.1-18.26h0c-.68-.68-1.34-1.3-1.96-1.9-.94-.92-1.76-1.77-2.34-2.59-8.68,10.77-30.79,39.69-19.23,41.24Z"/>
          <path class="cls-22" d="M968.86,251.75h22.4s.54-3.41-.63-6c-1.12-2.49-2.88-3.61-2.46-6.62-1.42,1.47-3.74,3.11-6.98,2.67-.4.64-2.56,4.09-3.89,5.04-1.46,1.05-7.99.68-8.44,4.92Z"/>
          <path class="cls-22" d="M920.76,251.75h22.4s.84-3.57-.63-6c-1.3-2.15-.8-3.38.16-5.16-1.01.42-2.33.79-3.77.71-1.12-.06-2.3-.57-3.33-1.17-.96,1.1-5.09,5.78-6.38,6.7-1.46,1.05-7.99.68-8.44,4.92Z"/>
          <path class="cls-11" d="M949.39,34.33s-.2,1.19-3.13,1.19c0,0-2.45,0-2.46-1.29,0,0,2.31-1.06,5.59.1Z"/>
          <g>
            <path class="cls-7" d="M920.95,91.46l-6.53,3.01c-.58-.75-1.76-2.14-3.34-3.37-3.08-2.41-6.21-3.04-9.04-1.84-2.89,1.23-4.27,4.07-4.04,8.22.09,1.64.42,3.17.7,4.23l-4.73,2.18,5.16,16c.97,3,4.35,4.49,7.21,3.16l16.34-7.54-1.74-24.07ZM899.88,101.18c-.74-2.92-1.66-8.93,2.66-10.76,4.75-2.02,9.19,2.72,10.71,4.6l-13.37,6.16Z"/>
            <path class="cls-4" d="M931.97,103.56l-11.01-12.1-24.88,11.47,10.82,14.06c1.93,2.51,5.35,3.35,8.23,2.03l15.12-6.97c3.29-1.52,4.16-5.8,1.72-8.48Z"/>
            <path class="cls-21" d="M920.95,91.46l-4.55,2.1c-.59-.75-1.76-2.14-3.34-3.37-3.08-2.41-6.21-3.05-9.04-1.84-2.89,1.23-4.27,4.07-4.04,8.22.09,1.64.42,3.17.7,4.23l-4.61,2.13s11.39,2.9,19.46-1.17c8.07-4.07,5.42-10.3,5.42-10.3ZM901.86,100.27c-.74-2.92-1.66-8.93,2.66-10.76,4.75-2.02,9.19,2.72,10.71,4.6l-13.37,6.16Z"/>
          </g>
          <rect class="cls-22" x="968.46" y="92.69" width="23.91" height="17.1" rx="3.12" ry="3.12" transform="translate(2.88 227.31) rotate(-13.24)"/>
          <path class="cls-22" d="M970.11,97.94c-.04-.08-3.95-7.92-6.02-17.77-1.22-5.79-1.56-11.14-1.03-15.9.66-5.97,2.72-11.02,6.11-15,1.29-1.52,3.19-2.36,5.19-2.32,1.98.05,3.8.97,5,2.52,6.72,8.72,8.13,28.34,8.13,43.26h-.78c0-26.81-4.33-38.06-7.96-42.78-1.05-1.37-2.66-2.18-4.4-2.22-1.76-.04-3.43.7-4.57,2.04-4.12,4.83-8.31,14-4.91,30.22,2.04,9.75,5.92,17.52,5.96,17.59l-.7.35Z"/>
          <path class="cls-17" d="M969.53,55.49c6.61-1.22,11.15,4.25,11.15,4.25.76-9.72-3.96-11.46-3.96-11.46-1.87-.97-4.42,2.2-7.2,7.21Z"/>
          <path class="cls-16" d="M969.85,54.9c-.11.19-.22.38-.33.57-2.29,4.16-4.78,9.58-7.14,14.99-1.31,2.96-2.58,5.92-3.83,8.65-.72,1.66-1.43,3.22-2.09,4.65-1.28,2.73-2.42,4.92-3.38,6.29-.62.89-2.27,2.07-4.45,3.36-3.78,2.27-9.25,4.94-13.99,7.09-1.97.91-3.83,1.73-5.38,2.41-1.22.54-2.24.98-2.96,1.29-.61.08-1.58.16-2.7.28-.53-.12-1.1-.3-1.61-.57-1.39-.74-5.93.45-5.49,1.05.44.6,2.98-.14,3.22.2,0,0,0,0,0,0-.74.2-1.44.46-2.03.77-3.3,1.76-6.95,1.71-5.56,3.59,1.18,1.6,4.31,4.05,8.34,2.18,2.88-1.32,5.96-2.3,7.46-2.76.12-.03.23-.06.32-.08.46-.04.97-.09,1.54-.15.72-.07,1.13-.14,1.13-.14,1.91-.21,4.2-.51,6.69-.84h.03c4.28-.64,9.08-1.44,13.15-2.44,2.87-.73,5.37-1.56,7.1-2.46.18-.09.32-.18.5-.3,4.17-2.51,9.56-10.49,13.96-19.16.61-1.2,1.19-2.4,1.76-3.56,2.07-4.35,3.79-8.66,4.93-12.41.7-2.23,1.22-4.29,1.43-5.99.09-.6.17-1.17.18-1.71.02-.31.04-.61.06-.91-1.69-1.48-5.57-4.23-10.88-3.95Z"/>
        </g>
        <g>
          <path class="cls-3" d="M880,148.83s-4.72-1.8-7.33-2.24c-2.61-.44-4.15-13.92-4.43-15.63-.28-1.71-3.37-4.51-3.37-4.51l1.92,20.52,4.31,5.17h7.81l1.09-3.31Z"/>
          <path class="cls-27" d="M882.52,152.87s0,.01,0,.02h-14.9c-1.2-1.94-2.9-10.43-4.18-12.11-.08-.11-.18-.24-.27-.39l-.13,12.5h-1.36c-.02-1.77-.15-11.66-.95-17.06-.82-1.84-1.4-3.63-1.15-4.38.53-1.57,5.3-5,5.3-5,0,0,0,0,0,.01.1.64,3.45,21.23,5.45,21.82,4.82,1.43,9.67.54,9.67.54,0,0,3.51,2.01,2.53,4.04Z"/>
        </g>
        <g>
          <path class="cls-3" d="M871.1,148.83s-4.72-1.8-7.33-2.24c-2.61-.44-4.15-13.92-4.43-15.63-.28-1.71-3.37-4.51-3.37-4.51l1.92,20.52,4.31,5.17h7.81l1.09-3.31Z"/>
          <path class="cls-27" d="M873.63,152.87s0,.01,0,.02h-14.9c-1.2-1.94-2.9-10.43-4.18-12.11-.08-.11-.18-.24-.27-.39l-.13,12.5h-1.36c-.02-1.77-.15-11.66-.95-17.06-.82-1.84-1.4-3.63-1.15-4.38.53-1.57,5.3-5,5.3-5,0,0,0,0,0,.01.1.64,3.45,21.23,5.45,21.82,4.82,1.43,9.67.54,9.67.54,0,0,3.51,2.01,2.53,4.04Z"/>
        </g>
        <g>
          <path class="cls-1" d="M778.66,153.81s-6,.23-4.78-4.34c.62-2.34,3.33-2.44,7.31-2.44h61.67s3.21,1.11,3.21,3.37-1.28,2.81-2.31,3.37c-1.03.56-65.1.03-65.1.03Z"/>
          <path class="cls-9" d="M778.66,147.72s-6,.23-4.78-4.34c.62-2.34,3.33-2.44,7.31-2.44h61.67s3.21,1.11,3.21,3.37-1.28,2.81-2.31,3.37c-1.03.56-65.1.03-65.1.03Z"/>
          <path class="cls-1" d="M778.66,140.72s-6,.23-4.78-4.34c.62-2.34,3.33-2.44,7.31-2.44h61.67s3.21,1.11,3.21,3.37-1.28,2.81-2.31,3.37c-1.03.56-65.1.03-65.1.03Z"/>
        </g>
        <path class="cls-19" d="M901.45,204.91h-233.9c-.26,0-.48.22-.48.49v2.09c0,.27.21.49.48.49h233.9c.26,0,.48-.22.48-.49v-2.09c0-.27-.21-.49-.48-.49Z"/>
        <g>
          <path class="cls-25" d="M772.46,175.72l-2.61,21.57c-.49,4.05,2.67,7.62,6.75,7.62h23.26l10.99-29.19h-38.39Z"/>
          <path class="cls-25" d="M780.53,177.89c.01-.14,1.18-13.61,9.26-13.36,8.2.25,10.32,12.22,10.34,12.35l1.6-.27c-.02-.14-.58-3.35-2.27-6.65-2.31-4.49-5.64-6.93-9.62-7.05-4.05-.12-7.22,2.46-9.19,7.47-1.43,3.63-1.73,7.24-1.74,7.39l1.62.13Z"/>
          <path class="cls-2" d="M810.85,175.72h-35.41l5.09,22.36c.91,4,4.46,6.83,8.56,6.83h21.52c4.68,0,8.02-4.55,6.61-9.02l-6.37-20.17Z"/>
          <path class="cls-25" d="M810.85,175.72s-.27,8.75-11.94,9.16c-11.67.41-23.47-9.16-23.47-9.16h35.41Z"/>
          <path class="cls-2" d="M783.36,177.89c.01-.14,1.18-13.61,9.26-13.36,8.2.25,10.32,12.22,10.34,12.35l1.6-.27c-.02-.14-.58-3.35-2.27-6.65-2.31-4.49-5.64-6.93-9.62-7.05-4.05-.12-7.22,2.46-9.19,7.47-1.43,3.63-1.73,7.24-1.74,7.39l1.62.13Z"/>
        </g>
        <g>
          <path class="cls-26" d="M791.94,102.14l-2.84,23.52c-.53,4.42,2.92,8.31,7.36,8.31h25.37l11.98-31.83h-41.87Z"/>
          <path class="cls-7" d="M821.39,95.86c-2.52-4.9-6.15-7.56-10.49-7.69-4.42-.13-7.87,2.68-10.02,8.15-1.56,3.96-1.89,7.9-1.9,8.06l1.77.14c.01-.15,1.29-14.85,10.1-14.57,8.95.27,11.25,13.33,11.27,13.46l1.75-.3c-.02-.15-.63-3.65-2.48-7.25Z"/>
          <path class="cls-12" d="M840.76,124.14l-6.95-22h-38.62l5.55,24.38c.99,4.36,4.87,7.45,9.34,7.45h23.47c5.11,0,8.75-4.96,7.21-9.84Z"/>
          <path class="cls-21" d="M795.19,102.14s12.87,10.43,25.6,9.99c12.72-.44,13.02-9.99,13.02-9.99h-38.62Z"/>
          <path class="cls-21" d="M824.47,95.86c-2.52-4.9-6.15-7.56-10.49-7.69-4.42-.13-7.87,2.68-10.02,8.15-1.56,3.96-1.89,7.9-1.9,8.06l1.77.14c.01-.15,1.29-14.85,10.1-14.57,8.94.27,11.25,13.33,11.27,13.46l1.75-.3c-.02-.15-.63-3.65-2.48-7.25Z"/>
        </g>
        <g>
          <path class="cls-9" d="M840.99,175.67l-2.61,21.57c-.49,4.05,2.67,7.62,6.75,7.62h23.26l10.99-29.19h-38.39Z"/>
          <path class="cls-9" d="M849.07,177.84c.01-.14,1.18-13.61,9.26-13.36,8.2.25,10.32,12.22,10.34,12.35l1.61-.27c-.02-.13-.58-3.35-2.28-6.65-2.31-4.49-5.64-6.93-9.62-7.05-4.05-.12-7.22,2.46-9.19,7.47-1.43,3.63-1.73,7.24-1.74,7.39l1.62.13Z"/>
          <path class="cls-1" d="M879.38,175.67h-35.41l5.09,22.36c.91,4,4.46,6.83,8.56,6.83h21.52c4.68,0,8.02-4.55,6.61-9.02l-6.37-20.17Z"/>
          <path class="cls-1" d="M851.89,177.84c.01-.14,1.18-13.61,9.26-13.36,8.2.25,10.32,12.22,10.34,12.35l1.6-.27c-.02-.13-.58-3.35-2.27-6.65-2.31-4.49-5.64-6.93-9.62-7.05-4.05-.12-7.22,2.46-9.19,7.47-1.43,3.63-1.73,7.24-1.74,7.39l1.62.13Z"/>
        </g>
        <g>
          <g>
            <path class="cls-7" d="M853.39,249s1.33-1.27.67-2.42c-.67-1.15-1.73-1.36-3.8-1.36h-32.07s-1.67.62-1.67,1.89.67,1.58,1.2,1.89c.53.31,35.67,0,35.67,0Z"/>
            <path class="cls-7" d="M851.58,245.23s3.12.13,2.48-2.43c-.32-1.31-1.73-1.36-3.8-1.36h-32.07s-1.67.62-1.67,1.89.67,1.58,1.2,1.89c.53.31,33.85.02,33.85.02Z"/>
            <path class="cls-7" d="M851.58,241.31s3.12.13,2.48-2.43c-.32-1.31-1.73-1.36-3.8-1.36h-32.07s-1.67.62-1.67,1.89.67,1.58,1.2,1.89c.53.31,33.85.02,33.85.02Z"/>
            <path class="cls-7" d="M849.62,237.46s3.12.13,2.48-2.43c-.32-1.31-1.73-1.36-3.8-1.36h-32.07s-1.67.62-1.67,1.89.67,1.58,1.2,1.89c.53.31,33.85.02,33.85.02Z"/>
            <path class="cls-7" d="M851.58,233.61s3.12.13,2.48-2.43c-.32-1.31-1.73-1.36-3.8-1.36h-32.07s-1.67.62-1.67,1.89.67,1.58,1.2,1.89c.53.31,33.85.02,33.85.02Z"/>
            <path class="cls-7" d="M851.58,229.69s3.12.13,2.48-2.43c-.32-1.31-1.73-1.36-3.8-1.36h-32.07s-1.67.62-1.67,1.89.67,1.58,1.2,1.89c.53.31,33.85.02,33.85.02Z"/>
            <path class="cls-7" d="M849.62,225.91s3.12.13,2.48-2.43c-.32-1.31-1.73-1.36-3.8-1.36h-32.07s-1.67.62-1.67,1.89.67,1.58,1.2,1.89c.53.31,33.85.02,33.85.02Z"/>
            <path class="cls-7" d="M851.58,221.99s3.12.13,2.48-2.43c-.32-1.31-1.73-1.36-3.8-1.36h-32.07s-1.67.62-1.67,1.89.67,1.58,1.2,1.89c.53.31,33.85.02,33.85.02Z"/>
          </g>
          <g>
            <path class="cls-21" d="M873.23,249s1.33-1.27.67-2.42c-.67-1.15-1.73-1.36-3.8-1.36h-32.07s-1.67.62-1.67,1.89.67,1.58,1.2,1.89c.53.31,35.67,0,35.67,0Z"/>
            <path class="cls-21" d="M871.41,245.23s3.12.13,2.48-2.43c-.32-1.31-1.73-1.36-3.8-1.36h-32.07s-1.67.62-1.67,1.89.67,1.58,1.2,1.89c.53.31,33.85.02,33.85.02Z"/>
            <path class="cls-24" d="M871.41,241.31s3.12.13,2.48-2.43c-.32-1.31-1.73-1.36-3.8-1.36h-32.07s-1.67.62-1.67,1.89.67,1.58,1.2,1.89c.53.31,33.85.02,33.85.02Z"/>
            <path class="cls-21" d="M869.46,237.46s3.12.13,2.48-2.43c-.32-1.31-1.73-1.36-3.8-1.36h-32.07s-1.67.62-1.67,1.89.67,1.58,1.2,1.89c.53.31,33.85.02,33.85.02Z"/>
            <path class="cls-4" d="M871.41,233.61s3.12.13,2.48-2.43c-.32-1.31-1.73-1.36-3.8-1.36h-32.07s-1.67.62-1.67,1.89.67,1.58,1.2,1.89c.53.31,33.85.02,33.85.02Z"/>
            <path class="cls-21" d="M871.41,229.69s3.12.13,2.48-2.43c-.32-1.31-1.73-1.36-3.8-1.36h-32.07s-1.67.62-1.67,1.89.67,1.58,1.2,1.89c.53.31,33.85.02,33.85.02Z"/>
            <path class="cls-4" d="M869.46,225.91s3.12.13,2.48-2.43c-.32-1.31-1.73-1.36-3.8-1.36h-32.07s-1.67.62-1.67,1.89.67,1.58,1.2,1.89c.53.31,33.85.02,33.85.02Z"/>
            <path class="cls-24" d="M871.41,221.99s3.12.13,2.48-2.43c-.32-1.31-1.73-1.36-3.8-1.36h-32.07s-1.67.62-1.67,1.89.67,1.58,1.2,1.89c.53.31,33.85.02,33.85.02Z"/>
          </g>
        </g>
        <g>
          <g>
            <path class="cls-7" d="M807.62,249s1.33-1.27.67-2.42c-.67-1.15-1.73-1.36-3.8-1.36h-32.07s-1.67.62-1.67,1.89.67,1.58,1.2,1.89c.53.31,35.67,0,35.67,0Z"/>
            <path class="cls-7" d="M805.8,245.23s3.12.13,2.48-2.43c-.32-1.31-1.73-1.36-3.8-1.36h-32.07s-1.67.62-1.67,1.89.67,1.58,1.2,1.89c.53.31,33.85.02,33.85.02Z"/>
            <path class="cls-7" d="M805.8,241.31s3.12.13,2.48-2.43c-.32-1.31-1.73-1.36-3.8-1.36h-32.07s-1.67.62-1.67,1.89.67,1.58,1.2,1.89c.53.31,33.85.02,33.85.02Z"/>
            <path class="cls-7" d="M803.85,237.46s3.12.13,2.48-2.43c-.32-1.31-1.73-1.36-3.8-1.36h-32.07s-1.67.62-1.67,1.89.67,1.58,1.2,1.89c.53.31,33.85.02,33.85.02Z"/>
            <path class="cls-7" d="M805.8,233.61s3.12.13,2.48-2.43c-.32-1.31-1.73-1.36-3.8-1.36h-32.07s-1.67.62-1.67,1.89.67,1.58,1.2,1.89c.53.31,33.85.02,33.85.02Z"/>
            <path class="cls-7" d="M805.8,229.69s3.12.13,2.48-2.43c-.32-1.31-1.73-1.36-3.8-1.36h-32.07s-1.67.62-1.67,1.89.67,1.58,1.2,1.89c.53.31,33.85.02,33.85.02Z"/>
            <path class="cls-7" d="M803.85,225.91s3.12.13,2.48-2.43c-.32-1.31-1.73-1.36-3.8-1.36h-32.07s-1.67.62-1.67,1.89.67,1.58,1.2,1.89c.53.31,33.85.02,33.85.02Z"/>
            <path class="cls-7" d="M805.8,221.99s3.12.13,2.48-2.43c-.32-1.31-1.73-1.36-3.8-1.36h-32.07s-1.67.62-1.67,1.89.67,1.58,1.2,1.89c.53.31,33.85.02,33.85.02Z"/>
          </g>
          <g>
            <path class="cls-21" d="M827.46,249s1.33-1.27.67-2.42c-.67-1.15-1.73-1.36-3.8-1.36h-32.07s-1.67.62-1.67,1.89.67,1.58,1.2,1.89c.53.31,35.67,0,35.67,0Z"/>
            <path class="cls-21" d="M825.64,245.23s3.12.13,2.48-2.43c-.32-1.31-1.73-1.36-3.8-1.36h-32.07s-1.67.62-1.67,1.89.67,1.58,1.2,1.89c.53.31,33.85.02,33.85.02Z"/>
            <path class="cls-24" d="M825.64,241.31s3.12.13,2.48-2.43c-.32-1.31-1.73-1.36-3.8-1.36h-32.07s-1.67.62-1.67,1.89.67,1.58,1.2,1.89c.53.31,33.85.02,33.85.02Z"/>
            <path class="cls-21" d="M823.68,237.46s3.12.13,2.48-2.43c-.32-1.31-1.73-1.36-3.8-1.36h-32.07s-1.67.62-1.67,1.89.67,1.58,1.2,1.89c.53.31,33.85.02,33.85.02Z"/>
            <path class="cls-4" d="M825.64,233.61s3.12.13,2.48-2.43c-.32-1.31-1.73-1.36-3.8-1.36h-32.07s-1.67.62-1.67,1.89.67,1.58,1.2,1.89c.53.31,33.85.02,33.85.02Z"/>
            <path class="cls-21" d="M825.64,229.69s3.12.13,2.48-2.43c-.32-1.31-1.73-1.36-3.8-1.36h-32.07s-1.67.62-1.67,1.89.67,1.58,1.2,1.89c.53.31,33.85.02,33.85.02Z"/>
            <path class="cls-4" d="M823.68,225.91s3.12.13,2.48-2.43c-.32-1.31-1.73-1.36-3.8-1.36h-32.07s-1.67.62-1.67,1.89.67,1.58,1.2,1.89c.53.31,33.85.02,33.85.02Z"/>
            <path class="cls-24" d="M825.64,221.99s3.12.13,2.48-2.43c-.32-1.31-1.73-1.36-3.8-1.36h-32.07s-1.67.62-1.67,1.89.67,1.58,1.2,1.89c.53.31,33.85.02,33.85.02Z"/>
          </g>
        </g>
        <path class="cls-19" d="M904.26,249.05h-232.25c-.72,0-1.31.59-1.31,1.31s.59,1.31,1.31,1.31h232.25c.72,0,1.31-.59,1.31-1.31s-.59-1.31-1.31-1.31Z"/>
        <path class="cls-19" d="M754.64,152.88h-81.52c-1.4,2.12-2.67,4.26-3.82,6.41-.17.33-.34.65-.51.98-1.86,3.62-3.38,7.26-4.61,10.9-.11.31-.2.61-.3.91-.53,1.64-1,3.27-1.41,4.9-.57,2.23-1.03,4.46-1.4,6.67-.94,5.65-1.28,11.21-1.18,16.56.02.86.04,1.72.08,2.57.04.84.09,1.68.14,2.51.33,4.72.98,9.24,1.82,13.48.04.22.09.44.13.66l.03.12c.12.59.25,1.18.37,1.77.23,1.05.47,2.08.72,3.09.05.19.09.37.14.55.18.71.37,1.41.55,2.1,2.29,6.01,4.49,11.04,6.28,14.87,2.57,5.51,4.31,8.56,4.31,8.56l50.27.16,32.57.11v-94.72c0-1.75-1.21-3.18-2.68-3.18Z"/>
      </g>
      <g>
        <path class="cls-10" d="M618.58,301.59h16.25v6.15h-16.25v13h-6.8v-33.5h25v6.15h-18.2v8.2Z"/>
        <path class="cls-10" d="M665.88,320.74h-6.6v-1.95c-2.1,1.7-4.85,2.7-8.25,2.7-6.35,0-12.25-5.35-12.25-13.2s5.9-13.25,12.25-13.25c3.4,0,6.15,1,8.25,2.75v-2h6.6v24.95ZM659.28,308.29c0-4.6-3.55-7.5-7.1-7.5-4,0-7,2.9-7,7.5s3,7.45,7,7.45c3.55,0,7.1-2.85,7.1-7.45Z"/>
        <path class="cls-10" d="M699.98,308.29c0,7.85-5.9,13.2-12.25,13.2-3.4,0-6.15-1-8.25-2.7v1.95h-6.6v-36h6.6v13.05c2.1-1.75,4.85-2.75,8.25-2.75,6.35,0,12.25,5.4,12.25,13.25ZM693.58,308.29c0-4.6-3-7.5-7-7.5-3.55,0-7.1,2.9-7.1,7.5s3.55,7.45,7.1,7.45c4,0,7-2.85,7-7.45Z"/>
        <path class="cls-10" d="M722.28,295.64l-.35,6.35h-1.45c-6.1,0-8.9,3.75-8.9,10.7v8.05h-6.6v-24.95h6.6v4.55c2-2.9,4.9-4.9,8.95-4.9.65,0,1.15,0,1.75.2Z"/>
        <path class="cls-10" d="M734.08,288.34c0,2.2-1.7,3.85-4,3.85s-4-1.65-4-3.85,1.65-3.95,4-3.95,4,1.85,4,3.95ZM726.78,320.74v-24.95h6.6v24.95h-6.6Z"/>
        <path class="cls-10" d="M758.48,310.59l6.1,1.55c-1.4,5.7-6.55,9.35-12.5,9.35-7.3,0-13.35-5.35-13.35-13.2s6.05-13.25,13.35-13.25c5.8,0,10.85,3.6,12.5,9.2l-6.35,1.8c-.9-3.5-3.25-4.95-6.15-4.95-4.15,0-6.95,2.95-6.95,7.2s2.8,7.15,6.95,7.15c2.9,0,5.25-1.4,6.4-4.85Z"/>
        <path class="cls-10" d="M794.68,320.74h-6.6v-1.95c-2.1,1.7-4.85,2.7-8.25,2.7-6.35,0-12.25-5.35-12.25-13.2s5.9-13.25,12.25-13.25c3.4,0,6.15,1,8.25,2.75v-2h6.6v24.95ZM788.08,308.29c0-4.6-3.55-7.5-7.1-7.5-4,0-7,2.9-7,7.5s3,7.45,7,7.45c3.55,0,7.1-2.85,7.1-7.45Z"/>
        <path class="cls-10" d="M819.83,319.64c-2.6,1.4-4.4,1.85-6.5,1.85-5.9,0-9.8-3.1-9.8-9.95v-10.35h-5.35v-5.4h5.35v-7.55h6.6v7.55h8.15v5.4h-8.15v9.85c0,3,1.45,4.3,3.65,4.3,1.15,0,2.85-.5,4.15-1.2l1.9,5.5Z"/>
        <path class="cls-10" d="M831.03,288.34c0,2.2-1.7,3.85-4,3.85s-4-1.65-4-3.85,1.65-3.95,4-3.95,4,1.85,4,3.95ZM823.73,320.74v-24.95h6.6v24.95h-6.6Z"/>
        <path class="cls-10" d="M862.73,308.29c0,7.85-6.15,13.1-13.45,13.1s-13.6-5.25-13.6-13.1,6.15-13.1,13.6-13.1,13.45,5.25,13.45,13.1ZM856.33,308.29c0-4.65-3.6-7.45-7.05-7.45s-7.2,2.8-7.2,7.45,3.6,7.45,7.2,7.45,7.05-2.8,7.05-7.45Z"/>
        <path class="cls-10" d="M892.18,305.54v15.2h-6.6v-13.8c0-3.5-2-5.85-5.05-5.85-3.75,0-6.2,2.5-6.2,8.6v11.05h-6.6v-24.95h6.6v2.25c1.95-1.95,4.55-3,7.85-3,6,0,10,4.3,10,10.5Z"/>
        <path class="cls-10" d="M935.78,320.74h-6.6v-1.95c-2.1,1.7-4.85,2.7-8.25,2.7-6.35,0-12.25-5.35-12.25-13.2s5.9-13.25,12.25-13.25c3.4,0,6.15,1,8.25,2.75v-13.05h6.6v36ZM929.18,308.29c0-4.6-3.55-7.5-7.1-7.5-4,0-7,2.9-7,7.5s3,7.45,7,7.45c3.55,0,7.1-2.85,7.1-7.45Z"/>
        <path class="cls-10" d="M941.03,300.64l3-13.4h7.6v.15l-5.65,13.25h-4.95Z"/>
        <path class="cls-10" d="M979.98,320.74h-6.6v-1.95c-2.1,1.7-4.85,2.7-8.25,2.7-6.35,0-12.25-5.35-12.25-13.2s5.9-13.25,12.25-13.25c3.4,0,6.15,1,8.25,2.75v-2h6.6v24.95ZM973.38,308.29c0-4.6-3.55-7.5-7.1-7.5-4,0-7,2.9-7,7.5s3,7.45,7,7.45c3.55,0,7.1-2.85,7.1-7.45Z"/>
        <path class="cls-10" d="M1004.28,295.64l-.35,6.35h-1.45c-6.1,0-8.9,3.75-8.9,10.7v8.05h-6.6v-24.95h6.6v4.55c2-2.9,4.9-4.9,8.95-4.9.65,0,1.15,0,1.75.2Z"/>
        <path class="cls-10" d="M1027.08,319.64c-2.6,1.4-4.4,1.85-6.5,1.85-5.9,0-9.8-3.1-9.8-9.95v-10.35h-5.35v-5.4h5.35v-7.55h6.6v7.55h8.15v5.4h-8.15v9.85c0,3,1.45,4.3,3.65,4.3,1.15,0,2.85-.5,4.15-1.2l1.9,5.5Z"/>
        <path class="cls-10" d="M1038.28,288.34c0,2.2-1.7,3.85-4,3.85s-4-1.65-4-3.85,1.65-3.95,4-3.95,4,1.85,4,3.95ZM1030.98,320.74v-24.95h6.6v24.95h-6.6Z"/>
        <path class="cls-10" d="M1062.68,310.59l6.1,1.55c-1.4,5.7-6.55,9.35-12.5,9.35-7.3,0-13.35-5.35-13.35-13.2s6.05-13.25,13.35-13.25c5.8,0,10.85,3.6,12.5,9.2l-6.35,1.8c-.9-3.5-3.25-4.95-6.15-4.95-4.15,0-6.95,2.95-6.95,7.2s2.8,7.15,6.95,7.15c2.9,0,5.25-1.4,6.4-4.85Z"/>
        <path class="cls-10" d="M1073.78,320.74v-36h6.6v36h-6.6Z"/>
        <path class="cls-10" d="M1110.93,310.04h-19c.65,3.6,3.2,5.8,6.25,5.8,1.95,0,4.4-.25,6.2-3.3l5.9,1.25c-2.2,5.2-6.65,7.7-12.1,7.7-7.05,0-12.8-5.35-12.8-13.2s5.75-13.25,12.9-13.25c6.65,0,12.4,5.15,12.65,12.75v2.25ZM1092.13,305.39h12.05c-.85-3.2-3.25-4.6-5.9-4.6-2.5,0-5.35,1.5-6.15,4.6Z"/>
        <path class="cls-10" d="M1120.48,312.79c.35,2.55,2.55,3.4,5.15,3.4,2.45,0,3.9-1.1,3.9-2.5,0-.9-.6-1.8-2.75-2.25l-5.1-1.05c-4.5-.95-7.05-3.5-7.05-7.1,0-4.8,3.9-8.25,10.2-8.25,5.9,0,10,3.05,10.85,7.4l-6.3,1.25c-.25-2-2-3.45-4.75-3.45s-3.4,1.3-3.4,2.45c0,.8.3,1.65,2.25,2.1l5.95,1.3c4.4.95,6.55,3.7,6.55,7.05,0,5.5-4.45,8.35-10.95,8.35-5.5,0-10.55-2.15-11.2-7.35l6.65-1.35Z"/>
        <path class="cls-10" d="M1176.78,310.04h-19c.65,3.6,3.2,5.8,6.25,5.8,1.95,0,4.4-.25,6.2-3.3l5.9,1.25c-2.2,5.2-6.65,7.7-12.1,7.7-7.05,0-12.8-5.35-12.8-13.2s5.75-13.25,12.9-13.25c6.65,0,12.4,5.15,12.65,12.75v2.25ZM1157.98,305.39h12.05c-.85-3.2-3.25-4.6-5.9-4.6-2.5,0-5.35,1.5-6.15,4.6Z"/>
        <path class="cls-10" d="M1206.23,305.54v15.2h-6.6v-13.8c0-3.5-2-5.85-5.05-5.85-3.75,0-6.2,2.5-6.2,8.6v11.05h-6.6v-24.95h6.6v2.25c1.95-1.95,4.55-3,7.85-3,6,0,10,4.3,10,10.5Z"/>
        <path class="cls-10" d="M1242.47,310.59l6.1,1.55c-1.4,5.7-6.55,9.35-12.5,9.35-7.3,0-13.35-5.35-13.35-13.2s6.05-13.25,13.35-13.25c5.8,0,10.85,3.6,12.5,9.2l-6.35,1.8c-.9-3.5-3.25-4.95-6.15-4.95-4.15,0-6.95,2.95-6.95,7.2s2.8,7.15,6.95,7.15c2.9,0,5.25-1.4,6.4-4.85Z"/>
        <path class="cls-10" d="M1277.37,320.74h-6.6v-2.25c-1.95,1.95-4.55,3-7.85,3-6,0-10-4.3-10-10.5v-15.2h6.6v13.8c0,3.5,2,5.85,5.05,5.85,3.75,0,6.2-2.5,6.2-8.6v-11.05h6.6v24.95Z"/>
        <path class="cls-10" d="M1292.02,288.34c0,2.2-1.7,3.85-4,3.85s-4-1.65-4-3.85,1.65-3.95,4-3.95,4,1.85,4,3.95ZM1284.72,320.74v-24.95h6.6v24.95h-6.6Z"/>
        <path class="cls-10" d="M1315.97,295.64l-.35,6.35h-1.45c-6.1,0-8.9,3.75-8.9,10.7v8.05h-6.6v-24.95h6.6v4.55c2-2.9,4.9-4.9,8.95-4.9.65,0,1.15,0,1.75.2Z"/>
      </g>
      <g>
        <path class="cls-10" d="M16.69,287.24c7.7,0,12.4,4.55,12.4,11.25s-4.7,11.3-12.4,11.3H7.89v10.95H1.09v-33.5h15.6ZM16.69,303.64c3.65,0,5.65-2.05,5.65-5.15s-2-5.1-5.65-5.1H7.89v10.25h8.8Z"/>
        <path class="cls-10" d="M50.39,295.64l-.35,6.35h-1.45c-6.1,0-8.9,3.75-8.9,10.7v8.05h-6.6v-24.95h6.6v4.55c2-2.9,4.9-4.9,8.95-4.9.65,0,1.15,0,1.75.2Z"/>
        <path class="cls-10" d="M76.59,310.04h-19c.65,3.6,3.2,5.8,6.25,5.8,1.95,0,4.4-.25,6.2-3.3l5.9,1.25c-2.2,5.2-6.65,7.7-12.1,7.7-7.05,0-12.8-5.35-12.8-13.2s5.75-13.25,12.9-13.25c6.65,0,12.4,5.15,12.65,12.75v2.25ZM57.79,305.39h12.05c-.85-3.2-3.25-4.6-5.9-4.6-2.5,0-5.35,1.5-6.15,4.6ZM61.44,292.39l3.3-7.2h7.75l-5.45,7.2h-5.6Z"/>
        <path class="cls-10" d="M107.44,308.29c0,7.85-5.9,13.2-12.25,13.2-3.4,0-6.15-1-8.25-2.7v10.45h-6.6v-33.45h6.6v2c2.1-1.75,4.85-2.75,8.25-2.75,6.35,0,12.25,5.4,12.25,13.25ZM101.04,308.29c0-4.6-3-7.5-7-7.5-3.55,0-7.1,2.9-7.1,7.5s3.55,7.45,7.1,7.45c4,0,7-2.85,7-7.45Z"/>
        <path class="cls-10" d="M136.29,320.74h-6.6v-1.95c-2.1,1.7-4.85,2.7-8.25,2.7-6.35,0-12.25-5.35-12.25-13.2s5.9-13.25,12.25-13.25c3.4,0,6.15,1,8.25,2.75v-2h6.6v24.95ZM129.69,308.29c0-4.6-3.55-7.5-7.1-7.5-4,0-7,2.9-7,7.5s3,7.45,7,7.45c3.55,0,7.1-2.85,7.1-7.45Z"/>
        <path class="cls-10" d="M159.34,295.64l-.35,6.35h-1.45c-6.1,0-8.9,3.75-8.9,10.7v8.05h-6.6v-24.95h6.6v4.55c2-2.9,4.9-4.9,8.95-4.9.65,0,1.15,0,1.75.2Z"/>
        <path class="cls-10" d="M187.09,320.74h-6.6v-1.95c-2.1,1.7-4.85,2.7-8.25,2.7-6.35,0-12.25-5.35-12.25-13.2s5.9-13.25,12.25-13.25c3.4,0,6.15,1,8.25,2.75v-2h6.6v24.95ZM180.49,308.29c0-4.6-3.55-7.5-7.1-7.5-4,0-7,2.9-7,7.5s3,7.45,7,7.45c3.55,0,7.1-2.85,7.1-7.45Z"/>
        <path class="cls-10" d="M210.99,319.64c-2.6,1.4-4.4,1.85-6.5,1.85-5.9,0-9.8-3.1-9.8-9.95v-10.35h-5.35v-5.4h5.35v-7.55h6.6v7.55h8.15v5.4h-8.15v9.85c0,3,1.45,4.3,3.65,4.3,1.15,0,2.85-.5,4.15-1.2l1.9,5.5Z"/>
        <path class="cls-10" d="M220.94,288.34c0,2.2-1.7,3.85-4,3.85s-4-1.65-4-3.85,1.65-3.95,4-3.95,4,1.85,4,3.95ZM213.64,320.74v-24.95h6.6v24.95h-6.6Z"/>
        <path class="cls-10" d="M251.39,308.29c0,7.85-6.15,13.1-13.45,13.1s-13.6-5.25-13.6-13.1,6.15-13.1,13.6-13.1,13.45,5.25,13.45,13.1ZM244.99,308.29c0-4.65-3.6-7.45-7.05-7.45s-7.2,2.8-7.2,7.45,3.6,7.45,7.2,7.45,7.05-2.8,7.05-7.45Z"/>
        <path class="cls-10" d="M279.59,305.54v15.2h-6.6v-13.8c0-3.5-2-5.85-5.05-5.85-3.75,0-6.2,2.5-6.2,8.6v11.05h-6.6v-24.95h6.6v2.25c1.95-1.95,4.55-3,7.85-3,6,0,10,4.3,10,10.5Z"/>
        <path class="cls-10" d="M320.69,320.74h-6.6v-1.95c-2.1,1.7-4.85,2.7-8.25,2.7-6.35,0-12.25-5.35-12.25-13.2s5.9-13.25,12.25-13.25c3.4,0,6.15,1,8.25,2.75v-13.05h6.6v36ZM314.09,308.29c0-4.6-3.55-7.5-7.1-7.5-4,0-7,2.9-7,7.5s3,7.45,7,7.45c3.55,0,7.1-2.85,7.1-7.45Z"/>
        <path class="cls-10" d="M349.99,310.04h-19c.65,3.6,3.2,5.8,6.25,5.8,1.95,0,4.4-.25,6.2-3.3l5.9,1.25c-2.2,5.2-6.65,7.7-12.1,7.7-7.05,0-12.8-5.35-12.8-13.2s5.75-13.25,12.9-13.25c6.65,0,12.4,5.15,12.65,12.75v2.25ZM331.19,305.39h12.05c-.85-3.2-3.25-4.6-5.9-4.6-2.5,0-5.35,1.5-6.15,4.6Z"/>
        <path class="cls-10" d="M358.29,312.79c.35,2.55,2.55,3.4,5.15,3.4,2.45,0,3.9-1.1,3.9-2.5,0-.9-.6-1.8-2.75-2.25l-5.1-1.05c-4.5-.95-7.05-3.5-7.05-7.1,0-4.8,3.9-8.25,10.2-8.25,5.9,0,10,3.05,10.85,7.4l-6.3,1.25c-.25-2-2-3.45-4.75-3.45s-3.4,1.3-3.4,2.45c0,.8.3,1.65,2.25,2.1l5.95,1.3c4.4.95,6.55,3.7,6.55,7.05,0,5.5-4.45,8.35-10.95,8.35-5.5,0-10.55-2.15-11.2-7.35l6.65-1.35Z"/>
        <path class="cls-10" d="M415.64,308.29c0,7.85-5.9,13.2-12.25,13.2-3.4,0-6.15-1-8.25-2.7v10.45h-6.6v-33.45h6.6v2c2.1-1.75,4.85-2.75,8.25-2.75,6.35,0,12.25,5.4,12.25,13.25ZM409.24,308.29c0-4.6-3-7.5-7-7.5-3.55,0-7.1,2.9-7.1,7.5s3.55,7.45,7.1,7.45c4,0,7-2.85,7-7.45Z"/>
        <path class="cls-10" d="M442.94,310.04h-19c.65,3.6,3.2,5.8,6.25,5.8,1.95,0,4.4-.25,6.2-3.3l5.9,1.25c-2.2,5.2-6.65,7.7-12.1,7.7-7.05,0-12.8-5.35-12.8-13.2s5.75-13.25,12.9-13.25c6.65,0,12.4,5.15,12.65,12.75v2.25ZM424.13,305.39h12.05c-.85-3.2-3.25-4.6-5.9-4.6-2.5,0-5.35,1.5-6.15,4.6Z"/>
        <path class="cls-10" d="M471.79,320.74h-6.6v-1.95c-2.1,1.7-4.85,2.7-8.25,2.7-6.35,0-12.25-5.35-12.25-13.2s5.9-13.25,12.25-13.25c3.4,0,6.15,1,8.25,2.75v-2h6.6v24.95ZM465.19,308.29c0-4.6-3.55-7.5-7.1-7.5-4,0-7,2.9-7,7.5s3,7.45,7,7.45c3.55,0,7.1-2.85,7.1-7.45Z"/>
        <path class="cls-10" d="M501.34,320.74h-6.6v-2.25c-1.95,1.95-4.55,3-7.85,3-6,0-10-4.3-10-10.5v-15.2h6.6v13.8c0,3.5,2,5.85,5.05,5.85,3.75,0,6.2-2.5,6.2-8.6v-11.05h6.6v24.95Z"/>
        <path class="cls-10" d="M531.64,320.74h-7.85l-5.45-7.9-5.4,7.9h-7.85l8.4-12.15-8.4-12.85h7.85l5.4,8.4,5.45-8.4h7.85l-8.4,12.85,8.4,12.15Z"/>
      </g>
      <path class="cls-20" d="M403.12,252.85s-81.1.31-81.1.31l-43.75-.14-29.56-.1-20.82-.07h-.77s-7.67-.03-7.67-.03h-.28s-37.66-.12-37.66-.12h-1.67s-30.51-.11-30.51-.11l-10.29-.03-14.4-.05-10.04-.03-24.49-.08-7.06-.02-9.64-.03-17.11-.06-26.4-.09s-.91-1.61-2.26-4.5c-1-2.14-2.24-4.99-3.53-8.41h0c-.24-.64-.48-1.3-.72-1.97-.34-.95-.68-1.94-1.02-2.96-.13-.38-.25-.76-.37-1.15-.75-2.33-1.47-4.83-2.14-7.47-.05-.18-.09-.37-.14-.56-.25-1.01-.49-2.05-.73-3.1-.13-.58-.25-1.18-.38-1.77l-.03-.12c-.04-.22-.09-.44-.13-.66-.84-4.25-1.49-8.78-1.82-13.51-.06-.83-.11-1.67-.14-2.52-.04-.85-.07-1.71-.08-2.58-.1-5.37.23-10.94,1.18-16.6.37-2.22.83-4.45,1.4-6.68.42-1.64.88-3.27,1.42-4.91.1-.3.2-.61.3-.92,1.23-3.65,2.75-7.3,4.62-10.92.17-.32.34-.65.51-.98,1.4-2.63,2.98-5.24,4.76-7.82.18-.26.37-.53.55-.79,1.04-1.47,2.14-2.93,3.31-4.38,1.71-2.11,3.56-4.2,5.57-6.26,2.78-2.85,5.54-5.44,8.27-7.78,1.12-.97,2.25-1.89,3.36-2.77.96-.76,1.91-1.49,2.86-2.19.05-.04.11-.08.16-.12,2.2-1.62,4.38-3.08,6.54-4.4.44-.27.88-.53,1.32-.79,2.12-1.25,4.22-2.36,6.3-3.36.45-.22.91-.43,1.36-.63,11.08-5.04,21.52-6.67,31.11-6.63.45,0,.91,0,1.36.02,2.24.04,4.43.18,6.57.37,9.01.83,17.11,2.8,24.08,4.21.46.09.91.18,1.36.27,4.54.88,8.57,1.46,12.02,1.24,5.52-.36,10.02-3.71,14.85-8.66.35-.36.71-.73,1.06-1.1,2.82-2.98,5.78-6.45,9.15-10.15.61-.67,1.24-1.36,1.88-2.04,1.27-1.36,2.6-2.75,4-4.14.22-.22.43-.43.65-.65.47-.46.95-.93,1.45-1.4.22-.21.43-.41.65-.62,1.59-1.49,3.27-2.99,5.06-4.47,7.7-6.4,17.32-12.56,30.07-17.28,0,0,.01,0,.02,0,5.38-1.99,11.32-3.72,17.9-5.1,7.23-1.52,15-2.65,22.97-3.31,1.92-.16,3.86-.29,5.8-.4,2.08-.11,4.17-.19,6.27-.23,1.26-.03,2.51-.04,3.77-.04,3.11,0,6.22.07,9.32.23,1.1.05,2.19.12,3.28.2,13.39.94,26.28,3.47,37.16,8,7.63,3.17,36.39,17.38,44.82,41.4,2.66,7.58,3.3,16.14.62,25.65-9.51,33.62,4.97,37.81,23.08,53.83,24.18,21.38,31.96,50.24,12.57,65.03Z"/>
      <g>
        <path class="cls-13" d="M94.47,124.63s55.5,46.09,0,115.24c5.64,11.29,15.99,24.46,15.99,24.46,0,0,33.39-17.87,60.67,7.06,19.28-15.52,39.98-19.28,58.79-4.7,16.93-13.64,19.75-24.46,19.75-24.46,0,0-60.2-58.32,0-119.47-7.06-13.64-14.58-23.52-14.58-23.52,0,0-43.74,13.64-50.8-19.28h-28.22s-17.4,33.87-48.92,16.93c-8,15.99-12.7,27.75-12.7,27.75Z"/>
        <g>
          <path class="cls-23" d="M94.47,119.29s55.5,46.09,0,115.24c5.64,11.29,15.99,24.46,15.99,24.46,0,0,33.39-17.87,60.67,7.06,19.28-15.52,39.98-19.28,58.79-4.7,16.93-13.64,19.75-24.46,19.75-24.46,0,0-60.2-58.32,0-119.47-7.06-13.64-14.58-23.52-14.58-23.52,0,0-43.74,13.64-50.8-19.28h-28.22s-17.4,33.87-48.92,16.93c-8,15.99-12.7,27.75-12.7,27.75Z"/>
          <path class="cls-13" d="M173.9,74.6h-17.81s-16.36,31.84-46.08,18.34c-.03.59-.04,1.18-.04,1.77,0,19.4,15.73,35.13,35.13,35.13s35.13-15.73,35.13-35.13c0-7.48-2.34-14.41-6.33-20.11Z"/>
          <path class="cls-13" d="M108.61,228.01c17.17,0,31.09-13.92,31.09-31.09,0-13.59-8.72-25.13-20.86-29.36,1.5,16.43-2.57,36.5-18.62,59.3,2.67.75,5.48,1.15,8.39,1.15Z"/>
          <path class="cls-13" d="M154.45,223.89c-16.98,0-30.78,13.62-31.08,30.53,12.22-2.87,31.13-3.58,47.76,11.62,4.72-3.8,9.52-6.88,14.35-9.18.04-.62.06-1.24.06-1.87,0-17.17-13.92-31.09-31.09-31.09Z"/>
          <circle class="cls-13" cx="145.09" cy="147.83" r="11.16"/>
          <circle class="cls-13" cx="216.74" cy="124.56" r="13.18"/>
          <circle class="cls-13" cx="194.9" cy="141.42" r="9.35"/>
          <path class="cls-13" d="M238.28,222.59c-9.46-14.3-20.26-38.03-12.93-65.22-1.53-.2-3.09-.32-4.67-.32-16.66,0-30.6,11.6-34.21,27.15-11.15,1.01-19.85,9.43-19.85,19.65,0,10.91,9.9,19.76,22.11,19.76,4.21,0,8.14-1.05,11.49-2.87,5.76,4.14,12.82,6.58,20.46,6.58,6.41,0,12.42-1.73,17.6-4.73Z"/>
        </g>
      </g>
      <g>
        <path class="cls-14" d="M1088.3,396.51l-1.26-3.47h-8.97l-1.29,3.47h-7l9.18-22.78h7.21l9.18,22.78h-7.04ZM1082.59,380.74l-2.52,6.83h5l-2.48-6.83Z"/>
        <path class="cls-14" d="M1110.23,379.24l-.24,6.56h-1.02c-3.47,0-5.68,1.39-5.68,5.51v5.2h-6.36v-17.17h6.36v3.4c1.09-2.07,2.86-3.6,5.71-3.6.51,0,.78,0,1.22.1Z"/>
        <path class="cls-14" d="M1125.32,395.76c-.88.48-2.52,1.26-4.9,1.26-4.49,0-6.94-2.55-6.94-6.87v-5.85h-2.62v-4.96h2.62v-4.93h6.36v4.93h4.56v4.96h-4.56v5.13c0,1.5.75,2.07,2.04,2.07.71,0,1.6-.24,2.18-.54l1.26,4.79Z"/>
        <path class="cls-14" d="M1134.06,374.31c0,1.97-1.5,3.47-3.57,3.47s-3.57-1.5-3.57-3.47c0-1.83,1.46-3.47,3.57-3.47s3.57,1.63,3.57,3.47ZM1127.33,396.51v-17.17h6.36v17.17h-6.36Z"/>
        <path class="cls-14" d="M1154.73,390.05c-.71,4.25-4.49,6.97-8.94,6.97-5.2,0-9.52-3.67-9.52-9.08s4.32-9.11,9.52-9.11c4.42,0,8.13,2.69,8.91,6.87l-5.85,1.22c-.37-1.8-1.56-2.72-3.06-2.72-2.04,0-3.4,1.67-3.4,3.74s1.36,3.71,3.4,3.71c1.5,0,2.69-.92,3.13-2.72l5.81,1.12Z"/>
        <path class="cls-14" d="M1157.01,396.51v-24.48h6.36v24.48h-6.36Z"/>
        <path class="cls-14" d="M1183.94,389.47h-12.07c.41,1.63,1.5,2.65,3.13,2.65,1.19,0,2.38-.41,3.03-1.67l5.68,1.12c-1.43,3.67-4.66,5.44-8.7,5.44-5.13,0-9.35-3.67-9.35-9.08s4.21-9.11,9.35-9.11,8.91,3.4,8.94,9.45v1.19ZM1171.94,385.97h5.85c-.44-1.46-1.53-2.18-2.79-2.18-1.43,0-2.58.82-3.06,2.18Z"/>
        <path class="cls-14" d="M1191.35,390.87c.3,1.16,1.39,1.67,2.55,1.67s1.8-.48,1.8-1.02c0-.58-.44-.85-1.56-1.02l-3.43-.58c-3.23-.58-5.1-2.18-5.1-5.1,0-3.77,3.37-5.98,7.68-5.98s7.38,1.77,8.19,4.79l-5.71,1.12c-.14-.78-.99-1.7-2.45-1.7-1.16,0-1.6.51-1.6,1.02,0,.34.2.71,1.12.92l3.91.78c3.47.65,5.07,2.69,5.07,5.44,0,3.81-3.5,5.81-8.06,5.81-4.28,0-7.75-1.5-8.5-4.96l6.09-1.19Z"/>
        <path class="cls-14" d="M1216.75,390.87c.31,1.16,1.39,1.67,2.55,1.67s1.8-.48,1.8-1.02c0-.58-.44-.85-1.56-1.02l-3.43-.58c-3.23-.58-5.1-2.18-5.1-5.1,0-3.77,3.37-5.98,7.68-5.98s7.38,1.77,8.19,4.79l-5.71,1.12c-.14-.78-.99-1.7-2.45-1.7-1.16,0-1.6.51-1.6,1.02,0,.34.2.71,1.12.92l3.91.78c3.47.65,5.07,2.69,5.07,5.44,0,3.81-3.5,5.81-8.06,5.81-4.28,0-7.75-1.5-8.5-4.96l6.09-1.19Z"/>
        <path class="cls-14" d="M1249.18,387.94c0,5.41-3.57,9.08-8.29,9.08-2.11,0-3.81-.68-5.03-1.9v7.17h-6.36v-22.95h6.36v1.39c1.22-1.22,2.92-1.9,5.03-1.9,4.73,0,8.29,3.67,8.29,9.11ZM1242.82,387.94c0-2.18-1.36-3.81-3.47-3.81-1.94,0-3.5,1.63-3.5,3.81s1.56,3.77,3.5,3.77c2.11,0,3.47-1.63,3.47-3.77Z"/>
        <path class="cls-14" d="M1268.83,389.47h-12.07c.41,1.63,1.5,2.65,3.13,2.65,1.19,0,2.38-.41,3.03-1.67l5.68,1.12c-1.43,3.67-4.66,5.44-8.7,5.44-5.13,0-9.35-3.67-9.35-9.08s4.22-9.11,9.35-9.11,8.91,3.4,8.94,9.45v1.19ZM1256.83,385.97h5.85c-.44-1.46-1.53-2.18-2.79-2.18-1.43,0-2.58.82-3.06,2.18ZM1256.97,377.23l2.55-5.44h7.65l-4.32,5.44h-5.88Z"/>
        <path class="cls-14" d="M1288.66,390.05c-.71,4.25-4.49,6.97-8.94,6.97-5.2,0-9.52-3.67-9.52-9.08s4.32-9.11,9.52-9.11c4.42,0,8.12,2.69,8.91,6.87l-5.85,1.22c-.37-1.8-1.56-2.72-3.06-2.72-2.04,0-3.4,1.67-3.4,3.74s1.36,3.71,3.4,3.71c1.5,0,2.69-.92,3.13-2.72l5.81,1.12Z"/>
        <path class="cls-14" d="M1297.97,374.31c0,1.97-1.5,3.47-3.57,3.47s-3.57-1.5-3.57-3.47c0-1.83,1.46-3.47,3.57-3.47s3.57,1.63,3.57,3.47ZM1291.24,396.51v-17.17h6.36v17.17h-6.36Z"/>
        <path class="cls-14" d="M1319.87,396.51h-6.36v-1.39c-1.22,1.22-2.92,1.9-5.03,1.9-4.73,0-8.29-3.67-8.29-9.08s3.57-9.11,8.29-9.11c2.11,0,3.81.68,5.03,1.9v-1.39h6.36v17.17ZM1313.51,387.94c0-2.18-1.56-3.81-3.5-3.81-2.11,0-3.47,1.63-3.47,3.81s1.36,3.77,3.47,3.77c1.94,0,3.5-1.63,3.5-3.77Z"/>
        <path class="cls-14" d="M1323.06,396.51v-24.48h6.36v24.48h-6.36Z"/>
        <path class="cls-14" d="M1339.66,374.31c0,1.97-1.5,3.47-3.57,3.47s-3.57-1.5-3.57-3.47c0-1.83,1.46-3.47,3.57-3.47s3.57,1.63,3.57,3.47ZM1332.92,396.51v-17.17h6.36v17.17h-6.36Z"/>
        <path class="cls-14" d="M1347.92,390.87c.31,1.16,1.39,1.67,2.55,1.67s1.8-.48,1.8-1.02c0-.58-.44-.85-1.56-1.02l-3.43-.58c-3.23-.58-5.1-2.18-5.1-5.1,0-3.77,3.37-5.98,7.68-5.98s7.38,1.77,8.19,4.79l-5.71,1.12c-.14-.78-.99-1.7-2.45-1.7-1.16,0-1.6.51-1.6,1.02,0,.34.2.71,1.12.92l3.91.78c3.47.65,5.07,2.69,5.07,5.44,0,3.81-3.5,5.81-8.06,5.81-4.28,0-7.75-1.5-8.5-4.96l6.09-1.19Z"/>
        <path class="cls-14" d="M1378.04,389.47h-12.07c.41,1.63,1.5,2.65,3.13,2.65,1.19,0,2.38-.41,3.03-1.67l5.68,1.12c-1.43,3.67-4.66,5.44-8.7,5.44-5.13,0-9.35-3.67-9.35-9.08s4.21-9.11,9.35-9.11,8.91,3.4,8.94,9.45v1.19ZM1366.04,385.97h5.85c-.44-1.46-1.53-2.18-2.79-2.18-1.43,0-2.58.82-3.06,2.18ZM1366.18,377.23l2.55-5.44h7.65l-4.32,5.44h-5.88Z"/>
        <path class="cls-14" d="M1385.45,390.87c.3,1.16,1.39,1.67,2.55,1.67s1.8-.48,1.8-1.02c0-.58-.44-.85-1.56-1.02l-3.43-.58c-3.23-.58-5.1-2.18-5.1-5.1,0-3.77,3.37-5.98,7.68-5.98s7.38,1.77,8.19,4.79l-5.71,1.12c-.14-.78-.99-1.7-2.45-1.7-1.16,0-1.6.51-1.6,1.02,0,.34.2.71,1.12.92l3.91.78c3.47.65,5.07,2.69,5.07,5.44,0,3.81-3.5,5.81-8.06,5.81-4.28,0-7.75-1.5-8.5-4.96l6.09-1.19Z"/>
        <path class="cls-14" d="M1099.8,450.03c0,3.87-3.15,7.04-7.04,7.04h-17.16c-3.9,0-7.04-3.17-7.04-7.04v-17.16c0-3.89,3.15-7.04,7.04-7.04h17.16c3.89,0,7.04,3.15,7.04,7.04v17.16ZM1074.15,441.54h18.28l-5.94,5.92c-.15.15-.22.33-.22.53,0,.4.33.75.75.75.2,0,.38-.07.53-.22l7.17-7.2c.13-.13.22-.33.22-.53s-.07-.38-.22-.53l-7.17-7.17c-.15-.15-.33-.22-.53-.22-.37,0-.75.33-.75.75,0,.2.07.37.22.53l5.94,5.92h-18.28c-.42,0-.75.33-.75.73,0,.42.33.75.75.75Z"/>
        <path class="cls-14" d="M1128.24,448.51h-16.96v-22.78h16.93v3.3h-13.29v6.43h12.27v3.26h-12.27v6.49h13.33v3.3ZM1118.79,423.32l2.48-4.83h4.15l-3.6,4.83h-3.03Z"/>
        <path class="cls-14" d="M1148.98,454.29h-3.57v-7.68c-1.5,1.5-3.57,2.38-6.12,2.38-4.39,0-8.36-3.57-8.36-8.91s3.98-8.91,8.36-8.91c2.55,0,4.62.88,6.12,2.41v-1.94h3.57v22.64ZM1145.41,440.08c0-3.54-2.72-5.78-5.54-5.78-3.06,0-5.47,2.24-5.47,5.78s2.41,5.78,5.47,5.78c2.82,0,5.54-2.21,5.54-5.78Z"/>
        <path class="cls-14" d="M1169.28,448.51h-3.54v-2.07c-1.36,1.63-3.33,2.55-5.81,2.55-4.08,0-6.77-2.92-6.77-7.17v-10.17h3.54v9.45c0,2.75,1.6,4.62,4.05,4.62,3.03,0,5-2.04,5-6.29v-7.79h3.54v16.86Z"/>
        <path class="cls-14" d="M1178.42,426.58c0,1.26-.95,2.18-2.24,2.18s-2.28-.92-2.28-2.18c0-1.19.95-2.21,2.28-2.21s2.24,1.02,2.24,2.21ZM1174.41,448.51v-16.86h3.54v16.86h-3.54Z"/>
        <path class="cls-14" d="M1201.07,440.08c0,5.34-3.94,8.91-8.36,8.91-2.55,0-4.66-.88-6.12-2.41v7.72h-3.54v-22.64h3.54v1.94c1.46-1.53,3.57-2.41,6.12-2.41,4.42,0,8.36,3.6,8.36,8.91ZM1197.63,440.08c0-3.54-2.41-5.78-5.51-5.78-2.79,0-5.54,2.24-5.54,5.78s2.75,5.78,5.54,5.78c3.09,0,5.51-2.21,5.51-5.78Z"/>
        <path class="cls-14" d="M1220.17,440.93h-13.67c.34,3.13,2.62,5,5.1,5,1.87,0,3.77-.54,4.96-2.92l3.16.68c-1.39,3.54-4.39,5.3-8.12,5.3-4.59,0-8.6-3.54-8.6-8.87s3.98-8.94,8.74-8.94,8.26,3.47,8.43,8.53v1.22ZM1206.61,438.41h9.93c-.54-2.75-2.48-4.11-4.79-4.11s-4.59,1.39-5.13,4.11Z"/>
        <path class="cls-14" d="M1250.81,437.77v10.74h-3.5v-10.03c0-2.48-1.63-4.04-3.81-4.04-2.75,0-4.56,1.94-4.56,5.71v8.36h-3.54v-10.03c0-2.48-1.63-4.04-3.81-4.04-2.72,0-4.49,1.94-4.49,5.71v8.36h-3.54v-16.86h3.54v1.9c1.22-1.5,2.99-2.38,5.41-2.38s4.52,1.12,5.61,3.09c1.36-1.9,3.5-3.09,6.29-3.09,3.5,0,6.39,2.62,6.39,6.59Z"/>
        <path class="cls-14" d="M1271,440.93h-13.67c.34,3.13,2.62,5,5.1,5,1.87,0,3.77-.54,4.96-2.92l3.16.68c-1.39,3.54-4.39,5.3-8.12,5.3-4.59,0-8.6-3.54-8.6-8.87s3.98-8.94,8.74-8.94,8.26,3.47,8.43,8.53v1.22ZM1257.44,438.41h9.93c-.54-2.75-2.48-4.11-4.79-4.11s-4.59,1.39-5.13,4.11Z"/>
        <path class="cls-14" d="M1290.55,438.31v10.2h-3.57v-9.49c0-2.75-1.6-4.59-4.01-4.59-3.03,0-5.03,2.04-5.03,6.29v7.79h-3.54v-16.86h3.54v2.07c1.36-1.63,3.33-2.55,5.85-2.55,4.05,0,6.76,2.92,6.76,7.14Z"/>
        <path class="cls-14" d="M1306.19,447.69c-1.6.95-2.75,1.29-4.18,1.29-3.64,0-6.08-2.04-6.08-6.22v-8.19h-3.64v-2.92h3.64v-5.24h3.54v5.24h5.78v2.92h-5.78v7.96c0,2.11,1.12,3.13,2.79,3.13.88,0,1.97-.34,2.86-.92l1.09,2.96Z"/>
        <path class="cls-14" d="M1333.02,448.51h-3.57v-1.9c-1.5,1.5-3.57,2.38-6.12,2.38-4.39,0-8.36-3.57-8.36-8.91s3.98-8.91,8.36-8.91c2.55,0,4.62.88,6.12,2.41v-9.55h3.57v24.48ZM1329.45,440.08c0-3.54-2.72-5.78-5.54-5.78-3.06,0-5.47,2.24-5.47,5.78s2.41,5.78,5.47,5.78c2.82,0,5.54-2.21,5.54-5.78Z"/>
        <path class="cls-14" d="M1353.56,440.93h-13.67c.34,3.13,2.62,5,5.1,5,1.87,0,3.77-.54,4.96-2.92l3.16.68c-1.39,3.54-4.39,5.3-8.12,5.3-4.59,0-8.6-3.54-8.6-8.87s3.98-8.94,8.74-8.94,8.26,3.47,8.43,8.53v1.22ZM1339.99,438.41h9.93c-.54-2.75-2.48-4.11-4.79-4.11s-4.59,1.39-5.13,4.11Z"/>
        <path class="cls-14" d="M1382.86,440.08c0,5.34-3.94,8.91-8.36,8.91-2.55,0-4.66-.88-6.12-2.41v7.72h-3.54v-22.64h3.54v1.94c1.46-1.53,3.57-2.41,6.12-2.41,4.42,0,8.36,3.6,8.36,8.91ZM1379.43,440.08c0-3.54-2.41-5.78-5.51-5.78-2.79,0-5.54,2.24-5.54,5.78s2.75,5.78,5.54,5.78c3.09,0,5.51-2.21,5.51-5.78Z"/>
        <path class="cls-14" d="M1397.41,431.58l-.24,3.4c-.27-.03-.68-.03-.99-.03-4.28,0-6.39,2.99-6.39,7.62v5.95h-3.54v-16.86h3.54v3.6c1.36-2.24,3.5-3.81,6.43-3.81.41,0,.75,0,1.19.14Z"/>
        <path class="cls-14" d="M1416.35,440.08c0,5.24-4.04,8.84-9.01,8.84s-9.08-3.6-9.08-8.84,4.08-8.8,9.08-8.8,9.01,3.57,9.01,8.8ZM1412.92,440.08c0-3.5-2.69-5.78-5.58-5.78s-5.61,2.28-5.61,5.78,2.65,5.78,5.61,5.78,5.58-2.28,5.58-5.78Z"/>
        <path class="cls-14" d="M1431.01,447.69c-1.6.95-2.75,1.29-4.18,1.29-3.64,0-6.08-2.04-6.08-6.22v-8.19h-3.64v-2.92h3.64v-5.24h3.54v5.24h5.78v2.92h-5.78v7.96c0,2.11,1.12,3.13,2.79,3.13.88,0,1.97-.34,2.86-.92l1.09,2.96Z"/>
        <path class="cls-14" d="M1448.62,440.93h-13.67c.34,3.13,2.62,5,5.1,5,1.87,0,3.77-.54,4.96-2.92l3.16.68c-1.39,3.54-4.39,5.3-8.12,5.3-4.59,0-8.6-3.54-8.6-8.87s3.98-8.94,8.74-8.94,8.26,3.47,8.43,8.53v1.22ZM1435.05,438.41h9.93c-.54-2.75-2.48-4.11-4.79-4.11s-4.59,1.39-5.13,4.11Z"/>
        <path class="cls-14" d="M1464.43,442.19l3.26.85c-.92,3.64-4.32,5.95-8.23,5.95-4.83,0-8.91-3.57-8.91-8.91s4.08-8.91,8.91-8.91c3.81,0,7.17,2.31,8.23,5.92l-3.4.99c-.65-2.48-2.58-3.64-4.83-3.64-3.13,0-5.44,2.31-5.44,5.64s2.31,5.64,5.44,5.64c2.24,0,4.15-1.09,4.96-3.54Z"/>
        <path class="cls-14" d="M1482.35,447.69c-1.6.95-2.75,1.29-4.18,1.29-3.64,0-6.09-2.04-6.09-6.22v-8.19h-3.64v-2.92h3.64v-5.24h3.54v5.24h5.78v2.92h-5.78v7.96c0,2.11,1.12,3.13,2.79,3.13.88,0,1.97-.34,2.86-.92l1.09,2.96Z"/>
        <path class="cls-14" d="M1488.98,426.58c0,1.26-.95,2.18-2.24,2.18s-2.28-.92-2.28-2.18c0-1.19.95-2.21,2.28-2.21s2.24,1.02,2.24,2.21ZM1484.97,448.51v-16.86h3.54v16.86h-3.54Z"/>
        <path class="cls-14" d="M1510.23,440.08c0,5.24-4.04,8.84-9.01,8.84s-9.08-3.6-9.08-8.84,4.08-8.8,9.08-8.8,9.01,3.57,9.01,8.8ZM1506.79,440.08c0-3.5-2.69-5.78-5.58-5.78s-5.61,2.28-5.61,5.78,2.65,5.78,5.61,5.78,5.58-2.28,5.58-5.78Z"/>
        <path class="cls-14" d="M1529.81,438.31v10.2h-3.57v-9.49c0-2.75-1.6-4.59-4.01-4.59-3.03,0-5.03,2.04-5.03,6.29v7.79h-3.54v-16.86h3.54v2.07c1.36-1.63,3.33-2.55,5.85-2.55,4.05,0,6.77,2.92,6.77,7.14Z"/>
        <path class="cls-14" d="M1546.4,426.58c0,1.26-.95,2.18-2.24,2.18s-2.28-.92-2.28-2.18c0-1.19.95-2.21,2.28-2.21s2.24,1.02,2.24,2.21ZM1542.39,448.51v-16.86h3.54v16.86h-3.54Z"/>
        <path class="cls-14" d="M1567.17,438.31v10.2h-3.57v-9.49c0-2.75-1.6-4.59-4.01-4.59-3.03,0-5.03,2.04-5.03,6.29v7.79h-3.54v-16.86h3.54v2.07c1.36-1.63,3.33-2.55,5.85-2.55,4.05,0,6.76,2.92,6.76,7.14Z"/>
        <path class="cls-14" d="M1588.19,448.51h-3.57v-1.9c-1.5,1.5-3.57,2.38-6.12,2.38-4.38,0-8.36-3.57-8.36-8.91s3.98-8.91,8.36-8.91c2.55,0,4.62.88,6.12,2.41v-9.55h3.57v24.48ZM1584.62,440.08c0-3.54-2.72-5.78-5.54-5.78-3.06,0-5.47,2.24-5.47,5.78s2.41,5.78,5.47,5.78c2.82,0,5.54-2.21,5.54-5.78Z"/>
        <path class="cls-14" d="M1597.3,426.58c0,1.26-.95,2.18-2.24,2.18s-2.28-.92-2.28-2.18c0-1.19.95-2.21,2.28-2.21s2.24,1.02,2.24,2.21ZM1593.29,448.51v-16.86h3.54v16.86h-3.54Z"/>
        <path class="cls-14" d="M1610.73,448.51h-3.77l-7.24-16.9h3.84l5.3,12.68,5.3-12.68h3.84l-7.28,16.9Z"/>
        <path class="cls-14" d="M1624.91,426.58c0,1.26-.95,2.18-2.24,2.18s-2.28-.92-2.28-2.18c0-1.19.95-2.21,2.28-2.21s2.24,1.02,2.24,2.21ZM1620.9,448.51v-16.86h3.54v16.86h-3.54Z"/>
        <path class="cls-14" d="M1646.12,448.51h-3.57v-1.9c-1.5,1.5-3.57,2.38-6.12,2.38-4.38,0-8.36-3.57-8.36-8.91s3.98-8.91,8.36-8.91c2.55,0,4.62.88,6.12,2.41v-9.55h3.57v24.48ZM1642.55,440.08c0-3.54-2.72-5.78-5.54-5.78-3.06,0-5.47,2.24-5.47,5.78s2.41,5.78,5.47,5.78c2.82,0,5.54-2.21,5.54-5.78Z"/>
        <path class="cls-14" d="M1666.66,448.51h-3.54v-2.07c-1.36,1.63-3.33,2.55-5.81,2.55-4.08,0-6.76-2.92-6.76-7.17v-10.17h3.54v9.45c0,2.75,1.6,4.62,4.04,4.62,3.03,0,5-2.04,5-6.29v-7.79h3.54v16.86Z"/>
        <path class="cls-14" d="M1687.23,440.93h-13.67c.34,3.13,2.62,5,5.1,5,1.87,0,3.77-.54,4.96-2.92l3.16.68c-1.39,3.54-4.39,5.3-8.12,5.3-4.59,0-8.6-3.54-8.6-8.87s3.98-8.94,8.74-8.94,8.26,3.47,8.43,8.53v1.22ZM1673.66,438.41h9.93c-.54-2.75-2.48-4.11-4.79-4.11s-4.59,1.39-5.13,4.11Z"/>
        <path class="cls-14" d="M1690.63,448.51v-24.48h3.54v24.48h-3.54Z"/>
        <path class="cls-14" d="M1699.03,448.51v-24.48h3.54v24.48h-3.54Z"/>
        <path class="cls-14" d="M1723.13,440.93h-13.67c.34,3.13,2.62,5,5.1,5,1.87,0,3.77-.54,4.96-2.92l3.16.68c-1.39,3.54-4.39,5.3-8.12,5.3-4.59,0-8.6-3.54-8.6-8.87s3.98-8.94,8.74-8.94,8.26,3.47,8.43,8.53v1.22ZM1709.56,438.41h9.93c-.54-2.75-2.48-4.11-4.79-4.11s-4.59,1.39-5.13,4.11Z"/>
        <path class="cls-14" d="M1099.8,502.03c0,3.87-3.15,7.04-7.04,7.04h-17.16c-3.9,0-7.04-3.17-7.04-7.04v-17.16c0-3.89,3.15-7.04,7.04-7.04h17.16c3.89,0,7.04,3.15,7.04,7.04v17.16ZM1074.15,493.54h18.28l-5.94,5.92c-.15.15-.22.33-.22.53,0,.4.33.75.75.75.2,0,.38-.07.53-.22l7.17-7.2c.13-.13.22-.33.22-.53s-.07-.38-.22-.53l-7.17-7.17c-.15-.15-.33-.22-.53-.22-.37,0-.75.33-.75.75,0,.2.07.37.22.53l5.94,5.92h-18.28c-.42,0-.75.33-.75.73,0,.42.33.75.75.75Z"/>
        <path class="cls-14" d="M1121.54,477.73c5.03,0,8.19,2.99,8.19,7.34s-3.16,7.41-8.19,7.41h-6.63v8.02h-3.64v-22.78h10.27ZM1121.54,489.16c2.86,0,4.56-1.63,4.56-4.08s-1.7-4.05-4.56-4.05h-6.63v8.13h6.63Z"/>
        <path class="cls-14" d="M1150.27,492.08c0,5.24-4.05,8.84-9.01,8.84s-9.08-3.6-9.08-8.84,4.08-8.8,9.08-8.8,9.01,3.57,9.01,8.8ZM1146.84,492.08c0-3.5-2.69-5.78-5.58-5.78s-5.61,2.28-5.61,5.78,2.65,5.78,5.61,5.78,5.58-2.28,5.58-5.78Z"/>
        <path class="cls-14" d="M1170.81,500.51h-3.57v-1.9c-1.5,1.5-3.57,2.38-6.12,2.38-4.38,0-8.36-3.57-8.36-8.91s3.98-8.91,8.36-8.91c2.55,0,4.62.88,6.12,2.41v-9.55h3.57v24.48ZM1167.24,492.08c0-3.54-2.72-5.78-5.54-5.78-3.06,0-5.47,2.24-5.47,5.78s2.41,5.78,5.47,5.78c2.82,0,5.54-2.21,5.54-5.78Z"/>
        <path class="cls-14" d="M1192.77,492.08c0,5.24-4.05,8.84-9.01,8.84s-9.08-3.6-9.08-8.84,4.08-8.8,9.08-8.8,9.01,3.57,9.01,8.8ZM1189.34,492.08c0-3.5-2.69-5.78-5.58-5.78s-5.61,2.28-5.61,5.78,2.65,5.78,5.61,5.78,5.58-2.28,5.58-5.78Z"/>
        <path class="cls-14" d="M1196.75,493.37v-3.06h11.08v3.06h-11.08Z"/>
        <path class="cls-14" d="M1229.86,492.08c0,5.24-4.04,8.84-9.01,8.84s-9.08-3.6-9.08-8.84,4.08-8.8,9.08-8.8,9.01,3.57,9.01,8.8ZM1226.43,492.08c0-3.5-2.69-5.78-5.58-5.78s-5.61,2.28-5.61,5.78,2.65,5.78,5.61,5.78,5.58-2.28,5.58-5.78Z"/>
        <path class="cls-14" d="M1244.96,483.58l-.24,3.4c-.27-.03-.68-.03-.99-.03-4.28,0-6.39,2.99-6.39,7.62v5.95h-3.54v-16.86h3.54v3.6c1.36-2.24,3.5-3.81,6.42-3.81.41,0,.75,0,1.19.14Z"/>
        <path class="cls-14" d="M1259.68,499.69c-1.6.95-2.75,1.29-4.18,1.29-3.64,0-6.09-2.04-6.09-6.22v-8.19h-3.64v-2.92h3.64v-5.24h3.54v5.24h5.78v2.92h-5.78v7.96c0,2.11,1.12,3.13,2.79,3.13.88,0,1.97-.34,2.86-.92l1.09,2.96Z"/>
        <path class="cls-14" d="M1278.69,490.31v10.2h-3.57v-9.49c0-2.75-1.6-4.59-4.01-4.59-3.03,0-5.03,2.04-5.03,6.29v7.79h-3.54v-24.48h3.54v9.69c1.36-1.63,3.33-2.55,5.85-2.55,4.04,0,6.76,2.92,6.76,7.14Z"/>
        <path class="cls-14" d="M1299.36,492.93h-13.67c.34,3.13,2.62,5,5.1,5,1.87,0,3.77-.54,4.96-2.92l3.16.68c-1.39,3.54-4.38,5.3-8.12,5.3-4.59,0-8.6-3.54-8.6-8.87s3.98-8.94,8.74-8.94,8.26,3.47,8.43,8.53v1.22ZM1285.79,490.41h9.93c-.54-2.75-2.48-4.11-4.79-4.11s-4.59,1.39-5.13,4.11ZM1289.6,481.23l2.48-4.83h4.15l-3.6,4.83h-3.03Z"/>
        <path class="cls-14" d="M1305.38,495.24c.24,2.01,2.01,2.86,4.22,2.86,2.04,0,3.33-.92,3.33-2.24,0-1.02-.71-1.67-2.28-2.01l-3.67-.75c-2.92-.65-4.59-2.21-4.59-4.59,0-3.13,2.62-5.34,6.66-5.34s6.49,2.04,7.11,4.86l-3.37.71c-.27-1.63-1.67-2.75-3.84-2.75s-2.99,1.02-2.99,2.21c0,.95.54,1.56,2.04,1.9l4.01.88c2.72.58,4.39,2.18,4.39,4.56,0,3.54-2.89,5.44-7.11,5.44-3.77,0-7-1.6-7.45-5l3.54-.75Z"/>
        <path class="cls-14" d="M1324.69,478.58c0,1.26-.95,2.18-2.24,2.18s-2.28-.92-2.28-2.18c0-1.19.95-2.21,2.28-2.21s2.24,1.02,2.24,2.21ZM1320.68,500.51v-16.86h3.54v16.86h-3.54Z"/>
        <path class="cls-14" d="M1345.53,492.93h-13.67c.34,3.13,2.62,5,5.1,5,1.87,0,3.77-.54,4.96-2.92l3.16.68c-1.39,3.54-4.39,5.3-8.12,5.3-4.59,0-8.6-3.54-8.6-8.87s3.98-8.94,8.74-8.94,8.26,3.47,8.43,8.53v1.22ZM1331.97,490.41h9.93c-.54-2.75-2.48-4.11-4.79-4.11s-4.59,1.39-5.13,4.11Z"/>
      </g>
    </g>
  </g>
</svg>