<?xml version="1.0" encoding="UTF-8"?>
<svg id="_Слой_2" data-name="Слой 2" xmlns="http://www.w3.org/2000/svg" viewBox="0 0 1734.72 594.49">
  <defs>
    <style>
      .cls-1 {
        fill: #00983a;
      }

      .cls-1, .cls-2 {
        stroke-width: 0px;
      }

      .cls-2 {
        fill: #fff;
      }
    </style>
  </defs>
  <g id="Calque_1" data-name="Calque 1">
    <g>
      <g>
        <rect class="cls-1" width="390" height="594.49" rx="44.38" ry="44.38"/>
        <rect class="cls-1" x="447.97" width="390" height="594.49" rx="44.38" ry="44.38"/>
        <rect class="cls-1" x="1344.72" width="390" height="594.49" rx="44.38" ry="44.38"/>
        <g>
          <path class="cls-2" d="M166.4,281.69l-6.8,1.4c-.5-3.15-3.25-5.2-6.6-5.2s-5.45,1.9-5.45,4.15c0,1.7.75,2.9,3.35,3.4l7.2,1.45c5.45,1.15,8.8,4.4,8.8,9.6,0,6.5-5.35,10.55-13.3,10.55-7,0-13.15-3.25-14-9.95l7.15-1.45c.9,3.8,3.7,5.45,7.5,5.45s5.95-1.85,5.95-4.25c0-1.9-.9-3.05-3.9-3.65l-7.1-1.35c-4-.85-8.8-3.05-8.8-9.6,0-6,4.9-10.2,12.75-10.2,6.8,0,11.95,3.7,13.25,9.65Z"/>
          <path class="cls-2" d="M198,306.29h-6.6v-1.95c-2.1,1.7-4.85,2.7-8.25,2.7-6.35,0-12.25-5.35-12.25-13.2s5.9-13.25,12.25-13.25c3.4,0,6.15,1,8.25,2.75v-2h6.6v24.95ZM191.4,293.84c0-4.6-3.55-7.5-7.1-7.5-4,0-7,2.9-7,7.5s3,7.45,7,7.45c3.55,0,7.1-2.85,7.1-7.45Z"/>
          <path class="cls-2" d="M229.45,291.09v15.2h-6.6v-13.8c0-3.5-2-5.85-5.05-5.85-3.75,0-6.2,2.5-6.2,8.6v11.05h-6.6v-24.95h6.6v2.25c1.95-1.95,4.55-3,7.85-3,6,0,10,4.3,10,10.5Z"/>
          <path class="cls-2" d="M260.15,303.89c0,7.65-5.3,11.9-13.35,11.9-5.8,0-10-2.05-12.15-5.5l5.35-4.05c1.95,2.45,3.55,3.6,6.8,3.6,4.2,0,6.95-2.6,6.95-6.95v-.4c-1.85,1.5-4.4,2.3-7.85,2.3-6.25,0-12.1-5.3-12.1-12.15s5.85-12.05,12.1-12.05c3.45,0,6,.85,7.85,2.3v-1.55h6.35l.05,22.55ZM253.75,292.64c0-3.9-3.2-6.5-6.7-6.5-3.95,0-6.9,2.6-6.9,6.5s2.95,6.5,6.9,6.5c3.5,0,6.7-2.6,6.7-6.5Z"/>
        </g>
        <g>
          <path class="cls-2" d="M597.2,283.32l-6.8,1.4c-.5-3.15-3.25-5.2-6.6-5.2s-5.45,1.9-5.45,4.15c0,1.7.75,2.9,3.35,3.4l7.2,1.45c5.45,1.15,8.8,4.4,8.8,9.6,0,6.5-5.35,10.55-13.3,10.55-7,0-13.15-3.25-14-9.95l7.15-1.45c.9,3.8,3.7,5.45,7.5,5.45s5.95-1.85,5.95-4.25c0-1.9-.9-3.05-3.9-3.65l-7.1-1.35c-4-.85-8.8-3.05-8.8-9.6,0-6,4.9-10.2,12.75-10.2,6.8,0,11.95,3.7,13.25,9.65Z"/>
          <path class="cls-2" d="M627.25,297.22h-19c.65,3.6,3.2,5.8,6.25,5.8,1.95,0,4.4-.25,6.2-3.3l5.9,1.25c-2.2,5.2-6.65,7.7-12.1,7.7-7.05,0-12.8-5.35-12.8-13.2s5.75-13.25,12.9-13.25c6.65,0,12.4,5.15,12.65,12.75v2.25ZM608.45,292.57h12.05c-.85-3.2-3.25-4.6-5.9-4.6-2.5,0-5.35,1.5-6.15,4.6Z"/>
          <path class="cls-2" d="M649.55,282.82l-.35,6.35h-1.45c-6.1,0-8.9,3.75-8.9,10.7v8.05h-6.6v-24.95h6.6v4.55c2-2.9,4.9-4.9,8.95-4.9.65,0,1.15,0,1.75.2Z"/>
          <path class="cls-2" d="M677.5,307.92h-6.6v-2.25c-1.95,1.95-4.55,3-7.85,3-6,0-10-4.3-10-10.5v-15.2h6.6v13.8c0,3.5,2,5.85,5.05,5.85,3.75,0,6.2-2.5,6.2-8.6v-11.05h6.6v24.95Z"/>
          <path class="cls-2" d="M725.55,292.32v15.6h-6.55v-14.25c0-3.35-2.15-5.4-4.9-5.4-3.5,0-5.8,2.4-5.8,7.65v12h-6.6v-14.25c0-3.35-2.15-5.4-4.9-5.4-3.5,0-5.7,2.4-5.7,7.65v12h-6.6v-24.95h6.6v2.05c1.75-1.75,4.2-2.8,7.45-2.8s6.4,1.45,8.2,4.1c2.05-2.55,5.1-4.1,9.1-4.1,5.2,0,9.7,4,9.7,10.1Z"/>
        </g>
        <rect class="cls-1" x="898.72" width="390" height="594.49" rx="44.38" ry="44.38"/>
      </g>
      <g>
        <path class="cls-2" d="M1009.45,280.57v27.35h-6.8v-27.35h-11.15v-6.15h29.1v6.15h-11.15Z"/>
        <path class="cls-2" d="M1044.15,297.22h-19c.65,3.6,3.2,5.8,6.25,5.8,1.95,0,4.4-.25,6.2-3.3l5.9,1.25c-2.2,5.2-6.65,7.7-12.1,7.7-7.05,0-12.8-5.35-12.8-13.2s5.75-13.25,12.9-13.25c6.65,0,12.4,5.15,12.65,12.75v2.25ZM1025.35,292.57h12.05c-.85-3.2-3.25-4.6-5.9-4.6-2.5,0-5.35,1.5-6.15,4.6Z"/>
        <path class="cls-2" d="M1073.6,292.72v15.2h-6.6v-13.8c0-3.5-2-5.85-5.05-5.85-3.75,0-6.2,2.5-6.2,8.6v11.05h-6.6v-24.95h6.6v2.25c1.95-1.95,4.55-3,7.85-3,6,0,10,4.3,10,10.5Z"/>
        <path class="cls-2" d="M1105.05,307.92h-6.6v-1.95c-2.1,1.7-4.85,2.7-8.25,2.7-6.35,0-12.25-5.35-12.25-13.2s5.9-13.25,12.25-13.25c3.4,0,6.15,1,8.25,2.75v-13.05h6.6v36ZM1098.45,295.47c0-4.6-3.55-7.5-7.1-7.5-4,0-7,2.9-7,7.5s3,7.45,7,7.45c3.55,0,7.1-2.85,7.1-7.45Z"/>
        <path class="cls-2" d="M1137.1,295.47c0,7.85-6.15,13.1-13.45,13.1s-13.6-5.25-13.6-13.1,6.15-13.1,13.6-13.1,13.45,5.25,13.45,13.1ZM1130.7,295.47c0-4.65-3.6-7.45-7.05-7.45s-7.2,2.8-7.2,7.45,3.6,7.45,7.2,7.45,7.05-2.8,7.05-7.45Z"/>
        <path class="cls-2" d="M1166.55,292.72v15.2h-6.6v-13.8c0-3.5-2-5.85-5.05-5.85-3.75,0-6.2,2.5-6.2,8.6v11.05h-6.6v-24.95h6.6v2.25c1.95-1.95,4.55-3,7.85-3,6,0,10,4.3,10,10.5Z"/>
        <path class="cls-2" d="M1177.45,299.97c.35,2.55,2.55,3.4,5.15,3.4,2.45,0,3.9-1.1,3.9-2.5,0-.9-.6-1.8-2.75-2.25l-5.1-1.05c-4.5-.95-7.05-3.5-7.05-7.1,0-4.8,3.9-8.25,10.2-8.25,5.9,0,10,3.05,10.85,7.4l-6.3,1.25c-.25-2-2-3.45-4.75-3.45s-3.4,1.3-3.4,2.45c0,.8.3,1.65,2.25,2.1l5.95,1.3c4.4.95,6.55,3.7,6.55,7.05,0,5.5-4.45,8.35-10.95,8.35-5.5,0-10.55-2.15-11.2-7.35l6.65-1.35Z"/>
      </g>
      <g>
        <path class="cls-2" d="M1472.28,288.96c.1,1.15.15,2.1.15,2.9,0,9.95-7.1,17.4-17,17.4s-17.8-7.65-17.8-17.5,7.75-17.5,17.6-17.5c7.05,0,13.7,3.3,16.1,10.1l-6.1,2.15c-2.45-4.7-6.35-5.85-10-5.85-6,0-10.7,4.8-10.7,11.1s4.85,11.15,11.1,11.15c5.1,0,8.9-3,10.05-7.75h-11.75v-6.2h18.35Z"/>
        <path class="cls-2" d="M1501.48,297.81h-19c.65,3.6,3.2,5.8,6.25,5.8,1.95,0,4.4-.25,6.2-3.3l5.9,1.25c-2.2,5.2-6.65,7.7-12.1,7.7-7.05,0-12.8-5.35-12.8-13.2s5.75-13.25,12.9-13.25c6.65,0,12.4,5.15,12.65,12.75v2.25ZM1482.67,293.16h12.05c-.85-3.2-3.25-4.6-5.9-4.6-2.5,0-5.35,1.5-6.15,4.6ZM1486.33,280.16l3.3-7.2h7.75l-5.45,7.2h-5.6Z"/>
        <path class="cls-2" d="M1506.47,308.51v-36h6.6v36h-6.6Z"/>
        <path class="cls-2" d="M1545.18,308.51h-6.6v-1.95c-2.1,1.7-4.85,2.7-8.25,2.7-6.35,0-12.25-5.35-12.25-13.2s5.9-13.25,12.25-13.25c3.4,0,6.15,1,8.25,2.75v-2h6.6v24.95ZM1538.58,296.06c0-4.6-3.55-7.5-7.1-7.5-4,0-7,2.9-7,7.5s3,7.45,7,7.45c3.55,0,7.1-2.85,7.1-7.45Z"/>
        <path class="cls-2" d="M1570.33,307.41c-2.6,1.4-4.4,1.85-6.5,1.85-5.9,0-9.8-3.1-9.8-9.95v-10.35h-5.35v-5.4h5.35v-7.55h6.6v7.55h8.15v5.4h-8.15v9.85c0,3,1.45,4.3,3.65,4.3,1.15,0,2.85-.5,4.15-1.2l1.9,5.5Z"/>
        <path class="cls-2" d="M1581.52,276.11c0,2.2-1.7,3.85-4,3.85s-4-1.65-4-3.85,1.65-3.95,4-3.95,4,1.85,4,3.95ZM1574.22,308.51v-24.95h6.6v24.95h-6.6Z"/>
        <path class="cls-2" d="M1612.63,293.31v15.2h-6.6v-13.8c0-3.5-2-5.85-5.05-5.85-3.75,0-6.2,2.5-6.2,8.6v11.05h-6.6v-24.95h6.6v2.25c1.95-1.95,4.55-3,7.85-3,6,0,10,4.3,10,10.5Z"/>
        <path class="cls-2" d="M1642.53,297.81h-19c.65,3.6,3.2,5.8,6.25,5.8,1.95,0,4.4-.25,6.2-3.3l5.9,1.25c-2.2,5.2-6.65,7.7-12.1,7.7-7.05,0-12.8-5.35-12.8-13.2s5.75-13.25,12.9-13.25c6.65,0,12.4,5.15,12.65,12.75v2.25ZM1623.72,293.16h12.05c-.85-3.2-3.25-4.6-5.9-4.6-2.5,0-5.35,1.5-6.15,4.6Z"/>
      </g>
    </g>
  </g>
</svg>