<?xml version="1.0" encoding="UTF-8"?>
<svg id="_Слой_2" data-name="Слой 2" xmlns="http://www.w3.org/2000/svg" viewBox="0 0 429.8 95.15">
  <defs>
    <style>
      .cls-1 {
        fill: #fff;
        stroke-width: 0px;
      }
    </style>
  </defs>
  <g id="Calque_1" data-name="Calque 1">
    <g>
      <path class="cls-1" d="M6.4,0c.5,0,1,.3,1.2.75l12.6,28c.1.25.2.35.35.35.1,0,.25-.1.35-.35L33.4.75c.2-.45.7-.75,1.2-.75h5.25c.7,0,1.05.3,1.05.8,0,.2-.05.4-.15.65l-15.25,33.5c-.4.85-1.3,1.45-2.25,1.45h-5.6c-.95,0-1.85-.6-2.25-1.45L.15,1.45c-.1-.2-.15-.4-.15-.6C0,.35.4,0,1.1,0h5.3Z"/>
      <path class="cls-1" d="M51.5,7.3c.4-.85,1.35-1.4,2.3-1.4h5c.95,0,1.85.55,2.3,1.4l13.9,27.7c.15.25.2.5.2.65,0,.5-.4.75-1.05.75h-5.05c-.5,0-1-.3-1.25-.75l-2.35-4.65c-.2-.45-.7-.75-1.2-.75h-16.25c-.5,0-1,.3-1.2.75l-2.35,4.65c-.25.45-.75.75-1.25.75h-4.8c-.7,0-1.05-.25-1.05-.75,0-.15.05-.4.2-.65l13.9-27.7ZM61.8,24.55c.35,0,.55-.15.55-.45,0-.05,0-.2-.05-.3l-5.75-11.55c-.1-.2-.25-.35-.35-.35-.15,0-.3.15-.4.35l-5.7,11.55c-.05.15-.1.25-.1.35,0,.25.2.4.55.4h11.25Z"/>
      <path class="cls-1" d="M86.3,5.9c.95,0,1.6.65,1.6,1.6v22.05c0,.5.3.85.85.85h17.3c.95,0,1.55.6,1.55,1.55v2.85c0,.95-.6,1.6-1.55,1.6h-23.45c-.95,0-1.6-.65-1.6-1.6V7.5c0-.95.65-1.6,1.6-1.6h3.7Z"/>
      <path class="cls-1" d="M130.45,5.15c11.75,0,19.7,6.45,19.7,16s-7.95,16-19.7,16-19.65-6.4-19.65-16,7.9-16,19.65-16ZM130.45,31.3c7.55,0,12.7-4.15,12.7-10.15s-5.15-10.15-12.7-10.15-12.65,4.1-12.65,10.15,5.15,10.15,12.65,10.15Z"/>
      <path class="cls-1" d="M178.1,19.15c3.1,0,4.8-1.35,4.8-3.65s-1.7-3.65-4.7-3.65h-12.2c-.5,0-.85.35-.85.85v22.1c0,.95-.6,1.6-1.55,1.6h-3.8c-.95,0-1.6-.65-1.6-1.6V7.5c0-.95.65-1.6,1.6-1.6h17.5c7.85,0,12.5,3.5,12.5,9.4,0,4.75-2.95,8-7.95,9.05l8.5,10.8c.2.3.3.5.3.7,0,.35-.3.55-.9.55h-6.1c-.5,0-1.05-.25-1.35-.65l-8.1-10.6h-5.2c-.7,0-1.1-.3-1.1-.85,0-.15.05-.4.15-.6l1.6-3.75c.2-.5.65-.8,1.2-.8h7.25Z"/>
      <path class="cls-1" d="M203.5,5.9c.95,0,1.55.65,1.55,1.6v27.3c0,.95-.6,1.6-1.55,1.6h-3.7c-.95,0-1.6-.65-1.6-1.6V7.5c0-.95.65-1.6,1.6-1.6h3.7Z"/>
      <path class="cls-1" d="M241.75,12.2c-.25.65-.75,1-1.4,1-.2,0-.4-.05-.65-.15-3.9-1.55-7.3-2.2-11.3-2.2-5.25,0-8,1.1-8,3.25,0,1.6,1.6,2.55,4.9,2.95l9.15,1.1c6.75.8,10.35,4.05,10.35,9.35,0,6.35-5.1,9.65-15,9.65-5.25,0-10.55-.9-15.5-2.75-.65-.25-1-.8-1-1.4,0-.2.05-.4.15-.65l1.2-3c.25-.6.75-.95,1.3-.95.25,0,.5.05.75.15,4.4,1.85,8.85,2.75,13.35,2.75,5.25,0,7.95-1.2,7.95-3.55,0-1.7-1.55-2.65-5.15-3.1l-8.85-1.05c-6.8-.8-10.4-4-10.4-8.95,0-6.15,5.4-9.5,15.3-9.5,4.45,0,8.25.65,13.05,2.35.65.25,1,.75,1,1.35,0,.2,0,.45-.1.65l-1.1,2.7Z"/>
      <path class="cls-1" d="M262.3,7.3c.4-.85,1.35-1.4,2.3-1.4h5c.95,0,1.85.55,2.3,1.4l13.9,27.7c.15.25.2.5.2.65,0,.5-.4.75-1.05.75h-5.05c-.5,0-1-.3-1.25-.75l-2.35-4.65c-.2-.45-.7-.75-1.2-.75h-16.25c-.5,0-1,.3-1.2.75l-2.35,4.65c-.25.45-.75.75-1.25.75h-4.8c-.7,0-1.05-.25-1.05-.75,0-.15.05-.4.2-.65l13.9-27.7ZM272.6,24.55c.35,0,.55-.15.55-.45,0-.05,0-.2-.05-.3l-5.75-11.55c-.1-.2-.25-.35-.35-.35-.15,0-.3.15-.4.35l-5.7,11.55c-.05.15-.1.25-.1.35,0,.25.2.4.55.4h11.25Z"/>
      <path class="cls-1" d="M314.05,5.9c.95,0,1.55.65,1.55,1.6v2.9c0,.95-.6,1.6-1.55,1.6h-9.9c-.5,0-.85.35-.85.85v21.95c0,.95-.6,1.6-1.6,1.6h-3.7c-.95,0-1.55-.65-1.55-1.6V12.85c0-.5-.35-.85-.85-.85h-9.9c-.95,0-1.6-.65-1.6-1.6v-2.9c0-.95.65-1.6,1.6-1.6h28.35Z"/>
      <path class="cls-1" d="M326.45,5.9c.95,0,1.55.65,1.55,1.6v27.3c0,.95-.6,1.6-1.55,1.6h-3.7c-.95,0-1.6-.65-1.6-1.6V7.5c0-.95.65-1.6,1.6-1.6h3.7Z"/>
      <path class="cls-1" d="M355.65,5.15c11.75,0,19.7,6.45,19.7,16s-7.95,16-19.7,16-19.65-6.4-19.65-16,7.9-16,19.65-16ZM355.65,31.3c7.55,0,12.7-4.15,12.7-10.15s-5.15-10.15-12.7-10.15-12.65,4.1-12.65,10.15,5.15,10.15,12.65,10.15Z"/>
      <path class="cls-1" d="M383.4,7.5c0-.95.65-1.6,1.6-1.6h3.55c.5,0,1.1.25,1.45.6l19,19.3V7.5c0-.95.65-1.6,1.6-1.6h3.5c.95,0,1.6.65,1.6,1.6v27.3c0,.95-.65,1.6-1.6,1.6h-3c-.5,0-1.05-.25-1.4-.6l-19.65-20.05v19.05c0,.95-.6,1.6-1.55,1.6h-3.5c-.95,0-1.6-.65-1.6-1.6V7.5Z"/>
      <path class="cls-1" d="M29.95,63.9c.95,0,1.55.65,1.55,1.6v2.8c0,.95-.6,1.6-1.55,1.6H12.05c-.5,0-.85.3-.85.85v4.55c0,.5.35.85.85.85h16.55c.7,0,1.1.3,1.1.85,0,.2,0,.4-.1.6l-1.5,3.6c-.15.45-.65.75-1.15.75h-14.9c-.5,0-.85.35-.85.85v4.8c0,.5.35.85.85.85h19.35c.95,0,1.6.6,1.6,1.55v2.8c0,.95-.65,1.6-1.6,1.6H5.95c-.95,0-1.6-.65-1.6-1.6v-27.3c0-.95.65-1.6,1.6-1.6h24Z"/>
      <path class="cls-1" d="M40.55,65.5c0-.95.65-1.6,1.6-1.6h3.55c.5,0,1.1.25,1.45.6l19,19.3v-18.3c0-.95.65-1.6,1.6-1.6h3.5c.95,0,1.6.65,1.6,1.6v27.3c0,.95-.65,1.6-1.6,1.6h-3c-.5,0-1.05-.25-1.4-.6l-19.65-20.05v19.05c0,.95-.6,1.6-1.55,1.6h-3.5c-.95,0-1.6-.65-1.6-1.6v-27.3Z"/>
      <path class="cls-1" d="M120.5,63.9c7.15,0,11.3,2.85,11.3,7.7,0,2.9-1.45,5.35-3.8,6.4v.25c3.05,1.25,4.95,4.2,4.95,7.75,0,5.35-4.25,8.4-11.9,8.4h-19.3c-.95,0-1.6-.65-1.6-1.6v-27.3c0-.95.65-1.6,1.6-1.6h18.75ZM107,87.6c0,.5.35.85.85.85h13.35c3.1,0,4.9-1.3,4.9-3.45s-1.85-3.4-4.95-3.4h-10.3c-.7,0-1.1-.3-1.1-.85,0-.2.05-.4.15-.65l1.45-3.55c.2-.45.65-.75,1.15-.75h8.65c2.45,0,3.95-1.15,3.95-2.95s-1.5-2.95-3.95-2.95h-13.3c-.5,0-.85.3-.85.85v16.85Z"/>
      <path class="cls-1" d="M157.85,63.15c11.75,0,19.7,6.45,19.7,16s-7.95,16-19.7,16-19.65-6.4-19.65-16,7.9-16,19.65-16ZM157.85,89.3c7.55,0,12.7-4.15,12.7-10.15s-5.15-10.15-12.7-10.15-12.65,4.1-12.65,10.15,5.15,10.15,12.65,10.15Z"/>
      <path class="cls-1" d="M190.15,63.9c.95,0,1.6.65,1.6,1.6v15.7c0,5,3.6,8.05,9.45,8.05s9.5-3.1,9.5-8.05v-15.7c0-.95.65-1.6,1.6-1.6h3.65c.95,0,1.55.65,1.55,1.6v16.55c0,8.2-6.15,13.1-16.3,13.1s-16.35-4.9-16.35-13.1v-16.55c0-.95.65-1.6,1.6-1.6h3.7Z"/>
      <path class="cls-1" d="M255.7,70.3c-.25.6-.75.95-1.3.95-.2,0-.45-.1-.7-.2-3-1.4-6.25-2.1-9.45-2.1-7.65,0-12.4,3.95-12.4,9.85,0,6.25,5.4,10.35,13.25,10.35,3.9,0,7.7-1,10.85-2.75.25-.15.5-.2.7-.2.4,0,.65.3.65.95v3.65c0,3.35-8.2,4.35-12.45,4.35-11.95,0-20-6.55-20-16.25s7.55-15.8,19.5-15.8c3,0,12.75.95,12.75,3.55,0,.2-.05.4-.15.65l-1.25,3Z"/>
      <path class="cls-1" d="M270.2,63.9c.95,0,1.55.65,1.55,1.6v9.3c0,.55.35.85.85.85h17.1c.5,0,.8-.3.8-.85v-9.3c0-.95.65-1.6,1.6-1.6h3.7c.95,0,1.6.65,1.6,1.6v27.3c0,.95-.65,1.6-1.6,1.6h-3.7c-.95,0-1.6-.65-1.6-1.6v-10.3c0-.5-.3-.8-.8-.8h-17.1c-.5,0-.85.3-.85.8v10.3c0,.95-.6,1.6-1.55,1.6h-3.7c-.95,0-1.6-.65-1.6-1.6v-27.3c0-.95.65-1.6,1.6-1.6h3.7Z"/>
      <path class="cls-1" d="M333.35,63.9c.95,0,1.55.65,1.55,1.6v2.8c0,.95-.6,1.6-1.55,1.6h-17.9c-.5,0-.85.3-.85.85v4.55c0,.5.35.85.85.85h16.55c.7,0,1.1.3,1.1.85,0,.2,0,.4-.1.6l-1.5,3.6c-.15.45-.65.75-1.15.75h-14.9c-.5,0-.85.35-.85.85v4.8c0,.5.35.85.85.85h19.35c.95,0,1.6.6,1.6,1.55v2.8c0,.95-.65,1.6-1.6,1.6h-25.45c-.95,0-1.6-.65-1.6-1.6v-27.3c0-.95.65-1.6,1.6-1.6h24Z"/>
      <path class="cls-1" d="M363.85,77.15c3.1,0,4.8-1.35,4.8-3.65s-1.7-3.65-4.7-3.65h-12.2c-.5,0-.85.35-.85.85v22.1c0,.95-.6,1.6-1.55,1.6h-3.8c-.95,0-1.6-.65-1.6-1.6v-27.3c0-.95.65-1.6,1.6-1.6h17.5c7.85,0,12.5,3.5,12.5,9.4,0,4.75-2.95,8-7.95,9.05l8.5,10.8c.2.3.3.5.3.7,0,.35-.3.55-.9.55h-6.1c-.5,0-1.05-.25-1.35-.65l-8.1-10.6h-5.2c-.7,0-1.1-.3-1.1-.85,0-.15.05-.4.15-.6l1.6-3.75c.2-.5.65-.8,1.2-.8h7.25Z"/>
      <path class="cls-1" d="M389.25,63.9c.95,0,1.55.65,1.55,1.6v27.3c0,.95-.6,1.6-1.55,1.6h-3.7c-.95,0-1.6-.65-1.6-1.6v-27.3c0-.95.65-1.6,1.6-1.6h3.7Z"/>
      <path class="cls-1" d="M426.75,63.9c.95,0,1.55.65,1.55,1.6v2.8c0,.95-.6,1.6-1.55,1.6h-17.9c-.5,0-.85.3-.85.85v4.55c0,.5.35.85.85.85h16.55c.7,0,1.1.3,1.1.85,0,.2,0,.4-.1.6l-1.5,3.6c-.15.45-.65.75-1.15.75h-14.9c-.5,0-.85.35-.85.85v4.8c0,.5.35.85.85.85h19.35c.95,0,1.6.6,1.6,1.55v2.8c0,.95-.65,1.6-1.6,1.6h-25.45c-.95,0-1.6-.65-1.6-1.6v-27.3c0-.95.65-1.6,1.6-1.6h24Z"/>
    </g>
  </g>
</svg>