<?xml version="1.0" encoding="UTF-8"?>
<svg id="_Слой_2" data-name="Слой 2" xmlns="http://www.w3.org/2000/svg" viewBox="0 0 1617.1 784.56">
  <defs>
    <style>
      .cls-1 {
        fill: none;
        stroke: #fff;
        stroke-linecap: round;
        stroke-miterlimit: 10;
        stroke-width: 4.44px;
      }

      .cls-2 {
        fill: #fff;
      }

      .cls-2, .cls-3 {
        stroke-width: 0px;
      }

      .cls-3 {
        fill: rgba(157, 173, 217, .9);
      }
    </style>
  </defs>
  <g id="Calque_1" data-name="Calque 1">
    <g>
      <rect class="cls-3" width="1617.1" height="784.56" rx="44.38" ry="44.38"/>
      <g>
        <path class="cls-2" d="M163.24,274.47c24.31,0,40.37,14.96,40.37,36.85s-16.06,36.85-40.37,36.85h-29.15v-73.7h29.15ZM162.58,332.44c13.75,0,22.77-8.36,22.77-21.12s-9.02-21.12-22.77-21.12h-10.34v42.24h10.34Z"/>
        <path class="cls-2" d="M267.95,325.07h-40.48c1.43,6.6,5.94,10.67,11.88,10.67,4.07,0,8.8-.99,11.77-6.38l15.62,3.19c-4.73,11.66-14.74,17.27-27.39,17.27-15.95,0-29.15-11.77-29.15-29.26s13.2-29.26,29.26-29.26,28.16,11.22,28.49,29.26v4.51ZM227.8,314.29h22.77c-1.65-5.94-6.05-8.69-11.11-8.69s-10.01,3.08-11.66,8.69ZM231.98,285.8l7.81-16.72h20.9l-13.09,16.72h-15.62Z"/>
        <path class="cls-2" d="M315.58,324.74l16.17,3.52c-2.75,13.09-14.41,21.56-28.16,21.56-16.5,0-30.14-11.77-30.14-29.26s13.64-29.26,30.14-29.26c13.42,0,25.08,8.25,28.16,21.23l-16.5,3.96c-1.54-6.71-6.05-9.79-11.66-9.79-7.92,0-13.2,5.83-13.2,13.86s5.28,13.86,13.2,13.86c5.61,0,10.12-2.97,11.99-9.68Z"/>
        <path class="cls-2" d="M398.08,320.56c0,17.49-13.86,29.15-30.25,29.15s-30.58-11.66-30.58-29.15,13.86-29.04,30.58-29.04,30.25,11.66,30.25,29.04ZM381.14,320.56c0-8.58-6.49-14.3-13.31-14.3s-13.64,5.72-13.64,14.3,6.49,14.3,13.64,14.3,13.31-5.61,13.31-14.3Z"/>
        <path class="cls-2" d="M462.43,348.17h-17.6v-5.28c-4.18,4.4-10.01,6.93-16.94,6.93-12.87,0-21.45-9.13-21.45-22.99v-33.88h17.49v30.14c0,6.49,3.85,10.89,9.46,10.89,6.93,0,11.44-4.73,11.44-15.4v-25.63h17.6v55.22Z"/>
        <path class="cls-2" d="M510.39,348.17h-17.93l-22.88-55.33h18.59l13.31,34.1,13.2-34.1h18.59l-22.88,55.33Z"/>
        <path class="cls-2" d="M581.01,292.62l-.77,17.6h-3.19c-12.32,0-19.03,6.38-19.03,20.68v17.27h-17.6v-55.22h17.6v10.56c3.96-6.6,10.01-11.33,19.03-11.33,1.54,0,2.64.11,3.96.44Z"/>
        <path class="cls-2" d="M642.28,325.07h-40.48c1.43,6.6,5.94,10.67,11.88,10.67,4.07,0,8.8-.99,11.77-6.38l15.62,3.19c-4.73,11.66-14.74,17.27-27.39,17.27-15.95,0-29.15-11.77-29.15-29.26s13.2-29.26,29.26-29.26,28.16,11.22,28.49,29.26v4.51ZM602.13,314.29h22.77c-1.65-5.94-6.05-8.69-11.11-8.69s-10.01,3.08-11.66,8.69Z"/>
        <path class="cls-2" d="M676.93,348.17v-79.2h17.6v79.2h-17.6Z"/>
        <path class="cls-2" d="M761.41,325.07h-40.48c1.43,6.6,5.94,10.67,11.88,10.67,4.07,0,8.8-.99,11.77-6.38l15.62,3.19c-4.73,11.66-14.74,17.27-27.39,17.27-15.95,0-29.15-11.77-29.15-29.26s13.2-29.26,29.26-29.26,28.16,11.22,28.49,29.26v4.51ZM721.26,314.29h22.77c-1.65-5.94-6.05-8.69-11.11-8.69s-10.01,3.08-11.66,8.69Z"/>
        <path class="cls-2" d="M783.96,330.24c.77,4.73,5.06,6.49,9.79,6.49s7.15-1.98,7.15-4.4c0-1.87-1.43-3.3-5.5-4.07l-11.22-2.2c-10.23-1.87-16.06-7.37-16.06-16.06,0-11.33,9.79-18.7,23.76-18.7s22.88,6.27,25.08,15.84l-16.06,3.19c-.55-3.41-3.85-6.49-9.24-6.49-4.73,0-6.27,2.31-6.27,4.29,0,1.54.66,3.08,4.18,3.85l12.98,2.64c10.45,2.2,15.29,8.47,15.29,16.61,0,12.21-10.56,18.59-25.08,18.59-12.98,0-24.09-4.73-25.96-16.06l17.16-3.52Z"/>
        <path class="cls-2" d="M891.21,324.74l16.17,3.52c-2.75,13.09-14.41,21.56-28.16,21.56-16.5,0-30.14-11.77-30.14-29.26s13.64-29.26,30.14-29.26c13.42,0,25.08,8.25,28.16,21.23l-16.5,3.96c-1.54-6.71-6.05-9.79-11.66-9.79-7.92,0-13.2,5.83-13.2,13.86s5.28,13.86,13.2,13.86c5.61,0,10.12-2.97,11.99-9.68Z"/>
        <path class="cls-2" d="M973.71,320.56c0,17.49-13.86,29.15-30.25,29.15s-30.58-11.66-30.58-29.15,13.86-29.04,30.58-29.04,30.25,11.66,30.25,29.04ZM956.77,320.56c0-8.58-6.49-14.3-13.31-14.3s-13.64,5.72-13.64,14.3,6.49,14.3,13.64,14.3,13.31-5.61,13.31-14.3Z"/>
        <path class="cls-2" d="M985.03,326.72v-14.85h36.41v14.85h-36.41Z"/>
        <path class="cls-2" d="M1096.13,320.56c0,17.49-12.32,29.26-26.95,29.26-7.15,0-12.87-2.2-17.16-6.05v23.1h-17.6v-73.92h17.6v4.4c4.29-3.85,10.01-6.05,17.16-6.05,14.63,0,26.95,11.88,26.95,29.26ZM1078.86,320.56c0-8.47-5.61-14.3-13.31-14.3-7.15,0-13.53,5.83-13.53,14.3s6.38,14.3,13.53,14.3c7.7,0,13.31-5.72,13.31-14.3Z"/>
        <path class="cls-2" d="M1145.85,292.62l-.77,17.6h-3.19c-12.32,0-19.03,6.38-19.03,20.68v17.27h-17.6v-55.22h17.6v10.56c3.96-6.6,10.01-11.33,19.03-11.33,1.54,0,2.64.11,3.96.44Z"/>
        <path class="cls-2" d="M1210.2,320.56c0,17.49-13.86,29.15-30.25,29.15s-30.58-11.66-30.58-29.15,13.86-29.04,30.58-29.04,30.25,11.66,30.25,29.04ZM1193.26,320.56c0-8.58-6.49-14.3-13.31-14.3s-13.64,5.72-13.64,14.3,6.49,14.3,13.64,14.3,13.31-5.61,13.31-14.3Z"/>
        <path class="cls-2" d="M1277.41,348.17h-17.6v-4.4c-4.29,3.85-10.01,6.05-17.16,6.05-14.63,0-26.95-11.77-26.95-29.26s12.32-29.26,26.95-29.26c7.15,0,12.87,2.2,17.16,6.05v-28.38h17.6v79.2ZM1259.81,320.56c0-8.47-6.38-14.3-13.53-14.3-7.7,0-13.31,5.83-13.31,14.3s5.61,14.3,13.31,14.3c7.15,0,13.53-5.72,13.53-14.3Z"/>
        <path class="cls-2" d="M1345.39,348.17h-17.6v-5.28c-4.18,4.4-10.01,6.93-16.94,6.93-12.87,0-21.45-9.13-21.45-22.99v-33.88h17.49v30.14c0,6.49,3.85,10.89,9.46,10.89,6.93,0,11.44-4.73,11.44-15.4v-25.63h17.6v55.22Z"/>
        <path class="cls-2" d="M1378.06,276.67c0,5.61-4.29,9.79-10.23,9.79s-10.12-4.18-10.12-9.79,4.18-10.01,10.12-10.01,10.23,4.62,10.23,10.01ZM1359.03,348.17v-55.22h17.6v55.22h-17.6Z"/>
        <path class="cls-2" d="M1431.19,345.75c-4.29,2.31-8.8,4.07-15.07,4.07-13.75,0-22-7.48-22-22v-20.9h-10.01v-13.97h10.01v-16.28h17.6v16.28h16.28v13.97h-16.28v19.14c0,5.72,2.75,8.03,7.37,8.03,2.42,0,5.72-.88,8.03-2.2l4.07,13.86Z"/>
        <path class="cls-2" d="M1451.32,330.24c.77,4.73,5.06,6.49,9.79,6.49s7.15-1.98,7.15-4.4c0-1.87-1.43-3.3-5.5-4.07l-11.22-2.2c-10.23-1.87-16.06-7.37-16.06-16.06,0-11.33,9.79-18.7,23.76-18.7s22.88,6.27,25.08,15.84l-16.06,3.19c-.55-3.41-3.85-6.49-9.24-6.49-4.73,0-6.27,2.31-6.27,4.29,0,1.54.66,3.08,4.18,3.85l12.98,2.64c10.45,2.2,15.29,8.47,15.29,16.61,0,12.21-10.56,18.59-25.08,18.59-12.98,0-24.09-4.73-25.96-16.06l17.16-3.52Z"/>
        <path class="cls-2" d="M378.5,450.92h-5.7v-18.6c-3.3,4.35-8.55,6.82-14.7,6.82-9.82,0-18.45-7.72-18.45-19.42s8.62-19.42,18.45-19.42c6.15,0,11.4,2.47,14.7,6.82v-5.92h5.7v49.72ZM372.8,419.72c0-8.85-6.82-14.4-13.8-14.4-7.65,0-13.8,5.55-13.8,14.4s6.15,14.32,13.8,14.32c6.97,0,13.8-5.55,13.8-14.32Z"/>
        <path class="cls-2" d="M424.78,438.09h-5.77v-6c-3,4.42-7.8,6.98-13.95,6.98-8.92,0-14.85-6.38-14.85-15.75v-22.12h5.77v21.07c0,6.9,4.05,11.47,10.2,11.47,7.72,0,12.82-5.17,12.82-14.77v-17.77h5.77v36.9Z"/>
        <path class="cls-2" d="M445.33,390.02c0,2.18-1.73,3.83-3.97,3.83s-3.9-1.65-3.9-3.83c0-2.02,1.65-3.82,3.9-3.82s3.97,1.8,3.97,3.82ZM438.5,438.17v-36.97h5.77v36.97h-5.77Z"/>
        <path class="cls-2" d="M479.53,426.92c.53,4.88,5.02,7.5,10.88,7.5,5.32,0,8.85-2.47,8.85-6.3,0-3.07-2.33-4.5-6.08-5.32l-8.47-1.88c-6.15-1.28-9.6-4.35-9.6-9.45,0-6.67,5.55-11.17,14.02-11.17s13.72,4.27,15.07,10.27l-5.48,1.2c-.75-4.05-4.27-6.83-9.75-6.83s-8.17,2.55-8.17,6.08c0,2.92,2.02,4.27,5.62,5.1l8.92,1.95c5.4,1.2,9.52,4.05,9.52,9.67,0,7.28-6.07,11.4-14.92,11.4s-15.22-3.75-16.12-10.95l5.7-1.28Z"/>
        <path class="cls-2" d="M548.83,420.85h-31.72c.53,8.32,6.82,13.27,13.2,13.27,5.25,0,9.97-2.03,12.6-7.95l5.1,1.2c-2.92,7.72-9.37,11.77-17.7,11.77-9.82,0-18.75-7.57-18.75-19.35s8.92-19.5,19.12-19.5,17.77,7.42,18.15,18.45v2.1ZM517.33,416.57h25.72c-1.05-7.27-6.22-11.25-12.37-11.25s-12.22,3.97-13.35,11.25Z"/>
        <path class="cls-2" d="M605.68,425.5l5.25,1.42c-2.02,7.58-9.3,12.22-17.47,12.22-10.42,0-19.27-7.65-19.27-19.42s8.85-19.42,19.27-19.42c8.1,0,15.3,4.72,17.55,12.3l-5.47,1.65c-1.65-5.7-6.6-8.7-12.07-8.7-7.57,0-13.72,5.7-13.72,14.17s6.15,14.1,13.72,14.1c5.47,0,10.42-2.78,12.22-8.33Z"/>
        <path class="cls-2" d="M655.85,438.17h-5.7v-5.85c-3.3,4.35-8.55,6.82-14.7,6.82-9.82,0-18.45-7.72-18.45-19.42s8.62-19.42,18.45-19.42c6.15,0,11.4,2.47,14.7,6.82v-5.92h5.7v36.97ZM650.15,419.72c0-8.85-6.82-14.4-13.8-14.4-7.65,0-13.8,5.55-13.8,14.4s6.15,14.32,13.8,14.32c6.97,0,13.8-5.55,13.8-14.32Z"/>
        <path class="cls-2" d="M697.18,425.5l5.25,1.42c-2.02,7.58-9.3,12.22-17.47,12.22-10.42,0-19.27-7.65-19.27-19.42s8.85-19.42,19.27-19.42c8.1,0,15.3,4.72,17.55,12.3l-5.47,1.65c-1.65-5.7-6.6-8.7-12.07-8.7-7.57,0-13.72,5.7-13.72,14.17s6.15,14.1,13.72,14.1c5.47,0,10.42-2.78,12.22-8.33Z"/>
        <path class="cls-2" d="M746.75,416.05v22.12h-5.7v-21.07c0-6.9-4.12-11.55-10.27-11.55-7.72,0-12.82,5.25-12.82,14.85v17.77h-5.7v-54h5.7v23.17c3-4.5,7.73-7.05,13.95-7.05,8.92,0,14.85,6.37,14.85,15.75Z"/>
        <path class="cls-2" d="M793.02,420.85h-31.72c.53,8.32,6.82,13.27,13.2,13.27,5.25,0,9.97-2.03,12.6-7.95l5.1,1.2c-2.92,7.72-9.37,11.77-17.7,11.77-9.82,0-18.75-7.57-18.75-19.35s8.92-19.5,19.12-19.5,17.77,7.42,18.15,18.45v2.1ZM761.53,416.57h25.72c-1.05-7.27-6.22-11.25-12.37-11.25s-12.22,3.97-13.35,11.25Z"/>
        <path class="cls-2" d="M837.35,416.05v22.12h-5.7v-21.07c0-6.9-4.12-11.55-10.27-11.55-7.72,0-12.82,5.25-12.82,14.85v17.77h-5.7v-36.97h5.7v6.15c3-4.5,7.73-7.05,13.95-7.05,8.92,0,14.85,6.37,14.85,15.75Z"/>
        <path class="cls-2" d="M871.85,436.22c-3,2.1-5.55,2.92-8.55,2.92-7.35,0-12.22-4.35-12.22-12.52v-20.62h-8.02v-4.8h8.02v-11.77h5.77v11.77h13.2v4.8h-13.2v20.25c0,4.8,2.7,7.5,6.82,7.5,2.1,0,4.42-.9,6.3-2.25l1.88,4.72Z"/>
        <path class="cls-2" d="M933.57,438.17h-5.7v-5.85c-3.3,4.35-8.55,6.82-14.7,6.82-9.82,0-18.45-7.72-18.45-19.42s8.62-19.42,18.45-19.42c6.15,0,11.4,2.47,14.7,6.82v-22.95h5.7v54ZM927.87,419.72c0-8.85-6.82-14.4-13.8-14.4-7.65,0-13.8,5.55-13.8,14.4s6.15,14.32,13.8,14.32c6.97,0,13.8-5.55,13.8-14.32Z"/>
        <path class="cls-2" d="M981.87,438.17h-5.7v-5.85c-3.3,4.35-8.55,6.82-14.7,6.82-9.82,0-18.45-7.72-18.45-19.42s8.62-19.42,18.45-19.42c6.15,0,11.4,2.47,14.7,6.82v-5.92h5.7v36.97ZM976.17,419.72c0-8.85-6.82-14.4-13.8-14.4-7.65,0-13.8,5.55-13.8,14.4s6.15,14.32,13.8,14.32c6.97,0,13.8-5.55,13.8-14.32Z"/>
        <path class="cls-2" d="M1029.57,416.05v22.12h-5.7v-21.07c0-6.9-4.12-11.55-10.27-11.55-7.72,0-12.82,5.25-12.82,14.85v17.77h-5.7v-36.97h5.7v6.15c3-4.5,7.73-7.05,13.95-7.05,8.92,0,14.85,6.37,14.85,15.75Z"/>
        <path class="cls-2" d="M1044.42,426.92c.53,4.88,5.02,7.5,10.88,7.5,5.32,0,8.85-2.47,8.85-6.3,0-3.07-2.33-4.5-6.07-5.32l-8.48-1.88c-6.15-1.28-9.6-4.35-9.6-9.45,0-6.67,5.55-11.17,14.02-11.17s13.72,4.27,15.07,10.27l-5.48,1.2c-.75-4.05-4.27-6.83-9.75-6.83s-8.17,2.55-8.17,6.08c0,2.92,2.02,4.27,5.62,5.1l8.92,1.95c5.4,1.2,9.52,4.05,9.52,9.67,0,7.28-6.07,11.4-14.92,11.4s-15.22-3.75-16.12-10.95l5.7-1.28Z"/>
        <path class="cls-2" d="M1098.72,438.17v-54h5.7v54h-5.7Z"/>
        <path class="cls-2" d="M1152.72,438.17h-5.7v-5.85c-3.3,4.35-8.55,6.82-14.7,6.82-9.82,0-18.45-7.72-18.45-19.42s8.62-19.42,18.45-19.42c6.15,0,11.4,2.47,14.7,6.82v-5.92h5.7v36.97ZM1147.02,419.72c0-8.85-6.82-14.4-13.8-14.4-7.65,0-13.8,5.55-13.8,14.4s6.15,14.32,13.8,14.32c6.97,0,13.8-5.55,13.8-14.32Z"/>
        <path class="cls-2" d="M1202.15,438.17h-6.22l-16.35-36.97h6.22l13.27,30.22,13.2-30.22h6.22l-16.35,36.97Z"/>
        <path class="cls-2" d="M1233.87,390.02c0,2.18-1.73,3.83-3.97,3.83s-3.9-1.65-3.9-3.83c0-2.02,1.65-3.82,3.9-3.82s3.97,1.8,3.97,3.82ZM1227.05,438.17v-36.97h5.77v36.97h-5.77Z"/>
        <path class="cls-2" d="M1280.52,420.85h-31.72c.53,8.32,6.83,13.27,13.2,13.27,5.25,0,9.97-2.03,12.6-7.95l5.1,1.2c-2.92,7.72-9.37,11.77-17.7,11.77-9.82,0-18.75-7.57-18.75-19.35s8.92-19.5,19.12-19.5,17.77,7.42,18.15,18.45v2.1ZM1249.02,416.57h25.72c-1.05-7.27-6.22-11.25-12.37-11.25s-12.22,3.97-13.35,11.25Z"/>
        <path class="cls-2" d="M543.73,513.17h-5.7v-5.85c-3.3,4.35-8.55,6.82-14.7,6.82-9.82,0-18.45-7.72-18.45-19.42s8.62-19.42,18.45-19.42c6.15,0,11.4,2.47,14.7,6.82v-22.95h5.7v54ZM538.03,494.72c0-8.85-6.82-14.4-13.8-14.4-7.65,0-13.8,5.55-13.8,14.4s6.15,14.32,13.8,14.32c6.97,0,13.8-5.55,13.8-14.32Z"/>
        <path class="cls-2" d="M590.83,495.85h-31.72c.53,8.32,6.82,13.27,13.2,13.27,5.25,0,9.97-2.03,12.6-7.95l5.1,1.2c-2.92,7.72-9.37,11.77-17.7,11.77-9.82,0-18.75-7.57-18.75-19.35s8.92-19.5,19.12-19.5,17.77,7.42,18.15,18.45v2.1ZM559.33,491.57h25.72c-1.05-7.27-6.22-11.25-12.37-11.25s-12.22,3.97-13.35,11.25Z"/>
        <path class="cls-2" d="M641.75,511.22c-3,2.1-5.55,2.92-8.55,2.92-7.35,0-12.22-4.35-12.22-12.52v-20.62h-8.02v-4.8h8.02v-11.77h5.77v11.77h13.2v4.8h-13.2v20.25c0,4.8,2.7,7.5,6.82,7.5,2.1,0,4.42-.9,6.3-2.25l1.88,4.72Z"/>
        <path class="cls-2" d="M683.83,494.65c0,11.33-8.7,19.42-19.57,19.42s-19.65-8.1-19.65-19.42,8.62-19.27,19.65-19.27,19.57,7.95,19.57,19.27ZM678.2,494.65c0-8.47-6.38-14.25-13.95-14.25s-14.1,5.77-14.1,14.25,6.45,14.4,14.1,14.4,13.95-5.85,13.95-14.4Z"/>
        <path class="cls-2" d="M727.25,513.09h-5.77v-6c-3,4.42-7.8,6.98-13.95,6.98-8.92,0-14.85-6.38-14.85-15.75v-22.12h5.77v21.07c0,6.9,4.05,11.47,10.2,11.47,7.72,0,12.82-5.17,12.82-14.77v-17.77h5.77v36.9Z"/>
        <path class="cls-2" d="M742.33,501.92c.53,4.88,5.02,7.5,10.88,7.5,5.32,0,8.85-2.47,8.85-6.3,0-3.07-2.33-4.5-6.08-5.32l-8.47-1.88c-6.15-1.28-9.6-4.35-9.6-9.45,0-6.67,5.55-11.17,14.02-11.17s13.72,4.27,15.07,10.27l-5.48,1.2c-.75-4.05-4.27-6.83-9.75-6.83s-8.17,2.55-8.17,6.08c0,2.92,2.02,4.27,5.62,5.1l8.92,1.95c5.4,1.2,9.52,4.05,9.52,9.67,0,7.28-6.07,11.4-14.92,11.4s-15.22-3.75-16.12-10.95l5.7-1.28Z"/>
        <path class="cls-2" d="M796.63,513.17v-54h5.7v54h-5.7Z"/>
        <path class="cls-2" d="M849.43,495.85h-31.72c.53,8.32,6.82,13.27,13.2,13.27,5.25,0,9.97-2.03,12.6-7.95l5.1,1.2c-2.92,7.72-9.37,11.77-17.7,11.77-9.82,0-18.75-7.57-18.75-19.35s8.92-19.5,19.12-19.5,17.77,7.42,18.15,18.45v2.1ZM817.93,491.57h25.72c-1.05-7.27-6.22-11.25-12.37-11.25s-12.22,3.97-13.35,11.25Z"/>
        <path class="cls-2" d="M861.8,501.92c.53,4.88,5.02,7.5,10.88,7.5,5.32,0,8.85-2.47,8.85-6.3,0-3.07-2.33-4.5-6.07-5.32l-8.48-1.88c-6.15-1.28-9.6-4.35-9.6-9.45,0-6.67,5.55-11.17,14.02-11.17s13.72,4.27,15.07,10.27l-5.48,1.2c-.75-4.05-4.27-6.83-9.75-6.83s-8.17,2.55-8.17,6.08c0,2.92,2.02,4.27,5.62,5.1l8.92,1.95c5.4,1.2,9.52,4.05,9.52,9.67,0,7.28-6.07,11.4-14.92,11.4s-15.22-3.75-16.12-10.95l5.7-1.28Z"/>
        <path class="cls-2" d="M909.58,520.44c1.2.53,2.4.83,3.52.83,2.92,0,4.87-1.8,4.87-4.58v-40.5h5.77v41.17c0,5.62-3.75,9.3-9.3,9.3-2.47,0-4.42-.52-6.15-1.27l1.27-4.95ZM924.73,465.02c0,2.18-1.65,3.83-3.9,3.83s-3.98-1.65-3.98-3.83c0-2.02,1.65-3.82,3.98-3.82s3.9,1.8,3.9,3.82Z"/>
        <path class="cls-2" d="M973.32,494.65c0,11.33-8.7,19.42-19.57,19.42s-19.65-8.1-19.65-19.42,8.62-19.27,19.65-19.27,19.57,7.95,19.57,19.27ZM967.7,494.65c0-8.47-6.38-14.25-13.95-14.25s-14.1,5.77-14.1,14.25,6.45,14.4,14.1,14.4,13.95-5.85,13.95-14.4Z"/>
        <path class="cls-2" d="M1016.75,513.09h-5.77v-6c-3,4.42-7.8,6.98-13.95,6.98-8.92,0-14.85-6.38-14.85-15.75v-22.12h5.77v21.07c0,6.9,4.05,11.47,10.2,11.47,7.72,0,12.82-5.17,12.82-14.77v-17.77h5.77v36.9Z"/>
        <path class="cls-2" d="M1053.12,476.12l-.45,5.48c-.68-.08-1.5-.08-2.17-.08-9.82,0-14.85,7.42-14.85,17.4v14.25h-5.77v-36.97h5.77v9.08c3-5.48,8.02-9.45,14.85-9.45.9,0,1.57,0,2.62.3Z"/>
        <path class="cls-2" d="M1062.72,501.92c.53,4.88,5.02,7.5,10.88,7.5,5.32,0,8.85-2.47,8.85-6.3,0-3.07-2.33-4.5-6.08-5.32l-8.47-1.88c-6.15-1.28-9.6-4.35-9.6-9.45,0-6.67,5.55-11.17,14.02-11.17s13.72,4.27,15.07,10.27l-5.48,1.2c-.75-4.05-4.27-6.83-9.75-6.83s-8.17,2.55-8.17,6.08c0,2.92,2.02,4.27,5.62,5.1l8.92,1.95c5.4,1.2,9.52,4.05,9.52,9.67,0,7.28-6.07,11.4-14.92,11.4s-15.22-3.75-16.12-10.95l5.7-1.28Z"/>
        <path class="cls-2" d="M1103.07,509.65c0,2.1-1.65,3.75-3.9,3.75s-3.9-1.65-3.9-3.75,1.65-3.83,3.9-3.83,3.9,1.8,3.9,3.83Z"/>
        <path class="cls-2" d="M1118.37,509.65c0,2.1-1.65,3.75-3.9,3.75s-3.9-1.65-3.9-3.75,1.65-3.83,3.9-3.83,3.9,1.8,3.9,3.83Z"/>
        <path class="cls-2" d="M1133.67,509.65c0,2.1-1.65,3.75-3.9,3.75s-3.9-1.65-3.9-3.75,1.65-3.83,3.9-3.83,3.9,1.8,3.9,3.83Z"/>
      </g>
      <g>
        <circle class="cls-1" cx="809.98" cy="688.75" r="47.2"/>
        <g>
          <line class="cls-1" x1="788.03" y1="688.75" x2="831.93" y2="688.75"/>
          <polyline class="cls-1" points="818.05 674.88 831.93 688.75 818.05 702.63"/>
        </g>
      </g>
    </g>
  </g>
</svg>