<?xml version="1.0" encoding="UTF-8"?>
<svg id="_Слой_2" data-name="Слой 2" xmlns="http://www.w3.org/2000/svg" viewBox="0 0 1617.1 784.56">
  <defs>
    <style>
      .cls-1 {
        fill: none;
        stroke: #fff;
        stroke-linecap: round;
        stroke-miterlimit: 10;
        stroke-width: 4.44px;
      }

      .cls-2 {
        fill: #fff;
      }

      .cls-2, .cls-3 {
        stroke-width: 0px;
      }

      .cls-3 {
        fill: rgba(157, 173, 217, .9);
      }
    </style>
  </defs>
  <g id="Calque_1" data-name="Calque 1">
    <g>
      <rect class="cls-3" x="0" width="1617.1" height="784.56" rx="44.38" ry="44.38"/>
      <g>
        <path class="cls-2" d="M261.87,289.25h-27.22v-36.84h9.07v28.93h18.15v7.92Z"/>
        <path class="cls-2" d="M293.99,277.7h-20.24c.71,3.3,2.97,5.33,5.94,5.33,2.03,0,4.4-.5,5.88-3.19l7.81,1.59c-2.36,5.83-7.37,8.63-13.69,8.63-7.97,0-14.57-5.88-14.57-14.63s6.6-14.63,14.63-14.63,14.08,5.61,14.24,14.63v2.25ZM273.92,272.31h11.38c-.82-2.97-3.02-4.34-5.55-4.34s-5,1.54-5.83,4.34Z"/>
        <path class="cls-2" d="M305.26,280.29c.39,2.36,2.53,3.25,4.89,3.25s3.57-.99,3.57-2.2c0-.93-.71-1.65-2.75-2.04l-5.61-1.1c-5.11-.93-8.03-3.68-8.03-8.03,0-5.67,4.89-9.35,11.88-9.35s11.44,3.13,12.54,7.92l-8.03,1.59c-.27-1.7-1.92-3.24-4.62-3.24-2.36,0-3.13,1.16-3.13,2.14,0,.77.33,1.54,2.09,1.92l6.49,1.32c5.22,1.1,7.64,4.23,7.64,8.3,0,6.1-5.28,9.29-12.54,9.29-6.49,0-12.04-2.37-12.98-8.03l8.58-1.76Z"/>
        <path class="cls-2" d="M358.89,277.54l8.08,1.76c-1.38,6.54-7.2,10.78-14.08,10.78-8.25,0-15.07-5.88-15.07-14.63s6.82-14.63,15.07-14.63c6.71,0,12.54,4.12,14.08,10.61l-8.25,1.98c-.77-3.35-3.02-4.89-5.83-4.89-3.96,0-6.6,2.92-6.6,6.93s2.64,6.93,6.6,6.93c2.8,0,5.06-1.49,5.99-4.84Z"/>
        <path class="cls-2" d="M400.14,275.45c0,8.74-6.93,14.57-15.12,14.57s-15.29-5.83-15.29-14.57,6.93-14.52,15.29-14.52,15.12,5.83,15.12,14.52ZM391.67,275.45c0-4.29-3.24-7.15-6.65-7.15s-6.82,2.86-6.82,7.15,3.24,7.15,6.82,7.15,6.65-2.8,6.65-7.15Z"/>
        <path class="cls-2" d="M405.8,278.53v-7.42h18.2v7.42h-18.2Z"/>
        <path class="cls-2" d="M461.35,275.45c0,8.74-6.16,14.63-13.47,14.63-3.57,0-6.43-1.1-8.58-3.02v11.55h-8.8v-36.96h8.8v2.2c2.15-1.92,5-3.03,8.58-3.03,7.31,0,13.47,5.94,13.47,14.63ZM452.72,275.45c0-4.23-2.8-7.15-6.65-7.15-3.57,0-6.76,2.92-6.76,7.15s3.19,7.15,6.76,7.15c3.85,0,6.65-2.86,6.65-7.15Z"/>
        <path class="cls-2" d="M486.21,261.48l-.38,8.8h-1.6c-6.16,0-9.51,3.19-9.51,10.34v8.63h-8.8v-27.61h8.8v5.28c1.98-3.3,5-5.66,9.51-5.66.77,0,1.32.05,1.98.22Z"/>
        <path class="cls-2" d="M518.39,275.45c0,8.74-6.93,14.57-15.12,14.57s-15.29-5.83-15.29-14.57,6.93-14.52,15.29-14.52,15.12,5.83,15.12,14.52ZM509.92,275.45c0-4.29-3.24-7.15-6.65-7.15s-6.82,2.86-6.82,7.15,3.24,7.15,6.82,7.15,6.65-2.8,6.65-7.15Z"/>
        <path class="cls-2" d="M551.99,289.25h-8.8v-2.2c-2.14,1.92-5,3.02-8.58,3.02-7.31,0-13.47-5.88-13.47-14.63s6.16-14.63,13.47-14.63c3.57,0,6.43,1.1,8.58,3.03v-14.19h8.8v39.59ZM543.19,275.45c0-4.23-3.19-7.15-6.76-7.15-3.85,0-6.65,2.92-6.65,7.15s2.8,7.15,6.65,7.15c3.57,0,6.76-2.86,6.76-7.15Z"/>
        <path class="cls-2" d="M585.98,289.25h-8.8v-2.64c-2.09,2.2-5,3.46-8.47,3.46-6.43,0-10.72-4.56-10.72-11.49v-16.94h8.74v15.07c0,3.24,1.92,5.44,4.73,5.44,3.46,0,5.72-2.37,5.72-7.7v-12.81h8.8v27.61Z"/>
        <path class="cls-2" d="M602.32,253.51c0,2.8-2.14,4.89-5.11,4.89s-5.06-2.09-5.06-4.89,2.09-5,5.06-5,5.11,2.31,5.11,5ZM592.8,289.25v-27.61h8.8v27.61h-8.8Z"/>
        <path class="cls-2" d="M628.88,288.04c-2.15,1.16-4.4,2.04-7.53,2.04-6.87,0-11-3.74-11-11v-10.45h-5v-6.98h5v-8.14h8.8v8.14h8.14v6.98h-8.14v9.57c0,2.86,1.38,4.01,3.68,4.01,1.21,0,2.86-.44,4.01-1.1l2.03,6.93Z"/>
        <path class="cls-2" d="M638.95,280.29c.39,2.36,2.53,3.25,4.89,3.25s3.57-.99,3.57-2.2c0-.93-.71-1.65-2.75-2.04l-5.61-1.1c-5.11-.93-8.03-3.68-8.03-8.03,0-5.67,4.89-9.35,11.88-9.35s11.44,3.13,12.54,7.92l-8.03,1.59c-.27-1.7-1.92-3.24-4.62-3.24-2.36,0-3.13,1.16-3.13,2.14,0,.77.33,1.54,2.09,1.92l6.49,1.32c5.22,1.1,7.64,4.23,7.64,8.3,0,6.1-5.28,9.29-12.54,9.29-6.49,0-12.04-2.37-12.98-8.03l8.58-1.76Z"/>
        <path class="cls-2" d="M680.03,280.29c.39,2.36,2.53,3.25,4.89,3.25s3.57-.99,3.57-2.2c0-.93-.71-1.65-2.75-2.04l-5.61-1.1c-5.11-.93-8.03-3.68-8.03-8.03,0-5.67,4.89-9.35,11.88-9.35s11.44,3.13,12.54,7.92l-8.03,1.59c-.27-1.7-1.92-3.24-4.62-3.24-2.36,0-3.13,1.16-3.13,2.14,0,.77.33,1.54,2.09,1.92l6.49,1.32c5.22,1.1,7.64,4.23,7.64,8.3,0,6.1-5.28,9.29-12.54,9.29-6.49,0-12.04-2.37-12.98-8.03l8.58-1.76Z"/>
        <path class="cls-2" d="M730.24,275.45c0,8.74-6.93,14.57-15.12,14.57s-15.29-5.83-15.29-14.57,6.93-14.52,15.29-14.52,15.12,5.83,15.12,14.52ZM721.77,275.45c0-4.29-3.24-7.15-6.65-7.15s-6.82,2.86-6.82,7.15,3.24,7.15,6.82,7.15,6.65-2.8,6.65-7.15Z"/>
        <path class="cls-2" d="M762.8,272.31v16.94h-8.74v-15.07c0-3.24-1.92-5.44-4.73-5.44-3.46,0-5.72,2.37-5.72,7.7v12.81h-8.8v-27.61h8.8v2.64c2.09-2.2,5-3.46,8.47-3.46,6.43,0,10.72,4.56,10.72,11.49Z"/>
        <path class="cls-2" d="M789.26,288.04c-2.15,1.16-4.4,2.04-7.53,2.04-6.87,0-11-3.74-11-11v-10.45h-5v-6.98h5v-8.14h8.8v8.14h8.14v6.98h-8.14v9.57c0,2.86,1.38,4.01,3.68,4.01,1.21,0,2.86-.44,4.01-1.1l2.03,6.93Z"/>
        <path class="cls-2" d="M805.38,289.25v-39.59h8.8v39.59h-8.8Z"/>
        <path class="cls-2" d="M847.61,277.7h-20.24c.71,3.3,2.97,5.33,5.94,5.33,2.03,0,4.4-.5,5.88-3.19l7.81,1.59c-2.36,5.83-7.37,8.63-13.69,8.63-7.97,0-14.57-5.88-14.57-14.63s6.6-14.63,14.63-14.63,14.08,5.61,14.24,14.63v2.25ZM827.54,272.31h11.38c-.82-2.97-3.02-4.34-5.55-4.34s-5,1.54-5.83,4.34Z"/>
        <path class="cls-2" d="M858.89,280.29c.39,2.36,2.53,3.25,4.89,3.25s3.57-.99,3.57-2.2c0-.93-.71-1.65-2.75-2.04l-5.61-1.1c-5.11-.93-8.03-3.68-8.03-8.03,0-5.67,4.89-9.35,11.88-9.35s11.44,3.13,12.54,7.92l-8.03,1.59c-.27-1.7-1.92-3.24-4.62-3.24-2.36,0-3.13,1.16-3.13,2.14,0,.77.33,1.54,2.09,1.92l6.49,1.32c5.22,1.1,7.64,4.23,7.64,8.3,0,6.1-5.28,9.29-12.54,9.29-6.49,0-12.04-2.37-12.98-8.03l8.58-1.76Z"/>
        <path class="cls-2" d="M924.12,275.45c0,8.74-6.16,14.63-13.47,14.63-3.57,0-6.43-1.1-8.58-3.02v11.55h-8.8v-36.96h8.8v2.2c2.15-1.92,5-3.03,8.58-3.03,7.31,0,13.47,5.94,13.47,14.63ZM915.48,275.45c0-4.23-2.8-7.15-6.65-7.15-3.57,0-6.76,2.92-6.76,7.15s3.19,7.15,6.76,7.15c3.85,0,6.65-2.86,6.65-7.15Z"/>
        <path class="cls-2" d="M957.72,289.25h-8.8v-2.2c-2.14,1.92-5,3.02-8.58,3.02-7.31,0-13.47-5.88-13.47-14.63s6.16-14.63,13.47-14.63c3.57,0,6.43,1.1,8.58,3.03v-2.2h8.8v27.61ZM948.92,275.45c0-4.23-3.19-7.15-6.76-7.15-3.85,0-6.65,2.92-6.65,7.15s2.8,7.15,6.65,7.15c3.57,0,6.76-2.86,6.76-7.15Z"/>
        <path class="cls-2" d="M984.4,261.48l-.38,8.8h-1.6c-6.16,0-9.51,3.19-9.51,10.34v8.63h-8.8v-27.61h8.8v5.28c1.98-3.3,5-5.66,9.51-5.66.77,0,1.32.05,1.98.22Z"/>
        <path class="cls-2" d="M1009.15,288.04c-2.15,1.16-4.4,2.04-7.53,2.04-6.87,0-11-3.74-11-11v-10.45h-5v-6.98h5v-8.14h8.8v8.14h8.14v6.98h-8.14v9.57c0,2.86,1.38,4.01,3.68,4.01,1.21,0,2.86-.44,4.01-1.1l2.03,6.93Z"/>
        <path class="cls-2" d="M1022.46,253.51c0,2.8-2.14,4.89-5.11,4.89s-5.06-2.09-5.06-4.89,2.09-5,5.06-5,5.11,2.31,5.11,5ZM1012.94,289.25v-27.61h8.8v27.61h-8.8Z"/>
        <path class="cls-2" d="M1055.62,277.7h-20.24c.71,3.3,2.97,5.33,5.94,5.33,2.03,0,4.4-.5,5.88-3.19l7.81,1.59c-2.36,5.83-7.37,8.63-13.69,8.63-7.97,0-14.57-5.88-14.57-14.63s6.6-14.63,14.63-14.63,14.08,5.61,14.24,14.63v2.25ZM1035.55,272.31h11.38c-.82-2.97-3.02-4.34-5.55-4.34s-5,1.54-5.83,4.34Z"/>
        <path class="cls-2" d="M1066.9,280.29c.39,2.36,2.53,3.25,4.89,3.25s3.57-.99,3.57-2.2c0-.93-.71-1.65-2.75-2.04l-5.61-1.1c-5.11-.93-8.03-3.68-8.03-8.03,0-5.67,4.89-9.35,11.88-9.35s11.44,3.13,12.54,7.92l-8.03,1.59c-.27-1.7-1.92-3.24-4.62-3.24-2.36,0-3.13,1.16-3.13,2.14,0,.77.33,1.54,2.09,1.92l6.49,1.32c5.22,1.1,7.64,4.23,7.64,8.3,0,6.1-5.28,9.29-12.54,9.29-6.49,0-12.04-2.37-12.98-8.03l8.58-1.76Z"/>
        <path class="cls-2" d="M1130.31,289.25h-8.8v-2.2c-2.14,1.92-5,3.02-8.58,3.02-7.31,0-13.47-5.88-13.47-14.63s6.16-14.63,13.47-14.63c3.57,0,6.43,1.1,8.58,3.03v-14.19h8.8v39.59ZM1121.51,275.45c0-4.23-3.19-7.15-6.76-7.15-3.85,0-6.65,2.92-6.65,7.15s2.8,7.15,6.65,7.15c3.57,0,6.76-2.86,6.76-7.15Z"/>
        <path class="cls-2" d="M1163.75,277.7h-20.24c.71,3.3,2.97,5.33,5.94,5.33,2.03,0,4.4-.5,5.88-3.19l7.81,1.59c-2.36,5.83-7.37,8.63-13.69,8.63-7.97,0-14.57-5.88-14.57-14.63s6.6-14.63,14.63-14.63,14.08,5.61,14.24,14.63v2.25ZM1143.68,272.31h11.38c-.82-2.97-3.02-4.34-5.55-4.34s-5,1.54-5.83,4.34Z"/>
        <path class="cls-2" d="M1181.08,289.25v-39.59h8.8v39.59h-8.8Z"/>
        <path class="cls-2" d="M1195.65,252.41h8.3v17.32h-8.3v-17.32Z"/>
        <path class="cls-2" d="M1238.71,289.25h-8.8v-2.2c-2.14,1.92-5,3.02-8.58,3.02-7.31,0-13.47-5.88-13.47-14.63s6.16-14.63,13.47-14.63c3.57,0,6.43,1.1,8.58,3.03v-2.2h8.8v27.61ZM1229.91,275.45c0-4.23-3.19-7.15-6.76-7.15-3.85,0-6.65,2.92-6.65,7.15s2.8,7.15,6.65,7.15c3.57,0,6.76-2.86,6.76-7.15Z"/>
        <path class="cls-2" d="M1273.09,272.31v16.94h-8.74v-15.07c0-3.24-1.92-5.44-4.73-5.44-3.46,0-5.72,2.37-5.72,7.7v12.81h-8.8v-27.61h8.8v2.64c2.09-2.2,5-3.46,8.47-3.46,6.43,0,10.72,4.56,10.72,11.49Z"/>
        <path class="cls-2" d="M1289.04,253.51c0,2.8-2.14,4.89-5.11,4.89s-5.06-2.09-5.06-4.89,2.09-5,5.06-5,5.11,2.31,5.11,5ZM1279.53,289.25v-27.61h8.8v27.61h-8.8Z"/>
        <path class="cls-2" d="M1341.45,271.98v17.27h-8.74v-15.4c0-3.13-2.03-5.11-4.62-5.11-3.24,0-5.39,2.37-5.39,6.98v13.53h-8.8v-15.4c0-3.13-2.03-5.11-4.67-5.11-3.19,0-5.28,2.37-5.28,6.98v13.53h-8.8v-27.61h8.8v2.53c1.87-2.09,4.56-3.36,8.14-3.36,3.85,0,7.15,1.65,9.02,4.67,2.2-2.86,5.5-4.67,9.79-4.67,5.88,0,10.56,4.46,10.56,11.16Z"/>
        <path class="cls-2" d="M1376.49,289.25h-8.8v-2.2c-2.14,1.92-5,3.02-8.58,3.02-7.31,0-13.47-5.88-13.47-14.63s6.16-14.63,13.47-14.63c3.57,0,6.43,1.1,8.58,3.03v-2.2h8.8v27.61ZM1367.69,275.45c0-4.23-3.19-7.15-6.76-7.15-3.85,0-6.65,2.92-6.65,7.15s2.8,7.15,6.65,7.15c3.57,0,6.76-2.86,6.76-7.15Z"/>
        <path class="cls-2" d="M1382.87,289.25v-39.59h8.8v39.59h-8.8Z"/>
        <path class="cls-2" d="M216.16,358.6h-8.8v-11.55c-2.14,1.92-5,3.02-8.58,3.02-7.31,0-13.47-5.88-13.47-14.63s6.16-14.63,13.47-14.63c3.57,0,6.43,1.1,8.58,3.03v-2.2h8.8v36.96ZM207.36,335.45c0-4.23-3.19-7.15-6.76-7.15-3.85,0-6.65,2.92-6.65,7.15s2.8,7.15,6.65,7.15c3.57,0,6.76-2.86,6.76-7.15Z"/>
        <path class="cls-2" d="M249.99,349.25h-8.8v-2.64c-2.09,2.2-5,3.46-8.47,3.46-6.43,0-10.72-4.56-10.72-11.49v-16.94h8.74v15.07c0,3.24,1.92,5.44,4.73,5.44,3.46,0,5.72-2.37,5.72-7.7v-12.81h8.8v27.61Z"/>
        <path class="cls-2" d="M266.32,313.51c0,2.8-2.14,4.89-5.11,4.89s-5.06-2.09-5.06-4.89,2.09-5,5.06-5,5.11,2.31,5.11,5ZM256.81,349.25v-27.61h8.8v27.61h-8.8Z"/>
        <path class="cls-2" d="M313.18,332.31v16.94h-8.74v-15.07c0-3.24-1.92-5.44-4.73-5.44-3.46,0-5.72,2.37-5.72,7.7v12.81h-8.8v-27.61h8.8v2.64c2.09-2.2,5-3.46,8.47-3.46,6.43,0,10.72,4.56,10.72,11.49Z"/>
        <path class="cls-2" d="M346.24,337.7h-20.24c.71,3.3,2.97,5.33,5.94,5.33,2.03,0,4.4-.5,5.88-3.19l7.81,1.59c-2.36,5.83-7.37,8.63-13.69,8.63-7.97,0-14.57-5.88-14.57-14.63s6.6-14.63,14.63-14.63,14.08,5.61,14.24,14.63v2.25ZM326.16,332.31h11.38c-.82-2.97-3.02-4.34-5.55-4.34s-5,1.54-5.83,4.34Z"/>
        <path class="cls-2" d="M370.27,340.29c.39,2.36,2.53,3.25,4.89,3.25s3.57-.99,3.57-2.2c0-.93-.71-1.65-2.75-2.04l-5.61-1.1c-5.11-.93-8.03-3.68-8.03-8.03,0-5.67,4.89-9.35,11.88-9.35s11.44,3.13,12.54,7.92l-8.03,1.59c-.27-1.7-1.92-3.24-4.62-3.24-2.36,0-3.13,1.16-3.13,2.14,0,.77.33,1.54,2.09,1.92l6.49,1.32c5.22,1.1,7.64,4.23,7.64,8.3,0,6.1-5.28,9.29-12.54,9.29-6.49,0-12.04-2.37-12.98-8.03l8.58-1.76Z"/>
        <path class="cls-2" d="M420.48,335.45c0,8.74-6.93,14.57-15.12,14.57s-15.29-5.83-15.29-14.57,6.93-14.52,15.29-14.52,15.12,5.83,15.12,14.52ZM412.02,335.45c0-4.29-3.24-7.15-6.65-7.15s-6.82,2.86-6.82,7.15,3.24,7.15,6.82,7.15,6.65-2.8,6.65-7.15Z"/>
        <path class="cls-2" d="M453.04,332.31v16.94h-8.74v-15.07c0-3.24-1.92-5.44-4.73-5.44-3.46,0-5.72,2.37-5.72,7.7v12.81h-8.8v-27.61h8.8v2.64c2.09-2.2,5-3.46,8.47-3.46,6.43,0,10.72,4.56,10.72,11.49Z"/>
        <path class="cls-2" d="M479.5,348.04c-2.15,1.16-4.4,2.04-7.53,2.04-6.87,0-11-3.74-11-11v-10.45h-5v-6.98h5v-8.14h8.8v8.14h8.14v6.98h-8.14v9.57c0,2.86,1.38,4.01,3.68,4.01,1.21,0,2.86-.44,4.01-1.1l2.03,6.93Z"/>
        <path class="cls-2" d="M526.47,335.45c0,8.74-6.16,14.63-13.47,14.63-3.57,0-6.43-1.1-8.58-3.02v11.55h-8.8v-36.96h8.8v2.2c2.15-1.92,5-3.03,8.58-3.03,7.31,0,13.47,5.94,13.47,14.63ZM517.84,335.45c0-4.23-2.8-7.15-6.65-7.15-3.57,0-6.76,2.92-6.76,7.15s3.19,7.15,6.76,7.15c3.85,0,6.65-2.86,6.65-7.15Z"/>
        <path class="cls-2" d="M560.07,349.25h-8.8v-2.2c-2.14,1.92-5,3.02-8.58,3.02-7.31,0-13.47-5.88-13.47-14.63s6.16-14.63,13.47-14.63c3.57,0,6.43,1.1,8.58,3.03v-2.2h8.8v27.61ZM551.27,335.45c0-4.23-3.19-7.15-6.76-7.15-3.85,0-6.65,2.92-6.65,7.15s2.8,7.15,6.65,7.15c3.57,0,6.76-2.86,6.76-7.15Z"/>
        <path class="cls-2" d="M573.17,340.29c.39,2.36,2.53,3.25,4.89,3.25s3.57-.99,3.57-2.2c0-.93-.71-1.65-2.75-2.04l-5.61-1.1c-5.11-.93-8.03-3.68-8.03-8.03,0-5.67,4.89-9.35,11.88-9.35s11.44,3.13,12.54,7.92l-8.03,1.59c-.27-1.7-1.92-3.24-4.62-3.24-2.36,0-3.13,1.16-3.13,2.14,0,.77.33,1.54,2.09,1.92l6.49,1.32c5.22,1.1,7.64,4.23,7.64,8.3,0,6.1-5.28,9.29-12.54,9.29-6.49,0-12.04-2.37-12.98-8.03l8.58-1.76Z"/>
        <path class="cls-2" d="M636.58,349.25h-8.8v-2.2c-2.14,1.92-5,3.02-8.58,3.02-7.31,0-13.47-5.88-13.47-14.63s6.16-14.63,13.47-14.63c3.57,0,6.43,1.1,8.58,3.03v-14.19h8.8v39.59ZM627.78,335.45c0-4.23-3.19-7.15-6.76-7.15-3.85,0-6.65,2.92-6.65,7.15s2.8,7.15,6.65,7.15c3.57,0,6.76-2.86,6.76-7.15Z"/>
        <path class="cls-2" d="M652.92,313.51c0,2.8-2.14,4.89-5.11,4.89s-5.06-2.09-5.06-4.89,2.09-5,5.06-5,5.11,2.31,5.11,5ZM643.4,349.25v-27.61h8.8v27.61h-8.8Z"/>
        <path class="cls-2" d="M679.31,321.48l-.39,8.8h-1.59c-6.16,0-9.51,3.19-9.51,10.34v8.63h-8.8v-27.61h8.8v5.28c1.98-3.3,5-5.66,9.51-5.66.77,0,1.32.05,1.98.22Z"/>
        <path class="cls-2" d="M709.95,337.7h-20.24c.71,3.3,2.97,5.33,5.94,5.33,2.03,0,4.4-.5,5.88-3.19l7.81,1.59c-2.36,5.83-7.37,8.63-13.69,8.63-7.97,0-14.57-5.88-14.57-14.63s6.6-14.63,14.63-14.63,14.08,5.61,14.24,14.63v2.25ZM689.88,332.31h11.38c-.82-2.97-3.02-4.34-5.55-4.34s-5,1.54-5.83,4.34Z"/>
        <path class="cls-2" d="M733.76,337.54l8.08,1.76c-1.38,6.54-7.2,10.78-14.08,10.78-8.25,0-15.07-5.88-15.07-14.63s6.82-14.63,15.07-14.63c6.71,0,12.54,4.12,14.08,10.61l-8.25,1.98c-.77-3.35-3.02-4.89-5.83-4.89-3.96,0-6.6,2.92-6.6,6.93s2.64,6.93,6.6,6.93c2.8,0,5.06-1.49,5.99-4.84Z"/>
        <path class="cls-2" d="M766.87,348.04c-2.15,1.16-4.4,2.04-7.53,2.04-6.87,0-11-3.74-11-11v-10.45h-5v-6.98h5v-8.14h8.8v8.14h8.14v6.98h-8.14v9.57c0,2.86,1.38,4.01,3.68,4.01,1.21,0,2.86-.44,4.01-1.1l2.03,6.93Z"/>
        <path class="cls-2" d="M796.74,337.7h-20.24c.71,3.3,2.97,5.33,5.94,5.33,2.03,0,4.4-.5,5.88-3.19l7.81,1.59c-2.36,5.83-7.37,8.63-13.69,8.63-7.97,0-14.57-5.88-14.57-14.63s6.6-14.63,14.63-14.63,14.08,5.61,14.24,14.63v2.25ZM776.67,332.31h11.38c-.82-2.97-3.02-4.34-5.55-4.34s-5,1.54-5.83,4.34Z"/>
        <path class="cls-2" d="M847.61,331.98v17.27h-8.74v-15.4c0-3.13-2.03-5.11-4.62-5.11-3.24,0-5.39,2.37-5.39,6.98v13.53h-8.8v-15.4c0-3.13-2.03-5.11-4.67-5.11-3.19,0-5.28,2.37-5.28,6.98v13.53h-8.8v-27.61h8.8v2.53c1.87-2.09,4.56-3.36,8.14-3.36,3.85,0,7.15,1.65,9.02,4.67,2.2-2.86,5.5-4.67,9.79-4.67,5.88,0,10.56,4.46,10.56,11.16Z"/>
        <path class="cls-2" d="M880.67,337.7h-20.24c.71,3.3,2.97,5.33,5.94,5.33,2.03,0,4.4-.5,5.88-3.19l7.81,1.59c-2.36,5.83-7.37,8.63-13.69,8.63-7.97,0-14.57-5.88-14.57-14.63s6.6-14.63,14.63-14.63,14.08,5.61,14.24,14.63v2.25ZM860.59,332.31h11.38c-.82-2.97-3.02-4.34-5.55-4.34s-5,1.54-5.83,4.34Z"/>
        <path class="cls-2" d="M913.23,332.31v16.94h-8.74v-15.07c0-3.24-1.92-5.44-4.73-5.44-3.46,0-5.72,2.37-5.72,7.7v12.81h-8.8v-27.61h8.8v2.64c2.09-2.2,5-3.46,8.47-3.46,6.43,0,10.72,4.56,10.72,11.49Z"/>
        <path class="cls-2" d="M939.68,348.04c-2.15,1.16-4.4,2.04-7.53,2.04-6.87,0-11-3.74-11-11v-10.45h-5v-6.98h5v-8.14h8.8v8.14h8.14v6.98h-8.14v9.57c0,2.86,1.38,4.01,3.68,4.01,1.21,0,2.86-.44,4.01-1.1l2.03,6.93Z"/>
        <path class="cls-2" d="M941.67,356.51l3.24-15.84h9.73v.22l-6.32,15.62h-6.65Z"/>
        <path class="cls-2" d="M989.57,349.25h-8.96l-11.44-27.66h9.29l6.65,17.05,6.6-17.05h9.29l-11.44,27.66Z"/>
        <path class="cls-2" d="M1032.19,335.45c0,8.74-6.93,14.57-15.12,14.57s-15.29-5.83-15.29-14.57,6.93-14.52,15.29-14.52,15.12,5.83,15.12,14.52ZM1023.72,335.45c0-4.29-3.24-7.15-6.65-7.15s-6.82,2.86-6.82,7.15,3.24,7.15,6.82,7.15,6.65-2.8,6.65-7.15Z"/>
        <path class="cls-2" d="M1046.71,313.51c0,2.8-2.14,4.89-5.11,4.89s-5.06-2.09-5.06-4.89,2.09-5,5.06-5,5.11,2.31,5.11,5ZM1037.2,349.25v-27.61h8.8v27.61h-8.8Z"/>
        <path class="cls-2" d="M1073.11,321.48l-.38,8.8h-1.6c-6.16,0-9.51,3.19-9.51,10.34v8.63h-8.8v-27.61h8.8v5.28c1.98-3.3,5-5.66,9.51-5.66.77,0,1.32.05,1.98.22Z"/>
        <path class="cls-2" d="M1103.75,337.7h-20.24c.71,3.3,2.97,5.33,5.94,5.33,2.03,0,4.4-.5,5.88-3.19l7.81,1.59c-2.36,5.83-7.37,8.63-13.69,8.63-7.97,0-14.57-5.88-14.57-14.63s6.6-14.63,14.63-14.63,14.08,5.61,14.24,14.63v2.25ZM1083.67,332.31h11.38c-.82-2.97-3.02-4.34-5.55-4.34s-5,1.54-5.83,4.34Z"/>
        <path class="cls-2" d="M1151.92,335.45c0,8.74-6.16,14.63-13.47,14.63-3.57,0-6.43-1.1-8.58-3.02v11.55h-8.8v-36.96h8.8v2.2c2.15-1.92,5-3.03,8.58-3.03,7.31,0,13.47,5.94,13.47,14.63ZM1143.29,335.45c0-4.23-2.8-7.15-6.65-7.15-3.57,0-6.76,2.92-6.76,7.15s3.19,7.15,6.76,7.15c3.85,0,6.65-2.86,6.65-7.15Z"/>
        <path class="cls-2" d="M1185.53,349.25h-8.8v-2.2c-2.14,1.92-5,3.02-8.58,3.02-7.31,0-13.47-5.88-13.47-14.63s6.16-14.63,13.47-14.63c3.57,0,6.43,1.1,8.58,3.03v-2.2h8.8v27.61ZM1176.73,335.45c0-4.23-3.19-7.15-6.76-7.15-3.85,0-6.65,2.92-6.65,7.15s2.8,7.15,6.65,7.15c3.57,0,6.76-2.86,6.76-7.15Z"/>
        <path class="cls-2" d="M1198.62,340.29c.38,2.36,2.53,3.25,4.89,3.25s3.57-.99,3.57-2.2c0-.93-.71-1.65-2.75-2.04l-5.61-1.1c-5.11-.93-8.03-3.68-8.03-8.03,0-5.67,4.89-9.35,11.88-9.35s11.44,3.13,12.54,7.92l-8.03,1.59c-.27-1.7-1.92-3.24-4.62-3.24-2.36,0-3.13,1.16-3.13,2.14,0,.77.33,1.54,2.09,1.92l6.49,1.32c5.22,1.1,7.64,4.23,7.64,8.3,0,6.1-5.28,9.29-12.54,9.29-6.49,0-12.04-2.37-12.98-8.03l8.58-1.76Z"/>
        <path class="cls-2" d="M1262.03,349.25h-8.8v-2.2c-2.14,1.92-5,3.02-8.58,3.02-7.31,0-13.47-5.88-13.47-14.63s6.16-14.63,13.47-14.63c3.57,0,6.43,1.1,8.58,3.03v-14.19h8.8v39.59ZM1253.23,335.45c0-4.23-3.19-7.15-6.76-7.15-3.85,0-6.65,2.92-6.65,7.15s2.8,7.15,6.65,7.15c3.57,0,6.76-2.86,6.76-7.15Z"/>
        <path class="cls-2" d="M1296.02,349.25h-8.8v-2.64c-2.09,2.2-5,3.46-8.47,3.46-6.43,0-10.72-4.56-10.72-11.49v-16.94h8.74v15.07c0,3.24,1.92,5.44,4.73,5.44,3.46,0,5.72-2.37,5.72-7.7v-12.81h8.8v27.61Z"/>
        <path class="cls-2" d="M1335.62,348.04c-2.15,1.16-4.4,2.04-7.53,2.04-6.87,0-11-3.74-11-11v-10.45h-5v-6.98h5v-8.14h8.8v8.14h8.14v6.98h-8.14v9.57c0,2.86,1.38,4.01,3.68,4.01,1.21,0,2.86-.44,4.01-1.1l2.03,6.93Z"/>
        <path class="cls-2" d="M1367.03,335.45c0,8.74-6.93,14.57-15.12,14.57s-15.29-5.83-15.29-14.57,6.93-14.52,15.29-14.52,15.12,5.83,15.12,14.52ZM1358.56,335.45c0-4.29-3.24-7.15-6.65-7.15s-6.82,2.86-6.82,7.15,3.24,7.15,6.82,7.15,6.65-2.8,6.65-7.15Z"/>
        <path class="cls-2" d="M1399.2,349.25h-8.8v-2.64c-2.09,2.2-5,3.46-8.47,3.46-6.43,0-10.72-4.56-10.72-11.49v-16.94h8.74v15.07c0,3.24,1.92,5.44,4.73,5.44,3.46,0,5.72-2.37,5.72-7.7v-12.81h8.8v27.61Z"/>
        <path class="cls-2" d="M1426.04,348.04c-2.15,1.16-4.4,2.04-7.53,2.04-6.87,0-11-3.74-11-11v-10.45h-5v-6.98h5v-8.14h8.8v8.14h8.14v6.98h-8.14v9.57c0,2.86,1.38,4.01,3.68,4.01,1.21,0,2.86-.44,4.01-1.1l2.03,6.93Z"/>
        <path class="cls-2" d="M1428.03,356.51l3.24-15.84h9.73v.22l-6.32,15.62h-6.65Z"/>
        <path class="cls-2" d="M340.76,409.25h-8.8v-2.64c-2.09,2.2-5,3.46-8.47,3.46-6.43,0-10.72-4.56-10.72-11.49v-16.94h8.74v15.07c0,3.24,1.92,5.44,4.73,5.44,3.46,0,5.72-2.37,5.72-7.7v-12.81h8.8v27.61Z"/>
        <path class="cls-2" d="M367.61,408.04c-2.15,1.16-4.4,2.04-7.53,2.04-6.87,0-11-3.74-11-11v-10.45h-5v-6.98h5v-8.14h8.8v8.14h8.14v6.98h-8.14v9.57c0,2.86,1.38,4.01,3.68,4.01,1.21,0,2.86-.44,4.01-1.1l2.03,6.93Z"/>
        <path class="cls-2" d="M380.92,373.51c0,2.8-2.14,4.89-5.11,4.89s-5.06-2.09-5.06-4.89,2.09-5,5.06-5,5.11,2.31,5.11,5ZM371.4,409.25v-27.61h8.8v27.61h-8.8Z"/>
        <path class="cls-2" d="M387.02,409.25v-39.59h8.8v39.59h-8.8Z"/>
        <path class="cls-2" d="M412.16,373.51c0,2.8-2.14,4.89-5.11,4.89s-5.06-2.09-5.06-4.89,2.09-5,5.06-5,5.11,2.31,5.11,5ZM402.64,409.25v-27.61h8.8v27.61h-8.8Z"/>
        <path class="cls-2" d="M424.97,400.29c.38,2.36,2.53,3.25,4.89,3.25s3.57-.99,3.57-2.2c0-.93-.71-1.65-2.75-2.04l-5.61-1.1c-5.11-.93-8.03-3.68-8.03-8.03,0-5.67,4.89-9.35,11.88-9.35s11.44,3.13,12.54,7.92l-8.03,1.59c-.27-1.7-1.92-3.24-4.62-3.24-2.36,0-3.13,1.16-3.13,2.14,0,.77.33,1.54,2.09,1.92l6.49,1.32c5.22,1.1,7.64,4.23,7.64,8.3,0,6.1-5.28,9.29-12.54,9.29-6.49,0-12.04-2.37-12.98-8.03l8.58-1.76Z"/>
        <path class="cls-2" d="M473.64,397.7h-20.24c.71,3.3,2.97,5.33,5.94,5.33,2.03,0,4.4-.5,5.88-3.19l7.81,1.59c-2.36,5.83-7.37,8.63-13.69,8.63-7.97,0-14.57-5.88-14.57-14.63s6.6-14.63,14.63-14.63,14.08,5.61,14.24,14.63v2.25ZM453.57,392.31h11.38c-.82-2.97-3.02-4.34-5.55-4.34s-5,1.54-5.83,4.34ZM455.66,378.07l3.9-8.36h10.45l-6.54,8.36h-7.81Z"/>
        <path class="cls-2" d="M505.27,397.7h-20.24c.71,3.3,2.97,5.33,5.94,5.33,2.03,0,4.4-.5,5.88-3.19l7.81,1.59c-2.36,5.83-7.37,8.63-13.69,8.63-7.97,0-14.57-5.88-14.57-14.63s6.6-14.63,14.63-14.63,14.08,5.61,14.24,14.63v2.25ZM485.2,392.31h11.38c-.82-2.97-3.02-4.34-5.55-4.34s-5,1.54-5.83,4.34Z"/>
        <path class="cls-2" d="M516.55,400.29c.39,2.36,2.53,3.25,4.89,3.25s3.57-.99,3.57-2.2c0-.93-.71-1.65-2.75-2.04l-5.61-1.1c-5.11-.93-8.03-3.68-8.03-8.03,0-5.67,4.89-9.35,11.88-9.35s11.44,3.13,12.54,7.92l-8.03,1.59c-.27-1.7-1.92-3.24-4.62-3.24-2.36,0-3.13,1.16-3.13,2.14,0,.77.33,1.54,2.09,1.92l6.49,1.32c5.22,1.1,7.64,4.23,7.64,8.3,0,6.1-5.28,9.29-12.54,9.29-6.49,0-12.04-2.37-12.98-8.03l8.58-1.76Z"/>
        <path class="cls-2" d="M581.77,395.45c0,8.74-6.16,14.63-13.47,14.63-3.57,0-6.43-1.1-8.58-3.02v11.55h-8.8v-36.96h8.8v2.2c2.15-1.92,5-3.03,8.58-3.03,7.31,0,13.47,5.94,13.47,14.63ZM573.14,395.45c0-4.23-2.8-7.15-6.65-7.15-3.57,0-6.76,2.92-6.76,7.15s3.19,7.15,6.76,7.15c3.85,0,6.65-2.86,6.65-7.15Z"/>
        <path class="cls-2" d="M614.94,395.45c0,8.74-6.93,14.57-15.12,14.57s-15.29-5.83-15.29-14.57,6.93-14.52,15.29-14.52,15.12,5.83,15.12,14.52ZM606.47,395.45c0-4.29-3.24-7.15-6.65-7.15s-6.82,2.86-6.82,7.15,3.24,7.15,6.82,7.15,6.65-2.8,6.65-7.15Z"/>
        <path class="cls-2" d="M647.11,409.25h-8.8v-2.64c-2.09,2.2-5,3.46-8.47,3.46-6.43,0-10.72-4.56-10.72-11.49v-16.94h8.74v15.07c0,3.24,1.92,5.44,4.73,5.44,3.46,0,5.72-2.37,5.72-7.7v-12.81h8.8v27.61Z"/>
        <path class="cls-2" d="M673.79,381.48l-.39,8.8h-1.59c-6.16,0-9.51,3.19-9.51,10.34v8.63h-8.8v-27.61h8.8v5.28c1.98-3.3,5-5.66,9.51-5.66.77,0,1.32.05,1.98.22Z"/>
        <path class="cls-2" d="M690.29,409.25v-39.59h8.8v39.59h-8.8Z"/>
        <path class="cls-2" d="M704.86,372.41h8.3v17.32h-8.3v-17.32Z"/>
        <path class="cls-2" d="M747.92,409.25h-8.8v-2.2c-2.14,1.92-5,3.02-8.58,3.02-7.31,0-13.47-5.88-13.47-14.63s6.16-14.63,13.47-14.63c3.57,0,6.43,1.1,8.58,3.03v-2.2h8.8v27.61ZM739.13,395.45c0-4.23-3.19-7.15-6.76-7.15-3.85,0-6.65,2.92-6.65,7.15s2.8,7.15,6.65,7.15c3.57,0,6.76-2.86,6.76-7.15Z"/>
        <path class="cls-2" d="M754.31,409.25v-39.59h8.8v39.59h-8.8Z"/>
        <path class="cls-2" d="M779.44,373.51c0,2.8-2.14,4.89-5.11,4.89s-5.06-2.09-5.06-4.89,2.09-5,5.06-5,5.11,2.31,5.11,5ZM769.93,409.25v-27.61h8.8v27.61h-8.8Z"/>
        <path class="cls-2" d="M831.85,391.98v17.27h-8.74v-15.4c0-3.13-2.03-5.11-4.62-5.11-3.24,0-5.39,2.37-5.39,6.98v13.53h-8.8v-15.4c0-3.13-2.03-5.11-4.67-5.11-3.19,0-5.28,2.37-5.28,6.98v13.53h-8.8v-27.61h8.8v2.53c1.87-2.09,4.56-3.36,8.14-3.36,3.85,0,7.15,1.65,9.02,4.67,2.2-2.86,5.5-4.67,9.79-4.67,5.88,0,10.56,4.46,10.56,11.16Z"/>
        <path class="cls-2" d="M864.91,397.7h-20.24c.71,3.3,2.97,5.33,5.94,5.33,2.03,0,4.4-.5,5.88-3.19l7.81,1.59c-2.36,5.83-7.37,8.63-13.69,8.63-7.97,0-14.57-5.88-14.57-14.63s6.6-14.63,14.63-14.63,14.08,5.61,14.24,14.63v2.25ZM844.84,392.31h11.38c-.82-2.97-3.02-4.34-5.55-4.34s-5,1.54-5.83,4.34Z"/>
        <path class="cls-2" d="M897.47,392.31v16.94h-8.74v-15.07c0-3.24-1.92-5.44-4.73-5.44-3.46,0-5.72,2.37-5.72,7.7v12.81h-8.8v-27.61h8.8v2.64c2.09-2.2,5-3.46,8.47-3.46,6.43,0,10.72,4.56,10.72,11.49Z"/>
        <path class="cls-2" d="M923.92,408.04c-2.15,1.16-4.4,2.04-7.53,2.04-6.87,0-11-3.74-11-11v-10.45h-5v-6.98h5v-8.14h8.8v8.14h8.14v6.98h-8.14v9.57c0,2.86,1.38,4.01,3.68,4.01,1.21,0,2.86-.44,4.01-1.1l2.03,6.93Z"/>
        <path class="cls-2" d="M955.77,409.25h-8.8v-2.2c-2.14,1.92-5,3.02-8.58,3.02-7.31,0-13.47-5.88-13.47-14.63s6.16-14.63,13.47-14.63c3.57,0,6.43,1.1,8.58,3.03v-2.2h8.8v27.61ZM946.97,395.45c0-4.23-3.19-7.15-6.76-7.15-3.85,0-6.65,2.92-6.65,7.15s2.8,7.15,6.65,7.15c3.57,0,6.76-2.86,6.76-7.15Z"/>
        <path class="cls-2" d="M982.61,408.04c-2.15,1.16-4.4,2.04-7.53,2.04-6.87,0-11-3.74-11-11v-10.45h-5v-6.98h5v-8.14h8.8v8.14h8.14v6.98h-8.14v9.57c0,2.86,1.38,4.01,3.68,4.01,1.21,0,2.86-.44,4.01-1.1l2.03,6.93Z"/>
        <path class="cls-2" d="M995.92,373.51c0,2.8-2.14,4.89-5.11,4.89s-5.06-2.09-5.06-4.89,2.09-5,5.06-5,5.11,2.31,5.11,5ZM986.41,409.25v-27.61h8.8v27.61h-8.8Z"/>
        <path class="cls-2" d="M1030.62,395.45c0,8.74-6.93,14.57-15.12,14.57s-15.29-5.83-15.29-14.57,6.93-14.52,15.29-14.52,15.12,5.83,15.12,14.52ZM1022.15,395.45c0-4.29-3.24-7.15-6.65-7.15s-6.82,2.86-6.82,7.15,3.24,7.15,6.82,7.15,6.65-2.8,6.65-7.15Z"/>
        <path class="cls-2" d="M1063.18,392.31v16.94h-8.74v-15.07c0-3.24-1.92-5.44-4.73-5.44-3.46,0-5.72,2.37-5.72,7.7v12.81h-8.8v-27.61h8.8v2.64c2.09-2.2,5-3.46,8.47-3.46,6.43,0,10.72,4.56,10.72,11.49Z"/>
        <path class="cls-2" d="M1109.93,392.31v16.94h-8.74v-15.07c0-3.24-1.92-5.44-4.78-5.44-3.41,0-5.66,2.37-5.66,7.7v12.81h-8.8v-39.59h8.8v14.63c2.15-2.2,5-3.46,8.52-3.46,6.38,0,10.67,4.56,10.67,11.49Z"/>
        <path class="cls-2" d="M1143.37,409.25h-8.8v-2.64c-2.09,2.2-5,3.46-8.47,3.46-6.43,0-10.72-4.56-10.72-11.49v-16.94h8.74v15.07c0,3.24,1.92,5.44,4.73,5.44,3.46,0,5.72-2.37,5.72-7.7v-12.81h8.8v27.61Z"/>
        <path class="cls-2" d="M1196.06,391.98v17.27h-8.74v-15.4c0-3.13-2.03-5.11-4.62-5.11-3.24,0-5.39,2.37-5.39,6.98v13.53h-8.8v-15.4c0-3.13-2.03-5.11-4.67-5.11-3.19,0-5.28,2.37-5.28,6.98v13.53h-8.8v-27.61h8.8v2.53c1.87-2.09,4.56-3.36,8.14-3.36,3.85,0,7.15,1.65,9.02,4.67,2.2-2.86,5.5-4.67,9.79-4.67,5.88,0,10.56,4.46,10.56,11.16Z"/>
        <path class="cls-2" d="M1231.09,409.25h-8.8v-2.2c-2.14,1.92-5,3.02-8.58,3.02-7.31,0-13.47-5.88-13.47-14.63s6.16-14.63,13.47-14.63c3.57,0,6.43,1.1,8.58,3.03v-2.2h8.8v27.61ZM1222.3,395.45c0-4.23-3.19-7.15-6.76-7.15-3.85,0-6.65,2.92-6.65,7.15s2.8,7.15,6.65,7.15c3.57,0,6.76-2.86,6.76-7.15Z"/>
        <path class="cls-2" d="M1247.43,373.51c0,2.8-2.14,4.89-5.11,4.89s-5.06-2.09-5.06-4.89,2.09-5,5.06-5,5.11,2.31,5.11,5ZM1237.92,409.25v-27.61h8.8v27.61h-8.8Z"/>
        <path class="cls-2" d="M1281.53,392.31v16.94h-8.74v-15.07c0-3.24-1.92-5.44-4.73-5.44-3.46,0-5.72,2.37-5.72,7.7v12.81h-8.8v-27.61h8.8v2.64c2.09-2.2,5-3.46,8.47-3.46,6.43,0,10.72,4.56,10.72,11.49Z"/>
        <path class="cls-2" d="M1314.58,397.7h-20.24c.71,3.3,2.97,5.33,5.94,5.33,2.03,0,4.4-.5,5.88-3.19l7.81,1.59c-2.36,5.83-7.37,8.63-13.69,8.63-7.97,0-14.57-5.88-14.57-14.63s6.6-14.63,14.63-14.63,14.08,5.61,14.24,14.63v2.25ZM1294.51,392.31h11.38c-.82-2.97-3.02-4.34-5.55-4.34s-5,1.54-5.83,4.34Z"/>
        <path class="cls-2" d="M1327.4,404.58c0,2.8-2.14,4.95-5.06,4.95s-5-2.15-5-4.95c0-2.64,2.09-4.95,5-4.95s5.06,2.31,5.06,4.95Z"/>
        <path class="cls-2" d="M206.95,529.25v-36.84h9.07v36.84h-9.07Z"/>
        <path class="cls-2" d="M222.41,529.25v-39.59h8.8v39.59h-8.8Z"/>
        <path class="cls-2" d="M244.3,520.29c.38,2.36,2.53,3.25,4.89,3.25s3.57-.99,3.57-2.2c0-.93-.71-1.65-2.75-2.04l-5.61-1.1c-5.11-.93-8.03-3.68-8.03-8.03,0-5.67,4.89-9.35,11.88-9.35s11.44,3.13,12.54,7.92l-8.03,1.59c-.27-1.7-1.92-3.24-4.62-3.24-2.36,0-3.13,1.16-3.13,2.14,0,.77.33,1.54,2.09,1.92l6.49,1.32c5.22,1.1,7.64,4.23,7.64,8.3,0,6.1-5.28,9.29-12.54,9.29-6.49,0-12.04-2.37-12.98-8.03l8.58-1.76Z"/>
        <path class="cls-2" d="M297.92,517.54l8.08,1.76c-1.38,6.54-7.2,10.78-14.08,10.78-8.25,0-15.07-5.88-15.07-14.63s6.82-14.63,15.07-14.63c6.71,0,12.54,4.12,14.08,10.61l-8.25,1.98c-.77-3.35-3.02-4.89-5.83-4.89-3.96,0-6.6,2.92-6.6,6.93s2.64,6.93,6.6,6.93c2.8,0,5.06-1.49,5.99-4.84Z"/>
        <path class="cls-2" d="M339.17,515.45c0,8.74-6.93,14.57-15.12,14.57s-15.29-5.83-15.29-14.57,6.93-14.52,15.29-14.52,15.12,5.83,15.12,14.52ZM330.7,515.45c0-4.29-3.24-7.15-6.65-7.15s-6.82,2.86-6.82,7.15,3.24,7.15,6.82,7.15,6.65-2.8,6.65-7.15Z"/>
        <path class="cls-2" d="M371.34,529.25h-8.8v-2.64c-2.09,2.2-5,3.46-8.47,3.46-6.43,0-10.72-4.56-10.72-11.49v-16.94h8.74v15.07c0,3.24,1.92,5.44,4.73,5.44,3.46,0,5.72-2.37,5.72-7.7v-12.81h8.8v27.61Z"/>
        <path class="cls-2" d="M395.32,529.25h-8.96l-11.44-27.66h9.29l6.65,17.05,6.6-17.05h9.29l-11.44,27.66Z"/>
        <path class="cls-2" d="M430.63,501.48l-.38,8.8h-1.6c-6.16,0-9.51,3.19-9.51,10.34v8.63h-8.8v-27.61h8.8v5.28c1.98-3.3,5-5.66,9.51-5.66.77,0,1.32.05,1.98.22Z"/>
        <path class="cls-2" d="M461.27,517.7h-20.24c.71,3.3,2.97,5.33,5.94,5.33,2.03,0,4.4-.5,5.88-3.19l7.81,1.59c-2.36,5.83-7.37,8.63-13.69,8.63-7.97,0-14.57-5.88-14.57-14.63s6.6-14.63,14.63-14.63,14.08,5.61,14.24,14.63v2.25ZM441.2,512.31h11.38c-.82-2.97-3.02-4.34-5.55-4.34s-5,1.54-5.83,4.34Z"/>
        <path class="cls-2" d="M493.83,512.31v16.94h-8.74v-15.07c0-3.24-1.92-5.44-4.73-5.44-3.46,0-5.72,2.37-5.72,7.7v12.81h-8.8v-27.61h8.8v2.64c2.09-2.2,5-3.46,8.47-3.46,6.43,0,10.72,4.56,10.72,11.49Z"/>
        <path class="cls-2" d="M520.28,528.04c-2.15,1.16-4.4,2.04-7.53,2.04-6.87,0-11-3.74-11-11v-10.45h-5v-6.98h5v-8.14h8.8v8.14h8.14v6.98h-8.14v9.57c0,2.86,1.38,4.01,3.68,4.01,1.21,0,2.86-.44,4.01-1.1l2.03,6.93Z"/>
        <path class="cls-2" d="M564.01,529.25h-8.8v-2.64c-2.09,2.2-5,3.46-8.47,3.46-6.43,0-10.72-4.56-10.72-11.49v-16.94h8.74v15.07c0,3.24,1.92,5.44,4.73,5.44,3.46,0,5.72-2.37,5.72-7.7v-12.81h8.8v27.61Z"/>
        <path class="cls-2" d="M598.38,512.31v16.94h-8.74v-15.07c0-3.24-1.92-5.44-4.73-5.44-3.46,0-5.72,2.37-5.72,7.7v12.81h-8.8v-27.61h8.8v2.64c2.09-2.2,5-3.46,8.47-3.46,6.43,0,10.72,4.56,10.72,11.49Z"/>
        <path class="cls-2" d="M631.44,517.7h-20.24c.71,3.3,2.97,5.33,5.94,5.33,2.03,0,4.4-.5,5.88-3.19l7.81,1.59c-2.36,5.83-7.37,8.63-13.69,8.63-7.97,0-14.57-5.88-14.57-14.63s6.6-14.63,14.63-14.63,14.08,5.61,14.24,14.63v2.25ZM611.36,512.31h11.38c-.82-2.97-3.02-4.34-5.55-4.34s-5,1.54-5.83,4.34Z"/>
        <path class="cls-2" d="M648.76,529.25v-39.59h8.8v39.59h-8.8Z"/>
        <path class="cls-2" d="M692.98,529.25h-8.8v-2.2c-2.14,1.92-5,3.02-8.58,3.02-7.31,0-13.47-5.88-13.47-14.63s6.16-14.63,13.47-14.63c3.57,0,6.43,1.1,8.58,3.03v-2.2h8.8v27.61ZM684.18,515.45c0-4.23-3.19-7.15-6.76-7.15-3.85,0-6.65,2.92-6.65,7.15s2.8,7.15,6.65,7.15c3.57,0,6.76-2.86,6.76-7.15Z"/>
        <path class="cls-2" d="M719.66,501.48l-.38,8.8h-1.6c-6.16,0-9.51,3.19-9.51,10.34v8.63h-8.8v-27.61h8.8v5.28c1.98-3.3,5-5.66,9.51-5.66.77,0,1.32.05,1.98.22Z"/>
        <path class="cls-2" d="M751.67,526.5c0,8.52-6.49,13.2-15.45,13.2-6.32,0-11.16-2.2-13.86-6.65l7.31-3.96c2.09,2.47,3.63,3.41,6.49,3.41,4.01,0,6.87-2.36,6.87-6.71v-.77c-1.98,1.71-4.73,2.64-8.3,2.64-7.2,0-13.31-5.72-13.31-13.53s6.1-13.31,13.31-13.31c3.57,0,6.32.94,8.3,2.64v-1.81h8.63v24.86ZM743.03,514.13c0-3.68-2.91-6.27-6.43-6.27-3.85,0-6.6,2.58-6.6,6.27s2.75,6.32,6.6,6.32c3.52,0,6.43-2.64,6.43-6.32Z"/>
        <path class="cls-2" d="M785.16,517.7h-20.24c.71,3.3,2.97,5.33,5.94,5.33,2.03,0,4.4-.5,5.88-3.19l7.81,1.59c-2.36,5.83-7.37,8.63-13.69,8.63-7.97,0-14.57-5.88-14.57-14.63s6.6-14.63,14.63-14.63,14.08,5.61,14.24,14.63v2.25ZM765.09,512.31h11.38c-.82-2.97-3.02-4.34-5.55-4.34s-5,1.54-5.83,4.34Z"/>
        <path class="cls-2" d="M820.09,529.25h-8.96l-11.44-27.66h9.29l6.65,17.05,6.6-17.05h9.29l-11.44,27.66Z"/>
        <path class="cls-2" d="M863.15,529.25h-8.8v-2.2c-2.14,1.92-5,3.02-8.58,3.02-7.31,0-13.47-5.88-13.47-14.63s6.16-14.63,13.47-14.63c3.57,0,6.43,1.1,8.58,3.03v-2.2h8.8v27.61ZM854.35,515.45c0-4.23-3.19-7.15-6.76-7.15-3.85,0-6.65,2.92-6.65,7.15s2.8,7.15,6.65,7.15c3.57,0,6.76-2.86,6.76-7.15Z"/>
        <path class="cls-2" d="M889.83,501.48l-.38,8.8h-1.6c-6.16,0-9.51,3.19-9.51,10.34v8.63h-8.8v-27.61h8.8v5.28c1.98-3.3,5-5.66,9.51-5.66.77,0,1.32.05,1.98.22Z"/>
        <path class="cls-2" d="M903.52,493.51c0,2.8-2.14,4.89-5.11,4.89s-5.06-2.09-5.06-4.89,2.09-5,5.06-5,5.11,2.31,5.11,5ZM894.01,529.25v-27.61h8.8v27.61h-8.8Z"/>
        <path class="cls-2" d="M936.68,517.7h-20.24c.71,3.3,2.97,5.33,5.94,5.33,2.03,0,4.4-.5,5.88-3.19l7.81,1.59c-2.36,5.83-7.37,8.63-13.69,8.63-7.97,0-14.57-5.88-14.57-14.63s6.6-14.63,14.63-14.63,14.08,5.61,14.24,14.63v2.25ZM916.61,512.31h11.38c-.82-2.97-3.02-4.34-5.55-4.34s-5,1.54-5.83,4.34ZM918.7,498.07l3.9-8.36h10.45l-6.54,8.36h-7.81Z"/>
        <path class="cls-2" d="M961.71,528.04c-2.15,1.16-4.4,2.04-7.53,2.04-6.87,0-11-3.74-11-11v-10.45h-5v-6.98h5v-8.14h8.8v8.14h8.14v6.98h-8.14v9.57c0,2.86,1.38,4.01,3.68,4.01,1.21,0,2.86-.44,4.01-1.1l2.03,6.93Z"/>
        <path class="cls-2" d="M991.57,517.7h-20.24c.71,3.3,2.97,5.33,5.94,5.33,2.03,0,4.4-.5,5.88-3.19l7.81,1.59c-2.36,5.83-7.37,8.63-13.69,8.63-7.97,0-14.57-5.88-14.57-14.63s6.6-14.63,14.63-14.63,14.08,5.61,14.24,14.63v2.25ZM971.5,512.31h11.38c-.82-2.97-3.02-4.34-5.55-4.34s-5,1.54-5.83,4.34ZM973.59,498.07l3.9-8.36h10.45l-6.54,8.36h-7.81Z"/>
        <path class="cls-2" d="M1037.94,529.25h-8.8v-2.2c-2.14,1.92-5,3.02-8.58,3.02-7.31,0-13.47-5.88-13.47-14.63s6.16-14.63,13.47-14.63c3.57,0,6.43,1.1,8.58,3.03v-14.19h8.8v39.59ZM1029.14,515.45c0-4.23-3.19-7.15-6.76-7.15-3.85,0-6.65,2.92-6.65,7.15s2.8,7.15,6.65,7.15c3.57,0,6.76-2.86,6.76-7.15Z"/>
        <path class="cls-2" d="M1043.72,492.41h8.3v17.32h-8.3v-17.32Z"/>
        <path class="cls-2" d="M1086.78,529.25h-8.8v-2.2c-2.14,1.92-5,3.02-8.58,3.02-7.31,0-13.47-5.88-13.47-14.63s6.16-14.63,13.47-14.63c3.57,0,6.43,1.1,8.58,3.03v-2.2h8.8v27.61ZM1077.98,515.45c0-4.23-3.19-7.15-6.76-7.15-3.85,0-6.65,2.92-6.65,7.15s2.8,7.15,6.65,7.15c3.57,0,6.76-2.86,6.76-7.15Z"/>
        <path class="cls-2" d="M1124.01,515.45c0,8.74-6.16,14.63-13.47,14.63-3.57,0-6.43-1.1-8.58-3.02v11.55h-8.8v-36.96h8.8v2.2c2.15-1.92,5-3.03,8.58-3.03,7.31,0,13.47,5.94,13.47,14.63ZM1115.38,515.45c0-4.23-2.8-7.15-6.65-7.15-3.57,0-6.76,2.92-6.76,7.15s3.19,7.15,6.76,7.15c3.85,0,6.65-2.86,6.65-7.15Z"/>
        <path class="cls-2" d="M1159.43,515.45c0,8.74-6.16,14.63-13.47,14.63-3.57,0-6.43-1.1-8.58-3.02v11.55h-8.8v-36.96h8.8v2.2c2.15-1.92,5-3.03,8.58-3.03,7.31,0,13.47,5.94,13.47,14.63ZM1150.8,515.45c0-4.23-2.8-7.15-6.65-7.15-3.57,0-6.76,2.92-6.76,7.15s3.19,7.15,6.76,7.15c3.85,0,6.65-2.86,6.65-7.15Z"/>
        <path class="cls-2" d="M1164,529.25v-39.59h8.8v39.59h-8.8Z"/>
        <path class="cls-2" d="M1189.13,493.51c0,2.8-2.14,4.89-5.11,4.89s-5.06-2.09-5.06-4.89,2.09-5,5.06-5,5.11,2.31,5.11,5ZM1179.62,529.25v-27.61h8.8v27.61h-8.8Z"/>
        <path class="cls-2" d="M1214.49,517.54l8.08,1.76c-1.38,6.54-7.2,10.78-14.08,10.78-8.25,0-15.07-5.88-15.07-14.63s6.82-14.63,15.07-14.63c6.71,0,12.54,4.12,14.08,10.61l-8.25,1.98c-.77-3.35-3.02-4.89-5.83-4.89-3.96,0-6.6,2.92-6.6,6.93s2.64,6.93,6.6,6.93c2.8,0,5.06-1.49,5.99-4.84Z"/>
        <path class="cls-2" d="M1256.18,529.25h-8.8v-2.2c-2.14,1.92-5,3.02-8.58,3.02-7.31,0-13.47-5.88-13.47-14.63s6.16-14.63,13.47-14.63c3.57,0,6.43,1.1,8.58,3.03v-2.2h8.8v27.61ZM1247.38,515.45c0-4.23-3.19-7.15-6.76-7.15-3.85,0-6.65,2.92-6.65,7.15s2.8,7.15,6.65,7.15c3.57,0,6.76-2.86,6.76-7.15Z"/>
        <path class="cls-2" d="M1283.02,528.04c-2.15,1.16-4.4,2.04-7.53,2.04-6.87,0-11-3.74-11-11v-10.45h-5v-6.98h5v-8.14h8.8v8.14h8.14v6.98h-8.14v9.57c0,2.86,1.38,4.01,3.68,4.01,1.21,0,2.86-.44,4.01-1.1l2.03,6.93Z"/>
        <path class="cls-2" d="M1296.33,493.51c0,2.8-2.14,4.89-5.11,4.89s-5.06-2.09-5.06-4.89,2.09-5,5.06-5,5.11,2.31,5.11,5ZM1286.81,529.25v-27.61h8.8v27.61h-8.8Z"/>
        <path class="cls-2" d="M1331.03,515.45c0,8.74-6.93,14.57-15.12,14.57s-15.29-5.83-15.29-14.57,6.93-14.52,15.29-14.52,15.12,5.83,15.12,14.52ZM1322.56,515.45c0-4.29-3.24-7.15-6.65-7.15s-6.82,2.86-6.82,7.15,3.24,7.15,6.82,7.15,6.65-2.8,6.65-7.15Z"/>
        <path class="cls-2" d="M1363.59,512.31v16.94h-8.74v-15.07c0-3.24-1.92-5.44-4.73-5.44-3.46,0-5.72,2.37-5.72,7.7v12.81h-8.8v-27.61h8.8v2.64c2.09-2.2,5-3.46,8.47-3.46,6.43,0,10.72,4.56,10.72,11.49Z"/>
        <path class="cls-2" d="M1376.3,520.29c.38,2.36,2.53,3.25,4.89,3.25s3.57-.99,3.57-2.2c0-.93-.71-1.65-2.75-2.04l-5.61-1.1c-5.11-.93-8.03-3.68-8.03-8.03,0-5.67,4.89-9.35,11.88-9.35s11.44,3.13,12.54,7.92l-8.03,1.59c-.27-1.7-1.92-3.24-4.62-3.24-2.36,0-3.13,1.16-3.13,2.14,0,.77.33,1.54,2.09,1.92l6.49,1.32c5.22,1.1,7.64,4.23,7.64,8.3,0,6.1-5.28,9.29-12.54,9.29-6.49,0-12.04-2.37-12.98-8.03l8.58-1.76Z"/>
        <path class="cls-2" d="M1406.55,524.58c0,2.8-2.14,4.95-5.06,4.95s-5-2.15-5-4.95c0-2.64,2.09-4.95,5-4.95s5.06,2.31,5.06,4.95Z"/>
        <path class="cls-2" d="M1420.08,524.58c0,2.8-2.14,4.95-5.06,4.95s-5-2.15-5-4.95c0-2.64,2.09-4.95,5-4.95s5.06,2.31,5.06,4.95Z"/>
        <path class="cls-2" d="M1433.6,524.58c0,2.8-2.14,4.95-5.06,4.95s-5-2.15-5-4.95c0-2.64,2.09-4.95,5-4.95s5.06,2.31,5.06,4.95Z"/>
      </g>
      <g>
        <circle class="cls-1" cx="810.95" cy="688.75" r="47.2"/>
        <g>
          <line class="cls-1" x1="789" y1="688.75" x2="832.9" y2="688.75"/>
          <polyline class="cls-1" points="819.02 674.88 832.9 688.75 819.02 702.63"/>
        </g>
      </g>
    </g>
  </g>
</svg>