<?xml version="1.0" encoding="UTF-8"?>
<svg id="_Слой_2" data-name="Слой 2" xmlns="http://www.w3.org/2000/svg" viewBox="0 0 543.4 153.3">
  <defs>
    <style>
      .cls-1 {
        fill: #fff;
      }

      .cls-1, .cls-2 {
        stroke-width: 0px;
      }

      .cls-2 {
        fill: #596aa8;
      }
    </style>
  </defs>
  <g id="Calque_1" data-name="Calque 1">
    <g>
      <path class="cls-1" d="M6.4,0c.5,0,1,.3,1.2.75l12.6,28c.1.25.2.35.35.35.1,0,.25-.1.35-.35L33.4.75c.2-.45.7-.75,1.2-.75h5.25c.7,0,1.05.3,1.05.8,0,.2-.05.4-.15.65l-15.25,33.5c-.4.85-1.3,1.45-2.25,1.45h-5.6c-.95,0-1.85-.6-2.25-1.45L.15,1.45c-.1-.2-.15-.4-.15-.6C0,.35.4,0,1.1,0h5.3Z"/>
      <path class="cls-1" d="M51.5,7.3c.4-.85,1.35-1.4,2.3-1.4h5c.95,0,1.85.55,2.3,1.4l13.9,27.7c.15.25.2.5.2.65,0,.5-.4.75-1.05.75h-5.05c-.5,0-1-.3-1.25-.75l-2.35-4.65c-.2-.45-.7-.75-1.2-.75h-16.25c-.5,0-1,.3-1.2.75l-2.35,4.65c-.25.45-.75.75-1.25.75h-4.8c-.7,0-1.05-.25-1.05-.75,0-.15.05-.4.2-.65l13.9-27.7ZM61.8,24.55c.35,0,.55-.15.55-.45,0-.05,0-.2-.05-.3l-5.75-11.55c-.1-.2-.25-.35-.35-.35-.15,0-.3.15-.4.35l-5.7,11.55c-.05.15-.1.25-.1.35,0,.25.2.4.55.4h11.25Z"/>
      <path class="cls-1" d="M86.3,5.9c.95,0,1.6.65,1.6,1.6v22.05c0,.5.3.85.85.85h17.3c.95,0,1.55.6,1.55,1.55v2.85c0,.95-.6,1.6-1.55,1.6h-23.45c-.95,0-1.6-.65-1.6-1.6V7.5c0-.95.65-1.6,1.6-1.6h3.7Z"/>
      <path class="cls-1" d="M130.45,5.15c11.75,0,19.7,6.45,19.7,16s-7.95,16-19.7,16-19.65-6.4-19.65-16,7.9-16,19.65-16ZM130.45,31.3c7.55,0,12.7-4.15,12.7-10.15s-5.15-10.15-12.7-10.15-12.65,4.1-12.65,10.15,5.15,10.15,12.65,10.15Z"/>
      <path class="cls-1" d="M178.1,19.15c3.1,0,4.8-1.35,4.8-3.65s-1.7-3.65-4.7-3.65h-12.2c-.5,0-.85.35-.85.85v22.1c0,.95-.6,1.6-1.55,1.6h-3.8c-.95,0-1.6-.65-1.6-1.6V7.5c0-.95.65-1.6,1.6-1.6h17.5c7.85,0,12.5,3.5,12.5,9.4,0,4.75-2.95,8-7.95,9.05l8.5,10.8c.2.3.3.5.3.7,0,.35-.3.55-.9.55h-6.1c-.5,0-1.05-.25-1.35-.65l-8.1-10.6h-5.2c-.7,0-1.1-.3-1.1-.85,0-.15.05-.4.15-.6l1.6-3.75c.2-.5.65-.8,1.2-.8h7.25Z"/>
      <path class="cls-1" d="M203.5,5.9c.95,0,1.55.65,1.55,1.6v27.3c0,.95-.6,1.6-1.55,1.6h-3.7c-.95,0-1.6-.65-1.6-1.6V7.5c0-.95.65-1.6,1.6-1.6h3.7Z"/>
      <path class="cls-1" d="M241.75,12.2c-.25.65-.75,1-1.4,1-.2,0-.4-.05-.65-.15-3.9-1.55-7.3-2.2-11.3-2.2-5.25,0-8,1.1-8,3.25,0,1.6,1.6,2.55,4.9,2.95l9.15,1.1c6.75.8,10.35,4.05,10.35,9.35,0,6.35-5.1,9.65-15,9.65-5.25,0-10.55-.9-15.5-2.75-.65-.25-1-.8-1-1.4,0-.2.05-.4.15-.65l1.2-3c.25-.6.75-.95,1.3-.95.25,0,.5.05.75.15,4.4,1.85,8.85,2.75,13.35,2.75,5.25,0,7.95-1.2,7.95-3.55,0-1.7-1.55-2.65-5.15-3.1l-8.85-1.05c-6.8-.8-10.4-4-10.4-8.95,0-6.15,5.4-9.5,15.3-9.5,4.45,0,8.25.65,13.05,2.35.65.25,1,.75,1,1.35,0,.2,0,.45-.1.65l-1.1,2.7Z"/>
      <path class="cls-1" d="M262.3,7.3c.4-.85,1.35-1.4,2.3-1.4h5c.95,0,1.85.55,2.3,1.4l13.9,27.7c.15.25.2.5.2.65,0,.5-.4.75-1.05.75h-5.05c-.5,0-1-.3-1.25-.75l-2.35-4.65c-.2-.45-.7-.75-1.2-.75h-16.25c-.5,0-1,.3-1.2.75l-2.35,4.65c-.25.45-.75.75-1.25.75h-4.8c-.7,0-1.05-.25-1.05-.75,0-.15.05-.4.2-.65l13.9-27.7ZM272.6,24.55c.35,0,.55-.15.55-.45,0-.05,0-.2-.05-.3l-5.75-11.55c-.1-.2-.25-.35-.35-.35-.15,0-.3.15-.4.35l-5.7,11.55c-.05.15-.1.25-.1.35,0,.25.2.4.55.4h11.25Z"/>
      <path class="cls-1" d="M314.05,5.9c.95,0,1.55.65,1.55,1.6v2.9c0,.95-.6,1.6-1.55,1.6h-9.9c-.5,0-.85.35-.85.85v21.95c0,.95-.6,1.6-1.6,1.6h-3.7c-.95,0-1.55-.65-1.55-1.6V12.85c0-.5-.35-.85-.85-.85h-9.9c-.95,0-1.6-.65-1.6-1.6v-2.9c0-.95.65-1.6,1.6-1.6h28.35Z"/>
      <path class="cls-1" d="M326.45,5.9c.95,0,1.55.65,1.55,1.6v27.3c0,.95-.6,1.6-1.55,1.6h-3.7c-.95,0-1.6-.65-1.6-1.6V7.5c0-.95.65-1.6,1.6-1.6h3.7Z"/>
      <path class="cls-1" d="M355.65,5.15c11.75,0,19.7,6.45,19.7,16s-7.95,16-19.7,16-19.65-6.4-19.65-16,7.9-16,19.65-16ZM355.65,31.3c7.55,0,12.7-4.15,12.7-10.15s-5.15-10.15-12.7-10.15-12.65,4.1-12.65,10.15,5.15,10.15,12.65,10.15Z"/>
      <path class="cls-1" d="M383.4,7.5c0-.95.65-1.6,1.6-1.6h3.55c.5,0,1.1.25,1.45.6l19,19.3V7.5c0-.95.65-1.6,1.6-1.6h3.5c.95,0,1.6.65,1.6,1.6v27.3c0,.95-.65,1.6-1.6,1.6h-3c-.5,0-1.05-.25-1.4-.6l-19.65-20.05v19.05c0,.95-.6,1.6-1.55,1.6h-3.5c-.95,0-1.6-.65-1.6-1.6V7.5Z"/>
      <path class="cls-1" d="M22.45,63.9c9.5,0,16.35,6.4,16.35,15.25s-6.8,15.25-16.3,15.25H5.95c-.95,0-1.6-.65-1.6-1.6v-27.3c0-.95.65-1.6,1.6-1.6h16.5ZM11.25,87.65c0,.5.35.85.85.85h9.7c5.85,0,10-3.9,10-9.35s-4.2-9.3-10-9.3h-9.7c-.5,0-.85.35-.85.85v16.95Z"/>
      <path class="cls-1" d="M72.45,63.9c.95,0,1.55.65,1.55,1.6v2.8c0,.95-.6,1.6-1.55,1.6h-17.9c-.5,0-.85.3-.85.85v4.55c0,.5.35.85.85.85h16.55c.7,0,1.1.3,1.1.85,0,.2,0,.4-.1.6l-1.5,3.6c-.15.45-.65.75-1.15.75h-14.9c-.5,0-.85.35-.85.85v4.8c0,.5.35.85.85.85h19.35c.95,0,1.6.6,1.6,1.55v2.8c0,.95-.65,1.6-1.6,1.6h-25.45c-.95,0-1.6-.65-1.6-1.6v-27.3c0-.95.65-1.6,1.6-1.6h24Z"/>
      <path class="cls-1" d="M109.4,70.2c-.25.65-.75,1-1.4,1-.2,0-.4-.05-.65-.15-3.9-1.55-7.3-2.2-11.3-2.2-5.25,0-8,1.1-8,3.25,0,1.6,1.6,2.55,4.9,2.95l9.15,1.1c6.75.8,10.35,4.05,10.35,9.35,0,6.35-5.1,9.65-15,9.65-5.25,0-10.55-.9-15.5-2.75-.65-.25-1-.8-1-1.4,0-.2.05-.4.15-.65l1.2-3c.25-.6.75-.95,1.3-.95.25,0,.5.05.75.15,4.4,1.85,8.85,2.75,13.35,2.75,5.25,0,7.95-1.2,7.95-3.55,0-1.7-1.55-2.65-5.15-3.1l-8.85-1.05c-6.8-.8-10.4-4-10.4-8.95,0-6.15,5.4-9.5,15.3-9.5,4.45,0,8.25.65,13.05,2.35.65.25,1,.75,1,1.35,0,.2,0,.45-.1.65l-1.1,2.7Z"/>
      <path class="cls-1" d="M166,70.3c-.25.6-.75.95-1.3.95-.2,0-.45-.1-.7-.2-3-1.4-6.25-2.1-9.45-2.1-7.65,0-12.4,3.95-12.4,9.85,0,6.25,5.4,10.35,13.25,10.35,3.9,0,7.7-1,10.85-2.75.25-.15.5-.2.7-.2.4,0,.65.3.65.95v3.65c0,3.35-8.2,4.35-12.45,4.35-11.95,0-20-6.55-20-16.25s7.55-15.8,19.5-15.8c3,0,12.75.95,12.75,3.55,0,.2-.05.4-.15.65l-1.25,3Z"/>
      <path class="cls-1" d="M192.5,63.15c11.75,0,19.7,6.45,19.7,16s-7.95,16-19.7,16-19.65-6.4-19.65-16,7.9-16,19.65-16ZM192.5,89.3c7.55,0,12.7-4.15,12.7-10.15s-5.15-10.15-12.7-10.15-12.65,4.1-12.65,10.15,5.15,10.15,12.65,10.15Z"/>
      <path class="cls-1" d="M217.5,76.55c0-.95.65-1.55,1.6-1.55h16c.95,0,1.6.6,1.6,1.55v2.25c0,.95-.65,1.6-1.6,1.6h-16c-.95,0-1.6-.65-1.6-1.6v-2.25Z"/>
      <path class="cls-1" d="M263.5,63.9c7.2,0,11.7,3.95,11.7,10.1s-4.45,9.85-11.75,9.85h-8.5c-.7,0-1.1-.3-1.1-.85,0-.15.05-.35.15-.6l1.6-3.8c.2-.45.65-.75,1.15-.75h7.25c2.8,0,4.3-1.6,4.3-3.95,0-2.6-1.8-4-4.45-4h-11.9c-.5,0-.85.35-.85.85v22.05c0,.95-.6,1.6-1.55,1.6h-3.7c-.95,0-1.6-.65-1.6-1.6v-27.3c0-.95.65-1.6,1.6-1.6h17.65Z"/>
      <path class="cls-1" d="M302.65,77.15c3.1,0,4.8-1.35,4.8-3.65s-1.7-3.65-4.7-3.65h-12.2c-.5,0-.85.35-.85.85v22.1c0,.95-.6,1.6-1.55,1.6h-3.8c-.95,0-1.6-.65-1.6-1.6v-27.3c0-.95.65-1.6,1.6-1.6h17.5c7.85,0,12.5,3.5,12.5,9.4,0,4.75-2.95,8-7.95,9.05l8.5,10.8c.2.3.3.5.3.7,0,.35-.3.55-.9.55h-6.1c-.5,0-1.05-.25-1.35-.65l-8.1-10.6h-5.2c-.7,0-1.1-.3-1.1-.85,0-.15.05-.4.15-.6l1.6-3.75c.2-.5.65-.8,1.2-.8h7.25Z"/>
      <path class="cls-1" d="M340.05,63.15c11.75,0,19.7,6.45,19.7,16s-7.95,16-19.7,16-19.65-6.4-19.65-16,7.9-16,19.65-16ZM340.05,89.3c7.55,0,12.7-4.15,12.7-10.15s-5.15-10.15-12.7-10.15-12.65,4.1-12.65,10.15,5.15,10.15,12.65,10.15Z"/>
      <path class="cls-1" d="M385.9,63.9c9.5,0,16.35,6.4,16.35,15.25s-6.8,15.25-16.3,15.25h-16.55c-.95,0-1.6-.65-1.6-1.6v-27.3c0-.95.65-1.6,1.6-1.6h16.5ZM374.7,87.65c0,.5.35.85.85.85h9.7c5.85,0,10-3.9,10-9.35s-4.2-9.3-10-9.3h-9.7c-.5,0-.85.35-.85.85v16.95Z"/>
      <path class="cls-1" d="M414.85,63.9c.95,0,1.6.65,1.6,1.6v15.7c0,5,3.6,8.05,9.45,8.05s9.5-3.1,9.5-8.05v-15.7c0-.95.65-1.6,1.6-1.6h3.65c.95,0,1.55.65,1.55,1.6v16.55c0,8.2-6.15,13.1-16.3,13.1s-16.35-4.9-16.35-13.1v-16.55c0-.95.65-1.6,1.6-1.6h3.7Z"/>
      <path class="cls-1" d="M457.15,63.9c.95,0,1.55.65,1.55,1.6v27.3c0,.95-.6,1.6-1.55,1.6h-3.7c-.95,0-1.6-.65-1.6-1.6v-27.3c0-.95.65-1.6,1.6-1.6h3.7Z"/>
      <path class="cls-1" d="M494.15,63.9c.95,0,1.55.65,1.55,1.6v2.9c0,.95-.6,1.6-1.55,1.6h-9.9c-.5,0-.85.35-.85.85v21.95c0,.95-.6,1.6-1.6,1.6h-3.7c-.95,0-1.55-.65-1.55-1.6v-21.95c0-.5-.35-.85-.85-.85h-9.9c-.95,0-1.6-.65-1.6-1.6v-2.9c0-.95.65-1.6,1.6-1.6h28.35Z"/>
      <path class="cls-1" d="M527.6,70.2c-.25.65-.75,1-1.4,1-.2,0-.4-.05-.65-.15-3.9-1.55-7.3-2.2-11.3-2.2-5.25,0-8,1.1-8,3.25,0,1.6,1.6,2.55,4.9,2.95l9.15,1.1c6.75.8,10.35,4.05,10.35,9.35,0,6.35-5.1,9.65-15,9.65-5.25,0-10.55-.9-15.5-2.75-.65-.25-1-.8-1-1.4,0-.2.05-.4.15-.65l1.2-3c.25-.6.75-.95,1.3-.95.25,0,.5.05.75.15,4.4,1.85,8.85,2.75,13.35,2.75,5.25,0,7.95-1.2,7.95-3.55,0-1.7-1.55-2.65-5.15-3.1l-8.85-1.05c-6.8-.8-10.4-4-10.4-8.95,0-6.15,5.4-9.5,15.3-9.5,4.45,0,8.25.65,13.05,2.35.65.25,1,.75,1,1.35,0,.2,0,.45-.1.65l-1.1,2.7Z"/>
      <path class="cls-1" d="M539.15,94.75c-1.95-.15-3.25-1.55-3.25-3.45,0-2.05,1.6-3.45,3.8-3.45s3.7,1.45,3.7,3.75c0,.7-.15,1.45-.4,2.4l-1.6,5.6c-.15.5-.6.85-1.1.85h-1.75c-.45,0-.7-.25-.7-.65,0-.05.05-.1.05-.2l1.25-4.85Z"/>
      <path class="cls-2" d="M23,121.9c9.8,0,16.8,6.35,16.8,15.25s-7,15.25-16.85,15.25H5.85c-1.05,0-1.75-.7-1.75-1.75v-27c0-1.05.7-1.75,1.75-1.75h17.15ZM12.4,144.3c0,.6.4,1,1,1h8.8c5.35,0,9.15-3.4,9.15-8.15s-3.8-8.1-9.1-8.1h-8.85c-.6,0-1,.4-1,1v14.25Z"/>
      <path class="cls-2" d="M65.55,121c12.25,0,20.35,6.4,20.35,16.15s-8.1,16.15-20.35,16.15-20.35-6.35-20.35-16.15,8.05-16.15,20.35-16.15ZM65.5,146.3c7.1,0,11.95-3.7,11.95-9.15s-4.85-9.15-11.95-9.15-11.85,3.65-11.85,9.15,4.75,9.15,11.85,9.15Z"/>
      <path class="cls-2" d="M93.5,123.65c0-1.05.7-1.75,1.75-1.75h3.7c.6,0,1.3.3,1.75.7l18.2,16.75v-15.7c0-1.05.7-1.75,1.75-1.75h4.55c1.05,0,1.75.7,1.75,1.75v27c0,1.05-.7,1.75-1.75,1.75h-3.2c-.6,0-1.3-.25-1.7-.7l-18.75-17.35v16.3c0,1.05-.7,1.75-1.75,1.75h-4.55c-1.05,0-1.75-.7-1.75-1.75v-27Z"/>
      <path class="cls-2" d="M162.7,121.9c1.05,0,1.75.7,1.75,1.75v3.85c0,1.05-.7,1.75-1.75,1.75h-9.25c-.6,0-1,.4-1,1v20.4c0,1.05-.7,1.75-1.75,1.75h-4.8c-1.05,0-1.75-.7-1.75-1.75v-20.4c0-.6-.4-1-1-1h-9.25c-1.05,0-1.75-.7-1.75-1.75v-3.85c0-1.05.7-1.75,1.75-1.75h28.8Z"/>
      <path class="cls-2" d="M193.1,121.9c1.05,0,1.75.7,1.75,1.75v20.5c0,.6.4,1,1,1h16.55c1.05,0,1.75.7,1.75,1.75v3.75c0,1.05-.7,1.75-1.75,1.75h-24.1c-1.05,0-1.75-.7-1.75-1.75v-27c0-1.05.7-1.75,1.75-1.75h4.8Z"/>
      <path class="cls-2" d="M245.55,121.9c1.05,0,1.75.7,1.75,1.75v3.7c0,1.05-.7,1.75-1.75,1.75h-16.95c-.6,0-1,.4-1,1v2.45c0,.6.4,1,1,1h15.65c.8,0,1.25.4,1.25.95,0,.2-.05.4-.15.65l-1.85,4.5c-.25.55-.8.9-1.4.9h-13.5c-.6,0-1,.4-1,1v2.65c0,.6.4,1,1,1h18.6c1.05,0,1.75.7,1.75,1.75v3.7c0,1.05-.7,1.75-1.75,1.75h-26.15c-1.05,0-1.75-.7-1.75-1.75v-27c0-1.05.7-1.75,1.75-1.75h24.5Z"/>
      <path class="cls-2" d="M302.2,129.3c-.25.65-.7,1-1.3,1-.25,0-.6-.1-.9-.25-2.9-1.4-6.1-2.1-9.25-2.1-7.2,0-11.4,3.5-11.4,8.8,0,5.75,5,9.4,12.35,9.4,4,0,7.8-1.1,11.05-2.95.3-.2.55-.25.75-.25.45,0,.7.35.7,1.05v4.65c0,3.65-8.55,4.6-12.8,4.6-12.3,0-20.5-6.5-20.5-16.35s7.6-15.95,19.95-15.95c3.25,0,13.1.9,13.1,3.65,0,.25-.05.5-.15.75l-1.6,3.95Z"/>
      <path class="cls-2" d="M317.05,121.9c1.05,0,1.75.7,1.75,1.75v15.4c0,4.45,3.35,7.2,8.7,7.2s8.75-2.8,8.75-7.2v-15.4c0-1.05.7-1.75,1.75-1.75h4.7c1.05,0,1.75.7,1.75,1.75v16.35c0,8.35-6.4,13.3-17,13.3s-16.95-4.95-16.95-13.3v-16.35c0-1.05.7-1.75,1.75-1.75h4.8Z"/>
      <path class="cls-2" d="M359.85,121.9c1.05,0,1.75.7,1.75,1.75v27c0,1.05-.7,1.75-1.75,1.75h-4.8c-1.05,0-1.75-.7-1.75-1.75v-27c0-1.05.7-1.75,1.75-1.75h4.8Z"/>
      <path class="cls-2" d="M392.25,134.5c2.6,0,3.8-.95,3.8-2.75s-1.25-2.7-3.85-2.7h-11.35c-.6,0-1,.4-1,1v20.6c0,1.05-.7,1.75-1.75,1.75h-4.95c-1.05,0-1.75-.7-1.75-1.75v-27c0-1.05.7-1.75,1.75-1.75h17.9c8.6,0,13.3,3.35,13.3,9.55,0,4.8-2.75,8.05-7.6,9.25l8.15,10.35c.25.3.35.55.35.75,0,.4-.35.6-1,.6h-7.5c-.6,0-1.25-.3-1.6-.8l-7.55-9.9h-3.9c-.8,0-1.2-.35-1.2-.95,0-.2.05-.4.15-.65l2-4.7c.25-.55.8-.9,1.4-.9h6.2Z"/>
    </g>
  </g>
</svg>