<?xml version="1.0" encoding="UTF-8"?>
<svg id="_Слой_2" data-name="Слой 2" xmlns="http://www.w3.org/2000/svg" viewBox="0 0 620.47 55.72">
  <defs>
    <style>
      .cls-1 {
        fill: #fff;
        stroke-width: 0px;
      }
    </style>
  </defs>
  <g id="Calque_1" data-name="Calque 1">
    <g>
      <path class="cls-1" d="M44.55,0c1.42,0,2.4.97,2.4,2.4v4.5c0,1.42-.98,2.4-2.4,2.4H12c-.75,0-1.28.52-1.28,1.27v12.52c0,.75.53,1.2,1.28,1.2h30.3c1.05,0,1.65.53,1.65,1.35,0,.3,0,.6-.15.9l-2.4,5.92c-.3.67-.97,1.12-1.72,1.12H12c-.75,0-1.28.52-1.28,1.27v17.32c0,1.43-.97,2.4-2.4,2.4H2.4c-1.42,0-2.4-.97-2.4-2.4V2.4C0,.97.98,0,2.4,0h42.15Z"/>
      <path class="cls-1" d="M96.75,8.85c1.42,0,2.33.97,2.33,2.4v4.2c0,1.42-.9,2.4-2.33,2.4h-26.85c-.75,0-1.28.45-1.28,1.27v6.83c0,.75.53,1.27,1.28,1.27h24.82c1.05,0,1.65.45,1.65,1.28,0,.3,0,.6-.15.9l-2.25,5.4c-.23.67-.98,1.12-1.73,1.12h-22.35c-.75,0-1.28.52-1.28,1.27v7.2c0,.75.53,1.27,1.28,1.27h29.02c1.42,0,2.4.9,2.4,2.33v4.2c0,1.43-.98,2.4-2.4,2.4h-38.17c-1.42,0-2.4-.97-2.4-2.4V11.25c0-1.42.97-2.4,2.4-2.4h36Z"/>
      <path class="cls-1" d="M142.5,28.72c4.65,0,7.2-2.02,7.2-5.47s-2.55-5.47-7.05-5.47h-18.3c-.75,0-1.27.52-1.27,1.27v33.15c0,1.43-.9,2.4-2.33,2.4h-5.7c-1.42,0-2.4-.97-2.4-2.4V11.25c0-1.42.97-2.4,2.4-2.4h26.25c11.77,0,18.75,5.25,18.75,14.1,0,7.12-4.42,12-11.92,13.57l12.75,16.2c.3.45.45.75.45,1.05,0,.53-.45.83-1.35.83h-9.15c-.75,0-1.57-.38-2.02-.97l-12.15-15.9h-7.8c-1.05,0-1.65-.45-1.65-1.28,0-.22.07-.6.22-.9l2.4-5.62c.3-.75.97-1.2,1.8-1.2h10.88Z"/>
      <path class="cls-1" d="M209.55,8.85c1.43,0,2.33.97,2.33,2.4v4.35c0,1.42-.9,2.4-2.33,2.4h-14.85c-.75,0-1.27.53-1.27,1.28v32.92c0,1.43-.9,2.4-2.4,2.4h-5.55c-1.42,0-2.32-.97-2.32-2.4V19.27c0-.75-.53-1.28-1.28-1.28h-14.85c-1.42,0-2.4-.97-2.4-2.4v-4.35c0-1.42.98-2.4,2.4-2.4h42.52Z"/>
      <path class="cls-1" d="M228.15,8.85c1.42,0,2.33.97,2.33,2.4v40.95c0,1.43-.9,2.4-2.33,2.4h-5.55c-1.43,0-2.4-.97-2.4-2.4V11.25c0-1.42.97-2.4,2.4-2.4h5.55Z"/>
      <path class="cls-1" d="M253.95,8.85c1.42,0,2.4.97,2.4,2.4v33.07c0,.75.45,1.27,1.27,1.27h25.95c1.43,0,2.33.9,2.33,2.33v4.27c0,1.43-.9,2.4-2.33,2.4h-35.17c-1.42,0-2.4-.97-2.4-2.4V11.25c0-1.42.97-2.4,2.4-2.4h5.55Z"/>
      <path class="cls-1" d="M302.17,8.85c1.42,0,2.32.97,2.32,2.4v40.95c0,1.43-.9,2.4-2.32,2.4h-5.55c-1.42,0-2.4-.97-2.4-2.4V11.25c0-1.42.97-2.4,2.4-2.4h5.55Z"/>
      <path class="cls-1" d="M359.54,18.3c-.38.98-1.12,1.5-2.1,1.5-.3,0-.6-.08-.97-.22-5.85-2.33-10.95-3.3-16.95-3.3-7.88,0-12,1.65-12,4.88,0,2.4,2.4,3.82,7.35,4.42l13.72,1.65c10.12,1.2,15.52,6.08,15.52,14.02,0,9.52-7.65,14.47-22.5,14.47-7.88,0-15.82-1.35-23.25-4.12-.98-.38-1.5-1.2-1.5-2.1,0-.3.08-.6.22-.98l1.8-4.5c.38-.9,1.12-1.43,1.95-1.43.38,0,.75.08,1.12.23,6.6,2.77,13.27,4.12,20.02,4.12,7.88,0,11.92-1.8,11.92-5.33,0-2.55-2.32-3.97-7.72-4.65l-13.27-1.58c-10.2-1.2-15.6-6-15.6-13.42,0-9.22,8.1-14.25,22.95-14.25,6.67,0,12.37.97,19.57,3.52.97.38,1.5,1.12,1.5,2.03,0,.3,0,.67-.15.97l-1.65,4.05Z"/>
      <path class="cls-1" d="M390.37,10.95c.6-1.27,2.03-2.1,3.45-2.1h7.5c1.43,0,2.78.83,3.45,2.1l20.85,41.55c.23.38.3.75.3.97,0,.75-.6,1.12-1.58,1.12h-7.58c-.75,0-1.5-.45-1.88-1.12l-3.52-6.97c-.3-.67-1.05-1.12-1.8-1.12h-24.37c-.75,0-1.5.45-1.8,1.12l-3.53,6.97c-.38.67-1.12,1.12-1.88,1.12h-7.2c-1.05,0-1.58-.38-1.58-1.12,0-.22.08-.6.3-.97l20.85-41.55ZM405.82,36.82c.53,0,.83-.22.83-.67,0-.08,0-.3-.08-.45l-8.62-17.32c-.15-.3-.38-.52-.52-.52-.23,0-.45.22-.6.52l-8.55,17.32c-.08.23-.15.38-.15.53,0,.38.3.6.83.6h16.87Z"/>
      <path class="cls-1" d="M468,8.85c1.42,0,2.32.97,2.32,2.4v4.35c0,1.42-.9,2.4-2.32,2.4h-14.85c-.75,0-1.28.53-1.28,1.28v32.92c0,1.43-.9,2.4-2.4,2.4h-5.55c-1.43,0-2.33-.97-2.33-2.4V19.27c0-.75-.52-1.28-1.27-1.28h-14.85c-1.43,0-2.4-.97-2.4-2.4v-4.35c0-1.42.97-2.4,2.4-2.4h42.52Z"/>
      <path class="cls-1" d="M486.6,8.85c1.42,0,2.32.97,2.32,2.4v40.95c0,1.43-.9,2.4-2.32,2.4h-5.55c-1.42,0-2.4-.97-2.4-2.4V11.25c0-1.42.97-2.4,2.4-2.4h5.55Z"/>
      <path class="cls-1" d="M530.39,7.72c17.62,0,29.55,9.67,29.55,24s-11.92,24-29.55,24-29.47-9.6-29.47-24,11.85-24,29.47-24ZM530.39,46.95c11.32,0,19.05-6.22,19.05-15.22s-7.72-15.22-19.05-15.22-18.97,6.15-18.97,15.22,7.72,15.22,18.97,15.22Z"/>
      <path class="cls-1" d="M572.02,11.25c0-1.42.97-2.4,2.4-2.4h5.32c.75,0,1.65.38,2.18.9l28.5,28.95V11.25c0-1.42.97-2.4,2.4-2.4h5.25c1.42,0,2.4.97,2.4,2.4v40.95c0,1.43-.98,2.4-2.4,2.4h-4.5c-.75,0-1.58-.38-2.1-.9l-29.47-30.07v28.57c0,1.43-.9,2.4-2.32,2.4h-5.25c-1.43,0-2.4-.97-2.4-2.4V11.25Z"/>
    </g>
  </g>
</svg>