<?xml version="1.0" encoding="UTF-8"?>
<svg id="_Слой_2" data-name="Слой 2" xmlns="http://www.w3.org/2000/svg" viewBox="0 0 714.97 56.92">
  <defs>
    <style>
      .cls-1 {
        fill: #fff;
        stroke-width: 0px;
      }
    </style>
  </defs>
  <g id="Calque_1" data-name="Calque 1">
    <g>
      <path class="cls-1" d="M34.42,1.2c11.92,0,19.05,5.25,19.05,13.87,0,5.33-2.62,10.05-6.45,11.4v.45c5.33,1.95,8.55,6.97,8.55,13.42,0,9.75-7.43,15.45-20.4,15.45H2.4c-1.5,0-2.4-.97-2.4-2.4V3.6C0,2.17.9,1.2,2.4,1.2h32.02ZM10.72,45.22c0,.75.45,1.27,1.2,1.27h23.62c5.85,0,9.3-2.7,9.3-7.12s-3.53-7.12-9.38-7.12h-18.37c-1.12,0-1.73-.53-1.73-1.35,0-.22.08-.52.23-.82l2.4-5.78c.23-.75.98-1.2,1.72-1.2h15.75c4.72,0,7.57-2.4,7.57-6.3s-2.85-6.3-7.65-6.3H11.92c-.75,0-1.2.52-1.2,1.27v33.45Z"/>
      <path class="cls-1" d="M75.6,10.05c1.43,0,2.33.97,2.33,2.4v40.95c0,1.43-.9,2.4-2.33,2.4h-5.55c-1.43,0-2.4-.97-2.4-2.4V12.45c0-1.42.97-2.4,2.4-2.4h5.55Z"/>
      <path class="cls-1" d="M119.4,8.92c17.62,0,29.55,9.67,29.55,24s-11.92,24-29.55,24-29.47-9.6-29.47-24,11.85-24,29.47-24ZM119.4,48.15c11.33,0,19.05-6.22,19.05-15.22s-7.72-15.22-19.05-15.22-18.97,6.15-18.97,15.22,7.72,15.22,18.97,15.22Z"/>
      <path class="cls-1" d="M236.62,11.85c-.38.9-1.12,1.35-1.88,1.35-.38,0-.75-.07-1.2-.3-5.25-2.47-10.95-3.75-16.57-3.75-13.72,0-22.27,7.5-22.27,18.67,0,11.77,9.6,19.65,23.7,19.65,6.67,0,13.27-1.8,18.67-4.8.38-.23.75-.38,1.05-.38.6,0,.97.52.97,1.5v6c0,5.33-14.1,7.12-21.15,7.12-20.32,0-34.2-11.62-34.2-28.87S196.87,0,217.05,0c6.68,0,13.35,1.2,20.25,3.83.9.38,1.5,1.2,1.5,2.1,0,.38-.08.67-.23,1.05l-1.95,4.88Z"/>
      <path class="cls-1" d="M265.42,12.15c.6-1.27,2.03-2.1,3.45-2.1h7.5c1.43,0,2.78.83,3.45,2.1l20.85,41.55c.23.38.3.75.3.97,0,.75-.6,1.12-1.58,1.12h-7.58c-.75,0-1.5-.45-1.88-1.12l-3.52-6.97c-.3-.67-1.05-1.12-1.8-1.12h-24.37c-.75,0-1.5.45-1.8,1.12l-3.53,6.97c-.38.67-1.12,1.12-1.88,1.12h-7.2c-1.05,0-1.58-.38-1.58-1.12,0-.22.08-.6.3-.97l20.85-41.55ZM280.87,38.02c.53,0,.83-.22.83-.67,0-.08,0-.3-.08-.45l-8.62-17.32c-.15-.3-.38-.52-.52-.52-.23,0-.45.22-.6.52l-8.55,17.32c-.08.23-.15.38-.15.53,0,.38.3.6.83.6h16.87Z"/>
      <path class="cls-1" d="M339.52,29.92c4.65,0,7.2-2.02,7.2-5.47s-2.55-5.47-7.05-5.47h-18.3c-.75,0-1.27.52-1.27,1.27v33.15c0,1.43-.9,2.4-2.33,2.4h-5.7c-1.43,0-2.4-.97-2.4-2.4V12.45c0-1.42.97-2.4,2.4-2.4h26.25c11.78,0,18.75,5.25,18.75,14.1,0,7.12-4.42,12-11.92,13.57l12.75,16.2c.3.45.45.75.45,1.05,0,.53-.45.83-1.35.83h-9.15c-.75,0-1.58-.38-2.03-.97l-12.15-15.9h-7.8c-1.05,0-1.65-.45-1.65-1.28,0-.22.08-.6.23-.9l2.4-5.62c.3-.75.97-1.2,1.8-1.2h10.88Z"/>
      <path class="cls-1" d="M400.19,10.05c10.72,0,16.95,4.27,16.95,11.55,0,4.35-2.18,8.02-5.7,9.6v.38c4.58,1.88,7.42,6.3,7.42,11.62,0,8.02-6.38,12.6-17.85,12.6h-28.95c-1.42,0-2.4-.97-2.4-2.4V12.45c0-1.42.97-2.4,2.4-2.4h28.12ZM379.94,45.6c0,.75.53,1.27,1.28,1.27h20.02c4.65,0,7.35-1.95,7.35-5.17s-2.77-5.1-7.42-5.1h-15.45c-1.05,0-1.65-.45-1.65-1.28,0-.3.08-.6.22-.97l2.18-5.32c.3-.68.97-1.12,1.72-1.12h12.97c3.67,0,5.92-1.73,5.92-4.42s-2.25-4.42-5.92-4.42h-19.95c-.75,0-1.28.45-1.28,1.27v25.27Z"/>
      <path class="cls-1" d="M437.09,10.05c1.42,0,2.4.97,2.4,2.4v23.55c0,7.5,5.4,12.07,14.17,12.07s14.25-4.65,14.25-12.07V12.45c0-1.42.97-2.4,2.4-2.4h5.47c1.43,0,2.33.97,2.33,2.4v24.82c0,12.3-9.22,19.65-24.45,19.65s-24.52-7.35-24.52-19.65V12.45c0-1.42.97-2.4,2.4-2.4h5.55Z"/>
      <path class="cls-1" d="M522.44,29.92c4.65,0,7.2-2.02,7.2-5.47s-2.55-5.47-7.05-5.47h-18.3c-.75,0-1.28.52-1.28,1.27v33.15c0,1.43-.9,2.4-2.32,2.4h-5.7c-1.42,0-2.4-.97-2.4-2.4V12.45c0-1.42.97-2.4,2.4-2.4h26.25c11.77,0,18.75,5.25,18.75,14.1,0,7.12-4.42,12-11.92,13.57l12.75,16.2c.3.45.45.75.45,1.05,0,.53-.45.83-1.35.83h-9.15c-.75,0-1.58-.38-2.02-.97l-12.15-15.9h-7.8c-1.05,0-1.65-.45-1.65-1.28,0-.22.07-.6.22-.9l2.4-5.62c.3-.75.97-1.2,1.8-1.2h10.87Z"/>
      <path class="cls-1" d="M566.77,12.15c.6-1.27,2.02-2.1,3.45-2.1h7.5c1.42,0,2.77.83,3.45,2.1l20.85,41.55c.22.38.3.75.3.97,0,.75-.6,1.12-1.58,1.12h-7.57c-.75,0-1.5-.45-1.88-1.12l-3.53-6.97c-.3-.67-1.05-1.12-1.8-1.12h-24.38c-.75,0-1.5.45-1.8,1.12l-3.53,6.97c-.38.67-1.12,1.12-1.88,1.12h-7.2c-1.05,0-1.58-.38-1.58-1.12,0-.22.08-.6.3-.97l20.85-41.55ZM582.22,38.02c.52,0,.82-.22.82-.67,0-.08,0-.3-.07-.45l-8.62-17.32c-.15-.3-.38-.52-.53-.52-.22,0-.45.22-.6.52l-8.55,17.32c-.08.23-.15.38-.15.53,0,.38.3.6.82.6h16.88Z"/>
      <path class="cls-1" d="M611.02,12.45c0-1.42.97-2.4,2.4-2.4h5.32c.75,0,1.65.38,2.17.9l28.5,28.95V12.45c0-1.42.97-2.4,2.4-2.4h5.25c1.42,0,2.4.97,2.4,2.4v40.95c0,1.43-.97,2.4-2.4,2.4h-4.5c-.75,0-1.58-.38-2.1-.9l-29.47-30.07v28.57c0,1.43-.9,2.4-2.33,2.4h-5.25c-1.43,0-2.4-.97-2.4-2.4V12.45Z"/>
      <path class="cls-1" d="M712.64,10.05c1.42,0,2.32.97,2.32,2.4v4.35c0,1.42-.9,2.4-2.32,2.4h-14.85c-.75,0-1.28.53-1.28,1.28v32.92c0,1.43-.9,2.4-2.4,2.4h-5.55c-1.42,0-2.32-.97-2.32-2.4V20.47c0-.75-.53-1.28-1.28-1.28h-14.85c-1.42,0-2.4-.97-2.4-2.4v-4.35c0-1.42.98-2.4,2.4-2.4h42.52Z"/>
    </g>
  </g>
</svg>