<?xml version="1.0" encoding="UTF-8"?>
<svg id="_Слой_2" data-name="Слой 2" xmlns="http://www.w3.org/2000/svg" viewBox="0 0 420.82 56.92">
  <defs>
    <style>
      .cls-1 {
        fill: #fff;
        stroke-width: 0px;
      }
    </style>
  </defs>
  <g id="Calque_1" data-name="Calque 1">
    <g>
      <path class="cls-1" d="M52.87,11.85c-.38.9-1.12,1.35-1.88,1.35-.38,0-.75-.07-1.2-.3-5.25-2.47-10.95-3.75-16.57-3.75-13.72,0-22.27,7.5-22.27,18.67,0,11.77,9.6,19.65,23.7,19.65,6.67,0,13.27-1.8,18.67-4.8.38-.23.75-.38,1.05-.38.6,0,.97.52.97,1.5v6c0,5.33-14.1,7.12-21.15,7.12C13.87,56.92,0,45.3,0,28.05S13.12,0,33.3,0c6.67,0,13.35,1.2,20.25,3.83.9.38,1.5,1.2,1.5,2.1,0,.38-.08.67-.23,1.05l-1.95,4.88Z"/>
      <path class="cls-1" d="M93.45,8.92c17.62,0,29.55,9.67,29.55,24s-11.92,24-29.55,24-29.47-9.6-29.47-24,11.85-24,29.47-24ZM93.45,48.15c11.32,0,19.05-6.22,19.05-15.22s-7.72-15.22-19.05-15.22-18.97,6.15-18.97,15.22,7.72,15.22,18.97,15.22Z"/>
      <path class="cls-1" d="M164.92,29.92c4.65,0,7.2-2.02,7.2-5.47s-2.55-5.47-7.05-5.47h-18.3c-.75,0-1.27.52-1.27,1.27v33.15c0,1.43-.9,2.4-2.32,2.4h-5.7c-1.43,0-2.4-.97-2.4-2.4V12.45c0-1.42.97-2.4,2.4-2.4h26.25c11.77,0,18.75,5.25,18.75,14.1,0,7.12-4.42,12-11.92,13.57l12.75,16.2c.3.45.45.75.45,1.05,0,.53-.45.83-1.35.83h-9.15c-.75,0-1.58-.38-2.02-.97l-12.15-15.9h-7.8c-1.05,0-1.65-.45-1.65-1.28,0-.22.07-.6.23-.9l2.4-5.62c.3-.75.97-1.2,1.8-1.2h10.87Z"/>
      <path class="cls-1" d="M222.22,10.05c14.25,0,24.52,9.6,24.52,22.87s-10.2,22.87-24.45,22.87h-24.82c-1.43,0-2.4-.97-2.4-2.4V12.45c0-1.42.97-2.4,2.4-2.4h24.75ZM205.42,45.67c0,.75.52,1.28,1.27,1.28h14.55c8.77,0,15-5.85,15-14.02s-6.3-13.95-15-13.95h-14.55c-.75,0-1.27.52-1.27,1.27v25.42Z"/>
      <path class="cls-1" d="M272.02,12.15c.6-1.27,2.02-2.1,3.45-2.1h7.5c1.43,0,2.77.83,3.45,2.1l20.85,41.55c.23.38.3.75.3.97,0,.75-.6,1.12-1.57,1.12h-7.57c-.75,0-1.5-.45-1.88-1.12l-3.52-6.97c-.3-.67-1.05-1.12-1.8-1.12h-24.37c-.75,0-1.5.45-1.8,1.12l-3.52,6.97c-.38.67-1.12,1.12-1.88,1.12h-7.2c-1.05,0-1.58-.38-1.58-1.12,0-.22.08-.6.3-.97l20.85-41.55ZM287.47,38.02c.52,0,.83-.22.83-.67,0-.08,0-.3-.08-.45l-8.62-17.32c-.15-.3-.38-.52-.52-.52-.23,0-.45.22-.6.52l-8.55,17.32c-.07.23-.15.38-.15.53,0,.38.3.6.83.6h16.87Z"/>
      <path class="cls-1" d="M341.92,56.85c-18.82,0-30.15-9.07-30.15-24.15s11.1-23.77,30-23.77c4.88,0,21.22,1.42,21.22,5.33,0,.3-.07.6-.23.97l-1.8,4.5c-.38.9-1.12,1.42-2.02,1.42-.3,0-.67-.08-1.05-.23-5.02-2.17-10.27-3.22-15.6-3.22-12.37,0-20.02,5.7-20.02,15s7.72,15.15,20.02,15.15c3.83,0,7.8-.6,11.47-1.8v-7.12c0-.75-.45-1.2-1.2-1.2h-13.05c-1.12,0-1.72-.53-1.72-1.35,0-.23.07-.6.22-.9l2.25-5.4c.3-.67.98-1.12,1.73-1.12h19.5c1.43,0,2.4.9,2.4,2.32v18.82c0,1.43-.9,2.78-2.25,3.23-6.45,2.4-12.97,3.52-19.72,3.52Z"/>
      <path class="cls-1" d="M416.25,10.05c1.42,0,2.32.97,2.32,2.4v4.2c0,1.42-.9,2.4-2.32,2.4h-26.85c-.75,0-1.27.45-1.27,1.27v6.83c0,.75.52,1.27,1.27,1.27h24.82c1.05,0,1.65.45,1.65,1.28,0,.3,0,.6-.15.9l-2.25,5.4c-.23.67-.98,1.12-1.73,1.12h-22.35c-.75,0-1.27.52-1.27,1.27v7.2c0,.75.52,1.27,1.27,1.27h29.02c1.42,0,2.4.9,2.4,2.33v4.2c0,1.43-.98,2.4-2.4,2.4h-38.17c-1.43,0-2.4-.97-2.4-2.4V12.45c0-1.42.97-2.4,2.4-2.4h36Z"/>
    </g>
  </g>
</svg>