<?xml version="1.0" encoding="UTF-8"?>
<svg id="_Слой_2" data-name="Слой 2" xmlns="http://www.w3.org/2000/svg" viewBox="0 0 1122.81 64.42">
  <defs>
    <style>
      .cls-1 {
        fill: #fff;
        stroke-width: 0px;
      }
    </style>
  </defs>
  <g id="Calque_1" data-name="Calque 1">
    <g>
      <path class="cls-1" d="M197.85,16.42c17.62,0,29.55,9.67,29.55,24s-11.92,24-29.55,24-29.47-9.6-29.47-24,11.85-24,29.47-24ZM197.85,55.65c11.32,0,19.05-6.22,19.05-15.22s-7.72-15.22-19.05-15.22-18.97,6.15-18.97,15.22,7.72,15.22,18.97,15.22Z"/>
      <path class="cls-1" d="M897.22,17.55c1.42,0,2.32.97,2.32,2.4v13.95c0,.82.53,1.27,1.28,1.27h25.65c.75,0,1.2-.45,1.2-1.27v-13.95c0-1.42.97-2.4,2.4-2.4h5.55c1.42,0,2.4.97,2.4,2.4v40.95c0,1.43-.98,2.4-2.4,2.4h-5.55c-1.42,0-2.4-.97-2.4-2.4v-15.45c0-.75-.45-1.2-1.2-1.2h-25.65c-.75,0-1.28.45-1.28,1.2v15.45c0,1.43-.9,2.4-2.32,2.4h-5.55c-1.42,0-2.4-.97-2.4-2.4V19.95c0-1.42.97-2.4,2.4-2.4h5.55Z"/>
      <g>
        <path class="cls-1" d="M48.45,19.35c-.38.9-1.12,1.42-2.02,1.42-.3,0-.67-.08-1.05-.22-6.75-2.78-12.67-3.97-19.65-3.97-9.52,0-14.47,2.25-14.47,6.67,0,3.38,2.92,5.48,9.15,6.23l15.38,1.8c11.62,1.35,17.7,7.12,17.7,16.35,0,11.1-8.62,16.8-25.35,16.8-9.15,0-18.22-1.65-26.62-5.02-.98-.38-1.5-1.2-1.5-2.1,0-.3.07-.6.22-.97l2.03-5.03c.38-.9,1.12-1.42,1.95-1.42.38,0,.75.08,1.12.23,7.65,3.38,15.38,5.02,23.17,5.02,9.45,0,14.32-2.4,14.32-7.12,0-3.67-3-5.7-9.6-6.52l-15.07-1.88C6.75,38.17.6,32.85.6,24,.6,13.35,9.67,7.58,26.17,7.58c7.88,0,14.77,1.27,22.72,4.2.98.38,1.58,1.2,1.58,2.1,0,.3-.08.6-.22.97l-1.8,4.5Z"/>
        <path class="cls-1" d="M80.47,19.65c.6-1.27,2.02-2.1,3.45-2.1h7.5c1.42,0,2.77.83,3.45,2.1l20.85,41.55c.22.38.3.75.3.97,0,.75-.6,1.12-1.58,1.12h-7.57c-.75,0-1.5-.45-1.88-1.12l-3.53-6.97c-.3-.67-1.05-1.12-1.8-1.12h-24.38c-.75,0-1.5.45-1.8,1.12l-3.53,6.97c-.38.67-1.12,1.12-1.88,1.12h-7.2c-1.05,0-1.58-.38-1.58-1.12,0-.22.08-.6.3-.97l20.85-41.55ZM95.92,45.52c.52,0,.82-.22.82-.67,0-.08,0-.3-.07-.45l-8.62-17.32c-.15-.3-.38-.52-.53-.52-.22,0-.45.22-.6.52l-8.55,17.32c-.08.23-.15.38-.15.53,0,.38.3.6.82.6h16.88Z"/>
        <path class="cls-1" d="M110.78,19.72c-.15-.38-.22-.67-.22-.97,0-.75.53-1.2,1.57-1.2h7.58c.75,0,1.5.45,1.8,1.12l15.82,33.82c.15.38.3.53.53.53.15,0,.38-.15.53-.53l15.67-33.82c.3-.67.97-1.12,1.8-1.12h7.35c1.05,0,1.57.45,1.57,1.2,0,.3-.07.6-.22.97l-19.5,41.4c-.6,1.27-1.95,2.17-3.38,2.17h-7.95c-1.35,0-2.85-.9-3.45-2.17l-19.5-41.4Z"/>
        <path class="cls-1" d="M239.47,19.95c0-1.42.97-2.4,2.4-2.4h5.32c.75,0,1.65.38,2.17.9l28.5,28.95v-27.45c0-1.42.97-2.4,2.4-2.4h5.25c1.42,0,2.4.97,2.4,2.4v40.95c0,1.43-.97,2.4-2.4,2.4h-4.5c-.75,0-1.58-.38-2.1-.9l-29.47-30.07v28.57c0,1.43-.9,2.4-2.33,2.4h-5.25c-1.43,0-2.4-.97-2.4-2.4V19.95Z"/>
        <g>
          <path class="cls-1" d="M395.85,17.55c1.43,0,2.33.97,2.33,2.4v4.2c0,1.42-.9,2.4-2.33,2.4h-26.85c-.75,0-1.27.45-1.27,1.27v6.83c0,.75.52,1.27,1.27,1.27h24.82c1.05,0,1.65.45,1.65,1.28,0,.3,0,.6-.15.9l-2.25,5.4c-.23.67-.98,1.12-1.73,1.12h-22.35c-.75,0-1.27.52-1.27,1.27v7.2c0,.75.52,1.27,1.27,1.27h29.02c1.42,0,2.4.9,2.4,2.33v4.2c0,1.43-.98,2.4-2.4,2.4h-38.17c-1.43,0-2.4-.97-2.4-2.4V19.95c0-1.42.97-2.4,2.4-2.4h36Z"/>
          <path class="cls-1" d="M441.6,37.42c4.65,0,7.2-2.02,7.2-5.47s-2.55-5.47-7.05-5.47h-18.3c-.75,0-1.27.52-1.27,1.27v33.15c0,1.43-.9,2.4-2.33,2.4h-5.7c-1.43,0-2.4-.97-2.4-2.4V19.95c0-1.42.97-2.4,2.4-2.4h26.25c11.78,0,18.75,5.25,18.75,14.1,0,7.12-4.42,12-11.92,13.57l12.75,16.2c.3.45.45.75.45,1.05,0,.53-.45.83-1.35.83h-9.15c-.75,0-1.58-.38-2.03-.97l-12.15-15.9h-7.8c-1.05,0-1.65-.45-1.65-1.28,0-.22.08-.6.23-.9l2.4-5.62c.3-.75.97-1.2,1.8-1.2h10.88Z"/>
          <path class="cls-1" d="M479.7,17.55c1.43,0,2.33.97,2.33,2.4v40.95c0,1.43-.9,2.4-2.33,2.4h-5.55c-1.43,0-2.4-.97-2.4-2.4V19.95c0-1.42.97-2.4,2.4-2.4h5.55Z"/>
          <path class="cls-1" d="M535.95,17.55c1.42,0,2.33.97,2.33,2.4v4.2c0,1.42-.9,2.4-2.33,2.4h-26.85c-.75,0-1.28.45-1.28,1.27v6.83c0,.75.53,1.27,1.28,1.27h24.82c1.05,0,1.65.45,1.65,1.28,0,.3,0,.6-.15.9l-2.25,5.4c-.23.67-.98,1.12-1.73,1.12h-22.35c-.75,0-1.28.52-1.28,1.27v7.2c0,.75.53,1.27,1.28,1.27h29.02c1.42,0,2.4.9,2.4,2.33v4.2c0,1.43-.98,2.4-2.4,2.4h-38.17c-1.42,0-2.4-.97-2.4-2.4V19.95c0-1.42.97-2.4,2.4-2.4h36Z"/>
          <path class="cls-1" d="M568.57,9.83c.3-.67.98-1.12,1.73-1.12h5.77c1.05,0,1.58.45,1.58,1.2,0,.3-.08.6-.23.97l-23.32,51.3c-.3.67-1.05,1.12-1.8,1.12h-5.7c-1.05,0-1.65-.45-1.65-1.28,0-.22.07-.6.22-.9l23.4-51.3Z"/>
          <path class="cls-1" d="M617.02,7.58c19.8,0,33.45,11.55,33.45,28.42s-13.65,28.42-33.45,28.42-33.45-11.55-33.45-28.42,13.65-28.42,33.45-28.42ZM616.94,55.2c13.35,0,22.5-7.8,22.5-19.2s-9.15-19.2-22.5-19.2-22.35,7.8-22.35,19.2,9.07,19.2,22.35,19.2Z"/>
          <path class="cls-1" d="M671.32,17.55c1.42,0,2.4.97,2.4,2.4v33.07c0,.75.45,1.27,1.27,1.27h25.95c1.42,0,2.32.9,2.32,2.33v4.27c0,1.43-.9,2.4-2.32,2.4h-35.17c-1.42,0-2.4-.97-2.4-2.4V19.95c0-1.42.97-2.4,2.4-2.4h5.55Z"/>
          <path class="cls-1" d="M749.99,17.55c1.43,0,2.4.97,2.4,2.4v4.2c0,1.42-.97,2.4-2.4,2.4h-26.77c-.83,0-1.28.45-1.28,1.27v6.83c0,.75.45,1.27,1.28,1.27h24.82c1.05,0,1.65.45,1.65,1.28,0,.22-.08.52-.23.9l-2.17,5.4c-.3.67-.97,1.12-1.72,1.12h-22.35c-.83,0-1.28.52-1.28,1.27v7.2c0,.75.45,1.27,1.28,1.27h28.95c1.42,0,2.4.9,2.4,2.33v4.2c0,1.43-.98,2.4-2.4,2.4h-38.17c-1.43,0-2.4-.97-2.4-2.4V19.95c0-1.42.97-2.4,2.4-2.4h36ZM731.02,1.2c.23-.67.9-1.2,1.65-1.2h9.07c.9,0,1.43.38,1.43.9,0,.3-.15.67-.45,1.05l-6.45,8.62c-.45.6-1.27.97-2.02.97h-4.8c-1.12,0-1.72-.52-1.72-1.35,0-.23.07-.6.22-.9l3.07-8.1Z"/>
          <path class="cls-1" d="M791.84,16.42c17.62,0,29.55,9.67,29.55,24s-11.92,24-29.55,24-29.47-9.6-29.47-24,11.85-24,29.47-24ZM791.84,55.65c11.33,0,19.05-6.22,19.05-15.22s-7.72-15.22-19.05-15.22-18.97,6.15-18.97,15.22,7.72,15.22,18.97,15.22Z"/>
          <path class="cls-1" d="M875.46,27.15c-.38.9-1.12,1.42-1.95,1.42-.3,0-.68-.15-1.05-.3-4.5-2.1-9.37-3.15-14.17-3.15-11.47,0-18.6,5.92-18.6,14.77,0,9.38,8.1,15.52,19.88,15.52,5.85,0,11.55-1.5,16.27-4.12.38-.22.75-.3,1.05-.3.6,0,.97.45.97,1.42v5.48c0,5.02-12.3,6.52-18.67,6.52-17.92,0-30-9.82-30-24.37s11.33-23.7,29.25-23.7c4.5,0,19.12,1.42,19.12,5.33,0,.3-.07.6-.22.97l-1.88,4.5Z"/>
          <path class="cls-1" d="M961.49,17.55c1.42,0,2.33.97,2.33,2.4v40.95c0,1.43-.9,2.4-2.33,2.4h-5.55c-1.43,0-2.4-.97-2.4-2.4V19.95c0-1.42.97-2.4,2.4-2.4h5.55Z"/>
          <path class="cls-1" d="M989.39,17.55c1.35,0,2.92.83,3.67,2.02l15.3,24.52c.15.38.38.53.6.53s.53-.15.75-.53l15.15-24.52c.75-1.2,2.17-2.02,3.6-2.02h7.72c1.42,0,2.32.97,2.32,2.4v40.95c0,1.43-.9,2.4-2.32,2.4h-5.25c-1.5,0-2.4-.97-2.4-2.4v-29.1l-15.38,24.45c-.67,1.05-1.87,1.72-3.07,1.72h-2.47c-1.2,0-2.4-.67-3.08-1.72l-15.3-24.45v29.1c0,1.43-.97,2.4-2.4,2.4h-5.1c-1.42,0-2.4-.97-2.4-2.4V19.95c0-1.42.97-2.4,2.4-2.4h7.65Z"/>
          <path class="cls-1" d="M1061.99,17.55c1.42,0,2.32.97,2.32,2.4v40.95c0,1.43-.9,2.4-2.32,2.4h-5.55c-1.42,0-2.4-.97-2.4-2.4V19.95c0-1.42.97-2.4,2.4-2.4h5.55Z"/>
          <path class="cls-1" d="M1118.24,17.55c1.43,0,2.33.97,2.33,2.4v4.2c0,1.42-.9,2.4-2.33,2.4h-26.85c-.75,0-1.27.45-1.27,1.27v6.83c0,.75.52,1.27,1.27,1.27h24.82c1.05,0,1.65.45,1.65,1.28,0,.3,0,.6-.15.9l-2.25,5.4c-.23.67-.98,1.12-1.73,1.12h-22.35c-.75,0-1.27.52-1.27,1.27v7.2c0,.75.52,1.27,1.27,1.27h29.02c1.42,0,2.4.9,2.4,2.33v4.2c0,1.43-.98,2.4-2.4,2.4h-38.17c-1.43,0-2.4-.97-2.4-2.4V19.95c0-1.42.97-2.4,2.4-2.4h36Z"/>
        </g>
        <path class="cls-1" d="M298.47,19.35c0-1.42.97-2.4,2.4-2.4h5.32c.75,0,1.65.38,2.17.9l28.5,28.95v-27.45c0-1.42.97-2.4,2.4-2.4h5.25c1.42,0,2.4.97,2.4,2.4v40.95c0,1.43-.97,2.4-2.4,2.4h-4.5c-.75,0-1.58-.38-2.1-.9l-29.47-30.07v28.57c0,1.43-.9,2.4-2.33,2.4h-5.25c-1.43,0-2.4-.97-2.4-2.4V19.35Z"/>
      </g>
    </g>
  </g>
</svg>