<?xml version="1.0" encoding="UTF-8"?>
<svg id="_Слой_2" data-name="Слой 2" xmlns="http://www.w3.org/2000/svg" viewBox="0 0 1310.16 56.92">
  <defs>
    <style>
      .cls-1 {
        fill: #fff;
        stroke-width: 0px;
      }
    </style>
  </defs>
  <g id="Calque_1" data-name="Calque 1">
    <g>
      <path class="cls-1" d="M52.87,11.85c-.38.9-1.12,1.35-1.88,1.35-.38,0-.75-.07-1.2-.3-5.25-2.47-10.95-3.75-16.57-3.75-13.72,0-22.27,7.5-22.27,18.67,0,11.77,9.6,19.65,23.7,19.65,6.67,0,13.27-1.8,18.67-4.8.38-.23.75-.38,1.05-.38.6,0,.97.52.97,1.5v6c0,5.33-14.1,7.12-21.15,7.12C13.88,56.92,0,45.3,0,28.05S13.12,0,33.3,0c6.67,0,13.35,1.2,20.25,3.83.9.38,1.5,1.2,1.5,2.1,0,.38-.08.67-.22,1.05l-1.95,4.88Z"/>
      <path class="cls-1" d="M93.45,8.92c17.62,0,29.55,9.67,29.55,24s-11.92,24-29.55,24-29.47-9.6-29.47-24,11.85-24,29.47-24ZM93.45,48.15c11.32,0,19.05-6.22,19.05-15.22s-7.72-15.22-19.05-15.22-18.97,6.15-18.97,15.22,7.72,15.22,18.97,15.22Z"/>
      <path class="cls-1" d="M145.12,10.05c1.35,0,2.92.83,3.67,2.02l15.3,24.52c.15.38.38.53.6.53s.52-.15.75-.53l15.15-24.52c.75-1.2,2.17-2.02,3.6-2.02h7.72c1.42,0,2.33.97,2.33,2.4v40.95c0,1.43-.9,2.4-2.33,2.4h-5.25c-1.5,0-2.4-.97-2.4-2.4v-29.1l-15.38,24.45c-.67,1.05-1.87,1.72-3.07,1.72h-2.48c-1.2,0-2.4-.67-3.07-1.72l-15.3-24.45v29.1c0,1.43-.97,2.4-2.4,2.4h-5.1c-1.43,0-2.4-.97-2.4-2.4V12.45c0-1.42.97-2.4,2.4-2.4h7.65Z"/>
      <path class="cls-1" d="M240.3,10.05c10.72,0,16.95,4.27,16.95,11.55,0,4.35-2.17,8.02-5.7,9.6v.38c4.58,1.88,7.42,6.3,7.42,11.62,0,8.02-6.38,12.6-17.85,12.6h-28.95c-1.43,0-2.4-.97-2.4-2.4V12.45c0-1.42.97-2.4,2.4-2.4h28.12ZM220.05,45.6c0,.75.53,1.27,1.28,1.27h20.02c4.65,0,7.35-1.95,7.35-5.17s-2.78-5.1-7.42-5.1h-15.45c-1.05,0-1.65-.45-1.65-1.28,0-.3.08-.6.22-.97l2.18-5.32c.3-.68.97-1.12,1.72-1.12h12.97c3.67,0,5.92-1.73,5.92-4.42s-2.25-4.42-5.92-4.42h-19.95c-.75,0-1.28.45-1.28,1.27v25.27Z"/>
      <path class="cls-1" d="M277.2,10.05c1.42,0,2.4.97,2.4,2.4v23.55c0,7.5,5.4,12.07,14.17,12.07s14.25-4.65,14.25-12.07V12.45c0-1.42.97-2.4,2.4-2.4h5.47c1.42,0,2.33.97,2.33,2.4v24.82c0,12.3-9.22,19.65-24.45,19.65s-24.52-7.35-24.52-19.65V12.45c0-1.42.97-2.4,2.4-2.4h5.55Z"/>
      <path class="cls-1" d="M372.22,19.5c-.38.98-1.12,1.5-2.1,1.5-.3,0-.6-.08-.98-.22-5.85-2.33-10.95-3.3-16.95-3.3-7.87,0-12,1.65-12,4.88,0,2.4,2.4,3.82,7.35,4.42l13.72,1.65c10.12,1.2,15.52,6.08,15.52,14.02,0,9.52-7.65,14.47-22.5,14.47-7.88,0-15.83-1.35-23.25-4.12-.98-.38-1.5-1.2-1.5-2.1,0-.3.07-.6.22-.98l1.8-4.5c.38-.9,1.12-1.43,1.95-1.43.38,0,.75.08,1.12.23,6.6,2.77,13.27,4.12,20.02,4.12,7.87,0,11.92-1.8,11.92-5.33,0-2.55-2.32-3.97-7.72-4.65l-13.27-1.58c-10.2-1.2-15.6-6-15.6-13.42,0-9.22,8.1-14.25,22.95-14.25,6.67,0,12.38.97,19.57,3.52.98.38,1.5,1.12,1.5,2.03,0,.3,0,.67-.15.97l-1.65,4.05Z"/>
      <path class="cls-1" d="M426.52,10.05c1.42,0,2.33.97,2.33,2.4v4.35c0,1.42-.9,2.4-2.33,2.4h-14.85c-.75,0-1.27.53-1.27,1.28v32.92c0,1.43-.9,2.4-2.4,2.4h-5.55c-1.42,0-2.32-.97-2.32-2.4V20.47c0-.75-.53-1.28-1.28-1.28h-14.85c-1.42,0-2.4-.97-2.4-2.4v-4.35c0-1.42.97-2.4,2.4-2.4h42.52Z"/>
      <path class="cls-1" d="M445.12,10.05c1.42,0,2.32.97,2.32,2.4v40.95c0,1.43-.9,2.4-2.32,2.4h-5.55c-1.43,0-2.4-.97-2.4-2.4V12.45c0-1.42.97-2.4,2.4-2.4h5.55Z"/>
      <path class="cls-1" d="M493.49,10.05c10.72,0,16.95,4.27,16.95,11.55,0,4.35-2.17,8.02-5.7,9.6v.38c4.58,1.88,7.42,6.3,7.42,11.62,0,8.02-6.38,12.6-17.85,12.6h-28.95c-1.43,0-2.4-.97-2.4-2.4V12.45c0-1.42.97-2.4,2.4-2.4h28.12ZM473.24,45.6c0,.75.53,1.27,1.28,1.27h20.02c4.65,0,7.35-1.95,7.35-5.17s-2.78-5.1-7.42-5.1h-15.45c-1.05,0-1.65-.45-1.65-1.28,0-.3.08-.6.22-.97l2.18-5.32c.3-.68.97-1.12,1.72-1.12h12.97c3.67,0,5.92-1.73,5.92-4.42s-2.25-4.42-5.92-4.42h-19.95c-.75,0-1.28.45-1.28,1.27v25.27Z"/>
      <path class="cls-1" d="M531.52,10.05c1.42,0,2.4.97,2.4,2.4v33.07c0,.75.45,1.27,1.27,1.27h25.95c1.42,0,2.32.9,2.32,2.33v4.27c0,1.43-.9,2.4-2.32,2.4h-35.17c-1.42,0-2.4-.97-2.4-2.4V12.45c0-1.42.97-2.4,2.4-2.4h5.55Z"/>
      <path class="cls-1" d="M610.19,10.05c1.42,0,2.33.97,2.33,2.4v4.2c0,1.42-.9,2.4-2.33,2.4h-26.85c-.75,0-1.28.45-1.28,1.27v6.83c0,.75.53,1.27,1.28,1.27h24.82c1.05,0,1.65.45,1.65,1.28,0,.3,0,.6-.15.9l-2.25,5.4c-.23.67-.98,1.12-1.73,1.12h-22.35c-.75,0-1.28.52-1.28,1.27v7.2c0,.75.53,1.27,1.28,1.27h29.02c1.42,0,2.4.9,2.4,2.33v4.2c0,1.43-.98,2.4-2.4,2.4h-38.17c-1.43,0-2.4-.97-2.4-2.4V12.45c0-1.42.97-2.4,2.4-2.4h36Z"/>
      <path class="cls-1" d="M689.92,10.05c1.42,0,2.33.97,2.33,2.4v4.2c0,1.42-.9,2.4-2.33,2.4h-26.85c-.75,0-1.28.45-1.28,1.27v6.83c0,.75.53,1.27,1.28,1.27h24.82c1.05,0,1.65.45,1.65,1.28,0,.3,0,.6-.15.9l-2.25,5.4c-.23.67-.98,1.12-1.73,1.12h-22.35c-.75,0-1.28.52-1.28,1.27v7.2c0,.75.53,1.27,1.28,1.27h29.02c1.42,0,2.4.9,2.4,2.33v4.2c0,1.43-.98,2.4-2.4,2.4h-38.17c-1.43,0-2.4-.97-2.4-2.4V12.45c0-1.42.97-2.4,2.4-2.4h36Z"/>
      <path class="cls-1" d="M705.82,12.45c0-1.42.97-2.4,2.4-2.4h5.32c.75,0,1.65.38,2.17.9l28.5,28.95V12.45c0-1.42.97-2.4,2.4-2.4h5.25c1.42,0,2.4.97,2.4,2.4v40.95c0,1.43-.98,2.4-2.4,2.4h-4.5c-.75,0-1.58-.38-2.1-.9l-29.47-30.07v28.57c0,1.43-.9,2.4-2.33,2.4h-5.25c-1.43,0-2.4-.97-2.4-2.4V12.45Z"/>
      <path class="cls-1" d="M845.39,11.85c-.38.9-1.12,1.35-1.88,1.35-.38,0-.75-.07-1.2-.3-5.25-2.47-10.95-3.75-16.57-3.75-13.72,0-22.27,7.5-22.27,18.67,0,11.77,9.6,19.65,23.7,19.65,6.67,0,13.27-1.8,18.67-4.8.38-.23.75-.38,1.05-.38.6,0,.97.52.97,1.5v6c0,5.33-14.1,7.12-21.15,7.12-20.32,0-34.2-11.62-34.2-28.87s13.12-28.05,33.3-28.05c6.67,0,13.35,1.2,20.25,3.83.9.38,1.5,1.2,1.5,2.1,0,.38-.08.67-.22,1.05l-1.95,4.88Z"/>
      <path class="cls-1" d="M867.96,10.05c1.42,0,2.33.97,2.33,2.4v40.95c0,1.43-.9,2.4-2.33,2.4h-5.55c-1.42,0-2.4-.97-2.4-2.4V12.45c0-1.42.97-2.4,2.4-2.4h5.55Z"/>
      <path class="cls-1" d="M895.86,10.05c1.35,0,2.92.83,3.67,2.02l15.3,24.52c.15.38.38.53.6.53s.53-.15.75-.53l15.15-24.52c.75-1.2,2.17-2.02,3.6-2.02h7.73c1.42,0,2.32.97,2.32,2.4v40.95c0,1.43-.9,2.4-2.32,2.4h-5.25c-1.5,0-2.4-.97-2.4-2.4v-29.1l-15.37,24.45c-.67,1.05-1.88,1.72-3.08,1.72h-2.47c-1.2,0-2.4-.67-3.08-1.72l-15.3-24.45v29.1c0,1.43-.98,2.4-2.4,2.4h-5.1c-1.42,0-2.4-.97-2.4-2.4V12.45c0-1.42.97-2.4,2.4-2.4h7.65Z"/>
      <path class="cls-1" d="M998.91,10.05c1.42,0,2.32.97,2.32,2.4v4.2c0,1.42-.9,2.4-2.32,2.4h-26.85c-.75,0-1.27.45-1.27,1.27v6.83c0,.75.52,1.27,1.27,1.27h24.82c1.05,0,1.65.45,1.65,1.28,0,.3,0,.6-.15.9l-2.25,5.4c-.22.67-.97,1.12-1.72,1.12h-22.35c-.75,0-1.27.52-1.27,1.27v7.2c0,.75.52,1.27,1.27,1.27h29.02c1.42,0,2.4.9,2.4,2.33v4.2c0,1.43-.97,2.4-2.4,2.4h-38.17c-1.42,0-2.4-.97-2.4-2.4V12.45c0-1.42.97-2.4,2.4-2.4h36Z"/>
      <path class="cls-1" d="M1014.81,12.45c0-1.42.97-2.4,2.4-2.4h5.33c.75,0,1.65.38,2.17.9l28.5,28.95V12.45c0-1.42.97-2.4,2.4-2.4h5.25c1.42,0,2.4.97,2.4,2.4v40.95c0,1.43-.97,2.4-2.4,2.4h-4.5c-.75,0-1.58-.38-2.1-.9l-29.47-30.07v28.57c0,1.43-.9,2.4-2.33,2.4h-5.25c-1.42,0-2.4-.97-2.4-2.4V12.45Z"/>
      <path class="cls-1" d="M1116.44,10.05c1.42,0,2.33.97,2.33,2.4v4.35c0,1.42-.9,2.4-2.33,2.4h-14.85c-.75,0-1.27.53-1.27,1.28v32.92c0,1.43-.9,2.4-2.4,2.4h-5.55c-1.42,0-2.32-.97-2.32-2.4V20.47c0-.75-.53-1.28-1.28-1.28h-14.85c-1.42,0-2.4-.97-2.4-2.4v-4.35c0-1.42.97-2.4,2.4-2.4h42.52Z"/>
      <path class="cls-1" d="M1165.48,10.05c1.42,0,2.33.97,2.33,2.4v4.2c0,1.42-.9,2.4-2.33,2.4h-26.85c-.75,0-1.28.45-1.28,1.27v6.83c0,.75.53,1.27,1.28,1.27h24.82c1.05,0,1.65.45,1.65,1.28,0,.3,0,.6-.15.9l-2.25,5.4c-.23.67-.98,1.12-1.73,1.12h-22.35c-.75,0-1.28.52-1.28,1.27v7.2c0,.75.53,1.27,1.28,1.27h29.02c1.42,0,2.4.9,2.4,2.33v4.2c0,1.43-.98,2.4-2.4,2.4h-38.17c-1.43,0-2.4-.97-2.4-2.4V12.45c0-1.42.97-2.4,2.4-2.4h36Z"/>
      <path class="cls-1" d="M1211.23,29.92c4.65,0,7.2-2.02,7.2-5.47s-2.55-5.47-7.05-5.47h-18.3c-.75,0-1.27.52-1.27,1.27v33.15c0,1.43-.9,2.4-2.33,2.4h-5.7c-1.43,0-2.4-.97-2.4-2.4V12.45c0-1.42.97-2.4,2.4-2.4h26.25c11.78,0,18.75,5.25,18.75,14.1,0,7.12-4.42,12-11.92,13.57l12.75,16.2c.3.45.45.75.45,1.05,0,.53-.45.83-1.35.83h-9.15c-.75,0-1.58-.38-2.03-.97l-12.15-15.9h-7.8c-1.05,0-1.65-.45-1.65-1.28,0-.22.07-.6.22-.9l2.4-5.62c.3-.75.97-1.2,1.8-1.2h10.87Z"/>
      <path class="cls-1" d="M1249.33,10.05c1.42,0,2.32.97,2.32,2.4v40.95c0,1.43-.9,2.4-2.32,2.4h-5.55c-1.43,0-2.4-.97-2.4-2.4V12.45c0-1.42.97-2.4,2.4-2.4h5.55Z"/>
      <path class="cls-1" d="M1305.58,10.05c1.42,0,2.33.97,2.33,2.4v4.2c0,1.42-.9,2.4-2.33,2.4h-26.85c-.75,0-1.28.45-1.28,1.27v6.83c0,.75.53,1.27,1.28,1.27h24.82c1.05,0,1.65.45,1.65,1.28,0,.3,0,.6-.15.9l-2.25,5.4c-.23.67-.98,1.12-1.73,1.12h-22.35c-.75,0-1.28.52-1.28,1.27v7.2c0,.75.53,1.27,1.28,1.27h29.02c1.42,0,2.4.9,2.4,2.33v4.2c0,1.43-.98,2.4-2.4,2.4h-38.17c-1.43,0-2.4-.97-2.4-2.4V12.45c0-1.42.97-2.4,2.4-2.4h36Z"/>
    </g>
  </g>
</svg>