<?xml version="1.0" encoding="UTF-8"?>
<svg id="_Слой_2" data-name="Слой 2" xmlns="http://www.w3.org/2000/svg" viewBox="0 0 891.59 55.72">
  <defs>
    <style>
      .cls-1 {
        fill: #fff;
        stroke-width: 0px;
      }
    </style>
  </defs>
  <g id="Calque_1" data-name="Calque 1">
    <g>
      <path class="cls-1" d="M44.55,0c1.42,0,2.4.97,2.4,2.4v4.5c0,1.42-.98,2.4-2.4,2.4H12c-.75,0-1.27.52-1.27,1.27v12.52c0,.75.52,1.2,1.27,1.2h30.3c1.05,0,1.65.53,1.65,1.35,0,.3,0,.6-.15.9l-2.4,5.92c-.3.67-.98,1.12-1.73,1.12H12c-.75,0-1.27.52-1.27,1.27v17.32c0,1.43-.98,2.4-2.4,2.4H2.4c-1.42,0-2.4-.97-2.4-2.4V2.4C0,.97.98,0,2.4,0h42.15Z"/>
      <path class="cls-1" d="M96.75,8.85c1.42,0,2.32.97,2.32,2.4v4.2c0,1.42-.9,2.4-2.32,2.4h-26.85c-.75,0-1.27.45-1.27,1.27v6.83c0,.75.52,1.27,1.27,1.27h24.82c1.05,0,1.65.45,1.65,1.28,0,.3,0,.6-.15.9l-2.25,5.4c-.23.67-.98,1.12-1.73,1.12h-22.35c-.75,0-1.27.52-1.27,1.27v7.2c0,.75.52,1.27,1.27,1.27h29.02c1.42,0,2.4.9,2.4,2.33v4.2c0,1.43-.98,2.4-2.4,2.4h-38.17c-1.43,0-2.4-.97-2.4-2.4V11.25c0-1.42.97-2.4,2.4-2.4h36Z"/>
      <path class="cls-1" d="M151.05,8.85c1.42,0,2.32.97,2.32,2.4v4.2c0,1.42-.9,2.4-2.32,2.4h-26.85c-.75,0-1.27.45-1.27,1.27v6.83c0,.75.52,1.27,1.27,1.27h24.82c1.05,0,1.65.45,1.65,1.28,0,.3,0,.6-.15.9l-2.25,5.4c-.23.67-.98,1.12-1.73,1.12h-22.35c-.75,0-1.27.52-1.27,1.27v7.2c0,.75.52,1.27,1.27,1.27h29.02c1.42,0,2.4.9,2.4,2.33v4.2c0,1.43-.98,2.4-2.4,2.4h-38.17c-1.43,0-2.4-.97-2.4-2.4V11.25c0-1.42.97-2.4,2.4-2.4h36Z"/>
      <path class="cls-1" d="M194.1,8.85c14.25,0,24.52,9.6,24.52,22.87s-10.2,22.87-24.45,22.87h-24.82c-1.43,0-2.4-.97-2.4-2.4V11.25c0-1.42.97-2.4,2.4-2.4h24.75ZM177.3,44.47c0,.75.52,1.28,1.27,1.28h14.55c8.77,0,15-5.85,15-14.02s-6.3-13.95-15-13.95h-14.55c-.75,0-1.27.52-1.27,1.27v25.42Z"/>
      <path class="cls-1" d="M247.42,1.12c.3-.67.98-1.12,1.73-1.12h5.77c1.05,0,1.58.45,1.58,1.2,0,.3-.08.6-.23.97l-23.32,51.3c-.3.67-1.05,1.12-1.8,1.12h-5.7c-1.05,0-1.65-.45-1.65-1.28,0-.22.08-.6.23-.9L247.42,1.12Z"/>
      <path class="cls-1" d="M283.27,2.17c.6-1.35,2.02-2.17,3.45-2.17h7.95c1.42,0,2.77.83,3.45,2.17l24.37,50.25c.15.38.3.75.3,1.05,0,.75-.6,1.12-1.65,1.12h-8.02c-.75,0-1.43-.45-1.8-1.12l-4.72-9.82c-.38-.68-1.05-1.12-1.8-1.12h-28.57c-.75,0-1.5.45-1.8,1.12l-4.8,9.82c-.3.67-.97,1.12-1.8,1.12h-7.65c-1.05,0-1.57-.45-1.57-1.2,0-.22.08-.6.23-.97l24.45-50.25ZM300.97,33.52c.53,0,.83-.22.83-.67,0-.08,0-.3-.08-.45l-10.65-22.42c-.23-.3-.38-.53-.6-.53-.15,0-.38.23-.52.53l-10.65,22.42c-.08.15-.15.38-.15.45,0,.45.3.67.9.67h20.92Z"/>
      <path class="cls-1" d="M356.77,7.72c17.62,0,29.55,9.67,29.55,24,0,6.52-2.4,12-6.67,16.12l5.32,4.12c.9.67,1.27,1.28,1.27,1.72,0,.6-.75.9-2.17.9h-6.22c-.83,0-1.8-.38-2.48-.83l-2.02-1.58c-4.57,2.33-10.2,3.53-16.57,3.53-17.62,0-29.47-9.6-29.47-24s11.85-24,29.47-24ZM365.77,38.02c.75,0,1.65.3,2.25.75l3.67,2.92c2.62-2.62,4.12-6,4.12-9.97,0-9.07-7.72-15.22-19.05-15.22s-18.97,6.15-18.97,15.22,7.72,15.22,18.97,15.22c3,0,5.7-.45,8.17-1.28l-6.6-5.1c-.82-.6-1.2-1.12-1.2-1.58,0-.52.67-.9,2.1-.9l6.52-.08Z"/>
      <path class="cls-1" d="M404.85,8.85c1.42,0,2.4.97,2.4,2.4v23.55c0,7.5,5.4,12.07,14.17,12.07s14.25-4.65,14.25-12.07V11.25c0-1.42.97-2.4,2.4-2.4h5.47c1.42,0,2.32.97,2.32,2.4v24.82c0,12.3-9.22,19.65-24.45,19.65s-24.52-7.35-24.52-19.65V11.25c0-1.42.97-2.4,2.4-2.4h5.55Z"/>
      <path class="cls-1" d="M473.55,10.95c.6-1.27,2.02-2.1,3.45-2.1h7.5c1.42,0,2.77.83,3.45,2.1l20.85,41.55c.23.38.3.75.3.97,0,.75-.6,1.12-1.57,1.12h-7.57c-.75,0-1.5-.45-1.88-1.12l-3.52-6.97c-.3-.67-1.05-1.12-1.8-1.12h-24.37c-.75,0-1.5.45-1.8,1.12l-3.52,6.97c-.38.67-1.12,1.12-1.88,1.12h-7.2c-1.05,0-1.58-.38-1.58-1.12,0-.22.08-.6.3-.97l20.85-41.55ZM489,36.82c.52,0,.83-.22.83-.67,0-.08,0-.3-.08-.45l-8.62-17.32c-.15-.3-.38-.52-.52-.52-.23,0-.45.22-.6.52l-8.55,17.32c-.07.23-.15.38-.15.53,0,.38.3.6.83.6h16.87Z"/>
      <path class="cls-1" d="M559.65,18.45c-.38.9-1.12,1.42-1.95,1.42-.3,0-.67-.15-1.05-.3-4.5-2.1-9.37-3.15-14.17-3.15-11.47,0-18.6,5.92-18.6,14.77,0,9.38,8.1,15.52,19.87,15.52,5.85,0,11.55-1.5,16.27-4.12.38-.22.75-.3,1.05-.3.6,0,.98.45.98,1.42v5.48c0,5.02-12.3,6.52-18.67,6.52-17.92,0-30-9.82-30-24.37s11.32-23.7,29.25-23.7c4.5,0,19.12,1.42,19.12,5.33,0,.3-.07.6-.23.97l-1.87,4.5Z"/>
      <path class="cls-1" d="M580.27,8.85c1.42,0,2.4.97,2.4,2.4v23.55c0,7.5,5.4,12.07,14.17,12.07s14.25-4.65,14.25-12.07V11.25c0-1.42.97-2.4,2.4-2.4h5.47c1.42,0,2.32.97,2.32,2.4v24.82c0,12.3-9.22,19.65-24.45,19.65s-24.52-7.35-24.52-19.65V11.25c0-1.42.97-2.4,2.4-2.4h5.55Z"/>
      <path class="cls-1" d="M643.72,8.85c1.42,0,2.4.97,2.4,2.4v33.07c0,.75.45,1.27,1.27,1.27h25.95c1.42,0,2.32.9,2.32,2.33v4.27c0,1.43-.9,2.4-2.32,2.4h-35.17c-1.43,0-2.4-.97-2.4-2.4V11.25c0-1.42.97-2.4,2.4-2.4h5.55Z"/>
      <path class="cls-1" d="M715.65,8.85c1.42,0,2.32.97,2.32,2.4v4.35c0,1.42-.9,2.4-2.32,2.4h-14.85c-.75,0-1.27.53-1.27,1.28v32.92c0,1.43-.9,2.4-2.4,2.4h-5.55c-1.42,0-2.32-.97-2.32-2.4V19.27c0-.75-.53-1.28-1.27-1.28h-14.85c-1.42,0-2.4-.97-2.4-2.4v-4.35c0-1.42.98-2.4,2.4-2.4h42.52Z"/>
      <path class="cls-1" d="M733.12,8.85c1.42,0,2.4.97,2.4,2.4v23.55c0,7.5,5.4,12.07,14.17,12.07s14.25-4.65,14.25-12.07V11.25c0-1.42.97-2.4,2.4-2.4h5.47c1.42,0,2.32.97,2.32,2.4v24.82c0,12.3-9.22,19.65-24.45,19.65s-24.52-7.35-24.52-19.65V11.25c0-1.42.97-2.4,2.4-2.4h5.55Z"/>
      <path class="cls-1" d="M818.47,28.72c4.65,0,7.2-2.02,7.2-5.47s-2.55-5.47-7.05-5.47h-18.3c-.75,0-1.27.52-1.27,1.27v33.15c0,1.43-.9,2.4-2.32,2.4h-5.7c-1.43,0-2.4-.97-2.4-2.4V11.25c0-1.42.97-2.4,2.4-2.4h26.25c11.77,0,18.75,5.25,18.75,14.1,0,7.12-4.42,12-11.92,13.57l12.75,16.2c.3.45.45.75.45,1.05,0,.53-.45.83-1.35.83h-9.15c-.75,0-1.58-.38-2.02-.97l-12.15-15.9h-7.8c-1.05,0-1.65-.45-1.65-1.28,0-.22.07-.6.23-.9l2.4-5.62c.3-.75.97-1.2,1.8-1.2h10.87Z"/>
      <path class="cls-1" d="M887.02,8.85c1.42,0,2.32.97,2.32,2.4v4.2c0,1.42-.9,2.4-2.32,2.4h-26.85c-.75,0-1.27.45-1.27,1.27v6.83c0,.75.52,1.27,1.27,1.27h24.82c1.05,0,1.65.45,1.65,1.28,0,.3,0,.6-.15.9l-2.25,5.4c-.23.67-.98,1.12-1.73,1.12h-22.35c-.75,0-1.27.52-1.27,1.27v7.2c0,.75.52,1.27,1.27,1.27h29.02c1.42,0,2.4.9,2.4,2.33v4.2c0,1.43-.98,2.4-2.4,2.4h-38.17c-1.43,0-2.4-.97-2.4-2.4V11.25c0-1.42.97-2.4,2.4-2.4h36Z"/>
    </g>
  </g>
</svg>