<?xml version="1.0" encoding="UTF-8"?>
<svg id="_Слой_2" data-name="Слой 2" xmlns="http://www.w3.org/2000/svg" viewBox="0 0 516.14 56.92">
  <defs>
    <style>
      .cls-1 {
        fill: #fff;
        stroke-width: 0px;
      }
    </style>
  </defs>
  <g id="Calque_1" data-name="Calque 1">
    <g>
      <path class="cls-1" d="M52.87,11.85c-.38.9-1.12,1.35-1.88,1.35-.38,0-.75-.07-1.2-.3-5.25-2.47-10.95-3.75-16.57-3.75-13.72,0-22.27,7.5-22.27,18.68,0,11.77,9.6,19.65,23.7,19.65,6.67,0,13.27-1.8,18.67-4.8.38-.23.75-.38,1.05-.38.6,0,.97.52.97,1.5v6c0,5.33-14.1,7.12-21.15,7.12C13.87,56.92,0,45.3,0,28.05S13.12,0,33.3,0c6.67,0,13.35,1.2,20.25,3.82.9.38,1.5,1.2,1.5,2.1,0,.38-.08.68-.23,1.05l-1.95,4.88Z"/>
      <path class="cls-1" d="M93.45,8.92c17.62,0,29.55,9.68,29.55,24s-11.92,24-29.55,24-29.47-9.6-29.47-24,11.85-24,29.47-24ZM93.45,48.15c11.32,0,19.05-6.22,19.05-15.22s-7.72-15.22-19.05-15.22-18.97,6.15-18.97,15.22,7.72,15.22,18.97,15.22Z"/>
      <path class="cls-1" d="M135.07,12.45c0-1.43.97-2.4,2.4-2.4h5.32c.75,0,1.65.38,2.17.9l28.5,28.95V12.45c0-1.43.97-2.4,2.4-2.4h5.25c1.42,0,2.4.97,2.4,2.4v40.95c0,1.43-.98,2.4-2.4,2.4h-4.5c-.75,0-1.58-.38-2.1-.9l-29.47-30.07v28.57c0,1.43-.9,2.4-2.33,2.4h-5.25c-1.43,0-2.4-.97-2.4-2.4V12.45Z"/>
      <path class="cls-1" d="M238.05,10.05c1.43,0,2.4.97,2.4,2.4v4.2c0,1.43-.97,2.4-2.4,2.4h-27.45c-.75,0-1.27.45-1.27,1.28v8.4c0,.75.52,1.28,1.27,1.28h25.5c1.05,0,1.65.53,1.65,1.35,0,.23,0,.53-.15.83l-2.25,5.55c-.3.75-.98,1.2-1.73,1.2h-23.02c-.75,0-1.27.45-1.27,1.27v13.2c0,1.43-.98,2.4-2.4,2.4h-5.55c-1.42,0-2.4-.97-2.4-2.4V12.45c0-1.43.98-2.4,2.4-2.4h36.67Z"/>
      <path class="cls-1" d="M259.05,10.05c1.42,0,2.32.97,2.32,2.4v40.95c0,1.43-.9,2.4-2.32,2.4h-5.55c-1.43,0-2.4-.97-2.4-2.4V12.45c0-1.43.97-2.4,2.4-2.4h5.55Z"/>
      <path class="cls-1" d="M316.42,19.5c-.38.98-1.12,1.5-2.1,1.5-.3,0-.6-.07-.98-.22-5.85-2.32-10.95-3.3-16.95-3.3-7.87,0-12,1.65-12,4.88,0,2.4,2.4,3.82,7.35,4.42l13.72,1.65c10.12,1.2,15.52,6.07,15.52,14.02,0,9.53-7.65,14.47-22.5,14.47-7.88,0-15.82-1.35-23.25-4.12-.98-.38-1.5-1.2-1.5-2.1,0-.3.07-.6.22-.97l1.8-4.5c.38-.9,1.12-1.43,1.95-1.43.38,0,.75.08,1.12.23,6.6,2.77,13.27,4.12,20.02,4.12,7.87,0,11.92-1.8,11.92-5.33,0-2.55-2.32-3.97-7.72-4.65l-13.27-1.58c-10.2-1.2-15.6-6-15.6-13.42,0-9.22,8.1-14.25,22.95-14.25,6.67,0,12.37.97,19.57,3.53.98.38,1.5,1.12,1.5,2.03,0,.3,0,.67-.15.97l-1.65,4.05Z"/>
      <path class="cls-1" d="M371.47,10.05c1.42,0,2.32.97,2.32,2.4v4.2c0,1.43-.9,2.4-2.32,2.4h-26.85c-.75,0-1.27.45-1.27,1.28v6.82c0,.75.52,1.28,1.27,1.28h24.82c1.05,0,1.65.45,1.65,1.28,0,.3,0,.6-.15.9l-2.25,5.4c-.23.68-.98,1.12-1.73,1.12h-22.35c-.75,0-1.27.53-1.27,1.28v7.2c0,.75.52,1.28,1.27,1.28h29.02c1.42,0,2.4.9,2.4,2.32v4.2c0,1.43-.98,2.4-2.4,2.4h-38.17c-1.43,0-2.4-.97-2.4-2.4V12.45c0-1.43.97-2.4,2.4-2.4h36Z"/>
      <path class="cls-1" d="M417.22,29.92c4.65,0,7.2-2.03,7.2-5.47s-2.55-5.47-7.05-5.47h-18.3c-.75,0-1.27.52-1.27,1.27v33.15c0,1.43-.9,2.4-2.32,2.4h-5.7c-1.43,0-2.4-.97-2.4-2.4V12.45c0-1.43.97-2.4,2.4-2.4h26.25c11.77,0,18.75,5.25,18.75,14.1,0,7.12-4.42,12-11.92,13.57l12.75,16.2c.3.45.45.75.45,1.05,0,.53-.45.82-1.35.82h-9.15c-.75,0-1.58-.38-2.02-.97l-12.15-15.9h-7.8c-1.05,0-1.65-.45-1.65-1.28,0-.22.07-.6.23-.9l2.4-5.62c.3-.75.97-1.2,1.8-1.2h10.87Z"/>
      <path class="cls-1" d="M455.32,10.05c1.42,0,2.32.97,2.32,2.4v40.95c0,1.43-.9,2.4-2.32,2.4h-5.55c-1.43,0-2.4-.97-2.4-2.4V12.45c0-1.43.97-2.4,2.4-2.4h5.55Z"/>
      <path class="cls-1" d="M511.57,10.05c1.42,0,2.32.97,2.32,2.4v4.2c0,1.43-.9,2.4-2.32,2.4h-26.85c-.75,0-1.27.45-1.27,1.28v6.82c0,.75.52,1.28,1.27,1.28h24.82c1.05,0,1.65.45,1.65,1.28,0,.3,0,.6-.15.9l-2.25,5.4c-.23.68-.98,1.12-1.73,1.12h-22.35c-.75,0-1.27.53-1.27,1.28v7.2c0,.75.52,1.28,1.27,1.28h29.02c1.42,0,2.4.9,2.4,2.32v4.2c0,1.43-.98,2.4-2.4,2.4h-38.17c-1.43,0-2.4-.97-2.4-2.4V12.45c0-1.43.97-2.4,2.4-2.4h36Z"/>
    </g>
  </g>
</svg>