<?xml version="1.0" encoding="UTF-8"?>
<svg id="_Слой_2" data-name="Слой 2" xmlns="http://www.w3.org/2000/svg" viewBox="0 0 600.52 56.92">
  <defs>
    <style>
      .cls-1 {
        fill: #fff;
        stroke-width: 0px;
      }
    </style>
  </defs>
  <g id="Calque_1" data-name="Calque 1">
    <g>
      <path class="cls-1" d="M52.87,11.85c-.38.9-1.12,1.35-1.88,1.35-.38,0-.75-.07-1.2-.3-5.25-2.47-10.95-3.75-16.57-3.75-13.72,0-22.27,7.5-22.27,18.67,0,11.77,9.6,19.65,23.7,19.65,6.67,0,13.27-1.8,18.67-4.8.38-.23.75-.38,1.05-.38.6,0,.97.52.97,1.5v6c0,5.33-14.1,7.12-21.15,7.12C13.88,56.92,0,45.3,0,28.05S13.12,0,33.3,0c6.68,0,13.35,1.2,20.25,3.83.9.38,1.5,1.2,1.5,2.1,0,.38-.08.67-.23,1.05l-1.95,4.88Z"/>
      <path class="cls-1" d="M75.45,10.05c1.42,0,2.32.97,2.32,2.4v13.95c0,.82.53,1.27,1.28,1.27h25.65c.75,0,1.2-.45,1.2-1.27v-13.95c0-1.42.97-2.4,2.4-2.4h5.55c1.42,0,2.4.97,2.4,2.4v40.95c0,1.43-.98,2.4-2.4,2.4h-5.55c-1.42,0-2.4-.97-2.4-2.4v-15.45c0-.75-.45-1.2-1.2-1.2h-25.65c-.75,0-1.28.45-1.28,1.2v15.45c0,1.43-.9,2.4-2.32,2.4h-5.55c-1.42,0-2.4-.97-2.4-2.4V12.45c0-1.42.97-2.4,2.4-2.4h5.55Z"/>
      <path class="cls-1" d="M145.95,12.15c.6-1.27,2.02-2.1,3.45-2.1h7.5c1.42,0,2.77.83,3.45,2.1l20.85,41.55c.22.38.3.75.3.97,0,.75-.6,1.12-1.58,1.12h-7.57c-.75,0-1.5-.45-1.88-1.12l-3.53-6.97c-.3-.67-1.05-1.12-1.8-1.12h-24.38c-.75,0-1.5.45-1.8,1.12l-3.53,6.97c-.38.67-1.12,1.12-1.88,1.12h-7.2c-1.05,0-1.58-.38-1.58-1.12,0-.22.08-.6.3-.97l20.85-41.55ZM161.4,38.02c.52,0,.82-.22.82-.67,0-.08,0-.3-.07-.45l-8.62-17.32c-.15-.3-.38-.52-.53-.52-.22,0-.45.22-.6.52l-8.55,17.32c-.08.23-.15.38-.15.53,0,.38.3.6.82.6h16.88Z"/>
      <path class="cls-1" d="M220.05,29.92c4.65,0,7.2-2.02,7.2-5.47s-2.55-5.47-7.05-5.47h-18.3c-.75,0-1.28.52-1.28,1.27v33.15c0,1.43-.9,2.4-2.32,2.4h-5.7c-1.43,0-2.4-.97-2.4-2.4V12.45c0-1.42.97-2.4,2.4-2.4h26.25c11.78,0,18.75,5.25,18.75,14.1,0,7.12-4.43,12-11.93,13.57l12.75,16.2c.3.45.45.75.45,1.05,0,.53-.45.83-1.35.83h-9.15c-.75,0-1.58-.38-2.03-.97l-12.15-15.9h-7.8c-1.05,0-1.65-.45-1.65-1.28,0-.22.08-.6.23-.9l2.4-5.62c.3-.75.97-1.2,1.8-1.2h10.87Z"/>
      <path class="cls-1" d="M293.02,19.65c-.38.9-1.12,1.42-1.95,1.42-.3,0-.67-.15-1.05-.3-4.5-2.1-9.38-3.15-14.17-3.15-11.47,0-18.6,5.92-18.6,14.77,0,9.38,8.1,15.52,19.87,15.52,5.85,0,11.55-1.5,16.27-4.12.38-.22.75-.3,1.05-.3.6,0,.98.45.98,1.42v5.48c0,5.02-12.3,6.52-18.67,6.52-17.92,0-30-9.82-30-24.37s11.32-23.7,29.25-23.7c4.5,0,19.12,1.42,19.12,5.33,0,.3-.07.6-.22.97l-1.88,4.5Z"/>
      <path class="cls-1" d="M313.65,10.05c1.42,0,2.4.97,2.4,2.4v23.55c0,7.5,5.4,12.07,14.17,12.07s14.25-4.65,14.25-12.07V12.45c0-1.42.97-2.4,2.4-2.4h5.47c1.42,0,2.32.97,2.32,2.4v24.82c0,12.3-9.22,19.65-24.45,19.65s-24.52-7.35-24.52-19.65V12.45c0-1.42.97-2.4,2.4-2.4h5.55Z"/>
      <path class="cls-1" d="M406.8,10.05c1.42,0,2.33.97,2.33,2.4v4.35c0,1.42-.9,2.4-2.33,2.4h-14.85c-.75,0-1.27.53-1.27,1.28v32.92c0,1.43-.9,2.4-2.4,2.4h-5.55c-1.42,0-2.33-.97-2.33-2.4V20.47c0-.75-.53-1.28-1.27-1.28h-14.85c-1.42,0-2.4-.97-2.4-2.4v-4.35c0-1.42.97-2.4,2.4-2.4h42.52Z"/>
      <path class="cls-1" d="M455.84,10.05c1.42,0,2.33.97,2.33,2.4v4.2c0,1.42-.9,2.4-2.33,2.4h-26.85c-.75,0-1.28.45-1.28,1.27v6.83c0,.75.53,1.27,1.28,1.27h24.82c1.05,0,1.65.45,1.65,1.28,0,.3,0,.6-.15.9l-2.25,5.4c-.23.67-.98,1.12-1.73,1.12h-22.35c-.75,0-1.28.52-1.28,1.27v7.2c0,.75.53,1.27,1.28,1.27h29.02c1.42,0,2.4.9,2.4,2.33v4.2c0,1.43-.98,2.4-2.4,2.4h-38.17c-1.42,0-2.4-.97-2.4-2.4V12.45c0-1.42.97-2.4,2.4-2.4h36Z"/>
      <path class="cls-1" d="M501.59,29.92c4.65,0,7.2-2.02,7.2-5.47s-2.55-5.47-7.05-5.47h-18.3c-.75,0-1.28.52-1.28,1.27v33.15c0,1.43-.9,2.4-2.32,2.4h-5.7c-1.42,0-2.4-.97-2.4-2.4V12.45c0-1.42.97-2.4,2.4-2.4h26.25c11.77,0,18.75,5.25,18.75,14.1,0,7.12-4.42,12-11.92,13.57l12.75,16.2c.3.45.45.75.45,1.05,0,.53-.45.83-1.35.83h-9.15c-.75,0-1.58-.38-2.02-.97l-12.15-15.9h-7.8c-1.05,0-1.65-.45-1.65-1.28,0-.22.07-.6.22-.9l2.4-5.62c.3-.75.97-1.2,1.8-1.2h10.87Z"/>
      <path class="cls-1" d="M539.69,10.05c1.42,0,2.33.97,2.33,2.4v40.95c0,1.43-.9,2.4-2.33,2.4h-5.55c-1.43,0-2.4-.97-2.4-2.4V12.45c0-1.42.97-2.4,2.4-2.4h5.55Z"/>
      <path class="cls-1" d="M595.94,10.05c1.42,0,2.32.97,2.32,2.4v4.2c0,1.42-.9,2.4-2.32,2.4h-26.85c-.75,0-1.28.45-1.28,1.27v6.83c0,.75.53,1.27,1.28,1.27h24.82c1.05,0,1.65.45,1.65,1.28,0,.3,0,.6-.15.9l-2.25,5.4c-.22.67-.97,1.12-1.72,1.12h-22.35c-.75,0-1.28.52-1.28,1.27v7.2c0,.75.53,1.27,1.28,1.27h29.02c1.43,0,2.4.9,2.4,2.33v4.2c0,1.43-.97,2.4-2.4,2.4h-38.17c-1.42,0-2.4-.97-2.4-2.4V12.45c0-1.42.97-2.4,2.4-2.4h36Z"/>
    </g>
  </g>
</svg>