<?xml version="1.0" encoding="UTF-8"?>
<svg id="_Слой_2" data-name="Слой 2" xmlns="http://www.w3.org/2000/svg" viewBox="0 0 204.3 59.63">
  <defs>
    <style>
      .cls-1 {
        fill: #fff;
        stroke-width: 0px;
      }
    </style>
  </defs>
  <g id="Calque_1" data-name="Calque 1">
    <g>
      <path class="cls-1" d="M52.87,11.85c-.38.9-1.12,1.35-1.88,1.35-.38,0-.75-.07-1.2-.3-5.25-2.47-10.95-3.75-16.57-3.75-13.72,0-22.27,7.5-22.27,18.67,0,11.77,9.6,19.65,23.7,19.65,6.67,0,13.27-1.8,18.67-4.8.38-.23.75-.38,1.05-.38.6,0,.97.52.97,1.5v6c0,5.33-14.1,7.12-21.15,7.12C13.87,56.92,0,45.3,0,28.05S13.12,0,33.3,0c6.67,0,13.35,1.2,20.25,3.83.9.38,1.5,1.2,1.5,2.1,0,.38-.08.67-.23,1.05l-1.95,4.88Z"/>
      <path class="cls-1" d="M74.32,10.05c1.42,0,2.4.97,2.4,2.4v23.55c0,7.5,5.4,12.07,14.17,12.07s14.25-4.65,14.25-12.07V12.45c0-1.42.97-2.4,2.4-2.4h5.47c1.42,0,2.32.97,2.32,2.4v24.82c0,12.3-9.22,19.65-24.45,19.65s-24.52-7.35-24.52-19.65V12.45c0-1.42.97-2.4,2.4-2.4h5.55Z"/>
      <path class="cls-1" d="M137.77,10.05c1.42,0,2.32.97,2.32,2.4v40.95c0,1.43-.9,2.4-2.32,2.4h-5.55c-1.43,0-2.4-.97-2.4-2.4V12.45c0-1.42.97-2.4,2.4-2.4h5.55Z"/>
      <path class="cls-1" d="M182.32,29.42c5.43,0,8.4-2.36,8.4-6.39s-2.98-6.39-8.23-6.39h-21.36c-.88,0-1.49.61-1.49,1.49v38.69c0,1.66-1.05,2.8-2.71,2.8h-6.65c-1.66,0-2.8-1.14-2.8-2.8V9.02c0-1.66,1.14-2.8,2.8-2.8h30.64c13.75,0,21.89,6.13,21.89,16.46,0,8.32-5.17,14.01-13.92,15.85l14.88,18.91c.35.53.53.88.53,1.23,0,.61-.53.96-1.58.96h-10.68c-.88,0-1.84-.44-2.36-1.14l-14.18-18.56h-9.1c-1.23,0-1.93-.53-1.93-1.49,0-.26.09-.7.26-1.05l2.8-6.57c.35-.88,1.14-1.4,2.1-1.4h12.69Z"/>
    </g>
  </g>
</svg>