<?xml version="1.0" encoding="UTF-8"?>
<svg id="_Слой_2" data-name="Слой 2" xmlns="http://www.w3.org/2000/svg" viewBox="0 0 337.94 56.92">
  <defs>
    <style>
      .cls-1 {
        fill: #fff;
        stroke-width: 0px;
      }
    </style>
  </defs>
  <g id="Calque_1" data-name="Calque 1">
    <g>
      <path class="cls-1" d="M8.32,1.2c1.42,0,2.4.97,2.4,2.4v41.55c0,.75.45,1.27,1.2,1.27h30.75c1.42,0,2.4.98,2.4,2.4v4.57c0,1.43-.98,2.4-2.4,2.4H2.4c-1.5,0-2.4-.97-2.4-2.4V3.6C0,2.17.9,1.2,2.4,1.2h5.92Z"/>
      <path class="cls-1" d="M95.02,10.05c1.42,0,2.32.97,2.32,2.4v4.2c0,1.42-.9,2.4-2.32,2.4h-26.85c-.75,0-1.27.45-1.27,1.27v6.83c0,.75.52,1.27,1.27,1.27h24.82c1.05,0,1.65.45,1.65,1.28,0,.3,0,.6-.15.9l-2.25,5.4c-.23.67-.98,1.12-1.73,1.12h-22.35c-.75,0-1.27.52-1.27,1.27v7.2c0,.75.52,1.27,1.27,1.27h29.02c1.42,0,2.4.9,2.4,2.33v4.2c0,1.43-.98,2.4-2.4,2.4h-38.17c-1.43,0-2.4-.97-2.4-2.4V12.45c0-1.42.97-2.4,2.4-2.4h36Z"/>
      <path class="cls-1" d="M186.52,11.85c-.38.9-1.12,1.35-1.88,1.35-.38,0-.75-.07-1.2-.3-5.25-2.47-10.95-3.75-16.57-3.75-13.72,0-22.27,7.5-22.27,18.67,0,11.77,9.6,19.65,23.7,19.65,6.67,0,13.27-1.8,18.67-4.8.38-.23.75-.38,1.05-.38.6,0,.97.52.97,1.5v6c0,5.33-14.1,7.12-21.15,7.12-20.32,0-34.2-11.62-34.2-28.87S146.77,0,166.95,0c6.67,0,13.35,1.2,20.25,3.83.9.38,1.5,1.2,1.5,2.1,0,.38-.08.67-.23,1.05l-1.95,4.88Z"/>
      <path class="cls-1" d="M207.97,10.05c1.42,0,2.4.97,2.4,2.4v23.55c0,7.5,5.4,12.07,14.17,12.07s14.25-4.65,14.25-12.07V12.45c0-1.42.97-2.4,2.4-2.4h5.47c1.42,0,2.32.97,2.32,2.4v24.82c0,12.3-9.22,19.65-24.45,19.65s-24.52-7.35-24.52-19.65V12.45c0-1.42.97-2.4,2.4-2.4h5.55Z"/>
      <path class="cls-1" d="M271.42,10.05c1.42,0,2.32.97,2.32,2.4v40.95c0,1.43-.9,2.4-2.32,2.4h-5.55c-1.43,0-2.4-.97-2.4-2.4V12.45c0-1.42.97-2.4,2.4-2.4h5.55Z"/>
      <path class="cls-1" d="M319.12,29.92c4.65,0,7.2-2.02,7.2-5.47s-2.55-5.47-7.05-5.47h-18.3c-.75,0-1.27.52-1.27,1.27v33.15c0,1.43-.9,2.4-2.32,2.4h-5.7c-1.43,0-2.4-.97-2.4-2.4V12.45c0-1.42.97-2.4,2.4-2.4h26.25c11.77,0,18.75,5.25,18.75,14.1,0,7.12-4.42,12-11.92,13.57l12.75,16.2c.3.45.45.75.45,1.05,0,.53-.45.83-1.35.83h-9.15c-.75,0-1.58-.38-2.02-.97l-12.15-15.9h-7.8c-1.05,0-1.65-.45-1.65-1.28,0-.22.07-.6.23-.9l2.4-5.62c.3-.75.97-1.2,1.8-1.2h10.87Z"/>
    </g>
  </g>
</svg>