<?xml version="1.0" encoding="UTF-8"?>
<svg id="_Слой_2" data-name="Слой 2" xmlns="http://www.w3.org/2000/svg" viewBox="0 0 889.86 64.42">
  <defs>
    <style>
      .cls-1 {
        fill: #fff;
        stroke-width: 0px;
      }
    </style>
  </defs>
  <g id="Calque_1" data-name="Calque 1">
    <g>
      <path class="cls-1" d="M48.45,19.35c-.38.9-1.12,1.42-2.03,1.42-.3,0-.67-.08-1.05-.22-6.75-2.78-12.67-3.97-19.65-3.97-9.52,0-14.47,2.25-14.47,6.67,0,3.38,2.92,5.48,9.15,6.23l15.37,1.8c11.62,1.35,17.7,7.12,17.7,16.35,0,11.1-8.62,16.8-25.35,16.8-9.15,0-18.22-1.65-26.62-5.02-.98-.38-1.5-1.2-1.5-2.1,0-.3.08-.6.22-.97l2.03-5.03c.38-.9,1.12-1.42,1.95-1.42.38,0,.75.08,1.12.23,7.65,3.38,15.38,5.02,23.17,5.02,9.45,0,14.32-2.4,14.32-7.12,0-3.67-3-5.7-9.6-6.52l-15.07-1.88C6.75,38.17.6,32.85.6,24,.6,13.35,9.67,7.58,26.17,7.58c7.88,0,14.77,1.27,22.72,4.2.98.38,1.58,1.2,1.58,2.1,0,.3-.08.6-.22.97l-1.8,4.5Z"/>
      <path class="cls-1" d="M80.47,19.65c.6-1.27,2.02-2.1,3.45-2.1h7.5c1.42,0,2.77.83,3.45,2.1l20.85,41.55c.23.38.3.75.3.97,0,.75-.6,1.12-1.57,1.12h-7.58c-.75,0-1.5-.45-1.88-1.12l-3.52-6.97c-.3-.67-1.05-1.12-1.8-1.12h-24.37c-.75,0-1.5.45-1.8,1.12l-3.53,6.97c-.38.67-1.12,1.12-1.88,1.12h-7.2c-1.05,0-1.58-.38-1.58-1.12,0-.22.08-.6.3-.97l20.85-41.55ZM95.92,45.52c.52,0,.83-.22.83-.67,0-.08,0-.3-.08-.45l-8.62-17.32c-.15-.3-.38-.52-.52-.52-.23,0-.45.22-.6.52l-8.55,17.32c-.07.23-.15.38-.15.53,0,.38.3.6.83.6h16.87Z"/>
      <path class="cls-1" d="M124.72,19.95c0-1.42.97-2.4,2.4-2.4h5.33c.75,0,1.65.38,2.17.9l28.5,28.95v-27.45c0-1.42.97-2.4,2.4-2.4h5.25c1.42,0,2.4.97,2.4,2.4v40.95c0,1.43-.97,2.4-2.4,2.4h-4.5c-.75,0-1.58-.38-2.1-.9l-29.47-30.07v28.57c0,1.43-.9,2.4-2.33,2.4h-5.25c-1.42,0-2.4-.97-2.4-2.4V19.95Z"/>
      <path class="cls-1" d="M226.35,17.55c1.42,0,2.33.97,2.33,2.4v4.35c0,1.42-.9,2.4-2.33,2.4h-14.85c-.75,0-1.27.53-1.27,1.28v32.92c0,1.43-.9,2.4-2.4,2.4h-5.55c-1.42,0-2.32-.97-2.32-2.4V27.97c0-.75-.53-1.28-1.28-1.28h-14.85c-1.42,0-2.4-.97-2.4-2.4v-4.35c0-1.42.97-2.4,2.4-2.4h42.52Z"/>
      <path class="cls-1" d="M275.4,17.55c1.42,0,2.4.97,2.4,2.4v4.2c0,1.42-.98,2.4-2.4,2.4h-26.77c-.83,0-1.28.45-1.28,1.27v6.83c0,.75.45,1.27,1.28,1.27h24.82c1.05,0,1.65.45,1.65,1.28,0,.22-.08.52-.23.9l-2.17,5.4c-.3.67-.97,1.12-1.72,1.12h-22.35c-.83,0-1.28.52-1.28,1.27v7.2c0,.75.45,1.27,1.28,1.27h28.95c1.42,0,2.4.9,2.4,2.33v4.2c0,1.43-.98,2.4-2.4,2.4h-38.17c-1.43,0-2.4-.97-2.4-2.4V19.95c0-1.42.97-2.4,2.4-2.4h36ZM256.42,1.2c.23-.67.9-1.2,1.65-1.2h9.07c.9,0,1.43.38,1.43.9,0,.3-.15.67-.45,1.05l-6.45,8.62c-.45.6-1.27.97-2.02.97h-4.8c-1.12,0-1.73-.52-1.73-1.35,0-.23.08-.6.23-.9l3.07-8.1Z"/>
      <path class="cls-1" d="M308.02,9.83c.3-.67.98-1.12,1.73-1.12h5.77c1.05,0,1.58.45,1.58,1.2,0,.3-.08.6-.23.97l-23.32,51.3c-.3.67-1.05,1.12-1.8,1.12h-5.7c-1.05,0-1.65-.45-1.65-1.28,0-.22.08-.6.23-.9l23.4-51.3Z"/>
      <path class="cls-1" d="M375.89,19.35c-.38.9-1.12,1.35-1.88,1.35-.38,0-.75-.07-1.2-.3-5.25-2.47-10.95-3.75-16.57-3.75-13.72,0-22.27,7.5-22.27,18.67,0,11.77,9.6,19.65,23.7,19.65,6.67,0,13.27-1.8,18.67-4.8.38-.23.75-.38,1.05-.38.6,0,.97.52.97,1.5v6c0,5.33-14.1,7.12-21.15,7.12-20.32,0-34.2-11.62-34.2-28.87s13.12-28.05,33.3-28.05c6.67,0,13.35,1.2,20.25,3.83.9.38,1.5,1.2,1.5,2.1,0,.38-.08.67-.23,1.05l-1.95,4.88Z"/>
      <path class="cls-1" d="M416.47,16.42c17.62,0,29.55,9.67,29.55,24s-11.92,24-29.55,24-29.47-9.6-29.47-24,11.85-24,29.47-24ZM416.47,55.65c11.33,0,19.05-6.22,19.05-15.22s-7.72-15.22-19.05-15.22-18.97,6.15-18.97,15.22,7.72,15.22,18.97,15.22Z"/>
      <path class="cls-1" d="M497.62,27c-.38.98-1.12,1.5-2.1,1.5-.3,0-.6-.08-.97-.22-5.85-2.33-10.95-3.3-16.95-3.3-7.88,0-12,1.65-12,4.88,0,2.4,2.4,3.82,7.35,4.42l13.72,1.65c10.12,1.2,15.52,6.08,15.52,14.02,0,9.52-7.65,14.47-22.5,14.47-7.88,0-15.82-1.35-23.25-4.12-.97-.38-1.5-1.2-1.5-2.1,0-.3.08-.6.22-.98l1.8-4.5c.38-.9,1.12-1.43,1.95-1.43.38,0,.75.08,1.12.23,6.6,2.77,13.27,4.12,20.02,4.12,7.88,0,11.92-1.8,11.92-5.33,0-2.55-2.33-3.97-7.72-4.65l-13.27-1.58c-10.2-1.2-15.6-6-15.6-13.42,0-9.22,8.1-14.25,22.95-14.25,6.67,0,12.37.97,19.57,3.52.97.38,1.5,1.12,1.5,2.03,0,.3,0,.67-.15.97l-1.65,4.05Z"/>
      <path class="cls-1" d="M524.32,17.55c1.35,0,2.92.83,3.67,2.02l15.3,24.52c.15.38.38.53.6.53s.53-.15.75-.53l15.15-24.52c.75-1.2,2.17-2.02,3.6-2.02h7.72c1.42,0,2.32.97,2.32,2.4v40.95c0,1.43-.9,2.4-2.32,2.4h-5.25c-1.5,0-2.4-.97-2.4-2.4v-29.1l-15.37,24.45c-.67,1.05-1.88,1.72-3.08,1.72h-2.47c-1.2,0-2.4-.67-3.08-1.72l-15.3-24.45v29.1c0,1.43-.98,2.4-2.4,2.4h-5.1c-1.42,0-2.4-.97-2.4-2.4V19.95c0-1.42.97-2.4,2.4-2.4h7.65Z"/>
      <path class="cls-1" d="M627.37,17.55c1.42,0,2.4.97,2.4,2.4v4.2c0,1.42-.97,2.4-2.4,2.4h-26.77c-.83,0-1.27.45-1.27,1.27v6.83c0,.75.45,1.27,1.27,1.27h24.82c1.05,0,1.65.45,1.65,1.28,0,.22-.07.52-.22.9l-2.17,5.4c-.3.67-.97,1.12-1.72,1.12h-22.35c-.83,0-1.27.52-1.27,1.27v7.2c0,.75.45,1.27,1.27,1.27h28.95c1.42,0,2.4.9,2.4,2.33v4.2c0,1.43-.97,2.4-2.4,2.4h-38.17c-1.42,0-2.4-.97-2.4-2.4V19.95c0-1.42.97-2.4,2.4-2.4h36ZM608.39,1.2c.22-.67.9-1.2,1.65-1.2h9.08c.9,0,1.42.38,1.42.9,0,.3-.15.67-.45,1.05l-6.45,8.62c-.45.6-1.28.97-2.03.97h-4.8c-1.12,0-1.72-.52-1.72-1.35,0-.23.08-.6.22-.9l3.08-8.1Z"/>
      <path class="cls-1" d="M680.92,17.55c1.42,0,2.32.97,2.32,2.4v4.35c0,1.42-.9,2.4-2.32,2.4h-14.85c-.75,0-1.28.53-1.28,1.28v32.92c0,1.43-.9,2.4-2.4,2.4h-5.55c-1.42,0-2.33-.97-2.33-2.4V27.97c0-.75-.52-1.28-1.27-1.28h-14.85c-1.42,0-2.4-.97-2.4-2.4v-4.35c0-1.42.98-2.4,2.4-2.4h42.52Z"/>
      <path class="cls-1" d="M699.52,17.55c1.42,0,2.33.97,2.33,2.4v40.95c0,1.43-.9,2.4-2.33,2.4h-5.55c-1.42,0-2.4-.97-2.4-2.4V19.95c0-1.42.97-2.4,2.4-2.4h5.55Z"/>
      <path class="cls-1" d="M743.31,16.42c17.62,0,29.55,9.67,29.55,24,0,6.52-2.4,12-6.67,16.12l5.33,4.12c.9.67,1.27,1.28,1.27,1.72,0,.6-.75.9-2.17.9h-6.22c-.83,0-1.8-.38-2.47-.83l-2.03-1.58c-4.57,2.33-10.2,3.53-16.57,3.53-17.62,0-29.47-9.6-29.47-24s11.85-24,29.47-24ZM752.31,46.72c.75,0,1.65.3,2.25.75l3.67,2.92c2.62-2.62,4.12-6,4.12-9.97,0-9.07-7.72-15.22-19.05-15.22s-18.97,6.15-18.97,15.22,7.72,15.22,18.97,15.22c3,0,5.7-.45,8.17-1.28l-6.6-5.1c-.83-.6-1.2-1.12-1.2-1.58,0-.52.67-.9,2.1-.9l6.52-.08Z"/>
      <path class="cls-1" d="M791.39,17.55c1.42,0,2.4.97,2.4,2.4v23.55c0,7.5,5.4,12.07,14.17,12.07s14.25-4.65,14.25-12.07v-23.55c0-1.42.97-2.4,2.4-2.4h5.47c1.42,0,2.33.97,2.33,2.4v24.82c0,12.3-9.22,19.65-24.45,19.65s-24.52-7.35-24.52-19.65v-24.82c0-1.42.97-2.4,2.4-2.4h5.55Z"/>
      <path class="cls-1" d="M885.29,17.55c1.42,0,2.33.97,2.33,2.4v4.2c0,1.42-.9,2.4-2.33,2.4h-26.85c-.75,0-1.28.45-1.28,1.27v6.83c0,.75.53,1.27,1.28,1.27h24.82c1.05,0,1.65.45,1.65,1.28,0,.3,0,.6-.15.9l-2.25,5.4c-.23.67-.98,1.12-1.73,1.12h-22.35c-.75,0-1.28.52-1.28,1.27v7.2c0,.75.53,1.27,1.28,1.27h29.02c1.42,0,2.4.9,2.4,2.33v4.2c0,1.43-.98,2.4-2.4,2.4h-38.17c-1.43,0-2.4-.97-2.4-2.4V19.95c0-1.42.97-2.4,2.4-2.4h36Z"/>
    </g>
  </g>
</svg>