<?xml version="1.0" encoding="UTF-8"?>
<svg id="_Слой_2" data-name="Слой 2" xmlns="http://www.w3.org/2000/svg" viewBox="0 0 430.04 55.72">
  <defs>
    <style>
      .cls-1 {
        fill: #fff;
        stroke-width: 0px;
      }
    </style>
  </defs>
  <g id="Calque_1" data-name="Calque 1">
    <g>
      <path class="cls-1" d="M32.92,0c11.92,0,19.5,6.9,19.5,17.55s-7.5,17.17-19.5,17.17h-15.82c-1.12,0-1.73-.45-1.73-1.28,0-.3.08-.6.23-.9l2.55-5.92c.3-.67,1.05-1.2,1.8-1.2h13.5c5.62,0,8.25-3.45,8.25-8.1,0-5.47-3.67-8.02-8.4-8.02H11.92c-.75,0-1.2.52-1.2,1.27v41.62c0,1.43-.98,2.4-2.4,2.4H2.4c-1.5,0-2.4-.97-2.4-2.4V2.4C0,.97.9,0,2.4,0h30.52Z"/>
      <path class="cls-1" d="M102.97,8.85c1.42,0,2.33.97,2.33,2.4v4.2c0,1.42-.9,2.4-2.33,2.4h-26.85c-.75,0-1.28.45-1.28,1.27v6.83c0,.75.53,1.27,1.28,1.27h24.82c1.05,0,1.65.45,1.65,1.28,0,.3,0,.6-.15.9l-2.25,5.4c-.23.67-.98,1.12-1.73,1.12h-22.35c-.75,0-1.28.52-1.28,1.27v7.2c0,.75.53,1.27,1.28,1.27h29.02c1.42,0,2.4.9,2.4,2.33v4.2c0,1.43-.98,2.4-2.4,2.4h-38.17c-1.42,0-2.4-.97-2.4-2.4V11.25c0-1.42.97-2.4,2.4-2.4h36Z"/>
      <path class="cls-1" d="M156.52,8.85c1.42,0,2.32.97,2.32,2.4v4.35c0,1.42-.9,2.4-2.32,2.4h-14.85c-.75,0-1.28.53-1.28,1.28v32.92c0,1.43-.9,2.4-2.4,2.4h-5.55c-1.43,0-2.33-.97-2.33-2.4V19.27c0-.75-.53-1.28-1.27-1.28h-14.85c-1.43,0-2.4-.97-2.4-2.4v-4.35c0-1.42.97-2.4,2.4-2.4h42.52Z"/>
      <path class="cls-1" d="M238.5,0c1.42,0,2.4.97,2.4,2.4v4.5c0,1.42-.98,2.4-2.4,2.4h-32.55c-.75,0-1.28.52-1.28,1.27v12.52c0,.75.53,1.2,1.28,1.2h30.3c1.05,0,1.65.53,1.65,1.35,0,.3,0,.6-.15.9l-2.4,5.92c-.3.67-.97,1.12-1.72,1.12h-27.67c-.75,0-1.28.52-1.28,1.27v17.32c0,1.43-.97,2.4-2.4,2.4h-5.92c-1.43,0-2.4-.97-2.4-2.4V2.4c0-1.42.97-2.4,2.4-2.4h42.15Z"/>
      <path class="cls-1" d="M277.5,7.72c17.62,0,29.55,9.67,29.55,24s-11.92,24-29.55,24-29.47-9.6-29.47-24,11.85-24,29.47-24ZM277.5,46.95c11.32,0,19.05-6.22,19.05-15.22s-7.72-15.22-19.05-15.22-18.97,6.15-18.97,15.22,7.72,15.22,18.97,15.22Z"/>
      <path class="cls-1" d="M340.49,7.72c17.62,0,29.55,9.67,29.55,24s-11.92,24-29.55,24-29.47-9.6-29.47-24,11.85-24,29.47-24ZM340.49,46.95c11.33,0,19.05-6.22,19.05-15.22s-7.72-15.22-19.05-15.22-18.97,6.15-18.97,15.22,7.72,15.22,18.97,15.22Z"/>
      <path class="cls-1" d="M405.52,8.85c14.25,0,24.52,9.6,24.52,22.87s-10.2,22.87-24.45,22.87h-24.82c-1.42,0-2.4-.97-2.4-2.4V11.25c0-1.42.97-2.4,2.4-2.4h24.75ZM388.72,44.47c0,.75.52,1.28,1.27,1.28h14.55c8.77,0,15-5.85,15-14.02s-6.3-13.95-15-13.95h-14.55c-.75,0-1.27.52-1.27,1.27v25.42Z"/>
    </g>
  </g>
</svg>