<?xml version="1.0" encoding="UTF-8"?>
<svg id="_Слой_2" data-name="Слой 2" xmlns="http://www.w3.org/2000/svg" viewBox="0 0 1470.41 51.95">
  <defs>
    <style>
      .cls-1 {
        fill: #596aa8;
        stroke-width: 0px;
      }
    </style>
  </defs>
  <g id="Calque_1" data-name="Calque 1">
    <g>
      <path class="cls-1" d="M29.51.27c17.41,0,29.58,10.61,29.58,25.63,0,7.14-2.72,13.19-7.34,17.68l6.26,4.76c.82.61,1.16,1.16,1.16,1.56,0,.54-.68.82-1.97.82h-5.44c-.82,0-1.77-.34-2.38-.82l-3.13-2.31c-4.62,2.58-10.33,4.01-16.73,4.01C12.17,51.61,0,41,0,25.91S12.17.27,29.51.27ZM29.51,44.54c3.74,0,7.21-.68,10.13-1.9l-7.28-5.58c-.75-.54-1.16-1.09-1.16-1.43,0-.54.68-.82,1.97-.82l5.58-.07c.82,0,1.7.27,2.31.75l4.35,3.33c3.4-3.2,5.37-7.68,5.37-12.92,0-10.95-8.7-18.56-21.28-18.56S8.29,14.96,8.29,25.91s8.7,18.63,21.21,18.63Z"/>
      <path class="cls-1" d="M72.76,9.25c1.22,0,1.97.82,1.97,1.97v21.69c0,7.41,5.24,11.97,13.67,11.97s13.87-4.62,13.87-11.97V11.22c0-1.16.75-1.97,1.97-1.97h3.74c1.16,0,1.97.82,1.97,1.97v22.71c0,11.01-8.16,17.68-21.49,17.68s-21.49-6.66-21.49-17.68V11.22c0-1.16.82-1.97,1.97-1.97h3.81Z"/>
      <path class="cls-1" d="M121.17,8.43c-2.38-.2-4.01-1.77-4.01-4.01,0-2.45,1.84-4.08,4.42-4.08,2.86,0,4.42,2.11,4.42,5.98,0,4.49-2.18,8.36-5.78,10.54-.21.07-.34.14-.54.14-.27,0-.61-.14-.82-.48l-1.09-1.77c-.14-.2-.14-.34-.14-.54,0-.34.14-.61.41-.82,1.9-1.29,2.99-3.06,3.13-4.96Z"/>
      <path class="cls-1" d="M165.3,9.25c1.22,0,2.04.82,2.04,1.97v2.86c0,1.16-.82,1.97-2.04,1.97h-25.29c-.61,0-.95.34-.95.95v8.57c0,.61.34.95.95.95h23.53c.88,0,1.36.41,1.36,1.09,0,.27,0,.48-.14.75l-1.56,3.88c-.27.54-.75.88-1.36.88h-21.83c-.61,0-.95.41-.95.95v8.97c0,.54.34.95.95.95h27.13c1.16,0,1.97.75,1.97,1.97v2.79c0,1.16-.81,1.97-1.97,1.97h-33.86c-1.22,0-1.97-.82-1.97-1.97V11.22c0-1.16.75-1.97,1.97-1.97h32.03Z"/>
      <path class="cls-1" d="M211.41,16.86c-.34.82-1.02,1.22-1.77,1.22-.27,0-.54,0-.82-.14-5.24-2.11-9.86-2.99-15.37-2.99-7.82,0-11.83,1.77-11.83,5.3,0,2.72,2.45,4.28,7.62,4.9l11.9,1.43c9.18,1.09,13.87,5.24,13.87,12.31,0,8.43-6.66,12.71-19.72,12.71-7.07,0-14.21-1.16-20.6-3.74-.82-.27-1.22-.95-1.22-1.7,0-.27.07-.54.2-.88l1.29-3.2c.27-.75.88-1.22,1.63-1.22.27,0,.54.07.88.2,6.12,2.52,12.1,3.81,18.22,3.81,7.62,0,11.56-1.97,11.56-5.71,0-2.86-2.52-4.49-8.02-5.17l-11.69-1.36c-8.84-1.02-13.67-5.3-13.67-11.83,0-8.02,7.07-12.44,19.85-12.44,4.42,0,18.97,1.5,18.97,4.9,0,.27-.07.54-.2.82l-1.09,2.79Z"/>
      <path class="cls-1" d="M256.15,9.25c1.22,0,2.04.82,2.04,1.97v2.92c0,1.16-.82,1.97-2.04,1.97h-14.14c-.54,0-.95.41-.95.95v31.68c0,1.16-.75,1.97-1.97,1.97h-3.81c-1.16,0-1.97-.82-1.97-1.97v-31.68c0-.54-.34-.95-.95-.95h-14.14c-1.22,0-2.04-.82-2.04-1.97v-2.92c0-1.16.82-1.97,2.04-1.97h37.94Z"/>
      <path class="cls-1" d="M254.66,26.79c0-1.16.82-1.97,1.97-1.97h21.28c1.16,0,1.97.82,1.97,1.97v2.45c0,1.16-.82,1.97-1.97,1.97h-21.28c-1.16,0-1.97-.82-1.97-1.97v-2.45Z"/>
      <path class="cls-1" d="M325.44,16.86c-.34.75-.88,1.16-1.63,1.16-.27,0-.54-.07-.88-.2-4.15-1.84-8.57-2.79-12.99-2.79-11.01,0-18.09,5.78-18.09,14.48,0,9.18,7.82,15.23,19.11,15.23,5.17,0,10.27-1.29,14.48-3.54.34-.14.61-.27.82-.27.54,0,.88.41.88,1.22v3.81c0,4.28-10.74,5.64-16.46,5.64-15.84,0-26.72-8.91-26.72-21.96s10.27-21.35,25.97-21.35c3.88,0,17,1.36,17,4.62,0,.27-.07.54-.2.82l-1.29,3.13Z"/>
      <path class="cls-1" d="M368.62,9.25c1.22,0,2.04.82,2.04,1.97v2.86c0,1.16-.82,1.97-2.04,1.97h-25.29c-.61,0-.95.34-.95.95v8.57c0,.61.34.95.95.95h23.53c.88,0,1.36.41,1.36,1.09,0,.27,0,.48-.14.75l-1.56,3.88c-.27.54-.75.88-1.36.88h-21.83c-.61,0-.95.41-.95.95v8.97c0,.54.34.95.95.95h27.13c1.16,0,1.97.75,1.97,1.97v2.79c0,1.16-.81,1.97-1.97,1.97h-33.86c-1.22,0-1.97-.82-1.97-1.97V11.22c0-1.16.75-1.97,1.97-1.97h32.03Z"/>
      <path class="cls-1" d="M422.14,8.36c15.37,0,26.04,8.84,26.04,21.62,0,5.98-2.38,11.08-6.39,14.82l5.1,3.81c.75.54,1.02,1.09,1.02,1.43,0,.41-.54.68-1.7.68h-4.76c-.68,0-1.56-.27-2.11-.68l-2.38-1.77c-4.15,2.18-9.18,3.33-14.82,3.33-15.37,0-26.04-8.84-26.04-21.62s10.67-21.62,26.04-21.62ZM430.02,36.65c.68,0,1.5.27,2.04.68l3.74,2.92c2.79-2.58,4.42-6.12,4.42-10.27,0-8.84-7.34-14.96-18.09-14.96s-18.09,6.05-18.09,14.96,7.34,14.96,18.09,14.96c3.13,0,5.98-.48,8.5-1.5l-6.26-4.76c-.68-.48-1.02-.95-1.02-1.29,0-.41.54-.68,1.7-.68l4.96-.07Z"/>
      <path class="cls-1" d="M460.83,9.25c1.22,0,1.97.82,1.97,1.97v21.69c0,7.41,5.23,11.97,13.67,11.97s13.87-4.62,13.87-11.97V11.22c0-1.16.75-1.97,1.97-1.97h3.74c1.16,0,1.97.82,1.97,1.97v22.71c0,11.01-8.16,17.68-21.49,17.68s-21.49-6.66-21.49-17.68V11.22c0-1.16.82-1.97,1.97-1.97h3.81Z"/>
      <path class="cls-1" d="M509.25,8.43c-2.38-.2-4.01-1.77-4.01-4.01,0-2.45,1.84-4.08,4.42-4.08,2.86,0,4.42,2.11,4.42,5.98,0,4.49-2.18,8.36-5.78,10.54-.2.07-.34.14-.54.14-.27,0-.61-.14-.82-.48l-1.09-1.77c-.14-.2-.14-.34-.14-.54,0-.34.14-.61.41-.82,1.9-1.29,2.99-3.06,3.13-4.96Z"/>
      <path class="cls-1" d="M524.27,9.25c1.22,0,1.97.82,1.97,1.97v21.69c0,7.41,5.24,11.97,13.67,11.97s13.87-4.62,13.87-11.97V11.22c0-1.16.75-1.97,1.97-1.97h3.74c1.16,0,1.97.82,1.97,1.97v22.71c0,11.01-8.16,17.68-21.49,17.68s-21.49-6.66-21.49-17.68V11.22c0-1.16.82-1.97,1.97-1.97h3.81Z"/>
      <path class="cls-1" d="M571.94,11.22c0-1.16.75-1.97,1.97-1.97h4.76c.54,0,1.22.27,1.56.68l26.72,29.17V11.22c0-1.16.82-1.97,1.97-1.97h3.6c1.22,0,1.97.82,1.97,1.97v37.53c0,1.16-.75,1.97-1.97,1.97h-3.81c-.54,0-1.22-.27-1.63-.68l-27.61-30.26v28.96c0,1.16-.82,1.97-2.04,1.97h-3.54c-1.22,0-1.97-.82-1.97-1.97V11.22Z"/>
      <path class="cls-1" d="M684.41,19.31c-.34.88-.95,1.36-1.77,1.36-.34,0-.82-.14-1.22-.34-3.94-1.9-8.29-2.86-12.58-2.86-9.79,0-15.5,4.76-15.5,11.97,0,7.82,6.8,12.78,16.79,12.78,5.44,0,10.61-1.5,15.03-4.01.41-.27.75-.34,1.02-.34.61,0,.95.48.95,1.43v6.32c0,4.96-11.63,6.26-17.41,6.26-16.73,0-27.88-8.84-27.88-22.23s10.33-21.69,27.13-21.69c4.42,0,17.81,1.22,17.81,4.96,0,.34-.07.68-.2,1.02l-2.18,5.37Z"/>
      <path class="cls-1" d="M718.14,8.02c16.66,0,27.67,8.7,27.67,21.96s-11.02,21.96-27.67,21.96-27.67-8.63-27.67-21.96,10.95-21.96,27.67-21.96ZM718.07,42.43c9.66,0,16.25-5.03,16.25-12.44s-6.59-12.44-16.25-12.44-16.11,4.96-16.11,12.44,6.46,12.44,16.11,12.44Z"/>
      <path class="cls-1" d="M749.21,26.11c0-1.43.95-2.38,2.38-2.38h22.44c1.43,0,2.38.95,2.38,2.38v3.74c0,1.43-.95,2.38-2.38,2.38h-22.44c-1.43,0-2.38-.95-2.38-2.38v-3.74Z"/>
      <path class="cls-1" d="M809.32,9.25c10.54,0,17,5.44,17,14.35s-6.19,13.73-17.13,13.73h-9.93c-1.09,0-1.63-.48-1.63-1.29,0-.27.07-.54.21-.88l2.72-6.39c.34-.75,1.09-1.22,1.9-1.22h8.16c2.58,0,4.42-1.43,4.42-4.22,0-2.45-1.43-4.28-4.96-4.28h-14.69c-.82,0-1.36.54-1.36,1.36v27.95c0,1.43-.95,2.38-2.38,2.38h-6.53c-1.43,0-2.38-.95-2.38-2.38V11.63c0-1.43.95-2.38,2.38-2.38h24.21Z"/>
      <path class="cls-1" d="M861,26.38c3.54,0,5.17-1.29,5.17-3.74s-1.7-3.67-5.24-3.67h-15.43c-.82,0-1.36.54-1.36,1.36v28.01c0,1.43-.95,2.38-2.38,2.38h-6.73c-1.43,0-2.38-.95-2.38-2.38V11.63c0-1.43.95-2.38,2.38-2.38h24.34c11.69,0,18.09,4.56,18.09,12.99,0,6.53-3.74,10.95-10.34,12.58l11.08,14.07c.34.41.48.75.48,1.02,0,.54-.48.82-1.36.82h-10.2c-.81,0-1.7-.41-2.18-1.09l-10.27-13.46h-5.3c-1.09,0-1.63-.48-1.63-1.29,0-.27.07-.54.2-.88l2.72-6.39c.34-.75,1.09-1.22,1.9-1.22h8.43Z"/>
      <path class="cls-1" d="M909.83,8.02c16.66,0,27.67,8.7,27.67,21.96s-11.02,21.96-27.67,21.96-27.67-8.63-27.67-21.96,10.95-21.96,27.67-21.96ZM909.76,42.43c9.66,0,16.25-5.03,16.25-12.44s-6.59-12.44-16.25-12.44-16.11,4.96-16.11,12.44,6.46,12.44,16.11,12.44Z"/>
      <path class="cls-1" d="M970.21,9.25c13.33,0,22.85,8.63,22.85,20.74s-9.52,20.74-22.91,20.74h-23.25c-1.43,0-2.38-.95-2.38-2.38V11.63c0-1.43.95-2.38,2.38-2.38h23.32ZM955.79,39.71c0,.82.54,1.36,1.36,1.36h11.97c7.28,0,12.44-4.62,12.44-11.08s-5.17-11.01-12.38-11.01h-12.04c-.82,0-1.36.54-1.36,1.36v19.38Z"/>
      <path class="cls-1" d="M1007.75,9.25c1.43,0,2.38.95,2.38,2.38v20.94c0,6.05,4.56,9.79,11.83,9.79s11.9-3.81,11.9-9.79V11.63c0-1.43.95-2.38,2.38-2.38h6.39c1.43,0,2.38.95,2.38,2.38v22.23c0,11.35-8.7,18.09-23.12,18.09s-23.05-6.73-23.05-18.09V11.63c0-1.43.95-2.38,2.38-2.38h6.53Z"/>
      <path class="cls-1" d="M1062.55,9.25c1.43,0,2.38.95,2.38,2.38v36.72c0,1.43-.95,2.38-2.38,2.38h-6.53c-1.43,0-2.38-.95-2.38-2.38V11.63c0-1.43.95-2.38,2.38-2.38h6.53Z"/>
      <path class="cls-1" d="M1110.15,9.25c1.43,0,2.38.95,2.38,2.38v5.24c0,1.43-.95,2.38-2.38,2.38h-12.58c-.82,0-1.36.54-1.36,1.36v27.74c0,1.43-.95,2.38-2.38,2.38h-6.53c-1.43,0-2.38-.95-2.38-2.38v-27.74c0-.82-.54-1.36-1.36-1.36h-12.58c-1.43,0-2.38-.95-2.38-2.38v-5.24c0-1.43.95-2.38,2.38-2.38h39.16Z"/>
      <path class="cls-1" d="M1148.57,11.35c.68-1.22,2.04-2.11,3.47-2.11h8.63c1.43,0,2.79.88,3.4,2.11l18.63,37.26c.21.34.27.68.27.95,0,.75-.54,1.16-1.56,1.16h-8.5c-.81,0-1.63-.48-1.97-1.22l-2.31-4.56c-.34-.75-1.16-1.22-1.97-1.22h-21.01c-.82,0-1.63.48-1.97,1.22l-2.31,4.56c-.41.75-1.16,1.22-1.97,1.22h-8.09c-1.02,0-1.63-.48-1.63-1.16,0-.27.07-.61.27-.95l18.63-37.26ZM1162.78,34.47c.54,0,.88-.27.88-.68,0-.14-.07-.34-.14-.54l-6.73-13.73c-.21-.34-.41-.54-.61-.54s-.48.2-.61.54l-6.73,13.73c-.14.2-.21.41-.21.61,0,.41.34.61.95.61h13.19Z"/>
      <path class="cls-1" d="M1186.99,11.63c0-1.43.95-2.38,2.38-2.38h5.03c.82,0,1.77.41,2.38.95l24.75,22.78V11.63c0-1.43.95-2.38,2.38-2.38h6.19c1.43,0,2.38.95,2.38,2.38v36.72c0,1.43-.95,2.38-2.38,2.38h-4.35c-.82,0-1.77-.34-2.31-.95l-25.5-23.59v22.17c0,1.43-.95,2.38-2.38,2.38h-6.19c-1.43,0-2.38-.95-2.38-2.38V11.63Z"/>
      <path class="cls-1" d="M1251.32,9.25c1.43,0,2.38.95,2.38,2.38v36.72c0,1.43-.95,2.38-2.38,2.38h-6.53c-1.43,0-2.38-.95-2.38-2.38V11.63c0-1.43.95-2.38,2.38-2.38h6.53Z"/>
      <path class="cls-1" d="M1273.83,9.25c1.43,0,2.92.82,3.74,1.97l13.33,19.92c.2.34.48.54.75.54s.54-.2.82-.54l13.26-19.92c.75-1.16,2.24-1.97,3.67-1.97h7.82c1.43,0,2.38.95,2.38,2.38v36.72c0,1.43-.95,2.38-2.38,2.38h-6.19c-1.43,0-2.38-.95-2.38-2.38v-22.44l-12.78,18.83c-.68,1.02-1.97,1.7-3.2,1.7h-2.24c-1.22,0-2.52-.68-3.2-1.7l-12.78-18.77v22.37c0,1.43-.95,2.38-2.38,2.38h-6.05c-1.43,0-2.38-.95-2.38-2.38V11.63c0-1.43.95-2.38,2.38-2.38h7.82Z"/>
      <path class="cls-1" d="M1342.37,11.35c.68-1.22,2.04-2.11,3.47-2.11h8.63c1.43,0,2.79.88,3.4,2.11l18.63,37.26c.21.34.27.68.27.95,0,.75-.54,1.16-1.56,1.16h-8.5c-.81,0-1.63-.48-1.97-1.22l-2.31-4.56c-.34-.75-1.16-1.22-1.97-1.22h-21.01c-.82,0-1.63.48-1.97,1.22l-2.31,4.56c-.41.75-1.16,1.22-1.97,1.22h-8.09c-1.02,0-1.63-.48-1.63-1.16,0-.27.07-.61.27-.95l18.63-37.26ZM1356.58,34.47c.54,0,.88-.27.88-.68,0-.14-.07-.34-.14-.54l-6.73-13.73c-.21-.34-.41-.54-.61-.54s-.48.2-.61.54l-6.73,13.73c-.14.2-.21.41-.21.61,0,.41.34.61.95.61h13.19Z"/>
      <path class="cls-1" d="M1389.76,9.25c1.43,0,2.38.95,2.38,2.38v27.88c0,.82.54,1.36,1.36,1.36h22.5c1.43,0,2.38.95,2.38,2.38v5.1c0,1.43-.95,2.38-2.38,2.38h-32.77c-1.43,0-2.38-.95-2.38-2.38V11.63c0-1.43.95-2.38,2.38-2.38h6.53Z"/>
      <path class="cls-1" d="M1454.77,0c9.86,0,15.64,4.69,15.64,12.78,0,4.56-1.83,7.55-7.21,11.42-4.35,3.13-6.59,4.62-6.94,9.93,0,.68-.47,1.16-1.16,1.16h-6.87c-.88,0-1.5-.61-1.5-1.5.2-6.8,1.63-9.79,7.75-14.28,3.26-2.38,4.42-3.88,4.42-5.85,0-2.45-1.77-3.81-5.03-3.81s-7.07,1.22-10.2,3.13c-.48.27-.95.41-1.36.41-.68,0-1.22-.41-1.56-1.22l-2.11-5.03c-.2-.41-.27-.82-.27-1.16,0-.95.47-1.84,1.36-2.24,4.21-2.38,9.72-3.74,15.03-3.74ZM1452.39,40.05c3.4,0,5.92,2.24,5.92,5.58s-2.52,5.58-5.92,5.58-5.98-2.24-5.98-5.58,2.58-5.58,5.98-5.58Z"/>
    </g>
  </g>
</svg>