<?xml version="1.0" encoding="UTF-8"?>
<svg id="_Слой_2" data-name="Слой 2" xmlns="http://www.w3.org/2000/svg" viewBox="0 0 757.41 271.95">
  <defs>
    <style>
      .cls-1 {
        fill: #fff;
        stroke-width: 0px;
      }
    </style>
  </defs>
  <g id="Calque_1" data-name="Calque 1">
    <g>
      <path class="cls-1" d="M207.1,5.37c6.81,0,11.47,4.66,11.47,11.47v20.78c0,6.81-4.66,11.11-11.47,11.11H70.59c-3.58,0-6.45,2.51-7.52,6.09l-11.82,53.39c25.08-8.6,54.1-13.62,79.54-13.62,68.08,0,109.28,32.96,109.28,86.71,0,57.69-47.3,90.65-130.42,90.65-34.04,0-67.36-5.73-98.89-16.84-6.45-2.15-10.75-8.24-10.75-15.05v-26.16c0-4.66,2.15-7.17,5.38-7.17,1.43,0,2.87.36,4.66,1.07,27.59,12.54,65.93,20.78,99.25,20.78,49.09,0,78.11-17.56,78.11-47.3,0-27.59-25.08-43.71-67.72-43.71-25.8,0-52.31,6.09-74.89,17.2-2.87,1.43-6.09,2.15-9.32,2.15-3.94,0-7.52-1.08-10.39-3.23l-20.42-13.62c-2.87-1.79-4.3-4.66-4.3-7.52,0-.72.36-1.08.36-1.79L26.16,16.48c1.43-6.81,6.81-11.11,13.62-11.11h167.33Z"/>
      <path class="cls-1" d="M553.22,135.44c0,84.92-60.55,136.16-146.91,136.16s-147.26-51.24-147.26-136.16S319.61,0,406.32,0s146.91,50.88,146.91,135.44ZM311.37,135.44c0,56.25,38.7,92.08,94.95,92.08s94.59-35.83,94.59-92.08-38.7-91.37-94.59-91.37-94.95,35.11-94.95,91.37Z"/>
      <path class="cls-1" d="M605.58,99.84c25.08,0,43.89,16.12,43.89,39.86s-18.81,39.86-43.89,39.86-43.89-16.35-43.89-39.86,18.81-39.86,43.89-39.86ZM605.58,159.18c12.32,0,21.72-8.06,21.72-19.48s-9.41-19.48-21.72-19.48-21.72,7.84-21.72,19.48,9.41,19.48,21.72,19.48ZM725.61,103.19c2.69,0,4.25.9,4.25,2.46,0,.9-.45,2.02-1.34,3.13l-117.12,154.52c-1.34,1.79-3.81,2.91-6.05,2.91h-15.68c-2.69,0-4.25-.9-4.25-2.46,0-.9.45-2.02,1.34-3.14l117.12-154.52c1.34-1.79,3.81-2.91,6.05-2.91h15.68ZM713.52,189.86c25.08,0,43.89,16.35,43.89,39.86s-18.81,39.86-43.89,39.86-43.89-16.12-43.89-39.86,18.81-39.86,43.89-39.86ZM713.52,249.2c12.54,0,21.72-7.84,21.72-19.48s-9.18-19.48-21.72-19.48-21.5,8.06-21.5,19.48,9.18,19.48,21.5,19.48Z"/>
    </g>
  </g>
</svg>