<?xml version="1.0" encoding="UTF-8"?>
<svg id="_Слой_2" data-name="Слой 2" xmlns="http://www.w3.org/2000/svg" viewBox="0 0 123.09 119.06">
  <defs>
    <style>
      .cls-1 {
        fill: #fff;
      }

      .cls-1, .cls-2 {
        stroke-width: 0px;
      }

      .cls-2 {
        fill: #596aa8;
      }
    </style>
  </defs>
  <g id="Calque_1" data-name="Calque 1">
    <g>
      <path class="cls-2" d="M61.54,0C27.55,0,0,27.55,0,61.54v57.52h123.09s0-57.52,0-57.52C123.09,27.55,95.53,0,61.54,0Z"/>
      <path id="CUSTOM" class="cls-1" d="M92.17,50.22s0,0,0,0l-25.11-25.11c-1.07-1.07-2.49-1.66-4.01-1.66s-2.94.59-4.01,1.66l-25.09,25.09s-.02.02-.03.03c-2.2,2.21-2.19,5.8.01,8,1.01,1.01,2.34,1.59,3.76,1.65.06,0,.12,0,.18,0h1v18.48c0,3.66,2.98,6.63,6.63,6.63h9.82c1,0,1.8-.81,1.8-1.8v-14.49c0-1.67,1.36-3.03,3.03-3.03h5.79c1.67,0,3.03,1.36,3.03,3.03v14.49c0,1,.81,1.8,1.8,1.8h9.82c3.66,0,6.63-2.97,6.63-6.63v-18.48h.93c1.51,0,2.94-.59,4.01-1.66,2.21-2.21,2.21-5.8,0-8.01Z"/>
    </g>
  </g>
</svg>