<?xml version="1.0" encoding="UTF-8"?>
<svg xmlns="http://www.w3.org/2000/svg" viewBox="0 0 569.57 360.11">
  <defs>
    <style>
      .cls-1 {
        fill: #f2ecce;
      }

      .cls-1, .cls-2, .cls-3, .cls-4, .cls-5, .cls-6, .cls-7, .cls-8, .cls-9 {
        stroke-width: 0px;
      }

      .cls-10 {
        isolation: isolate;
      }

      .cls-2 {
        fill: #bc9d76;
      }

      .cls-3, .cls-6, .cls-9, .cls-11 {
        mix-blend-mode: multiply;
      }

      .cls-3, .cls-7 {
        fill: #ebd8cd;
      }

      .cls-4 {
        fill: #f8f7ec;
      }

      .cls-5 {
        fill: #52433c;
      }

      .cls-6 {
        fill: #000;
        opacity: .2;
      }

      .cls-8 {
        fill: #7d4e24;
      }

      .cls-9 {
        fill: #e0ccc1;
      }
    </style>
  </defs>
  <g class="cls-10">
    <g id="_Слой_2" data-name="Слой 2">
      <g id="Calque_1" data-name="Calque 1">
        <g>
          <ellipse class="cls-6" cx="260.99" cy="339.2" rx="260.99" ry="20.91"/>
          <path class="cls-1" d="M328.66,224.06c-.59,5.19-1.4,10.41-.92,15.61.37,3.94,1.48,7.78,2.04,11.7,2.23,15.49-4.05,30.77-7.1,46.12-.17.88-.32,1.86.15,2.61.61.96,1.91,1.12,2.98,1.52,4.98,1.82,5.1,8.65,7.11,13.55,3.72,9.05,15.35,12.14,25.02,10.66,2.16-.33,4.65-1.14,5.28-3.23.65-2.16-1.09-4.23-2.62-5.89-14.92-16.19-21.42-40.97-12.57-61.12,1.88-4.27,4.38-8.28,5.76-12.73,1.86-5.98,1.6-12.4,2.58-18.59,1.54-9.72,6.1-18.7,8.36-28.27,2.26-9.58,1.66-20.87-5.49-27.62-4.49-4.23-11.19-5.97-17.17-4.45-9.93,2.53-13.83,10.65-13.11,19.91,1.05,13.46,1.23,26.78-.31,40.22Z"/>
          <path class="cls-2" d="M357.33,312.83c-.3.03-.6.07-.9.11-8.38,1.04-16.99.14-24.99-2.55.45,1.64.88,3.3,1.49,4.78,3.72,9.05,15.35,12.14,25.02,10.66,2.16-.33,4.65-1.14,5.28-3.23.65-2.16-1.09-4.23-2.62-5.89-1.15-1.24-2.24-2.54-3.28-3.88Z"/>
          <path class="cls-9" d="M328.66,224.06c-.59,5.19-1.4,10.41-.92,15.61.37,3.94,1.48,7.78,2.04,11.7,2.23,15.49-4.05,30.77-7.1,46.12-.17.88-.32,1.86.15,2.61.61.96,1.91,1.12,2.98,1.52,4.98,1.82,5.1,8.65,7.11,13.55,3.72,9.05,15.35,12.14,25.02,10.66,2.16-.33,4.65-1.14,5.28-3.23.65-2.16-1.09-4.23-2.62-5.89-14.92-16.19-21.42-40.97-12.57-61.12,1.88-4.27,4.38-8.28,5.76-12.73,1.86-5.98,1.6-12.4,2.58-18.59,1.54-9.72,6.1-18.7,8.36-28.27,2.26-9.58,1.66-20.87-5.49-27.62-4.49-4.23-11.19-5.97-17.17-4.45-9.93,2.53-13.83,10.65-13.11,19.91,1.05,13.46,1.23,26.78-.31,40.22Z"/>
          <path class="cls-1" d="M139.4,182.04c.86-1.22,1.78-2.39,2.74-3.52h-45.15c-.29,1.85-.73,3.56-1.33,5.24-1.26,3.54-3.85,9-8.71,19.27-.37.78-1.12,2.44-2.12,4.72-3.19,7.28-4.79,10.92-4.6,13.96.33,5.51,3.34,7.17,6.04,13.92,2.27,5.67,2.43,10.19,2.68,17.28.47,13.13,1.3,36.01,1.99,65.38,2.8-.13,5.6-.26,8.4-.39-.33,7.09,3.32,14.25,9.26,18.14,5.94,3.89,13.96,4.38,20.33,1.24.72-.36,1.47-.8,1.8-1.53.65-1.4-.48-2.93-1.51-4.08-10.42-11.73-17.38-26.5-19.79-42-4.8-30.91,8.15-61.51,20.8-90.12,2.67-6.03,5.36-12.11,9.16-17.5Z"/>
          <path class="cls-8" d="M52.66,205.82c.48-6.25,2.4-12.28,3.45-18.46,3.33-19.67-2.23-39.58-6.13-59.14-4.7-23.6-9.73-48.21-6.89-71.25.62-5.05,1.98-12.93,8.18-19.26,6.61-6.75,15.27-8.21,19.34-8.61-.14,2.19.05,5.22,1.87,7.86,1.19,1.74,2.31,2.18,2.58,3.49.63,3.07-4.56,6.16-6.27,7.89-9.11,9.21-15.98,21.28-16.47,34.23-.18,4.85.53,9.68,1.23,14.48,2.74,18.67,5.49,37.35,9.13,55.87,1.25,6.34,2.6,12.68,3.25,19.11.61,6.07.6,12.18.58,18.28-.03,11.83.88,26.21-3.9,37.3-8.04-.2-10.38-16.24-9.95-21.79Z"/>
          <path class="cls-2" d="M128.93,337.27c.72-.36,1.47-.8,1.8-1.53.65-1.4-.48-2.93-1.51-4.08-2.39-2.69-4.58-5.54-6.59-8.51-4.05-.39-8.42.25-12.55.22-3.58-.03-7.14-.63-10.54-1.73.84,5.78,4.17,11.2,9.07,14.4,5.94,3.89,13.96,4.38,20.33,1.24Z"/>
          <path class="cls-9" d="M139.4,182.04c.86-1.22,1.78-2.39,2.74-3.52h-45.15c-.29,1.85-.73,3.56-1.33,5.24-1.26,3.54-3.85,9-8.71,19.27-.37.78-1.12,2.44-2.12,4.72-3.19,7.28-4.79,10.92-4.6,13.96.33,5.51,3.34,7.17,6.04,13.92,2.27,5.67,2.43,10.19,2.68,17.28.47,13.13,1.3,36.01,1.99,65.38,2.8-.13,5.6-.26,8.4-.39-.33,7.09,3.32,14.25,9.26,18.14,5.94,3.89,13.96,4.38,20.33,1.24.72-.36,1.47-.8,1.8-1.53.65-1.4-.48-2.93-1.51-4.08-10.42-11.73-17.38-26.5-19.79-42-4.8-30.91,8.15-61.51,20.8-90.12,2.67-6.03,5.36-12.11,9.16-17.5Z"/>
          <path class="cls-3" d="M56.11,187.36c-1.05,6.18-2.97,12.21-3.45,18.46-.43,5.55,1.91,21.59,9.95,21.79,4.78-11.09,3.87-25.47,3.9-37.3.02-6.1.03-12.21-.58-18.28-.65-6.43-2-12.77-3.25-19.11-.68-3.47-1.32-6.94-1.95-10.41-1.56,5.27-3.19,10.52-4.9,15.74,1.41,9.72,1.92,19.45.28,29.11Z"/>
          <path class="cls-4" d="M450.38,160.25c-5.7,6.14-12.86,10.75-18.84,16.63-6.94,6.83-12.15,15.24-19,22.15-6.85,6.91-16.22,12.44-25.86,11.11-12.04-1.66-20.18-13.05-31.2-18.18-10.25-4.77-22.35-3.74-33.14-.36-10.79,3.38-20.75,8.95-31.2,13.25-38.87,15.98-84.92,13.35-121.71-6.95-1.73-.96-3.63-1.98-5.58-1.62-2.25.42-3.67,2.37-4.68,3.93-5.63,8.68-6.38,17.52-6.38,17.52-.65,7.71,1.11,12.17-1.75,14.23-.93.67-2.46,1.16-3.85.74-4-1.21-2.65-9.03-7.72-12-1.97-1.15-4.49-1.32-6.47-.56-3.27,1.24-4.55,4.77-4.82,5.58-1.9,5.76,2.47,10.18-.16,13.64-.18.23-1.13,1.52-2.58,1.78-3.35.6-7.8-4.57-11.07-13.07-2.3-1.14-3.98-2.32-5.12-3.21-1.38-1.09-2.44-2.14-5.28-4.37-.51-.4-.94-.73-1.33-1.03-3.69-2.82-4.76-3.29-6.93-5.87-6.43-7.61-9.12-17.61-11.51-27.28-8.93-36.18-16.02-72.78-23.1-109.36-1.38-7.1-2.75-14.2-4.13-21.3-1.5-7.76-2.56-17.01,3.2-22.42,3.98-3.73,9.91-4.25,15.35-4.52,36.23-1.8,72.56-1.61,108.77.57,21.77,1.31,43.64,3.33,65.32,1.02,16.13-1.72,32.09-5.83,48.3-5.34,10.58.32,21.05,2.6,31.64,2.6,20.21,0,40.07-8.32,60.15-6.01,17.71,2.04,33.87,12.2,51.67,13.15,12.96.69,25.64-3.57,38.56-4.75,2.77-.25,5.76-.31,8.09,1.21,2.69,1.77,3.75,5.14,4.61,8.24,3.46,12.45,6.95,25.06,7.28,37.98.23,8.98-1.15,18.27-5,26.45-3.83,8.13-10.04,8.55-16.1,14.39-12.31,11.86-16.84,29.53-28.43,42.01Z"/>
          <path class="cls-3" d="M164.45,161.78l-5.6-37.43c-12.58.38-24.45,6.61-33.77,15.07-9.32,8.46-16.41,19.06-23.09,29.73-5.73,9.17-11.35,18.99-14.38,29.27,1.89,5.51,4.36,10.75,8.1,15.18,2.18,2.58,3.25,3.04,6.93,5.87.38.29.82.63,1.33,1.03,2.66,2.09,3.76,3.15,5.02,4.17,6.09-28.52,27.76-53.48,55.46-62.88Z"/>
          <path class="cls-4" d="M69.07,161.53c2.09,15.58,2.3,23.47-.28,30.71-1.33,3.73-4.06,9.49-9.19,20.32-.39.82-1.19,2.58-2.24,4.97-3.37,7.68-5.05,11.51-4.85,14.72.35,5.81,3.52,7.56,6.37,14.68,2.39,5.98,2.56,10.74,2.83,18.22.49,13.85,1.37,37.98,2.1,68.94,2.95-.14,5.91-.28,8.86-.41-.35,7.48,3.5,15.02,9.76,19.13,6.27,4.1,14.72,4.62,21.43,1.31.76-.38,1.55-.84,1.9-1.61.68-1.48-.51-3.09-1.59-4.31-10.99-12.37-18.33-27.94-20.87-44.29-5.06-32.59,8.59-64.86,21.94-95.03,2.81-6.36,5.66-12.77,9.66-18.46,7.93-11.25,20.47-19.21,34.07-21.33,8.9-1.38,19.62-1.15,24.67-8.6,1.85-2.73,2.53-6.07,3.08-9.33,3.43-20.35,3.21-41.31-.66-61.58-2.47-12.92-6.79-26.19-16.45-35.11-2.66-2.46-8.6-7.42-20.19-11.21-31.93-10.43-70.84-.33-83.61,3.36.76,18.02,2.29,32.51,3.48,42.07,5.5,44.15,8.88,66.11,9.79,72.83Z"/>
          <g>
            <path class="cls-8" d="M479.93,29.96c-12.92,1.18-25.6,5.44-38.56,4.75-17.8-.95-33.96-11.11-51.67-13.15-6.61-.76-13.2-.36-19.79.5-5.25,2.58-11.04,4.51-16.45,6,7.03,11.14-12.16,23.34-10.1,36.35.93,5.87,6.1,10.28,7.49,16.06,1.47,6.09-1.23,13.48,2.91,18.17,2.79,3.17,7.47,3.55,11.55,4.63,4.08,1.08,8.56,4.22,7.89,8.39-.27,1.69-1.36,3.12-2.53,4.36-11.71,12.43-35.14,10.1-44.16-4.4-9.64-15.49-2.91-37.65-13.78-52.3,11.61-8.49,21.18-19.71,27.81-32.46-3.66.44-7.32.71-11,.72-10.59,0-21.05-2.28-31.64-2.6-13.8-.42-27.43,2.5-41.12,4.43-.69,1.18-1.14,2.51-1.3,4.02-.71,6.78,5.3,14.72.59,19.65-4.2,4.39-14.05,1.96-15.54,7.85-.94,3.71,2.93,7.04,3.01,10.87.09,4.27-4.8,7.25-9.05,6.81-4.25-.45-7.85-3.2-11.2-5.86-2.38-1.89-4.84-3.87-6.16-6.61-3.47-7.18,2.49-15.53,9.29-19.7,6.8-4.17,14.99-6.56,20.1-12.68.88-1.06,1.64-2.2,2.35-3.38-21.45,2.19-43.08.2-64.6-1.09-11.67-.7-23.36-1.18-35.05-1.46-1.73,10.65-12.59,19.97-23.77,18.95-4.85-.44-9.49-2.38-14.35-2.59-9.41-.41-19.04,7.54-18.5,16.95.54,9.41,13.5,16.02,20.5,9.7,4.3-3.89,5.83-11.19,11.46-12.57,4.97-1.22,9.39,3.18,12.63,7.14,2.57,3.15,5.15,6.3,7.72,9.45,1.12,1.37,2.28,2.82,2.63,4.55.86,4.17-3.03,7.59-5.52,11.05-3.64,5.05-4.58,11.92-2.45,17.76-10.91,3.14-19.51,11.36-27.63,19.3-1.75,1.71-3.55,3.5-4.36,5.8-2.34,6.62,4.46,12.92,10.98,15.53,9.13,3.66,19.37,4.49,28.97,2.35,4.25-.95,8.8-2.85,10.56-6.82,2.17-4.89-.78-10.36-1.79-15.61-1.01-5.25,2.64-12.55,7.66-10.71-1.44,4.78,3.39,9.09,7.98,11.06,4.59,1.97,10.05,3.54,12.18,8.06.84,1.79,1.02,3.82,1.79,5.64,3.17,7.46,14.41,7.35,20.99,2.61,6.58-4.74,10.56-12.3,16.61-17.69,6.05-5.4,16.43-7.94,21.74-1.82-.54-13.62,5.54-27.36,16-36.11.44,4.87,6.03,7.91,10.9,7.4,4.86-.51,9.06-3.49,13.01-6.38,1.48,12.77,3.6,25.47,6.36,38.03.77,3.48,1.86,7.35,4.97,9.1,5.28,2.97,11.3-2.25,15.1-6.97,6.37,3.32,8.75,11.01,11.3,17.72,2.54,6.71,7.11,14.07,14.28,14.44,3.82.2,8.15-1.62,11.2.7,2.04,1.54,2.66,4.45,4.67,6.02,3.86,3,9.32-.67,14.21-.52,7.29.22,11.55,9.42,14.05,14.12,5.61,10.52,3.28,17.18,8.64,20.03,3.7,1.97,9.55,1.31,10.78-1.53.9-2.06-.66-5.23-3.6-7.84-4.33-11.97-3.43-22.54,1.87-25.99,2.46-1.6,5.5-1.42,7.83-1.28,8.89.53,14.87,6.07,16.95,8.21.29-5.71,7.85-8.57,13.18-6.5.91.36,1.77.81,2.58,1.32,3.74-3.05,7.5-6.08,10.79-9.61,6.18-6.66,10.36-14.79,14.78-22.74-.83-.8-1.65-1.62-2.42-2.49-7.82-8.94-7.54-23.85.62-32.49-4.17-8.4-1.85-19.52,5.33-25.56l15.45-47.08c-1.39-.14-2.83-.07-4.21.06Z"/>
            <path class="cls-8" d="M85.07,154.94c1.34-2.72.51-4.53-.01-9.46-.81-7.61,5.19-14.53,5.14-22.18-.05-6.57-4.47-12.15-7.65-17.9-12-21.69-6.52-49.94,8.19-69.89,1.99-2.7,4.16-5.3,6.59-7.61-5.29-.07-12.79.03-21.79.82-13.61,1.19-15.72,2.65-16.88,3.7-5.29,4.75-4.49,13.18-3.18,28.13,3.58,40.74,1.87,30.13,3.11,37.96,3.93,24.76,7.49,45.8,10.49,63.02,6.19-.34,13.58-1.69,16-6.59Z"/>
          </g>
          <path class="cls-8" d="M531.85,44.64c3.1-.65,6.23.68,9.38,1.02,9.19,1,16.97-6.28,23.33-12.99,1.85-1.95,3.74-3.99,4.61-6.53.86-2.54.38-5.75-1.83-7.28-1.29-.89-2.93-1.08-4.5-1.23-6.54-.66-13.58-1.21-19.24,2.12-4.9,2.88-8.45,8.51-14.09,9.2-1.55.19-3.31-.13-4.27-1.36-.66-.86-.82-1.99-1.03-3.05-.89-4.43-5.31-10.89-9.55-13.92-5.19-3.72-10.81-3.68-16.54-3.63-5.09.04-11.47.1-17.3,4.03-3.66,2.46-7.21,6.52-14.17,14.48-1.24,1.41-4.17,5.02-6.37,4-.66-.31-1.17-.86-1.68-1.39-7.52-7.72-19.49-10.74-29.77-7.53-1.62.51-3.32,1.26-4.13,2.75-.75,1.36-.58,3.04-.25,4.56,1.51,7.08,6.05,13.45,12.25,17.19,6.2,3.73,13.96,4.77,20.92,2.79,2.86-.81,6.56-1.85,8.31.55.68.93.81,2.13.88,3.27.72,11.53-2.58,23.67,1.78,34.37,2.52,6.18,7.31,11.09,11.15,16.54,3.84,5.45,6.84,12.26,5.02,18.68-.62,2.18-1.75,4.63-.55,6.56.64,1.02,1.78,1.59,2.9,2.04,10.15,4.13,21.59,2.82,32.46,1.43,2.28-.29,4.86-.76,6.11-2.69,1.13-1.75.72-4.04.28-6.08-1.01-4.6-2.02-9.19-3.03-13.79-.39-1.76-.77-3.53-.98-5.32-.65-5.52.41-11.08,1.46-16.54,1.29-6.72,2.58-13.44,3.88-20.16.89-4.63,1.8-9.42,1.04-14.14-.53-3.29-.78-7.05,3.52-7.95Z"/>
          <path class="cls-2" d="M472.52,24.59c2.79-.79,4.42-2.62,5.08-3.34,3.36-3.64,3.46-8.47,3.46-9.64-2.28-.48-4.1-.82-5.28-1.03,0,0-1.63-.29-7.51-2.26-.25-.08-.7-.28-.98-.71-.59-.87.09-2.02.76-2.83.65-.8,1.3-1.6,1.95-2.4.35-.43.72-.94.63-1.49-.2-1.11-1.84-1.02-2.87-.55-3.96,1.8-7.35,4.84-9.58,8.58-.91,1.53-1.65,3.29-1.39,5.06.34,2.35,2.32,4.08,4.19,5.55,2.8,2.19,5.73,4.33,9.07,5.5.83-.06,1.67-.2,2.47-.43Z"/>
          <path class="cls-2" d="M537.61,8.74c-1.5-2.37-3.94-4-6.46-5.23-.72-.35-1.81-.55-2.12.19-.34.83.82,1.41,1.38,2.11.82,1.02-.17,2.63-.72,3.37-.58.78-1.72,1.63-6.48,1.79-2.1.07-5.13.01-8.79-.63-.1,1.36-.04,3.1.55,4.99,1.93,6.24,7.92,8.89,9.11,9.39,3.71-1.32,7.26-3.05,10.58-5.16,1.23-.78,2.46-1.65,3.26-2.86,1.55-2.34,1.18-5.59-.32-7.96Z"/>
          <path class="cls-4" d="M513.98,103.67c-2.73-1.93-3.78-4.57-5.28-8.33-2.34-5.87-1.93-11.38-1.12-18.17,1.97-16.52,3.3-27.66,6.02-38.24,0,0,1.07-4.17,1.06-9.91,0-4.66-.74-6.8-1.69-8.42-.38-.64-.79-1.2-1.21-1.69-2.84,1.07-5.71,2-8.79,2.18-2.3.13-4.6.08-6.9.29-1.84.17-4.62.4-5.8,2.06-.21.3-.6.54-.99.4-1.97-.7-4.02-1.2-6.06-1.74-2.19,4.78-2.08,10.66.62,15.77,1.89,4.25,3.78,8.5,5.67,12.75,2.12,3.9,4.25,7.79,6.37,11.69l8.5,33.64c-.62,2.61-2.06,7.16-5.67,11.69-2.87,3.61-6.01,5.82-8.14,7.08,1.72-.17,4.06-.21,6.73.35,4.88,1.03,8.24,3.51,9.92,4.96,3.76-2.14,6.92-3.61,9.21-4.6,2.56-1.11,4.64-1.86,5-3.56.28-1.28-.55-2.47-1.24-3.45-1.95-2.74-4.22-3.32-6.21-4.73Z"/>
          <path class="cls-5" d="M525.87,53.8c-.52.18-.9.63-1.25,1.06-.71.87-1.43,1.75-1.94,2.75-.51,1-.82,2.15-.64,3.26,1.44.48,3.13.93,4.36.05,1.06-.76,1.32-2.22,1.32-3.52,0-1.05.2-4.32-1.85-3.6Z"/>
          <path class="cls-5" d="M479.46,57.45c-.8-1.45-2.18-2.6-3.8-2.95-.57-.12-1.19-.14-1.71.13-.52.27-.87.8-1.1,1.34-.53,1.3-.46,2.84.2,4.09.66,1.25,1.88,2.18,3.26,2.48,1.3.28,2.75.13,4.07.12-.04-1.76-.02-3.58-.92-5.21Z"/>
          <path class="cls-5" d="M521.18,118.47c-.55-.37-1.92.79-2.52,1.29-1.05.88-2.53,2.46-3.6,5.19.95-.08,3.77-.46,5.31-2.68.95-1.37,1.4-3.41.81-3.8Z"/>
          <path class="cls-5" d="M500.35,123.95c-2.05-2.12-3.92-3.25-5.94-4.32-.47-.25-1.05-.47-1.71-.36-.58.1-1.13.62-1.05,1.21.04.3.23.55.41.78,2.63,3.44,3.39,4.17,5.19,4.45,1.55.24,3.38-.29,3.51-.99.05-.29-.2-.56-.41-.78Z"/>
          <path class="cls-2" d="M99.78,342.8c-2.71-.11-5.43.37-8.13.65-5.88.59-11.85.16-17.58-1.24,1.61,4.29,4.54,8.09,8.37,10.6,6.26,4.1,14.72,4.62,21.43,1.31.76-.38,1.55-.84,1.9-1.61.68-1.48-.51-3.09-1.59-4.31-1.54-1.74-3-3.54-4.4-5.4Z"/>
          <path class="cls-3" d="M444.78,157.44c-3.31,2.13-6.96,3.66-10.29,5.76-8.34,5.25-14.17,13.71-22.07,19.61-12.07,9.02-28.88,11.27-42.89,5.72-5.03-1.99-9.67-4.89-14.74-6.76-14.98-5.53-31.88-1.45-46.33,5.35-14.45,6.8-27.62,16.23-42.45,22.15-6.14,2.45-12.47,4.27-18.91,5.65,15.1-.97,30.04-4.3,44.05-10.06,10.46-4.3,20.41-9.86,31.2-13.25,10.79-3.38,22.89-4.41,33.14.36,11.02,5.13,19.16,16.52,31.2,18.18,9.64,1.33,19.01-4.2,25.86-11.11,6.85-6.91,12.06-15.32,19-22.15,5.97-5.88,13.14-10.49,18.84-16.63,9.28-9.99,14.04-23.3,21.89-34.3-9.72,9.97-15.72,23.92-27.49,31.49Z"/>
          <path class="cls-4" d="M388.34,234.58c.35,7.31,1.17,14.96-1.77,21.67-1.01,2.31-2.46,4.46-3.03,6.92-.75,3.25.12,6.63.98,9.86,2.6,9.68,5.21,19.41,9.21,28.6,4.24,9.73,10.02,18.78,17.06,26.71.94,1.06,1.98,2.42,1.49,3.76-.31.86-1.17,1.37-1.99,1.78-6.97,3.47-15.46,3.74-22.63.71-3.48-1.46-6.88-4-7.74-7.67-.61-2.6.16-5.31.01-7.98-.15-2.66-1.88-5.7-4.55-5.59-2.13.08-4.19,2.16-6.1,1.22-.09-10.06-.18-20.12-.27-30.18-.06-6.78-.13-13.61-1.53-20.24-2.39-11.28-8.6-21.77-8.97-33.3-.27-8.29,2.53-16.69.65-24.77-2.52-10.85-12.73-18.23-17.05-28.5-5.29-12.54-.61-27.7,8.76-37.58,9.37-9.88,22.59-15.22,35.84-18.31,7.71-1.8,17.38-2.21,21.86,4.31,3.06,4.45,2.33,10.45.91,15.66-4.09,14.95-11.23,28.31-15.46,43.3-4.54,16.09-6.5,32.92-5.69,49.62Z"/>
          <path class="cls-2" d="M410.3,333.86c.82-.41,1.67-.92,1.99-1.78.49-1.33-.55-2.69-1.49-3.76-2.09-2.35-4.05-4.81-5.91-7.35-8.29,1.16-16.8.72-24.94-1.27,0,2.41-.57,4.85-.02,7.2.86,3.67,4.26,6.21,7.74,7.67,7.18,3.02,15.66,2.75,22.63-.71Z"/>
          <path class="cls-8" d="M399.12,170.11c9.31-12.45,11.82-23.79,12.62-30.2.81-6.51,1.51-12.84-2.32-17.09-5.04-5.59-14.72-4.05-22.98-2.74-5.51.88-24,4.11-38.02,19.83-5.94,6.66-13.64,18.44-10.67,22.02.62.75,1.58.99,2.32,1.08,1.21-1.3,3.22-3.14,6.13-4.56,1.04-.51,10.73-5.61,14.9-.89,2.45,2.76,2.56,7.48,5.84,9.18,2.61,1.36,3.81-.39,8.23.04,7.14.69,8.81,5.86,14.96,6.23,2.06.12,5.12-.26,8.99-2.9Z"/>
          <path class="cls-3" d="M401.21,111.96c.99,2.86,1.22,5.92,1.45,8.94.63,8.3,1.25,16.6,1.88,24.9,2.9-9.67,5.32-19.48,7.25-29.38,1.37-7.03,2.38-14.76-1.17-20.97-2.56-4.48-7.09-7.41-11.45-10.17-7.98-5.05-15.96-10.1-23.94-15.15,5.58,3.53,7.42,15.92,10.67,21.49,4.31,7.38,12.45,12.02,15.32,20.34Z"/>
          <path class="cls-3" d="M175.06,34.43c6.3-1.51,12.59-3.02,18.89-4.53-3.22-.21-6.43-.42-9.65-.61-36.21-2.18-72.54-2.37-108.77-.57-3.49.17-7.17.45-10.42,1.61,2.39.59,4.71,1.41,6.93,2.57,8.94,4.68,14.57,13.78,19.59,22.53,16.05,27.97,30.47,56.89,43.14,86.54-3.65-16.37-5.54-33.14-5.64-49.91-.09-15.26,1.89-31.88,12.61-42.74,8.67-8.78,21.32-12.02,33.32-14.89Z"/>
          <g class="cls-11">
            <path class="cls-7" d="M472.02,81.9c-2.75-5.16-3.78-11.03-4.77-16.79-.18-1.06-.37-2.13-.55-3.19-.45,8.28-1.19,16.57,1.89,24.14,2.52,6.18,7.31,11.09,11.15,16.54,3.84,5.45,6.84,12.26,5.02,18.68-.62,2.18-1.75,4.63-.55,6.56.09.15.22.27.33.4.7-3.67,1.29-7.36,1.76-11.07.58-4.57.96-9.28-.3-13.71-2.36-8.28-9.93-13.95-13.98-21.55Z"/>
          </g>
          <path class="cls-3" d="M564.56,32.67c1.85-1.95,3.74-3.99,4.61-6.53.86-2.54.38-5.75-1.83-7.28-.35-.24-.72-.42-1.11-.58-5.71.51-11.31,1.66-16.1,4.71-5.73,3.64-9.87,9.78-16.25,12.1-2.58.94-5.81,1.54-6.82,4.09-.4,1.03-.33,2.18-.22,3.28.25,2.47.66,4.93,1.19,7.36-.03-2.38.69-4.53,3.81-5.18,3.1-.65,6.23.68,9.38,1.02,9.19,1,16.97-6.28,23.33-12.99Z"/>
          <path class="cls-3" d="M459.59,38.25c-9.17-7.41-20.37-12.28-32.05-13.94-.89-.13-1.92-.2-2.58.41-.6.55-.68,1.45-.68,2.28.05.3.1.6.16.89,1.51,7.08,6.05,13.45,12.25,17.19,6.2,3.73,13.96,4.77,20.92,2.79,2.86-.81,6.56-1.85,8.31.55.68.93.81,2.13.88,3.27.05.83.08,1.67.09,2.51.07-2.93.02-5.91-1.1-8.59-1.25-2.99-3.69-5.32-6.21-7.35Z"/>
        </g>
      </g>
    </g>
  </g>
</svg>