<?xml version="1.0" encoding="UTF-8"?>
<svg id="_Слой_2" data-name="Слой 2" xmlns="http://www.w3.org/2000/svg" viewBox="0 0 206.79 233.79">
  <defs>
    <style>
      .cls-1 {
        fill: #c5453b;
      }

      .cls-1, .cls-2, .cls-3, .cls-4, .cls-5, .cls-6, .cls-7, .cls-8, .cls-9, .cls-10, .cls-11, .cls-12, .cls-13, .cls-14, .cls-15, .cls-16, .cls-17, .cls-18 {
        stroke-width: 0px;
      }

      .cls-2 {
        fill: #b85742;
      }

      .cls-3 {
        fill: #56baa3;
      }

      .cls-4 {
        fill: #f28f2e;
      }

      .cls-5 {
        fill: #324891;
      }

      .cls-6 {
        fill: #e9af55;
      }

      .cls-7 {
        fill: #ee745a;
      }

      .cls-8 {
        fill: #c0783d;
      }

      .cls-9 {
        fill: #fff;
      }

      .cls-10 {
        fill: #264791;
      }

      .cls-11 {
        fill: #e0680e;
      }

      .cls-12 {
        fill: #cf8e55;
      }

      .cls-13 {
        fill: #f7cc7f;
      }

      .cls-14 {
        fill: #dfeffb;
      }

      .cls-15 {
        fill: #d8e9f9;
      }

      .cls-16 {
        fill: #203865;
      }

      .cls-17 {
        fill: #21366c;
      }

      .cls-18 {
        fill: #3c8f7c;
      }
    </style>
  </defs>
  <g id="Calque_1" data-name="Calque 1">
    <g>
      <g>
        <g>
          <path class="cls-7" d="M179.92,125.98l-3.69-7.8-9.73,9.11,7.54,3.68s.89-5.53,5.88-5Z"/>
          <path class="cls-4" d="M197.51,164.47c-1.66-7.47-6.13-26.33-6.13-26.33,0,0,13.31-5.36,14.72-7.48.96-1.44.64-10.44.64-10.44l-16.26.19-4.04-3.45s-10.93-.7-14.4,4.5c-1.11,1.66-2.25,3.98-2.3,6.73-.02,1.44.71,4.19,1.11,6.7,1.37,8.49-2.24,13.34-4.35,16.62l10.49-4.11"/>
          <path class="cls-11" d="M164.38,130.57s5.92,7.64,10.38,8.06c4.47.41,3.66-21.21,3.66-21.21,0,0-6.35-.96-10.28,4.95-1.55,2.34-3.76,8.2-3.76,8.2Z"/>
        </g>
        <path class="cls-14" d="M164.28,144.54l-1.7,2.41,4.12,3.06.55-1.06-2.97-4.4ZM163.63,147.08l.86-1.05,2.02,2.9-2.88-1.85Z"/>
        <polygon class="cls-14" points="129.29 113.21 128.58 114.34 163.5 146.44 164.22 145.3 129.29 113.21"/>
        <path class="cls-11" d="M160.29,220.63l-3.47,1.25,9.58.57c2.77,0,5.37,1.3,6.98,3.49h0c.3.4.46.89.46,1.39v1.78l-27.57-.82s-3.96-18.04-3.36-18.82c.61-.78,15.43-17.73,15.43-17.73,0,0,12.41,10.41,8.08,21.68-1.15,3-3.35,5.51-6.14,7.21Z"/>
        <path class="cls-4" d="M166.9,151.01s-30.51,31.64-34.36,38.08c-3.86,6.44-7.17,17.14-7.17,17.14,0,0-10.85,8.35-19.72,6.96-8.88-1.39-13.18-7.83-13.18-7.83.9,6.61,9.95,12.7,20.35,13.92,10.4,1.22,14.17-4.52,16.05-5.39,1.88-.87,3.94-.43,3.94-.43.27,4.18,6.01,7.74,6.01,7.74l-1.23,1.73c-.37.52-.54,1.14-.49,1.76l.36,4.43,30.32.87c-.06-2.25-1.17-4.36-3.02-5.72-1.01-.75-2.24-1.18-3.51-1.23l-13.47-.61,1.79-2c9.68-6.96,4.03-16.7,4.03-16.7,0,0,10.85,0,16.41-3.13,5.56-3.13,8.34-7.26,8.34-7.26l2.93,24.3c.46,3.85,1.75,7.56,3.79,10.9l.41.68h9.14s.81-2.61.27-3.39c-.54-.78-6.59-3.26-6.59-3.26l1.34-32.49s1.68-2.92,3.52-6.84l-.08,1.99c4.94-5.69,4.19-11.18,4.01-12.14,0-.02.01-.05.02-.07l2.06,3.5s2.98-5.08-.66-8.85c0,0,1.08.04,1.99,1.2,0,0,0-4.1-4.5-12.11-.82-1.72-2.37-7.73-3.06-11.68-.24-1.39-1.01-3.05-.98-3.66"/>
        <path class="cls-1" d="M193.03,143.37s-13.45,5.74-25.04,4c0,0-2.31,2.01-2.14,4.55,0,0,16.23,1.73,27.7-3.75,0,0,1.36-2.8-.52-4.8Z"/>
        <path class="cls-2" d="M189.93,180.1c-1.66,4.33-.14.36-1.27,3.33-1.94-3.83-2.55-9.26-2.99-13.58-1.09,2.55-2.07,7.18-2.6,9.2.74-4.19-2.33-10.66-4.24-14.42,0,.02-1.33,3.59-1.87,5.06-.87-1.7-2.69-5.51-2.72-7.45-.04-1.99,1.03-4.73,1.92-6.51-1.07,1.81-2.26,4.44-2.32,6.51-.08,2.85,3.02,8.73,3.21,9.17,2-5.05.63-1.61,1.88-4.79,1.49,3.22,4.45,9.94,3.92,13.25,1.42-1.81,2.23-4.92,2.58-7.19-.11,8,3.27,11.45,3.32,11.56,0,.02.08-.24,1.22-3.82.29.39.89,1.21,1.08,1.65-.06-.17-.82-1.49-1.13-1.96Z"/>
        <g>
          <path class="cls-12" d="M120.28,104.65c-1.27-1.06-3.98-3.39-3.74-3.63.32-.31,1.51-.09,1.88.05.38.14.83.27,1.2.4.38.14.79-.02,1-.46.21-.44-1.16-1.31-1.7-1.52-1.67-.65-6.5-1.51-7-1.63-.6-.13-7.47-8.26-10.06-10.86h0c-4.1-4.38-8.08-9.09-8.51-9.55l-11.22-22.88-10.24.73s12.09,25.56,12.84,26.77c.36.58,10.67,10.02,10.67,10.02,5.38,4.34,10.13,8.15,11.02,8.91,0,0,2.04,2.96,3.22,4.92.76,1.26,1.81,2.26,2.58,2.95,2.13-1.86,4.83-2.43,7.34-3.74.25-.15.49-.31.72-.47Z"/>
          <path class="cls-2" d="M77.22,36.87s7.92,3.67,11.82,26.52l-13.42,3.63-5.59-14.73,7.19-15.42Z"/>
        </g>
        <polygon class="cls-13" points="129.29 106.4 127.61 104.72 118.01 101.32 107.15 106.4 119.79 118.81 120.71 115.79 112.77 108.15 119.07 104.14 120.01 104.67 123.29 106.52 129.29 106.4"/>
        <path class="cls-6" d="M135.58,113.32c0,4.77-3.99,8.64-8.91,8.64s-8.91-3.87-8.91-8.64,3.99-8.64,8.91-8.64,8.91,3.87,8.91,8.64Z"/>
        <path class="cls-13" d="M131.2,113.21c0,2.63-2.2,4.77-4.92,4.77s-4.92-2.14-4.92-4.77,2.2-4.77,4.92-4.77,4.92,2.14,4.92,4.77Z"/>
        <path class="cls-8" d="M117.76,98.88s2.75,4.98,2.47,5.92c-.15.51-4.5,3.48-7.03,3.48s.48-5.29,1.02-4.76c.54.52.19,1.71.19,1.71,0,0,.46-3.64,1.07-4.23.61-.59.84.66.84.66,0,0-.91-3.1,0-3.38.91-.28,1.45.61,1.45.61Z"/>
        <g>
          <path class="cls-16" d="M65.6,1.16c-19.77,5.45-32.12,24.63-35.04,43.46-1.16,7.48.41,15.88,5.14,22.01,5.82,7.55,15.55,8.84,24.2,4.99,7.89-3.51,10.24-10.68,16.01-16.22,3.01-2.89.2-17.29,2.76-20.55,4.54-5.79,9.85-13.18,9.38-20.79-.79-12.62-10.42-16.21-22.45-12.9Z"/>
          <path class="cls-12" d="M33.88,207.39s-.89,8.58-3.18,10.16c-2.29,1.58-5.34,7.41-3.81,10.56.48.99,1.43,1.55,2.52,1.87,3.21.94,6.63-.64,8-3.56.76-1.63,1.44-3.81,1.57-6.55.34-6.98,2.63-10.52,2.63-10.52l-7.73-1.96Z"/>
          <path class="cls-12" d="M69.04,210.91s.72,8.66.14,11.48c-.31,1.51-2.06,4.61-1.26,6.03.8,1.42,1.72,1.77,1.72,1.77l20.76.32c1.13.02.38-.67-.53-1.31-1.49-1.04-2.7-1.73-7.46-3.91-.31-.14-1.44-.82-1.85-1.06-1.04-.6-2.07-1.54-2.97-2.49-1.49-1.57-1.62-9.2-1.62-9.2l-6.92-1.63Z"/>
          <path class="cls-18" d="M85.27,95.77s1.48,13.88.9,23.28c-.58,9.35-9.95,94.69-9.95,94.69l-9.15.49s-1.92-35.7-1.58-40.66c.34-4.97,3.06-13.27,3.06-13.27l-.91-28.82,11.55-37.87,6.09,2.17Z"/>
          <path class="cls-3" d="M58.36,92.81s-7.21,10.28-8.92,18.8c-1.72,8.51,1.26,34.67-2.04,45.82-1.79,6.04-8.56,15.36-9.59,23.16-1.03,7.8-5.07,28.24-5.07,28.24l9.15,1.72,21.26-51.04,15.39-42.57c.86-2.37,1.51-4.81,1.96-7.28l3.6-20.04-25.74,3.19Z"/>
          <path class="cls-7" d="M64.2,34.29s-7.33.54-10.09,4.58c-3.03,4.45,6.1,35.26,6.79,40.22.69,4.96-4.53,16.8-4.53,16.8,0,0,22.49,3.89,28.9-.13,0,0,.69-35.7,0-39.25-.69-3.55-6.41-17.97-7.78-19.39-1.37-1.42-13.29-2.84-13.29-2.84Z"/>
          <path class="cls-12" d="M67.38,22.21s-.05.27-.14.72c-.43,2.17-2.06,9.39-3.17,11.37-1.34,2.4,4.58,10.04,10.27,9.11,1.7-.28-1.43-7.02-1.28-7.74.29-1.37.68-3.23,1.08-5.15.23-1.08.45-2.17.67-3.2.61-2.92,1.11-5.31,1.11-5.31l-8.53.2Z"/>
          <path class="cls-8" d="M67.24,22.93c.09-.45.14-.72.14-.72l8.53-.2s-.5,2.39-1.11,5.31c-.21,1.02-.44,2.11-.66,3.18-1.32-.18-2.69-.79-4.08-1.94-1.5-1.25-2.49-2.75-3.09-4.35.11-.51.19-.95.26-1.29Z"/>
          <path class="cls-12" d="M77.4,5.73s-3.5-.22-6.61,2.32c-3.11,2.54-7.73,11.38-2.66,17.69,5.07,6.31,12.34,1.74,14.52-4.2,2.18-5.94,3.74-14.26-5.25-15.81Z"/>
          <path class="cls-16" d="M78.67,6.02s-7.95,8.34-11.8,8c-3.85-.33-6.21,2.6-6.21,2.6,0,0,3.63-10.64,7.8-12.01,4.17-1.37,10.21,1.41,10.21,1.41Z"/>
          <path class="cls-18" d="M38.03,224.89c-4.99.86-8.3-1.9-10.03-3.97-1.27,2.35-2.04,5.27-1.11,7.2.82,1.7,3.06,2.16,4.95,2.23,2,.07,3.87-.92,4.86-2.57.46-.77.94-1.73,1.34-2.88Z"/>
          <path class="cls-18" d="M80.55,224.22c-5.49,1.34-9.55.43-11.82-.44-.59,1.57-1.36,3.55-.95,4.68.5,1.39,1.22,1.71,1.86,1.72,5.01.12,18.37.29,22.19.34.53,0,.83-.59.49-.97-.95-1.07-11.35-5.1-11.76-5.34Z"/>
          <path class="cls-12" d="M67.27,15.19c.31,1.61-.32,3.09-1.4,3.31-1.09.21-2.22-.93-2.54-2.54-.31-1.61.32-3.1,1.4-3.31,1.09-.21,2.22.92,2.54,2.54Z"/>
          <path class="cls-12" d="M73.02,125.19s-.81-1.27-1.05-1.72c-.28-.52-.98-2.13-.98-2.13,0,0-2.18-5.73-1.73-5.85s1.4.68,1.66.99c.26.31.6.65.87.96.26.31.72.38,1.14.1.42-.28-.35-1.73-.72-2.18-1.16-1.41-5.03-4.59-5.43-4.94-.47-.42-2.35-11-3.29-14.58,0,0-2.21-15.11-2.35-15.73l1.78-22.66-12.2-9.73s1.7,32.93,1.74,34.37c.02.69,7.34,27.21,7.74,28.32,0,0,.27,3.62.29,5.94.03,2.31,1.02,4.44,1.14,5.1.02.1.27,2.35,1.63,4.83,1.17,2.14,1.08-.4,1.08-.4,0,0-1.42-4.33-1.05-4.38.29-.04.92,2.37,2.19,4.75.33.61.65,1.21.95,1.76.79,1.45,1.94,1.39,1.37-.25-.2-.58-.57-1.53-.93-2.18-.39-.7-.51-1.46-.74-2.09-.46-1.26-.82-2.17-.75-2.16.08.01.18-.3.54.34.44.77,1,2.6,1.74,3.68.42.61,1.21,1.94,1.21,1.94,0,0,1.53,2.03,1.68,1.97.76-.29.1-2.04-.59-2.8-.18-.7-1.05-2.08-1.05-2.08,0,0-1.12-3.17-.66-3.33.38-.13,4.6,6.97,5.34,6.62.61-.28-.56-2.47-.56-2.47Z"/>
          <path class="cls-2" d="M49.96,67.66s13-1.7,14.92-3.58c0,0-1.82-24.59-5.53-26.65-3.7-2.06-7.01,1.82-8.53,7.18-1.52,5.36-1.6,21.3-.86,23.05Z"/>
        </g>
        <g>
          <path class="cls-12" d="M39.89,117.71l-10.13,5.03-2.03-6.82s1.29-2.36,1.88-6.23c.24-1.63.37-3.52.21-5.62l8.26,4.1s-.2.74-.33,1.83c-.14,1.18-.2,2.77.14,4.29.3,1.3.9,2.54,2.01,3.42Z"/>
          <path class="cls-8" d="M37.88,114.29c-4.69-.12-8.28-4.61-8.28-4.61l8.14.32c-.14,1.18-.2,2.77.14,4.29Z"/>
          <path class="cls-12" d="M39.87,112.23s-12.35,1.46-12.62-6.98c-.26-8.44,4.88-13.91,8.32-13.85,6.85.12,7.98,2.81,8.78,5.61.79,2.8,1.2,14.63-4.48,15.23Z"/>
          <path class="cls-9" d="M36.57,107.36s.27,1.05,2.97.86c0,0,2.27-.16,2.19-1.32,0,0-2.21-.8-5.16.46Z"/>
          <path class="cls-5" d="M29.54,110.06s-8.12-5.79-8.12-12.68c0-8.55,5.43-10.89,13-11.3,7.57-.42,12.96,5.8,10.93,9.01-2.03,3.21-4.53,2.45-9.31,1.93-4.78-.52-4.58,3.75-6.61,3.54-2.03-.21-2.62-.89-2.78.47-.16,1.35,2.11,1.79,1.72,3.13-.73,2.49,1.18,5.91,1.18,5.91Z"/>
          <path class="cls-12" d="M29.48,101.18s-1.65-2.11-2.78-1.56-.04,3.67.81,4.1c.85.43,1.78.74,1.98.55.2-.2,0-3.09,0-3.09Z"/>
          <path class="cls-17" d="M25.22,116.64s-9.89-3.84-17.79.19c-7.89,4.03-14.97,39.79,9.22,44.33h0s22.7,24.02,8.57-44.53Z"/>
          <path class="cls-12" d="M52.28,172.98l-.6-2.12s-2.9-.28-2.94-.23l.26,6.4s1.5-.32,2.04-.93l1.06-1.72c.26-.4.18-1.4.18-1.4Z"/>
          <path class="cls-9" d="M44.75,118.19s3.54-.18,5.53,4.36c4.11,9.4,2.33,29.68,2.08,32.58,0,0,1.41,5.77-.69,15.74l-2.62-.14s-4.33-37.69-3.81-41.58c.51-3.89-.49-10.95-.49-10.95Z"/>
          <path class="cls-17" d="M15.19,229.1l1.34,4.7h11.33s3.37-6.01-12.67-4.7Z"/>
          <path class="cls-17" d="M39.48,229.1l1.34,4.7h11.33s3.37-6.01-12.67-4.7Z"/>
          <path class="cls-17" d="M48.71,159.94l-21.49,1.65s-2.52,34.92,11.6,67.29l12.04-.21-2.15-68.72Z"/>
          <path class="cls-10" d="M15.36,161.95s-4.21,20.22-1.25,67.23h14.59s7-56.38,7-56.38c.27-1.67,3.66-3.99,3.66-3.99l.13-6.44-24.12-.41Z"/>
          <path class="cls-1" d="M15.47,134.42l1.24,8.51-3.41,17.01c-.3,1.51.83,2.93,2.41,3.04,6.47.43,22.11,1.06,32.73-1.86,1.42-.39,2.36-1.69,2.24-3.11l-1.87-22.75-.66-8-.67-8.22s-3.24-1.94-8.86-2.71c.08,1.27-.35,2.43-3.04,2.71-3.15.35-5.52-1.03-7.27-2.33-.04-.07-.27-.3-.36-.37-1.92.18-4.13.5-6.02.87-.3.06-7.06,13.09-7.06,13.09l.6,4.15Z"/>
          <path class="cls-10" d="M13.3,159.93s30.08-14.94,15.31-39.33c-.71-1.17-1.89-3.31-3.38-3.97-1.38.12-1.66.19-2.78.45,1.53.41,3.75,3.91,4.92,7.07,2.19,5.93,7.62,17.14-13.67,31.92l-.39,3.86Z"/>
          <path class="cls-12" d="M23.06,142.18c.33-.02,3.13.08,3.13.08,0,0,1.39-5.08,5.25-5.08,0,0,1.8-.17,1.25,1.25-.23.6-.62.38-1.2,2.45-.59,2.06-1.22,2.6-3.2,3.68l-1.67.44s-4.43-2.75-3.56-2.81Z"/>
          <path class="cls-9" d="M21.93,117.18s-2.53-.14-7.06,7.19c-2.42,3.92-12.73,22.51-7.42,24.53s16-.01,18.74-2.83l-1.55-4.33s-7.41.33-7.36-.06c.04-.39,1.66-4.06,3.78-6.96,7.23-9.9.88-17.55.88-17.55Z"/>
          <path class="cls-9" d="M35.58,119.02s-5.37-2.27-7.2-4.73c0,0-1.89,1.06-2.06,2.37-.18,1.3,6.53,3.57,9.26,2.36Z"/>
          <path class="cls-9" d="M38.01,114.82s-.36,3.54-2.44,4.2c0,0,3.79.26,5.06-2.38,0,0-1.31-1.85-2.63-1.82Z"/>
          <polygon class="cls-9" points="51.67 170.86 52.36 168.94 48.99 168.74 49.05 170.72 51.67 170.86"/>
          <path class="cls-12" d="M26.09,141.3s.54-2.45.42-3.02c-.12-.57,1.03-.14,1.03,1.05,0,.37-.32.73-.32.73l-.6,2.35-.53-1.1Z"/>
          <path class="cls-15" d="M26.09,141.3l-3.02.64.55,3.56h2.24l-1.28,1.77.57.24,3.13-2.95s-1.68-1.7-2.2-3.25Z"/>
        </g>
      </g>
      <path class="cls-9" d="M72.84,23.46s-.17,1.01,2.19,1.82c0,0,1.98.68,2.34-.36,0,0-1.57-1.5-4.53-1.46Z"/>
    </g>
  </g>
</svg>