<?xml version="1.0" encoding="UTF-8"?>
<svg xmlns="http://www.w3.org/2000/svg" viewBox="0 0 93.8 55.03">
  <defs>
    <style>
      .cls-1 {
        fill: #f2c3bc;
      }

      .cls-1, .cls-2, .cls-3, .cls-4, .cls-5, .cls-6, .cls-7, .cls-8, .cls-9, .cls-10, .cls-11, .cls-12 {
        stroke-width: 0px;
      }

      .cls-2, .cls-3, .cls-8, .cls-9 {
        mix-blend-mode: multiply;
      }

      .cls-2, .cls-3, .cls-9 {
        fill: #f2d4cf;
      }

      .cls-3 {
        opacity: .66;
      }

      .cls-4 {
        fill: #e5bea2;
      }

      .cls-5 {
        fill: #a17669;
      }

      .cls-13 {
        isolation: isolate;
      }

      .cls-6 {
        fill: #f4d3c4;
      }

      .cls-7 {
        fill: #5c4942;
      }

      .cls-8 {
        fill: #000;
        opacity: .2;
      }

      .cls-9 {
        opacity: .39;
      }

      .cls-10 {
        fill: #e9b09f;
      }

      .cls-11 {
        fill: #e0ae9c;
      }

      .cls-12 {
        fill: #f7d8cc;
      }
    </style>
  </defs>
  <g class="cls-13">
    <g id="_Слой_2" data-name="Слой 2">
      <g id="Calque_1" data-name="Calque 1">
        <g>
          <ellipse class="cls-8" cx="48.12" cy="51.45" rx="45.68" ry="3.58"/>
          <path class="cls-6" d="M89.65,18.28c-.13.2-.41.27-.64.22-.24-.05-.44-.19-.63-.33-1.86-1.37-3.56-3.22-4.19-5.52-.11-.41-.41-1.26.12-1.49.37-.16.96.22,1.19.5.23.29.31.71.46,1.04.27.59.65,1.13.99,1.67.25.38,2.8,3.75,2.7,3.9Z"/>
          <path class="cls-3" d="M89.65,18.28c-.13.2-.41.27-.64.22-.24-.05-.44-.19-.63-.33-1.86-1.37-3.56-3.22-4.19-5.52-.11-.41-.41-1.26.12-1.49.37-.16.96.22,1.19.5.23.29.31.71.46,1.04.27.59.65,1.13.99,1.67.25.38,2.8,3.75,2.7,3.9Z"/>
          <path class="cls-6" d="M76.61,41.94c.29.25.59.49.8.82.32.51.34,1.16.3,1.76-.07.97-.29,1.93-.5,2.88-.08.33-.16.67-.35.95-.2.28-.5.47-.79.65-1.38.84-2.75,1.67-4.13,2.51.2.42.74.51,1.2.54,1.12.06,2.24.07,3.36.02.28-.01.56-.03.83-.1,1.56-.39,2.28-2.19,2.76-3.76.2-.64.39-1.28.59-1.93.31-1.01.62-2.02.93-3.02.07-.23.14-.47.11-.72-.03-.27-.19-.51-.35-.74-.82-1.17-1.71-2.3-2.36-3.58-.53-1.06-.9-2.21-1.54-3.19-.65-.99-1.68-1.83-2.84-1.81-2.11.04-2.67,2.31-1.67,3.86,1.11,1.72,2.08,3.5,3.65,4.86Z"/>
          <path class="cls-4" d="M76.56,52.06c-.43-.87-.92-1.76-1.65-2.36-.99.6-1.99,1.21-2.98,1.81.2.42.74.51,1.2.54,1.12.06,2.24.07,3.36.02.02,0,.04,0,.06,0Z"/>
          <path class="cls-10" d="M76.61,41.94c.29.25.59.49.8.82.32.51.34,1.16.3,1.76-.07.97-.29,1.93-.5,2.88-.08.33-.16.67-.35.95-.2.28-.5.47-.79.65-1.38.84-2.75,1.67-4.13,2.51.2.42.74.51,1.2.54,1.12.06,2.24.07,3.36.02.28-.01.56-.03.83-.1,1.56-.39,2.28-2.19,2.76-3.76.2-.64.39-1.28.59-1.93.31-1.01.62-2.02.93-3.02.07-.23.14-.47.11-.72-.03-.27-.19-.51-.35-.74-.82-1.17-1.71-2.3-2.36-3.58-.53-1.06-.9-2.21-1.54-3.19-.65-.99-1.68-1.83-2.84-1.81-2.11.04-2.67,2.31-1.67,3.86,1.11,1.72,2.08,3.5,3.65,4.86Z"/>
          <path class="cls-6" d="M24.33,38.62c.08,1.32.17,2.65.41,3.95.32,1.67.86,3.56-.11,4.94-1.29,1.84-4.49,1.51-5.52,3.51,1.67.23,3.37.24,5.04.02-.01.24.25.43.49.42.24,0,.45-.15.65-.29,1.03-.72,2.14-1.53,2.47-2.76.1-.39.12-.79.22-1.18.21-.86.76-1.58,1.19-2.34,1.52-2.66,1.62-5.9,1.53-8.97-.06-1.97-.29-4.19-1.79-5.43-.92-.76-2.1-.97-3.25-1.04-1.37-.08-2.47-.23-2.25,1.52.13,1.01.54,1.89.62,2.93.12,1.57.2,3.15.3,4.73Z"/>
          <path class="cls-4" d="M22.54,48.92c-1.33.52-2.79.87-3.42,2.1,1.43.2,2.89.23,4.33.09-.22-.77-.48-1.55-.91-2.2Z"/>
          <path class="cls-10" d="M24.33,38.62c.08,1.32.17,2.65.41,3.95.32,1.67.86,3.56-.11,4.94-1.29,1.84-4.49,1.51-5.52,3.51,1.67.23,3.37.24,5.04.02-.01.24.25.43.49.42.24,0,.45-.15.65-.29,1.03-.72,2.14-1.53,2.47-2.76.1-.39.12-.79.22-1.18.21-.86.76-1.58,1.19-2.34,1.52-2.66,1.62-5.9,1.53-8.97-.06-1.97-.29-4.19-1.79-5.43-.92-.76-2.1-.97-3.25-1.04-1.37-.08-2.47-.23-2.25,1.52.13,1.01.54,1.89.62,2.93.12,1.57.2,3.15.3,4.73Z"/>
          <path class="cls-1" d="M80.04,33.85c2.95-2.12,5.49-5.03,6.52-8.56.64-2.17.68-4.47.57-6.73-.11-2.4-.42-4.89-1.71-6.9-1.13-1.76-2.9-2.97-4.73-3.94-5.58-2.95-12.11-3.98-18.3-2.89-5.63.99-4.96,1.87-10.01,2.16-1.46.08-7.72.44-13.67-1.55-.77-.26-2.27-.8-4.46-1.29-2.3-.51-4.23-.71-5.53-.79-.66-.38-1.47-.74-2.42-.99-3.05-.8-5.73.07-7.27.59-1.01.34-1.87.74-2.6,1.14-.26,0-.65.04-1.09.15-.87.22-1.48.62-2.04,1.04-1.5,1.11-1.71,1.6-2.78,2.41-.25.19-1.24,1.09-2.46,1.37-2.2.5-4.85-1.18-6.57.3-.96.82-1.09,2.34-.63,3.53.35.89.72,1.41,2.33,2.96,4.2,4.02,4.92,4.53,5.95,5.02,1.17.56,2.21.84,2.91.99.45.73,1.05,1.55,1.84,2.37.36.37.72.7,1.07.99.3.7.87,1.85,1.86,3.04,2.69,3.23,6.03,3.72,12.6,6.3,3.64,1.43,2.95,1.41,6.29,2.73,6.48,2.55,11.34,4.47,17.68,4.79,7.99.4,14.33-1.4,17.65-3.3,2.98-1.71,6.19-2.92,9-4.94Z"/>
          <path class="cls-5" d="M9.63,14.17c0-.14-.07-.31-.2-.31-.1,0-.17.09-.25.16-.2.17-.5.18-.76.17-.38-.02-.76-.07-1.13-.15-.15-.03-.3-.07-.42-.17-.12-.09-.2-.25-.16-.4-1.03.65-2.29.76-3.51.85-.43.03-.86.07-1.29,0-.1-.01-.2-.04-.3-.07.09.11.19.23.31.36.05.02.09.04.14.05.33.1.68.11,1.02.1.95-.02,1.88-.21,2.81-.43.16-.04.33-.08.5-.06.14.02.28.07.42.12.9.33,1.88.39,2.81.17-.04-.13,0-.28,0-.42Z"/>
          <path class="cls-10" d="M26.99,32.21c-.06-.32-.13-.65-.28-.93-.18-.32-.46-.56-.75-.77-1.32-.97-5.34-2.52-7.33-4.36-.57-.53-1.34-1.4-1.96-2.83.5-.29,1.16-.76,1.76-1.5,1.33-1.65,1.46-3.51,1.47-4.19-.67.67-2.39,2.19-4.99,2.55-2.63.36-4.69-.68-5.75-1.22-.78-.39-1.29-.74-2.32-1.52-1.94-1.48-3.88-2.96-5.82-4.43l-.15-.1s0,.03.02.04c.35.89.72,1.41,2.33,2.96,4.2,4.02,4.92,4.53,5.95,5.02,1.17.56,2.21.84,2.91.99.45.73,1.05,1.55,1.84,2.37.36.37.72.7,1.07.99.3.7.87,1.85,1.86,3.04,2.38,2.86,5.27,3.57,10.47,5.49-.1-.53-.21-1.07-.31-1.6Z"/>
          <path class="cls-3" d="M14.5,8.56c-.09.32-.18.65-.27.97-.53.08-1.05.19-1.56.33.19.12.43.11.66.13.22.02.48.11.55.32.02.05.02.1.05.14.07.1.22.07.33.03.88-.28,1.92-.48,2.76.02-.48-.18-.6-.73-.92-1.08-.42-.46-.99-.78-1.61-.86Z"/>
          <path class="cls-10" d="M69.68,32.62c-1.11-.29-2.38-.39-2.83-.43-1.72-.15-3.16-.06-4.18.05,1.23-.05,3.04.04,5.07.73,1.11.38,2.04.86,2.77,1.31-4.64,2.05-8.74,2.86-11.58,3.22-1.04.13-5.35.63-11-.1-3.83-.5-7.01-1.39-9.36-2.21.22-.3.58-.88.73-1.7.14-.78,0-1.39-.09-1.79-.24-1.05-.75-1.81-1.13-2.27-.4,1.81-1.39,3.41-2.04,5.14-.32.85-.55,1.78-.59,2.69.09.03.18.07.27.11,6.48,2.55,11.34,4.47,17.68,4.79,7.99.4,14.33-1.4,17.65-3.3.89-.51,1.79-.97,2.7-1.43.6-.3,1.21-.6,1.81-.9-2.44-2.8-4.8-3.62-5.88-3.89Z"/>
          <path class="cls-9" d="M25.01,1.9c.78.56,1.3,1.47,1.4,2.43.04.42,0,.84.06,1.25.14,1.18.89,2.46.24,3.44-.36.54-1.04.76-1.67.9-.82.19-1.86.25-2.34-.46.4,1.7.5,3.47.29,5.2-.13-1.18-.39-2.34-.77-3.46-.29-.86-1.11-1.66-1.52-3.2-.15-.57-.16-.82-.16-.92,0-.49.15-1.29,1.45-2.72.62-.68,1.6-1.61,3.01-2.46Z"/>
          <path class="cls-1" d="M23.32,27.97c.92,1.88,2.05,3.65,3.37,5.25.27.33.55.66.73,1.05.13.3.19.63.26.95.73,3.84,1.46,7.69,2.19,11.53.11.59.22,1.2.03,1.77-.17.51-.55.9-.93,1.27-1.15,1.1-2.41,2.1-3.75,2.96.16.14.38.21.59.17.05.17.03.35-.05.51,1.59.23,3.22.15,4.78-.23.43.33,1.06.08,1.48-.27.87-.74,1.37-1.91,1.3-3.06-.03-.46-.13-.91-.11-1.37.03-.55.25-1.07.45-1.57.95-2.34,1.73-4.74,2.34-7.2.28-1.15.54-2.33,1.09-3.38.58-1.09,1.46-2,1.96-3.13.43-.99.53-2.09.6-3.17.13-2.26,0-4.8-1.62-6.35-1.07-1.03-2.59-1.41-4.06-1.54-3.25-.3-6.7.49-9.12,2.72-.61.56-1.16,1.23-1.39,2.03-.23.8-.1,1.76.5,2.33l-.63-1.28Z"/>
          <path class="cls-1" d="M75.85,36.84c2.38,2.71,2.73,4.31,5.35,6.01.37.24.7.42.91.54.75,1.64.9,3.05.93,3.89.03,1.06.06,3.26-1.04,3.99-.38.26-.83.39-1.23.62-.39.24-.75.64-.73,1.11.92.13,1.83.26,2.75.38.3.04.62.08.88-.09.17-.11.28-.3.38-.48.32-.56.64-1.12.96-1.67.16.4.27.82.31,1.25.19.12.41-.1.51-.3.92-1.75.4-3.88.09-5.84-.35-2.24-.4-4.53-.14-6.79.05-.41.1-.83-.02-1.22-.11-.37-.37-.66-.6-.97-.81-1.07-1.34-2.35-1.52-3.69-.17-1.24-.05-2.5-.1-3.75-.05-1.25-.29-2.55-1.07-3.52-1.08-1.33-2.94-1.71-4.64-1.7-2.99.03-6.08,1.1-8.22,3.28-1.02,1.04-2.26,2.52-1.15,3.95.7.9,1.87.78,2.83,1.18,1.79.75,3.3,2.35,4.57,3.79Z"/>
          <path class="cls-12" d="M24.17.45c.32-.3.78-.59,1.16-.38.35.19.4.68.4,1.09,0,.91.01,1.83.02,2.74,0,.49-.09,1.13-.56,1.24.27.39.32.89.36,1.37.07.78.11,1.66-.43,2.21-.19.2-.44.33-.7.41-.81.27-1.75.1-2.42-.44-2.78-2.24.33-6.54,2.18-8.24Z"/>
          <path class="cls-11" d="M.05,12.47c-.05.42-.04.64.09.84.19.3.53.38.61.41.95.24,1.93-.8,2.27-1.16.35-.37.44-.6.48-.7.2-.53.06-1.02-.03-1.37-.11-.42-.25-.91-.68-1.2-.31-.21-.44-.09-.87-.38-.31-.21-.36-.34-.61-.4-.03,0-.38-.08-.67.14-.13.09-.2.22-.33.46-.15.28-.25.47-.28.69-.08.54.3,1.01.41,1.14-.23.63-.33,1.15-.37,1.52Z"/>
          <path class="cls-7" d="M16.05,9.84c-.4-.31-.86-.52-1.35-.63-.01,0-.03,0-.04,0-.02,0-.02.02-.03.04-.11.23-.18.49-.2.75.7-.05,1.43-.1,2.08.16-.15-.1-.32-.2-.46-.31Z"/>
          <path class="cls-2" d="M21.14,6.55c.04-1.43.77-2.83,1.91-3.66-.24.61-.41,1.25-.53,1.9.25-.33.61-.56,1.01-.64-.38.59-.67,1.24-.85,1.92-.06.24-.12.49-.28.68-.32.38-1.28.5-1.26-.19Z"/>
          <path class="cls-5" d="M2.22,10.88c-.23-.16-.52-.23-.8-.21-.06,0-.12.02-.16.05-.12.09-.06.29.04.4.1.11.24.2.29.34.04.09.04.2.11.27.11.11.3,0,.4-.11.09-.1.17-.21.2-.34.03-.13,0-.28-.08-.37v-.03Z"/>
          <path class="cls-4" d="M81.95,51.3c-.37.23-.8.36-1.18.59-.39.24-.75.64-.73,1.11.92.13,1.83.26,2.75.38.3.04.62.08.88-.09.17-.11.28-.3.38-.48.02-.03.04-.07.06-.1-.5-.8-1.28-1.32-2.17-1.42Z"/>
          <path class="cls-4" d="M30.58,53.24c-.32-.86-.95-1.59-1.75-2.01-.29-.15-.63-.31-.88-.51-.86.74-1.78,1.42-2.73,2.03.16.14.38.21.59.17.05.17.03.35-.05.51,1.59.23,3.22.15,4.78-.23.01.01.03.02.05.03Z"/>
          <path class="cls-3" d="M1.07,12.94c.54-.29.94-.79,1.24-1.33.12-.22.24-.45.26-.7.02-.25-.06-.53-.27-.67-.25-.17-.59-.12-.84-.28-.28-.18-.36-.58-.62-.8-.13-.11-.3-.16-.48-.16-.02.04-.04.08-.07.12-.15.28-.25.47-.28.69-.08.54.3,1.01.41,1.14-.23.63-.33,1.15-.37,1.52-.04.32-.04.53.02.69.34.02.7-.06,1.01-.23Z"/>
          <path class="cls-10" d="M86.57,25.34c.64-2.17.68-4.47.57-6.73-.11-2.4-.42-4.89-1.71-6.9-1.13-1.76-2.9-2.97-4.73-3.94-5.58-2.95-12.11-3.98-18.3-2.89-2.24.39-3.48.77-4.48,1.1,4.11-.34,8.22-.45,12.29.09,4.42.58,8.96,2.05,12.01,5.37,2.44,2.66,3.71,6.32,3.82,9.96.08,2.65-.43,5.29-1.33,7.79.8-1.18,1.44-2.47,1.84-3.85Z"/>
        </g>
      </g>
    </g>
  </g>
</svg>