<?xml version="1.0" encoding="UTF-8"?>
<svg id="_Слой_2" data-name="Слой 2" xmlns="http://www.w3.org/2000/svg" viewBox="0 0 198.25 198.25">
  <defs>
    <style>
      .cls-1 {
        fill: #fff;
      }

      .cls-1, .cls-2 {
        stroke-width: 0px;
      }

      .cls-2 {
        fill: #596aa8;
      }
    </style>
  </defs>
  <g id="Calque_1" data-name="Calque 1">
    <g>
      <circle class="cls-2" cx="99.12" cy="99.12" r="99.12"/>
      <path class="cls-1" d="M99.44,35.7c22.25,0,36.18,11.72,36.18,30.74,0,11.21-4.59,18.51-17.16,28.2-12.4,9.51-16.82,14.27-17.33,28.54-.17,2.04-1.53,3.57-3.57,3.57h-11.04c-2.55,0-4.08-1.7-4.08-4.08,0-17.5,3.57-24.97,18.85-37.37,9-7.3,12.06-12.06,12.06-17.84,0-7.81-5.77-12.57-15.29-12.57-7.64,0-17.16,3.06-24.63,7.81-1.02.68-1.87,1.02-2.72,1.02-1.53,0-2.89-1.02-3.57-2.89l-3.91-9c-.34-.85-.51-1.53-.51-2.38,0-2.04,1.02-3.91,2.89-5.1,9.68-5.44,22.08-8.66,33.8-8.66ZM93.32,141.18c6.62,0,11.72,4.42,11.72,11.04s-5.1,10.87-11.72,10.87-12.06-4.42-12.06-10.87,5.27-11.04,12.06-11.04Z"/>
    </g>
  </g>
</svg>