<svg width="430" height="430" viewBox="0 0 430 430" fill="none" xmlns="http://www.w3.org/2000/svg">
<path d="M214.83 429.66C333.477 429.66 429.66 333.477 429.66 214.83C429.66 96.1827 333.477 0 214.83 0C96.1827 0 0 96.1827 0 214.83C0 333.477 96.1827 429.66 214.83 429.66Z" fill="#596AA8"/>
<path d="M215.64 56C271.22 56 306.01 85.27 306.01 132.79C306.01 160.79 294.56 179.03 263.16 203.22C232.19 226.98 221.16 238.86 219.89 274.49C219.47 279.58 216.07 283.4 210.98 283.4H183.4C177.04 283.4 173.22 279.16 173.22 273.22C173.22 229.52 182.13 210.85 220.31 179.88C242.8 161.64 250.43 149.76 250.43 135.33C250.43 115.81 236.01 103.94 212.25 103.94C193.16 103.94 169.4 111.58 150.73 123.46C148.18 125.16 146.06 126.01 143.94 126.01C140.12 126.01 136.73 123.46 135.03 118.8L125.27 96.3C124.42 94.18 124 92.48 124 90.36C124 85.27 126.55 80.6 131.21 77.63C155.4 64.06 186.37 56 215.64 56ZM200.37 319.46C216.92 319.46 229.64 330.49 229.64 347.04C229.64 363.59 216.91 374.19 200.37 374.19C183.83 374.19 170.25 363.16 170.25 347.04C170.25 330.92 183.4 319.46 200.37 319.46Z" fill="#9DACD8"/>
</svg>
