<?xml version="1.0" encoding="UTF-8"?>
<svg id="_Слой_2" data-name="Слой 2" xmlns="http://www.w3.org/2000/svg" viewBox="0 0 203 203">
  <defs>
    <style>
      .cls-1 {
        fill: #f28f38;
      }

      .cls-1, .cls-2, .cls-3 {
        stroke-width: 0px;
      }

      .cls-2 {
        fill: #264791;
      }

      .cls-4 {
        fill: #fff;
        stroke: #1f3a6e;
        stroke-miterlimit: 10;
        stroke-width: 3px;
      }

      .cls-3 {
        fill: #fcd7b8;
      }
    </style>
  </defs>
  <g id="Calque_1" data-name="Calque 1">
    <g>
      <circle class="cls-4" cx="101.5" cy="101.5" r="99.99"/>
      <g>
        <path class="cls-3" d="M80.02,96.81l.47.26c2.18,1.2,4.35,2.42,6.51,3.64l.24.13.13-.24c1.14-2.06,2.28-4.12,3.43-6.18l.13-.23-.23-.13c-2.06-1.22-4.12-2.44-6.18-3.67l-.23-.14-.14.23c-1.25,2.07-2.5,4.14-3.76,6.2l-.06.1.05-.1c1.17-2.13,2.34-4.25,3.52-6.37l.13-.23-1.2-.72c-1.08-.65-2.16-1.29-3.24-1.95-.43-.26-2.08-1.27-2.08-1.27l-.23-.14s-.83,1.36-1.17,1.93c.32-.59,1.09-1.98,1.09-1.98,0,0-.59-.36-.78-.48.19.1.8.44.8.44l.13-.23c1.2-2.17,2.4-4.33,3.61-6.5l.13-.23-.22-.13c-1.19-.72-2.38-1.44-3.56-2.17,1.22.66,2.43,1.33,3.64,2l.23.13.13-.23c1.19-2.13,2.39-4.25,3.59-6.37l.13-.23-.86-.52c-1.58-.95-3.16-1.91-4.73-2.87,1.83,1,3.67,2.01,5.5,3.03l.23.13.83-1.46c.49-.86.98-1.72,1.47-2.59.28-.49,1.43-2.49,1.43-2.49l.13-.23-1.77-1.06c-1.24-.75-2.49-1.51-3.73-2.26l-.88-.54-.14.23c-1.28,2.17-2.56,4.33-3.85,6.48l-.33.55c-.92,1.53-1.83,3.06-2.75,4.59-.21.36-1.17,1.91-1.17,1.91l-.07-.04.04-.07c1.23-2.24,2.47-4.48,3.73-6.71l.22-.4c1.16-2.06,2.32-4.11,3.48-6.17l.51-.89c1.25-2.19,2.5-4.37,3.76-6.54l.13-.23-.16-.1.17.09.13-.23c1.26-2.18,2.53-4.35,3.81-6.52l.26-.45c1.28-2.18,2.57-4.35,3.87-6.52l.1-.17.31-.52c.88-1.48,1.77-2.96,2.66-4.43.21-.35,1.33-2.03,1.33-2.03l-.14.25c-1.23,2.23-2.46,4.46-3.7,6.68l-.13.24-.11.2c-1.15,2.05-2.31,4.1-3.48,6.15l-.37.65.24.13c2.02,1.11,4.04,2.22,6.05,3.34l.23.13.13-.23c1.22-2.09,2.46-4.17,3.69-6.25l.14-.23-.87-.52c-1.58-.95-3.15-1.91-4.73-2.87,1.84,1.01,3.67,2.02,5.51,3.04l.23.13.13-.22c1.24-2.1,2.49-4.19,3.75-6.28l.14-.23-.23-.14c-1.22-.73-2.43-1.47-3.64-2.21,1.25.68,2.5,1.37,3.74,2.05l.23.12,1.91-3.19c.44-.73.89-1.47,1.33-2.2l.86-1.42s-.62-.38-.81-.5c.2.11.84.46.84.46,0,0,.81-1.33,1.15-1.89-.31.57-1.06,1.93-1.06,1.93l.24.13c2.15,1.18,4.29,2.36,6.42,3.55l.23.13.13-.22c1.25-2.08,2.51-4.15,3.78-6.22l.02-.04-.03.05c-1.17,2.12-2.34,4.24-3.51,6.35l-.13.23.23.13c2.05,1.15,4.09,2.3,6.13,3.46l.37.21.7-1.17c.77-1.29,1.55-2.57,2.33-3.86l.9-1.49-.23-.14c-2.14-1.27-4.28-2.55-6.41-3.84l-1.68-1.02c-.68-.41.24,0,1.33.59l.21.12.23.13c2.19,1.21,4.37,2.43,6.55,3.67l.23.13s.93-1.54,1.33-2.19c-.37.67-1.24,2.25-1.24,2.25l.23.13c2.16,1.22,4.31,2.46,6.45,3.7l.23.13s.92-1.52,1.31-2.16c-.36.66-1.22,2.21-1.22,2.21l.23.13c2.14,1.25,4.28,2.51,6.41,3.77l.23.14s.94-1.55,1.34-2.21c-.37.68-1.25,2.26-1.25,2.26l.22.13c2.15,1.28,4.29,2.56,6.43,3.85l1.68,1.01c.69.42-.24,0-1.32-.58l-.23-.13h0s-.25-.14-.25-.14c-2.18-1.2-4.35-2.42-6.51-3.64l-.24-.13-.37.67c-1.06,1.92-2.12,3.83-3.19,5.74l-.13.23.23.13c2.06,1.22,4.12,2.44,6.18,3.67l.23.14.14-.23c1.25-2.07,2.5-4.14,3.76-6.2l.08-.13-.07.12c-1.17,2.13-2.34,4.25-3.52,6.36l-.13.23,1.03.62c1.14.69,2.29,1.37,3.43,2.06.4.24,2.06,1.26,2.06,1.26l.23.14s.81-1.34,1.15-1.89c-.31.57-1.07,1.94-1.07,1.94,0,0,.59.36.78.47-.19-.1-.8-.44-.8-.44l-.13.23c-1.2,2.17-2.4,4.33-3.61,6.5l-.13.23.22.13c1.21.73,2.41,1.46,3.61,2.2-1.23-.67-2.47-1.35-3.7-2.03l-.23-.13-.13.23c-1.19,2.13-2.39,4.25-3.59,6.37l-.13.23.87.52c1.59.96,3.18,1.93,4.77,2.9-1.85-1.01-3.7-2.03-5.54-3.05l-.23-.13-.86,1.51c-.48.84-.95,1.69-1.43,2.53-.28.48-1.56,2.72-1.56,2.72l1.77,1.06c1.24.75,2.48,1.51,3.72,2.26l.88.54.14-.23c1.28-2.16,2.56-4.33,3.85-6.48l.65-1.09c.82-1.38,1.65-2.75,2.48-4.13l1.12-1.84.08.05-.04.07c-1.23,2.24-2.47,4.48-3.72,6.71l-.13.22-.1.18c-1.15,2.05-2.3,4.09-3.47,6.13l-.4.69-.13.23c-1.25,2.18-2.5,4.36-3.76,6.54l-.13.23.2.12-.21-.11-.13.23c-1.26,2.18-2.53,4.35-3.81,6.51l-.27.45c-1.28,2.18-2.57,4.35-3.87,6.52l-.1.17-.13.22c-.96,1.6-1.92,3.2-2.88,4.8-.21.35-1.2,1.8-1.2,1.8l.05-.09c1.23-2.23,2.46-4.46,3.71-6.68l.13-.24.11-.2c1.15-2.04,2.3-4.08,3.46-6.12l.39-.68-.24-.13c-2.02-1.11-4.04-2.22-6.05-3.34l-.23-.13-.13.23c-1.22,2.09-2.45,4.17-3.69,6.25l-.14.23.87.52c1.59.96,3.18,1.93,4.77,2.9-1.85-1.01-3.7-2.03-5.55-3.06l-.23-.13-.13.22c-1.24,2.1-2.49,4.19-3.75,6.28l-.14.23.23.14c1.18.71,2.35,1.43,3.53,2.15-1.21-.66-2.42-1.33-3.63-1.99l-.23-.13-.84,1.41c-.36.6-.72,1.2-1.08,1.8-.45.75-.91,1.5-1.37,2.25l-.82,1.35s.57.35.74.46c-.18-.1-.77-.42-.77-.42,0,0-.83,1.37-1.18,1.94.32-.58,1.09-1.99,1.09-1.99l-.24-.13c-2.14-1.18-4.28-2.36-6.42-3.55l-.23-.13-.13.22c-1.25,2.08-2.51,4.16-3.78,6.23l-.1.16.09-.17c1.17-2.12,2.34-4.24,3.52-6.36l.13-.23-.23-.13c-2.07-1.16-4.14-2.33-6.21-3.51l-.23-.13-.19.19-.56.94c-.77,1.28-1.54,2.55-2.31,3.83l-.92,1.51.23.14c2.14,1.27,4.28,2.55,6.41,3.84l1.65,1c.68.41-.23.01-1.29-.57l-.22-.12-.23-.13c-2.19-1.21-4.37-2.43-6.54-3.66l-.23-.13s-.95,1.56-1.36,2.23c.38-.68,1.26-2.28,1.26-2.28l-.23-.13c-2.16-1.22-4.31-2.46-6.45-3.7l-.23-.13s-.94,1.55-1.35,2.22c.37-.68,1.25-2.27,1.25-2.27l-.23-.13c-2.14-1.25-4.28-2.51-6.41-3.77l-.23-.14s-.95,1.57-1.36,2.24c.38-.69,1.27-2.3,1.27-2.3l-.22-.13c-2.15-1.28-4.29-2.56-6.43-3.85l-.23-.14-1.42-.86c-.67-.41.23-.01,1.29.57ZM97.67,98.16c-2.06-1.2-4.12-2.4-6.17-3.61l-.23-.14-.7,1.17c-.74,1.24-1.49,2.47-2.24,3.71l-.98,1.62.24.14c2.14,1.22,4.28,2.44,6.42,3.68l.24.14.13-.24c1.13-2.04,2.25-4.08,3.39-6.11l.13-.23-.23-.13ZM87.73,82.98c-2.03-1.21-4.06-2.42-6.08-3.64l-.23-.14-1.91,3.2c-.44.73-.89,1.47-1.33,2.2l-.86,1.41.25.13c2.14,1.17,4.28,2.35,6.41,3.54l.23.13.13-.23c1.16-2.08,2.33-4.16,3.5-6.23l.13-.23-.22-.13ZM104.67,102.18c-2.07-1.18-4.14-2.37-6.2-3.56l-.23-.13-.68,1.15c-.73,1.21-1.46,2.42-2.19,3.63l-1.01,1.66.24.14c2.13,1.24,4.26,2.49,6.38,3.75l.24.14.13-.24c1.14-2.06,2.28-4.12,3.43-6.17l.13-.23-.23-.13ZM94.64,87.07c-2-1.18-4-2.36-6-3.55l-.23-.14-.88,1.47c-.92,1.55-1.84,3.1-2.77,4.64l-.28.47.24.13c2.04,1.14,4.08,2.29,6.11,3.45l.3.17.18-.21c1.14-2.03,2.28-4.06,3.42-6.08l.13-.23-.23-.13ZM101.61,91.15c-2-1.16-4-2.33-6-3.5l-.23-.13-.14.23c-1.18,2-2.37,3.99-3.56,5.98l-.14.23.24.14c2.06,1.18,4.12,2.36,6.17,3.55l.23.14.13-.24c1.13-2.01,2.26-4.02,3.39-6.03l.13-.23-.23-.13ZM91.69,75.98c-1.98-1.18-3.95-2.36-5.93-3.55l-.23-.14-.14.23c-1.24,2.09-2.48,4.17-3.73,6.25l-.14.24.24.13c2.06,1.14,4.12,2.29,6.17,3.44l.23.13.13-.23c1.16-2.05,2.32-4.1,3.48-6.15l.13-.23-.23-.13ZM108.61,95.17c-2.01-1.15-4.02-2.3-6.02-3.46l-.23-.13-.14.23c-1.18,1.98-2.36,3.97-3.54,5.95l-.14.23.23.14c2.05,1.19,4.1,2.39,6.15,3.59l.24.14.13-.24c1.14-2.03,2.28-4.05,3.42-6.08l.13-.23-.23-.13ZM98.62,80.08c-1.96-1.15-3.92-2.31-5.87-3.47l-.23-.14-.14.23c-1.19,2.02-2.39,4.04-3.59,6.06l-.14.24.24.13c1.71.97,3.42,1.93,5.13,2.91l1.14.65.13-.23c1.01-1.78,2.02-3.56,3.04-5.34l.52-.91-.23-.13ZM115.66,99.18c-1.72-.97-3.44-1.94-5.15-2.92l-1.15-.66-.13.23c-1.19,2-2.38,4-3.57,6l-.14.23.23.14c2.06,1.21,4.11,2.43,6.16,3.66l.24.14.13-.24c1.16-2.08,2.32-4.15,3.49-6.22l.13-.23-.23-.13ZM105.59,84.15c-1.97-1.14-3.93-2.28-5.89-3.43l-.23-.13-.14.23c-1.17,1.99-2.34,3.97-3.51,5.95l-.14.23.24.14c2,1.15,4,2.3,6,3.45l.23.14.13-.24c1.03-1.81,2.06-3.62,3.09-5.43l.44-.77-.23-.13ZM95.69,68.98c-1.94-1.15-3.88-2.32-5.82-3.48l-.23-.14-.15.23c-1.22,2.07-2.44,4.14-3.67,6.21l-.14.24.24.14c2.01,1.12,4.01,2.24,6.01,3.37l.23.13,1.6-2.82c.41-.72,2.15-3.75,2.15-3.75l-.23-.13ZM122.76,103.16c-2.06-1.14-4.12-2.29-6.17-3.45l-.23-.13-.99,1.66c-.89,1.5-1.79,3-2.68,4.49l-.26.44.83.5c1.2.72,2.4,1.43,3.59,2.16.42.25.84.51,1.26.77l1.04.64.13-.25c1.19-2.16,2.39-4.31,3.59-6.46l.13-.23-.23-.13ZM112.59,88.18c-1.97-1.13-3.94-2.26-5.91-3.4l-.23-.13-.14.23c-1.16,1.97-2.32,3.95-3.49,5.92l-.14.23.23.14c2,1.16,3.99,2.32,5.98,3.49l.23.14.13-.24c1.06-1.87,2.13-3.74,3.19-5.6l.36-.63-.23-.13ZM102.63,73.08c-1.93-1.14-3.87-2.28-5.79-3.42l-.23-.14-.14.23c-1.03,1.76-2.06,3.51-3.09,5.27l-.59,1.01.24.13c1.53.87,3.07,1.73,4.6,2.6l1.55.89,1.15-2.01c.51-.89,2.55-4.43,2.55-4.43l-.23-.13ZM91.2,56.9c-1.07-.64-2.13-1.29-3.2-1.94l-1.29-.79-.14.24c-1.25,2.16-2.52,4.32-3.78,6.47l-.14.24.24.13c2.02,1.11,4.04,2.22,6.05,3.35l.23.13.13-.23c1.2-2.09,2.4-4.18,3.61-6.27l.13-.23-1.84-1.1ZM119.1,91.88c-1.36-.77-2.73-1.54-4.09-2.32l-1.56-.9-.13.23c-1.17,1.99-2.34,3.98-3.52,5.97l-.14.23.23.14c2,1.18,4,2.35,5.99,3.54l.24.14.13-.24c1.15-2.05,2.31-4.09,3.47-6.13l.13-.23-.75-.43ZM109.6,77.15c-1.94-1.13-3.88-2.26-5.82-3.39l-.23-.14-.13.23c-.99,1.69-1.98,3.38-2.97,5.07l-.65,1.1.23.13c1.97,1.13,3.93,2.25,5.9,3.39l.23.13,1.13-1.99,2.54-4.41-.23-.13ZM99.71,61.98c-1.93-1.15-3.86-2.3-5.79-3.46l-.23-.14-.14.24c-1.2,2.07-2.41,4.15-3.62,6.22l-.14.24.24.13c1.97,1.1,3.95,2.21,5.91,3.32l.23.13.55-.96c1.02-1.78,2.05-3.57,3.08-5.35l.13-.23-.23-.13ZM126.7,96.15c-2.01-1.12-4.01-2.24-6.01-3.37l-.23-.13-.13.23c-1.2,2.03-2.4,4.06-3.61,6.09l-.14.23.23.14c2.02,1.2,4.03,2.41,6.05,3.62l.24.14.13-.24c1.19-2.12,2.38-4.23,3.57-6.34l.13-.23-.24-.13ZM116.29,81.01c-1.85-1.06-3.69-2.12-5.54-3.18l-.23-.13-.13.23c-1.02,1.74-2.04,3.48-3.06,5.21l-.54.92.23.13c1.96,1.14,3.92,2.28,5.88,3.42l.23.14,1.14-2.01c.51-.89,2.55-4.42,2.55-4.42l-.54-.31ZM106.66,66.09c-1.93-1.13-3.85-2.27-5.77-3.41l-.23-.14-.14.23c-1.17,2.02-2.34,4.03-3.51,6.04l-.14.23,1.04.59c1.12.63,2.24,1.27,3.36,1.91l1.91,1.1.81-1.41c.92-1.59,1.83-3.19,2.75-4.78l.13-.23-.23-.13ZM95.34,49.96c-1.25-.75-2.49-1.51-3.73-2.26l-.87-.53-.14.24c-1.24,2.17-2.49,4.34-3.74,6.5l-.14.24.24.13c2.01,1.1,4.01,2.21,6.01,3.32l.23.13.13-.23c1.21-2.08,2.42-4.17,3.64-6.25l.13-.23-1.77-1.06ZM122.47,84.53c-1.01-.57-2.02-1.15-3.03-1.72l-1.91-1.1-.13.23c-.94,1.62-1.89,3.23-2.84,4.85l-.78,1.33.23.14c1.96,1.15,3.92,2.31,5.87,3.47l.23.14,1.59-2.79c.4-.69,2.02-3.52,2.02-3.52l.13-.23-1.38-.78ZM113.63,70.16c-1.93-1.12-3.87-2.25-5.79-3.38l-.23-.14-.13.23c-1.15,1.98-2.3,3.96-3.45,5.93l-.14.23.23.13c1.95,1.11,3.89,2.23,5.83,3.35l.23.13.42-.74c1.04-1.8,2.07-3.61,3.12-5.41l.13-.23-.23-.13ZM103.77,55c-1.94-1.15-3.88-2.31-5.82-3.48l-.23-.14-.14.24c-1.19,2.08-2.39,4.16-3.59,6.23l-.14.24.24.13c1.96,1.1,3.92,2.2,5.88,3.3l.23.13.13-.23c1.17-2.02,2.34-4.04,3.52-6.06l.13-.23-.23-.14ZM130.69,89.16c-1.97-1.1-3.94-2.21-5.91-3.32l-.23-.13-.13.23c-1.11,1.91-2.23,3.81-3.36,5.71l-.34.58.23.14c1.97,1.17,3.93,2.35,5.9,3.53l.24.14.86-1.51c.48-.84.95-1.69,1.44-2.53.27-.47,1.55-2.71,1.55-2.71l-.24-.13ZM120.62,74.19c-1.94-1.11-3.87-2.22-5.81-3.34l-.23-.13-.13.23c-1.14,1.97-2.28,3.93-3.43,5.9l-.14.23.23.13c1.94,1.13,3.88,2.25,5.82,3.39l.23.14.61-1.06c.98-1.71,1.97-3.42,2.95-5.12l.13-.23-.24-.14ZM110.72,59.11c-1.94-1.14-3.87-2.28-5.8-3.43l-.23-.14-.37.64c-1.08,1.89-2.16,3.77-3.25,5.65l-.14.23,1.36.77c.97.55,1.94,1.1,2.92,1.65l2.01,1.15.13-.23c1.15-1.98,2.3-3.96,3.46-5.94l.13-.23-.23-.14ZM123.59,75.89l-2.01-1.15-.13.23c-1.15,1.98-2.3,3.96-3.45,5.94l-.13.23.23.14c1.94,1.14,3.87,2.28,5.8,3.42l.23.14.45-.78c1.05-1.84,2.11-3.68,3.17-5.51l.14-.23s-3.35-1.9-4.28-2.43ZM117.69,63.18c-1.94-1.13-3.88-2.25-5.82-3.39l-.23-.14-.72,1.26c-.94,1.64-1.89,3.28-2.84,4.92l-.13.23.38.22c1.89,1.08,3.78,2.17,5.67,3.26l.23.13.13-.23c1.14-1.97,2.28-3.93,3.43-5.9l.14-.23-.23-.13ZM107.86,48.02c-1.97-1.17-3.94-2.35-5.9-3.53l-.24-.14-.74,1.31c-.52.91-1.03,1.82-1.55,2.73-.27.47-1.55,2.7-1.55,2.7l.24.13c1.97,1.1,3.94,2.21,5.91,3.32l.23.13.13-.23c.96-1.64,1.92-3.28,2.89-4.91l.81-1.38-.23-.14ZM134.71,82.16c-1.96-1.1-3.92-2.2-5.88-3.3l-.23-.13-.13.23c-1.17,2.02-2.34,4.04-3.52,6.06l-.13.23.23.14c1.79,1.06,3.57,2.13,5.35,3.2l.7.42.14-.24c1.19-2.08,2.38-4.16,3.59-6.23l.14-.24-.24-.13ZM124.69,67.21c-1.95-1.12-3.89-2.23-5.84-3.36l-.23-.13-.62,1.08c-.97,1.69-1.94,3.38-2.92,5.06l-.13.23.23.13c1.93,1.12,3.87,2.25,5.79,3.38l.23.14.13-.23c1.15-1.98,2.3-3.96,3.45-5.93l.14-.23-.23-.13ZM114.81,52.13c-1.96-1.15-3.92-2.31-5.87-3.47l-.23-.14-1.6,2.81c-.4.7-.8,1.4-1.21,2.1l-.94,1.64,1.28.72c1.05.59,2.09,1.18,3.13,1.78l1.91,1.1.13-.23c.97-1.66,1.94-3.31,2.91-4.97l.71-1.2-.23-.14ZM141.84,86.11c-2.01-1.1-4.01-2.21-6.01-3.32l-.23-.13-.13.23c-1.21,2.08-2.42,4.17-3.64,6.24l-.13.23,1.77,1.06c1.22.73,2.43,1.48,3.65,2.22l.95.58.14-.24c1.24-2.17,2.48-4.34,3.74-6.5l.14-.24-.24-.13ZM130.4,70.47c-.96-.54-1.91-1.08-2.87-1.63l-1.91-1.1-.72,1.25c-.95,1.64-1.89,3.29-2.84,4.93l-.13.23.23.13c1.93,1.13,3.85,2.27,5.77,3.41l.23.14.14-.23c1.17-2.01,2.33-4.03,3.51-6.04l.14-.23-1.53-.87ZM121.78,56.2c-1.96-1.14-3.92-2.28-5.88-3.43l-.23-.14-1.14,2.01c-.49.86-2.55,4.43-2.55,4.43l.23.13c1.95,1.12,3.9,2.23,5.84,3.36l.23.13.13-.23c1.07-1.84,2.15-3.67,3.23-5.5l.37-.62-.23-.13ZM111.99,41.05c-2.02-1.2-4.04-2.41-6.05-3.63l-.24-.14-.13.24c-1.19,2.12-2.38,4.23-3.57,6.34l-.13.23.24.13c2.01,1.12,4.01,2.24,6.01,3.37l.23.13.13-.23c1.2-2.03,2.4-4.06,3.61-6.09l.14-.23-.23-.14ZM138.78,75.18c-1.97-1.1-3.95-2.21-5.92-3.32l-.23-.13-.23.41c-1.13,1.97-2.25,3.93-3.39,5.89l-.13.23.23.13c1.93,1.15,3.86,2.3,5.79,3.46l.23.14.14-.24c1.2-2.07,2.41-4.15,3.62-6.21l.14-.24-.24-.13ZM128.77,60.23c-1.97-1.13-3.94-2.25-5.9-3.39l-.23-.13-1.13,1.99c-.5.88-2.54,4.41-2.54,4.41l.23.13c1.94,1.13,3.88,2.26,5.82,3.39l.23.14.14-.23c1.01-1.73,2.02-3.45,3.03-5.17l.58-.99-.23-.13ZM118.92,45.16c-2-1.18-4-2.36-5.99-3.54l-.24-.14-.13.24c-1.15,2.05-2.31,4.09-3.47,6.13l-.13.23,1.03.58c1.27.72,2.54,1.44,3.81,2.16l1.56.9.26-.44c1.13-1.92,2.26-3.84,3.4-5.76l.14-.23-.23-.14ZM145.91,79.13c-2.02-1.11-4.04-2.22-6.05-3.34l-.23-.13-.13.23c-1.2,2.09-2.4,4.18-3.6,6.26l-.13.23,1.84,1.1c1.15.69,2.29,1.39,3.43,2.08l1.06.64.14-.24c1.25-2.16,2.51-4.32,3.78-6.47l.14-.24-.24-.13ZM135.02,63.79c-1.28-.72-2.55-1.44-3.83-2.17l-1.55-.89-1.15,2.01c-.49.86-2.55,4.43-2.55,4.43l.23.13c1.93,1.14,3.87,2.28,5.8,3.42l.23.14.14-.23c1.02-1.75,2.05-3.49,3.08-5.23l.61-1.04-1-.57ZM125.89,49.23c-2-1.16-3.99-2.32-5.98-3.49l-.23-.14-.13.24c-1.06,1.87-2.13,3.74-3.19,5.61l-.36.63.23.13c1.97,1.13,3.95,2.26,5.91,3.4l.23.13.37-.63c1.08-1.84,2.17-3.68,3.25-5.52l.14-.23-.23-.14ZM115.11,33.45c-1.06-.63-2.11-1.26-3.16-1.9-.42-.25-.84-.51-1.25-.77l-1.03-.63-.13.25c-1.19,2.16-2.38,4.31-3.59,6.46l-.13.23.24.13c2.06,1.14,4.12,2.29,6.18,3.45l.23.13.82-1.37c.94-1.58,1.88-3.15,2.82-4.73l.29-.48-1.28-.77ZM142.89,68.21c-2.01-1.12-4.01-2.24-6.01-3.37l-.23-.13-1.59,2.79c-.39.69-2.16,3.77-2.16,3.77l.23.13c1.95,1.16,3.89,2.32,5.83,3.49l.23.14.14-.23c1.22-2.08,2.44-4.15,3.67-6.22l.14-.24-.24-.13ZM132.88,53.26c-2-1.15-4.01-2.29-6-3.45l-.23-.14-.13.24c-.98,1.72-1.96,3.44-2.94,5.17l-.59,1.03.23.13c1.97,1.14,3.93,2.28,5.89,3.43l.23.13.14-.23c1.17-1.98,2.34-3.97,3.51-5.95l.14-.23-.24-.13ZM123.07,38.19c-2.06-1.22-4.12-2.44-6.17-3.67l-.24-.14-.13.24c-1.15,2.07-2.32,4.14-3.48,6.21l-.13.23.23.13c1.71.97,3.42,1.93,5.13,2.91l1.18.67.13-.23c1.19-2,2.38-4,3.57-6l.14-.23-.23-.14ZM139.92,57.25c-1.71-.96-3.41-1.92-5.11-2.89l-1.16-.66-.13.23c-.94,1.66-1.89,3.33-2.84,4.99l-.72,1.26.23.13c1.96,1.15,3.92,2.31,5.87,3.47l.23.14.14-.23c1.19-2.02,2.39-4.04,3.59-6.06l.14-.24-.24-.13ZM130.04,42.26c-2.05-1.19-4.1-2.39-6.15-3.59l-.24-.14-.13.24c-1.14,2.03-2.27,4.05-3.42,6.07l-.13.23.23.13c2.01,1.15,4.02,2.31,6.03,3.47l.23.13.14-.23c1.18-1.98,2.36-3.97,3.54-5.95l.14-.23-.23-.14ZM147.04,61.24c-2.06-1.14-4.12-2.29-6.17-3.45l-.23-.13-.13.23c-1.16,2.05-2.32,4.1-3.48,6.15l-.13.23.23.13c1.98,1.18,3.95,2.36,5.93,3.55l.23.14.14-.23c1.24-2.09,2.48-4.17,3.73-6.25l.14-.24-.24-.13ZM137.03,46.29c-2.06-1.18-4.12-2.36-6.18-3.55l-.23-.14-.13.24c-1.13,2.01-2.26,4.02-3.39,6.03l-.13.23.23.13c2,1.16,4.01,2.33,6.01,3.5l.23.13.14-.23c1.18-2,2.37-3.99,3.56-5.99l.14-.23-.24-.14ZM144.08,50.28c-2.06-1.16-4.12-2.32-6.18-3.49l-.23-.13-.18.21c-1.14,2.03-2.28,4.06-3.42,6.08l-.13.23.23.13c2,1.18,4,2.36,6,3.55l.23.14.86-1.45c.94-1.57,1.87-3.14,2.81-4.71l.26-.42-.24-.14ZM134.22,35.32c-2.13-1.24-4.26-2.49-6.38-3.75l-.24-.14-.22.4c-1.11,2-2.22,4.01-3.34,6.01l-.13.23.23.13c2.07,1.18,4.14,2.37,6.2,3.57l.23.13.68-1.15c.74-1.23,1.48-2.45,2.22-3.68l.98-1.62-.24-.14ZM151.25,54.25c-2.14-1.17-4.28-2.36-6.4-3.55l-.23-.13-.13.23c-1.16,2.08-2.33,4.16-3.5,6.24l-.13.23.22.13c2.03,1.21,4.06,2.42,6.08,3.65l.23.14s1.56-2.61,1.92-3.2c.45-.75.9-1.49,1.35-2.23l.83-1.37-.25-.13ZM141.22,39.34c-2.14-1.22-4.29-2.44-6.42-3.68l-.24-.14-.46.82c-1.02,1.84-2.04,3.69-3.07,5.53l-.13.23.23.13c2.06,1.2,4.12,2.4,6.17,3.61l.23.13.7-1.17c.76-1.26,1.52-2.52,2.28-3.78l.94-1.54-.24-.14Z"/>
        <path class="cls-2" d="M108.94,114.05l-24.3,9.9c-.95.72-2.29-.06-2.14-1.24l-4.57-30.01-3.75-5.78,3.37,39.15c-.34,2.7-7.5,16.25-8.87,18.61l-6.13,10.59,3.88,2.25,6.13-10.59c1.37-2.36,9.45-15.37,11.62-17.01l31.64-15.49-6.88-.37Z"/>
        <path class="cls-1" d="M53.61,174.69h0c-1.87-1.08-2.67-3.2-1.79-4.73l20.31-35.07c.88-1.53,3.12-1.88,4.99-.8h0c1.87,1.08,2.67,3.2,1.79,4.73l-20.31,35.07c-.88,1.53-3.12,1.88-4.99.8Z"/>
        <path class="cls-2" d="M90.51,111.46c-18.3-10.6-22.45-37.77-9.25-60.56,13.2-22.79,38.83-32.71,57.13-22.11,18.3,10.6,22.45,37.77,9.25,60.56-13.2,22.79-38.83,32.71-57.13,22.11ZM135.87,33.15c-15.9-9.21-38.43-.11-50.24,20.27-11.81,20.39-8.48,44.46,7.41,53.67,15.9,9.21,38.43.11,50.24-20.27,11.81-20.39,8.48-44.46-7.41-53.67Z"/>
      </g>
    </g>
  </g>
</svg>