<?xml version="1.0" encoding="UTF-8"?>
<svg xmlns="http://www.w3.org/2000/svg" xmlns:xlink="http://www.w3.org/1999/xlink" viewBox="0 0 203.02 203.02">
  <defs>
    <style>
      .cls-1 {
        fill: #0c0d1a;
      }

      .cls-1, .cls-2, .cls-3, .cls-4, .cls-5, .cls-6, .cls-7, .cls-8, .cls-9, .cls-10, .cls-11, .cls-12, .cls-13 {
        stroke-width: 0px;
      }

      .cls-2 {
        fill: #727272;
      }

      .cls-14 {
        isolation: isolate;
      }

      .cls-3, .cls-9 {
        fill: #f2ddbb;
      }

      .cls-4 {
        fill: url(#_ÂÁ_Ï_ÌÌ_È_ËÂÌÚ_30-2);
      }

      .cls-4, .cls-5 {
        opacity: .28;
      }

      .cls-5 {
        fill: url(#_ÂÁ_Ï_ÌÌ_È_ËÂÌÚ_30);
      }

      .cls-6, .cls-15 {
        fill: #fff;
      }

      .cls-15 {
        stroke: #1f3a6e;
        stroke-miterlimit: 10;
        stroke-width: 3px;
      }

      .cls-16, .cls-9 {
        mix-blend-mode: multiply;
      }

      .cls-16, .cls-17 {
        opacity: .5;
      }

      .cls-7 {
        fill: #313151;
      }

      .cls-8 {
        fill: #4f5075;
      }

      .cls-9 {
        opacity: .8;
      }

      .cls-10 {
        fill: #0d0e1c;
      }

      .cls-11 {
        fill: #19619d;
        opacity: .44;
      }

      .cls-12 {
        fill: #4382c4;
      }

      .cls-13 {
        fill: #4e4d4d;
      }

      .cls-17 {
        mix-blend-mode: screen;
      }
    </style>
    <linearGradient id="_ÂÁ_Ï_ÌÌ_È_ËÂÌÚ_30" data-name="¡ÂÁ˚ÏˇÌÌ˚È „‡‰ËÂÌÚ 30" x1="71.51" y1="108.52" x2="93.29" y2="108.52" gradientUnits="userSpaceOnUse">
      <stop offset="0" stop-color="#fff"/>
      <stop offset=".21" stop-color="#fff"/>
      <stop offset="1" stop-color="#fff"/>
    </linearGradient>
    <linearGradient id="_ÂÁ_Ï_ÌÌ_È_ËÂÌÚ_30-2" data-name="¡ÂÁ˚ÏˇÌÌ˚È „‡‰ËÂÌÚ 30" x1="66.89" y1="121.83" x2="137.58" y2="121.83" xlink:href="#_ÂÁ_Ï_ÌÌ_È_ËÂÌÚ_30"/>
  </defs>
  <g class="cls-14">
    <g id="_Слой_2" data-name="Слой 2">
      <g id="Calque_1" data-name="Calque 1">
        <g>
          <circle class="cls-15" cx="101.51" cy="101.51" r="100"/>
          <g>
            <g>
              <path class="cls-3" d="M99.54,54.02c-13.21,0-29.54-2.33-25.13-5.07.88-.55,1.88-1.21,2.99-2,.12-.08.24-.17.35-.25,7.39-5.36,9.72-10.12,13.34-13,3.68-2.93,8.94-2.93,10.02-2,.07.06.15.14.23.22.86.86,2.11,2.6,3.43,3.13.38.15.77.21,1.15.11.03,0,.06-.02.1-.02.18-.05.37-.09.57-.14,1.82-.46,4.23-1.02,5.3-.43,1.2.67,1.4,1.73,2.41,1.73.9,0,1.5.79,2.07,1.62.07.1.14.21.21.31.04.06.09.1.14.14.33.23.96.19,1.67.08.29-.05.6-.1.91-.16h0c.95-.17,1.85-.33,2.22-.07.82.6,3.49,6.34,5.01,8.73.6.93,1.61,1.83,2.61,2.57h0c.13.1.26.19.39.28,1.43,1-16.13,4.22-29.99,4.22Z"/>
              <path class="cls-9" d="M105.42,35.2c-.08.37-.24.71-.48.99-.51.61-1.23.99-1.87,1.46-1.69,1.24-2.83,3.25-3.1,5.38-.16.31-.32.63-.47.94-.07-2.45,1.09-4.9,3-6.31.61-.45,1.29-.81,1.77-1.4.28-.34.45-.76.5-1.21.22.09.43.14.65.16Z"/>
              <g class="cls-16">
                <path class="cls-3" d="M106.04,35.4c-.09,1.03-.75,1.9-1.51,2.56-.75.66-1.62,1.17-2.35,1.86-.94.89-1.61,2.03-2.21,3.2.27-2.13,1.41-4.14,3.1-5.38.64-.47,1.36-.84,1.87-1.46.24-.29.4-.63.48-.99.17.01.33,0,.5-.05.03,0,.06-.02.1-.02.02.11.02.2.02.27Z"/>
              </g>
              <g class="cls-17">
                <path class="cls-6" d="M101.34,31.92c-.26.16-.59.26-.88.32-4.02.88-7.29,3.73-10.17,6.81-2.05,2.19-2.67,2.87-5.31,5.22-.82.73-1.9,1.47-3.17,2.18-.53.29-2.62.67-4.06.25,7.39-5.36,9.72-10.12,13.34-13,3.68-2.93,8.94-2.93,10.02-2,.07.06.15.14.23.22Z"/>
              </g>
              <path class="cls-9" d="M94.77,49.99c-.81.05-1.62.12-2.43.15-.48.02-.75-.09-.93-.34.1.02.22.03.36.03.81,0,1.63-.02,2.44-.04.17,0,.24-.23.11-.34-1.56-1.27-2.21-3.61-1.83-5.68.29-1.58,1.09-3,2.14-4.2.03-.04.05-.08.05-.12.11.04.18.18.09.3-.99,1.25-1.73,2.7-1.96,4.29-.3,2.08.45,4.39,2.06,5.59.14.1.08.33-.09.35Z"/>
              <g class="cls-16">
                <path class="cls-3" d="M92.48,43.77c-.38,2.07.26,4.41,1.83,5.68.14.11.07.34-.11.34-.81.02-1.62.04-2.44.04-.14,0-.26-.01-.36-.03-.14-.19-.24-.46-.35-.82-.45-1.44-.63-4.24.38-5.51,0-.01.01-.02.02-.03.68-1.55,1.77-2.86,3.05-3.95.05-.05.11-.05.17-.03,0,.04-.02.08-.05.12-1.04,1.2-1.84,2.62-2.14,4.2Z"/>
              </g>
              <path class="cls-9" d="M117.28,38.52s-.02.03-.03.04c-1.03,1.3-2.49,2.15-3.86,2.99-1.48.92-3.02,1.97-3.89,3.49-.2.11-.39.23-.58.36.7-1.83,2.39-3,4-3.99,1.29-.79,2.67-1.59,3.64-2.81.05-.07.11-.15.16-.24.14.09.33.14.56.16Z"/>
              <g class="cls-16">
                <path class="cls-3" d="M118.39,38.44s-.01.03-.02.04c-.07.17-.16.33-.25.49-.99,1.73-2.07,3.55-3.78,4.46-1.51.81-3.34.82-4.83,1.6.87-1.53,2.41-2.58,3.89-3.49,1.37-.84,2.83-1.69,3.86-2.99.01-.01.02-.03.03-.04.24.02.53,0,.84-.04.09-.01.18-.02.27-.04Z"/>
              </g>
              <g class="cls-16">
                <path class="cls-3" d="M106.36,42.01c.36-.28.85.12.67.55-.14.34-.33.67-.53.99-.44.71-.94,1.41-1.13,2.23s.03,1.82.73,2.23c.31.18.68.22,1.02.34s.69.34.78.7c.11.43-.21.88-.61,1.05-.89.38-2.55.07-3.47-.13-.68-.15-1.03-.51-.96-1.26.08-.81.53-1.61.85-2.34.41-.93.73-1.9,1.27-2.75.3-.48.65-.93,1.03-1.33.04-.05.17-.15.33-.27Z"/>
              </g>
              <path class="cls-9" d="M124.06,46.82c-.21.55-.83.8-1.37.96-2.7.8-5.51,1.19-8.31,1.16-.29,0-.59-.01-.84-.15-.21-.11-.38-.31-.42-.54.06.06.12.1.2.14.26.13.56.14.84.15,2.81.04,5.62-.36,8.32-1.16.55-.16,1.16-.4,1.37-.96.16-.41.05-.84-.15-1.24.32.51.58,1.1.37,1.64Z"/>
              <g class="cls-16">
                <path class="cls-3" d="M123.83,46.42c-.21.55-.82.79-1.37.96-2.7.8-5.51,1.19-8.32,1.16-.29,0-.58-.01-.84-.15-.07-.04-.14-.08-.2-.14-.01-.06-.01-.12,0-.18.04-.29.29-.49.53-.63,1.17-.68,2.58-.66,3.9-.88.98-.17,2.3-.58,2.85-1.54.22-.38.09-.87.33-1.21.3-.42.99-.46,1.42-.28.61.26,1.03.85,1.41,1.42.05.07.1.15.15.22.2.4.31.83.15,1.24Z"/>
              </g>
              <g class="cls-17">
                <path class="cls-6" d="M116.37,37.91c-.38-.05-.81-.17-1.08-.43-.57-.55-2.08.04-2.73-1.11-.65-1.15-1.38-.85-3.95-.64-1.36.11-1.86-.31-2.03-.74,1.82-.46,4.23-1.02,5.3-.43,1.2.67,1.4,1.73,2.41,1.73.9,0,1.5.79,2.07,1.62Z"/>
              </g>
              <g class="cls-17">
                <path class="cls-6" d="M129.14,49.52s-1.24-.51-3.07-2.49c-1.83-1.98-3.21-5.79-4.19-7.15-.96-1.34-2.39-1.61-2.58-1.59.95-.17,1.85-.33,2.22-.07.82.6,3.49,6.34,5.01,8.73.6.93,1.61,1.83,2.61,2.57h0Z"/>
              </g>
              <g class="cls-17">
                <ellipse class="cls-6" cx="98.41" cy="37.59" rx=".54" ry=".57"/>
              </g>
              <g class="cls-17">
                <path class="cls-6" d="M99.77,36.11c0,.16-.12.29-.27.29s-.27-.13-.27-.29.12-.29.27-.29.27.13.27.29Z"/>
              </g>
              <g class="cls-17">
                <path class="cls-6" d="M100.03,47.98c0,.26-.2.47-.44.47s-.44-.21-.44-.47.2-.46.44-.46.44.21.44.46Z"/>
              </g>
              <g class="cls-17">
                <path class="cls-6" d="M100.4,46.92c0,.14-.11.26-.25.26s-.25-.12-.25-.26.11-.26.25-.26.25.12.25.26Z"/>
              </g>
              <g class="cls-17">
                <ellipse class="cls-6" cx="99.23" cy="46.95" rx=".22" ry=".23"/>
              </g>
              <g class="cls-17">
                <path class="cls-6" d="M110.63,39.76c0,.2-.15.36-.35.36s-.35-.16-.35-.36.15-.36.35-.36.35.16.35.36Z"/>
              </g>
              <g class="cls-17">
                <path class="cls-6" d="M111.23,39.12c0,.12-.1.22-.21.22s-.21-.1-.21-.22.1-.22.21-.22.21.1.21.22Z"/>
              </g>
              <g class="cls-17">
                <path class="cls-6" d="M120.57,39.87c0,.24-.19.44-.42.44s-.42-.2-.42-.44.19-.44.42-.44.42.2.42.44Z"/>
              </g>
              <g class="cls-17">
                <ellipse class="cls-6" cx="120.7" cy="40.74" rx=".2" ry=".21"/>
              </g>
              <g class="cls-17">
                <path class="cls-6" d="M120.22,41.06c0,.16-.12.29-.27.29s-.27-.13-.27-.29.12-.29.27-.29.27.13.27.29Z"/>
              </g>
              <g class="cls-16">
                <path class="cls-3" d="M87.84,47.93c0,.35-.27.64-.61.64s-.61-.28-.61-.64.27-.64.61-.64.61.28.61.64Z"/>
              </g>
              <g class="cls-16">
                <path class="cls-3" d="M88.18,46.18c0,.27-.21.48-.46.48s-.46-.22-.46-.48.21-.48.46-.48.46.22.46.48Z"/>
              </g>
              <g class="cls-16">
                <path class="cls-3" d="M86.93,46.49c0,.17-.13.31-.3.31s-.3-.14-.3-.31.13-.31.3-.31.3.14.3.31Z"/>
              </g>
              <g class="cls-16">
                <path class="cls-3" d="M82.75,48.57c0,.27-.21.49-.47.49s-.47-.22-.47-.49.21-.49.47-.49.47.22.47.49Z"/>
              </g>
              <g class="cls-16">
                <ellipse class="cls-3" cx="81.2" cy="47.67" rx=".15" ry=".16"/>
              </g>
              <g class="cls-16">
                <path class="cls-3" d="M112.27,46.18c0,.29-.23.53-.51.53s-.51-.24-.51-.53.23-.53.51-.53.51.24.51.53Z"/>
              </g>
              <g class="cls-16">
                <path class="cls-3" d="M110.2,46.53c0,.15-.12.27-.26.27s-.26-.12-.26-.27.12-.27.26-.27.26.12.26.27Z"/>
              </g>
              <ellipse class="cls-9" cx="103.72" cy="48.93" rx=".42" ry=".44"/>
              <path class="cls-9" d="M104.54,47.98c0,.15-.11.27-.25.27s-.25-.12-.25-.27.11-.27.25-.27.25.12.25.27Z"/>
              <path class="cls-9" d="M104.72,48.76c0,.1-.08.19-.18.19s-.18-.08-.18-.19.08-.19.18-.19.18.08.18.19Z"/>
              <g class="cls-17">
                <path class="cls-6" d="M90.54,36.38c.08.35-.13.7-.46.78-.33.08-.67-.13-.75-.48-.08-.35.13-.7.46-.78.33-.08.67.13.75.48Z"/>
              </g>
              <g class="cls-17">
                <path class="cls-6" d="M91.11,35.21c.04.18-.07.37-.24.41-.17.04-.35-.07-.39-.25s.07-.37.24-.41c.17-.04.35.07.39.25Z"/>
              </g>
              <g class="cls-17">
                <path class="cls-6" d="M91.81,34.53c.02.11-.04.22-.14.24-.1.03-.21-.04-.23-.15-.02-.11.04-.22.14-.24.1-.03.21.04.23.15Z"/>
              </g>
            </g>
            <g>
              <path class="cls-13" d="M49.98,72.14c-.7,5.65,7.67,8.99,9.83,6.96,2.16-2.03,4.37-7.49,4.37-7.49l3.81.09.37-3.01s-17.67-2.2-18.37,3.45ZM59.05,75.95c-1.74,1.7-6.02-.75-6.06-3.43-.05-2.68,8.27-2.03,8.27-2.03,0,0-.47,3.77-2.21,5.46Z"/>
              <path class="cls-13" d="M135.56,68.69l.37,3.01,3.81-.09s2.21,5.46,4.37,7.49c2.16,2.03,10.53-1.31,9.83-6.96-.7-5.65-18.37-3.45-18.37-3.45ZM142.66,70.48s8.32-.65,8.27,2.03c-.05,2.68-4.33,5.13-6.06,3.43-1.74-1.7-2.21-5.46-2.21-5.46Z"/>
              <path class="cls-12" d="M136.43,120.32l-.38-30.37s1.89-1.9,2.27-9.49c.38-7.59-7.96-28.1-7.96-28.1l-28.13.38-28.13-.38s-8.34,20.5-7.96,28.1c.38,7.59,2.27,9.49,2.27,9.49l-.38,30.37s-3.41,6.45-1.52,14.43c1.89,7.97,9.09,29.24,14.78,30.75,5.04,1.35,17.81,1,20.65,1.02h0s.11,0,.29,0c.18,0,.29,0,.29,0h0c2.84-.02,15.61.33,20.65-1.02,5.68-1.52,12.88-22.78,14.78-30.75,1.89-7.97-1.52-14.43-1.52-14.43Z"/>
              <path class="cls-11" d="M106.51,166.54c5.04.02,12.95-.05,16.66-1.04,5.68-1.52,12.88-22.78,14.78-30.75,1.89-7.97-1.52-14.43-1.52-14.43l-.38-30.37s1.89-1.9,2.27-9.49c.38-7.59-7.96-28.1-7.96-28.1l-18.84.25c.94,2.36,8.21,20.74,7.86,27.84-.38,7.59-2.27,9.49-2.27,9.49l.38,30.37s3.41,6.45,1.52,14.43c-1.87,7.87-7.25,29.08-12.49,31.8Z"/>
              <path class="cls-5" d="M93.29,163.4s-8.7-23.72-9.83-28.27c-1.14-4.56.76-14.81.76-14.81v-30.37s-1.52-6.07-1.14-9.11c.38-3.04,7.47-27.2,7.47-27.2h-10.61s-8.6,19.22-8.22,26.82c.38,7.59,2.27,9.49,2.27,9.49l-.38,30.37s-3.41,6.45-1.52,14.43c1.89,7.97,10.21,27.08,12.96,28.26l8.24.39Z"/>
              <path class="cls-4" d="M137.58,123.35c-.56-1.9-1.15-3.04-1.15-3.04h-68.39s-.6,1.14-1.15,3.04h70.69Z"/>
              <path class="cls-11" d="M68.42,89.94h67.63s.79-.8,1.46-3.42h-70.54c.66,2.62,1.46,3.42,1.46,3.42Z"/>
            </g>
            <path class="cls-2" d="M99.52,52.95h30.28c.62,0,1.08-.51.97-1.06l-.71-3.59c-.09-.46-.53-.79-1.04-.79h-53.95c-.51,0-.95.33-1.04.79l-.71,3.59c-.11.55.36,1.06.97,1.06h25.22Z"/>
            <path class="cls-7" d="M99.52,52.95h30.28c.62,0,1.08-.51.97-1.06l-.71-3.59c-.09-.46-.53-.79-1.04-.79h-53.95c-.51,0-.95.33-1.04.79l-.71,3.59c-.11.55.36,1.06.97,1.06h25.22Z"/>
            <polygon class="cls-10" points="116.09 52.95 128 52.95 127.4 47.51 115.89 47.51 116.09 52.95"/>
            <polygon class="cls-8" points="77.18 52.95 99.52 52.95 104.27 52.95 104.27 47.51 103.44 47.51 99.6 47.51 77.67 47.51 77.18 52.95"/>
            <path class="cls-1" d="M73.33,51.89c-.11.55.36,1.06.97,1.06h55.49c.62,0,1.08-.51.97-1.06l-.06-.32h-57.32l-.06.32Z"/>
            <g>
              <path class="cls-3" d="M76.67,171.88c-19.22,0-42.97-3.39-36.56-7.38,1.29-.8,2.73-1.76,4.34-2.91.17-.12.34-.25.51-.37,10.75-7.8,14.14-14.72,19.41-18.91,5.35-4.26,13-4.26,14.57-2.91.11.09.22.2.34.32,1.25,1.25,3.08,3.78,4.99,4.56.55.22,1.12.3,1.67.16.05-.01.09-.02.14-.04.26-.07.54-.14.82-.21,2.64-.67,6.15-1.48,7.7-.62,1.75.97,2.03,2.52,3.5,2.52,1.31,0,2.19,1.15,3.02,2.36.1.15.2.3.31.45.05.08.13.15.21.21.48.33,1.4.28,2.42.12.43-.07.87-.15,1.32-.23h.01c1.38-.25,2.69-.49,3.23-.1,1.2.87,5.07,9.22,7.29,12.7.87,1.36,2.34,2.66,3.8,3.74h0c.19.14.38.28.57.41,2.07,1.46-23.47,6.14-43.63,6.14Z"/>
              <path class="cls-9" d="M85.22,144.5c-.11.53-.35,1.03-.7,1.45-.74.89-1.79,1.43-2.72,2.12-2.47,1.8-4.12,4.73-4.51,7.82-.23.46-.46.92-.68,1.37-.1-3.56,1.59-7.13,4.36-9.19.88-.66,1.87-1.18,2.58-2.03.41-.5.66-1.11.73-1.76.31.13.63.21.95.23Z"/>
              <g class="cls-16">
                <path class="cls-3" d="M86.12,144.79c-.13,1.49-1.1,2.77-2.19,3.73-1.1.96-2.36,1.7-3.42,2.7-1.37,1.29-2.34,2.95-3.21,4.66.39-3.1,2.05-6.02,4.51-7.82.93-.68,1.98-1.23,2.72-2.12.35-.42.59-.91.7-1.45.24.02.48,0,.73-.07.05-.01.09-.02.14-.04.03.16.03.29.03.39Z"/>
              </g>
              <g class="cls-17">
                <path class="cls-6" d="M79.28,139.72c-.37.24-.86.37-1.28.47-5.85,1.29-10.6,5.43-14.8,9.9-2.98,3.18-3.88,4.18-7.72,7.6-1.2,1.06-2.76,2.13-4.62,3.17-.76.43-3.82.97-5.91.36,10.75-7.8,14.14-14.72,19.41-18.91,5.35-4.26,13-4.26,14.57-2.91.11.09.22.2.34.32Z"/>
              </g>
              <path class="cls-9" d="M69.72,166.02c-1.18.08-2.36.17-3.54.22-.7.03-1.09-.12-1.36-.5.15.03.32.05.52.05,1.18,0,2.37-.03,3.55-.06.25,0,.35-.33.15-.5-2.27-1.85-3.22-5.26-2.66-8.26.43-2.3,1.59-4.36,3.11-6.11.05-.05.07-.11.07-.17.16.05.27.27.13.44-1.44,1.81-2.52,3.93-2.85,6.25-.43,3.03.65,6.39,3,8.13.2.15.12.48-.13.5Z"/>
              <g class="cls-16">
                <path class="cls-3" d="M66.39,156.97c-.56,3.01.38,6.42,2.66,8.26.2.16.1.49-.15.5-1.18.03-2.36.06-3.55.06-.2,0-.37-.02-.52-.05-.2-.28-.34-.67-.51-1.19-.65-2.09-.91-6.16.55-8.02.01-.02.02-.03.03-.05,1-2.26,2.58-4.17,4.43-5.74.08-.07.16-.08.24-.05,0,.06-.02.12-.07.17-1.52,1.74-2.68,3.81-3.11,6.11Z"/>
              </g>
              <path class="cls-9" d="M102.47,149.33s-.03.04-.04.06c-1.49,1.89-3.62,3.12-5.61,4.35-2.16,1.33-4.4,2.86-5.66,5.08-.29.15-.57.33-.85.53,1.01-2.66,3.47-4.36,5.83-5.81,1.87-1.15,3.88-2.31,5.29-4.09.08-.1.15-.22.23-.35.2.14.48.21.81.23Z"/>
              <g class="cls-16">
                <path class="cls-3" d="M104.08,149.21s-.01.04-.02.05c-.1.25-.24.48-.37.72-1.44,2.52-3.01,5.16-5.5,6.49-2.19,1.17-4.86,1.19-7.03,2.33,1.26-2.22,3.5-3.75,5.66-5.08,1.99-1.23,4.12-2.46,5.61-4.35.01-.02.03-.04.04-.06.36.03.77,0,1.22-.06.13-.02.26-.04.4-.05Z"/>
              </g>
              <g class="cls-16">
                <path class="cls-3" d="M86.58,154.41c.53-.41,1.24.18.97.81-.21.5-.48.98-.76,1.44-.64,1.03-1.37,2.05-1.64,3.24s.04,2.65,1.06,3.24c.46.26.99.32,1.49.49s1.01.49,1.14,1.02c.16.63-.31,1.28-.89,1.53-1.3.56-3.7.1-5.04-.19-.99-.22-1.49-.74-1.39-1.83.11-1.18.77-2.34,1.23-3.4.59-1.35,1.06-2.76,1.84-4.01.44-.7.94-1.35,1.5-1.94.06-.07.25-.21.48-.39Z"/>
              </g>
              <path class="cls-9" d="M112.32,161.39c-.31.81-1.2,1.16-2,1.39-3.93,1.16-8.02,1.73-12.1,1.68-.42,0-.85-.02-1.23-.21-.3-.15-.56-.45-.61-.79.09.08.18.15.28.2.38.19.81.21,1.23.21,4.08.05,8.17-.52,12.1-1.68.8-.24,1.69-.59,2-1.39.23-.59.07-1.22-.21-1.81.46.74.85,1.6.54,2.39Z"/>
              <g class="cls-16">
                <path class="cls-3" d="M111.99,160.81c-.31.81-1.2,1.16-2,1.39-3.93,1.16-8.02,1.73-12.1,1.68-.42,0-.85-.02-1.23-.21-.1-.05-.2-.12-.28-.2-.01-.08-.02-.17,0-.26.06-.42.42-.71.77-.91,1.7-.98,3.75-.95,5.67-1.28,1.42-.24,3.35-.85,4.15-2.24.32-.55.13-1.26.49-1.76.43-.61,1.45-.66,2.06-.41.89.37,1.49,1.24,2.05,2.06.07.11.14.21.21.32.29.59.44,1.21.21,1.81Z"/>
              </g>
              <g class="cls-17">
                <path class="cls-6" d="M101.14,148.44c-.55-.08-1.18-.25-1.56-.63-.83-.81-3.02.06-3.96-1.62-.95-1.68-2.01-1.24-5.74-.93-1.97.16-2.7-.45-2.95-1.07,2.64-.67,6.15-1.48,7.7-.62,1.75.97,2.03,2.52,3.5,2.52,1.31,0,2.19,1.15,3.02,2.36Z"/>
              </g>
              <g class="cls-17">
                <path class="cls-6" d="M119.73,165.33s-1.81-.75-4.47-3.63c-2.66-2.88-4.68-8.43-6.1-10.41-1.4-1.95-3.47-2.34-3.76-2.31,1.38-.25,2.69-.49,3.23-.1,1.2.87,5.07,9.22,7.29,12.7.87,1.36,2.34,2.66,3.8,3.74h0Z"/>
              </g>
              <g class="cls-17">
                <ellipse class="cls-6" cx="75.01" cy="147.97" rx=".79" ry=".83"/>
              </g>
              <g class="cls-17">
                <path class="cls-6" d="M77,145.82c0,.23-.18.41-.4.41s-.39-.19-.39-.41.18-.41.39-.41.4.19.4.41Z"/>
              </g>
              <g class="cls-17">
                <path class="cls-6" d="M77.38,163.09c0,.37-.29.68-.64.68s-.64-.3-.64-.68.29-.68.64-.68.64.3.64.68Z"/>
              </g>
              <g class="cls-17">
                <path class="cls-6" d="M77.92,161.55c0,.21-.16.38-.36.38s-.36-.17-.36-.38.16-.38.36-.38.36.17.36.38Z"/>
              </g>
              <g class="cls-17">
                <ellipse class="cls-6" cx="76.21" cy="161.59" rx=".33" ry=".34"/>
              </g>
              <g class="cls-17">
                <path class="cls-6" d="M92.8,151.13c0,.29-.23.53-.5.53s-.5-.24-.5-.53.23-.53.5-.53.5.24.5.53Z"/>
              </g>
              <g class="cls-17">
                <path class="cls-6" d="M93.67,150.2c0,.18-.14.33-.31.33s-.31-.15-.31-.33.14-.33.31-.33.31.15.31.33Z"/>
              </g>
              <g class="cls-17">
                <path class="cls-6" d="M107.26,151.3c0,.36-.27.64-.61.64s-.61-.29-.61-.64.27-.64.61-.64.61.29.61.64Z"/>
              </g>
              <g class="cls-17">
                <ellipse class="cls-6" cx="107.45" cy="152.56" rx=".3" ry=".31"/>
              </g>
              <g class="cls-17">
                <path class="cls-6" d="M106.75,153.03c0,.23-.18.42-.4.42s-.4-.19-.4-.42.18-.42.4-.42.4.19.4.42Z"/>
              </g>
              <g class="cls-16">
                <path class="cls-3" d="M59.65,163.02c0,.51-.39.92-.88.92s-.88-.41-.88-.92.39-.93.88-.93.88.41.88.93Z"/>
              </g>
              <g class="cls-16">
                <path class="cls-3" d="M60.13,160.47c0,.39-.3.7-.67.7s-.67-.31-.67-.7.3-.7.67-.7.67.31.67.7Z"/>
              </g>
              <g class="cls-16">
                <path class="cls-3" d="M58.32,160.92c0,.25-.19.45-.43.45s-.43-.2-.43-.45.19-.45.43-.45.43.2.43.45Z"/>
              </g>
              <g class="cls-16">
                <path class="cls-3" d="M52.24,163.94c0,.39-.3.71-.68.71s-.68-.32-.68-.71.3-.71.68-.71.68.32.68.71Z"/>
              </g>
              <g class="cls-16">
                <ellipse class="cls-3" cx="49.98" cy="162.64" rx=".22" ry=".23"/>
              </g>
              <g class="cls-16">
                <path class="cls-3" d="M95.18,160.47c0,.43-.33.77-.74.77s-.74-.35-.74-.77.33-.77.74-.77.74.35.74.77Z"/>
              </g>
              <g class="cls-16">
                <path class="cls-3" d="M92.17,160.98c0,.22-.17.4-.38.4s-.38-.18-.38-.4.17-.4.38-.4.38.18.38.4Z"/>
              </g>
              <ellipse class="cls-9" cx="82.74" cy="164.47" rx=".62" ry=".65"/>
              <path class="cls-9" d="M83.93,163.09c0,.21-.17.39-.37.39s-.37-.17-.37-.39.17-.39.37-.39.37.17.37.39Z"/>
              <path class="cls-9" d="M84.19,164.23c0,.15-.11.27-.26.27s-.26-.12-.26-.27.12-.27.26-.27.26.12.26.27Z"/>
              <g class="cls-17">
                <path class="cls-6" d="M63.57,146.21c.12.51-.18,1.02-.67,1.14-.48.12-.97-.19-1.08-.7-.12-.51.18-1.02.67-1.14.48-.12.97.19,1.08.7Z"/>
              </g>
              <g class="cls-17">
                <path class="cls-6" d="M64.4,144.52c.06.27-.1.54-.35.6-.25.06-.51-.1-.57-.37s.1-.54.35-.6c.25-.06.51.1.57.37Z"/>
              </g>
              <g class="cls-17">
                <path class="cls-6" d="M65.41,143.52c.04.16-.06.32-.21.36-.15.04-.3-.06-.34-.22-.04-.16.06-.32.21-.36.15-.04.3.06.34.22Z"/>
              </g>
            </g>
          </g>
        </g>
      </g>
    </g>
  </g>
</svg>