<?xml version="1.0" encoding="UTF-8"?>
<svg id="_Слой_2" data-name="Слой 2" xmlns="http://www.w3.org/2000/svg" viewBox="0 0 203.02 203.02">
  <defs>
    <style>
      .cls-1 {
        fill: #f28f2e;
      }

      .cls-1, .cls-2, .cls-3, .cls-4, .cls-5, .cls-6, .cls-7, .cls-8, .cls-9, .cls-10, .cls-11, .cls-12, .cls-13, .cls-14, .cls-15, .cls-16, .cls-17, .cls-18, .cls-19, .cls-20 {
        stroke-width: 0px;
      }

      .cls-2 {
        fill: #f28f38;
      }

      .cls-3 {
        fill: #675c5c;
      }

      .cls-4 {
        fill: #b22b2d;
      }

      .cls-5 {
        fill: #42312f;
      }

      .cls-6 {
        fill: #778382;
      }

      .cls-7 {
        fill: #f1851e;
      }

      .cls-8 {
        fill: #0964ac;
      }

      .cls-21 {
        opacity: .75;
      }

      .cls-9 {
        fill: #e0680e;
      }

      .cls-22 {
        opacity: .38;
      }

      .cls-23 {
        fill: #fff;
        stroke: #1f3a6e;
        stroke-miterlimit: 10;
        stroke-width: 3px;
      }

      .cls-10 {
        fill: #814c3a;
      }

      .cls-11 {
        fill: #bd282c;
      }

      .cls-12 {
        fill: #d1323a;
      }

      .cls-24 {
        opacity: .14;
      }

      .cls-13 {
        fill: #cb723b;
      }

      .cls-14 {
        fill: #791c1e;
      }

      .cls-15 {
        fill: #f7a538;
      }

      .cls-16 {
        fill: #fcd7b8;
      }

      .cls-17 {
        fill: #fbfbfb;
      }

      .cls-18 {
        fill: #203865;
      }

      .cls-19 {
        fill: #1f3a6e;
      }

      .cls-20 {
        fill: #51341b;
      }
    </style>
  </defs>
  <g id="Calque_1" data-name="Calque 1">
    <g>
      <circle class="cls-23" cx="101.51" cy="101.51" r="100"/>
      <g>
        <g>
          <path class="cls-19" d="M131.76,144.06h1.62c2.92,0,5.29,2.37,5.29,5.29v.06h-12.2v-.06c0-2.92,2.37-5.29,5.29-5.29Z" transform="translate(265.14 293.47) rotate(-180)"/>
          <path class="cls-19" d="M31.95,144.06h12.2v.06c0,2.92-2.37,5.29-5.29,5.29h-1.62c-2.92,0-5.29-2.37-5.29-5.29v-.06h0Z"/>
          <path class="cls-16" d="M116.6,47.89s10.64,3.4,17.36,25.24c6.72,21.85,11.27,32.11,11.27,35.53,0,2.74-2.41,25.75-3.37,34.77-.22,2.05-1.95,3.61-4.01,3.61h-8.8c-2.69,0-4.82-2.26-4.66-4.95.6-9.9,1.86-31.41,1.71-33.74-.2-3.04-7.94-17.35-12.09-32.74-4.15-15.39-2.77-23.37-1.38-25.27,1.38-1.9,3.98-2.45,3.98-2.45Z"/>
          <path class="cls-16" d="M54.45,47.89s-10.64,3.4-17.36,25.24c-6.72,21.85-11.27,32.11-11.27,35.53,0,2.74,2.41,25.75,3.37,34.77.22,2.05,1.95,3.61,4.01,3.61h8.8c2.69,0,4.82-2.26,4.66-4.95-.6-9.9-1.86-31.41-1.71-33.74.25-3.8,7.73-16.56,12.09-32.74,4.15-15.39,2.77-23.37,1.38-25.27-1.38-1.9-3.98-2.45-3.98-2.45Z"/>
          <path class="cls-19" d="M114.2,148.59s-21.47,2.01-28.65,2.01-28.65-2.01-28.65-2.01c-.95,0-1.72-.77-1.72-1.72v-6.13h60.75v6.13c0,.95-.77,1.72-1.72,1.72Z"/>
          <path class="cls-18" d="M120.36,116.84c.85,5,.4,13.13-.1,18.87-.36,4.17-3.28,7.68-7.32,8.79-4.48,1.23-10.69,2.54-16.91,2.54h-21.63c-6.23,0-12.25-1.31-16.53-2.54-3.84-1.11-6.66-4.39-7.16-8.36-.73-5.76-1.51-14.17-.64-19.29,1.42-8.36,1.57-25.38,1.57-28.64s.08-23.96-1.48-29.2c-1.56-5.25.69-9.1,2.55-10.49,2.27-1.7,7.94-3.97,13.18-5.25,2.31-.56,3.73-.71,5.41-1.03,3.18-.61,1.32-2.87,1.32-2.87h24.16s-1.59,2.22,1.77,2.75c1.97.31,4.13.7,5.98,1.15,4.6,1.12,9.54,3.01,12.21,4.6.21.13.41.25.6.38.14.09.26.18.38.27.49.37,1.01.9,1.47,1.59,1.31,1.93,2.23,5.03,1.08,8.9-1.14,3.84-.25,15.95-1.02,23.45-.28,2.75-.46,4.88-.46,5.76,0,3.26.15,20.27,1.57,28.64Z"/>
          <path class="cls-8" d="M119.25,82.44c-.29,2.75-.46,4.88-.46,5.76,0,3.26.15,20.27,1.57,28.64.85,4.99.4,13.12-.1,18.86-.36,4.17-3.28,7.68-7.32,8.8-4.48,1.23-10.69,2.54-16.91,2.54h-21.63c-6.23,0-12.25-1.31-16.53-2.55-3.84-1.11-6.66-4.39-7.16-8.36-.73-5.76-1.51-14.17-.64-19.29,1.42-8.36,1.57-25.38,1.57-28.64s.08-23.96-1.48-29.21c-1.56-5.24.69-9.1,2.55-10.49,2.27-1.7,7.94-3.97,13.18-5.24,1.68-.41,3.6-.73,5.41-1.03.71-.12.66-2.76,1.32-2.87.01,0,2.27,1.86,2.73,2.25,2.01,1.72,7.7,8.05,9.88,16.8,1.46-8.95,6.65-15.49,11.55-19.05.67.09,1.69,2.73,2.52,2.87,1.85.31,3.89.71,5.23,1.04,4.6,1.12,9.54,3.01,12.21,4.6.21.13.41.25.6.38.13.09.26.18.38.27.49.37,1.01.9,1.47,1.59,1.31,1.92,2.23,5.03,1.08,8.9-1.14,3.84-.25,15.95-1.02,23.45Z"/>
          <path class="cls-19" d="M85.24,150.54c-.29,0-.52-.24-.52-.52V58.41c0-.29.23-.52.52-.52s.52.23.52.52v91.61c0,.29-.23.52-.52.52Z"/>
          <path class="cls-3" d="M86.74,58.03c0,.84-.68,1.53-1.53,1.53s-1.53-.68-1.53-1.53.68-1.53,1.53-1.53,1.53.68,1.53,1.53Z"/>
          <path class="cls-6" d="M86.03,61.85h-1.57c-.49,0-.85-.47-.73-.94l.6-2.31c.09-.33.39-.57.73-.57h.37c.34,0,.64.23.73.57l.6,2.31c.12.48-.24.94-.73.94Z"/>
          <path class="cls-19" d="M105.06,119.97c-2.73-.34-5.38-1.37-7.35-2.99-.56-.46-1.39-.17-1.56.53-1.19,5.14-1.49,11.62.42,16.63,2.02,5.3,7.81,6.97,12.66,4.39,6.64-3.53,5.46-12.73,5.18-18.94-.03-.69-.77-1.14-1.39-.82-2.31,1.18-5.18,1.55-7.96,1.21Z"/>
          <path class="cls-19" d="M74.2,117.08c.07,0,.14.01.21.03.21.07.37.24.42.46,1.39,5.98,1.24,12.13-.41,16.44-.88,2.3-2.57,4.02-4.75,4.84-2.34.88-5.05.65-7.45-.62-5.86-3.12-5.44-10.76-5.1-16.9.03-.6.07-1.18.09-1.74,0-.22.13-.41.31-.52.19-.11.41-.12.6-.02,2.29,1.17,5.18,1.61,8.14,1.24h0c2.88-.36,5.55-1.45,7.52-3.07.12-.1.26-.15.4-.15Z"/>
          <path class="cls-19" d="M88.84,56.04s-.08,0-.12-.02c-.17-.07-.25-.26-.18-.43,1.81-4.51,4.42-8.61,7.74-12.16.12-.13.33-.14.47-.02.13.12.14.33.02.47-3.27,3.49-5.83,7.52-7.61,11.96-.05.13-.18.21-.31.21Z"/>
          <path class="cls-19" d="M80.58,56.5s.08,0,.12-.02c.17-.07.25-.26.18-.43-1.81-4.51-4.42-8.61-7.74-12.16-.12-.13-.33-.14-.47-.02-.13.12-.14.33-.02.47,3.27,3.49,5.83,7.52,7.62,11.96.05.13.18.21.31.21Z"/>
        </g>
        <g>
          <path class="cls-11" d="M170.78,125.77l-2.37-17.94c-.87-6.59-6.49-11.51-13.13-11.51h-29.48c-6.64,0-12.26,4.92-13.13,11.51l-2.37,17.94c-2.04,15.42,9.96,29.11,25.51,29.11h9.48c15.55,0,27.55-13.69,25.51-29.11Z"/>
          <g class="cls-21">
            <path class="cls-14" d="M135.62,138.08v5.49c0,1.54.85,2.95,2.22,3.66l1.06.4c1.04.39,2.18.39,3.22,0l1.06-.4c1.36-.71,2.22-2.12,2.22-3.66v-5.49h-9.78Z"/>
          </g>
          <g class="cls-22">
            <path class="cls-14" d="M140.53,136.51c15.31,0,27.76-10.71,28.2-24.07l-.33-2.48c-.87-6.59-6.49-11.51-13.13-11.51h-29.48c-6.64,0-12.26,4.92-13.13,11.51l-.33,2.48c.44,13.36,12.89,24.07,28.2,24.07Z"/>
          </g>
          <path class="cls-12" d="M182.5,81.23l-18.11-16.05c-.23-.2-.58-.01-.54.29l3.18,22.8c.4,2.85,1.3,5.63,2.85,8.05,3.06,4.76,7.62,7.36,11.62,6.14,2.67-.82,4.59-3.18,5.54-6.34,1.61-5.36-.36-11.17-4.55-14.89ZM185.2,94.78c-.79,2.65-2.4,4.63-4.64,5.31-3.36,1.03-7.17-1.15-9.74-5.14-1.3-2.03-2.06-4.35-2.39-6.74l-3.69-21.76,16.65,15.85c3.51,3.11,5.16,7.98,3.81,12.47Z"/>
          <path class="cls-12" d="M163.86,65.2l-44.42,32.65,3.55-.25,40.08-29.47v31.49c.54.38,1.05.76,1.57,1.15v-35.2c0-.39-.46-.61-.78-.38Z"/>
          <path class="cls-4" d="M140.53,134.39c15.31,0,27.76-10.71,28.2-24.07l-.33-2.48c-.87-6.59-6.49-11.51-13.13-11.51h-29.48c-6.64,0-12.26,4.92-13.13,11.51l-.33,2.48c.44,13.36,12.89,24.07,28.2,24.07Z"/>
          <path class="cls-12" d="M140.53,134.39c15.31,0,27.76-10.71,28.2-24.07l-.33-2.48c-.87-6.59-6.49-11.51-13.13-11.51h-29.48c-6.64,0-12.26,4.92-13.13,11.51l-.33,2.48c.44,13.36,12.89,24.07,28.2,24.07Z"/>
          <g class="cls-24">
            <path class="cls-17" d="M112.66,109.05c.87-6.59,6.49-11.51,13.13-11.51h29.48c6.64,0,12.26,4.92,13.13,11.51l.28,2.1c.02-.28.04-.55.05-.83l-.33-2.48c-.87-6.59-6.49-11.51-13.13-11.51h-29.48c-6.64,0-12.26,4.92-13.13,11.51l-.33,2.48c0,.28.03.55.05.83l.28-2.1Z"/>
          </g>
          <g>
            <path class="cls-13" d="M113.99,105.9c-.19,0-.35-.15-.37-.34-.01-.23-.02-.45-.03-.68l.1-.9c.02-.2.21-.35.41-.32.2.02.35.2.32.41l-.1.85c0,.17.02.39.03.61.01.2-.14.38-.34.39h-.02Z"/>
            <path class="cls-2" d="M140.48,131.31c-.5,0-.99-.01-1.49-.04-.2-.01-.36-.18-.34-.39.01-.2.15-.34.39-.34.49.03,1.03.03,1.5.04.49,0,.98-.01,1.46-.04.23,0,.38.14.39.35.01.2-.14.38-.35.39-.51.03-1,.05-1.55.04ZM144.99,130.93c-.18,0-.33-.13-.36-.3-.03-.2.1-.39.3-.42.97-.16,1.94-.39,2.88-.66.2-.05.4.06.45.25.06.19-.06.4-.25.45-.97.28-1.97.51-2.96.68-.02,0-.04,0-.06,0ZM136.03,130.92s-.04,0-.06,0c-.99-.17-1.99-.4-2.96-.69-.19-.06-.3-.26-.25-.46.06-.19.26-.3.46-.25.94.28,1.91.5,2.88.67.2.03.33.22.3.42-.03.18-.18.3-.36.3ZM150.74,129.26c-.14,0-.28-.08-.34-.22-.08-.19,0-.4.2-.48.9-.38,1.8-.82,2.65-1.3.18-.1.4-.04.5.14.1.18.04.4-.14.5-.88.5-1.8.95-2.73,1.34-.05.02-.09.03-.14.03ZM130.29,129.24s-.1,0-.14-.03c-.93-.39-1.85-.85-2.73-1.34-.18-.1-.24-.32-.14-.5.1-.18.32-.24.5-.14.85.48,1.74.92,2.65,1.3.19.08.27.29.19.48-.06.14-.19.22-.34.22ZM155.96,126.32c-.11,0-.22-.05-.3-.15-.12-.16-.08-.39.08-.51.79-.57,1.57-1.2,2.3-1.86.15-.14.38-.12.52.02.14.15.12.38-.02.52-.75.68-1.54,1.33-2.36,1.91-.06.05-.14.07-.21.07ZM125.08,126.3c-.07,0-.15-.02-.21-.07-.81-.59-1.61-1.23-2.36-1.92-.15-.14-.16-.37-.02-.52.14-.15.37-.16.52-.02.73.67,1.5,1.29,2.29,1.87.16.12.2.35.08.51-.07.1-.18.15-.3.15ZM160.39,122.29c-.09,0-.17-.03-.24-.09-.15-.13-.17-.36-.03-.52.65-.74,1.26-1.52,1.83-2.33.11-.16.34-.2.51-.09s.21.34.09.51c-.58.83-1.21,1.63-1.88,2.39-.07.08-.17.12-.28.12ZM120.65,122.27c-.1,0-.2-.04-.28-.12-.66-.76-1.3-1.56-1.88-2.39-.12-.17-.07-.39.09-.51.17-.11.39-.07.51.09.56.81,1.18,1.59,1.82,2.33.13.15.12.38-.03.52-.07.06-.16.09-.24.09ZM163.82,117.39c-.06,0-.12-.01-.18-.04-.18-.1-.24-.32-.15-.5.47-.86.9-1.76,1.27-2.67.08-.19.29-.28.48-.2.19.08.28.29.2.48-.38.93-.82,1.86-1.3,2.75-.07.12-.19.19-.32.19ZM117.22,117.36c-.13,0-.26-.07-.32-.19-.48-.89-.92-1.81-1.3-2.75-.08-.19.01-.4.2-.48.19-.08.4.01.48.2.37.91.8,1.81,1.27,2.67.1.18.03.4-.15.5-.06.03-.12.04-.17.04ZM166.08,111.85s-.07,0-.1-.01c-.19-.05-.31-.26-.25-.45.27-.95.49-1.92.65-2.89.03-.2.22-.33.42-.3.2.03.33.22.3.42-.16.99-.39,1.99-.66,2.97-.05.16-.19.27-.35.27ZM114.97,111.81c-.16,0-.31-.11-.35-.27-.27-.97-.49-1.97-.66-2.97-.03-.2.1-.39.3-.42.21-.03.39.1.42.3.16.97.38,1.94.64,2.89.05.2-.06.4-.25.45-.03,0-.07.01-.1.01Z"/>
            <path class="cls-13" d="M167.07,105.9h-.02c-.2-.01-.36-.18-.35-.38.01-.22.02-.44.03-.66l-.1-.8c-.02-.2.12-.38.32-.41.2-.03.38.12.41.32l.1.85c0,.28-.01.5-.03.73-.01.2-.17.35-.37.35Z"/>
          </g>
          <rect class="cls-12" x="135.62" y="129.35" width="9.82" height="7.62"/>
          <rect class="cls-1" x="134.91" y="136.97" width="11.24" height="1.16"/>
          <g>
            <rect class="cls-9" x="135.85" y="138.13" width="9.36" height="1.16"/>
            <path class="cls-7" d="M140.53,139.3h-4.68v3.48c0,1.47.82,2.82,2.12,3.51l1.02.38c1,.37,2.09.37,3.09,0l1.02-.38c1.3-.68,2.12-2.04,2.12-3.51v-3.48h-4.68Z"/>
            <path class="cls-15" d="M140.53,139.3h-3.97v2.95c0,1.25.69,2.39,1.8,2.97l.86.32c.84.31,1.77.31,2.62,0l.86-.32c1.11-.58,1.8-1.72,1.8-2.97v-2.95h-3.97Z"/>
          </g>
          <g>
            <path class="cls-9" d="M140.49,139.3l-4.68.06.04,3.48c.02,1.47.85,2.81,2.17,3.48l1.02.37c1,.36,2.1.34,3.09-.04l1.01-.39c1.3-.7,2.1-2.06,2.08-3.53l-.04-3.48-4.68.06Z"/>
            <path class="cls-1" d="M140.49,139.3l-3.97.05.04,2.95c.02,1.25.72,2.38,1.84,2.95l.87.31c.85.3,1.78.29,2.61-.03l.86-.33c1.1-.59,1.78-1.75,1.76-2.99l-.04-2.95-3.97.05Z"/>
          </g>
        </g>
        <g>
          <path class="cls-5" d="M76.17,147.56v1.22s12.7,2.43,17.22,4.17c4.52,1.74,9.74,5.39,12.52,7.13,2.78,1.74,6.11,3.02,10.96,3.48,5.57.52,26.09-1.14,26.78-1.22,1.57-.17,1.57-2.26.52-2.96-1.37-.92-20,2.43-32.87-4-12.87-6.43-27.83-10.96-30.26-10.96s-4.87,3.13-4.87,3.13Z"/>
          <path class="cls-2" d="M78.25,114.69s.52,11.65-.35,15.13c-.87,3.48-2.61,10.78-2.61,12.87s.87,4.87.87,4.87c0,0,14.61,1.91,20.17,4.7,5.57,2.78,12.52,8.17,21.39,8.87,8.87.7,25.39-1.39,26.43-1.74,1.04-.35,1.91-6.43-5.22-8.7-7.13-2.26-10.78,1.04-16.35-4.35-5.57-5.39-7.48-9.74-8.87-13.74s-4-15.83-4.87-16.17c-.87-.35-5.91.35-12.52.35s-18.09-2.09-18.09-2.09Z"/>
          <path class="cls-10" d="M76.17,148.78l2.78,13.91h14.09l.52-10.09s-5.34-1.77-9.04-2.61c-3.83-.87-8.35-1.22-8.35-1.22Z"/>
          <path class="cls-20" d="M106.43,158.13s-.09-.03-.12-.07c-.03-.06,0-.14.06-.18.07-.03,6.85-3.47,6.02-6.81-.14-.57-.43-1.39-.77-2.34-1.7-4.8-4.87-13.74,2.07-16.25.07-.02.14.01.17.08.02.07-.01.14-.08.17-6.7,2.42-3.58,11.2-1.91,15.92.34.96.63,1.78.78,2.36.88,3.54-5.87,6.96-6.16,7.1-.02,0-.04.01-.06.01Z"/>
          <path class="cls-20" d="M107.53,158.46l-.12-.23s.27-.14.69-.37l.13.23c-.42.24-.69.37-.7.38ZM108.91,157.68l-.14-.22c.22-.14.44-.28.66-.42l.14.22c-.22.14-.44.29-.66.43ZM110.22,156.81l-.15-.21c.22-.16.42-.31.62-.47l.16.2c-.2.16-.41.32-.63.48ZM111.46,155.83l-.17-.2c.2-.18.39-.36.57-.53l.18.18c-.18.18-.37.36-.58.54ZM112.57,154.7l-.2-.17c.17-.21.33-.41.46-.61l.22.14c-.14.21-.3.42-.48.64ZM113.45,153.36l-.24-.11c.11-.24.19-.48.24-.71l.26.05c-.05.25-.14.51-.26.77ZM113.5,151.8c-.01-.13-.03-.26-.06-.38-.03-.11-.06-.23-.1-.36l.25-.07c.04.13.07.25.1.37.03.14.06.28.07.42l-.26.02ZM113.11,150.32c-.07-.23-.15-.48-.24-.74l.25-.08c.09.26.17.51.24.75l-.25.08ZM112.63,148.83c-.08-.24-.16-.49-.24-.75l.25-.08c.08.26.16.5.24.74l-.25.08ZM112.15,147.33c-.08-.25-.15-.5-.23-.75l.25-.07c.08.25.15.5.23.75l-.25.08ZM111.7,145.83c-.07-.25-.14-.5-.21-.76l.25-.07c.07.25.14.5.21.75l-.25.07ZM111.3,144.31c-.06-.25-.12-.51-.18-.77l.25-.06c.06.25.12.51.18.76l-.25.06ZM110.96,142.77c-.05-.26-.1-.52-.14-.78l.26-.04c.04.25.09.51.14.77l-.26.05ZM110.71,141.22c-.03-.27-.06-.53-.08-.78l.26-.02c.02.25.05.51.08.77l-.26.03ZM110.58,139.65c0-.14,0-.29,0-.43,0-.12,0-.24,0-.36h.26c0,.13,0,.24,0,.36,0,.14,0,.28,0,.42h-.26ZM110.89,138.09l-.26-.03c.03-.27.07-.54.12-.79l.26.05c-.05.24-.09.5-.11.76ZM111.2,136.59l-.25-.08c.08-.26.18-.51.3-.74l.23.11c-.11.22-.2.46-.28.71ZM111.87,135.22l-.21-.15c.16-.22.33-.43.52-.61l.18.19c-.18.17-.34.37-.49.58ZM112.94,134.17l-.15-.22c.22-.15.45-.28.7-.39l.11.24c-.24.11-.46.23-.66.37Z"/>
          <path class="cls-20" d="M94.04,151.57h-.26s0-.04,0-.08c0-.07,0-.18,0-.34h.26c0,.15,0,.27,0,.34,0,.06,0,.08,0,.08ZM93.7,150.37c-.03-.25-.06-.51-.11-.77l.26-.04c.04.27.08.53.11.78l-.26.03ZM93.46,148.84c-.05-.25-.11-.5-.17-.76l.25-.06c.06.26.12.52.17.77l-.26.05ZM93.1,147.32c-.07-.24-.14-.5-.22-.75l.25-.08c.08.25.15.51.22.76l-.25.07ZM92.64,145.83c-.08-.24-.17-.48-.26-.74l.25-.09c.09.25.18.5.26.74l-.25.08ZM92.11,144.37c-.09-.24-.19-.48-.29-.72l.24-.1c.1.25.2.49.3.73l-.24.1ZM91.5,142.93c-.1-.23-.21-.47-.33-.71l.24-.11c.11.24.22.48.33.71l-.24.11ZM90.83,141.52c-.11-.23-.23-.46-.36-.69l.23-.12c.12.24.24.47.36.7l-.23.12ZM90.11,140.14c-.12-.22-.25-.45-.38-.68l.23-.13c.13.23.26.46.38.68l-.23.13ZM89.33,138.79c-.14-.22-.28-.44-.42-.65l.22-.15c.15.22.29.44.43.66l-.22.14ZM88.46,137.51c-.15-.21-.31-.42-.47-.62l.2-.16c.16.2.32.42.48.63l-.21.15ZM87.49,136.29c-.17-.2-.34-.39-.52-.58l.19-.18c.18.19.35.39.52.59l-.2.17ZM86.44,135.15c-.18-.18-.37-.36-.56-.54l.18-.19c.19.18.38.36.57.55l-.18.18ZM85.3,134.09c-.2-.17-.4-.33-.6-.5l.16-.2c.2.16.41.33.61.5l-.17.2ZM84.08,133.12c-.21-.15-.42-.31-.63-.45l.15-.22c.22.15.43.3.64.46l-.16.21ZM82.8,132.24c-.22-.14-.44-.27-.66-.41l.13-.23c.23.13.45.27.67.41l-.14.22ZM81.45,131.45c-.23-.12-.46-.24-.69-.36l.12-.23c.23.12.47.24.7.36l-.12.23ZM80.06,130.76c-.24-.11-.48-.21-.72-.3l.1-.24c.24.1.48.2.73.31l-.11.24ZM78.61,130.18c-.46-.16-.74-.23-.74-.23l.06-.25s.29.07.76.24l-.09.25Z"/>
          <path class="cls-20" d="M104.71,156.81l-.13-.23c.21-.12.44-.26.66-.4l.14.22c-.23.15-.46.28-.67.41ZM106.04,155.96l-.15-.21c.21-.15.42-.3.63-.45l.16.21c-.21.16-.43.31-.64.46ZM107.31,155.02l-.16-.2c.2-.16.4-.33.6-.5l.17.2c-.2.17-.4.34-.61.5ZM108.5,154l-.18-.19c.19-.18.38-.36.56-.54l.18.19c-.18.18-.38.37-.57.54ZM109.61,152.86l-.21-.16c.17-.22.3-.43.4-.64l.24.11c-.11.23-.25.45-.43.69ZM110.26,151.38l-.26-.03c.01-.09.02-.19.02-.29,0-.15-.01-.3-.04-.46l.26-.04c.03.17.04.34.04.5,0,.11,0,.21-.02.32ZM109.8,149.87c-.07-.22-.15-.46-.26-.73l.24-.1c.11.28.2.52.27.75l-.25.08ZM109.24,148.42c-.1-.23-.21-.46-.32-.71l.24-.11c.12.25.22.49.32.71l-.24.11ZM108.59,147l-.33-.71.24-.11.33.71-.24.11ZM107.94,145.58c-.1-.23-.21-.47-.32-.71l.24-.11c.11.25.22.48.32.71l-.24.11ZM107.3,144.15c-.1-.23-.21-.47-.31-.72l.24-.1c.1.25.21.49.31.72l-.24.1ZM106.68,142.71c-.07-.16-.13-.32-.2-.49-.03-.08-.06-.16-.09-.24l.24-.1c.03.08.06.16.09.23.07.17.13.33.2.49l-.24.1ZM106.11,141.25c-.09-.24-.17-.49-.26-.74l.25-.08c.09.25.17.5.26.74l-.25.09ZM105.6,139.76c-.08-.25-.16-.5-.24-.75l.25-.08c.08.25.16.5.23.75l-.25.08ZM105.14,138.26c-.07-.25-.14-.5-.22-.75l.25-.07c.07.25.14.5.21.75l-.25.07ZM104.72,136.75c-.07-.25-.13-.5-.2-.76l.25-.07c.07.25.13.51.2.76l-.25.07ZM104.32,135.23c-.06-.25-.13-.51-.19-.76l.25-.06c.06.25.12.51.19.76l-.25.06ZM103.95,133.7c-.06-.25-.12-.51-.18-.77l.25-.06c.06.25.12.51.18.76l-.25.06ZM103.6,132.17c-.06-.26-.11-.51-.17-.76l.25-.06c.06.25.11.51.17.76l-.25.06ZM103.27,130.64c-.05-.26-.11-.51-.16-.77l.26-.05c.05.25.11.51.16.77l-.26.05ZM102.95,129.11c-.05-.26-.1-.51-.15-.77l.26-.05c.05.25.1.51.15.77l-.26.05ZM102.64,127.57c-.05-.26-.1-.52-.15-.77l.26-.05c.05.25.1.51.15.77l-.26.05ZM102.35,126.03c-.05-.26-.1-.52-.14-.77l.26-.05c.05.25.09.51.14.77l-.26.05ZM102.07,124.48c-.05-.27-.09-.52-.14-.77l.26-.04c.04.25.09.51.14.77l-.26.05ZM101.8,122.94c-.05-.27-.09-.53-.13-.77l.26-.04c.04.24.08.5.13.77l-.26.04ZM101.54,121.39c-.05-.29-.09-.55-.12-.78l.26-.04c.04.23.08.49.12.77l-.26.04ZM101.29,119.83l-.06-.41h.16c.15.02.33.03.52.04v.26c-.14,0-.27,0-.38-.01v.09s-.24.04-.24.04ZM102.7,119.72v-.26c.24,0,.5-.01.78-.02v.26c-.26.01-.53.02-.78.02ZM104.27,119.65l-.02-.26c.26-.01.52-.03.78-.05l.02.26c-.26.02-.53.04-.78.05ZM105.84,119.55l-.02-.26c.26-.02.53-.04.78-.06l.02.26c-.26.02-.52.04-.78.06ZM107.4,119.41l-.02-.26c.28-.03.54-.05.78-.07l.03.26c-.24.02-.5.05-.78.07ZM108.97,119.26l-.03-.26c.48-.05.78-.08.78-.08l.03.26s-.3.03-.78.08Z"/>
          <path class="cls-20" d="M97.21,118.37h-.11s0-.26,0-.26h.11c.22,0,.44,0,.67,0v.26c-.23,0-.45,0-.67,0ZM96.31,118.35c-.28,0-.54-.02-.79-.03l.02-.26c.24.02.5.03.78.03v.26ZM98.67,118.34v-.26c.25,0,.51-.02.77-.03v.26c-.25.01-.52.02-.77.03ZM100.24,118.28v-.26c.25-.01.51-.03.77-.04l.02.26c-.26.02-.52.03-.78.04ZM94.74,118.26c-.25-.02-.51-.05-.78-.08l.03-.26c.27.03.54.05.78.08l-.02.26ZM101.8,118.18l-.02-.26c.26-.02.52-.04.78-.06l.02.26c-.26.02-.52.04-.78.06ZM93.18,118.1c-.25-.03-.51-.06-.78-.09l.03-.26c.27.03.53.06.78.09l-.03.26ZM103.37,118.06l-.02-.26c.26-.02.52-.04.78-.07l.02.26c-.26.02-.52.04-.78.07ZM104.93,117.93l-.02-.26c.27-.02.53-.05.78-.07l.03.26c-.25.02-.51.05-.78.07ZM91.62,117.91c-.25-.03-.51-.06-.78-.1l.03-.26c.26.03.52.07.78.1l-.03.26ZM106.49,117.78l-.03-.26c.27-.03.53-.05.78-.08l.03.26c-.25.03-.51.05-.78.08ZM90.06,117.71c-.26-.03-.52-.07-.78-.1l.03-.26c.26.03.52.07.78.1l-.03.26ZM108.05,117.61l-.03-.26c.3-.03.56-.06.78-.09l.03.26c-.22.03-.48.06-.78.09ZM88.51,117.51l-.78-.11.04-.26.78.11-.03.26ZM86.95,117.29l-.78-.11.04-.26.78.11-.04.26ZM85.4,117.08l-.78-.11.04-.26.78.11-.04.26ZM83.85,116.85l-.78-.11.04-.26.78.11-.04.26ZM82.29,116.63l-.78-.12.04-.26.78.12-.04.26ZM80.74,116.39l-.78-.12.04-.26.78.12-.04.26ZM79.19,116.16c-.5-.08-.78-.12-.78-.12l.04-.26s.28.04.78.12l-.04.26Z"/>
        </g>
      </g>
    </g>
  </g>
</svg>