<?xml version="1.0" encoding="UTF-8"?>
<svg id="_Слой_2" data-name="Слой 2" xmlns="http://www.w3.org/2000/svg" viewBox="0 0 203 203">
  <defs>
    <style>
      .cls-1 {
        opacity: .5;
      }

      .cls-2, .cls-3, .cls-4, .cls-5, .cls-6 {
        stroke-width: 0px;
      }

      .cls-2, .cls-4 {
        fill: #010101;
      }

      .cls-7 {
        opacity: .2;
      }

      .cls-3, .cls-8 {
        fill: #fff;
      }

      .cls-8 {
        stroke: #1f3a6e;
        stroke-miterlimit: 10;
        stroke-width: 3px;
      }

      .cls-4 {
        opacity: .1;
      }

      .cls-5 {
        fill: #fdc629;
      }

      .cls-6 {
        fill: #7d4e24;
      }
    </style>
  </defs>
  <g id="Calque_1" data-name="Calque 1">
    <g>
      <circle class="cls-8" cx="101.5" cy="101.5" r="99.99"/>
      <g>
        <g>
          <g>
            <g>
              <path class="cls-5" d="M110.22,92.62c-1.44-.75-2.22-2.43-1.88-4.01.46-2.1,1.79-3.58,3.77-3.05l3.33-9.24c-1.75-.82-1.84-2.63-1.06-4.48.67-1.59,2.43-2.52,4.12-2.16,1.31.28,2.28,1.2,2.69,2.32,1.03-.59,2.34-.67,3.52-.06,1.43.74,2.22,2.41,1.89,3.99-.44,2.1-1.77,3.59-3.74,3.09l-3.33,9.23c1.83.87,1.9,2.85.91,4.75-.75,1.44-2.42,2.22-4,1.88-1.3-.28-2.26-1.2-2.68-2.32-1.04.6-2.36.69-3.55.07Z"/>
              <path class="cls-6" d="M110.22,92.62c-1.44-.75-2.22-2.43-1.88-4.01.46-2.1,1.79-3.58,3.77-3.05l3.33-9.24c-1.75-.82-1.84-2.63-1.06-4.48.67-1.59,2.43-2.52,4.12-2.16,1.31.28,2.28,1.2,2.69,2.32,1.03-.59,2.34-.67,3.52-.06,1.43.74,2.22,2.41,1.89,3.99-.44,2.1-1.77,3.59-3.74,3.09l-3.33,9.23c1.83.87,1.9,2.85.91,4.75-.75,1.44-2.42,2.22-4,1.88-1.3-.28-2.26-1.2-2.68-2.32-1.04.6-2.36.69-3.55.07Z"/>
            </g>
            <g class="cls-7">
              <path class="cls-2" d="M114.62,75.75c-.92-.94-.86-2.41-.23-3.9.67-1.59,2.43-2.52,4.12-2.16,1.32.28,2.28,1.2,2.7,2.32,1.03-.59,2.34-.67,3.52-.06,1.41.73,2.19,2.36,1.9,3.91-.16-1.07-.83-2.04-1.82-2.56-1.12-.58-2.36-.5-3.34.06-.39-1.07-1.31-1.94-2.56-2.2-1.6-.34-3.27.54-3.91,2.05-.38.9-.54,1.78-.39,2.54Z"/>
              <path class="cls-2" d="M111.15,92.96c-.31-.07-.63-.18-.93-.34-1.44-.75-2.22-2.42-1.88-4.01.46-2.1,1.8-3.57,3.77-3.05l3.33-9.22c.2.21.46.39.78.54l-3.37,9.34c-1.88-.49-3.14.91-3.58,2.9-.33,1.5.41,3.09,1.78,3.81.03.02.06.03.1.05Z"/>
              <path class="cls-2" d="M115.18,85.4c.68-2.74,1.61-5.4,2.7-8,.83.34,1.66.7,2.46,1.1-.82-.19-1.63-.43-2.43-.67l.24-.11c-.82,2.63-1.78,5.21-2.98,7.69h0Z"/>
            </g>
            <g class="cls-1">
              <path class="cls-5" d="M125.96,76.64c-.15,1.76-1.74,2.78-3.42,2.12,0,0,.3-.14.3-.14-.49,1.47-1.02,2.94-1.58,4.39-.56,1.45-1.15,2.89-1.8,4.31.81-3.01,1.83-5.94,2.95-8.85,0,0,.08-.21.08-.21,1.63.72,2.95.12,3.47-1.62h0Z"/>
              <path class="cls-5" d="M120.49,92.37c-.69,2.38-3.87,3.23-5.6,1.42.53.19,1.02.41,1.55.46,1.6.27,3.1-.63,4.05-1.88h0Z"/>
              <path class="cls-5" d="M113.68,92.31c-.48.68-1.54.83-2.24.4.75-.3,1.41-.38,2.24-.4h0Z"/>
              <path class="cls-5" d="M120.07,79.25c-.68,2.74-1.61,5.4-2.7,8-.83-.34-1.66-.7-2.46-1.1.82.19,1.63.43,2.43.67l-.24.11c.82-2.63,1.78-5.21,2.98-7.69h0Z"/>
            </g>
          </g>
          <g>
            <g>
              <path class="cls-5" d="M95.52,79.7c.1,1.62-.92,3.16-2.46,3.68-2.03.7-3.99.32-4.56-1.64l-9.63,1.93c.21,1.92-1.3,2.94-3.28,3.23-1.71.25-3.42-.77-3.99-2.4-.44-1.27-.16-2.57.59-3.51-1.04-.58-1.79-1.65-1.88-2.98-.11-1.61.91-3.14,2.43-3.68,2.03-.71,3.99-.35,4.58,1.6l9.62-1.93c-.21-2.02,1.45-3.1,3.59-3.24,1.62-.1,3.15.92,3.68,2.45.43,1.26.15,2.56-.59,3.49,1.05.58,1.81,1.66,1.9,3Z"/>
              <path class="cls-6" d="M95.52,79.7c.1,1.62-.92,3.16-2.46,3.68-2.03.7-3.99.32-4.56-1.64l-9.63,1.93c.21,1.92-1.3,2.94-3.28,3.23-1.71.25-3.42-.77-3.99-2.4-.44-1.27-.16-2.57.59-3.51-1.04-.58-1.79-1.65-1.88-2.98-.11-1.61.91-3.14,2.43-3.68,2.03-.71,3.99-.35,4.58,1.6l9.62-1.93c-.21-2.02,1.45-3.1,3.59-3.24,1.62-.1,3.15.92,3.68,2.45.43,1.26.15,2.56-.59,3.49,1.05.58,1.81,1.66,1.9,3Z"/>
            </g>
            <g class="cls-7">
              <path class="cls-2" d="M78.8,84.68c-.33,1.28-1.62,1.98-3.22,2.22-1.71.25-3.42-.77-3.99-2.41-.44-1.27-.16-2.57.59-3.51-1.04-.58-1.79-1.66-1.88-2.98-.1-1.59.88-3.1,2.36-3.65-.83.69-1.32,1.77-1.25,2.88.08,1.26.8,2.28,1.78,2.82-.71.89-.98,2.13-.56,3.33.54,1.55,2.16,2.52,3.78,2.28.96-.14,1.8-.46,2.37-.99Z"/>
              <path class="cls-2" d="M95.32,78.73c.1.31.17.63.19.97.1,1.62-.92,3.15-2.46,3.68-2.03.69-3.99.32-4.56-1.64l-9.61,1.93c.07-.28.09-.6.06-.94l9.74-1.96c.55,1.86,2.4,2.22,4.33,1.56,1.46-.5,2.43-1.96,2.33-3.5,0-.04,0-.07,0-.11Z"/>
            </g>
            <g class="cls-1">
              <path class="cls-5" d="M73.69,74.52c1.58-.78,3.28.05,3.59,1.82,0,0-.27-.18-.27-.18,1.52-.34,3.04-.65,4.57-.92,1.53-.27,3.07-.52,4.62-.69-2.99.87-6.03,1.51-9.1,2.06,0,0-.22.04-.22.04-.23-1.77-1.42-2.59-3.18-2.13h0Z"/>
              <path class="cls-5" d="M89.98,71.04c2.39-.64,4.76,1.63,4.12,4.06-.18-2.26-1.87-3.88-4.12-4.06h0Z"/>
              <path class="cls-5" d="M93.46,76.91c.83.06,1.5.89,1.5,1.71-.64-.49-1.05-1.01-1.5-1.71h0Z"/>
            </g>
          </g>
          <g>
            <g>
              <path class="cls-5" d="M105.77,82.09c-.17,1.62-1.44,2.96-3.04,3.22-2.12.35-3.99-.35-4.22-2.38l-9.82.29c-.12,1.93-1.77,2.68-3.77,2.63-1.73-.04-3.24-1.33-3.53-3.04-.22-1.32.27-2.56,1.17-3.36-.93-.74-1.49-1.93-1.35-3.25.17-1.61,1.42-2.95,3.01-3.22,2.12-.36,3.99.32,4.25,2.34l9.81-.29c.14-2.03,1.95-2.82,4.09-2.59,1.61.17,2.95,1.43,3.22,3.03.22,1.32-.28,2.55-1.17,3.34.94.74,1.51,1.94,1.37,3.27Z"/>
              <path class="cls-6" d="M105.77,82.09c-.17,1.62-1.44,2.96-3.04,3.22-2.12.35-3.99-.35-4.22-2.38l-9.82.29c-.12,1.93-1.77,2.68-3.77,2.63-1.73-.04-3.24-1.33-3.53-3.04-.22-1.32.27-2.56,1.17-3.36-.93-.74-1.49-1.93-1.35-3.25.17-1.61,1.42-2.95,3.01-3.22,2.12-.36,3.99.32,4.25,2.34l9.81-.29c.14-2.03,1.95-2.82,4.09-2.59,1.61.17,2.95,1.43,3.22,3.03.22,1.32-.28,2.55-1.17,3.34.94.74,1.51,1.94,1.37,3.27Z"/>
            </g>
            <g class="cls-7">
              <path class="cls-2" d="M88.46,84.2c-.54,1.2-1.93,1.69-3.54,1.65-1.73-.04-3.24-1.34-3.53-3.04-.22-1.33.28-2.56,1.17-3.36-.93-.74-1.49-1.93-1.35-3.25.16-1.58,1.39-2.91,2.94-3.2-.94.54-1.59,1.52-1.71,2.63-.13,1.25.4,2.38,1.28,3.08-.85.76-1.32,1.93-1.11,3.19.27,1.62,1.71,2.85,3.35,2.88.97.02,1.86-.15,2.5-.58Z"/>
              <path class="cls-2" d="M105.74,81.1c.05.32.06.65.03.99-.17,1.61-1.44,2.96-3.04,3.22-2.12.34-3.98-.36-4.22-2.39l-9.8.29c.12-.27.19-.57.21-.92l9.93-.3c.23,1.93,2,2.59,4.01,2.26,1.52-.25,2.72-1.52,2.89-3.05,0-.04,0-.07,0-.11Z"/>
            </g>
            <g class="cls-1">
              <path class="cls-5" d="M85.12,73.33c1.69-.51,3.22.6,3.23,2.4,0,0-.24-.22-.24-.22,1.55-.08,3.11-.13,4.66-.14,1.55,0,3.11,0,4.67.1-3.1.35-6.2.48-9.31.51,0,0-.23,0-.23,0,.07-1.78-.97-2.79-2.78-2.64h0Z"/>
              <path class="cls-5" d="M101.76,72.63c2.47-.23,4.42,2.41,3.38,4.69.2-2.25-1.19-4.14-3.38-4.69h0Z"/>
              <path class="cls-5" d="M104.21,78.99c.81.2,1.33,1.13,1.19,1.93-.55-.59-.87-1.18-1.19-1.93h0Z"/>
            </g>
          </g>
          <g>
            <g>
              <path class="cls-5" d="M89.49,90.63c-.49,1.55-2,2.61-3.62,2.55-2.15-.08-3.84-1.14-3.67-3.17l-9.68-1.66c-.5,1.87-2.27,2.27-4.22,1.83-1.69-.38-2.91-1.95-2.86-3.68.04-1.34.78-2.45,1.81-3.06-.76-.91-1.08-2.19-.68-3.45.48-1.54,1.98-2.61,3.59-2.56,2.15.07,3.85,1.11,3.7,3.14l9.67,1.66c.53-1.96,2.47-2.37,4.52-1.73,1.55.49,2.61,1.99,2.55,3.61-.05,1.33-.78,2.44-1.81,3.05.77.92,1.09,2.2.69,3.48Z"/>
              <path class="cls-6" d="M89.49,90.63c-.49,1.55-2,2.61-3.62,2.55-2.15-.08-3.84-1.14-3.67-3.17l-9.68-1.66c-.5,1.87-2.27,2.27-4.22,1.83-1.69-.38-2.91-1.95-2.86-3.68.04-1.34.78-2.45,1.81-3.06-.76-.91-1.08-2.19-.68-3.45.48-1.54,1.98-2.61,3.59-2.56,2.15.07,3.85,1.11,3.7,3.14l9.67,1.66c.53-1.96,2.47-2.37,4.52-1.73,1.55.49,2.61,1.99,2.55,3.61-.05,1.33-.78,2.44-1.81,3.05.77.92,1.09,2.2.69,3.48Z"/>
            </g>
            <g class="cls-7">
              <path class="cls-2" d="M72.1,89.27c-.76,1.07-2.22,1.27-3.8.92-1.69-.38-2.91-1.95-2.86-3.68.04-1.34.78-2.45,1.81-3.06-.76-.91-1.07-2.19-.68-3.46.47-1.52,1.93-2.57,3.52-2.55-1.03.35-1.86,1.17-2.2,2.24-.37,1.2-.08,2.41.65,3.28-.98.57-1.68,1.63-1.72,2.9-.05,1.64,1.11,3.13,2.71,3.49.95.22,1.85.22,2.57-.07Z"/>
              <path class="cls-2" d="M89.66,89.66c-.01.32-.07.65-.17.98-.48,1.55-1.99,2.61-3.62,2.55-2.15-.08-3.83-1.14-3.67-3.18l-9.67-1.66c.17-.24.3-.52.39-.86l9.79,1.68c-.16,1.93,1.45,2.93,3.48,3.01,1.54.06,2.97-.95,3.43-2.42.01-.03.02-.07.03-.1Z"/>
              <path class="cls-2" d="M81.51,87.02c-2.82-.19-5.6-.64-8.35-1.25.19-.88.39-1.75.65-2.62-.04.84-.13,1.67-.24,2.51l-.16-.22c2.73.34,5.44.83,8.09,1.58h0Z"/>
            </g>
            <g class="cls-1">
              <path class="cls-5" d="M70.99,77.95c1.76-.16,3.04,1.22,2.69,2.99,0,0-.19-.27-.19-.27,1.54.23,3.07.49,4.6.78,1.53.3,3.05.62,4.56,1.02-3.1-.27-6.17-.76-9.23-1.35,0,0-.22-.04-.22-.04.43-1.73-.4-2.93-2.2-3.14h0Z"/>
              <path class="cls-5" d="M87.44,80.57c2.47.26,3.86,3.24,2.38,5.27.64-2.17-.35-4.29-2.38-5.27h0Z"/>
              <path class="cls-5" d="M88.57,87.29c.75.36,1.08,1.37.79,2.13-.42-.69-.62-1.33-.79-2.13h0Z"/>
              <path class="cls-5" d="M74.59,83.29c2.82.19,5.6.64,8.35,1.25-.19.88-.39,1.75-.65,2.62.04-.84.13-1.67.24-2.51l.16.22c-2.73-.34-5.44-.83-8.09-1.58h0Z"/>
            </g>
          </g>
          <g>
            <g>
              <path class="cls-5" d="M137.38,84.65c.04,1.62-1.05,3.12-2.6,3.58-2.06.62-4,.16-4.5-1.82l-9.7,1.55c.13,1.93-1.41,2.88-3.4,3.09-1.72.18-3.38-.91-3.89-2.56-.39-1.28-.06-2.57.73-3.48-1.01-.62-1.72-1.72-1.76-3.05-.04-1.62,1.03-3.11,2.58-3.58,2.06-.63,4-.19,4.51,1.78l9.69-1.55c-.13-2.03,1.58-3.04,3.72-3.09,1.62-.04,3.11,1.04,3.58,2.6.38,1.28.05,2.56-.73,3.47,1.02.62,1.74,1.73,1.78,3.07Z"/>
              <path class="cls-6" d="M137.38,84.65c.04,1.62-1.05,3.12-2.6,3.58-2.06.62-4,.16-4.5-1.82l-9.7,1.55c.13,1.93-1.41,2.88-3.4,3.09-1.72.18-3.38-.91-3.89-2.56-.39-1.28-.06-2.57.73-3.48-1.01-.62-1.72-1.72-1.76-3.05-.04-1.62,1.03-3.11,2.58-3.58,2.06-.63,4-.19,4.51,1.78l9.69-1.55c-.13-2.03,1.58-3.04,3.72-3.09,1.62-.04,3.11,1.04,3.58,2.6.38,1.28.05,2.56-.73,3.47,1.02.62,1.74,1.73,1.78,3.07Z"/>
            </g>
            <g class="cls-7">
              <path class="cls-2" d="M120.48,88.96c-.38,1.26-1.69,1.92-3.3,2.09-1.72.18-3.39-.91-3.89-2.56-.39-1.29-.05-2.57.73-3.48-1.01-.62-1.72-1.73-1.76-3.05-.04-1.59,1-3.06,2.51-3.55-.86.66-1.39,1.71-1.36,2.83.03,1.26.7,2.31,1.67,2.89-.75.86-1.06,2.08-.69,3.3.48,1.57,2.06,2.6,3.69,2.43.97-.1,1.82-.39,2.41-.89Z"/>
              <path class="cls-2" d="M137.23,83.67c.09.31.15.64.15.98.04,1.62-1.05,3.12-2.6,3.58-2.06.61-4,.16-4.5-1.82l-9.68,1.55c.08-.28.12-.59.09-.94l9.81-1.57c.47,1.88,2.31,2.31,4.27,1.73,1.48-.44,2.51-1.86,2.47-3.4,0-.04,0-.07,0-.11Z"/>
              <path class="cls-2" d="M128.66,83.8c-2.73.73-5.51,1.2-8.31,1.51-.1-.89-.19-1.79-.23-2.69.23.81.41,1.63.58,2.45l-.22-.16c2.7-.56,5.42-.96,8.17-1.11h0Z"/>
            </g>
            <g class="cls-1">
              <path class="cls-5" d="M115.78,78.61c1.61-.72,3.27.18,3.51,1.96,0,0-.26-.19-.26-.19,1.53-.28,3.06-.53,4.6-.74,1.54-.21,3.09-.39,4.64-.5-3.03.75-6.09,1.27-9.17,1.7,0,0-.22.03-.22.03-.16-1.78-1.32-2.64-3.09-2.26h0Z"/>
              <path class="cls-5" d="M132.19,75.78c2.42-.55,4.69,1.82,3.95,4.22-.09-2.26-1.71-3.95-3.95-4.22h0Z"/>
              <path class="cls-5" d="M135.44,81.78c.83.1,1.47.95,1.43,1.76-.62-.51-1.01-1.06-1.43-1.76h0Z"/>
            </g>
          </g>
          <g>
            <g>
              <path class="cls-5" d="M116.03,81.61c.42,1.57-.27,3.28-1.67,4.1-1.85,1.09-3.84,1.11-4.8-.7l-9.05,3.82c.59,1.84-.69,3.14-2.57,3.82-1.63.59-3.5-.07-4.39-1.56-.69-1.15-.67-2.48-.12-3.55-1.13-.36-2.08-1.26-2.43-2.54-.43-1.56.26-3.26,1.65-4.09,1.85-1.1,3.84-1.14,4.81.65l9.04-3.82c-.61-1.94.8-3.33,2.87-3.89,1.56-.42,3.27.27,4.09,1.67.68,1.15.66,2.48.12,3.54,1.14.36,2.11,1.27,2.46,2.56Z"/>
              <path class="cls-6" d="M116.03,81.61c.42,1.57-.27,3.28-1.67,4.1-1.85,1.09-3.84,1.11-4.8-.7l-9.05,3.82c.59,1.84-.69,3.14-2.57,3.82-1.63.59-3.5-.07-4.39-1.56-.69-1.15-.67-2.48-.12-3.55-1.13-.36-2.08-1.26-2.43-2.54-.43-1.56.26-3.26,1.65-4.09,1.85-1.1,3.84-1.14,4.81.65l9.04-3.82c-.61-1.94.8-3.33,2.87-3.89,1.56-.42,3.27.27,4.09,1.67.68,1.15.66,2.48.12,3.54,1.14.36,2.11,1.27,2.46,2.56Z"/>
            </g>
            <g class="cls-7">
              <path class="cls-2" d="M100.65,89.83c-.06,1.32-1.19,2.27-2.71,2.82-1.63.59-3.5-.07-4.39-1.56-.69-1.16-.67-2.48-.12-3.55-1.13-.36-2.08-1.26-2.44-2.54-.42-1.53.24-3.21,1.59-4.05-.68.85-.94,1.99-.65,3.07.33,1.21,1.23,2.07,2.31,2.41-.52,1.01-.53,2.28.12,3.37.84,1.41,2.62,2.04,4.16,1.48.92-.33,1.68-.81,2.13-1.44Z"/>
              <path class="cls-2" d="M115.65,80.7c.16.28.29.58.38.92.43,1.56-.27,3.27-1.67,4.1-1.85,1.09-3.84,1.11-4.8-.7l-9.03,3.81c.02-.29-.03-.6-.13-.93l9.15-3.86c.91,1.71,2.8,1.69,4.55.66,1.33-.78,1.99-2.4,1.59-3.89-.01-.03-.02-.07-.03-.1Z"/>
            </g>
            <g class="cls-1">
              <path class="cls-5" d="M93.61,80.9c1.4-1.08,3.22-.61,3.88,1.07,0,0-.3-.12-.3-.12,1.42-.64,2.85-1.24,4.29-1.82,1.45-.57,2.9-1.12,4.39-1.6-2.76,1.45-5.61,2.69-8.5,3.84,0,0-.21.08-.21.08-.58-1.69-1.91-2.25-3.54-1.46h0Z"/>
              <path class="cls-5" d="M108.88,74.24c2.22-1.11,4.99.65,4.84,3.15-.22-.52-.4-1.03-.71-1.45-.88-1.36-2.57-1.85-4.13-1.7h0Z"/>
              <path class="cls-5" d="M113.46,79.29c.83-.1,1.65.57,1.81,1.37-.73-.35-1.23-.78-1.81-1.37h0Z"/>
            </g>
          </g>
          <g>
            <g>
              <path class="cls-5" d="M119.67,75.7c-.15,1.62-1.41,2.97-3.01,3.25-2.12.37-3.99-.31-4.25-2.34l-9.81.39c-.1,1.93-1.75,2.69-3.75,2.67-1.73-.02-3.25-1.3-3.56-3-.24-1.32.25-2.56,1.13-3.37-.93-.73-1.51-1.92-1.38-3.24.15-1.61,1.39-2.96,2.98-3.25,2.12-.38,3.99.28,4.27,2.3l9.81-.39c.12-2.03,1.93-2.84,4.06-2.63,1.61.15,2.97,1.41,3.25,3,.23,1.31-.26,2.55-1.14,3.36.94.73,1.53,1.93,1.4,3.26Z"/>
              <path class="cls-6" d="M119.67,75.7c-.15,1.62-1.41,2.97-3.01,3.25-2.12.37-3.99-.31-4.25-2.34l-9.81.39c-.1,1.93-1.75,2.69-3.75,2.67-1.73-.02-3.25-1.3-3.56-3-.24-1.32.25-2.56,1.13-3.37-.93-.73-1.51-1.92-1.38-3.24.15-1.61,1.39-2.96,2.98-3.25,2.12-.38,3.99.28,4.27,2.3l9.81-.39c.12-2.03,1.93-2.84,4.06-2.63,1.61.15,2.97,1.41,3.25,3,.23,1.31-.26,2.55-1.14,3.36.94.73,1.53,1.93,1.4,3.26Z"/>
            </g>
            <g class="cls-7">
              <path class="cls-2" d="M102.38,77.99c-.52,1.21-1.91,1.71-3.53,1.69-1.73-.02-3.25-1.3-3.56-3-.24-1.32.25-2.56,1.13-3.37-.93-.74-1.51-1.92-1.39-3.24.15-1.58,1.36-2.92,2.91-3.23-.93.55-1.58,1.54-1.68,2.64-.11,1.25.43,2.37,1.32,3.07-.84.77-1.3,1.94-1.08,3.2.29,1.61,1.73,2.83,3.38,2.85.97.01,1.85-.17,2.5-.6Z"/>
              <path class="cls-2" d="M119.64,74.71c.05.32.07.65.04.99-.15,1.61-1.41,2.97-3.01,3.25-2.12.36-3.99-.32-4.25-2.34l-9.8.39c.12-.27.19-.58.2-.92l9.92-.4c.25,1.92,2.02,2.57,4.03,2.22,1.52-.26,2.71-1.55,2.85-3.08,0-.04,0-.07,0-.11Z"/>
            </g>
            <g class="cls-1">
              <path class="cls-5" d="M98.94,67.15c1.69-.52,3.23.56,3.25,2.37,0,0-.24-.22-.24-.22,1.55-.1,3.1-.16,4.66-.19,1.55-.02,3.11-.03,4.67.05-3.09.38-6.2.54-9.31.6,0,0-.23,0-.23,0,.05-1.78-1-2.78-2.81-2.61h0Z"/>
              <path class="cls-5" d="M115.57,66.28c2.47-.26,4.45,2.36,3.43,4.65.18-2.26-1.23-4.13-3.43-4.65h0Z"/>
              <path class="cls-5" d="M118.08,72.62c.81.19,1.35,1.11,1.21,1.92-.56-.58-.88-1.17-1.21-1.92h0Z"/>
            </g>
          </g>
        </g>
        <rect class="cls-5" x="43.91" y="124.07" width="114.92" height="6.37"/>
        <g>
          <polygon class="cls-5" points="138.79 83.81 63.94 83.81 49.32 124.07 153.41 124.07 138.79 83.81"/>
          <polygon class="cls-4" points="153.41 124.07 152.74 122.22 62.73 115.86 68.09 83.81 63.94 83.81 49.32 124.07 153.41 124.07"/>
        </g>
        <g>
          <g>
            <path class="cls-3" d="M94.78,99.53c0,2.44-1.98,4.41-4.41,4.41s-4.41-1.98-4.41-4.41,1.98-4.41,4.41-4.41,4.41,1.98,4.41,4.41Z"/>
            <circle class="cls-3" cx="90.34" cy="106.25" r="4.41" transform="translate(-25.57 183.81) rotate(-83.41)"/>
            <circle class="cls-3" cx="112.39" cy="99.53" r="4.41" transform="translate(3.94 203.34) rotate(-85.28)"/>
            <path class="cls-3" d="M116.8,106.27c0,2.44-1.98,4.41-4.41,4.41s-4.41-1.98-4.41-4.41,1.98-4.41,4.41-4.41,4.41,1.98,4.41,4.41Z"/>
          </g>
          <rect class="cls-3" x="90.87" y="99.09" width="20.98" height="7.58"/>
        </g>
      </g>
    </g>
  </g>
</svg>