<?xml version="1.0" encoding="UTF-8"?>
<svg id="_Слой_2" data-name="Слой 2" xmlns="http://www.w3.org/2000/svg" viewBox="0 0 203.03 203.03">
  <defs>
    <style>
      .cls-1 {
        fill: #fdc63a;
      }

      .cls-1, .cls-2, .cls-3 {
        stroke-width: 0px;
      }

      .cls-2 {
        fill: #ec661b;
      }

      .cls-3 {
        fill: #f49817;
      }

      .cls-4 {
        fill: none;
        stroke: #e0680e;
        stroke-width: 5px;
      }

      .cls-4, .cls-5 {
        stroke-miterlimit: 10;
      }

      .cls-5 {
        fill: #fff;
        stroke: #1f3a6e;
        stroke-width: 3px;
      }
    </style>
  </defs>
  <g id="Calque_1" data-name="Calque 1">
    <g>
      <circle class="cls-5" cx="101.52" cy="101.52" r="100"/>
      <g>
        <path class="cls-4" d="M115.74,164.14c-7.82,7.82-20.62,7.82-28.44,0l-48.4-48.4c-7.84-7.84-7.84-20.62,0-28.44l48.4-48.42c7.82-7.8,20.62-7.8,28.44,0l48.4,48.42c7.84,7.82,7.84,20.6,0,28.44l-48.4,48.4Z"/>
        <g>
          <path class="cls-2" d="M131.8,123.76c-1.04,2.57-3.63,4.6-5.87,6.06-3.45,2.25-12.42,6.61-23.77,6.61s-17.68-4.12-21.33-6.9c-3.91-3.3-7.83-6.12-9.49-11.41-1.36-4.37-1.51-9.99.15-14.46.97-2.6,2.65-4.58,3.58-7.25,1-2.84.84-5.31,1.02-8.41,2.74,4.89,5.21,10.75,10.04,13.65-3.38-6.32-3.6-18.39-1.83-25.11,1.42-5.4,4.13-10.55,7.6-14.81,1.39-1.71,2.81-3.32,4.21-5,1.16-1.41,2.99-2.86,3.67-4.19.16,2-1.07,6.1-1.12,8.06-.1,4.89.11,7.92,1.61,12.87,1.58,5.24,4.98,6.08,8.17,13.4,2.05,4.69,1.47,9.31,3.43,11.03-.23-4.5,3.62-9.74,7.37-11.88,0,2.99.26,5.89,1.58,8.78,1.61,3.52,4.21,6.95,6.41,10.15,3.7,5.34,7.28,12.11,4.57,18.83Z"/>
          <path class="cls-3" d="M102.16,136.43c-10.8,0-17.68-4.12-21.33-6.9-3.91-3.3-7.83-6.12-9.49-11.41-1.36-4.37-1.51-9.99.15-14.46.97-2.6,2.65-4.58,3.58-7.25,1-2.84.84-5.31,1.02-8.41,2.74,4.89,5.21,10.75,10.04,13.65-3.38-6.32-3.6-18.39-1.83-25.11,1.42-5.4,4.13-10.55,7.6-14.81,1.39-1.71,2.81-3.32,4.21-5,1.16-1.41,2.99-2.86,3.67-4.19-15.03,34.48,8.62,61.37,2.39,83.91Z"/>
          <path class="cls-3" d="M84.54,129.42c.8,1.42,2.41,2.54,3.78,3.35,2.1,1.24,7.44,3.66,13.71,3.66s9.4-2.28,11.17-3.82c1.87-1.82,3.78-3.38,4.23-6.31.37-2.42-.05-5.53-1.36-8-.77-1.44-1.87-2.54-2.62-4.01-.8-1.57-.93-2.94-1.3-4.65-1.08,2.7-1.93,5.95-4.34,7.55,1.31-3.5.37-10.17-1.2-13.89-1.26-2.98-3.21-5.83-5.5-8.19-.92-.95-1.85-1.84-2.76-2.77-.77-.78-1.9-1.58-2.4-2.32.09,1.11.18,3.26.38,4.34.49,2.7,1.59,4.5,1.2,7.23-.41,2.9-2.21,3.36-3.33,7.41-.72,2.59.01,5.15-.92,6.1-.27-2.49-2.86-5.39-5.12-6.57.26,1.65.38,3.26-.1,4.85-.58,1.95-1.71,3.84-2.64,5.62-1.57,2.95-2.95,6.7-.86,10.42Z"/>
          <path class="cls-1" d="M84.54,129.42c.8,1.42,2.41,2.54,3.78,3.35,2.1,1.24,7.44,3.66,13.71,3.66,4.51-12.74,3.12-30.68-6.09-46.42.09,1.11.18,3.26.38,4.34.49,2.7,1.59,4.5,1.2,7.23-.41,2.9-2.21,3.36-3.33,7.41-.72,2.59.01,5.15-.92,6.1-.27-2.49-2.86-5.39-5.12-6.57.26,1.65.38,3.26-.1,4.85-.58,1.95-1.71,3.84-2.64,5.62-1.57,2.95-2.95,6.7-.86,10.42Z"/>
        </g>
      </g>
    </g>
  </g>
</svg>