<?xml version="1.0" encoding="UTF-8"?>
<svg xmlns="http://www.w3.org/2000/svg" viewBox="0 0 203.03 203.03">
  <defs>
    <style>
      .cls-1 {
        fill: #c9dae4;
      }

      .cls-1, .cls-2, .cls-3, .cls-4, .cls-5, .cls-6, .cls-7, .cls-8, .cls-9, .cls-10, .cls-11, .cls-12, .cls-13, .cls-14, .cls-15 {
        stroke-width: 0px;
      }

      .cls-1, .cls-4, .cls-12 {
        mix-blend-mode: multiply;
      }

      .cls-2 {
        fill: #e6e6d5;
      }

      .cls-3 {
        fill: #72bcc6;
      }

      .cls-4 {
        fill: #e6d5de;
      }

      .cls-16 {
        isolation: isolate;
      }

      .cls-5 {
        fill: #eceae2;
      }

      .cls-6 {
        fill: #45babd;
      }

      .cls-7 {
        fill: #ede7ca;
      }

      .cls-8 {
        fill: #61b7c2;
      }

      .cls-17 {
        stroke: #1f3a6e;
        stroke-width: 3px;
      }

      .cls-17, .cls-9 {
        fill: #fff;
      }

      .cls-17, .cls-18 {
        stroke-miterlimit: 10;
      }

      .cls-9 {
        mix-blend-mode: soft-light;
      }

      .cls-10 {
        fill: #b32c56;
      }

      .cls-11 {
        fill: #8aced9;
      }

      .cls-12 {
        fill: #dee5ea;
      }

      .cls-18 {
        fill: none;
        stroke: #fff;
        stroke-width: .93px;
      }

      .cls-13 {
        fill: #d0cbb2;
      }

      .cls-14 {
        fill: #ea547a;
      }

      .cls-15 {
        fill: #40919e;
      }
    </style>
  </defs>
  <g class="cls-16">
    <g id="_Слой_2" data-name="Слой 2">
      <g id="Calque_1" data-name="Calque 1">
        <g>
          <circle class="cls-17" cx="101.52" cy="101.52" r="100"/>
          <g>
            <g>
              <path class="cls-6" d="M98.73,125.25c0,4.26-2.55,7.74-5.67,7.74h-27.02c-3.12,0-5.67-3.48-5.67-7.74l-6.95-77.05c-.39-4.02,2.34-7.74,4.17-7.74h42.98c.98,0,3.02,3.48,3.02,7.74l-4.87,77.05Z"/>
              <path class="cls-11" d="M100.58,40.46h-10.45c.98,0,3.02,3.48,3.02,7.74l-4.87,77.05c0,4.26-2.55,7.74-5.67,7.74h10.45c3.12,0,5.67-3.48,5.67-7.74l4.87-77.05c0-4.26-2.04-7.74-3.02-7.74Z"/>
              <path class="cls-1" d="M69.77,125.25l-6.95-77.05c-.39-4.02,2.34-7.74,4.17-7.74h-9.4c-1.83,0-4.56,3.72-4.17,7.74l6.95,77.05c0,4.26,2.55,7.74,5.67,7.74h9.4c-3.12,0-5.67-3.48-5.67-7.74Z"/>
              <path class="cls-1" d="M64.47,125.25l-6.95-77.05c-.39-4.02,2.34-7.74,4.17-7.74h-4.1c-1.83,0-4.56,3.72-4.17,7.74l6.95,77.05c0,4.26,2.55,7.74,5.67,7.74h4.1c-3.12,0-5.67-3.48-5.67-7.74Z"/>
              <g>
                <path class="cls-8" d="M91.79,153.83h-24.66c-2.8,0-3.94-1.69-3.94-3.52v-17.33h32.04v17.46c0,1.69-.76,3.39-3.43,3.39Z"/>
                <path class="cls-12" d="M78.76,149.53c-2.8,0-3.94-1.69-3.94-3.52v-13.03h-11.63v17.33c0,1.82,1.14,3.52,3.94,3.52h24.66c2.67,0,3.43-1.69,3.43-3.39v-.91h-16.47Z"/>
                <path class="cls-3" d="M63.18,149.53v.78c0,1.82,1.14,3.52,3.94,3.52h24.66c2.67,0,3.43-1.69,3.43-3.39v-.91h-32.04Z"/>
                <path class="cls-15" d="M78.03,149.53c0-2.43,1.92-4.4,4.29-4.4s4.29,1.97,4.29,4.4h-8.58Z"/>
              </g>
            </g>
            <path class="cls-7" d="M83.27,125.78c-2.17-8.24,13.08-6.96,13.08-6.96,0,0-1.14-1.4-.77-3.76.85-5.3,11.86-1.26,13.62-5.2.88-1.96-.17-8.2-2.61-9.26,3.45-1.57,17.56-.36,18.34,11.91,1.52.09,2.8-.11,4.02,1.13.95.97,2.07,3.32,1.22,4.7,5.07-.43,4.7,5.67,4.83,10.12l-51.74-2.68Z"/>
            <path class="cls-13" d="M119.61,112.52c1.52.09,2.8-.11,4.02,1.13.95.97,2.06,3.32,1.22,4.7,4.96-.43,4.72,5.43,4.83,9.85l5.33.28c-.13-4.45.23-10.56-4.83-10.12.84-1.38-.27-3.73-1.22-4.7-1.21-1.24-2.49-1.04-4.02-1.13-.72-11.33-12.79-13.23-17.36-12.22,5.23.85,11.53,4.14,12.04,12.22Z"/>
            <path class="cls-14" d="M83.22,128.05v24.84c0,3.85,2.9,7.01,6.43,7.01h39.34c3.54,0,6.44-3.15,6.44-7.01v-24.84h-52.21Z"/>
            <rect class="cls-2" x="87.55" y="128.76" width="46.02" height="25.98"/>
            <rect class="cls-9" x="125.6" y="129.39" width="5.49" height="27.94"/>
            <rect class="cls-9" x="120.25" y="129.39" width="2.75" height="27.94"/>
            <path class="cls-4" d="M95.52,150.21v-9.98c0-5.42,1.85-9.34,4.47-12.18h-16.77v24.84c0,3.85,2.9,7.01,6.43,7.01h39.34c2.74,0,5.09-1.89,6.01-4.53h-33.06c-3.54,0-6.43-1.3-6.43-5.16Z"/>
            <path class="cls-4" d="M89.39,152.9v-24.84h-6.17v24.84c0,3.85,2.9,7.01,6.43,7.01h6.17c-3.54,0-6.44-3.15-6.44-7.01Z"/>
            <path class="cls-14" d="M136.85,126.99c0,.98-.61,1.77-1.36,1.77h-52.15c-.75,0-1.36-.79-1.36-1.77h0c0-.98.61-1.77,1.36-1.77h52.15c.75,0,1.36.79,1.36,1.77h0Z"/>
            <path class="cls-4" d="M82.04,127.44c.15.76.68,1.32,1.31,1.32h52.15c.63,0,1.15-.56,1.31-1.32h-54.76Z"/>
            <path class="cls-9" d="M133.49,126.02c0,.34-.24.62-.54.62h-37.2c-.3,0-.54-.28-.54-.62h0c0-.34.24-.62.54-.62h37.2c.3,0,.54.28.54.62h0Z"/>
            <path class="cls-5" d="M110.84,103.26c-.78-1.05-2.33-.17-1.76,1.03.53,1.11.87,2.26,1.34,3.38.6,1.43-.3,2.52-.59,3.8-.06.27.13.62.45.59,1.54-.17,1.83-2.23,1.89-3.48.08-1.77-.25-3.87-1.33-5.32Z"/>
            <path class="cls-5" d="M103.58,113.18c-.76-.21-1.82-.07-2.59.03-.86.11-1.71.28-2.46.73-1.49.88-1.59,3.22-.26,4.32.45.37,1.25.17,1.23-.51-.02-.57-.52-1.4-.05-1.88.38-.38,1.26-.37,1.75-.39.83-.04,1.76.07,2.57-.16,1.27-.35.86-1.85-.18-2.14Z"/>
            <path class="cls-5" d="M97.09,120c-3-1.11-11.56-1.32-11.37,3.57.01.3.37.38.54.15,2.47-3.5,6.97-2.37,10.61-2.07,1,.08,1.05-1.34.22-1.64Z"/>
            <path class="cls-5" d="M120.21,116.28c-1.21-1.06-3.28-1.14-4.77-.78-.68.16-1.31.62-1.69,1.19-1.46-.57-3.3-.57-4.65-.3-1.99.39-4.31,2.78-2.71,4.78.23.29.78.2.94-.12.28-.55.29-1.27.68-1.76.45-.56,1.29-.75,1.97-.82,1.62-.15,2.74.55,4.14,1.16.92.4,2.16-.48,1.51-1.5-.08-.12-.19-.22-.28-.33.22-.19.51-.31.94-.36,1.06-.12,1.94.21,2.89.61.98.41,1.79-1.1,1.03-1.76Z"/>
            <g>
              <path class="cls-10" d="M163.64,120.44c9.23,21.04-3.07,33.02-9.35,35.78-1.3.57-4.29,1.88-6.71,2.95-11.18,4.9-24.6-3.39-31.03-18.06-6.44-14.67-3.45-30.16,7.73-35.07,1.95-.85,5.38-2.34,7.27-3.17,1.89-.83,21.81-5.89,32.11,17.57Z"/>
              <path class="cls-14" d="M162.88,120.77c6.28,14.31,2.3,29.89-8.88,34.8-11.18,4.9-25.34-2.72-31.62-17.03-6.28-14.31-2.3-29.89,8.88-34.8,11.18-4.9,25.34,2.72,31.62,17.03Z"/>
              <path class="cls-18" d="M159.74,122.15c5.04,11.48,1.65,24.07-7.56,28.11-9.21,4.04-20.76-1.99-25.8-13.48-5.04-11.48-1.65-24.07,7.56-28.11,9.21-4.04,20.76,1.99,25.8,13.48Z"/>
              <path class="cls-4" d="M157.43,142.18c-11.18,4.9-25.34-2.72-31.62-17.03-2.02-4.6-2.97-9.33-2.97-13.8-4.25,7.15-4.72,17.45-.46,27.18,6.28,14.31,20.43,21.94,31.62,17.03,7.59-3.33,11.85-11.57,11.85-21-2,3.37-4.84,6.04-8.43,7.62Z"/>
            </g>
          </g>
        </g>
      </g>
    </g>
  </g>
</svg>