<?xml version="1.0" encoding="UTF-8"?>
<svg xmlns="http://www.w3.org/2000/svg" viewBox="0 0 203.03 203.03">
  <defs>
    <style>
      .cls-1 {
        fill: #f28f2e;
      }

      .cls-1, .cls-2, .cls-3, .cls-4, .cls-5, .cls-6, .cls-7, .cls-8, .cls-9, .cls-10, .cls-11, .cls-12, .cls-13, .cls-14 {
        stroke-width: 0px;
      }

      .cls-2 {
        fill: #f28f38;
      }

      .cls-3 {
        fill: #fbb810;
      }

      .cls-15 {
        isolation: isolate;
      }

      .cls-4 {
        fill: #a097ca;
      }

      .cls-5 {
        fill: #f6b2b3;
      }

      .cls-16 {
        mix-blend-mode: soft-light;
      }

      .cls-6 {
        fill: #6982c1;
      }

      .cls-7, .cls-17 {
        fill: #fff;
      }

      .cls-8 {
        fill: #264791;
      }

      .cls-17 {
        stroke: #1f3a6e;
        stroke-miterlimit: 10;
        stroke-width: 3px;
      }

      .cls-9 {
        fill: #fdc629;
      }

      .cls-10 {
        fill: #ef7979;
      }

      .cls-11 {
        fill: #dfeffb;
      }

      .cls-12 {
        fill: #ea5656;
      }

      .cls-13 {
        fill: #c8d5ee;
      }

      .cls-14 {
        fill: #203865;
      }
    </style>
  </defs>
  <g class="cls-15">
    <g id="_Слой_2" data-name="Слой 2">
      <g id="Calque_1" data-name="Calque 1">
        <g>
          <circle class="cls-17" cx="101.52" cy="101.52" r="100"/>
          <g>
            <path class="cls-4" d="M127.91,117.88l-.03.07c-.77,2.2-1.78,4.33-3,6.32-.14.26-3.52-2.27-5.03-3.11.2,2.46,1.03,10.83,1.19,12.85.09,1.07.06,2.36-.85,2.93-.38.24-.84.29-1.28.33-4.86.48-9.09.44-13.94-.11-.7-.08-1.5-.24-1.83-.86-.15-.28-.17-.61-.19-.94-.24-4.65.11-9.68.42-14.33-1.3.71-2.91,1.79-4.21,2.5-.14.07-.28.15-.44.13-.18-.02-.32-.18-.43-.32-1.21-1.49-2.39-2.74-2.94-4.63-.05-.17-.09-.36-.05-.53.06-.21.25-.36.42-.49,1.68-1.25,3.47-2.33,5.26-3.41,1.49-.9,2.96-1.82,4.44-2.72.37-.22.93-.51,1.35-.62.48-.13.5.36,1.73,1.3.78.6,1.82.8,2.81.8,1.37,0,2.77-.63,3.54-1.77.11-.16.26-.36.46-.33l.18.08c3.83,2.29,7.98,3.96,12.03,5.88l.38.27c.13.2.08.46,0,.7Z"/>
            <path class="cls-4" d="M136.33,82.78c.06-2.12.94-7.08-2.18-7.06-13.31.06-26.63.13-39.95.19-1.93,0-3.86.02-5.8.03-.4,0-.85.02-1.14.3-.93.88-.28,4.64-.29,5.87,0,.49,0,.99.16,1.44.29.81.99,1.1,1.78,1.11,14.99.15,37.35.17,45.2.04.74-.01,1.59-.14,1.97-.77.2-.34.22-.75.23-1.14Z"/>
            <path class="cls-4" d="M135.03,90.89c.05-1,.89-3.36-2.06-3.35-12.62.03-25.24.06-37.86.09-1.83,0-3.66,0-5.49.01-.38,0-.8.01-1.08.14-.24.11-.31.28-.36.45-.23.78-.98,3.06.87,3.47.33.07.7.08,1.05.08,14.21.07,35.39.08,42.84.02.7,0,1.51-.07,1.87-.37.19-.16.21-.36.22-.54Z"/>
            <path class="cls-12" d="M159.52,51.33c-.18-6.07-1.34-6.66-9.16-6.59-10.88.09-50.87-.12-59.14.02-2.5.04-5.32.28-6.93,2.19-1.37,1.62-1.44,3.95-1.43,6.07.03,12.48,0,69.21.15,89.29.02,2.29.17,4.92,2.21,6.31,2.92,2,6.23,1.59,11.78,1.51,5.62-.08,46.64-.16,55.48-.51,6.71-.26,7.28-1.77,7.22-7.58-.05-4.71.24-77.09-.18-90.71Z"/>
            <path class="cls-10" d="M140.93,51.33c-.18-6.07-1.34-6.66-9.16-6.59-7.5.07-15.01.02-22.51,0-6.96,0-13.85-.27-20.8-.2-1.47.01-2.95.03-4.38.38-3.18.78-6.48,3.36-9.11,5.22-3.19,2.26-6.26,4.66-9.33,7.07-2.27,1.78-1.37,5.87-1.36,8.54,0,3.11,0,6.22,0,9.33,0,7.18,0,14.37.01,21.55.01,15.22,0,30.44.12,45.66.02,2.29.17,4.92,2.21,6.31,2.92,2,6.23,1.59,11.78,1.51,5.62-.08,46.64-.16,55.48-.51,6.71-.26,7.28-1.77,7.22-7.58-.05-4.71.24-77.09-.18-90.71Z"/>
            <path class="cls-5" d="M66.21,145.75c-.12-15.22-.11-30.44-.12-45.66,0-7.18-.01-14.37-.01-21.55,0-3.11,0-6.22,0-9.33,0-2.67-.9-6.77,1.36-8.54,3.07-2.41,6.14-4.82,9.33-7.07,2.63-1.86,5.93-4.44,9.11-5.22,1.42-.35,2.91-.37,4.38-.38,6.95-.07,13.84.2,20.81.2,7.5.01,15.01.06,22.51,0,3.68-.03,5.88.08,7.21.84-.5-3.92-2.31-4.34-9-4.28-7.5.07-15.01.02-22.51,0-6.96,0-13.85-.27-20.8-.2-1.47.01-2.95.03-4.38.38-3.18.78-6.48,3.36-9.11,5.22-3.19,2.26-6.26,4.66-9.33,7.07-2.27,1.78-1.37,5.87-1.36,8.54,0,3.11,0,6.22,0,9.33,0,7.18,0,14.37.01,21.55.01,15.22,0,30.44.12,45.66.02,2.2.17,4.71,1.98,6.14-.14-.89-.17-1.81-.18-2.69Z"/>
            <path class="cls-7" d="M84.9,96.63c-.24-1.13-.3-2.2-.09-2.82.85-2.58,4.19-3.66,6.65-3.31,2.8.4,5.35,3.92,6.89,6.11-.8-2.91.08-6.22,2.2-8.36.77-.77,1.71-1.41,2.77-1.66,2.43-.58,4.98,1.04,6.16,3.24,1.18,2.2,1.26,4.82,1.03,7.31.25-2.68,4.78-6.59,7.36-6.74,3.44-.2,6.26,3.17,5.63,6.53-.34,1.83-1.41,3.3-2.29,4.88,2.59-.69,6.34,1.45,7.48,3.81.89,1.83.7,4.14-.48,5.8-1.55,2.19-4.62,3.74-7.28,4.12,1.01-.14,3.4,2.03,4.06,2.72,1.19,1.23,2.1,2.99,2.34,4.69.34,2.49-1.47,4.61-3.9,4.99-1.91.3-4.58-.25-6.1-1.45.67,1.66,1.34,3.36,1.46,5.15.12,1.79-.41,3.72-1.8,4.86-1.55,1.28-3.79,1.3-5.76.86-2.12-.47-4.15-1.73-5.67-3.59.04,3-2.64,7.58-5.56,8.28-2.41.58-5.27-.35-6.76-2.4-1.01-1.39-1.34-7.38-.22-8.83-1.37,1.76-4.1,3.04-6.33,3.07-2.24.02-4.52-1.48-5-3.66-.49-2.25,1.16-5.18,2.76-6.92-3.63,1.23-7.68-.42-8.38-3.72-.37-1.74.11-3.36,1.32-4.54.6-.58,2.48-2.12,5.1-2.56-2.19-1.19-5.53-3.93-6.01-6.55-.44-2.36,2.02-4.7,4.11-5.48,2.1-.78,4.54-.5,6.49.61-.96-.55-1.83-2.58-2.22-4.43Z"/>
            <path class="cls-3" d="M119.48,107.77l-.03.07c-.77,2.2-1.78,4.33-3,6.32-.14.26-3.52-2.27-5.03-3.11.2,2.46,1.03,10.83,1.19,12.85.09,1.07.06,2.36-.85,2.93-.38.24-.84.29-1.28.33-4.86.48-9.09.44-13.94-.11-.7-.08-1.5-.24-1.83-.86-.15-.28-.17-.61-.19-.94-.24-4.65.11-9.68.42-14.33-1.3.71-2.91,1.79-4.21,2.5-.14.07-.28.15-.44.13-.18-.02-.32-.18-.43-.32-1.21-1.49-2.39-2.74-2.94-4.63-.05-.17-.09-.36-.05-.53.06-.21.25-.36.42-.49,1.68-1.25,3.47-2.33,5.26-3.41,1.49-.9,2.96-1.82,4.44-2.72.37-.22.93-.51,1.35-.62.48-.13.5.36,1.73,1.3.78.6,1.82.8,2.81.8,1.37,0,2.77-.63,3.54-1.77.11-.16.26-.36.46-.33l.18.08c3.83,2.29,7.98,3.96,12.03,5.88l.38.27c.13.2.08.46,0,.7Z"/>
            <path class="cls-7" d="M127.91,72.67c.06-2.12.94-7.08-2.18-7.06-13.31.06-26.63.13-39.95.19-1.93,0-3.86.02-5.8.03-.4,0-.85.02-1.14.3-.93.88-.28,4.64-.29,5.87,0,.49,0,.99.16,1.44.29.81.99,1.1,1.78,1.11,14.99.15,37.35.17,45.2.04.74-.01,1.59-.14,1.97-.77.2-.34.22-.75.23-1.14Z"/>
            <path class="cls-7" d="M126.61,80.78c.05-1,.89-3.36-2.06-3.35-12.62.03-25.24.06-37.86.09-1.83,0-3.66,0-5.49.01-.38,0-.8.01-1.08.14-.24.11-.31.28-.36.45-.23.78-.98,3.06.87,3.47.33.07.7.08,1.05.08,14.21.07,35.39.08,42.84.02.7,0,1.51-.07,1.87-.37.19-.16.21-.36.22-.54Z"/>
            <path class="cls-10" d="M143.69,73.89l-.06-1.37c1.98-.08,12.55-.28,13.74-.3l.02,1.37c-1.15.02-11.78.21-13.71.3Z"/>
            <path class="cls-10" d="M143.69,77.93l-.06-1.37c1.98-.08,12.55-.28,13.74-.3l.02,1.37c-1.15.02-11.78.21-13.71.3Z"/>
            <path class="cls-10" d="M143.69,81.97l-.06-1.37c1.98-.08,12.55-.28,13.74-.3l.02,1.37c-1.15.02-11.78.21-13.71.3Z"/>
            <path class="cls-10" d="M143.69,86.01l-.06-1.37c1.95-.08,12.55-.28,13.74-.3l.02,1.37c-1.19.02-11.76.21-13.71.3Z"/>
            <path class="cls-10" d="M143.69,94.08l-.06-1.37c1.98-.08,12.55-.28,13.74-.3l.02,1.37c-1.15.02-11.78.22-13.71.3Z"/>
            <path class="cls-10" d="M143.69,98.12l-.06-1.37c1.98-.08,12.55-.28,13.74-.3l.02,1.37c-1.15.02-11.78.21-13.71.3Z"/>
            <path class="cls-10" d="M143.69,102.16l-.06-1.37c1.98-.08,12.55-.28,13.74-.3l.02,1.37c-1.15.02-11.78.21-13.71.3Z"/>
            <path class="cls-10" d="M143.69,106.2l-.06-1.37c1.98-.08,12.55-.28,13.74-.3l.02,1.37c-1.15.02-11.78.21-13.71.3Z"/>
            <path class="cls-10" d="M143.69,117.71l-.06-1.37c1.98-.08,12.55-.28,13.74-.3l.02,1.37c-1.15.02-11.78.22-13.71.3Z"/>
            <path class="cls-10" d="M143.69,121.74l-.06-1.37c1.98-.08,12.55-.28,13.74-.3l.02,1.37c-1.15.02-11.78.22-13.71.3Z"/>
          </g>
          <g>
            <g>
              <path class="cls-13" d="M53.97,89.9h25.65c3.46,0,6.26,2.81,6.26,6.26v37.9c0,10.24-8.31,18.55-18.55,18.55h0c-10.24,0-18.55-8.31-18.55-18.55v-38.98c0-2.86,2.32-5.18,5.18-5.18Z" transform="translate(134.67 242.51) rotate(180)"/>
              <rect class="cls-2" x="59.94" y="84.57" width="14.79" height="6.25" rx="3.12" ry="3.12" transform="translate(134.67 175.4) rotate(-180)"/>
              <rect class="cls-8" x="61.62" y="76.87" width="10.76" height="7.7" transform="translate(134.01 161.45) rotate(180)"/>
              <rect class="cls-14" x="64.69" y="72.24" width="4.64" height="4.64" transform="translate(134.01 149.11) rotate(180)"/>
              <path class="cls-8" d="M50.01,75.61c-.3,0-.6-.13-.81-.38-.37-.45-.3-1.11.14-1.48.16-.13,3.92-3.16,11.51-2.56,7.03.56,12.33-.45,12.38-.46.57-.11,1.12.26,1.23.83.11.57-.26,1.12-.83,1.23-.23.04-5.63,1.08-12.95.5-1.93-.15-4.81-.13-7.55.84-1.63.58-2.46,1.24-2.47,1.24-.2.16-.43.24-.67.24Z"/>
            </g>
            <path class="cls-11" d="M52.5,101.72s.13-4.15,4.15-6.33c4.01-2.18,4.15.93,3.35,1.95-.8,1.02-2.41,3.62-3.28,6.1-.87,2.48-4.79.64-4.22-1.72Z"/>
            <path class="cls-6" d="M55.41,151.99h24.87c2.71,0,4.91-2.2,4.91-4.91v-37.9s-35.72,0-35.72,0v36.87c0,3.28,2.66,5.94,5.94,5.94Z"/>
            <g class="cls-16">
              <path class="cls-11" d="M51.18,149.17h4.57c.5,0,.9-1.91.9-4.26v-29.63c0-1.81-1.47-3.28-3.28-3.28h0c-1.81,0-3.28,1.47-3.28,3.28v28.73c0,2.85.49,5.16,1.09,5.16Z"/>
            </g>
          </g>
          <g>
            <g>
              <path class="cls-1" d="M111.57,150.07c0,11.21-14.18,20.29-31.67,20.29s-27.21-9.09-27.21-20.29,8.24-20.23,25.73-20.29c.66,0,6.07,0,6.61,0,13.76.15,26.53,9.44,26.53,20.29Z"/>
              <ellipse class="cls-9" cx="85.32" cy="150.07" rx="26.24" ry="20.29"/>
              <ellipse class="cls-1" cx="85.32" cy="150.08" rx="21.76" ry="16.83"/>
            </g>
            <path class="cls-7" d="M94.37,128.16s-2.82-2.14-5.19.06c-2.37,2.2.34,6.21.34,6.21,0,0-2.58-.2-1.74,3.08.84,3.28,6.21,2.56,6.21,2.56,0,0,1.61,5.01,6.43,3.54,4.82-1.47,4.68-4.71,4.68-4.71,0,0,4.69,10.7,8.81,6.66,0,0,1.75-2.47-.43-5.9-2.18-3.43-4.83-2.23-4.83-2.23,0,0,3.71-3.28.36-7.2-3.35-3.92-6.65-.99-6.65-.99,0,0-.33-4.62-3.6-5.06-3.27-.44-4.39,3.99-4.39,3.99ZM114.22,141.9c.19.41.02.89-.39,1.09-.41.19-.53-.16-.72-.56-.19-.41-.39-.72.02-.91.41-.19.89-.02,1.09.39ZM102,141.1c.16.95-1.62,1.67-2.57,1.83-.95.16-2.56-.57-2.72-1.52-.16-.95,1.56-1.11,2.4-1.58,1.96-1.1,2.73.32,2.89,1.27ZM95.96,127.51c.42.25.38.55.19.89-.2.34-.48.59-.9.35-.42-.25-.42-.64-.22-.99.2-.34.51-.5.94-.25ZM101.27,126.92c.36.65.37,1.27-.28,1.63-.65.36-1.06-.02-1.42-.67-.36-.65-.53-1.32.12-1.68.65-.36,1.22.07,1.58.72ZM99.84,125.41c.1.19.09.38-.15.51-.23.13-.36.02-.47-.16-.1-.19-.14-.39.09-.52.23-.13.42-.01.52.17Z"/>
            <path class="cls-7" d="M64.31,137.69s.95-2.18,3.06-1.67c2.11.51,1.84,3.75,1.84,3.75,0,0,1.44-.97,2.03,1.23.59,2.2-2.8,3.54-2.8,3.54,0,0,.7,3.46-2.61,4.18-3.31.72-4.29-1.22-4.29-1.22,0,0,.76,7.81-2.98,6.79,0,0-1.84-.87-1.68-3.6.15-2.72,2.1-2.89,2.1-2.89,0,0-3.25-.71-2.57-4.1.68-3.39,3.57-2.76,3.57-2.76,0,0-1.32-2.82.45-4.15,1.77-1.33,3.88.89,3.88.89ZM57.2,152.25c.02.3.28.53.58.51.3-.02.26-.26.24-.57-.02-.3,0-.55-.31-.53-.3.02-.53.28-.51.58ZM64.09,147.77c.21.61,1.5.45,2.11.23.61-.21,1.31-1.17,1.1-1.78-.21-.61-1.28-.14-1.93-.14-1.51,0-1.5,1.08-1.28,1.69ZM63.17,137.83c-.17.28-.04.45.18.58.23.14.47.19.64-.09.17-.28.03-.51-.19-.65-.23-.14-.46-.12-.63.16ZM59.87,139.23c0,.5.2.87.7.86.5,0,.61-.36.61-.86,0-.5-.12-.95-.62-.94-.5,0-.69.44-.69.94ZM60.21,137.87c0,.14.07.25.25.25.18,0,.22-.11.22-.25,0-.14-.04-.28-.22-.27-.18,0-.25.13-.25.27Z"/>
          </g>
        </g>
      </g>
    </g>
  </g>
</svg>