<?xml version="1.0" encoding="UTF-8"?>
<svg id="_Слой_2" data-name="Слой 2" xmlns="http://www.w3.org/2000/svg" viewBox="0 0 203.03 203.03">
  <defs>
    <style>
      .cls-1 {
        fill: #8f3a3a;
      }

      .cls-1, .cls-2, .cls-3, .cls-4, .cls-5, .cls-6 {
        stroke-width: 0px;
      }

      .cls-2 {
        opacity: .2;
      }

      .cls-2, .cls-4 {
        fill: #eacec9;
      }

      .cls-3 {
        fill: #d8544c;
      }

      .cls-4 {
        opacity: .4;
      }

      .cls-7 {
        fill: #fff;
        stroke: #1f3a6e;
        stroke-miterlimit: 10;
        stroke-width: 3px;
      }

      .cls-5 {
        fill: #ec665a;
      }

      .cls-6 {
        fill: #f4a19d;
      }
    </style>
  </defs>
  <g id="Calque_1" data-name="Calque 1">
    <g>
      <circle class="cls-7" cx="101.52" cy="101.52" r="100"/>
      <g>
        <path class="cls-3" d="M29.09,93.92c.45,1.01.89,2.03,1.34,3.04.08.19.17.39.18.6.03.67-.62.97-1,1.43-.69.85-.42,2.34-.01,3.48.41,1.14.92,2.41.56,3.55.57.43,1.32.29,1.88-.15.55-.44.95-1.13,1.32-1.81.82-1.54,3.41-3.34,3.49-5.21.16-3.34-6.49-11.21-7.75-4.92Z"/>
        <path class="cls-1" d="M34.04,106.33c-.17,0-.34,0-.51-.03-.88-.14-1.61-.75-1.9-1.59-1.18-3.36-1.26-7.22-.21-10.59.23-.75.79-1.3,1.48-1.55.35-.41.83-.71,1.39-.82.78-.15,1.58.02,2.24.5,1.13.82,1.46,2.26,1.56,3.05.31,2.47.36,4.96.14,7.42-.1,1.14-.97,2.02-2.05,2.18-.1.17-.21.33-.33.48-.43.57-1.09.91-1.79.95Z"/>
        <path class="cls-5" d="M105.45,124.25c-.1.12-.2.24-.29.34-2.74,3.17-4.9,3.83-7.62,3.05-2.85-.82-6.32-3.22-11.72-5.98-10.76-5.48-24.48-4.14-35.54-6.58-11.07-2.43-15.7-7.78-14.82-19.2.26-3.4,1.28-6.26,2.83-8.66,5.08-7.9,15.91-10.94,24.56-12.8,11.28-2.42,28.78,4.52,34.12,6.66,1.26.5,2.68,1.44,4.12,2.7,4.67,4.08,9.6,11.58,10.35,18.94.99,9.64-.17,14.55-5.98,21.53Z"/>
        <path class="cls-3" d="M105.16,124.59c-2.74,3.17-4.9,3.83-7.62,3.05-2.85-.82-6.32-3.22-11.72-5.98-10.76-5.48-24.48-4.14-35.54-6.58-11.07-2.43-15.7-7.78-14.82-19.2.26-3.4,1.28-6.26,2.83-8.66-.86,3.7-1.81,9.91.29,13.65,3.15,5.59,7.31,7.79,13.72,7.44,6.4-.34,21.73-2.68,29.48-.06,7.75,2.61,11.97,10.26,15.3,10.38,2.06.08,5.64,3.41,8.09,5.96Z"/>
        <path class="cls-6" d="M105.45,124.25c-2.89,3.46-5.1,4.2-7.91,3.39-5.33-2.62-5.73-16.5-5.76-23.41-.03-7.26,1.75-22.16,9.21-20.44,0,0,.03,0,.09,0,4.67,4.08,9.6,11.58,10.35,18.94.99,9.64-.17,14.55-5.98,21.53Z"/>
        <g>
          <path class="cls-5" d="M151.65,121.35l-.8-5.37-6.33.53c-4.39-1.41-9.79-1.8-13.53-.67-1.87.57-6.9.91-10.85,2.72l-5.97.5.8,5.37c-.56,3.41,9.48,10.93,18.07,9.74,8.59-1.19,20.31-9.19,18.61-12.83Z"/>
          <path class="cls-6" d="M114.17,119.07c-.56,3.41,9.48,10.93,18.07,9.74,8.59-1.19,20.31-9.19,18.61-12.83-2.21-4.74-14.04-7.51-20.66-5.51-3.08.93-14.8,1.26-16.01,8.59Z"/>
        </g>
        <g>
          <path class="cls-3" d="M138.28,115.62l-2.21-.45c-3.23-3.65-9.1-7.58-13.5-8.8-5.32-1.47-12.19.13-15.58,2.86l-2.36-.48-.04,5.25.22.04c.25,5.19,5.12,12.67,11.03,13.14,6.81.54,20.89-2.94,22.47-6.66.11-.27.16-.56.15-.87h.04s-.22-4.02-.22-4.02Z"/>
          <path class="cls-6" d="M138.08,116.29c-1.27,2.99-10.62,5.83-17.77,6.54-1.75.17-3.36.22-4.7.11-6.81-.55-12.24-10.39-10.81-15.33.93-3.23,6.85-5.9,12.67-6.03,1.67-.05,3.34.12,4.88.55,6.88,1.9,17.32,10.43,15.74,14.15Z"/>
          <path class="cls-4" d="M120.31,122.83c-1.75.17-3.36.22-4.7.11-6.81-.55-12.24-10.39-10.81-15.33.93-3.23,6.85-5.9,12.67-6.03-9.37,2.37-10.83,10.73-5.66,11.71,3.72.71,8.18,7.97,8.5,9.53Z"/>
        </g>
        <g>
          <path class="cls-5" d="M164.64,117.15l.3-5.42-6.27-1.55c-3.99-2.79-9.16-4.92-13.03-5.06-1.93-.07-6.9-1.37-11.1-.93l-5.91-1.47-.3,5.42c-1.23,3.09,7.02,13.59,15.62,15.25,8.6,1.66,21.62-2.19,20.7-6.25Z"/>
          <path class="cls-6" d="M128.62,102.73c-1.23,3.09,7.02,13.59,15.62,15.25,8.6,1.66,21.62-2.19,20.7-6.25-1.2-5.27-12.15-11.79-19-12.03-3.19-.11-14.66-3.62-17.32,3.02Z"/>
        </g>
        <path class="cls-2" d="M45.94,88.96c-3.44,4.61.44,8.16,3.9,6.15,3.46-2,5.68-7.12,12.08-7.46s8.84-1.38,6.26-3.06c-2.59-1.68-16.58-3.2-22.24,4.37Z"/>
        <path class="cls-2" d="M74.07,83.52c-2.69.28,2.82,3.79,6.19,4.52,3.37.73,5.39,3.04,6.5,1.47,1.1-1.57-6.54-6.62-12.69-5.98Z"/>
      </g>
    </g>
  </g>
</svg>