<?xml version="1.0" encoding="UTF-8"?>
<svg xmlns="http://www.w3.org/2000/svg" xmlns:xlink="http://www.w3.org/1999/xlink" viewBox="0 0 203 203">
  <defs>
    <style>
      .cls-1 {
        fill: #f9b551;
      }

      .cls-1, .cls-2, .cls-3, .cls-4, .cls-5, .cls-6, .cls-7, .cls-8, .cls-9, .cls-10 {
        stroke-width: 0px;
      }

      .cls-2 {
        fill: #f9cbd5;
      }

      .cls-11 {
        clip-path: url(#clippath-2);
      }

      .cls-3 {
        fill: #010101;
      }

      .cls-12 {
        isolation: isolate;
      }

      .cls-13 {
        stroke-linecap: round;
        stroke-width: 4.75px;
      }

      .cls-13, .cls-4, .cls-14 {
        fill: none;
      }

      .cls-13, .cls-15, .cls-14 {
        stroke-miterlimit: 10;
      }

      .cls-13, .cls-14 {
        stroke: #e73353;
      }

      .cls-16 {
        clip-path: url(#clippath-1);
      }

      .cls-17 {
        clip-path: url(#clippath-4);
      }

      .cls-5, .cls-15 {
        fill: #fff;
      }

      .cls-15 {
        stroke: #1f3a6e;
        stroke-width: 3px;
      }

      .cls-18 {
        clip-path: url(#clippath);
      }

      .cls-6 {
        fill: #e73353;
      }

      .cls-7 {
        fill: #f7b176;
      }

      .cls-19 {
        opacity: .4;
      }

      .cls-19, .cls-20, .cls-21 {
        mix-blend-mode: overlay;
      }

      .cls-22 {
        clip-path: url(#clippath-3);
      }

      .cls-23 {
        opacity: .21;
      }

      .cls-8 {
        fill: #eeeded;
      }

      .cls-24 {
        clip-path: url(#clippath-5);
      }

      .cls-9 {
        fill: #429fd9;
      }

      .cls-10 {
        fill: #56b78b;
      }

      .cls-14 {
        stroke-width: 2.37px;
      }

      .cls-21 {
        opacity: .5;
      }
    </style>
    <clipPath id="clippath">
      <path class="cls-4" d="M108.73,156.85h0c-3.64-6.82-1.04-15.39,5.79-19.03l14.11-7.53c6.82-3.64,15.39-1.04,19.03,5.79h0c3.64,6.82,1.04,15.39-5.79,19.03l-14.11,7.53c-6.82,3.64-15.39,1.04-19.03-5.79Z"/>
    </clipPath>
    <clipPath id="clippath-1">
      <path class="cls-4" d="M110.05,158.9c4.12,5.31,11.64,7.07,17.75,3.79l14.09-7.56c6.16-3.3,8.84-10.61,6.62-17.02l14.07.09-4.9-2.45,2.34-6.33-6.48-1.4.75-5.28-7.83,11.54c-4.1-5.43-11.7-7.26-17.87-3.94l-14.09,7.56c-6.13,3.29-8.82,10.55-6.64,16.94l-13.65.14,4.81,2.29-2.42,6.18,6.56,1.55-.67,5.43,7.55-11.53Z"/>
    </clipPath>
    <clipPath id="clippath-2">
      <path class="cls-4" d="M88.5,138.36h0c-1.44-.62-2.11-2.3-1.5-3.74l21.02-49.14c.62-1.44,2.3-2.11,3.74-1.5h0c1.44.62,2.11,2.3,1.5,3.74l-21.02,49.14c-.62,1.44-2.3,2.11-3.74,1.5Z"/>
    </clipPath>
    <clipPath id="clippath-3">
      <circle class="cls-4" cx="117.82" cy="69.8" r="31.03"/>
    </clipPath>
    <clipPath id="clippath-4">
      <circle class="cls-4" cx="117.82" cy="69.8" r="31.03"/>
    </clipPath>
    <clipPath id="clippath-5">
      <path class="cls-4" d="M69.59,132.69c5.21-4.42,6.66-12.13,3.06-18.19l-8.3-13.97c-3.63-6.1-11.16-8.51-17.57-5.96l-.54-14.29-2.27,5.08-6.53-2.09-1.13,6.64-5.39-.53,12.06,7.43c-5.34,4.4-6.85,12.19-3.21,18.31l8.3,13.97c3.61,6.08,11.1,8.49,17.49,5.99l.75,13.85,2.12-4.99,6.38,2.18,1.28-6.73,5.54.44-12.04-7.15Z"/>
    </clipPath>
  </defs>
  <g class="cls-12">
    <g id="_Слой_2" data-name="Слой 2">
      <g id="Calque_1" data-name="Calque 1">
        <g>
          <circle class="cls-15" cx="101.5" cy="101.5" r="99.99"/>
          <g>
            <polygon class="cls-9" points="157.71 135.77 160.06 129.45 153.58 128.04 154.35 122.76 143.91 138.07 162.6 138.23 157.71 135.77"/>
            <polygon class="cls-9" points="103.12 164.9 96.56 163.33 98.99 157.16 94.19 154.86 112.72 154.71 102.44 170.33 103.12 164.9"/>
            <path class="cls-8" d="M108.73,156.85h0c-3.64-6.82-1.04-15.39,5.79-19.03l14.11-7.53c6.82-3.64,15.39-1.04,19.03,5.79h0c3.64,6.82,1.04,15.39-5.79,19.03l-14.11,7.53c-6.82,3.64-15.39,1.04-19.03-5.79Z"/>
            <g class="cls-18">
              <path class="cls-6" d="M174.71,152.62l-73.17-29.25c-1.17-.47-2.51.11-2.97,1.27h0c-.47,1.17.11,2.51,1.28,2.97l73.17,29.25c1.17.47,2.51-.11,2.97-1.27h0c.47-1.17-.11-2.51-1.27-2.97Z"/>
              <path class="cls-6" d="M181.71,145.58l-73.17-29.25c-1.17-.47-2.51.11-2.97,1.27h0c-.47,1.17.11,2.51,1.27,2.97l73.17,29.25c1.17.47,2.51-.11,2.97-1.27h0c.47-1.17-.11-2.51-1.28-2.97Z"/>
              <path class="cls-6" d="M165.95,159.07l-73.17-29.25c-1.17-.47-2.51.11-2.97,1.28h0c-.47,1.17.11,2.51,1.27,2.97l73.17,29.25c1.17.47,2.51-.11,2.97-1.27h0c.47-1.17-.11-2.51-1.28-2.97Z"/>
              <path class="cls-6" d="M157.75,166.06l-73.17-29.25c-1.17-.47-2.51.11-2.97,1.28h0c-.47,1.17.11,2.51,1.27,2.97l73.17,29.25c1.17.47,2.51-.11,2.97-1.28h0c.47-1.17-.11-2.51-1.27-2.97Z"/>
              <path class="cls-6" d="M150.75,173.1l-73.17-29.25c-1.17-.47-2.51.11-2.97,1.28h0c-.47,1.17.11,2.51,1.27,2.97l73.17,29.25c1.17.47,2.51-.11,2.97-1.28h0c.47-1.17-.11-2.51-1.28-2.97Z"/>
            </g>
            <g class="cls-21">
              <g class="cls-16">
                <path class="cls-3" d="M110.88,135.05c-5.62,4.08-8.35,9.56-5.77,16.54,2.19,5.95,7.36,11.37,13.52,13.14,7.01,2.02,14.35-.92,20.92-3.21,6.94-2.42,16.07-4.22,19.21-11.44.58-1.34.17-2.84-1.34-3.3-5.35-1.63-8.69.3-13.73,2.27s-9.79,3.77-14.81,5.15c-4.94,1.36-9.34,1.15-12.75-3.07s-2.82-9.71-2.85-14.71c0-1.11-1.38-2.1-2.39-1.37h0Z"/>
                <path class="cls-5" d="M144.67,140.15c-.32-4.83-4.03-7.95-8.78-8.4-6.06-.57-10.72,3.23-14.01,7.93-.45.64.3,1.65,1.05,1.37,5.36-2.06,15.11-8.05,18.62-.06.67,1.52,3.22.75,3.11-.84h0Z"/>
                <path class="cls-5" d="M158.22,130.19c.39,0,.39-.6,0-.6s-.39.6,0,.6h0Z"/>
                <path class="cls-5" d="M154.19,122.74c-1.67.97-2.5,2.14-2.87,4.05-.21,1.07.46,2.07,1.6,2.1,2.28.06,4.46.34,6.67.92l-1.03-2.52c-1.14,2.07-1.88,4.19-2.2,6.54-.11.79.07,1.56.81,1.99,2.54,1.48,4.65,2.14,7.5,2.78.45.1.78-.43.45-.78-1.99-2.12-3.62-3.61-6.17-5.05l.87,1.52c.23-1.89.82-3.6,1.71-5.28.51-.95.09-2.25-1.03-2.52-2.5-.62-5-.95-7.58-.92l1.66,1.66c.08-1.09.44-2.19.96-3.14.47-.85-.48-1.86-1.35-1.35h0Z"/>
                <path class="cls-3" d="M108.25,152.38c-3.41,2.16-5.39,5.84-7.23,9.33-1.6,3.04-3.55,6.74-1.6,10.05.27.45.86.88,1.42.81,3.78-.47,5.51-3.69,7.02-6.86,1.7-3.58,3.67-7.57,3.35-11.63-.11-1.41-1.61-2.56-2.97-1.7h0Z"/>
              </g>
            </g>
          </g>
          <g>
            <path class="cls-7" d="M88.5,138.36h0c-1.44-.62-2.11-2.3-1.5-3.74l21.02-49.14c.62-1.44,2.3-2.11,3.74-1.5h0c1.44.62,2.11,2.3,1.5,3.74l-21.02,49.14c-.62,1.44-2.3,2.11-3.74,1.5Z"/>
            <g class="cls-20">
              <g class="cls-11">
                <g class="cls-23">
                  <path class="cls-3" d="M82.77,140.85c1.01,4.21,3.52,6.78,8.29,5.32,5.81-1.77,8.26-8.51,10.51-13.49,3-6.66,5.81-13.4,8.64-20.13s6.4-13.72,8.83-20.79c1.69-4.92-5.78-7.91-8.3-3.5-5.27,9.2-8.64,19.87-12.7,29.65-2.14,5.14-4.34,10.26-6.61,15.35-.89,1.98-1.59,4.14-3.67,5.11-.58.27-1.77.48-2.45.65-2.27.58.31.38-.2.03-1.21-.82-2.65.53-2.34,1.8h0Z"/>
                </g>
              </g>
            </g>
            <circle class="cls-8" cx="117.82" cy="69.8" r="31.03"/>
            <g class="cls-22">
              <path class="cls-14" d="M342.66,195.86c50.49-118.06-4.28-254.7-122.34-305.19C125.88-149.73,16.57-105.91-23.83-11.46c-32.32,75.56,2.74,163.01,78.3,195.32,60.45,25.85,130.41-2.19,156.26-62.64,20.68-48.36-1.75-104.32-50.11-125.01-38.69-16.55-83.46,1.4-100,40.09-13.24,30.95,1.12,66.77,32.07,80,24.76,10.59,53.41-.9,64-25.66,8.47-19.81-.72-42.73-20.52-51.2-15.85-6.78-34.18.57-40.96,16.42-5.42,12.68.46,27.35,13.14,32.77,10.14,4.34,21.88-.37,26.22-10.51,3.47-8.11-.29-17.5-8.41-20.97-6.49-2.78-14,.24-16.78,6.73-2.22,5.19.19,11.2,5.38,13.42"/>
              <path class="cls-13" d="M269.04,157.09c34.28-80.16-2.91-172.94-83.07-207.22C121.85-77.56,47.62-47.81,20.2,16.32c-21.94,51.3,1.86,110.68,53.16,132.62,41.04,17.55,88.54-1.49,106.1-42.53,14.04-32.83-1.19-70.84-34.02-84.88-26.27-11.23-56.67.95-67.9,27.22-8.99,21.01.76,45.33,21.78,54.32,16.81,7.19,36.27-.61,43.46-17.42,5.75-13.45-.49-29.01-13.94-34.77-10.76-4.6-23.21.39-27.81,11.15-3.68,8.61.31,18.57,8.92,22.25,6.89,2.95,14.86-.25,17.8-7.14,2.36-5.51-.2-11.88-5.71-14.24-4.41-1.88-9.51.16-11.39,4.57-1.51,3.53.13,7.61,3.65,9.11"/>
              <path class="cls-6" d="M91.72,37.27c-9.13,2.93-15.87,15.16-17.57,24.08s-.66,17.51,2.4,25.87c3.63,9.93,10.32,18.44,18.89,24.61,4.16,2.99,8.87,5.23,13.95,6.11s12.49,1.35,16.1-3.09c2.9-3.57,2.75-8.53-1.43-11.13-3.31-2.06-7.14-1.29-10.69-2.67-3.11-1.2-6.09-2.88-8.83-4.78-5.57-3.85-10.18-9.33-12.69-15.64-2.08-5.23-3.21-10.7-2.37-16.32.54-3.58,1.33-7.26,2.4-10.73,1.37-4.42,3.36-9.28,2.92-13.97-.14-1.49-1.45-2.86-3.07-2.34h0Z"/>
              <path class="cls-6" d="M112.76,72.68s2.66,2.09,4.19,1.14,2.12-2.78,2.71-1.09c.59,1.69.26,7.69-6.02,5.97-6.28-1.72-3.15-8.27-.89-6.02Z"/>
            </g>
            <g class="cls-20">
              <g class="cls-17">
                <g class="cls-23">
                  <path class="cls-3" d="M79.94,68.69c-2.15,7.82-2.64,14.85.77,22.41,3.13,6.95,9.74,12.76,16.59,15.95,13.31,6.18,28.84,5.25,41.56-1.97s20.24-19.15,18.91-33.77c-.58-6.41-1.73-12.41-4.8-18.14s-6.54-8.37-12.39-10.58c-1.91-.72-2.87,1.84-1.81,3.11,5.23,6.3,9.31,16.48,6.94,24.65-2.17,7.5-8.48,15.2-15.15,19.15-7.15,4.23-15.62,5.28-23.5,2.57-4.74-1.63-8.48-4.49-11.63-8.33s-6.62-8.95-7.08-13.92c-.42-4.59-7.04-6.06-8.4-1.14h0Z"/>
                </g>
                <g>
                  <path class="cls-5" d="M112.51,45.3c6.33-1.73,11.64-1.14,17.76.99.28.1.49-.29.28-.49-4.92-4.64-12.85-5.19-18.75-2.18-.94.48-.28,1.95.71,1.68h0Z"/>
                  <path class="cls-5" d="M111.94,51.3c6.14-1.89,11.56-1.84,17.51.73.3.13.7-.25.39-.5-5.06-4.09-12.78-4.69-18.22-.99-.37.25-.15.91.32.76h0Z"/>
                  <path class="cls-5" d="M112.43,55.07c5.47-2.55,11.13-2.55,16.36.68.3.19.61-.23.37-.48-4.45-4.71-12.37-5.38-17.29-.92-.41.37.11.93.56.72h0Z"/>
                  <path class="cls-5" d="M113.73,58.23c3.15-1.65,6.74-2.09,10.11-.83.57.22.96-.71.42-.99-3.64-1.86-7.91-1.58-10.95,1.27-.3.28.08.72.42.55h0Z"/>
                  <path class="cls-5" d="M115.73,60.54c1.85-1.13,4.81-1.15,6.75-.28.44.19.79-.37.38-.65-2.54-1.7-5.09-1.4-7.44.4-.3.23-.04.74.31.53h0Z"/>
                  <path class="cls-5" d="M112.45,65.97c3.2-4.13,9.18-4.13,13.04-.97.3.24.8-.07.57-.44-3.26-5.16-11.4-4.05-14.15.99-.18.33.3.75.55.42h0Z"/>
                  <path class="cls-5" d="M115.81,70.79c.34-.56.89-1.02,1.34-1.49s.76-1.04,1.09-1.57l-1.43.58c1.03.43.84,1.53,1.42,2.29.29.38.68.51,1.13.3,1.09-.53.99-2.11.55-3.03s-1.34-1.83-2.43-1.99c-.7-.11-1.33.17-1.56.88-.19.61-.4,1.21-.47,1.85s-.07,1.33-.27,1.93c-.12.37.42.57.61.26h0Z"/>
                  <path class="cls-5" d="M109.55,80.78c4.18,1.32,9.69.54,12.81-2.7.42-.43-.11-1.01-.61-.79-4.14,1.83-7.47,2.93-12.07,2.51-.58-.05-.65.82-.13.98h0Z"/>
                  <path class="cls-5" d="M111.21,84.9c4.13,1.63,8.32,1.33,11.95-1.34.53-.39.08-1.19-.52-.89-3.43,1.68-7.49,2.38-11.25,1.56-.45-.1-.6.51-.18.67h0Z"/>
                  <path class="cls-5" d="M110.13,89.46c5.27,1.67,10.58,1.18,15.41-1.5.29-.16.09-.61-.23-.53-4.95,1.24-10.02,1.79-15.11,1.54-.29-.01-.33.41-.07.49h0Z"/>
                  <path class="cls-5" d="M108.57,94.8c7.53,5.2,20.46,2.13,24.53-6.15.38-.77-.52-1.47-1.18-.91-7.09,6.09-13.78,8.14-23,6.25-.5-.1-.76.52-.34.81h0Z"/>
                  <path class="cls-5" d="M104.4,65.08c-1.17,3.45-1.4,7.96,1.05,10.92.18.22.63.05.59-.25-.45-3.64-1.43-6.85-.99-10.59.05-.39-.54-.43-.66-.09h0Z"/>
                  <path class="cls-5" d="M99.14,65.53c-.63,4.82.25,10.33,3.98,13.79.19.18.56,0,.47-.27-1.59-4.54-3.43-8.63-3.8-13.52-.03-.42-.59-.4-.64,0h0Z"/>
                  <path class="cls-5" d="M95.15,67.2c-.23,2.68.13,5.05,1.26,7.5.11.24.51.07.43-.18-.73-2.34-1.17-4.86-1.11-7.31,0-.38-.55-.37-.58,0h0Z"/>
                  <path class="cls-5" d="M93.28,69.12c.6,4.7,1.95,9.62,5.1,13.3.18.21.56-.01.47-.27-1.7-4.39-3.78-8.52-4.99-13.11-.08-.31-.62-.26-.57.08h0Z"/>
                  <path class="cls-5" d="M90.6,73.21c.32,3.04,1.95,5.92,3.65,8.4.29.43.93.06.7-.41-1.34-2.67-2.26-5.56-3.7-8.17-.16-.29-.69-.18-.65.18h0Z"/>
                  <path class="cls-5" d="M87.91,69.29c-1.23,4.89.17,10.18,3.05,14.22.18.25.66.11.53-.23-1.69-4.59-2.42-9.08-3.01-13.92-.04-.3-.49-.42-.57-.08h0Z"/>
                  <path class="cls-5" d="M128.08,70.85c-.2,1.45-.45,2.87-.27,4.34.05.43.75.64.85.11.26-1.47.09-2.9-.03-4.38-.02-.29-.5-.41-.55-.07h0Z"/>
                  <path class="cls-5" d="M131.4,69.15c1.73,2.59.57,4.78.16,7.5-.03.22.18.46.41.31,2.72-1.8,1.52-5.98-.04-8.12-.23-.31-.75-.02-.53.31h0Z"/>
                  <path class="cls-5" d="M135.89,68.43c.26,1.62.1,3.13-.2,4.73-.21,1.13-.62,2.23-.55,3.4.02.27.32.4.52.22,2.2-2.04,1.44-5.94.8-8.5-.09-.37-.62-.21-.56.16h0Z"/>
                  <path class="cls-5" d="M138.15,69.35c.42,1.43.56,2.85.44,4.33-.09,1.16-.43,2.32-.27,3.47.03.25.4.32.56.15,1.87-2.1.81-5.92-.15-8.19-.14-.34-.68-.1-.58.25h0Z"/>
                  <path class="cls-5" d="M143.03,65.55c1.76,4.4,2.03,8.61,1.52,13.29-.03.29.42.39.54.15,2.29-4.38,1.71-9.77-.99-13.89-.34-.52-1.33-.2-1.07.45h0Z"/>
                  <path class="cls-5" d="M113.16,74.99c.75.98,1.86,1.33,3.07,1.2,1.02-.11,2.37-.7,2.55-1.85.03-.21-.13-.46-.38-.38-.72.25-1.33.71-2.1.87-.87.19-1.79-.03-2.59-.39-.32-.14-.83.19-.55.55h0Z"/>
                </g>
                <g>
                  <path class="cls-5" d="M127.69,44.29c-9.6-6.78-24.83.69-29.21,10.44-.72,1.59,1.03,3,2.41,1.86,3.96-3.3,8.06-6.15,13.17-7.33,4.36-1.01,8.8-.97,13.2-1.59,1.74-.25,1.58-2.58.44-3.38h0Z"/>
                  <path class="cls-5" d="M126.65,58.32c-2.43-3.24-5.98-4.2-9.93-3.09-4.24,1.2-5.7,4.42-6.78,8.37-.2.71.88,1.21,1.23.52,1.2-2.38,4.45-3.33,6.89-4.06,2.23-.67,5.19-.79,7.48-.29.75.16,1.68-.71,1.12-1.45h0Z"/>
                  <path class="cls-5" d="M129.3,62.3c.1.05.2.11.3.18l-.44-.77c0,.41.13.69.32,1.03l-.14-1.07c-.17.48-.02.98.21,1.41.02.03.24.41.16.24-.07-.14.09.27.09.27.07.21.12.43.23.63.07.12.15.24.24.34.16.21.2.26.11.14-.12-.18.12.19.14.23-.11-.21.07.22.07.25.29,1.12,2.02,1.43,2.57.34.58-1.15.8-2.58-.1-3.63-.68-.79-2.04-1.8-3.08-1.05l.7-.19c-.5-.04-.88.07-1.25.43l.63-.26c-.11-.01-.23-.01-.34-.01-.77,0-1.11,1.1-.4,1.49h0Z"/>
                  <path class="cls-5" d="M114.97,90.88s.02-.03,0-.03-.02.03,0,.03h0Z"/>
                  <path class="cls-5" d="M102.4,59.45c-6.61,9.38-2.64,23.27,9.3,25.39.5.09.87-.6.37-.88-8.89-4.92-13.44-14.36-8.95-24.09.22-.49-.41-.86-.72-.42h0Z"/>
                </g>
              </g>
            </g>
          </g>
          <g>
            <polygon class="cls-1" points="43.98 85.35 37.46 83.26 36.32 89.9 30.93 89.38 46.96 99.26 46.25 80.28 43.98 85.35"/>
            <polygon class="cls-1" points="76.09 139.4 74.81 146.14 68.43 143.95 66.32 148.94 65.31 130.14 81.63 139.84 76.09 139.4"/>
            <path class="cls-10" d="M67.66,134.08h0c-6.76,4.01-15.57,1.77-19.58-4.99l-8.3-13.97c-4.01-6.76-1.77-15.57,4.99-19.58h0c6.76-4.01,15.57-1.77,19.58,4.99l8.3,13.97c4.01,6.76,1.77,15.57-4.99,19.58Z"/>
            <g>
              <path class="cls-2" d="M43.54,109.38c3.12,0,3.12-4.84,0-4.84s-3.12,4.84,0,4.84h0Z"/>
              <path class="cls-2" d="M51.77,109.76c2.36,0,2.37-3.67,0-3.67s-2.37,3.67,0,3.67h0Z"/>
              <path class="cls-2" d="M54.68,101.81c2.72,0,2.73-4.23,0-4.23s-2.73,4.23,0,4.23h0Z"/>
              <path class="cls-2" d="M52.57,119.99l.02-.03.23-.55c.1-.31.11-.61.04-.92,0-.21-.05-.4-.16-.58-.09-.29-.25-.53-.48-.74l-.47-.36-.55-.23c-.31-.1-.61-.11-.92-.04-.31.01-.59.11-.86.27l-.03.02c-.35.21-.63.48-.83.83-.21.36-.32.75-.32,1.17l.08.62c.11.39.31.73.6,1.02.21.23.46.39.75.48.28.15.57.21.89.2.42,0,.81-.11,1.17-.32.35-.21.63-.48.83-.83h0Z"/>
              <path class="cls-2" d="M59.03,121.74c.3.01.59-.05.85-.19.27-.09.51-.24.71-.45.21-.2.37-.43.45-.71.14-.26.2-.54.19-.85l-.08-.58c-.1-.37-.29-.7-.57-.97l-.44-.34c-.34-.2-.71-.3-1.11-.3-.3-.01-.59.05-.85.19-.27.09-.51.24-.71.45-.21.2-.37.43-.45.71-.14.26-.2.54-.19.85l.08.58c.1.37.29.7.57.97l.44.34c.34.2.71.3,1.11.3h0Z"/>
              <path class="cls-2" d="M63.39,113.97c2.79,0,2.8-4.34,0-4.34s-2.8,4.34,0,4.34h0Z"/>
              <path class="cls-2" d="M55.16,131.49l.45.05c.25,0,.49-.04.71-.16.23-.07.42-.2.59-.38.18-.17.31-.36.38-.59.11-.22.17-.45.16-.71l-.07-.49c-.09-.31-.24-.58-.47-.81l-.37-.29c-.29-.17-.59-.25-.93-.25l-.45.05c-.25,0-.47.04-.69.15-.22.07-.41.19-.57.37-.17.16-.3.35-.37.57-.11.21-.16.44-.15.69l.06.47c.08.3.24.56.46.79l.36.28c.28.16.58.24.9.24h0Z"/>
              <path class="cls-2" d="M64.84,131.32c.41,0,.85-.18,1.14-.47.16-.15.27-.32.33-.52.1-.19.15-.4.14-.62-.02-.42-.16-.85-.47-1.14s-.7-.47-1.14-.47c-.41,0-.85.18-1.14.47-.16.15-.27.32-.33.52-.1.19-.15.4-.14.62.02.42.16.85.47,1.14s.7.47,1.14.47h0Z"/>
              <path class="cls-2" d="M70.3,122.4c.08-.3.16-.6.17-.92,0-.24-.04-.47-.15-.68-.07-.22-.19-.41-.36-.56-.16-.17-.35-.29-.56-.36-.21-.11-.43-.16-.68-.15l-.47.06c-.3.08-.55.23-.77.45-.31.34-.52.77-.51,1.24,0,.32.09.62.17.92l.17.39c.1.19.24.34.42.46.1.1.22.17.36.21.2.1.41.15.63.14l.44-.06.39-.17c.19-.1.34-.24.46-.42.15-.16.24-.34.29-.56h0Z"/>
            </g>
            <g class="cls-19">
              <g class="cls-24">
                <path class="cls-3" d="M45.1,134.68c9.4,11.28,25.79,1.55,29.07-10.49,2.14-7.85-.92-15.88-3.86-23.07-1.57-3.84-3.07-7.81-5.04-11.46-1.84-3.41-3.65-4.86-7.25-6.21-1.15-.43-2.52.48-2.81,1.59-1.38,5.28.4,8.44,2.59,13.27,2.41,5.31,5.07,10.93,6.21,16.68,2.32,11.79-7.76,16.15-17.77,16.92-1.45.11-2.06,1.66-1.14,2.76h0Z"/>
                <path class="cls-5" d="M49.1,98.37c-4.99.56-8.09,4.53-8.24,9.52-.18,5.96,3.84,10.65,8.67,13.61.64.4,1.72-.28,1.39-1.07-2.24-5.34-8.92-14.97-.96-18.9,1.46-.72.82-3.35-.86-3.16h0Z"/>
                <path class="cls-5" d="M38.01,85.38c.39,0,.39-.61,0-.61s-.39.61,0,.61h0Z"/>
                <path class="cls-5" d="M30.91,89.45c1.06,1.64,2.23,2.46,4.19,2.76,1.04.16,2.16-.42,2.13-1.62-.04-2.32.12-4.53.62-6.81l-2.56,1.04c2.31,1.14,4.64,1.79,7.21,2.03.59.05,1.28-.37,1.55-.89,1.4-2.66,1.99-4.84,2.52-7.78.08-.44-.44-.82-.79-.46-2.05,2.1-3.49,3.8-4.83,6.44l1.55-.89c-1.94-.15-3.69-.62-5.44-1.46-.94-.45-2.33-.14-2.56,1.04-.52,2.57-.76,5.12-.62,7.74l1.69-1.69c-1.12-.04-2.26-.32-3.27-.82-.84-.41-1.95.47-1.37,1.37h0Z"/>
                <path class="cls-3" d="M62.41,135.94c2.35,3.36,6.05,5.2,9.68,6.91,3.15,1.49,7.07,3.43,10.36,1.3.68-.44.89-1.12.77-1.89-.62-3.76-4.58-5.31-7.69-6.64-3.54-1.52-7.48-3.17-11.39-2.7-1.35.16-2.7,1.63-1.73,3.01h0Z"/>
              </g>
            </g>
          </g>
        </g>
      </g>
    </g>
  </g>
</svg>