<?xml version="1.0" encoding="UTF-8"?>
<svg id="_Слой_2" data-name="Слой 2" xmlns="http://www.w3.org/2000/svg" viewBox="0 0 203 203">
  <defs>
    <style>
      .cls-1 {
        fill: #c1d44f;
      }

      .cls-1, .cls-2, .cls-3, .cls-4, .cls-5 {
        stroke-width: 0px;
      }

      .cls-2 {
        fill: #34bacc;
      }

      .cls-6 {
        fill: #fff;
        stroke: #1f3a6e;
        stroke-miterlimit: 10;
        stroke-width: 3px;
      }

      .cls-3 {
        fill: #1db1bf;
      }

      .cls-4 {
        fill: #a0b61d;
      }

      .cls-5 {
        fill: #203865;
      }
    </style>
  </defs>
  <g id="Calque_1" data-name="Calque 1">
    <g>
      <circle class="cls-6" cx="101.5" cy="101.5" r="100"/>
      <g>
        <path class="cls-5" d="M117.65,77.04c-1.16,0-2.31-.46-3.17-1.36l-20.95-22.18-29.43-5.31c-2.37-.43-3.94-2.69-3.51-5.06.43-2.37,2.69-3.94,5.06-3.51l32.25,5.82,22.92,24.26c1.65,1.75,1.58,4.51-.17,6.16-.84.79-1.92,1.19-2.99,1.19Z"/>
        <g>
          <path class="cls-1" d="M54.07,110.62c-.24,0-.36,0-.36,0,0,0,7.46,30.16,22.68,42.41,13.98,11.23,25.78,11.6,32.67,5.32-.97-.63-3.31-2.19-6.39-4.33-2.04-1.42-4.39-3.12-6.88-4.99-1.25-.93-2.49-1.98-3.78-2.99-1.28-1.02-2.51-2.21-3.77-3.32-.61-.6-1.18-1.3-1.75-1.94l-.79-.91-.78-.93c-1.03-1.24-2.05-2.47-3.04-3.65-1.02-1.14-2.08-2.14-3.06-3.15-.98-.99-1.89-1.95-2.78-2.8,0,0-12.5-11.67-21.97-18.69Z"/>
          <path class="cls-4" d="M54.07,110.62c9.46,7.02,21.97,18.69,21.97,18.69-3.57-3.4-6.02-5.59-6.02-5.59,0,0,2.65,1.95,6.53,5.01.98.76,1.99,1.65,3.09,2.56,1.08.93,2.28,1.87,3.42,2.93,1.1,1.08,2.23,2.21,3.38,3.34l.87.86c.39.4.6.56.9.85.57.52,1.09,1.07,1.7,1.56,1.31.94,2.55,1.94,3.89,2.81,1.35.87,2.63,1.75,3.94,2.54,2.6,1.61,5.06,3.04,7.19,4.25,4.28,2.41,7.15,3.91,7.15,3.91.05.02.08.07.12.1,4.7-8.08,1.82-19.55-12.18-30.81-14.28-11.48-42.46-12.89-45.94-13.03Z"/>
        </g>
        <path class="cls-1" d="M131.1,108.19c-1,0-1.96-.1-2.87-.3-5.12-1.14-7.61-5.21-9.26-7.9-.25-.41-.5-.81-.73-1.17-2.65-4.74-6.7-14.7-6.87-15.12-.45-1.12.08-2.39,1.2-2.84,1.11-.45,2.38.08,2.84,1.2.04.1,4.12,10.13,6.56,14.5.18.26.45.7.73,1.15,1.49,2.43,3.18,5.19,6.49,5.93,4.01.89,9.85-1.18,17.39-6.16,1-.66,2.36-.39,3.02.62.66,1,.39,2.36-.62,3.02-7.18,4.74-13.06,7.07-17.87,7.07Z"/>
        <path class="cls-4" d="M146.17,81.95s.54,1.98,1.31,5.37c.78,3.41,1.79,8.28,2.75,14.18.92,5.91,1.84,12.83,2.11,20.33.17,3.75.13,7.64-.15,11.59-.27,3.95-.83,7.98-1.95,11.91-1.11,3.92-2.76,7.8-5.38,11-2.58,3.22-6.24,5.49-10,6.41-.95.17-1.87.53-2.82.53-.94.06-1.87.13-2.79.19-.91-.03-1.82-.11-2.7-.17l-1.32-.09c-.44-.09-.87-.18-1.31-.26-1.64-.25-3.31-.9-4.83-1.48-1.47-.68-2.89-1.33-4.16-2.09-2.6-1.44-4.86-2.93-6.89-4.21-2.02-1.29-3.78-2.42-5.23-3.34-2.92-1.81-4.59-2.85-4.59-2.85,0,0,1.72.95,4.74,2.61,1.5.85,3.31,1.88,5.4,3.07,2.09,1.17,4.42,2.54,7.05,3.82,1.3.69,2.71,1.24,4.15,1.83,1.48.46,2.9.98,4.63,1.16l1.21.18,1.26.02c.84,0,1.7.04,2.55.03.85-.1,1.7-.21,2.57-.31.88-.04,1.68-.42,2.53-.61,3.34-1.01,6.35-3.12,8.47-6.05,2.14-2.92,3.48-6.49,4.31-10.17.85-3.69,1.18-7.52,1.24-11.29.07-3.78-.09-7.52-.44-11.12-.64-7.22-1.88-13.91-3.07-19.61-1.23-5.69-2.47-10.39-3.39-13.65-.93-3.28-1.52-5.06-1.52-5.06-.56-1.71.37-3.56,2.08-4.13,1.71-.56,3.56.37,4.13,2.08.02.05.03.1.05.15v.04Z"/>
        <path class="cls-4" d="M117.65,89.05c2.47.26,4.88.73,7.26,1.3,2.38.57,4.73,1.22,7.06,1.96l.68.22.07.69c.17,1.7.3,3.4.33,5.12.03,1.72,0,3.44-.22,5.19-.62-1.65-1.04-3.32-1.4-5-.37-1.68-.63-3.37-.85-5.06l.75.9c-2.34-.69-4.66-1.46-6.95-2.32-2.29-.86-4.55-1.81-6.74-2.99Z"/>
        <g>
          <polygon class="cls-4" points="140.47 64.23 120.5 63.83 120.28 64.06 131.65 90.28 147.12 85.05 140.47 64.23"/>
          <polygon class="cls-1" points="108.23 76.51 116.41 95.44 131.65 90.28 120.28 64.06 108.23 76.51"/>
        </g>
        <g>
          <path class="cls-3" d="M62.44,51.49c-5.22,6.55-11.88,16.63-11.88,21.83,0,7.58,5.33,13.74,11.88,13.74v-35.57s0,0,0,0Z"/>
          <path class="cls-2" d="M62.44,51.5v35.57h0c6.55,0,11.88-6.17,11.88-13.74,0-5.18-6.66-15.27-11.88-21.83Z"/>
        </g>
      </g>
    </g>
  </g>
</svg>