<?xml version="1.0" encoding="UTF-8"?>
<svg id="_Слой_2" data-name="Слой 2" xmlns="http://www.w3.org/2000/svg" viewBox="0 0 138.7 63.29">
  <defs>
    <style>
      .cls-1, .cls-2 {
        fill: #404042;
      }

      .cls-1, .cls-2, .cls-3, .cls-4, .cls-5, .cls-6, .cls-7, .cls-8, .cls-9, .cls-10, .cls-11, .cls-12, .cls-13, .cls-14, .cls-15, .cls-16, .cls-17, .cls-18 {
        stroke-width: 0px;
      }

      .cls-1, .cls-3, .cls-4, .cls-5, .cls-6, .cls-7, .cls-9, .cls-10, .cls-11, .cls-12, .cls-13, .cls-15, .cls-17, .cls-18 {
        fill-rule: evenodd;
      }

      .cls-19 {
        opacity: .33;
      }

      .cls-3 {
        fill: #fd1;
      }

      .cls-4, .cls-8 {
        fill: #c7c6c6;
      }

      .cls-5 {
        fill: #a5c83f;
      }

      .cls-6 {
        fill: #6e6f70;
      }

      .cls-7 {
        fill: #f08224;
      }

      .cls-9 {
        fill: #fff;
      }

      .cls-10 {
        fill: #595a5c;
      }

      .cls-11 {
        fill: #231f20;
      }

      .cls-12 {
        fill: #eeba27;
      }

      .cls-13 {
        fill: #020102;
      }

      .cls-14 {
        fill: #51aba8;
      }

      .cls-15 {
        fill: #18864b;
      }

      .cls-16 {
        fill: #2d6570;
      }

      .cls-17 {
        fill: #0ca551;
      }

      .cls-18 {
        fill: #888989;
      }
    </style>
  </defs>
  <g id="Calque_1" data-name="Calque 1">
    <g>
      <path class="cls-8" d="M39.5,44.74l1.07.11c.03-.3.15-.95.28-1.71.59-3.28,1.12-6.6.63-7.93l-3.62-8.19-.98.44,3.61,8.16c.42,1.13-.31,5.17-.7,7.33-.15.81-.26,1.45-.29,1.79Z"/>
      <path class="cls-18" d="M37.97,26.88l1.56,3.5c.07.17,0,.36-.17.44l-.66.29c-.17.08-.36,0-.44-.17l-1.56-3.5c-.07-.17,0-.36.17-.44l.66-.29c.17-.07.36,0,.44.17h0Z"/>
      <g>
        <g>
          <polygon class="cls-16" points="85.12 5.28 101.56 24.57 101.2 26.68 82.54 4.79 85.12 5.28"/>
          <path class="cls-16" d="M102.19,8.53c.16,3.27.12,6.54-.04,9.81l-9.99-11.72,10.03,1.91Z"/>
          <polygon class="cls-16" points="80.92 4.48 79.5 5.69 99.43 29.07 101.02 27.71 99.95 33.9 95.13 32.97 95.18 32.72 82.08 30.2 84.27 18.8 76.42 17.29 78.95 4.11 80.92 4.48"/>
          <path class="cls-14" d="M92.16,6.62l9.99,11.72c-.07,1.43-.15,2.86-.25,4.29l-.34,1.94-16.45-19.29,7.05,1.34Z"/>
          <polygon class="cls-14" points="79.5 5.69 80.92 4.48 82.54 4.79 101.2 26.68 101.02 27.71 99.43 29.07 79.5 5.69"/>
        </g>
        <g>
          <polygon class="cls-1" points="99.54 32.15 88.62 30.06 88.16 32.45 99.08 34.55 99.54 32.15 99.54 32.15"/>
          <path class="cls-15" d="M68.53,19.33c-2.18-.42-3.74-1.8-3.5-3.09.25-1.29,2.21-1.99,4.39-1.57,2.18.42,3.74,1.8,3.5,3.09s-2.21,1.99-4.39,1.57h0Z"/>
          <path class="cls-7" d="M65.01,16.49c0-.08,0-.16.03-.24.19-1,1.43-1.65,3-1.69-.73,1.09-1.83,1.81-3.02,1.93h0Z"/>
          <polygon class="cls-1" points="112.12 46.7 73.61 39.29 73.3 40.91 111.81 48.31 112.12 46.7 112.12 46.7"/>
          <polygon class="cls-1" points="86.94 6.02 83.92 21.74 85.16 21.98 88.18 6.26 103.85 9.27 103.83 8.17 80.08 2.96 79.75 4.64 86.94 6.02 86.94 6.02"/>
          <polygon class="cls-1" points="78.03 4.18 73.75 17.05 76.27 17.61 79.95 4.7 78.03 4.18 78.03 4.18"/>
          <path class="cls-1" d="M76.39,14.75c2.31.44,8.18,2.62,9.25,3.83,2.1,2.36,5.45,11.37,3.9,16.39-1.63,5.27-12.51-.67-12.89-9-.05-1.07-3.46-12.02-.27-11.22h0Z"/>
          <polygon class="cls-1" points="100.66 8.31 99.37 8.06 94.08 35.63 95.36 35.87 100.66 8.31 100.66 8.31"/>
          <path class="cls-15" d="M135.45,44.65l.16-1.7c.03-.27-.07-.51-.28-.68-.21-.17-.46-.23-.72-.15l-4.76,1.34,5.6,1.2h0Z"/>
          <path class="cls-17" d="M118.11,46.67l3.25-9.15,1.81-3.91c.84-1.81,2.23-1.78,3.67-1.5l4.45.86c-2.84-4.41-22.41-8.99-30.12-10.47l-2.16,11.23-9.8-1.88c-.43-4.82-2.64-10.8-4.67-12.46-16.85-9.04-26.54-.25-26.79,1.4-.74,4.92,9.5,3.08,9.44,10.66-.04,5.47,3.28,10.03,8.47,11.02,3.1.6,5.16-2.74,8.33-2.15l34.12,6.36h0Z"/>
          <polygon class="cls-1" points="131.29 32.96 127.76 44.3 116.76 42.19 122.57 30.82 131.29 32.96 131.29 32.96"/>
          <polygon class="cls-11" points="130.63 32.8 126.82 44.12 126.14 43.99 130.01 32.65 130.63 32.8 130.63 32.8"/>
          <polygon class="cls-11" points="129.18 32.44 125.33 43.83 124.66 43.7 128.55 32.29 129.18 32.44 129.18 32.44"/>
          <polygon class="cls-11" points="127.72 32.08 123.85 43.55 123.18 43.42 127.1 31.93 127.72 32.08 127.72 32.08"/>
          <polygon class="cls-11" points="126.26 31.72 122.37 43.26 121.7 43.13 125.64 31.57 126.26 31.72 126.26 31.72"/>
          <polygon class="cls-11" points="124.8 31.37 120.88 42.98 120.21 42.85 124.18 31.21 124.8 31.37 124.8 31.37"/>
          <polygon class="cls-11" points="123.35 31.01 119.4 42.69 118.73 42.56 122.72 30.85 123.35 31.01 123.35 31.01"/>
          <path class="cls-17" d="M50.34,40.11c-.37,1.1,0,2.31.89,2.76.93.48,2.06-.05,2.53-1.19.19-.46.24-.95.18-1.4l3.44.66c.2.04.38.01.39-.06l.1-.5c.01-.07-.14-.16-.34-.2l-4.48-.86c-.2-.04-.38-.01-.39.06l-.1.5c-.01.07.14.16.34.2l.27.05c-.03.16-.08.31-.15.47-.39.94-1.18,1.45-1.77,1.14-.42-.22-.63-.8-.57-1.46l-.34-.17h0Z"/>
          <polygon class="cls-1" points="101.48 22.37 100.2 22.13 98.01 33.53 99.29 33.77 101.48 22.37 101.48 22.37"/>
          <path class="cls-17" d="M138.7,45.55c-.22,1.16-1.31,5.55-1.69,5.8-.58.38-6.96-.53-9.32-.98-3.25-.62-1.39-8.51,1.23-8,1.56.3,9.78,2.52,9.78,3.19h0Z"/>
          <path class="cls-17" d="M103.83,8.17c.23-1.7-14.28-4.8-22.07-5.74-2.74-.33-3.33.44-3.77,1.89l1.97.38c.25-.57.66-.99,3.13-.51l20.74,3.99h0Z"/>
          <polygon class="cls-1" points="102.13 21.6 85.47 18.4 85.26 19.48 102.11 22.67 102.13 21.6 102.13 21.6"/>
          <path class="cls-1" d="M77.6,3.6h0c-.08-.65-.68-1.11-1.32-1.03l-.8.1.29,2.35.8-.1c.65-.08,1.11-.68,1.03-1.32h0Z"/>
          <path class="cls-1" d="M105.03,11.83l-1.61-.31c-.29-.05-.56.13-.62.42l-1.05,5.44c-.05.29.13.56.42.62l1.61.31c.29.06.57-.13.62-.42l1.05-5.44c.05-.29-.13-.57-.42-.62h0Z"/>
          <path class="cls-2" d="M103.91,12.52l.48.09.37-1.93c.19-.98-.45-1.94-1.43-2.13l-2.46-.49-.1.48,2.46.49c.72.14,1.18.84,1.05,1.56l-.37,1.93Z"/>
          <path class="cls-3" d="M124.81,30.45c-3.36-2.15-12.79-4.33-22.77-6.56l-.19,1.41c7.26,1.31,14.8,2.91,22.97,5.14h0Z"/>
          <path class="cls-1" d="M55.94,21.8c1.31-2.63,13.2-8.16,22.03-3.58,8.02,4.16,11.6,10.85,9.47,22.74l-11.01-2.12-20.48-17.03h0Z"/>
          <path class="cls-1" d="M72.81,20.89c-8.99-1.73-17.68,4.16-19.41,13.15-1.73,8.99,4.16,17.68,13.15,19.41,8.99,1.73,17.68-4.16,19.41-13.15,1.73-8.99-4.16-17.68-13.15-19.41h0Z"/>
          <path class="cls-10" d="M72.37,23.21c-7.71-1.48-15.16,3.57-16.65,11.28-1.48,7.71,3.57,15.17,11.28,16.65,7.71,1.48,15.16-3.57,16.65-11.28s-3.57-15.16-11.28-16.65h0Z"/>
          <path class="cls-10" d="M73.59,20.98l-.42,2.93c-.29-.08-.59-.15-.9-.2-.15-.03-.31-.06-.46-.08l.81-2.85c.07.01.14.02.21.04.26.05.51.1.76.17h0ZM70.14,20.52c-.33,0-.66,0-.99,0l-.2,2.96c.46-.02.92-.03,1.38,0l-.2-2.95h0ZM66.67,20.79c-.32.06-.65.13-.97.21l.42,2.93c.44-.12.9-.22,1.35-.29l-.81-2.85h0ZM63.33,21.78c-.3.13-.61.26-.9.4l1.02,2.78c.41-.21.83-.4,1.26-.57l-1.38-2.62h0ZM60.27,23.44c-.27.19-.54.38-.8.58l1.58,2.51c.36-.29.73-.56,1.12-.82l-1.89-2.27h0ZM57.61,25.69c-.23.24-.45.48-.66.74l2.06,2.13c.29-.36.6-.7.92-1.03l-2.33-1.83h0ZM55.49,28.45c-.17.28-.34.57-.49.86l2.46,1.65c.21-.41.44-.81.69-1.2l-2.66-1.31h0ZM53.99,31.6c-.11.31-.21.62-.3.94l2.75,1.1c.12-.45.26-.89.42-1.32l-2.87-.73h0ZM53.18,34.98c-.04.33-.08.66-.1.98l2.92.51c.02-.46.07-.92.14-1.38l-2.96-.11h0ZM53.08,38.46c.03.33.06.66.1.98l2.96-.11c-.07-.45-.12-.91-.15-1.38l-2.92.5h0ZM53.71,41.89c.09.32.2.63.31.94l2.87-.72c-.17-.43-.31-.87-.43-1.31l-2.75,1.1h0ZM55.04,45.1c.16.29.32.57.5.85l2.66-1.3c-.25-.39-.48-.79-.7-1.2l-2.46,1.65h0ZM57.01,47.97c.21.25.43.5.66.73l2.33-1.83c-.33-.33-.64-.67-.93-1.03l-2.06,2.12h0ZM59.53,50.38c.26.2.53.39.8.58l1.9-2.27c-.39-.25-.76-.52-1.12-.81l-1.58,2.51h0ZM62.5,52.2c.3.14.6.27.9.4l1.38-2.62c-.43-.17-.86-.35-1.27-.56l-1.02,2.78h0ZM65.78,53.36c.25.06.5.12.76.17.07.01.14.02.21.04l.81-2.85c-.15-.02-.31-.05-.46-.08-.3-.06-.6-.13-.89-.2l-.42,2.93h0ZM69.23,53.82c.33,0,.66,0,.99,0l.2-2.96c-.46.02-.92.03-1.38,0l.2,2.95h0ZM72.71,53.55c.32-.06.65-.13.97-.21l-.42-2.93c-.44.12-.9.22-1.35.29l.81,2.85h0ZM76.04,52.56c.3-.13.61-.26.9-.4l-1.02-2.78c-.41.21-.83.4-1.26.57l1.38,2.62h0ZM79.1,50.91c.27-.19.54-.38.8-.58l-1.58-2.51c-.36.29-.73.56-1.12.82l1.89,2.27h0ZM81.76,48.65c.23-.24.45-.48.66-.74l-2.06-2.13c-.29.36-.6.7-.92,1.03l2.33,1.83h0ZM83.88,45.89c.17-.28.34-.56.49-.86l-2.46-1.65c-.21.41-.44.81-.69,1.2l2.66,1.31h0ZM85.38,42.75c.11-.31.21-.62.3-.94l-2.75-1.1c-.12.45-.26.89-.42,1.32l2.87.73h0ZM86.2,39.36c.04-.33.08-.66.1-.98l-2.92-.51c-.02.46-.07.92-.14,1.38l2.96.11h0ZM86.29,35.88c-.03-.33-.06-.66-.1-.98l-2.96.11c.07.45.12.91.15,1.38l2.92-.5h0ZM85.66,32.46c-.09-.32-.2-.63-.31-.94l-2.87.72c.17.43.31.87.43,1.31l2.75-1.1h0ZM84.33,29.24c-.16-.29-.32-.57-.5-.85l-2.66,1.3c.25.39.48.79.7,1.2l2.46-1.65h0ZM82.36,26.37c-.21-.25-.43-.5-.66-.73l-2.33,1.83c.33.33.64.67.93,1.03l2.06-2.12h0ZM79.84,23.97c-.26-.2-.53-.39-.8-.58l-1.9,2.27c.39.25.76.52,1.12.81l1.58-2.51h0ZM76.87,22.14c-.3-.14-.6-.27-.9-.4l-1.38,2.62c.43.17.86.35,1.27.56l1.02-2.78h0Z"/>
          <path class="cls-3" d="M71.42,28.13c-5-.96-9.82,2.31-10.78,7.31-.96,5,2.31,9.82,7.31,10.78,5,.96,9.82-2.31,10.78-7.31.96-5-2.31-9.82-7.31-10.78h0Z"/>
          <path class="cls-12" d="M71.12,29.7c-4.12-.79-8.11,1.91-8.9,6.03-.79,4.12,1.91,8.11,6.03,8.9,4.12.79,8.11-1.91,8.9-6.03.79-4.12-1.91-8.11-6.03-8.9h0Z"/>
          <path class="cls-3" d="M70.28,34.06c-1.72-.33-3.38.79-3.71,2.51-.33,1.72.79,3.38,2.51,3.71s3.38-.79,3.71-2.51c.33-1.72-.79-3.38-2.51-3.71h0Z"/>
          <path class="cls-3" d="M70.62,32.3c-.27-.05-.52.12-.57.39s.12.52.39.57.52-.12.57-.39-.12-.52-.39-.57h0Z"/>
          <path class="cls-3" d="M73.31,33.78c-.18-.2-.49-.21-.69-.02-.2.18-.21.49-.02.69.18.2.49.21.69.02.2-.18.21-.49.02-.69h0Z"/>
          <path class="cls-3" d="M74.61,36.56c-.03-.27-.28-.46-.55-.42s-.46.28-.42.55c.03.27.28.46.55.42.27-.03.46-.28.42-.55h0Z"/>
          <path class="cls-3" d="M74.03,39.57c.13-.24.04-.53-.19-.66-.24-.13-.53-.04-.66.19s-.04.53.19.66c.24.13.53.04.66-.19h0Z"/>
          <path class="cls-3" d="M71.79,41.66c.24-.11.35-.41.23-.65-.11-.24-.41-.35-.65-.24-.24.11-.35.41-.24.65.11.24.41.35.65.24h0Z"/>
          <path class="cls-3" d="M68.75,42.04c.27.05.52-.12.57-.39s-.12-.52-.39-.57-.52.12-.57.39.12.52.39.57h0Z"/>
          <path class="cls-3" d="M66.07,40.56c.18.2.49.21.69.02.2-.18.21-.49.02-.69-.18-.2-.49-.21-.69-.02-.2.18-.21.49-.02.69h0Z"/>
          <path class="cls-3" d="M64.76,37.79c.03.27.28.46.55.42.27-.03.46-.28.42-.55-.03-.27-.28-.46-.55-.42-.27.03-.46.28-.42.55h0Z"/>
          <path class="cls-3" d="M65.34,34.78c-.13.24-.04.53.19.66.24.13.53.04.66-.19.13-.24.04-.53-.19-.66-.24-.13-.53-.04-.66.19h0Z"/>
          <path class="cls-3" d="M67.58,32.68c-.24.11-.35.41-.24.65.11.24.41.35.65.24.24-.11.35-.41.24-.65-.11-.24-.41-.35-.65-.24h0Z"/>
          <polygon class="cls-1" points="101.2 3.3 100.46 3.15 99.24 9.49 99.99 9.63 101.2 3.3 101.2 3.3"/>
          <path class="cls-7" d="M101.45.02h0c-.7-.13-1.37.33-1.51,1.02l-.17.86c-.13.7.33,1.37,1.02,1.51h0c.7.13,1.37-.33,1.51-1.02l.17-.86c.13-.7-.33-1.37-1.02-1.51h0Z"/>
          <path class="cls-1" d="M99.78,1.87v.04c-.14.7.32,1.37,1.01,1.51h0c.7.13,1.37-.33,1.51-1.02v-.04s-2.52-.49-2.52-.49h0Z"/>
          <path class="cls-15" d="M122.56,30.82c-4.77-1.39-14.38-3.42-21.78-4.83l-1.5,7.78-9.74-1.87-1.37,9.19,26.18,4.88,6.07-10.97,2.14-4.18h0Z"/>
          <path class="cls-10" d="M126.52,38.06h0c-.16.77.62,1.58,1.73,1.8l1.37.27.57-2.81-1.37-.27c-1.11-.22-2.14.23-2.3,1.01h0Z"/>
          <polygon class="cls-17" points="91.73 33.88 89.83 47.18 87.43 46.72 89.21 33.39 91.73 33.88 91.73 33.88"/>
          <path class="cls-10" d="M103.02,32.85l-6.83-1.31-2.14,15.28,4.13.79c.41.08.8-.17.91-.57,1.24-4.58,2.61-8.68,4.38-11.24.13-.19.17-.41.12-.64l-.58-2.31h0Z"/>
          <polygon class="cls-17" points="96.48 34.79 94.58 48.13 92.17 47.63 93.96 34.3 96.48 34.79 96.48 34.79"/>
          <polygon class="cls-5" points="95.46 37.24 89.29 36.05 89.17 36.69 95.33 37.88 95.46 37.24 95.46 37.24"/>
          <polygon class="cls-5" points="94.85 41.9 88.69 40.71 88.57 41.35 94.73 42.54 94.85 41.9 94.85 41.9"/>
          <polygon class="cls-5" points="94.1 47.34 87.94 46.15 87.81 46.79 93.98 47.98 94.1 47.34 94.1 47.34"/>
          <path class="cls-17" d="M118.02,38.29l2.35-6.15c.19-.5.13-1.01-.17-1.5-.31-.49-.78-.81-1.39-.96l-2.02-.5c-1.07-.26-2.14.2-2.5,1.08l-2.52,6.14c-.21.51-.16,1.04.16,1.53.32.5.8.83,1.43.97l2.19.5c1.08.25,2.14-.23,2.48-1.12h0Z"/>
          <path class="cls-1" d="M117.68,37.69l1.87-5.27c.15-.43.12-.86-.09-1.27-.22-.4-.56-.67-1-.78l-1.48-.38c-.78-.2-1.58.22-1.86.97l-1.99,5.27c-.17.44-.14.88.08,1.3.22.41.57.69,1.03.79l1.6.38c.79.19,1.58-.25,1.85-1.01h0Z"/>
          <polygon class="cls-17" points="119.74 32.83 114.26 31.21 114.18 31.84 119.62 33.45 119.74 32.83 119.74 32.83"/>
          <polygon class="cls-17" points="118.43 36.35 113.33 33.79 113.13 34.4 118.2 36.94 118.43 36.35 118.43 36.35"/>
          <path class="cls-6" d="M126.19,37.14c-10.99-6.48-23.03-.18-24.32,9.3.47.27.95.53,1.42.8,4.17-12,13.37-13.59,21.69-9.72-.12-.28,1.33-.1,1.21-.38h0Z"/>
          <path class="cls-6" d="M103.02,32.85l-6.83-1.31-.33,2.39,7.76,1.49c0-.08,0-.17-.02-.26l-.58-2.31h0Z"/>
          <path class="cls-10" d="M102.64,30.75l-.96-.18c-.18-.03-.35.08-.38.26l-.33,1.7c-.03.18.08.35.26.38l.96.18c.18.03.35-.08.38-.26l.33-1.7c.03-.18-.08-.35-.26-.38h0Z"/>
          <path class="cls-1" d="M97.08,31.68l-8.08-1.55c.19,1.44.1,2.35.09,3.27l7.38,1.42.6-3.14h0Z"/>
          <path class="cls-9" d="M134.75,42.53c-.21-.04-.42.1-.46.31s.1.42.31.46.42-.1.46-.31-.1-.42-.31-.46h0Z"/>
          <path class="cls-1" d="M120.82,36.87c-7.21-1.39-14.19,3.34-15.57,10.55-1.39,7.21,3.34,14.19,10.55,15.57,7.21,1.39,14.19-3.34,15.57-10.55,1.39-7.21-3.34-14.19-10.55-15.57h0Z"/>
          <path class="cls-10" d="M120.46,38.73c-6.19-1.19-12.17,2.86-13.35,9.05-1.19,6.19,2.86,12.17,9.05,13.35,6.19,1.19,12.17-2.86,13.35-9.05,1.19-6.19-2.86-12.17-9.05-13.35h0Z"/>
          <path class="cls-10" d="M121.44,36.94l-.34,2.35c-.24-.06-.48-.12-.72-.16-.12-.02-.25-.04-.37-.06l.65-2.29c.06,0,.11.02.17.03.21.04.41.08.61.13h0ZM118.67,36.57c-.27,0-.53,0-.79,0l-.16,2.37c.37-.02.74-.02,1.11,0l-.16-2.37h0ZM115.89,36.79c-.26.05-.52.1-.77.17l.34,2.35c.36-.1.72-.18,1.08-.24l-.65-2.29h0ZM113.21,37.58c-.24.1-.49.21-.72.32l.82,2.23c.33-.17.67-.32,1.01-.46l-1.11-2.1h0ZM110.76,38.91c-.22.15-.43.31-.64.47l1.26,2.01c.29-.23.59-.45.9-.66l-1.52-1.82h0ZM108.63,40.72c-.18.19-.36.39-.53.59l1.65,1.71c.23-.29.48-.56.74-.83l-1.87-1.47h0ZM106.92,42.94c-.14.22-.27.45-.4.69l1.97,1.33c.17-.33.35-.65.55-.96l-2.13-1.05h0ZM105.72,45.46c-.09.25-.17.5-.24.76l2.21.89c.1-.36.21-.71.34-1.06l-2.3-.58h0ZM105.07,48.18c-.04.26-.06.53-.08.79l2.34.41c.02-.37.06-.74.11-1.1l-2.37-.09h0ZM104.99,50.97c.02.26.05.53.08.79l2.38-.09c-.06-.36-.1-.73-.12-1.1l-2.34.4h0ZM105.5,53.71c.08.25.16.5.25.75l2.3-.58c-.13-.34-.25-.7-.35-1.05l-2.21.88h0ZM106.56,56.3c.13.23.26.46.4.69l2.13-1.05c-.2-.31-.39-.63-.56-.96l-1.97,1.32h0ZM108.14,58.6c.17.2.35.4.53.59l1.87-1.47c-.26-.26-.51-.54-.74-.82l-1.66,1.7h0ZM110.17,60.52c.21.16.42.32.64.47l1.52-1.82c-.31-.2-.61-.42-.9-.65l-1.27,2.01h0ZM112.55,61.99c.24.11.48.22.73.32l1.11-2.1c-.35-.13-.69-.28-1.02-.45l-.82,2.23h0ZM115.18,62.92c.2.05.4.09.61.13.06.01.11.02.17.03l.65-2.29c-.12-.02-.25-.04-.37-.06-.24-.05-.48-.1-.72-.16l-.34,2.35h0ZM117.95,63.29c.27,0,.53,0,.79,0l.16-2.37c-.37.02-.74.02-1.11,0l.16,2.37h0ZM120.73,63.07c.26-.05.52-.1.77-.17l-.34-2.35c-.36.1-.72.18-1.09.24l.65,2.29h0ZM123.41,62.28c.24-.1.49-.21.72-.32l-.82-2.23c-.33.17-.67.32-1.01.46l1.11,2.1h0ZM125.87,60.95c.22-.15.43-.31.64-.47l-1.26-2.01c-.29.23-.59.45-.9.66l1.52,1.82h0ZM127.99,59.14c.18-.19.36-.39.53-.59l-1.65-1.71c-.23.29-.48.56-.74.83l1.87,1.47h0ZM129.7,56.92c.14-.22.27-.45.4-.69l-1.97-1.32c-.17.33-.35.65-.55.96l2.13,1.05h0ZM130.9,54.4c.09-.25.17-.5.24-.76l-2.21-.88c-.1.36-.21.71-.34,1.06l2.3.58h0ZM131.56,51.69c.03-.26.06-.53.08-.79l-2.34-.41c-.02.37-.06.73-.11,1.1l2.37.09h0ZM131.63,48.9c-.02-.26-.05-.53-.08-.79l-2.38.09c.06.36.1.73.12,1.1l2.34-.4h0ZM131.13,46.15c-.08-.25-.16-.51-.25-.75l-2.3.58c.13.34.25.7.35,1.05l2.2-.88h0ZM130.06,43.57c-.13-.23-.26-.46-.4-.69l-2.13,1.05c.2.31.39.63.56.96l1.97-1.32h0ZM128.48,41.27c-.17-.2-.35-.4-.53-.59l-1.87,1.47c.26.26.51.54.74.82l1.66-1.7h0ZM126.46,39.34c-.21-.16-.42-.32-.64-.46l-1.52,1.82c.31.2.61.42.9.65l1.27-2.01h0ZM124.08,37.88c-.24-.11-.48-.22-.73-.32l-1.11,2.1c.35.13.69.28,1.02.45l.82-2.23h0Z"/>
          <path class="cls-3" d="M119.71,42.68c-4.01-.77-7.88,1.86-8.65,5.86-.77,4.01,1.86,7.88,5.86,8.65s7.88-1.86,8.65-5.86c.77-4.01-1.86-7.88-5.86-8.65h0Z"/>
          <path class="cls-12" d="M119.46,43.94c-3.31-.64-6.51,1.53-7.14,4.84s1.53,6.51,4.84,7.14c3.31.64,6.51-1.53,7.14-4.84.64-3.31-1.53-6.51-4.84-7.14h0Z"/>
          <path class="cls-3" d="M118.79,47.44c-1.38-.26-2.71.64-2.97,2.01s.64,2.71,2.01,2.97,2.71-.64,2.97-2.01-.64-2.71-2.01-2.97h0Z"/>
          <path class="cls-3" d="M119.06,46.02c-.21-.04-.42.1-.46.31s.1.42.31.46.42-.1.46-.31-.1-.42-.31-.46h0Z"/>
          <path class="cls-3" d="M121.22,47.21c-.15-.16-.4-.17-.55-.02-.16.15-.17.4-.02.55.15.16.4.17.55.02.16-.15.17-.4.02-.55h0Z"/>
          <path class="cls-3" d="M122.26,49.44c-.03-.21-.22-.37-.44-.34-.21.03-.37.22-.34.44.03.22.22.37.44.34.21-.03.37-.22.34-.44h0Z"/>
          <path class="cls-3" d="M121.8,51.85c.1-.19.04-.43-.15-.53-.19-.1-.43-.04-.53.15-.1.19-.04.43.15.53.19.1.43.04.53-.15h0Z"/>
          <path class="cls-3" d="M120,53.53c.2-.09.28-.33.19-.52-.09-.2-.33-.28-.52-.19-.2.09-.28.33-.19.52.09.2.33.28.52.19h0Z"/>
          <path class="cls-3" d="M117.56,53.84c.21.04.42-.1.46-.31s-.1-.42-.31-.46-.42.1-.46.31.1.42.31.46h0Z"/>
          <path class="cls-3" d="M115.41,52.65c.15.16.4.17.55.02.16-.15.17-.4.02-.55-.15-.16-.4-.17-.55-.02-.16.15-.17.4-.02.55h0Z"/>
          <path class="cls-3" d="M114.36,50.43c.03.22.22.37.44.34.21-.03.37-.22.34-.44-.03-.22-.22-.37-.44-.34-.21.03-.37.22-.34.44h0Z"/>
          <path class="cls-3" d="M114.83,48.01c-.1.19-.04.43.15.53.19.1.43.04.53-.15.1-.19.04-.43-.15-.53-.19-.1-.43-.04-.53.15h0Z"/>
          <path class="cls-3" d="M116.62,46.33c-.2.09-.28.33-.19.52.09.2.33.28.52.19.2-.09.28-.33.19-.52-.09-.2-.33-.28-.52-.19h0Z"/>
        </g>
        <g class="cls-19">
          <path class="cls-13" d="M120.82,36.87c.07.01.13.03.19.05l-5.02,26.1c-.07-.01-.13-.01-.2-.03-7.21-1.39-11.94-8.36-10.55-15.57,1.39-7.21,8.36-11.94,15.57-10.55Z"/>
        </g>
        <g class="cls-19">
          <path class="cls-13" d="M72.81,20.89h0s-6.26,32.57-6.26,32.57h0c-8.99-1.73-14.88-10.42-13.15-19.41,1.73-8.99,10.42-14.88,19.41-13.15Z"/>
        </g>
      </g>
      <polygon class="cls-4" points="39.17 38.27 51.49 40.52 51.28 41.6 38.96 39.36 39.17 38.27 39.17 38.27"/>
      <g>
        <polygon class="cls-18" points="39.49 45.25 37.99 50.65 38.39 45 39.49 45.25"/>
        <polygon class="cls-18" points="35.2 50.11 35.6 44.47 36.69 44.71 35.2 50.11"/>
        <polygon class="cls-18" points="32.41 49.57 32.8 43.93 33.9 44.18 32.41 49.57"/>
        <polygon class="cls-18" points="29.61 49.04 30.01 43.4 31.11 43.64 29.61 49.04"/>
        <polygon class="cls-18" points="26.82 48.5 27.22 42.86 28.32 43.1 26.82 48.5"/>
        <polygon class="cls-18" points="24.03 47.96 24.43 42.32 25.53 42.57 24.03 47.96"/>
        <polygon class="cls-18" points="21.24 47.43 21.63 41.79 22.73 42.03 21.24 47.43"/>
        <polygon class="cls-18" points="18.44 46.89 18.84 41.25 19.94 41.49 18.44 46.89"/>
        <polygon class="cls-18" points="15.65 46.35 16.05 40.71 17.15 40.96 15.65 46.35"/>
        <polygon class="cls-18" points="12.86 45.82 13.26 40.18 14.36 40.42 12.86 45.82"/>
        <polygon class="cls-18" points="10.07 45.28 10.46 39.64 11.56 39.88 10.07 45.28"/>
        <polygon class="cls-18" points="7.27 44.74 7.67 39.1 8.77 39.35 7.27 44.74"/>
        <polygon class="cls-18" points="4.48 44.21 4.88 38.57 5.98 38.81 4.48 44.21"/>
        <polygon class="cls-18" points="3.19 38.27 1.69 43.67 2.09 38.03 3.19 38.27"/>
      </g>
      <polygon class="cls-4" points=".4 36.09 42.01 44.05 41.6 46.23 0 38.27 .4 36.09 .4 36.09"/>
      <polygon class="cls-6" points=".81 33.98 11.55 35.95 11.23 37.61 .49 35.64 .81 33.98 .81 33.98"/>
    </g>
  </g>
</svg>